<svg xmlns="http://www.w3.org/2000/svg" xml:space="preserve"  viewBox="0 0 512 128"><g stroke="null"><path d="M207.7674 11.8539c.4564-.2662.6085-.8366.3423-1.293-.2662-.4563-.8366-.6084-1.293-.3422L81.5926 83.3834c-.4563.2662-.6084.8366-.3422 1.293.1901.3042.4943.4563.7985.4563.1521 0 .3043-.038.4564-.1141l80.618-47.078-25.06 78.7548c-.1521.4944.114 1.0268.6085 1.1789.076.038.19.038.2661.038.3803 0 .7606-.2662.8747-.6465l25.6685-80.7322 42.2864-24.6797z"/><path d="M310.8978 16.7974c-.4183-.3042-.9888-.1901-1.293.2282l-57.8397 84.2307-39.9667-6.7309-9.545-23.501 54.3032-8.1378c.4944-.076.8746-.5704.7986-1.0647-.076-.4944-.5704-.8747-1.0648-.7986l-54.7594 8.2139-15.8955-39.1682 87.8053-11.5984c.4943-.076.8746-.5324.7986-1.0648-.076-.4943-.5324-.8746-1.0648-.7985l-90.163 11.9025 26.6192 65.6353-27.3797-4.6013c-.4944-.076-.9888.2662-1.0648.7606-.076.4943.2662.9887.7605 1.0647l28.4826 4.7915 7.6435 18.8616c.152.3802.4943.5704.8746.5704.114 0 .2282-.038.3423-.076.4943-.1902.7225-.7226.5323-1.217l-7.2252-17.7968 37.9894 6.3886-6.6548 9.697c-.3042.4183-.1901.9887.2282 1.293.152.114.3422.152.5323.152.3043 0 .6085-.152.7606-.4182l7.1491-10.3815 56.5088 9.5068h.152c.4564 0 .8367-.3042.9127-.7605.076-.4944-.2662-.9887-.7605-1.0648l-55.6721-9.3928 57.4213-83.432c.2662-.4184.1522-1.0268-.2661-1.293zM430.57 111.2195l-41.4879-38.2556 39.4344-13.0814c.4944-.1521.7606-.6845.6085-1.1789-.1521-.4943-.6845-.7605-1.1789-.6084L387.523 71.5189l-59.1707-54.5314v96.2094c0 .5324.4183.9507.9507.9507s.9507-.4183.9507-.9507v-20.687l56.813-18.8615 42.2484 38.978c.3803.3423.9887.3423 1.331-.038.3422-.4182.3042-1.0267-.076-1.369zm-100.3543-20.725V21.2466l55.2538 50.9567-55.2538 18.2912z"/></g></svg>