<svg fill="currentColor" xmlns="http://www.w3.org/2000/svg" xml:space="preserve" shape-rendering="crispEdges"
	viewBox="0 0 1133.9 283.5">
	<path
		d="M573.6 0h-22.2v26.6h31V0H578zM516 26.6h-75.3v115.1h-57.6v26.6h57.6v88.6h57.6v-31h-31v-57.6h31v-26.6h-31V57.6h31v84.1h26.6V26.6h-4.5zm168.3 0H640v31h26.6v57.6H640v26.5h26.6v84.2H640v-84.2h-31v115.2h84.2V141.7h57.5v-26.5h-57.5V26.6h-4.5zm-425.2 31h-17.7v26.6H268V57.6h-4.5zm314.5 0h-22.2v168.3h31V57.6H578z" />
	<path
		d="M631.2 57.6H609v26.6h31V57.6h-4.4zM888 199.3h-22.1v26.6h26.6v-26.6zm-380.9 26.6h17.8v-26.6h-26.6v26.6h4.4zm349.9 0h-48.7V0H693.2v26.6h88.5v199.3h-57.5v57.6h26.5v-26.6h115.2v-31h-4.4zm-425.2 31h-75.3V57.6h53.2V0h-26.6v26.6H268v31h57.5v225.9h115.2v-26.6h-4.4zm141.8 0h-22.2v26.6h31v-26.6H578z" />
</svg>