<svg xmlns="http://www.w3.org/2000/svg" xml:space="preserve"  viewBox="0 0 512 128"><g stroke="null"><path d="M376.0022 48.8862c-.7688 0-1.3978-.629-1.3978-1.3979v-.0349c0-.7688.629-1.3978 1.3978-1.3978.7688 0 1.3978.629 1.3978 1.3978v.035c0 .7687-.629 1.3978-1.3978 1.3978zm0 33.0582c-.7688 0-1.3978-.629-1.3978-1.3978v-.0699c0-.7688.629-1.3629 1.3978-1.3629.7688 0 1.3978.629 1.3978 1.3979v.035c0 .7687-.629 1.3977-1.3978 1.3977zM261.731 113.535h-46.7218c-17.7173 0-32.2196-14.048-32.9884-31.5906h-46.023c-.7688 0-1.3978-.629-1.3978-1.3978V47.4534c0-.7688.629-1.3978 1.3978-1.3978h46.023c.7688-17.5426 15.271-31.5906 32.9884-31.5906h46.7218c.7688 0 1.3978.629 1.3978 1.3978 0 .7688-.629 1.3978-1.3978 1.3978-16.1797 0-29.4589 12.79-30.1927 28.795h45.324c.7688 0 1.3979.629 1.3979 1.3978v33.1281c0 .7688-.629 1.3978-1.3979 1.3978h-45.324c.7688 16.005 14.013 28.795 30.1927 28.795.7688 0 1.3978.629 1.3978 1.3978s-.629 1.3629-1.3978 1.3629zM137.3956 79.1488h45.988c.7688 0 1.3979.629 1.3979 1.3978.035 16.634 13.5937 30.1927 30.2276 30.1927h33.4776c-11.6018-5.102-19.744-16.7038-19.779-30.1927 0-.3844.1398-.7339.4193-.9785.2447-.2446.629-.4193.9785-.4193h45.359V48.8163h-45.359c-.3844 0-.7338-.1398-.9785-.4194-.2446-.2446-.4193-.629-.4193-.9785.035-13.4539 8.1772-25.0557 19.779-30.1578h-33.4776c-16.634 0-30.2276 13.5588-30.2276 30.1928 0 .7688-.629 1.3978-1.3979 1.3978h-45.988v30.2976z"/><path d="M308.4878 113.535H261.731c-18.1715 0-32.9883-14.7819-33.0233-32.9534 0-.3845.1398-.7339.4194-.9785.2446-.2446.629-.4194.9784-.4194h46.7219c.7688 0 1.3978.629 1.3978 1.3978 0 10.938 5.9757 21.072 15.5856 26.3838 4.473 2.481 9.54 3.809 14.677 3.809.7688 0 1.3979.629 1.3979 1.3978s-.629 1.3629-1.3979 1.3629zm-76.9495-31.5906c.7688 16.005 14.013 28.795 30.1927 28.795h33.4776c-.9435-.4194-1.852-.8737-2.7607-1.363-10.0642-5.5912-16.4592-16.0049-16.9834-27.432h-43.9262zm45.324-33.1281h-46.7568c-.3844 0-.7338-.1398-.9784-.4194-.2447-.2446-.4194-.629-.4194-.9784.035-18.1716 14.8518-32.9535 33.0233-32.9535h46.7219c.7688 0 1.3978.629 1.3978 1.3979s-.629 1.3978-1.3978 1.3978c-5.137 0-10.204 1.3279-14.677 3.809-9.575 5.3466-15.5507 15.4458-15.5856 26.3837.0349.7688-.5592 1.3629-1.328 1.3629zm-45.324-2.7607h43.9612c.4892-11.4271 6.9191-21.8408 16.9834-27.432.9086-.4893 1.8172-.9436 2.7607-1.363H261.766c-16.2146 0-29.459 12.79-30.2277 28.795z"/><path d="M344.3767 113.535h-35.8889c-5.5912 0-11.1475-1.4328-16.005-4.1585-10.4835-5.8359-16.9833-16.8786-17.0183-28.8299V47.4184c.035-11.9512 6.5348-22.994 17.0184-28.7949 4.8574-2.7257 10.4137-4.1585 16.005-4.1585h35.8888c5.5912 0 11.1475 1.4328 16.005 4.1585 10.4486 5.801 16.9833 16.8437 17.0183 28.8299v33.1281c0 .2097-.035.4194-.1398.629-.035.07-.0699.1398-.1048.1748-.2447.3494-.664.594-1.1532.594h-64.2295v5.766c0 2.9005 2.3763 5.2768 5.2767 5.2768h55.7727c.4893 0 .9086.2446 1.1882.664.2446.4193.2795.9085.0699 1.3628-3.0053 6.1154-7.723 11.1126-13.6636 14.3975-4.8924 2.6558-10.4487 4.0886-16.04 4.0886zm-35.8889-96.2743c-5.137 0-10.204 1.3279-14.677 3.809-9.575 5.3466-15.5506 15.4458-15.5856 26.3837v33.0932c0 10.9379 5.9757 21.072 15.5856 26.3837 4.473 2.4811 9.54 3.809 14.677 3.809h35.8889c5.137 0 10.204-1.3279 14.677-3.809 4.7875-2.6558 8.7014-6.4998 11.462-11.1825h-53.4663c-4.438 0-8.0374-3.5994-8.0374-8.0374v-7.1638c0-.7688.629-1.3978 1.3978-1.3978h64.2295V47.4185c-.035-10.938-5.9756-21.072-15.5856-26.3838-4.473-2.481-9.54-3.774-14.677-3.774h-35.8889zm34.3163 31.5556H310.375c-.7688 0-1.3978-.629-1.3978-1.3978v-7.1289c0-4.438 3.5993-8.0374 8.0374-8.0374h19.115c4.4381 0 8.0375 3.5994 8.0375 8.0374v7.1638c.035.7688-.594 1.3629-1.3629 1.3629zm-31.0314-2.7607h29.6336v-5.766c0-2.9005-2.3763-5.2767-5.2767-5.2767h-19.1151c-2.9005 0-5.2767 2.3762-5.2767 5.2767v5.766h.035z"/><path d="M310.3749 81.8745h-33.5475c-.7688 0-1.3978-.629-1.3978-1.3978V47.4534c0-.7688.629-1.3978 1.3978-1.3978h33.5475c.7688 0 1.3978.629 1.3978 1.3978v33.0583c0 .7688-.629 1.3628-1.3978 1.3628zm-32.1497-2.7607h30.7519V48.8163h-30.7519v30.2975z"/></g></svg>