<svg fill="currentColor" xmlns="http://www.w3.org/2000/svg" xml:space="preserve" shape-rendering="crispEdges"
	viewBox="0 0 1133.9 283.5">
	<path
		d="M669.7 0h-280v35h285V0h-5zm0 10v20h-275V5h275v5zm0 114.4H391.2v34.7h283.5v-34.7zM326.6 0H48.1v34.8h124.4v248.7h34.7V34.8h124.4V0zm343.1 248.6h-280v35h285v-35h-5zm0 10v20h-275v-25h275v5zM764.2 0h-29.8v283.5h34.8V0z" />
	<path
		d="M734.4 0h34.8v283.5h-34.8zm118.5 283.5 97.2-203.4 97.2 203.4h38.5L969.4 39.7 950.6.4l-.2-.4-.3.1-.3-.1-.2.4-18.8 39.3-116.4 243.8z" />
</svg>