<?xml version="1.0" encoding="utf-8"?>
<!-- Generator: Adobe Illustrator 23.1.1, SVG Export Plug-In . SVG Version: 6.00 Build 0)  -->
<svg version="1.1" id="Livello_1" shape-rendering="crispEdges"
	 xmlns="http://www.w3.org/2000/svg" xmlns:xlink="http://www.w3.org/1999/xlink" x="0px" y="0px" viewBox="0 0 1133.9 283.5"
	 style="enable-background:new 0 0 1133.9 283.5;" xml:space="preserve">
<g>
	<path d="M669.7,0h-5h-5h-5h-5h-5h-5h-5h-5h-5h-5h-5h-5h-5h-5h-5h-5h-5h-5h-5h-5h-5h-5h-5h-5h-5h-5h-5h-5h-5h-5h-5h-5h-5h-5h-5h-5
		h-5h-5h-5h-5h-5h-5h-5h-5h-5h-5h-5h-5h-5h-5h-5h-5h-5h-5h-5h-5v5v5v5v5v5v5v5h5h5h5h5h5h5h5h5h5h5h5h5h5h5h5h5h5h5h5h5h5h5h5h5h5h5
		h5h5h5h5h5h5h5h5h5h5h5h5h5h5h5h5h5h5h5h5h5h5h5h5h5h5h5h5h5h5h5v-5v-5v-5v-5v-5V5V0H669.7z M669.7,10v5v5v5v5h-5h-5h-5h-5h-5h-5
		h-5h-5h-5h-5h-5h-5h-5h-5h-5h-5h-5h-5h-5h-5h-5h-5h-5h-5h-5h-5h-5h-5h-5h-5h-5h-5h-5h-5h-5h-5h-5h-5h-5h-5h-5h-5h-5h-5h-5h-5h-5h-5
		h-5h-5h-5h-5h-5h-5h-5v-5v-5v-5v-5V5h5h5h5h5h5h5h5h5h5h5h5h5h5h5h5h5h5h5h5h5h5h5h5h5h5h5h5h5h5h5h5h5h5h5h5h5h5h5h5h5h5h5h5h5h5
		h5h5h5h5h5h5h5h5h5h5V10z"/>
	<polygon points="669.7,124.4 664.7,124.4 659.8,124.4 654.8,124.4 649.9,124.4 644.9,124.4 639.9,124.4 634.9,124.4 630,124.4 
		625,124.4 620,124.4 615,124.4 610,124.4 605,124.4 600.1,124.4 595.2,124.4 590.2,124.4 585.2,124.4 580.2,124.4 575.3,124.4 
		570.3,124.4 565.3,124.4 560.3,124.4 555.3,124.4 550.3,124.4 545.5,124.4 540.5,124.4 535.5,124.4 530.5,124.4 525.5,124.4 
		520.5,124.4 515.6,124.4 510.6,124.4 505.6,124.4 500.6,124.4 495.6,124.4 490.7,124.4 485.8,124.4 480.8,124.4 475.8,124.4 
		470.8,124.4 465.8,124.4 460.9,124.4 455.9,124.4 450.9,124.4 445.9,124.4 441,124.4 436,124.4 431.1,124.4 426.1,124.4 
		421.1,124.4 416.1,124.4 411.1,124.4 406.1,124.4 401.2,124.4 396.2,124.4 391.2,124.4 391.2,129.3 391.2,134.2 391.2,139.2 
		391.2,144.2 391.2,149.2 391.2,154.2 391.2,159.1 396.2,159.1 401.2,159.1 406.1,159.1 411.1,159.1 416.1,159.1 421.1,159.1 
		426.1,159.1 431.1,159.1 436,159.1 441,159.1 445.9,159.1 450.9,159.1 455.9,159.1 460.9,159.1 465.8,159.1 470.8,159.1 
		475.8,159.1 480.8,159.1 485.8,159.1 490.7,159.1 495.6,159.1 500.6,159.1 505.6,159.1 510.6,159.1 515.6,159.1 520.5,159.1 
		525.5,159.1 530.5,159.1 535.5,159.1 540.5,159.1 545.5,159.1 550.3,159.1 555.3,159.1 560.3,159.1 565.3,159.1 570.3,159.1 
		575.3,159.1 580.2,159.1 585.2,159.1 590.2,159.1 595.2,159.1 600.1,159.1 605,159.1 610,159.1 615,159.1 620,159.1 625,159.1 
		630,159.1 634.9,159.1 639.9,159.1 644.9,159.1 649.9,159.1 654.8,159.1 659.8,159.1 664.7,159.1 669.7,159.1 674.7,159.1 
		674.7,154.2 674.7,149.2 674.7,144.2 674.7,139.2 674.7,134.2 674.7,129.3 674.7,124.4 	"/>
	<polygon points="326.6,0 321.6,0 316.7,0 311.7,0 306.7,0 301.7,0 296.7,0 291.8,0 286.8,0 281.9,0 276.9,0 271.9,0 266.9,0 262,0 
		257,0 252,0 247,0 242,0 237,0 232.1,0 227.2,0 222.2,0 217.2,0 212.2,0 207.2,0 202.3,0 197.3,0 192.3,0 187.3,0 182.3,0 177.4,0 
		172.5,0 167.5,0 162.5,0 157.5,0 152.5,0 147.6,0 142.6,0 137.6,0 132.6,0 127.6,0 122.7,0 117.8,0 112.8,0 107.8,0 102.8,0 
		97.8,0 92.9,0 87.9,0 82.9,0 77.9,0 72.9,0 68,0 63.1,0 58.1,0 53.1,0 48.1,0 48.1,5 48.1,10 48.1,14.9 48.1,19.9 48.1,24.9 
		48.1,29.8 48.1,34.8 53.1,34.8 58.1,34.8 63.1,34.8 68,34.8 72.9,34.8 77.9,34.8 82.9,34.8 87.9,34.8 92.9,34.8 97.8,34.8 
		102.8,34.8 107.8,34.8 112.8,34.8 117.8,34.8 122.7,34.8 127.6,34.8 132.6,34.8 137.6,34.8 142.6,34.8 147.6,34.8 152.5,34.8 
		157.5,34.8 162.5,34.8 167.5,34.8 172.5,34.8 172.5,39.8 172.5,44.7 172.5,49.7 172.5,54.7 172.5,59.7 172.5,64.7 172.5,69.7 
		172.5,74.6 172.5,79.5 172.5,84.5 172.5,89.5 172.5,94.5 172.5,99.4 172.5,104.4 172.5,109.4 172.5,114.4 172.5,119.4 172.5,124.4 
		172.5,129.3 172.5,134.2 172.5,139.2 172.5,144.2 172.5,149.2 172.5,154.2 172.5,159.1 172.5,164.1 172.5,169.1 172.5,174.1 
		172.5,179.1 172.5,184.1 172.5,188.9 172.5,193.9 172.5,198.9 172.5,203.9 172.5,208.9 172.5,213.8 172.5,218.8 172.5,223.8 
		172.5,228.8 172.5,233.8 172.5,238.7 172.5,243.6 172.5,248.6 172.5,253.6 172.5,258.6 172.5,263.6 172.5,268.6 172.5,273.5 
		172.5,278.5 172.5,283.5 177.4,283.5 182.3,283.5 187.3,283.5 192.3,283.5 197.3,283.5 202.3,283.5 207.2,283.5 207.2,278.5 
		207.2,273.5 207.2,268.6 207.2,263.6 207.2,258.6 207.2,253.6 207.2,248.6 207.2,243.6 207.2,238.7 207.2,233.8 207.2,228.8 
		207.2,223.8 207.2,218.8 207.2,213.8 207.2,208.9 207.2,203.9 207.2,198.9 207.2,193.9 207.2,188.9 207.2,184.1 207.2,179.1 
		207.2,174.1 207.2,169.1 207.2,164.1 207.2,159.1 207.2,154.2 207.2,149.2 207.2,144.2 207.2,139.2 207.2,134.2 207.2,129.3 
		207.2,124.4 207.2,119.4 207.2,114.4 207.2,109.4 207.2,104.4 207.2,99.4 207.2,94.5 207.2,89.5 207.2,84.5 207.2,79.5 207.2,74.6 
		207.2,69.7 207.2,64.7 207.2,59.7 207.2,54.7 207.2,49.7 207.2,44.7 207.2,39.8 207.2,34.8 212.2,34.8 217.2,34.8 222.2,34.8 
		227.2,34.8 232.1,34.8 237,34.8 242,34.8 247,34.8 252,34.8 257,34.8 262,34.8 266.9,34.8 271.9,34.8 276.9,34.8 281.9,34.8 
		286.8,34.8 291.8,34.8 296.7,34.8 301.7,34.8 306.7,34.8 311.7,34.8 316.7,34.8 321.6,34.8 326.6,34.8 331.6,34.8 331.6,29.8 
		331.6,24.9 331.6,19.9 331.6,14.9 331.6,10 331.6,5 331.6,0 	"/>
	<path d="M669.7,248.6h-5h-5h-5h-5h-5h-5h-5h-5h-5h-5h-5h-5h-5h-5h-5h-5h-5h-5h-5h-5h-5h-5h-5h-5h-5h-5h-5h-5h-5h-5h-5h-5h-5h-5h-5
		h-5h-5h-5h-5h-5h-5h-5h-5h-5h-5h-5h-5h-5h-5h-5h-5h-5h-5h-5h-5h-5v5v5v5v5v5v5v5h5h5h5h5h5h5h5h5h5h5h5h5h5h5h5h5h5h5h5h5h5h5h5h5
		h5h5h5h5h5h5h5h5h5h5h5h5h5h5h5h5h5h5h5h5h5h5h5h5h5h5h5h5h5h5h5h5h5v-5v-5v-5v-5v-5v-5v-5H669.7z M669.7,258.6v5v5v5v5h-5h-5h-5
		h-5h-5h-5h-5h-5h-5h-5h-5h-5h-5h-5h-5h-5h-5h-5h-5h-5h-5h-5h-5h-5h-5h-5h-5h-5h-5h-5h-5h-5h-5h-5h-5h-5h-5h-5h-5h-5h-5h-5h-5h-5h-5
		h-5h-5h-5h-5h-5h-5h-5h-5h-5h-5v-5v-5v-5v-5v-5h5h5h5h5h5h5h5h5h5h5h5h5h5h5h5h5h5h5h5h5h5h5h5h5h5h5h5h5h5h5h5h5h5h5h5h5h5h5h5h5
		h5h5h5h5h5h5h5h5h5h5h5h5h5h5h5V258.6z"/>
	<polygon points="764.2,0 759.2,0 754.3,0 749.3,0 744.4,0 739.4,0 734.4,0 734.4,5 734.4,10 734.4,14.9 734.4,19.9 734.4,24.9 
		734.4,29.8 734.4,34.8 734.4,39.8 734.4,44.7 734.4,49.7 734.4,54.7 734.4,59.7 734.4,64.7 734.4,69.7 734.4,74.6 734.4,79.5 
		734.4,84.5 734.4,89.5 734.4,94.5 734.4,99.4 734.4,104.4 734.4,109.4 734.4,114.4 734.4,119.4 734.4,124.4 734.4,129.3 
		734.4,134.2 734.4,139.2 734.4,144.2 734.4,149.2 734.4,154.2 734.4,159.1 734.4,164.1 734.4,169.1 734.4,174.1 734.4,179.1 
		734.4,184.1 734.4,188.9 734.4,193.9 734.4,198.9 734.4,203.9 734.4,208.9 734.4,213.8 734.4,218.8 734.4,223.8 734.4,228.8 
		734.4,233.8 734.4,238.7 734.4,243.6 734.4,248.6 734.4,253.6 734.4,258.6 734.4,263.6 734.4,268.6 734.4,273.5 734.4,278.5 
		734.4,283.5 739.4,283.5 744.4,283.5 749.3,283.5 754.3,283.5 759.2,283.5 764.2,283.5 769.2,283.5 769.2,278.5 769.2,273.5 
		769.2,268.6 769.2,263.6 769.2,258.6 769.2,253.6 769.2,248.6 769.2,243.6 769.2,238.7 769.2,233.8 769.2,228.8 769.2,223.8 
		769.2,218.8 769.2,213.8 769.2,208.9 769.2,203.9 769.2,198.9 769.2,193.9 769.2,188.9 769.2,184.1 769.2,179.1 769.2,174.1 
		769.2,169.1 769.2,164.1 769.2,159.1 769.2,154.2 769.2,149.2 769.2,144.2 769.2,139.2 769.2,134.2 769.2,129.3 769.2,124.4 
		769.2,119.4 769.2,114.4 769.2,109.4 769.2,104.4 769.2,99.4 769.2,94.5 769.2,89.5 769.2,84.5 769.2,79.5 769.2,74.6 769.2,69.7 
		769.2,64.7 769.2,59.7 769.2,54.7 769.2,49.7 769.2,44.7 769.2,39.8 769.2,34.8 769.2,29.8 769.2,24.9 769.2,19.9 769.2,14.9 
		769.2,10 769.2,5 769.2,0 	"/>
	<rect x="734.4" y="0" width="34.8" height="283.5"/>
	<polygon points="852.9,283.5 950.1,80.1 1047.3,283.5 1085.8,283.5 969.4,39.7 950.6,0.4 950.4,0 950.1,0.1 949.8,0 949.6,0.4 
		930.8,39.7 814.4,283.5 	"/>
</g>
</svg>
