<?xml version="1.0" encoding="utf-8"?>
<!-- Generator: Adobe Illustrator 23.1.1, SVG Export Plug-In . SVG Version: 6.00 Build 0)  -->
<svg version="1.1" id="Livello_1" xmlns="http://www.w3.org/2000/svg" xmlns:xlink="http://www.w3.org/1999/xlink" x="0px" y="0px"
	 viewBox="0 0 1133.9 283.5" style="enable-background:new 0 0 1133.9 283.5;" xml:space="preserve">
<style type="text/css">
	.st0{fill:#FFFFFF;}
</style>
<rect x="0" width="1133.9" height="283.5"/>
<polygon class="st0" points="468.5,0 378.6,0 282,0 192.1,0 192.1,90.6 282,90.6 282,283.5 378.6,283.5 378.6,90.6 468.5,90.6 "/>
<path class="st0" d="M660.1,0v283.5h96.6V0H660.1z M708.4,84C686.6,84,669,66.3,669,44.6c0-21.8,17.6-39.4,39.4-39.4
	c21.8,0,39.4,17.6,39.4,39.4C747.8,66.3,730.1,84,708.4,84z"/>
<path class="st0" d="M580.1,235.9c-44.7,0-49.3-31.7-49.3-31.7h98.5c0-74.2-47-108.1-96.8-108.1s-104.7,22.6-104.7,96.2
	s64,91.2,64,91.2h88.3c24.3,0,49.3-31.7,49.3-31.7v-36.8C629.4,214.9,615.8,235.9,580.1,235.9z M547.3,141.9
	c12.1,0,22,13.8,22.6,31.2h-45.2C525.2,155.7,535.1,141.9,547.3,141.9z"/>
<path class="st0" d="M882.2,93.9c-47.5,0-93.5,23.2-93.5,23.2v59.5c0,0,12-19.1,52.1-19.1c40.2,0,40.2,29.5,40.2,29.5
	s-11.5-4.2-31.3-4.2c-31.3,0-66.4,18.2-66.4,55.2c0,37.1,28.2,45.5,28.2,45.5h46c14.7,0,23.6-14.6,23.6-14.6v14.6h95.4
	c0,0,0-76,0-121.6S929.7,93.9,882.2,93.9z M881.1,238.1c-2.8,6.3-9,9.6-16.3,9.6c-9.9,0-19.9-7-19.9-16.9s10-16.9,19.9-16.9
	c7.3,0,13.6,3.4,16.3,9.6V238.1z"/>
</svg>
