<svg fill="currentColor" xmlns="http://www.w3.org/2000/svg" xml:space="preserve" viewBox="0 0 1133.9 283.5">
	<path
		d="M468.5 0H192.1v90.6H282v192.9h96.6V90.6h89.9zm191.6 0v283.5h96.6V0h-96.6zm48.3 84C686.6 84 669 66.3 669 44.6c0-21.8 17.6-39.4 39.4-39.4 21.8 0 39.4 17.6 39.4 39.4 0 21.7-17.7 39.4-39.4 39.4z"
		class="st0" />
	<path
		d="M580.1 235.9c-44.7 0-49.3-31.7-49.3-31.7h98.5c0-74.2-47-108.1-96.8-108.1s-104.7 22.6-104.7 96.2 64 91.2 64 91.2h88.3c24.3 0 49.3-31.7 49.3-31.7V215c0-.1-13.6 20.9-49.3 20.9zm-32.8-94c12.1 0 22 13.8 22.6 31.2h-45.2c.5-17.4 10.4-31.2 22.6-31.2zm334.9-48c-47.5 0-93.5 23.2-93.5 23.2v59.5s12-19.1 52.1-19.1C881 157.5 881 187 881 187s-11.5-4.2-31.3-4.2c-31.3 0-66.4 18.2-66.4 55.2 0 37.1 28.2 45.5 28.2 45.5h46c14.7 0 23.6-14.6 23.6-14.6v14.6h95.4V161.9c0-45.6-46.8-68-94.3-68zm-1.1 144.2c-2.8 6.3-9 9.6-16.3 9.6-9.9 0-19.9-7-19.9-16.9s10-16.9 19.9-16.9c7.3 0 13.6 3.4 16.3 9.6v14.6z"
		class="st0" />
</svg>