<?xml version="1.0" encoding="utf-8"?>
<!-- Generator: Adobe Illustrator 23.1.1, SVG Export Plug-In . SVG Version: 6.00 Build 0)  -->
<svg version="1.1" id="Livello_1" shape-rendering="crispEdges"
	 xmlns="http://www.w3.org/2000/svg" xmlns:xlink="http://www.w3.org/1999/xlink" x="0px" y="0px" viewBox="0 0 1133.9 283.5"
	 style="enable-background:new 0 0 1133.9 283.5;" xml:space="preserve">
<g>
	<polygon points="241.9,5.7 234.3,5.7 226.8,5.7 219.2,5.7 211.7,5.7 204.1,5.7 196.5,5.7 189,5.7 181.4,5.7 173.9,5.7 166.3,5.7 
		158.7,5.7 151.2,5.7 143.6,5.7 136.1,5.7 128.5,5.7 120.9,5.7 113.4,5.7 105.8,5.7 98.3,5.7 90.7,5.7 83.1,5.7 75.6,5.7 68,5.7 
		60.5,5.7 52.9,5.7 45.4,5.7 37.8,5.7 30.2,5.7 22.7,5.7 15.1,5.7 7.6,5.7 0,5.7 0,13.2 0,20.8 0,28.3 0,35.9 0,43.5 0,51 0,58.6 
		0,66.1 0,73.7 0,81.3 0,88.8 0,96.4 7.6,96.4 15.1,96.4 22.7,96.4 30.2,96.4 37.8,96.4 45.4,96.4 52.9,96.4 60.5,96.4 68,96.4 
		75.6,96.4 83.1,96.4 83.1,103.9 83.1,111.5 83.1,119.1 83.1,126.6 83.1,134.2 83.1,141.7 83.1,149.3 83.1,156.9 83.1,164.4 
		83.1,172 83.1,179.5 83.1,187.1 83.1,194.6 83.1,202.2 83.1,209.8 83.1,217.3 83.1,224.9 83.1,232.4 83.1,240 83.1,247.6 
		83.1,255.1 83.1,262.7 83.1,270.2 83.1,277.8 90.7,277.8 98.3,277.8 105.8,277.8 113.4,277.8 120.9,277.8 128.5,277.8 136.1,277.8 
		143.6,277.8 151.2,277.8 158.7,277.8 166.3,277.8 173.9,277.8 173.9,270.2 173.9,262.7 173.9,255.1 173.9,247.6 173.9,240 
		173.9,232.4 173.9,224.9 173.9,217.3 173.9,209.8 173.9,202.2 173.9,194.6 173.9,187.1 173.9,179.5 173.9,172 173.9,164.4 
		173.9,156.9 173.9,149.3 173.9,141.7 173.9,134.2 173.9,126.6 173.9,119.1 173.9,111.5 173.9,103.9 173.9,96.4 181.4,96.4 
		189,96.4 196.5,96.4 204.1,96.4 211.7,96.4 219.2,96.4 226.8,96.4 234.3,96.4 241.9,96.4 249.4,96.4 257,96.4 257,88.8 257,81.3 
		257,73.7 257,66.1 257,58.6 257,51 257,43.5 257,35.9 257,28.3 257,20.8 257,13.2 257,5.7 249.4,5.7 	"/>
	<polygon points="589.6,5.7 582,5.7 574.5,5.7 566.9,5.7 559.4,5.7 551.8,5.7 544.3,5.7 536.7,5.7 529.1,5.7 521.6,5.7 514,5.7 
		506.5,5.7 498.9,5.7 491.3,5.7 483.8,5.7 476.2,5.7 468.7,5.7 461.1,5.7 453.5,5.7 446,5.7 438.4,5.7 430.9,5.7 423.3,5.7 
		415.7,5.7 408.2,5.7 400.6,5.7 393.1,5.7 385.5,5.7 378,5.7 370.4,5.7 362.8,5.7 355.3,5.7 347.7,5.7 347.7,13.2 347.7,20.8 
		347.7,28.3 347.7,35.9 347.7,43.5 347.7,51 347.7,58.6 347.7,66.1 347.7,73.7 347.7,81.3 347.7,88.8 347.7,96.4 355.3,96.4 
		362.8,96.4 370.4,96.4 378,96.4 385.5,96.4 393.1,96.4 400.6,96.4 408.2,96.4 415.7,96.4 423.3,96.4 430.9,96.4 438.4,96.4 
		446,96.4 453.5,96.4 461.1,96.4 468.7,96.4 476.2,96.4 483.8,96.4 491.3,96.4 498.9,96.4 506.5,96.4 514,96.4 521.6,96.4 
		529.1,96.4 536.7,96.4 544.3,96.4 551.8,96.4 559.4,96.4 566.9,96.4 574.5,96.4 582,96.4 589.6,96.4 597.2,96.4 604.7,96.4 
		604.7,88.8 604.7,81.3 604.7,73.7 604.7,66.1 604.7,58.6 604.7,51 604.7,43.5 604.7,35.9 604.7,28.3 604.7,20.8 604.7,13.2 
		604.7,5.7 597.2,5.7 	"/>
	<polygon points="771,5.7 763.5,5.7 755.9,5.7 748.3,5.7 740.8,5.7 733.2,5.7 725.7,5.7 718.1,5.7 710.6,5.7 703,5.7 695.4,5.7 
		695.4,13.2 695.4,20.8 695.4,28.3 695.4,35.9 695.4,43.5 695.4,51 695.4,58.6 695.4,66.1 695.4,73.7 695.4,81.3 695.4,88.8 
		695.4,96.4 695.4,103.9 695.4,111.5 695.4,119.1 695.4,126.6 695.4,134.2 695.4,141.7 695.4,149.3 695.4,156.9 695.4,164.4 
		695.4,172 695.4,179.5 695.4,187.1 695.4,194.6 695.4,202.2 695.4,209.8 695.4,217.3 695.4,224.9 695.4,232.4 695.4,240 
		695.4,247.6 695.4,255.1 695.4,262.7 695.4,270.2 695.4,277.8 703,277.8 710.6,277.8 718.1,277.8 725.7,277.8 733.2,277.8 
		740.8,277.8 748.3,277.8 755.9,277.8 763.5,277.8 771,277.8 778.6,277.8 786.1,277.8 786.1,270.2 786.1,262.7 786.1,255.1 
		786.1,247.6 786.1,240 786.1,232.4 786.1,224.9 786.1,217.3 786.1,209.8 786.1,202.2 786.1,194.6 786.1,187.1 786.1,179.5 
		786.1,172 786.1,164.4 786.1,156.9 786.1,149.3 786.1,141.7 786.1,134.2 786.1,126.6 786.1,119.1 786.1,111.5 786.1,103.9 
		786.1,96.4 786.1,88.8 786.1,81.3 786.1,73.7 786.1,66.1 786.1,58.6 786.1,51 786.1,43.5 786.1,35.9 786.1,28.3 786.1,20.8 
		786.1,13.2 786.1,5.7 778.6,5.7 	"/>
	<polygon points="1126.3,5.7 1118.7,5.7 1111.2,5.7 1103.6,5.7 1096.1,5.7 1088.5,5.7 1080.9,5.7 1073.4,5.7 1065.8,5.7 1058.3,5.7 
		1050.7,5.7 1043.1,5.7 1035.6,5.7 1028,5.7 1020.5,5.7 1012.9,5.7 1005.4,5.7 997.8,5.7 990.2,5.7 982.7,5.7 975.1,5.7 967.6,5.7 
		960,5.7 952.4,5.7 944.9,5.7 937.3,5.7 929.8,5.7 922.2,5.7 914.6,5.7 907.1,5.7 899.5,5.7 892,5.7 884.4,5.7 876.9,5.7 
		876.9,13.2 876.9,20.8 876.9,28.3 876.9,35.9 876.9,43.5 876.9,51 876.9,58.6 876.9,66.1 876.9,73.7 876.9,81.3 876.9,88.8 
		876.9,96.4 876.9,103.9 876.9,111.5 876.9,119.1 876.9,126.6 876.9,134.2 876.9,141.7 876.9,149.3 876.9,156.9 876.9,164.4 
		876.9,172 876.9,179.5 876.9,187.1 876.9,194.6 876.9,202.2 876.9,209.8 876.9,217.3 876.9,224.9 876.9,232.4 876.9,240 
		876.9,247.6 876.9,255.1 876.9,262.7 876.9,270.2 876.9,277.8 884.4,277.8 892,277.8 899.5,277.8 907.1,277.8 914.6,277.8 
		922.2,277.8 929.8,277.8 937.3,277.8 944.9,277.8 952.4,277.8 960,277.8 967.6,277.8 967.6,270.2 967.6,262.7 967.6,255.1 
		967.6,247.6 967.6,240 967.6,232.4 967.6,224.9 967.6,217.3 967.6,209.8 967.6,202.2 967.6,194.6 967.6,187.1 967.6,179.5 
		967.6,172 967.6,164.4 967.6,156.9 967.6,149.3 967.6,141.7 967.6,134.2 967.6,126.6 967.6,119.1 967.6,111.5 967.6,103.9 
		967.6,96.4 975.1,96.4 982.7,96.4 990.2,96.4 997.8,96.4 1005.4,96.4 1012.9,96.4 1020.5,96.4 1028,96.4 1035.6,96.4 1043.1,96.4 
		1043.1,103.9 1043.1,111.5 1043.1,119.1 1043.1,126.6 1043.1,134.2 1043.1,141.7 1043.1,149.3 1043.1,156.9 1043.1,164.4 
		1043.1,172 1043.1,179.5 1043.1,187.1 1043.1,194.6 1043.1,202.2 1043.1,209.8 1043.1,217.3 1043.1,224.9 1043.1,232.4 1043.1,240 
		1043.1,247.6 1043.1,255.1 1043.1,262.7 1043.1,270.2 1043.1,277.8 1050.7,277.8 1058.3,277.8 1065.8,277.8 1073.4,277.8 
		1080.9,277.8 1088.5,277.8 1096.1,277.8 1103.6,277.8 1111.2,277.8 1118.7,277.8 1126.3,277.8 1133.9,277.8 1133.9,270.2 
		1133.9,262.7 1133.9,255.1 1133.9,247.6 1133.9,240 1133.9,232.4 1133.9,224.9 1133.9,217.3 1133.9,209.8 1133.9,202.2 
		1133.9,194.6 1133.9,187.1 1133.9,179.5 1133.9,172 1133.9,164.4 1133.9,156.9 1133.9,149.3 1133.9,141.7 1133.9,134.2 
		1133.9,126.6 1133.9,119.1 1133.9,111.5 1133.9,103.9 1133.9,96.4 1133.9,88.8 1133.9,81.3 1133.9,73.7 1133.9,66.1 1133.9,58.6 
		1133.9,51 1133.9,43.5 1133.9,35.9 1133.9,28.3 1133.9,20.8 1133.9,13.2 1133.9,5.7 	"/>
	<polygon points="589.6,187.1 582,187.1 574.5,187.1 566.9,187.1 559.4,187.1 551.8,187.1 544.3,187.1 536.7,187.1 529.1,187.1 
		521.6,187.1 514,187.1 506.5,187.1 498.9,187.1 491.3,187.1 483.8,187.1 476.2,187.1 468.7,187.1 461.1,187.1 453.5,187.1 
		446,187.1 438.4,187.1 430.9,187.1 423.3,187.1 415.7,187.1 408.2,187.1 400.6,187.1 393.1,187.1 385.5,187.1 378,187.1 
		370.4,187.1 362.8,187.1 355.3,187.1 347.7,187.1 347.7,194.6 347.7,202.2 347.7,209.8 347.7,217.3 347.7,224.9 347.7,232.4 
		347.7,240 347.7,247.6 347.7,255.1 347.7,262.7 347.7,270.2 347.7,277.8 355.3,277.8 362.8,277.8 370.4,277.8 378,277.8 
		385.5,277.8 393.1,277.8 400.6,277.8 408.2,277.8 415.7,277.8 423.3,277.8 430.9,277.8 438.4,277.8 446,277.8 453.5,277.8 
		461.1,277.8 468.7,277.8 476.2,277.8 483.8,277.8 491.3,277.8 498.9,277.8 506.5,277.8 514,277.8 521.6,277.8 529.1,277.8 
		536.7,277.8 544.3,277.8 551.8,277.8 559.4,277.8 566.9,277.8 574.5,277.8 582,277.8 589.6,277.8 597.2,277.8 604.7,277.8 
		604.7,270.2 604.7,262.7 604.7,255.1 604.7,247.6 604.7,240 604.7,232.4 604.7,224.9 604.7,217.3 604.7,209.8 604.7,202.2 
		604.7,194.6 604.7,187.1 597.2,187.1 	"/>
</g>
</svg>
