<?xml version="1.0" encoding="utf-8"?>
<!-- Generator: Adobe Illustrator 23.1.1, SVG Export Plug-In . SVG Version: 6.00 Build 0)  -->
<svg version="1.1" id="Livello_1" shape-rendering="crispEdges"
	 xmlns="http://www.w3.org/2000/svg" xmlns:xlink="http://www.w3.org/1999/xlink" x="0px" y="0px" viewBox="0 0 1133.9 283.5"
	 style="enable-background:new 0 0 1133.9 283.5;" xml:space="preserve">
<g>
	<polygon points="247.1,10.9 239.9,10.9 232.6,10.9 225.3,10.9 218,10.9 210.8,10.9 203.5,10.9 196.2,10.9 189,10.9 181.7,10.9 
		174.4,10.9 167.2,10.9 159.9,10.9 152.6,10.9 145.4,10.9 138.1,10.9 130.8,10.9 123.6,10.9 116.3,10.9 109,10.9 101.8,10.9 
		94.5,10.9 87.2,10.9 80,10.9 72.7,10.9 65.4,10.9 58.1,10.9 50.9,10.9 43.6,10.9 36.3,10.9 29.1,10.9 21.8,10.9 14.5,10.9 
		7.3,10.9 0,10.9 0,18.2 0,25.4 0,32.7 0,40 0,47.2 0,54.5 0,61.8 0,69 0,76.3 0,83.6 0,90.9 0,98.1 7.3,98.1 14.5,98.1 21.8,98.1 
		29.1,98.1 36.3,98.1 43.6,98.1 50.9,98.1 58.1,98.1 65.4,98.1 72.7,98.1 80,98.1 87.2,98.1 87.2,105.4 87.2,112.7 87.2,119.9 
		87.2,127.2 87.2,134.5 87.2,141.7 87.2,149 87.2,156.3 87.2,163.5 87.2,170.8 87.2,178.1 87.2,185.3 87.2,192.6 87.2,199.9 
		87.2,207.1 87.2,214.4 87.2,221.7 87.2,229 87.2,236.2 87.2,243.5 87.2,250.8 87.2,258 87.2,265.3 87.2,272.6 94.5,272.6 
		101.8,272.6 109,272.6 116.3,272.6 123.6,272.6 130.8,272.6 138.1,272.6 145.4,272.6 152.6,272.6 159.9,272.6 167.2,272.6 
		174.4,272.6 174.4,265.3 174.4,258 174.4,250.8 174.4,243.5 174.4,236.2 174.4,229 174.4,221.7 174.4,214.4 174.4,207.1 
		174.4,199.9 174.4,192.6 174.4,185.3 174.4,178.1 174.4,170.8 174.4,163.5 174.4,156.3 174.4,149 174.4,141.7 174.4,134.5 
		174.4,127.2 174.4,119.9 174.4,112.7 174.4,105.4 174.4,98.1 181.7,98.1 189,98.1 196.2,98.1 203.5,98.1 210.8,98.1 218,98.1 
		225.3,98.1 232.6,98.1 239.9,98.1 247.1,98.1 254.4,98.1 261.7,98.1 261.7,90.9 261.7,83.6 261.7,76.3 261.7,69 261.7,61.8 
		261.7,54.5 261.7,47.2 261.7,40 261.7,32.7 261.7,25.4 261.7,18.2 261.7,10.9 254.4,10.9 	"/>
	<polygon points="596,10.9 588.7,10.9 581.5,10.9 574.2,10.9 566.9,10.9 559.7,10.9 552.4,10.9 545.1,10.9 537.9,10.9 530.6,10.9 
		523.3,10.9 516.1,10.9 508.8,10.9 501.5,10.9 494.2,10.9 487,10.9 479.7,10.9 472.4,10.9 465.2,10.9 457.9,10.9 450.6,10.9 
		443.4,10.9 436.1,10.9 428.8,10.9 421.6,10.9 414.3,10.9 407,10.9 399.8,10.9 392.5,10.9 385.2,10.9 378,10.9 370.7,10.9 
		363.4,10.9 356.1,10.9 348.9,10.9 348.9,18.2 348.9,25.4 348.9,32.7 348.9,40 348.9,47.2 348.9,54.5 348.9,61.8 348.9,69 
		348.9,76.3 348.9,83.6 348.9,90.9 348.9,98.1 356.1,98.1 363.4,98.1 370.7,98.1 378,98.1 385.2,98.1 392.5,98.1 399.8,98.1 
		407,98.1 414.3,98.1 421.6,98.1 428.8,98.1 436.1,98.1 443.4,98.1 450.6,98.1 457.9,98.1 465.2,98.1 472.4,98.1 479.7,98.1 
		487,98.1 494.2,98.1 501.5,98.1 508.8,98.1 516.1,98.1 523.3,98.1 530.6,98.1 537.9,98.1 545.1,98.1 552.4,98.1 559.7,98.1 
		566.9,98.1 574.2,98.1 581.5,98.1 588.7,98.1 596,98.1 603.3,98.1 610.5,98.1 610.5,90.9 610.5,83.6 610.5,76.3 610.5,69 
		610.5,61.8 610.5,54.5 610.5,47.2 610.5,40 610.5,32.7 610.5,25.4 610.5,18.2 610.5,10.9 603.3,10.9 	"/>
	<polygon points="770.4,10.9 763.2,10.9 755.9,10.9 748.6,10.9 741.4,10.9 734.1,10.9 726.8,10.9 719.6,10.9 712.3,10.9 705,10.9 
		697.8,10.9 697.8,18.2 697.8,25.4 697.8,32.7 697.8,40 697.8,47.2 697.8,54.5 697.8,61.8 697.8,69 697.8,76.3 697.8,83.6 
		697.8,90.9 697.8,98.1 697.8,105.4 697.8,112.7 697.8,119.9 697.8,127.2 697.8,134.5 697.8,141.7 697.8,149 697.8,156.3 
		697.8,163.5 697.8,170.8 697.8,178.1 697.8,185.3 697.8,192.6 697.8,199.9 697.8,207.1 697.8,214.4 697.8,221.7 697.8,229 
		697.8,236.2 697.8,243.5 697.8,250.8 697.8,258 697.8,265.3 697.8,272.6 705,272.6 712.3,272.6 719.6,272.6 726.8,272.6 
		734.1,272.6 741.4,272.6 748.6,272.6 755.9,272.6 763.2,272.6 770.4,272.6 777.7,272.6 785,272.6 785,265.3 785,258 785,250.8 
		785,243.5 785,236.2 785,229 785,221.7 785,214.4 785,207.1 785,199.9 785,192.6 785,185.3 785,178.1 785,170.8 785,163.5 
		785,156.3 785,149 785,141.7 785,134.5 785,127.2 785,119.9 785,112.7 785,105.4 785,98.1 785,90.9 785,83.6 785,76.3 785,69 
		785,61.8 785,54.5 785,47.2 785,40 785,32.7 785,25.4 785,18.2 785,10.9 777.7,10.9 	"/>
	<path d="M1126.6,10.9h-7.3h-7.3h-7.3h-7.3h-7.3h-7.3h-7.3h-7.3h-7.3h-7.3h-7.3h-7.3h-7.3h-7.3h-7.3h-7.3h-7.3h-7.3h-7.3h-7.3H974
		h-7.3h-7.3h-7.3h-7.3h-7.3h-7.3h-7.3h-7.3h-7.3h-7.3H894h-7.3h-7.3h-7.3v7.3v7.3v7.3V40v7.3v7.3v7.3V69v7.3v7.3v7.3v7.3v7.3v7.3
		v7.3v7.3v7.3v7.3v7.3v7.3v7.3v7.3v7.3v7.3v7.3v7.3v7.3v7.3v7.3v7.3v7.3v7.3v7.3v7.3v7.3v7.3h7.3h7.3h7.3h7.3h7.3h7.3h7.3h7.3h7.3
		h7.3h7.3h7.3v-7.3V258v-7.3v-7.3v-7.3V229h7.3h7.3h7.3h7.3h7.3h7.3h7.3h7.3h7.3h7.3h7.3h7.3v7.3v7.3v7.3v7.3v7.3v7.3h7.3h7.3h7.3
		h7.3h7.3h7.3h7.3h7.3h7.3h7.3h7.3h7.3v-7.3V258v-7.3v-7.3v-7.3V229v-7.3v-7.3v-7.3v-7.3v-7.3v-7.3v-7.3v-7.3v-7.3v-7.3V149v-7.3
		v-7.3v-7.3v-7.3v-7.3v-7.3v-7.3v-7.3v-7.3v-7.3V69v-7.3v-7.3v-7.3V40v-7.3v-7.3v-7.3v-7.3H1126.6z M1046.6,105.4v7.3v7.3v7.3v7.3
		v7.3h-7.3h-7.3h-7.3h-7.3h-7.3h-7.3h-7.3h-7.3h-7.3H974h-7.3h-7.3v-7.3v-7.3v-7.3v-7.3v-7.3v-7.3h7.3h7.3h7.3h7.3h7.3h7.3h7.3h7.3
		h7.3h7.3h7.3h7.3V105.4z"/>
	<polygon points="596,185.3 588.7,185.3 581.5,185.3 574.2,185.3 566.9,185.3 559.7,185.3 552.4,185.3 545.1,185.3 537.9,185.3 
		530.6,185.3 523.3,185.3 516.1,185.3 508.8,185.3 501.5,185.3 494.2,185.3 487,185.3 479.7,185.3 472.4,185.3 465.2,185.3 
		457.9,185.3 450.6,185.3 443.4,185.3 436.1,185.3 428.8,185.3 421.6,185.3 414.3,185.3 407,185.3 399.8,185.3 392.5,185.3 
		385.2,185.3 378,185.3 370.7,185.3 363.4,185.3 356.1,185.3 348.9,185.3 348.9,192.6 348.9,199.9 348.9,207.1 348.9,214.4 
		348.9,221.7 348.9,229 348.9,236.2 348.9,243.5 348.9,250.8 348.9,258 348.9,265.3 348.9,272.6 356.1,272.6 363.4,272.6 
		370.7,272.6 378,272.6 385.2,272.6 392.5,272.6 399.8,272.6 407,272.6 414.3,272.6 421.6,272.6 428.8,272.6 436.1,272.6 
		443.4,272.6 450.6,272.6 457.9,272.6 465.2,272.6 472.4,272.6 479.7,272.6 487,272.6 494.2,272.6 501.5,272.6 508.8,272.6 
		516.1,272.6 523.3,272.6 530.6,272.6 537.9,272.6 545.1,272.6 552.4,272.6 559.7,272.6 566.9,272.6 574.2,272.6 581.5,272.6 
		588.7,272.6 596,272.6 603.3,272.6 610.5,272.6 610.5,265.3 610.5,258 610.5,250.8 610.5,243.5 610.5,236.2 610.5,229 610.5,221.7 
		610.5,214.4 610.5,207.1 610.5,199.9 610.5,192.6 610.5,185.3 603.3,185.3 	"/>
</g>
</svg>
