<?xml version="1.0" encoding="utf-8"?>
<!-- Generator: Adobe Illustrator 23.1.1, SVG Export Plug-In . SVG Version: 6.00 Build 0)  -->
<svg version="1.1" xmlns="http://www.w3.org/2000/svg" xmlns:xlink="http://www.w3.org/1999/xlink" x="0px" y="0px"
	 viewBox="0 0 1133.9 283.5" style="enable-background:new 0 0 1133.9 283.5;" xml:space="preserve">
<g id="Livello_1">
</g>
<g id="Livello_2">
	<g>
		<rect x="410" y="170.1" width="56.7" height="56.7"/>
		<polygon points="466.7,0 466.7,56.7 523.4,56.7 580.1,56.7 580.1,0 523.4,0 		"/>
		<polygon points="523.4,170.1 580.1,170.1 580.1,113.4 523.4,113.4 466.7,113.4 466.7,170.1 		"/>
		<polygon points="523.4,283.5 580.1,283.5 580.1,226.8 523.4,226.8 466.7,226.8 466.7,283.5 		"/>
		<polygon points="636.7,56.7 636.7,113.4 636.7,170.1 636.7,226.8 636.7,283.5 693.4,283.5 693.4,226.8 693.4,170.1 693.4,113.4 
			693.4,56.7 693.4,0 636.7,0 		"/>
		<rect x="750.1" y="56.7" width="56.7" height="56.7"/>
		<rect x="806.8" y="0" width="56.7" height="56.7"/>
		<rect x="863.5" y="56.7" width="56.7" height="56.7"/>
		<rect x="183.6" y="56.7" width="56.7" height="56.7"/>
		<rect x="240.3" y="0" width="56.7" height="56.7"/>
		<polygon points="297,113.4 297,170.1 297,226.8 297,283.5 353.7,283.5 353.7,226.8 353.7,170.1 353.7,113.4 353.7,56.7 297,56.7 
					"/>
		<polygon points="410.4,0 353.7,0 353.7,56.7 410,56.7 410,113.4 466.7,113.4 466.7,56.7 410.4,56.7 		"/>
		<polygon points="750.1,170.1 750.1,198.4 750.1,226.8 750.1,283.5 806.8,283.5 806.8,226.8 806.8,198.4 863.5,198.4 863.5,226.8 
			863.5,283.5 920.2,283.5 920.2,226.8 920.2,198.4 920.2,170.1 920.2,139.8 750.1,139.8 		"/>
	</g>
</g>
</svg>
