<?xml version="1.0" encoding="utf-8"?>
<!-- Generator: Adobe Illustrator 23.1.1, SVG Export Plug-In . SVG Version: 6.00 Build 0)  -->
<svg version="1.1" id="Livello_1" shape-rendering="crispEdges"
	 xmlns="http://www.w3.org/2000/svg" xmlns:xlink="http://www.w3.org/1999/xlink" x="0px" y="0px" viewBox="0 0 1133.9 283.5"
	 style="enable-background:new 0 0 1133.9 283.5;" xml:space="preserve">
<g>
	<polygon points="597.9,0 593.5,0 589.1,0 584.6,0 580.2,0 575.8,0 571.4,0 566.9,0 562.5,0 558.1,0 553.6,0 549.2,0 544.8,0 
		540.4,0 535.9,0 531.5,0 527.1,0 522.6,0 518.2,0 513.8,0 509.4,0 504.9,0 500.5,0 496.1,0 491.6,0 487.2,0 482.8,0 478.3,0 
		473.9,0 469.5,0 465.1,0 460.6,0 456.2,0 451.8,0 447.3,0 442.9,0 438.5,0 434.1,0 429.6,0 425.2,0 420.8,0 416.3,0 411.9,0 
		407.5,0 403.1,0 398.6,0 394.2,0 389.8,0 385.3,0 380.9,0 376.5,0 372,0 367.6,0 363.2,0 358.8,0 354.3,0 349.9,0 345.5,0 341,0 
		336.6,0 332.2,0 327.8,0 323.3,0 318.9,0 314.5,0 310,0 305.6,0 301.2,0 296.8,0 292.3,0 287.9,0 283.5,0 279,0 274.6,0 270.2,0 
		265.7,0 261.3,0 256.9,0 252.5,0 248,0 243.6,0 239.2,0 234.7,0 230.3,0 225.9,0 221.5,0 217,0 212.6,0 208.2,0 203.7,0 199.3,0 
		194.9,0 190.5,0 186,0 181.6,0 177.2,0 172.7,0 168.3,0 163.9,0 159.4,0 155,0 150.6,0 146.2,0 141.7,0 137.3,0 132.9,0 128.4,0 
		124,0 119.6,0 115.2,0 110.7,0 106.3,0 101.9,0 97.4,0 93,0 88.6,0 84.2,0 79.7,0 75.3,0 70.9,0 66.4,0 62,0 57.6,0 53.1,0 48.7,0 
		44.3,0 39.9,0 35.4,0 31,0 26.6,0 22.1,0 17.7,0 13.3,0 8.9,0 4.4,0 0,0 0,4.4 0,8.9 0,13.3 0,17.7 0,22.1 0,26.6 0,31 0,35.4 
		0,39.9 0,44.3 0,48.7 0,53.1 0,57.6 0,62 0,66.4 0,70.9 0,75.3 0,79.7 4.4,79.7 8.9,79.7 13.3,79.7 17.7,79.7 22.1,79.7 26.6,79.7 
		31,79.7 35.4,79.7 39.9,79.7 44.3,79.7 48.7,79.7 53.1,79.7 57.6,79.7 62,79.7 66.4,79.7 70.9,79.7 75.3,79.7 79.7,79.7 84.2,79.7 
		88.6,79.7 93,79.7 97.4,79.7 101.9,79.7 106.3,79.7 110.7,79.7 115.2,79.7 119.6,79.7 124,79.7 128.4,79.7 132.9,79.7 137.3,79.7 
		141.7,79.7 146.2,79.7 150.6,79.7 155,79.7 159.4,79.7 163.9,79.7 168.3,79.7 172.7,79.7 177.2,79.7 181.6,79.7 186,79.7 
		190.5,79.7 194.9,79.7 199.3,79.7 203.7,79.7 208.2,79.7 212.6,79.7 217,79.7 221.5,79.7 225.9,79.7 230.3,79.7 234.7,79.7 
		239.2,79.7 243.6,79.7 248,79.7 252.5,79.7 256.9,79.7 261.3,79.7 265.7,79.7 270.2,79.7 274.6,79.7 279,79.7 283.5,79.7 
		287.9,79.7 292.3,79.7 296.8,79.7 301.2,79.7 305.6,79.7 310,79.7 314.5,79.7 318.9,79.7 323.3,79.7 327.8,79.7 332.2,79.7 
		336.6,79.7 341,79.7 345.5,79.7 349.9,79.7 354.3,79.7 358.8,79.7 363.2,79.7 367.6,79.7 372,79.7 376.5,79.7 380.9,79.7 
		385.3,79.7 389.8,79.7 394.2,79.7 398.6,79.7 403.1,79.7 407.5,79.7 411.9,79.7 416.3,79.7 420.8,79.7 425.2,79.7 429.6,79.7 
		434.1,79.7 438.5,79.7 442.9,79.7 447.3,79.7 451.8,79.7 456.2,79.7 460.6,79.7 465.1,79.7 469.5,79.7 473.9,79.7 478.3,79.7 
		482.8,79.7 487.2,79.7 491.6,79.7 496.1,79.7 500.5,79.7 504.9,79.7 509.4,79.7 513.8,79.7 518.2,79.7 522.6,79.7 527.1,79.7 
		531.5,79.7 535.9,79.7 540.4,79.7 544.8,79.7 549.2,79.7 553.6,79.7 558.1,79.7 562.5,79.7 566.9,79.7 571.4,79.7 575.8,79.7 
		580.2,79.7 584.6,79.7 589.1,79.7 593.5,79.7 597.9,79.7 602.4,79.7 606.8,79.7 606.8,75.3 606.8,70.9 606.8,66.4 606.8,62 
		606.8,57.6 606.8,53.1 606.8,48.7 606.8,44.3 606.8,39.9 606.8,35.4 606.8,31 606.8,26.6 606.8,22.1 606.8,17.7 606.8,13.3 
		606.8,8.9 606.8,4.4 606.8,0 602.4,0 	"/>
	<polygon points="699.8,0 695.4,0 690.9,0 686.5,0 682.1,0 677.7,0 673.2,0 668.8,0 664.4,0 659.9,0 655.5,0 651.1,0 646.7,0 
		642.2,0 637.8,0 633.4,0 628.9,0 628.9,4.4 628.9,8.9 628.9,13.3 628.9,17.7 628.9,22.1 628.9,26.6 628.9,31 628.9,35.4 
		628.9,39.9 628.9,44.3 628.9,48.7 628.9,53.1 628.9,57.6 628.9,62 628.9,66.4 628.9,70.9 628.9,75.3 628.9,79.7 633.4,79.7 
		637.8,79.7 642.2,79.7 646.7,79.7 651.1,79.7 655.5,79.7 659.9,79.7 664.4,79.7 668.8,79.7 673.2,79.7 677.7,79.7 682.1,79.7 
		686.5,79.7 690.9,79.7 695.4,79.7 699.8,79.7 704.2,79.7 708.7,79.7 708.7,75.3 708.7,70.9 708.7,66.4 708.7,62 708.7,57.6 
		708.7,53.1 708.7,48.7 708.7,44.3 708.7,39.9 708.7,35.4 708.7,31 708.7,26.6 708.7,22.1 708.7,17.7 708.7,13.3 708.7,8.9 
		708.7,4.4 708.7,0 704.2,0 	"/>
	<polygon points="1129.4,0 1125,0 1120.6,0 1116.1,0 1111.7,0 1107.3,0 1102.9,0 1098.4,0 1094,0 1089.6,0 1085.1,0 1080.7,0 
		1076.3,0 1071.9,0 1067.4,0 1063,0 1058.6,0 1054.1,0 1049.7,0 1045.3,0 1040.8,0 1036.4,0 1032,0 1027.6,0 1023.1,0 1018.7,0 
		1014.3,0 1009.8,0 1005.4,0 1001,0 996.6,0 992.1,0 987.7,0 983.3,0 978.8,0 974.4,0 970,0 965.6,0 961.1,0 956.7,0 952.3,0 
		947.8,0 943.4,0 939,0 934.5,0 930.1,0 925.7,0 921.3,0 916.8,0 912.4,0 908,0 903.5,0 899.1,0 894.7,0 890.3,0 885.8,0 881.4,0 
		877,0 872.5,0 868.1,0 863.7,0 859.3,0 854.8,0 850.4,0 846,0 841.5,0 837.1,0 832.7,0 828.2,0 823.8,0 819.4,0 815,0 810.5,0 
		806.1,0 801.7,0 797.2,0 792.8,0 788.4,0 784,0 779.5,0 775.1,0 770.7,0 766.2,0 761.8,0 757.4,0 753,0 748.5,0 744.1,0 739.7,0 
		735.2,0 730.8,0 730.8,4.4 730.8,8.9 730.8,13.3 730.8,17.7 730.8,22.1 730.8,26.6 730.8,31 730.8,35.4 730.8,39.9 730.8,44.3 
		730.8,48.7 730.8,53.1 730.8,57.6 730.8,62 730.8,66.4 730.8,70.9 730.8,75.3 730.8,79.7 735.2,79.7 739.7,79.7 744.1,79.7 
		748.5,79.7 753,79.7 757.4,79.7 761.8,79.7 766.2,79.7 770.7,79.7 775.1,79.7 779.5,79.7 784,79.7 788.4,79.7 792.8,79.7 
		797.2,79.7 801.7,79.7 806.1,79.7 810.5,79.7 815,79.7 819.4,79.7 823.8,79.7 828.2,79.7 832.7,79.7 837.1,79.7 841.5,79.7 
		846,79.7 850.4,79.7 854.8,79.7 859.3,79.7 863.7,79.7 868.1,79.7 872.5,79.7 877,79.7 881.4,79.7 885.8,79.7 890.3,79.7 
		894.7,79.7 899.1,79.7 903.5,79.7 908,79.7 912.4,79.7 916.8,79.7 921.3,79.7 925.7,79.7 930.1,79.7 934.5,79.7 939,79.7 
		943.4,79.7 947.8,79.7 952.3,79.7 956.7,79.7 961.1,79.7 965.6,79.7 970,79.7 974.4,79.7 978.8,79.7 983.3,79.7 987.7,79.7 
		992.1,79.7 996.6,79.7 1001,79.7 1005.4,79.7 1009.8,79.7 1014.3,79.7 1018.7,79.7 1023.1,79.7 1027.6,79.7 1032,79.7 1036.4,79.7 
		1040.8,79.7 1045.3,79.7 1049.7,79.7 1054.1,79.7 1058.6,79.7 1063,79.7 1067.4,79.7 1071.9,79.7 1076.3,79.7 1080.7,79.7 
		1085.1,79.7 1089.6,79.7 1094,79.7 1098.4,79.7 1102.9,79.7 1107.3,79.7 1111.7,79.7 1116.1,79.7 1120.6,79.7 1125,79.7 
		1129.4,79.7 1133.9,79.7 1133.9,75.3 1133.9,70.9 1133.9,66.4 1133.9,62 1133.9,57.6 1133.9,53.1 1133.9,48.7 1133.9,44.3 
		1133.9,39.9 1133.9,35.4 1133.9,31 1133.9,26.6 1133.9,22.1 1133.9,17.7 1133.9,13.3 1133.9,8.9 1133.9,4.4 1133.9,0 	"/>
	<polygon points="172.7,101.9 168.3,101.9 163.9,101.9 159.4,101.9 155,101.9 150.6,101.9 146.2,101.9 141.7,101.9 137.3,101.9 
		132.9,101.9 128.4,101.9 124,101.9 119.6,101.9 115.2,101.9 110.7,101.9 106.3,101.9 101.9,101.9 101.9,106.3 101.9,110.7 
		101.9,115.2 101.9,119.6 101.9,124 101.9,128.4 101.9,132.9 101.9,137.3 101.9,141.7 101.9,146.2 101.9,150.6 101.9,155 
		101.9,159.4 101.9,163.9 101.9,168.3 101.9,172.7 101.9,177.2 101.9,181.6 101.9,186 101.9,190.5 101.9,194.9 101.9,199.3 
		101.9,203.7 101.9,208.2 101.9,212.6 101.9,217 101.9,221.5 101.9,225.9 101.9,230.3 101.9,234.7 101.9,239.2 101.9,243.6 
		101.9,248 101.9,252.5 101.9,256.9 101.9,261.3 101.9,265.7 101.9,270.2 101.9,274.6 101.9,279 101.9,283.5 106.3,283.5 
		110.7,283.5 115.2,283.5 119.6,283.5 124,283.5 128.4,283.5 132.9,283.5 137.3,283.5 141.7,283.5 146.2,283.5 150.6,283.5 
		155,283.5 159.4,283.5 163.9,283.5 168.3,283.5 172.7,283.5 177.2,283.5 181.6,283.5 181.6,279 181.6,274.6 181.6,270.2 
		181.6,265.7 181.6,261.3 181.6,256.9 181.6,252.5 181.6,248 181.6,243.6 181.6,239.2 181.6,234.7 181.6,230.3 181.6,225.9 
		181.6,221.5 181.6,217 181.6,212.6 181.6,208.2 181.6,203.7 181.6,199.3 181.6,194.9 181.6,190.5 181.6,186 181.6,181.6 
		181.6,177.2 181.6,172.7 181.6,168.3 181.6,163.9 181.6,159.4 181.6,155 181.6,150.6 181.6,146.2 181.6,141.7 181.6,137.3 
		181.6,132.9 181.6,128.4 181.6,124 181.6,119.6 181.6,115.2 181.6,110.7 181.6,106.3 181.6,101.9 177.2,101.9 	"/>
	<polygon points="597.9,101.9 593.5,101.9 589.1,101.9 584.6,101.9 580.2,101.9 575.8,101.9 571.4,101.9 566.9,101.9 562.5,101.9 
		558.1,101.9 553.6,101.9 549.2,101.9 544.8,101.9 540.4,101.9 535.9,101.9 531.5,101.9 527.1,101.9 522.6,101.9 518.2,101.9 
		513.8,101.9 509.4,101.9 504.9,101.9 500.5,101.9 496.1,101.9 491.6,101.9 487.2,101.9 482.8,101.9 478.3,101.9 473.9,101.9 
		469.5,101.9 465.1,101.9 460.6,101.9 456.2,101.9 451.8,101.9 447.3,101.9 442.9,101.9 438.5,101.9 434.1,101.9 429.6,101.9 
		425.2,101.9 420.8,101.9 416.3,101.9 411.9,101.9 407.5,101.9 403.1,101.9 398.6,101.9 394.2,101.9 389.8,101.9 385.3,101.9 
		380.9,101.9 376.5,101.9 372,101.9 367.6,101.9 363.2,101.9 358.8,101.9 354.3,101.9 349.9,101.9 345.5,101.9 341,101.9 
		336.6,101.9 332.2,101.9 327.8,101.9 323.3,101.9 318.9,101.9 314.5,101.9 310,101.9 305.6,101.9 301.2,101.9 296.8,101.9 
		292.3,101.9 287.9,101.9 283.5,101.9 279,101.9 274.6,101.9 270.2,101.9 265.7,101.9 261.3,101.9 256.9,101.9 252.5,101.9 
		248,101.9 243.6,101.9 239.2,101.9 234.7,101.9 230.3,101.9 225.9,101.9 221.5,101.9 217,101.9 212.6,101.9 208.2,101.9 
		203.7,101.9 203.7,106.3 203.7,110.7 203.7,115.2 203.7,119.6 203.7,124 203.7,128.4 203.7,132.9 203.7,137.3 203.7,141.7 
		203.7,146.2 203.7,150.6 203.7,155 203.7,159.4 203.7,163.9 203.7,168.3 203.7,172.7 203.7,177.2 203.7,181.6 208.2,181.6 
		212.6,181.6 217,181.6 221.5,181.6 225.9,181.6 230.3,181.6 234.7,181.6 239.2,181.6 243.6,181.6 248,181.6 252.5,181.6 
		256.9,181.6 261.3,181.6 265.7,181.6 270.2,181.6 274.6,181.6 279,181.6 283.5,181.6 287.9,181.6 292.3,181.6 296.8,181.6 
		301.2,181.6 305.6,181.6 310,181.6 314.5,181.6 318.9,181.6 323.3,181.6 327.8,181.6 332.2,181.6 336.6,181.6 341,181.6 
		345.5,181.6 349.9,181.6 354.3,181.6 358.8,181.6 363.2,181.6 367.6,181.6 372,181.6 376.5,181.6 380.9,181.6 385.3,181.6 
		389.8,181.6 394.2,181.6 398.6,181.6 403.1,181.6 407.5,181.6 411.9,181.6 416.3,181.6 420.8,181.6 425.2,181.6 429.6,181.6 
		434.1,181.6 438.5,181.6 442.9,181.6 447.3,181.6 451.8,181.6 456.2,181.6 460.6,181.6 465.1,181.6 469.5,181.6 473.9,181.6 
		478.3,181.6 482.8,181.6 487.2,181.6 491.6,181.6 496.1,181.6 500.5,181.6 504.9,181.6 509.4,181.6 513.8,181.6 518.2,181.6 
		522.6,181.6 527.1,181.6 531.5,181.6 535.9,181.6 540.4,181.6 544.8,181.6 549.2,181.6 553.6,181.6 558.1,181.6 562.5,181.6 
		566.9,181.6 571.4,181.6 575.8,181.6 580.2,181.6 584.6,181.6 589.1,181.6 593.5,181.6 597.9,181.6 602.4,181.6 606.8,181.6 
		606.8,177.2 606.8,172.7 606.8,168.3 606.8,163.9 606.8,159.4 606.8,155 606.8,150.6 606.8,146.2 606.8,141.7 606.8,137.3 
		606.8,132.9 606.8,128.4 606.8,124 606.8,119.6 606.8,115.2 606.8,110.7 606.8,106.3 606.8,101.9 602.4,101.9 	"/>
	<polygon points="699.8,101.9 695.4,101.9 690.9,101.9 686.5,101.9 682.1,101.9 677.7,101.9 673.2,101.9 668.8,101.9 664.4,101.9 
		659.9,101.9 655.5,101.9 651.1,101.9 646.7,101.9 642.2,101.9 637.8,101.9 633.4,101.9 628.9,101.9 628.9,106.3 628.9,110.7 
		628.9,115.2 628.9,119.6 628.9,124 628.9,128.4 628.9,132.9 628.9,137.3 628.9,141.7 628.9,146.2 628.9,150.6 628.9,155 
		628.9,159.4 628.9,163.9 628.9,168.3 628.9,172.7 628.9,177.2 628.9,181.6 628.9,186 628.9,190.5 628.9,194.9 628.9,199.3 
		628.9,203.7 628.9,208.2 628.9,212.6 628.9,217 628.9,221.5 628.9,225.9 628.9,230.3 628.9,234.7 628.9,239.2 628.9,243.6 
		628.9,248 628.9,252.5 628.9,256.9 628.9,261.3 628.9,265.7 628.9,270.2 628.9,274.6 628.9,279 628.9,283.5 633.4,283.5 
		637.8,283.5 642.2,283.5 646.7,283.5 651.1,283.5 655.5,283.5 659.9,283.5 664.4,283.5 668.8,283.5 673.2,283.5 677.7,283.5 
		682.1,283.5 686.5,283.5 690.9,283.5 695.4,283.5 699.8,283.5 704.2,283.5 708.7,283.5 708.7,279 708.7,274.6 708.7,270.2 
		708.7,265.7 708.7,261.3 708.7,256.9 708.7,252.5 708.7,248 708.7,243.6 708.7,239.2 708.7,234.7 708.7,230.3 708.7,225.9 
		708.7,221.5 708.7,217 708.7,212.6 708.7,208.2 708.7,203.7 708.7,199.3 708.7,194.9 708.7,190.5 708.7,186 708.7,181.6 
		708.7,177.2 708.7,172.7 708.7,168.3 708.7,163.9 708.7,159.4 708.7,155 708.7,150.6 708.7,146.2 708.7,141.7 708.7,137.3 
		708.7,132.9 708.7,128.4 708.7,124 708.7,119.6 708.7,115.2 708.7,110.7 708.7,106.3 708.7,101.9 704.2,101.9 	"/>
	<polygon points="1125,101.9 1120.6,101.9 1116.1,101.9 1111.7,101.9 1107.3,101.9 1102.9,101.9 1098.4,101.9 1094,101.9 
		1089.6,101.9 1085.1,101.9 1080.7,101.9 1076.3,101.9 1071.9,101.9 1067.4,101.9 1063,101.9 1058.6,101.9 1054.1,101.9 
		1049.7,101.9 1045.3,101.9 1040.8,101.9 1036.4,101.9 1032,101.9 1027.6,101.9 1023.1,101.9 1018.7,101.9 1014.3,101.9 
		1009.8,101.9 1005.4,101.9 1001,101.9 996.6,101.9 992.1,101.9 987.7,101.9 983.3,101.9 978.8,101.9 974.4,101.9 970,101.9 
		965.6,101.9 961.1,101.9 956.7,101.9 952.3,101.9 947.8,101.9 943.4,101.9 939,101.9 934.5,101.9 930.1,101.9 925.7,101.9 
		921.3,101.9 916.8,101.9 912.4,101.9 908,101.9 903.5,101.9 899.1,101.9 894.7,101.9 890.3,101.9 885.8,101.9 881.4,101.9 
		877,101.9 872.5,101.9 868.1,101.9 863.7,101.9 859.3,101.9 854.8,101.9 850.4,101.9 846,101.9 841.5,101.9 837.1,101.9 
		832.7,101.9 828.2,101.9 823.8,101.9 819.4,101.9 815,101.9 810.5,101.9 806.1,101.9 801.7,101.9 797.2,101.9 792.8,101.9 
		788.4,101.9 784,101.9 779.5,101.9 775.1,101.9 770.7,101.9 766.2,101.9 761.8,101.9 757.4,101.9 753,101.9 748.5,101.9 
		744.1,101.9 739.7,101.9 735.2,101.9 730.8,101.9 730.8,106.3 730.8,110.7 730.8,115.2 730.8,119.6 730.8,124 730.8,128.4 
		730.8,132.9 730.8,137.3 730.8,141.7 730.8,146.2 730.8,150.6 730.8,155 730.8,159.4 730.8,163.9 730.8,168.3 730.8,172.7 
		730.8,177.2 730.8,181.6 730.8,186 730.8,190.5 730.8,194.9 730.8,199.3 730.8,203.7 730.8,208.2 730.8,212.6 730.8,217 
		730.8,221.5 730.8,225.9 730.8,230.3 730.8,234.7 730.8,239.2 730.8,243.6 730.8,248 730.8,252.5 730.8,256.9 730.8,261.3 
		730.8,265.7 730.8,270.2 730.8,274.6 730.8,279 730.8,283.5 735.2,283.5 739.7,283.5 744.1,283.5 748.5,283.5 753,283.5 
		757.4,283.5 761.8,283.5 766.2,283.5 770.7,283.5 775.1,283.5 779.5,283.5 784,283.5 788.4,283.5 792.8,283.5 797.2,283.5 
		801.7,283.5 806.1,283.5 810.5,283.5 810.5,279 810.5,274.6 810.5,270.2 810.5,265.7 810.5,261.3 810.5,256.9 810.5,252.5 
		810.5,248 810.5,243.6 810.5,239.2 810.5,234.7 810.5,230.3 810.5,225.9 810.5,221.5 810.5,217 810.5,212.6 810.5,208.2 
		810.5,203.7 810.5,199.3 810.5,194.9 810.5,190.5 810.5,186 810.5,181.6 815,181.6 819.4,181.6 823.8,181.6 828.2,181.6 
		832.7,181.6 837.1,181.6 841.5,181.6 846,181.6 850.4,181.6 854.8,181.6 859.3,181.6 863.7,181.6 868.1,181.6 872.5,181.6 
		877,181.6 881.4,181.6 885.8,181.6 890.3,181.6 894.7,181.6 899.1,181.6 903.5,181.6 908,181.6 912.4,181.6 916.8,181.6 
		921.3,181.6 925.7,181.6 930.1,181.6 934.5,181.6 939,181.6 943.4,181.6 947.8,181.6 952.3,181.6 956.7,181.6 961.1,181.6 
		965.6,181.6 970,181.6 974.4,181.6 978.8,181.6 983.3,181.6 987.7,181.6 992.1,181.6 996.6,181.6 1001,181.6 1005.4,181.6 
		1009.8,181.6 1014.3,181.6 1018.7,181.6 1023.1,181.6 1027.6,181.6 1032,181.6 1036.4,181.6 1040.8,181.6 1045.3,181.6 
		1049.7,181.6 1054.1,181.6 1054.1,186 1054.1,190.5 1054.1,194.9 1054.1,199.3 1054.1,203.7 1054.1,208.2 1054.1,212.6 1054.1,217 
		1054.1,221.5 1054.1,225.9 1054.1,230.3 1054.1,234.7 1054.1,239.2 1054.1,243.6 1054.1,248 1054.1,252.5 1054.1,256.9 
		1054.1,261.3 1054.1,265.7 1054.1,270.2 1054.1,274.6 1054.1,279 1054.1,283.5 1058.6,283.5 1063,283.5 1067.4,283.5 1071.9,283.5 
		1076.3,283.5 1080.7,283.5 1085.1,283.5 1089.6,283.5 1094,283.5 1098.4,283.5 1102.9,283.5 1107.3,283.5 1111.7,283.5 
		1116.1,283.5 1120.6,283.5 1125,283.5 1129.4,283.5 1133.9,283.5 1133.9,279 1133.9,274.6 1133.9,270.2 1133.9,265.7 1133.9,261.3 
		1133.9,256.9 1133.9,252.5 1133.9,248 1133.9,243.6 1133.9,239.2 1133.9,234.7 1133.9,230.3 1133.9,225.9 1133.9,221.5 1133.9,217 
		1133.9,212.6 1133.9,208.2 1133.9,203.7 1133.9,199.3 1133.9,194.9 1133.9,190.5 1133.9,186 1133.9,181.6 1133.9,177.2 
		1133.9,172.7 1133.9,168.3 1133.9,163.9 1133.9,159.4 1133.9,155 1133.9,150.6 1133.9,146.2 1133.9,141.7 1133.9,137.3 
		1133.9,132.9 1133.9,128.4 1133.9,124 1133.9,119.6 1133.9,115.2 1133.9,110.7 1133.9,106.3 1133.9,101.9 1129.4,101.9 	"/>
	<polygon points="597.9,203.7 593.5,203.7 589.1,203.7 584.6,203.7 580.2,203.7 575.8,203.7 571.4,203.7 566.9,203.7 562.5,203.7 
		558.1,203.7 553.6,203.7 549.2,203.7 544.8,203.7 540.4,203.7 535.9,203.7 531.5,203.7 527.1,203.7 522.6,203.7 518.2,203.7 
		513.8,203.7 509.4,203.7 504.9,203.7 500.5,203.7 496.1,203.7 491.6,203.7 487.2,203.7 482.8,203.7 478.3,203.7 473.9,203.7 
		469.5,203.7 465.1,203.7 460.6,203.7 456.2,203.7 451.8,203.7 447.3,203.7 442.9,203.7 438.5,203.7 434.1,203.7 429.6,203.7 
		425.2,203.7 420.8,203.7 416.3,203.7 411.9,203.7 407.5,203.7 403.1,203.7 398.6,203.7 394.2,203.7 389.8,203.7 385.3,203.7 
		380.9,203.7 376.5,203.7 372,203.7 367.6,203.7 363.2,203.7 358.8,203.7 354.3,203.7 349.9,203.7 345.5,203.7 341,203.7 
		336.6,203.7 332.2,203.7 327.8,203.7 323.3,203.7 318.9,203.7 314.5,203.7 310,203.7 305.6,203.7 301.2,203.7 296.8,203.7 
		292.3,203.7 287.9,203.7 283.5,203.7 279,203.7 274.6,203.7 270.2,203.7 265.7,203.7 261.3,203.7 256.9,203.7 252.5,203.7 
		248,203.7 243.6,203.7 239.2,203.7 234.7,203.7 230.3,203.7 225.9,203.7 221.5,203.7 217,203.7 212.6,203.7 208.2,203.7 
		203.7,203.7 203.7,208.2 203.7,212.6 203.7,217 203.7,221.5 203.7,225.9 203.7,230.3 203.7,234.7 203.7,239.2 203.7,243.6 
		203.7,248 203.7,252.5 203.7,256.9 203.7,261.3 203.7,265.7 203.7,270.2 203.7,274.6 203.7,279 203.7,283.5 208.2,283.5 
		212.6,283.5 217,283.5 221.5,283.5 225.9,283.5 230.3,283.5 234.7,283.5 239.2,283.5 243.6,283.5 248,283.5 252.5,283.5 
		256.9,283.5 261.3,283.5 265.7,283.5 270.2,283.5 274.6,283.5 279,283.5 283.5,283.5 287.9,283.5 292.3,283.5 296.8,283.5 
		301.2,283.5 305.6,283.5 310,283.5 314.5,283.5 318.9,283.5 323.3,283.5 327.8,283.5 332.2,283.5 336.6,283.5 341,283.5 
		345.5,283.5 349.9,283.5 354.3,283.5 358.8,283.5 363.2,283.5 367.6,283.5 372,283.5 376.5,283.5 380.9,283.5 385.3,283.5 
		389.8,283.5 394.2,283.5 398.6,283.5 403.1,283.5 407.5,283.5 411.9,283.5 416.3,283.5 420.8,283.5 425.2,283.5 429.6,283.5 
		434.1,283.5 438.5,283.5 442.9,283.5 447.3,283.5 451.8,283.5 456.2,283.5 460.6,283.5 465.1,283.5 469.5,283.5 473.9,283.5 
		478.3,283.5 482.8,283.5 487.2,283.5 491.6,283.5 496.1,283.5 500.5,283.5 504.9,283.5 509.4,283.5 513.8,283.5 518.2,283.5 
		522.6,283.5 527.1,283.5 531.5,283.5 535.9,283.5 540.4,283.5 544.8,283.5 549.2,283.5 553.6,283.5 558.1,283.5 562.5,283.5 
		566.9,283.5 571.4,283.5 575.8,283.5 580.2,283.5 584.6,283.5 589.1,283.5 593.5,283.5 597.9,283.5 602.4,283.5 606.8,283.5 
		606.8,279 606.8,274.6 606.8,270.2 606.8,265.7 606.8,261.3 606.8,256.9 606.8,252.5 606.8,248 606.8,243.6 606.8,239.2 
		606.8,234.7 606.8,230.3 606.8,225.9 606.8,221.5 606.8,217 606.8,212.6 606.8,208.2 606.8,203.7 602.4,203.7 	"/>
</g>
</svg>
