<?xml version="1.0" encoding="utf-8"?>
<!-- Generator: Adobe Illustrator 23.1.1, SVG Export Plug-In . SVG Version: 6.00 Build 0)  -->
<svg version="1.1" id="Livello_1" shape-rendering="crispEdges"
	 xmlns="http://www.w3.org/2000/svg" xmlns:xlink="http://www.w3.org/1999/xlink" x="0px" y="0px" viewBox="0 0 1133.9 283.5"
	 style="enable-background:new 0 0 1133.9 283.5;" xml:space="preserve">
<g>
	<polygon points="268.4,2.9 263.8,2.9 259.2,2.9 254.5,2.9 249.9,2.9 245.3,2.9 240.7,2.9 236,2.9 231.4,2.9 226.8,2.9 222.1,2.9 
		217.5,2.9 212.9,2.9 208.3,2.9 203.6,2.9 199,2.9 194.4,2.9 189.7,2.9 185.1,2.9 180.5,2.9 175.9,2.9 171.2,2.9 166.6,2.9 162,2.9 
		157.4,2.9 152.7,2.9 148.1,2.9 143.5,2.9 138.8,2.9 134.2,2.9 129.6,2.9 125,2.9 120.3,2.9 115.7,2.9 111.1,2.9 106.4,2.9 
		101.8,2.9 97.2,2.9 92.6,2.9 87.9,2.9 83.3,2.9 78.7,2.9 74,2.9 69.4,2.9 64.8,2.9 60.2,2.9 55.5,2.9 50.9,2.9 46.3,2.9 41.7,2.9 
		37,2.9 32.4,2.9 27.8,2.9 23.1,2.9 18.5,2.9 13.9,2.9 9.3,2.9 4.6,2.9 0,2.9 0,7.5 0,12.1 0,16.8 0,21.4 0,26 0,30.7 0,35.3 
		0,39.9 0,44.5 0,49.2 0,53.8 0,58.4 0,63.1 0,67.7 0,72.3 0,76.9 0,81.6 0,86.2 0,90.8 0,95.5 4.6,95.5 9.3,95.5 13.9,95.5 
		18.5,95.5 23.1,95.5 27.8,95.5 32.4,95.5 37,95.5 41.7,95.5 46.3,95.5 50.9,95.5 55.5,95.5 60.2,95.5 64.8,95.5 69.4,95.5 74,95.5 
		78.7,95.5 83.3,95.5 87.9,95.5 92.6,95.5 97.2,95.5 101.8,95.5 106.4,95.5 111.1,95.5 115.7,95.5 120.3,95.5 125,95.5 129.6,95.5 
		134.2,95.5 138.8,95.5 143.5,95.5 148.1,95.5 152.7,95.5 157.4,95.5 162,95.5 166.6,95.5 171.2,95.5 175.9,95.5 180.5,95.5 
		185.1,95.5 185.1,100.1 185.1,104.7 185.1,109.3 185.1,114 185.1,118.6 185.1,123.2 185.1,127.8 185.1,132.5 185.1,137.1 
		185.1,141.7 185.1,146.4 185.1,151 185.1,155.6 185.1,160.2 185.1,164.9 185.1,169.5 185.1,174.1 185.1,178.8 185.1,183.4 
		185.1,188 185.1,192.6 185.1,197.3 185.1,201.9 185.1,206.5 185.1,211.2 185.1,215.8 185.1,220.4 185.1,225 185.1,229.7 
		185.1,234.3 185.1,238.9 185.1,243.5 185.1,248.2 185.1,252.8 185.1,257.4 185.1,262.1 185.1,266.7 185.1,271.3 185.1,275.9 
		185.1,280.6 189.7,280.6 194.4,280.6 199,280.6 203.6,280.6 208.3,280.6 212.9,280.6 217.5,280.6 222.1,280.6 226.8,280.6 
		231.4,280.6 236,280.6 240.7,280.6 245.3,280.6 249.9,280.6 254.5,280.6 259.2,280.6 263.8,280.6 268.4,280.6 273.1,280.6 
		277.7,280.6 277.7,275.9 277.7,271.3 277.7,266.7 277.7,262.1 277.7,257.4 277.7,252.8 277.7,248.2 277.7,243.5 277.7,238.9 
		277.7,234.3 277.7,229.7 277.7,225 277.7,220.4 277.7,215.8 277.7,211.2 277.7,206.5 277.7,201.9 277.7,197.3 277.7,192.6 
		277.7,188 277.7,183.4 277.7,178.8 277.7,174.1 277.7,169.5 277.7,164.9 277.7,160.2 277.7,155.6 277.7,151 277.7,146.4 
		277.7,141.7 277.7,137.1 277.7,132.5 277.7,127.8 277.7,123.2 277.7,118.6 277.7,114 277.7,109.3 277.7,104.7 277.7,100.1 
		277.7,95.5 277.7,90.8 277.7,86.2 277.7,81.6 277.7,76.9 277.7,72.3 277.7,67.7 277.7,63.1 277.7,58.4 277.7,53.8 277.7,49.2 
		277.7,44.5 277.7,39.9 277.7,35.3 277.7,30.7 277.7,26 277.7,21.4 277.7,16.8 277.7,12.1 277.7,7.5 277.7,2.9 273.1,2.9 	"/>
	<polygon points="615.5,2.9 610.9,2.9 606.3,2.9 601.6,2.9 597,2.9 592.4,2.9 587.8,2.9 583.1,2.9 578.5,2.9 573.9,2.9 569.2,2.9 
		564.6,2.9 560,2.9 555.4,2.9 550.7,2.9 546.1,2.9 541.5,2.9 536.8,2.9 532.2,2.9 527.6,2.9 523,2.9 518.3,2.9 513.7,2.9 509.1,2.9 
		504.5,2.9 499.8,2.9 495.2,2.9 490.6,2.9 485.9,2.9 481.3,2.9 476.7,2.9 472.1,2.9 467.4,2.9 462.8,2.9 458.2,2.9 453.5,2.9 
		448.9,2.9 444.3,2.9 439.7,2.9 435,2.9 430.4,2.9 425.8,2.9 421.1,2.9 416.5,2.9 411.9,2.9 407.3,2.9 402.6,2.9 398,2.9 393.4,2.9 
		388.8,2.9 384.1,2.9 379.5,2.9 374.9,2.9 370.2,2.9 365.6,2.9 361,2.9 356.4,2.9 351.7,2.9 347.1,2.9 347.1,7.5 347.1,12.1 
		347.1,16.8 347.1,21.4 347.1,26 347.1,30.7 347.1,35.3 347.1,39.9 347.1,44.5 347.1,49.2 347.1,53.8 347.1,58.4 347.1,63.1 
		347.1,67.7 347.1,72.3 347.1,76.9 347.1,81.6 347.1,86.2 347.1,90.8 347.1,95.5 347.1,100.1 347.1,104.7 347.1,109.3 347.1,114 
		347.1,118.6 347.1,123.2 347.1,127.8 347.1,132.5 347.1,137.1 347.1,141.7 347.1,146.4 347.1,151 347.1,155.6 347.1,160.2 
		347.1,164.9 347.1,169.5 347.1,174.1 347.1,178.8 347.1,183.4 347.1,188 347.1,192.6 347.1,197.3 347.1,201.9 347.1,206.5 
		347.1,211.2 347.1,215.8 347.1,220.4 347.1,225 347.1,229.7 347.1,234.3 347.1,238.9 347.1,243.5 347.1,248.2 347.1,252.8 
		347.1,257.4 347.1,262.1 347.1,266.7 347.1,271.3 347.1,275.9 347.1,280.6 351.7,280.6 356.4,280.6 361,280.6 365.6,280.6 
		370.2,280.6 374.9,280.6 379.5,280.6 384.1,280.6 388.8,280.6 393.4,280.6 398,280.6 402.6,280.6 407.3,280.6 411.9,280.6 
		416.5,280.6 421.1,280.6 425.8,280.6 430.4,280.6 435,280.6 439.7,280.6 444.3,280.6 448.9,280.6 453.5,280.6 458.2,280.6 
		462.8,280.6 467.4,280.6 472.1,280.6 476.7,280.6 481.3,280.6 485.9,280.6 490.6,280.6 495.2,280.6 499.8,280.6 504.5,280.6 
		509.1,280.6 513.7,280.6 518.3,280.6 523,280.6 527.6,280.6 532.2,280.6 536.8,280.6 541.5,280.6 546.1,280.6 550.7,280.6 
		555.4,280.6 560,280.6 564.6,280.6 569.2,280.6 573.9,280.6 578.5,280.6 583.1,280.6 587.8,280.6 592.4,280.6 597,280.6 
		601.6,280.6 606.3,280.6 610.9,280.6 615.5,280.6 620.2,280.6 624.8,280.6 624.8,275.9 624.8,271.3 624.8,266.7 624.8,262.1 
		624.8,257.4 624.8,252.8 624.8,248.2 624.8,243.5 624.8,238.9 624.8,234.3 624.8,229.7 624.8,225 624.8,220.4 624.8,215.8 
		624.8,211.2 624.8,206.5 624.8,201.9 624.8,197.3 624.8,192.6 624.8,188 620.2,188 615.5,188 610.9,188 606.3,188 601.6,188 
		597,188 592.4,188 587.8,188 583.1,188 578.5,188 573.9,188 569.2,188 564.6,188 560,188 555.4,188 550.7,188 546.1,188 541.5,188 
		536.8,188 532.2,188 527.6,188 523,188 518.3,188 513.7,188 509.1,188 504.5,188 499.8,188 495.2,188 490.6,188 485.9,188 
		481.3,188 476.7,188 472.1,188 467.4,188 462.8,188 458.2,188 453.5,188 448.9,188 444.3,188 439.7,188 439.7,183.4 439.7,178.8 
		439.7,174.1 439.7,169.5 439.7,164.9 439.7,160.2 439.7,155.6 439.7,151 439.7,146.4 439.7,141.7 439.7,137.1 439.7,132.5 
		439.7,127.8 439.7,123.2 439.7,118.6 439.7,114 439.7,109.3 439.7,104.7 439.7,100.1 439.7,95.5 444.3,95.5 448.9,95.5 453.5,95.5 
		458.2,95.5 462.8,95.5 467.4,95.5 472.1,95.5 476.7,95.5 481.3,95.5 485.9,95.5 490.6,95.5 495.2,95.5 499.8,95.5 504.5,95.5 
		509.1,95.5 513.7,95.5 518.3,95.5 523,95.5 527.6,95.5 532.2,95.5 536.8,95.5 541.5,95.5 546.1,95.5 550.7,95.5 555.4,95.5 
		560,95.5 564.6,95.5 569.2,95.5 573.9,95.5 578.5,95.5 583.1,95.5 587.8,95.5 592.4,95.5 597,95.5 601.6,95.5 606.3,95.5 
		610.9,95.5 615.5,95.5 620.2,95.5 624.8,95.5 624.8,90.8 624.8,86.2 624.8,81.6 624.8,76.9 624.8,72.3 624.8,67.7 624.8,63.1 
		624.8,58.4 624.8,53.8 624.8,49.2 624.8,44.5 624.8,39.9 624.8,35.3 624.8,30.7 624.8,26 624.8,21.4 624.8,16.8 624.8,12.1 
		624.8,7.5 624.8,2.9 620.2,2.9 	"/>
	<polygon points="777.5,2.9 772.9,2.9 768.2,2.9 763.6,2.9 759,2.9 754.4,2.9 749.7,2.9 745.1,2.9 740.5,2.9 735.9,2.9 731.2,2.9 
		726.6,2.9 722,2.9 717.3,2.9 712.7,2.9 708.1,2.9 703.5,2.9 698.8,2.9 694.2,2.9 694.2,7.5 694.2,12.1 694.2,16.8 694.2,21.4 
		694.2,26 694.2,30.7 694.2,35.3 694.2,39.9 694.2,44.5 694.2,49.2 694.2,53.8 694.2,58.4 694.2,63.1 694.2,67.7 694.2,72.3 
		694.2,76.9 694.2,81.6 694.2,86.2 694.2,90.8 694.2,95.5 694.2,100.1 694.2,104.7 694.2,109.3 694.2,114 694.2,118.6 694.2,123.2 
		694.2,127.8 694.2,132.5 694.2,137.1 694.2,141.7 694.2,146.4 694.2,151 694.2,155.6 694.2,160.2 694.2,164.9 694.2,169.5 
		694.2,174.1 694.2,178.8 694.2,183.4 694.2,188 694.2,192.6 694.2,197.3 694.2,201.9 694.2,206.5 694.2,211.2 694.2,215.8 
		694.2,220.4 694.2,225 694.2,229.7 694.2,234.3 694.2,238.9 694.2,243.5 694.2,248.2 694.2,252.8 694.2,257.4 694.2,262.1 
		694.2,266.7 694.2,271.3 694.2,275.9 694.2,280.6 698.8,280.6 703.5,280.6 708.1,280.6 712.7,280.6 717.3,280.6 722,280.6 
		726.6,280.6 731.2,280.6 735.9,280.6 740.5,280.6 745.1,280.6 749.7,280.6 754.4,280.6 759,280.6 763.6,280.6 768.2,280.6 
		772.9,280.6 777.5,280.6 782.1,280.6 786.8,280.6 786.8,275.9 786.8,271.3 786.8,266.7 786.8,262.1 786.8,257.4 786.8,252.8 
		786.8,248.2 786.8,243.5 786.8,238.9 786.8,234.3 786.8,229.7 786.8,225 786.8,220.4 786.8,215.8 786.8,211.2 786.8,206.5 
		786.8,201.9 786.8,197.3 786.8,192.6 786.8,188 786.8,183.4 786.8,178.8 786.8,174.1 786.8,169.5 786.8,164.9 786.8,160.2 
		786.8,155.6 786.8,151 786.8,146.4 786.8,141.7 786.8,137.1 786.8,132.5 786.8,127.8 786.8,123.2 786.8,118.6 786.8,114 
		786.8,109.3 786.8,104.7 786.8,100.1 786.8,95.5 786.8,90.8 786.8,86.2 786.8,81.6 786.8,76.9 786.8,72.3 786.8,67.7 786.8,63.1 
		786.8,58.4 786.8,53.8 786.8,49.2 786.8,44.5 786.8,39.9 786.8,35.3 786.8,30.7 786.8,26 786.8,21.4 786.8,16.8 786.8,12.1 
		786.8,7.5 786.8,2.9 782.1,2.9 	"/>
	<polygon points="1129.2,2.9 1124.6,2.9 1120,2.9 1115.3,2.9 1110.7,2.9 1106.1,2.9 1101.5,2.9 1096.8,2.9 1092.2,2.9 1087.6,2.9 
		1083,2.9 1078.3,2.9 1073.7,2.9 1069.1,2.9 1064.4,2.9 1059.8,2.9 1055.2,2.9 1050.6,2.9 1045.9,2.9 1041.3,2.9 1036.7,2.9 
		1032,2.9 1027.4,2.9 1022.8,2.9 1018.2,2.9 1013.5,2.9 1008.9,2.9 1004.3,2.9 999.6,2.9 995,2.9 990.4,2.9 985.8,2.9 981.1,2.9 
		976.5,2.9 971.9,2.9 967.3,2.9 962.6,2.9 958,2.9 953.4,2.9 948.7,2.9 944.1,2.9 939.5,2.9 934.9,2.9 930.2,2.9 925.6,2.9 921,2.9 
		916.3,2.9 911.7,2.9 907.1,2.9 902.5,2.9 897.8,2.9 893.2,2.9 888.6,2.9 883.9,2.9 879.3,2.9 874.7,2.9 870.1,2.9 865.4,2.9 
		860.8,2.9 856.2,2.9 856.2,7.5 856.2,12.1 856.2,16.8 856.2,21.4 856.2,26 856.2,30.7 856.2,35.3 856.2,39.9 856.2,44.5 
		856.2,49.2 856.2,53.8 856.2,58.4 856.2,63.1 856.2,67.7 856.2,72.3 856.2,76.9 856.2,81.6 856.2,86.2 856.2,90.8 856.2,95.5 
		856.2,100.1 856.2,104.7 856.2,109.3 856.2,114 856.2,118.6 856.2,123.2 856.2,127.8 856.2,132.5 856.2,137.1 856.2,141.7 
		856.2,146.4 856.2,151 856.2,155.6 856.2,160.2 856.2,164.9 856.2,169.5 856.2,174.1 856.2,178.8 856.2,183.4 856.2,188 
		856.2,192.6 856.2,197.3 856.2,201.9 856.2,206.5 856.2,211.2 856.2,215.8 856.2,220.4 856.2,225 856.2,229.7 856.2,234.3 
		856.2,238.9 856.2,243.5 856.2,248.2 856.2,252.8 856.2,257.4 856.2,262.1 856.2,266.7 856.2,271.3 856.2,275.9 856.2,280.6 
		860.8,280.6 865.4,280.6 870.1,280.6 874.7,280.6 879.3,280.6 883.9,280.6 888.6,280.6 893.2,280.6 897.8,280.6 902.5,280.6 
		907.1,280.6 911.7,280.6 916.3,280.6 921,280.6 925.6,280.6 930.2,280.6 934.9,280.6 939.5,280.6 944.1,280.6 948.7,280.6 
		948.7,275.9 948.7,271.3 948.7,266.7 948.7,262.1 948.7,257.4 948.7,252.8 948.7,248.2 948.7,243.5 948.7,238.9 948.7,234.3 
		948.7,229.7 948.7,225 948.7,220.4 948.7,215.8 948.7,211.2 948.7,206.5 948.7,201.9 948.7,197.3 948.7,192.6 948.7,188 
		948.7,183.4 948.7,178.8 948.7,174.1 948.7,169.5 948.7,164.9 948.7,160.2 948.7,155.6 948.7,151 948.7,146.4 948.7,141.7 
		948.7,137.1 948.7,132.5 948.7,127.8 948.7,123.2 948.7,118.6 948.7,114 948.7,109.3 948.7,104.7 948.7,100.1 948.7,95.5 
		953.4,95.5 958,95.5 962.6,95.5 967.3,95.5 971.9,95.5 976.5,95.5 981.1,95.5 985.8,95.5 990.4,95.5 995,95.5 999.6,95.5 
		1004.3,95.5 1008.9,95.5 1013.5,95.5 1018.2,95.5 1022.8,95.5 1027.4,95.5 1032,95.5 1036.7,95.5 1041.3,95.5 1041.3,100.1 
		1041.3,104.7 1041.3,109.3 1041.3,114 1041.3,118.6 1041.3,123.2 1041.3,127.8 1041.3,132.5 1041.3,137.1 1041.3,141.7 
		1041.3,146.4 1041.3,151 1041.3,155.6 1041.3,160.2 1041.3,164.9 1041.3,169.5 1041.3,174.1 1041.3,178.8 1041.3,183.4 1041.3,188 
		1041.3,192.6 1041.3,197.3 1041.3,201.9 1041.3,206.5 1041.3,211.2 1041.3,215.8 1041.3,220.4 1041.3,225 1041.3,229.7 
		1041.3,234.3 1041.3,238.9 1041.3,243.5 1041.3,248.2 1041.3,252.8 1041.3,257.4 1041.3,262.1 1041.3,266.7 1041.3,271.3 
		1041.3,275.9 1041.3,280.6 1045.9,280.6 1050.6,280.6 1055.2,280.6 1059.8,280.6 1064.4,280.6 1069.1,280.6 1073.7,280.6 
		1078.3,280.6 1083,280.6 1087.6,280.6 1092.2,280.6 1096.8,280.6 1101.5,280.6 1106.1,280.6 1110.7,280.6 1115.3,280.6 1120,280.6 
		1124.6,280.6 1129.2,280.6 1133.9,280.6 1133.9,275.9 1133.9,271.3 1133.9,266.7 1133.9,262.1 1133.9,257.4 1133.9,252.8 
		1133.9,248.2 1133.9,243.5 1133.9,238.9 1133.9,234.3 1133.9,229.7 1133.9,225 1133.9,220.4 1133.9,215.8 1133.9,211.2 
		1133.9,206.5 1133.9,201.9 1133.9,197.3 1133.9,192.6 1133.9,188 1133.9,183.4 1133.9,178.8 1133.9,174.1 1133.9,169.5 
		1133.9,164.9 1133.9,160.2 1133.9,155.6 1133.9,151 1133.9,146.4 1133.9,141.7 1133.9,137.1 1133.9,132.5 1133.9,127.8 
		1133.9,123.2 1133.9,118.6 1133.9,114 1133.9,109.3 1133.9,104.7 1133.9,100.1 1133.9,95.5 1133.9,90.8 1133.9,86.2 1133.9,81.6 
		1133.9,76.9 1133.9,72.3 1133.9,67.7 1133.9,63.1 1133.9,58.4 1133.9,53.8 1133.9,49.2 1133.9,44.5 1133.9,39.9 1133.9,35.3 
		1133.9,30.7 1133.9,26 1133.9,21.4 1133.9,16.8 1133.9,12.1 1133.9,7.5 1133.9,2.9 	"/>
</g>
</svg>
