<?xml version="1.0" encoding="utf-8"?>
<!-- Generator: Adobe Illustrator 23.1.1, SVG Export Plug-In . SVG Version: 6.00 Build 0)  -->
<svg version="1.1" id="Livello_1" shape-rendering="crispEdges"
	 xmlns="http://www.w3.org/2000/svg" xmlns:xlink="http://www.w3.org/1999/xlink" x="0px" y="0px" viewBox="0 0 1133.9 283.5"
	 style="enable-background:new 0 0 1133.9 283.5;" xml:space="preserve">
<style type="text/css">
	.st0{fill:#E0E0E0;}
	.st1{fill:#222222;}
</style>
<g>
	<polygon class="st0" points="372,62 367.6,62 363.2,62 358.8,62 354.3,62 349.9,62 345.5,62 341,62 336.6,62 332.2,62 327.8,62 
		323.3,62 318.9,62 314.5,62 310,62 305.6,62 301.2,62 296.8,62 292.3,62 287.9,62 283.5,62 279,62 274.6,62 270.2,62 265.7,62 
		261.3,62 256.9,62 252.5,62 248,62 243.6,62 239.2,62 234.7,62 230.3,62 225.9,62 221.5,62 221.5,66.4 221.5,70.9 221.5,75.3 
		221.5,79.7 221.5,84.2 221.5,88.6 221.5,93 221.5,97.4 221.5,101.9 221.5,106.3 221.5,110.7 221.5,115.2 225.9,115.2 230.3,115.2 
		234.7,115.2 239.2,115.2 243.6,115.2 248,115.2 252.5,115.2 256.9,115.2 261.3,115.2 265.7,115.2 270.2,115.2 274.6,115.2 
		279,115.2 283.5,115.2 287.9,115.2 292.3,115.2 296.8,115.2 301.2,115.2 305.6,115.2 310,115.2 314.5,115.2 318.9,115.2 
		323.3,115.2 327.8,115.2 327.8,119.6 327.8,124 327.8,128.4 327.8,132.9 327.8,137.3 327.8,141.7 327.8,146.2 327.8,150.6 
		327.8,155 327.8,159.4 327.8,163.9 327.8,168.3 327.8,172.7 327.8,177.2 327.8,181.6 327.8,186 327.8,190.5 327.8,194.9 
		327.8,199.3 327.8,203.7 327.8,208.2 327.8,212.6 327.8,217 327.8,221.5 332.2,221.5 336.6,221.5 341,221.5 345.5,221.5 
		349.9,221.5 354.3,221.5 358.8,221.5 363.2,221.5 367.6,221.5 372,221.5 376.5,221.5 380.9,221.5 380.9,217 380.9,212.6 
		380.9,208.2 380.9,203.7 380.9,199.3 380.9,194.9 380.9,190.5 380.9,186 380.9,181.6 380.9,177.2 380.9,172.7 380.9,168.3 
		380.9,163.9 380.9,159.4 380.9,155 380.9,150.6 380.9,146.2 380.9,141.7 380.9,137.3 380.9,132.9 380.9,128.4 380.9,124 
		380.9,119.6 380.9,115.2 380.9,110.7 380.9,106.3 380.9,101.9 380.9,97.4 380.9,93 380.9,88.6 380.9,84.2 380.9,79.7 380.9,75.3 
		380.9,70.9 380.9,66.4 380.9,62 376.5,62 	"/>
	<polygon class="st0" points="584.6,62 580.2,62 575.8,62 571.4,62 566.9,62 562.5,62 558.1,62 553.6,62 549.2,62 544.8,62 
		540.4,62 535.9,62 531.5,62 527.1,62 522.6,62 518.2,62 513.8,62 509.4,62 504.9,62 500.5,62 496.1,62 491.6,62 487.2,62 482.8,62 
		478.3,62 473.9,62 469.5,62 465.1,62 460.6,62 456.2,62 451.8,62 447.3,62 442.9,62 438.5,62 434.1,62 434.1,66.4 434.1,70.9 
		434.1,75.3 434.1,79.7 434.1,84.2 434.1,88.6 434.1,93 434.1,97.4 434.1,101.9 434.1,106.3 434.1,110.7 434.1,115.2 438.5,115.2 
		442.9,115.2 447.3,115.2 451.8,115.2 456.2,115.2 460.6,115.2 465.1,115.2 469.5,115.2 473.9,115.2 478.3,115.2 482.8,115.2 
		487.2,115.2 491.6,115.2 496.1,115.2 500.5,115.2 504.9,115.2 509.4,115.2 513.8,115.2 518.2,115.2 522.6,115.2 527.1,115.2 
		531.5,115.2 535.9,115.2 540.4,115.2 544.8,115.2 549.2,115.2 553.6,115.2 558.1,115.2 562.5,115.2 566.9,115.2 571.4,115.2 
		575.8,115.2 580.2,115.2 584.6,115.2 589.1,115.2 593.5,115.2 593.5,110.7 593.5,106.3 593.5,101.9 593.5,97.4 593.5,93 
		593.5,88.6 593.5,84.2 593.5,79.7 593.5,75.3 593.5,70.9 593.5,66.4 593.5,62 589.1,62 	"/>
	<polygon class="st0" points="690.9,62 686.5,62 682.1,62 677.7,62 673.2,62 668.8,62 664.4,62 659.9,62 655.5,62 651.1,62 
		646.7,62 646.7,66.4 646.7,70.9 646.7,75.3 646.7,79.7 646.7,84.2 646.7,88.6 646.7,93 646.7,97.4 646.7,101.9 646.7,106.3 
		646.7,110.7 646.7,115.2 646.7,119.6 646.7,124 646.7,128.4 646.7,132.9 646.7,137.3 646.7,141.7 646.7,146.2 646.7,150.6 
		646.7,155 646.7,159.4 646.7,163.9 646.7,168.3 646.7,172.7 646.7,177.2 646.7,181.6 646.7,186 646.7,190.5 646.7,194.9 
		646.7,199.3 646.7,203.7 646.7,208.2 646.7,212.6 646.7,217 646.7,221.5 651.1,221.5 655.5,221.5 659.9,221.5 664.4,221.5 
		668.8,221.5 673.2,221.5 677.7,221.5 682.1,221.5 686.5,221.5 690.9,221.5 695.4,221.5 699.8,221.5 699.8,217 699.8,212.6 
		699.8,208.2 699.8,203.7 699.8,199.3 699.8,194.9 699.8,190.5 699.8,186 699.8,181.6 699.8,177.2 699.8,172.7 699.8,168.3 
		699.8,163.9 699.8,159.4 699.8,155 699.8,150.6 699.8,146.2 699.8,141.7 699.8,137.3 699.8,132.9 699.8,128.4 699.8,124 
		699.8,119.6 699.8,115.2 699.8,110.7 699.8,106.3 699.8,101.9 699.8,97.4 699.8,93 699.8,88.6 699.8,84.2 699.8,79.7 699.8,75.3 
		699.8,70.9 699.8,66.4 699.8,62 695.4,62 	"/>
	<polygon class="st0" points="908,62 903.5,62 899.1,62 894.7,62 890.3,62 885.8,62 881.4,62 877,62 872.5,62 868.1,62 863.7,62 
		859.3,62 854.8,62 850.4,62 846,62 841.5,62 837.1,62 832.7,62 828.2,62 823.8,62 819.4,62 815,62 810.5,62 806.1,62 801.7,62 
		797.2,62 792.8,62 788.4,62 784,62 779.5,62 775.1,62 770.7,62 766.2,62 761.8,62 757.4,62 753,62 753,66.4 753,70.9 753,75.3 
		753,79.7 753,84.2 753,88.6 753,93 753,97.4 753,101.9 753,106.3 753,110.7 753,115.2 753,119.6 753,124 753,128.4 753,132.9 
		753,137.3 753,141.7 753,146.2 753,150.6 753,155 753,159.4 753,163.9 753,168.3 753,172.7 753,177.2 753,181.6 753,186 753,190.5 
		753,194.9 753,199.3 753,203.7 753,208.2 753,212.6 753,217 753,221.5 757.4,221.5 761.8,221.5 766.2,221.5 770.7,221.5 
		775.1,221.5 779.5,221.5 784,221.5 788.4,221.5 792.8,221.5 797.2,221.5 801.7,221.5 806.1,221.5 806.1,217 806.1,212.6 
		806.1,208.2 806.1,203.7 806.1,199.3 806.1,194.9 806.1,190.5 806.1,186 806.1,181.6 806.1,177.2 806.1,172.7 806.1,168.3 
		806.1,163.9 806.1,159.4 806.1,155 806.1,150.6 806.1,146.2 806.1,141.7 806.1,137.3 806.1,132.9 806.1,128.4 806.1,124 
		806.1,119.6 806.1,115.2 810.5,115.2 815,115.2 819.4,115.2 823.8,115.2 828.2,115.2 832.7,115.2 837.1,115.2 841.5,115.2 
		846,115.2 850.4,115.2 854.8,115.2 859.3,115.2 859.3,119.6 859.3,124 859.3,128.4 859.3,132.9 859.3,137.3 859.3,141.7 
		859.3,146.2 859.3,150.6 859.3,155 859.3,159.4 859.3,163.9 859.3,168.3 859.3,172.7 859.3,177.2 859.3,181.6 859.3,186 
		859.3,190.5 859.3,194.9 859.3,199.3 859.3,203.7 859.3,208.2 859.3,212.6 859.3,217 859.3,221.5 863.7,221.5 868.1,221.5 
		872.5,221.5 877,221.5 881.4,221.5 885.8,221.5 890.3,221.5 894.7,221.5 899.1,221.5 903.5,221.5 908,221.5 912.4,221.5 912.4,217 
		912.4,212.6 912.4,208.2 912.4,203.7 912.4,199.3 912.4,194.9 912.4,190.5 912.4,186 912.4,181.6 912.4,177.2 912.4,172.7 
		912.4,168.3 912.4,163.9 912.4,159.4 912.4,155 912.4,150.6 912.4,146.2 912.4,141.7 912.4,137.3 912.4,132.9 912.4,128.4 
		912.4,124 912.4,119.6 912.4,115.2 912.4,110.7 912.4,106.3 912.4,101.9 912.4,97.4 912.4,93 912.4,88.6 912.4,84.2 912.4,79.7 
		912.4,75.3 912.4,70.9 912.4,66.4 912.4,62 	"/>
	<polygon class="st0" points="584.6,168.3 580.2,168.3 575.8,168.3 571.4,168.3 566.9,168.3 562.5,168.3 558.1,168.3 553.6,168.3 
		549.2,168.3 544.8,168.3 540.4,168.3 535.9,168.3 531.5,168.3 527.1,168.3 522.6,168.3 518.2,168.3 513.8,168.3 509.4,168.3 
		504.9,168.3 500.5,168.3 496.1,168.3 491.6,168.3 487.2,168.3 482.8,168.3 478.3,168.3 473.9,168.3 469.5,168.3 465.1,168.3 
		460.6,168.3 456.2,168.3 451.8,168.3 447.3,168.3 442.9,168.3 438.5,168.3 434.1,168.3 434.1,172.7 434.1,177.2 434.1,181.6 
		434.1,186 434.1,190.5 434.1,194.9 434.1,199.3 434.1,203.7 434.1,208.2 434.1,212.6 434.1,217 434.1,221.5 438.5,221.5 
		442.9,221.5 447.3,221.5 451.8,221.5 456.2,221.5 460.6,221.5 465.1,221.5 469.5,221.5 473.9,221.5 478.3,221.5 482.8,221.5 
		487.2,221.5 491.6,221.5 496.1,221.5 500.5,221.5 504.9,221.5 509.4,221.5 513.8,221.5 518.2,221.5 522.6,221.5 527.1,221.5 
		531.5,221.5 535.9,221.5 540.4,221.5 544.8,221.5 549.2,221.5 553.6,221.5 558.1,221.5 562.5,221.5 566.9,221.5 571.4,221.5 
		575.8,221.5 580.2,221.5 584.6,221.5 589.1,221.5 593.5,221.5 593.5,217 593.5,212.6 593.5,208.2 593.5,203.7 593.5,199.3 
		593.5,194.9 593.5,190.5 593.5,186 593.5,181.6 593.5,177.2 593.5,172.7 593.5,168.3 589.1,168.3 	"/>
</g>
<path class="st1" d="M970,0h-4.4h-4.4h-4.4h-4.4h-4.4h-4.4H939h-4.4h-4.4h-4.4h-4.4h-4.4h-4.4H908h-4.4h-4.4h-4.4h-4.4h-4.4h-4.4
	H877h-4.4h-4.4h-4.4h-4.4h-4.4h-4.4H846h-4.4h-4.4h-4.4h-4.4h-4.4h-4.4H815h-4.4h-4.4h-4.4h-4.4h-4.4h-4.4H784h-4.4h-4.4h-4.4h-4.4
	h-4.4h-4.4H753h-4.4h-4.4h-4.4h-4.4h-4.4h-4.4h-4.4h-4.4h-4.4h-4.4h-4.4h-4.4h-4.4h-4.4h-4.4h-4.4h-4.4h-4.4h-4.4h-4.4h-4.4h-4.4
	h-4.4h-4.4h-4.4h-4.4h-4.4h-4.4h-4.4h-4.4h-4.4h-4.4h-4.4h-4.4h-4.4h-4.4h-4.4h-4.4h-4.4h-4.4h-4.4h-4.4h-4.4h-4.4h-4.4h-4.4h-4.4
	h-4.4h-4.4h-4.4h-4.4h-4.4h-4.4h-4.4h-4.4h-4.4h-4.4h-4.4h-4.4h-4.4h-4.4h-4.4h-4.4h-4.4h-4.4h-4.4h-4.4h-4.4h-4.4h-4.4h-4.4h-4.4
	h-4.4h-4.4h-4.4h-4.4h-4.4h-4.4h-4.4h-4.4h-4.4h-4.4h-4.4h-4.4h-4.4H372h-4.4h-4.4h-4.4h-4.4h-4.4h-4.4H341h-4.4h-4.4h-4.4h-4.4
	h-4.4h-4.4H310h-4.4h-4.4h-4.4h-4.4h-4.4h-4.4H279h-4.4h-4.4h-4.4h-4.4h-4.4h-4.4H248h-4.4h-4.4h-4.4h-4.4h-4.4h-4.4H217h-4.4h-4.4
	h-4.4h-4.4h-4.4h-4.4H186h-4.4h-4.4h-4.4h-4.4h-4.4h-4.4v4.4v4.4v4.4v4.4v4.4v4.4V31v4.4v4.4v4.4v4.4v4.4v4.4V62v4.4v4.4v4.4v4.4
	v4.4v4.4V93v4.4v4.4v4.4v4.4v4.4v4.4v4.4v4.4v4.4v4.4v4.4v4.4v4.4v4.4v4.4v4.4v4.4v4.4v4.4v4.4v4.4v4.4v4.4v4.4v4.4v4.4v4.4v4.4v4.4
	v4.4v4.4v4.4v4.4v4.4v4.4v4.4v4.4v4.4v4.4v4.4v4.4v4.4v4.4h4.4h4.4h4.4h4.4h4.4h4.4h4.4h4.4h4.4h4.4h4.4h4.4h4.4h4.4h4.4h4.4h4.4
	h4.4h4.4h4.4h4.4h4.4h4.4h4.4h4.4h4.4h4.4h4.4h4.4h4.4h4.4h4.4h4.4h4.4h4.4h4.4h4.4h4.4h4.4h4.4h4.4h4.4h4.4h4.4h4.4h4.4h4.4h4.4
	h4.4h4.4h4.4h4.4h4.4h4.4h4.4h4.4h4.4h4.4h4.4h4.4h4.4h4.4h4.4h4.4h4.4h4.4h4.4h4.4h4.4h4.4h4.4h4.4h4.4h4.4h4.4h4.4h4.4h4.4h4.4
	h4.4h4.4h4.4h4.4h4.4h4.4h4.4h4.4h4.4h4.4h4.4h4.4h4.4h4.4h4.4h4.4h4.4h4.4h4.4h4.4h4.4h4.4h4.4h4.4h4.4h4.4h4.4h4.4h4.4h4.4h4.4
	h4.4h4.4h4.4h4.4h4.4h4.4h4.4h4.4h4.4h4.4h4.4h4.4h4.4h4.4h4.4h4.4h4.4h4.4h4.4h4.4h4.4h4.4h4.4h4.4h4.4h4.4h4.4h4.4h4.4h4.4h4.4
	h4.4h4.4h4.4h4.4h4.4h4.4h4.4h4.4h4.4h4.4h4.4h4.4h4.4h4.4h4.4h4.4h4.4h4.4h4.4h4.4h4.4h4.4h4.4h4.4h4.4h4.4h4.4h4.4h4.4h4.4h4.4
	h4.4h4.4h4.4h4.4h4.4h4.4h4.4h4.4h4.4h4.4h4.4h4.4V279v-4.4v-4.4v-4.4v-4.4v-4.4v-4.4V248v-4.4v-4.4v-4.4v-4.4v-4.4v-4.4V217v-4.4
	v-4.4v-4.4v-4.4v-4.4v-4.4V186v-4.4v-4.4v-4.4v-4.4v-4.4v-4.4V155v-4.4v-4.4v-4.4v-4.4v-4.4v-4.4V124v-4.4v-4.4v-4.4v-4.4v-4.4v-4.4
	V93v-4.4v-4.4v-4.4v-4.4v-4.4v-4.4V62v-4.4v-4.4v-4.4v-4.4v-4.4v-4.4V31v-4.4v-4.4v-4.4v-4.4V8.9V4.4V0H970z M912.4,66.4v4.4v4.4
	v4.4v4.4v4.4V93v4.4v4.4v4.4v4.4v4.4v4.4v4.4v4.4v4.4v4.4v4.4v4.4v4.4v4.4v4.4v4.4v4.4v4.4v4.4v4.4v4.4v4.4v4.4v4.4v4.4v4.4v4.4v4.4
	v4.4H908h-4.4h-4.4h-4.4h-4.4h-4.4h-4.4H877h-4.4h-4.4h-4.4h-4.4V217v-4.4v-4.4v-4.4v-4.4v-4.4v-4.4V186v-4.4v-4.4v-4.4v-4.4v-4.4
	v-4.4V155v-4.4v-4.4v-4.4v-4.4v-4.4v-4.4V124v-4.4v-4.4h-4.4h-4.4H846h-4.4h-4.4h-4.4h-4.4h-4.4h-4.4H815h-4.4h-4.4v4.4v4.4v4.4v4.4
	v4.4v4.4v4.4v4.4v4.4v4.4v4.4v4.4v4.4v4.4v4.4v4.4v4.4v4.4v4.4v4.4v4.4v4.4v4.4v4.4h-4.4h-4.4h-4.4h-4.4H784h-4.4h-4.4h-4.4h-4.4
	h-4.4h-4.4H753V217v-4.4v-4.4v-4.4v-4.4v-4.4v-4.4V186v-4.4v-4.4v-4.4v-4.4v-4.4v-4.4V155v-4.4v-4.4v-4.4v-4.4v-4.4v-4.4V124v-4.4
	v-4.4v-4.4v-4.4v-4.4v-4.4V93v-4.4v-4.4v-4.4v-4.4v-4.4v-4.4V62h4.4h4.4h4.4h4.4h4.4h4.4h4.4h4.4h4.4h4.4h4.4h4.4h4.4h4.4h4.4h4.4
	h4.4h4.4h4.4h4.4h4.4h4.4h4.4h4.4h4.4h4.4h4.4h4.4h4.4h4.4h4.4h4.4h4.4h4.4h4.4h4.4V66.4z M327.8,217v-4.4v-4.4v-4.4v-4.4v-4.4v-4.4
	V186v-4.4v-4.4v-4.4v-4.4v-4.4v-4.4V155v-4.4v-4.4v-4.4v-4.4v-4.4v-4.4V124v-4.4v-4.4h-4.4h-4.4h-4.4H310h-4.4h-4.4h-4.4h-4.4h-4.4
	h-4.4H279h-4.4h-4.4h-4.4h-4.4h-4.4h-4.4H248h-4.4h-4.4h-4.4h-4.4h-4.4h-4.4v-4.4v-4.4v-4.4v-4.4V93v-4.4v-4.4v-4.4v-4.4v-4.4v-4.4
	V62h4.4h4.4h4.4h4.4h4.4h4.4h4.4h4.4h4.4h4.4h4.4h4.4h4.4h4.4h4.4h4.4h4.4h4.4h4.4h4.4h4.4h4.4h4.4h4.4h4.4h4.4h4.4h4.4h4.4h4.4h4.4
	h4.4h4.4h4.4h4.4h4.4v4.4v4.4v4.4v4.4v4.4v4.4V93v4.4v4.4v4.4v4.4v4.4v4.4v4.4v4.4v4.4v4.4v4.4v4.4v4.4v4.4v4.4v4.4v4.4v4.4v4.4v4.4
	v4.4v4.4v4.4v4.4v4.4v4.4v4.4v4.4v4.4h-4.4H372h-4.4h-4.4h-4.4h-4.4h-4.4h-4.4H341h-4.4h-4.4h-4.4V217z M593.5,66.4v4.4v4.4v4.4v4.4
	v4.4V93v4.4v4.4v4.4v4.4v4.4h-4.4h-4.4h-4.4h-4.4h-4.4h-4.4h-4.4h-4.4h-4.4h-4.4h-4.4h-4.4h-4.4h-4.4h-4.4h-4.4h-4.4h-4.4h-4.4h-4.4
	h-4.4h-4.4h-4.4h-4.4h-4.4h-4.4h-4.4h-4.4h-4.4h-4.4h-4.4h-4.4h-4.4h-4.4h-4.4h-4.4v-4.4v-4.4v-4.4v-4.4V93v-4.4v-4.4v-4.4v-4.4
	v-4.4v-4.4V62h4.4h4.4h4.4h4.4h4.4h4.4h4.4h4.4h4.4h4.4h4.4h4.4h4.4h4.4h4.4h4.4h4.4h4.4h4.4h4.4h4.4h4.4h4.4h4.4h4.4h4.4h4.4h4.4
	h4.4h4.4h4.4h4.4h4.4h4.4h4.4h4.4V66.4z M434.1,217v-4.4v-4.4v-4.4v-4.4v-4.4v-4.4V186v-4.4v-4.4v-4.4v-4.4h4.4h4.4h4.4h4.4h4.4h4.4
	h4.4h4.4h4.4h4.4h4.4h4.4h4.4h4.4h4.4h4.4h4.4h4.4h4.4h4.4h4.4h4.4h4.4h4.4h4.4h4.4h4.4h4.4h4.4h4.4h4.4h4.4h4.4h4.4h4.4h4.4v4.4
	v4.4v4.4v4.4v4.4v4.4v4.4v4.4v4.4v4.4v4.4v4.4h-4.4h-4.4h-4.4h-4.4h-4.4h-4.4h-4.4h-4.4h-4.4h-4.4h-4.4h-4.4h-4.4h-4.4h-4.4h-4.4
	h-4.4h-4.4h-4.4h-4.4h-4.4h-4.4h-4.4h-4.4h-4.4h-4.4h-4.4h-4.4h-4.4h-4.4h-4.4h-4.4h-4.4h-4.4h-4.4h-4.4V217z M646.7,217v-4.4v-4.4
	v-4.4v-4.4v-4.4v-4.4V186v-4.4v-4.4v-4.4v-4.4v-4.4v-4.4V155v-4.4v-4.4v-4.4v-4.4v-4.4v-4.4V124v-4.4v-4.4v-4.4v-4.4v-4.4v-4.4V93
	v-4.4v-4.4v-4.4v-4.4v-4.4v-4.4V62h4.4h4.4h4.4h4.4h4.4h4.4h4.4h4.4h4.4h4.4h4.4h4.4v4.4v4.4v4.4v4.4v4.4v4.4V93v4.4v4.4v4.4v4.4
	v4.4v4.4v4.4v4.4v4.4v4.4v4.4v4.4v4.4v4.4v4.4v4.4v4.4v4.4v4.4v4.4v4.4v4.4v4.4v4.4v4.4v4.4v4.4v4.4v4.4h-4.4h-4.4h-4.4h-4.4h-4.4
	h-4.4h-4.4h-4.4h-4.4h-4.4h-4.4h-4.4V217z"/>
</svg>
