<?xml version="1.0" encoding="utf-8"?>
<!-- Generator: Adobe Illustrator 23.1.1, SVG Export Plug-In . SVG Version: 6.00 Build 0)  -->
<svg version="1.1" xmlns="http://www.w3.org/2000/svg" xmlns:xlink="http://www.w3.org/1999/xlink" x="0px" y="0px"
	 viewBox="0 0 1133.9 1133.9" style="enable-background:new 0 0 1133.9 1133.9;" xml:space="preserve">
<g id="Livello_1">
</g>
<g id="Livello_2">
	<g>
		<path d="M333.5,433.5h-66.7h-66.7h-66.7v66.7v66.7v66.7v66.7V767v66.7h66.7h66.7h66.7h66.7h66.7V767h-66.7h-66.7h-66.7h-66.7
			v-66.7h66.7h66.7h66.7h66.7v-66.7v-66.7v-66.7v-66.7h-66.7H333.5z M400.2,566.9v66.7h-66.7h-66.7h-66.7v-66.7v-66.7h66.7h66.7
			h66.7V566.9z"/>
		<polygon points="533.6,767 533.6,833.7 600.3,833.7 600.3,767 600.3,700.3 533.6,700.3 		"/>
		<rect x="533.6" y="566.9" width="66.7" height="66.7"/>
		<path d="M867.1,433.5h-66.7h-66.7H667v66.7h66.7h66.7h66.7h66.7v66.7h-66.7h-66.7h-66.7H667v66.7v66.7V767v66.7h66.7h66.7h66.7
			h66.7h66.7V767v-66.7v-66.7v-66.7v-66.7v-66.7h-66.7H867.1z M933.8,700.3V767h-66.7h-66.7h-66.7v-66.7v-66.7h66.7h66.7h66.7V700.3
			z"/>
		<polygon points="867.1,300.1 800.4,300.1 733.7,300.1 667,300.1 600.3,300.1 533.6,300.1 466.9,300.1 400.2,300.1 333.5,300.1 
			266.8,300.1 200.1,300.1 133.4,300.1 133.4,366.8 200.1,366.8 266.8,366.8 333.5,366.8 400.2,366.8 466.9,366.8 533.6,366.8 
			533.6,433.5 533.6,500.2 600.3,500.2 600.3,433.5 600.3,366.8 667,366.8 733.7,366.8 800.4,366.8 867.1,366.8 933.8,366.8 
			1000.5,366.8 1000.5,300.1 933.8,300.1 		"/>
		<path d="M1067.2,166.7h-66.7h-66.7h-66.7h-66.7h-66.7H667h-66.7h-66.7h-66.7h-66.7h-66.7h-66.7h-66.7h-66.7H66.7H0v66.7v66.7v66.7
			v66.7v66.7v66.7v66.7v66.7V767v66.7v66.7v66.7h66.7h66.7h66.7h66.7h66.7h66.7h66.7h66.7h66.7H667h66.7h66.7h66.7h66.7h66.7h66.7
			h66.7v-66.7v-66.7V767v-66.7v-66.7v-66.7v-66.7v-66.7v-66.7v-66.7v-66.7v-66.7H1067.2z M1067.2,300.1v66.7v66.7v66.7v66.7v66.7
			v66.7V767v66.7v66.7h-66.7h-66.7h-66.7h-66.7h-66.7H667h-66.7h-66.7h-66.7h-66.7h-66.7h-66.7h-66.7h-66.7H66.7v-66.7V767v-66.7
			v-66.7v-66.7v-66.7v-66.7v-66.7v-66.7v-66.7h66.7h66.7h66.7h66.7h66.7h66.7h66.7h66.7H667h66.7h66.7h66.7h66.7h66.7h66.7V300.1z"
			/>
	</g>
</g>
</svg>
