<?xml version="1.0" encoding="utf-8"?>
<!-- Generator: Adobe Illustrator 23.1.1, SVG Export Plug-In . SVG Version: 6.00 Build 0)  -->
<svg version="1.1" id="Livello_1" shape-rendering="crispEdges"
	 xmlns="http://www.w3.org/2000/svg" xmlns:xlink="http://www.w3.org/1999/xlink" x="0px" y="0px" viewBox="0 0 1133.9 1133.9"
	 style="enable-background:new 0 0 1133.9 1133.9;" xml:space="preserve">
<g>
	<polygon points="673.2,283.5 664.4,283.5 655.5,283.5 646.7,283.5 637.8,283.5 628.9,283.5 620.1,283.5 611.2,283.5 602.4,283.5 
		602.4,292.3 602.4,301.2 602.4,310 602.4,318.9 602.4,327.8 602.4,336.6 602.4,345.5 602.4,354.3 602.4,363.2 602.4,372 
		602.4,380.9 602.4,389.8 602.4,398.6 602.4,407.5 602.4,416.3 602.4,425.2 602.4,434.1 602.4,442.9 602.4,451.8 602.4,460.6 
		602.4,469.5 602.4,478.3 602.4,487.2 602.4,496.1 602.4,504.9 602.4,513.8 602.4,522.6 602.4,531.5 602.4,540.4 602.4,549.2 
		602.4,558.1 602.4,566.9 602.4,575.8 602.4,584.6 602.4,593.5 602.4,602.4 602.4,611.2 602.4,620.1 602.4,628.9 602.4,637.8 
		602.4,646.7 602.4,655.5 602.4,664.4 602.4,673.2 602.4,682.1 602.4,690.9 602.4,699.8 602.4,708.7 602.4,717.5 602.4,726.4 
		602.4,735.2 602.4,744.1 602.4,753 602.4,761.8 602.4,770.7 602.4,779.5 602.4,788.4 602.4,797.2 602.4,806.1 602.4,815 
		602.4,823.8 602.4,832.7 602.4,841.5 602.4,850.4 611.2,850.4 620.1,850.4 628.9,850.4 637.8,850.4 646.7,850.4 655.5,850.4 
		664.4,850.4 673.2,850.4 682.1,850.4 690.9,850.4 690.9,841.5 690.9,832.7 690.9,823.8 690.9,815 690.9,806.1 690.9,797.2 
		690.9,788.4 690.9,779.5 690.9,770.7 690.9,761.8 690.9,753 690.9,744.1 690.9,735.2 690.9,726.4 690.9,717.5 690.9,708.7 
		690.9,699.8 690.9,690.9 690.9,682.1 690.9,673.2 690.9,664.4 690.9,655.5 690.9,646.7 690.9,637.8 690.9,628.9 690.9,620.1 
		690.9,611.2 690.9,602.4 690.9,593.5 690.9,584.6 690.9,575.8 690.9,566.9 690.9,558.1 690.9,549.2 690.9,540.4 690.9,531.5 
		690.9,522.6 690.9,513.8 690.9,504.9 690.9,496.1 690.9,487.2 690.9,478.3 690.9,469.5 690.9,460.6 690.9,451.8 690.9,442.9 
		690.9,434.1 690.9,425.2 690.9,416.3 690.9,407.5 690.9,398.6 690.9,389.8 690.9,380.9 690.9,372 690.9,363.2 690.9,354.3 
		690.9,345.5 690.9,336.6 690.9,327.8 690.9,318.9 690.9,310 690.9,301.2 690.9,292.3 690.9,283.5 682.1,283.5 	"/>
	<polygon points="0,345.5 0,354.3 0,363.2 0,372 0,380.9 0,389.8 0,398.6 0,407.5 0,416.3 0,425.2 0,434.1 8.9,434.1 17.7,434.1 
		17.7,425.2 17.7,416.3 17.7,407.5 17.7,398.6 17.7,389.8 17.7,380.9 17.7,372 17.7,363.2 17.7,354.3 17.7,345.5 8.9,345.5 	"/>
	<polygon points="35.4,345.5 35.4,354.3 35.4,363.2 35.4,372 35.4,380.9 35.4,389.8 35.4,398.6 35.4,407.5 35.4,416.3 35.4,425.2 
		35.4,434.1 44.3,434.1 53.1,434.1 53.1,425.2 53.1,416.3 53.1,407.5 53.1,398.6 53.1,389.8 53.1,380.9 53.1,372 53.1,363.2 
		53.1,354.3 53.1,345.5 44.3,345.5 	"/>
	<polygon points="496.1,345.5 487.2,345.5 478.3,345.5 469.5,345.5 460.6,345.5 451.8,345.5 442.9,345.5 434.1,345.5 425.2,345.5 
		416.3,345.5 407.5,345.5 398.6,345.5 389.8,345.5 380.9,345.5 372,345.5 363.2,345.5 354.3,345.5 345.5,345.5 336.6,345.5 
		327.8,345.5 318.9,345.5 310,345.5 301.2,345.5 292.3,345.5 283.5,345.5 274.6,345.5 265.7,345.5 256.9,345.5 248,345.5 
		239.2,345.5 230.3,345.5 221.5,345.5 212.6,345.5 203.7,345.5 194.9,345.5 186,345.5 177.2,345.5 168.3,345.5 159.4,345.5 
		150.6,345.5 141.7,345.5 132.9,345.5 124,345.5 115.2,345.5 106.3,345.5 97.4,345.5 88.6,345.5 79.7,345.5 70.9,345.5 70.9,354.3 
		70.9,363.2 70.9,372 70.9,380.9 70.9,389.8 70.9,398.6 70.9,407.5 70.9,416.3 70.9,425.2 70.9,434.1 79.7,434.1 88.6,434.1 
		97.4,434.1 106.3,434.1 115.2,434.1 124,434.1 132.9,434.1 141.7,434.1 150.6,434.1 159.4,434.1 159.4,442.9 159.4,451.8 
		159.4,460.6 159.4,469.5 159.4,478.3 159.4,487.2 159.4,496.1 159.4,504.9 159.4,513.8 159.4,522.6 159.4,531.5 159.4,540.4 
		159.4,549.2 159.4,558.1 159.4,566.9 159.4,575.8 159.4,584.6 159.4,593.5 159.4,602.4 159.4,611.2 159.4,620.1 159.4,628.9 
		159.4,637.8 159.4,646.7 159.4,655.5 159.4,664.4 159.4,673.2 159.4,682.1 159.4,690.9 159.4,699.8 159.4,708.7 159.4,717.5 
		159.4,726.4 159.4,735.2 159.4,744.1 159.4,753 159.4,761.8 159.4,770.7 159.4,779.5 159.4,788.4 168.3,788.4 177.2,788.4 
		186,788.4 194.9,788.4 203.7,788.4 212.6,788.4 221.5,788.4 230.3,788.4 239.2,788.4 248,788.4 248,779.5 248,770.7 248,761.8 
		248,753 248,744.1 248,735.2 248,726.4 248,717.5 248,708.7 248,699.8 248,690.9 248,682.1 248,673.2 248,664.4 248,655.5 
		248,646.7 248,637.8 248,628.9 248,620.1 248,611.2 248,602.4 248,593.5 248,584.6 248,575.8 248,566.9 248,558.1 248,549.2 
		248,540.4 248,531.5 248,522.6 248,513.8 248,504.9 248,496.1 248,487.2 248,478.3 248,469.5 248,460.6 248,451.8 248,442.9 
		248,434.1 256.9,434.1 265.7,434.1 274.6,434.1 283.5,434.1 292.3,434.1 301.2,434.1 310,434.1 318.9,434.1 327.8,434.1 
		336.6,434.1 345.5,434.1 354.3,434.1 363.2,434.1 372,434.1 380.9,434.1 389.8,434.1 398.6,434.1 407.5,434.1 416.3,434.1 
		425.2,434.1 434.1,434.1 442.9,434.1 451.8,434.1 460.6,434.1 469.5,434.1 478.3,434.1 487.2,434.1 496.1,434.1 504.9,434.1 
		513.8,434.1 513.8,425.2 513.8,416.3 513.8,407.5 513.8,398.6 513.8,389.8 513.8,380.9 513.8,372 513.8,363.2 513.8,354.3 
		513.8,345.5 504.9,345.5 	"/>
	<polygon points="531.5,345.5 531.5,354.3 531.5,363.2 531.5,372 531.5,380.9 531.5,389.8 531.5,398.6 531.5,407.5 531.5,416.3 
		531.5,425.2 531.5,434.1 540.4,434.1 549.2,434.1 549.2,425.2 549.2,416.3 549.2,407.5 549.2,398.6 549.2,389.8 549.2,380.9 
		549.2,372 549.2,363.2 549.2,354.3 549.2,345.5 540.4,345.5 	"/>
	<polygon points="566.9,345.5 566.9,354.3 566.9,363.2 566.9,372 566.9,380.9 566.9,389.8 566.9,398.6 566.9,407.5 566.9,416.3 
		566.9,425.2 566.9,434.1 575.8,434.1 584.6,434.1 584.6,425.2 584.6,416.3 584.6,407.5 584.6,398.6 584.6,389.8 584.6,380.9 
		584.6,372 584.6,363.2 584.6,354.3 584.6,345.5 575.8,345.5 	"/>
	<polygon points="708.7,345.5 708.7,354.3 708.7,363.2 708.7,372 708.7,380.9 708.7,389.8 708.7,398.6 708.7,407.5 708.7,416.3 
		708.7,425.2 708.7,434.1 717.5,434.1 726.4,434.1 726.4,425.2 726.4,416.3 726.4,407.5 726.4,398.6 726.4,389.8 726.4,380.9 
		726.4,372 726.4,363.2 726.4,354.3 726.4,345.5 717.5,345.5 	"/>
	<polygon points="744.1,345.5 744.1,354.3 744.1,363.2 744.1,372 744.1,380.9 744.1,389.8 744.1,398.6 744.1,407.5 744.1,416.3 
		744.1,425.2 744.1,434.1 753,434.1 761.8,434.1 761.8,425.2 761.8,416.3 761.8,407.5 761.8,398.6 761.8,389.8 761.8,380.9 
		761.8,372 761.8,363.2 761.8,354.3 761.8,345.5 753,345.5 	"/>
	<path d="M1125,345.5h-8.9h-8.9h-8.9h-8.9h-8.9h-8.9h-8.9h-8.9h-8.9h-8.9h-8.9h-8.9h-8.9h-8.9h-8.9h-8.9h-8.9h-8.9h-8.9h-8.9H939
		h-8.9h-8.9h-8.9h-8.9h-8.9h-8.9H877h-8.9h-8.9h-8.9h-8.9h-8.9h-8.9H815h-8.9h-8.9h-8.9h-8.9v8.9v8.9v8.9v8.9v8.9v8.9v8.9v8.9v8.9
		v8.9h8.9h8.9h8.9h8.9h8.9h8.9h8.9h8.9h8.9h8.9h8.9h8.9h8.9h8.9h8.9h8.9h8.9h8.9h8.9h8.9h8.9h8.9h8.9h8.9h8.9h8.9h8.9h8.9h8.9h8.9
		v8.9v8.9v8.9v8.9v8.9v8.9v8.9v8.9v8.9v8.9h-8.9h-8.9h-8.9h-8.9h-8.9h-8.9h-8.9h-8.9h-8.9h-8.9h-8.9H939h-8.9h-8.9h-8.9h-8.9h-8.9
		h-8.9H877h-8.9h-8.9h-8.9h-8.9h-8.9h-8.9H815h-8.9h-8.9h-8.9h-8.9v8.9v8.9v8.9v8.9v8.9v8.9v8.9v8.9v8.9v8.9v8.9v8.9v8.9v8.9v8.9
		v8.9v8.9v8.9v8.9v8.9v8.9v8.9v8.9v8.9v8.9v8.9v8.9v8.9v8.9v8.9h8.9h8.9h8.9h8.9h8.9h8.9h8.9h8.9h8.9h8.9h8.9h8.9h8.9h8.9h8.9h8.9
		h8.9h8.9h8.9h8.9h8.9h8.9h8.9h8.9h8.9h8.9h8.9h8.9h8.9h8.9h8.9h8.9h8.9h8.9h8.9h8.9h8.9h8.9h8.9h8.9v-8.9v-8.9v-8.9V753v-8.9v-8.9
		v-8.9v-8.9v-8.9v-8.9v-8.9v-8.9v-8.9v-8.9v-8.9v-8.9v-8.9v-8.9v-8.9v-8.9v-8.9v-8.9v-8.9v-8.9v-8.9v-8.9v-8.9v-8.9v-8.9v-8.9v-8.9
		v-8.9v-8.9v-8.9v-8.9v-8.9v-8.9v-8.9v-8.9v-8.9v-8.9v-8.9v-8.9v-8.9v-8.9v-8.9V372v-8.9v-8.9v-8.9H1125z M1045.3,620.1v8.9v8.9v8.9
		v8.9v8.9v8.9v8.9v8.9v8.9h-8.9h-8.9h-8.9h-8.9h-8.9h-8.9h-8.9h-8.9h-8.9h-8.9h-8.9H939h-8.9h-8.9h-8.9h-8.9h-8.9h-8.9H877h-8.9
		v-8.9v-8.9v-8.9v-8.9v-8.9v-8.9v-8.9v-8.9v-8.9v-8.9h8.9h8.9h8.9h8.9h8.9h8.9h8.9h8.9h8.9h8.9h8.9h8.9h8.9h8.9h8.9h8.9h8.9h8.9h8.9
		h8.9V620.1z"/>
	<polygon points="274.6,522.6 274.6,531.5 274.6,540.4 274.6,549.2 274.6,558.1 274.6,566.9 274.6,575.8 274.6,584.6 274.6,593.5 
		274.6,602.4 274.6,611.2 283.5,611.2 292.3,611.2 292.3,602.4 292.3,593.5 292.3,584.6 292.3,575.8 292.3,566.9 292.3,558.1 
		292.3,549.2 292.3,540.4 292.3,531.5 292.3,522.6 283.5,522.6 	"/>
	<polygon points="310,522.6 310,531.5 310,540.4 310,549.2 310,558.1 310,566.9 310,575.8 310,584.6 310,593.5 310,602.4 310,611.2 
		318.9,611.2 327.8,611.2 327.8,602.4 327.8,593.5 327.8,584.6 327.8,575.8 327.8,566.9 327.8,558.1 327.8,549.2 327.8,540.4 
		327.8,531.5 327.8,522.6 318.9,522.6 	"/>
	<polygon points="496.1,522.6 487.2,522.6 478.3,522.6 469.5,522.6 460.6,522.6 451.8,522.6 442.9,522.6 434.1,522.6 425.2,522.6 
		416.3,522.6 407.5,522.6 398.6,522.6 389.8,522.6 380.9,522.6 372,522.6 363.2,522.6 354.3,522.6 345.5,522.6 336.6,522.6 
		336.6,531.5 336.6,540.4 336.6,549.2 336.6,558.1 336.6,566.9 336.6,575.8 336.6,584.6 336.6,593.5 336.6,602.4 336.6,611.2 
		345.5,611.2 354.3,611.2 363.2,611.2 372,611.2 380.9,611.2 389.8,611.2 398.6,611.2 407.5,611.2 416.3,611.2 425.2,611.2 
		434.1,611.2 442.9,611.2 451.8,611.2 460.6,611.2 469.5,611.2 478.3,611.2 487.2,611.2 496.1,611.2 504.9,611.2 513.8,611.2 
		513.8,602.4 513.8,593.5 513.8,584.6 513.8,575.8 513.8,566.9 513.8,558.1 513.8,549.2 513.8,540.4 513.8,531.5 513.8,522.6 
		504.9,522.6 	"/>
	<polygon points="531.5,522.6 531.5,531.5 531.5,540.4 531.5,549.2 531.5,558.1 531.5,566.9 531.5,575.8 531.5,584.6 531.5,593.5 
		531.5,602.4 531.5,611.2 540.4,611.2 549.2,611.2 549.2,602.4 549.2,593.5 549.2,584.6 549.2,575.8 549.2,566.9 549.2,558.1 
		549.2,549.2 549.2,540.4 549.2,531.5 549.2,522.6 540.4,522.6 	"/>
	<polygon points="566.9,522.6 566.9,531.5 566.9,540.4 566.9,549.2 566.9,558.1 566.9,566.9 566.9,575.8 566.9,584.6 566.9,593.5 
		566.9,602.4 566.9,611.2 575.8,611.2 584.6,611.2 584.6,602.4 584.6,593.5 584.6,584.6 584.6,575.8 584.6,566.9 584.6,558.1 
		584.6,549.2 584.6,540.4 584.6,531.5 584.6,522.6 575.8,522.6 	"/>
	<polygon points="708.7,522.6 708.7,531.5 708.7,540.4 708.7,549.2 708.7,558.1 708.7,566.9 708.7,575.8 708.7,584.6 708.7,593.5 
		708.7,602.4 708.7,611.2 717.5,611.2 726.4,611.2 726.4,602.4 726.4,593.5 726.4,584.6 726.4,575.8 726.4,566.9 726.4,558.1 
		726.4,549.2 726.4,540.4 726.4,531.5 726.4,522.6 717.5,522.6 	"/>
	<polygon points="744.1,522.6 744.1,531.5 744.1,540.4 744.1,549.2 744.1,558.1 744.1,566.9 744.1,575.8 744.1,584.6 744.1,593.5 
		744.1,602.4 744.1,611.2 753,611.2 761.8,611.2 761.8,602.4 761.8,593.5 761.8,584.6 761.8,575.8 761.8,566.9 761.8,558.1 
		761.8,549.2 761.8,540.4 761.8,531.5 761.8,522.6 753,522.6 	"/>
	<polygon points="274.6,699.8 274.6,708.7 274.6,717.5 274.6,726.4 274.6,735.2 274.6,744.1 274.6,753 274.6,761.8 274.6,770.7 
		274.6,779.5 274.6,788.4 283.5,788.4 292.3,788.4 292.3,779.5 292.3,770.7 292.3,761.8 292.3,753 292.3,744.1 292.3,735.2 
		292.3,726.4 292.3,717.5 292.3,708.7 292.3,699.8 283.5,699.8 	"/>
	<polygon points="310,699.8 310,708.7 310,717.5 310,726.4 310,735.2 310,744.1 310,753 310,761.8 310,770.7 310,779.5 310,788.4 
		318.9,788.4 327.8,788.4 327.8,779.5 327.8,770.7 327.8,761.8 327.8,753 327.8,744.1 327.8,735.2 327.8,726.4 327.8,717.5 
		327.8,708.7 327.8,699.8 318.9,699.8 	"/>
	<polygon points="496.1,699.8 487.2,699.8 478.3,699.8 469.5,699.8 460.6,699.8 451.8,699.8 442.9,699.8 434.1,699.8 425.2,699.8 
		416.3,699.8 407.5,699.8 398.6,699.8 389.8,699.8 380.9,699.8 372,699.8 363.2,699.8 354.3,699.8 345.5,699.8 336.6,699.8 
		336.6,708.7 336.6,717.5 336.6,726.4 336.6,735.2 336.6,744.1 336.6,753 336.6,761.8 336.6,770.7 336.6,779.5 336.6,788.4 
		345.5,788.4 354.3,788.4 363.2,788.4 372,788.4 380.9,788.4 389.8,788.4 398.6,788.4 407.5,788.4 416.3,788.4 425.2,788.4 
		434.1,788.4 442.9,788.4 451.8,788.4 460.6,788.4 469.5,788.4 478.3,788.4 487.2,788.4 496.1,788.4 504.9,788.4 513.8,788.4 
		513.8,779.5 513.8,770.7 513.8,761.8 513.8,753 513.8,744.1 513.8,735.2 513.8,726.4 513.8,717.5 513.8,708.7 513.8,699.8 
		504.9,699.8 	"/>
	<polygon points="531.5,699.8 531.5,708.7 531.5,717.5 531.5,726.4 531.5,735.2 531.5,744.1 531.5,753 531.5,761.8 531.5,770.7 
		531.5,779.5 531.5,788.4 540.4,788.4 549.2,788.4 549.2,779.5 549.2,770.7 549.2,761.8 549.2,753 549.2,744.1 549.2,735.2 
		549.2,726.4 549.2,717.5 549.2,708.7 549.2,699.8 540.4,699.8 	"/>
	<polygon points="566.9,699.8 566.9,708.7 566.9,717.5 566.9,726.4 566.9,735.2 566.9,744.1 566.9,753 566.9,761.8 566.9,770.7 
		566.9,779.5 566.9,788.4 575.8,788.4 584.6,788.4 584.6,779.5 584.6,770.7 584.6,761.8 584.6,753 584.6,744.1 584.6,735.2 
		584.6,726.4 584.6,717.5 584.6,708.7 584.6,699.8 575.8,699.8 	"/>
	<polygon points="708.7,699.8 708.7,708.7 708.7,717.5 708.7,726.4 708.7,735.2 708.7,744.1 708.7,753 708.7,761.8 708.7,770.7 
		708.7,779.5 708.7,788.4 717.5,788.4 726.4,788.4 726.4,779.5 726.4,770.7 726.4,761.8 726.4,753 726.4,744.1 726.4,735.2 
		726.4,726.4 726.4,717.5 726.4,708.7 726.4,699.8 717.5,699.8 	"/>
	<polygon points="744.1,699.8 744.1,708.7 744.1,717.5 744.1,726.4 744.1,735.2 744.1,744.1 744.1,753 744.1,761.8 744.1,770.7 
		744.1,779.5 744.1,788.4 753,788.4 761.8,788.4 761.8,779.5 761.8,770.7 761.8,761.8 761.8,753 761.8,744.1 761.8,735.2 
		761.8,726.4 761.8,717.5 761.8,708.7 761.8,699.8 753,699.8 	"/>
</g>
</svg>
