<svg xmlns="http://www.w3.org/2000/svg" xml:space="preserve" fill="currentColor" stroke="null"
    shape-rendering="crispEdges" style="vector-effect:non-scaling-stroke" viewBox="0 0 512 128">
    <path
        d="M277.873 5.233h-14.679v117.534h18.349V5.233h-3.67zM138.3 18.087v18.37h3.67v-18.37h-3.67zm7.34 0v18.37h3.67v-18.37H145.638zm95.515 0H153v18.37h18.348v73.456h18.37V36.457h55.107v-18.37h-3.67zm7.34 0v18.37h3.67v-18.37h-3.67zm7.34 0v18.37h3.669v-18.37h-3.67zm29.398 0v18.37h3.67v-18.37h-3.67zm7.34 0v18.37h3.67v-18.37h-3.67zm78.97 0h-71.652V36.54h55.357v18.453H299.89v55.356H373.7V18.046h-2.156v.041zM355.02 75.02v16.607H318.28V73.174h36.905v1.845h-.166z" />
    <path
        d="M195.232 54.805v18.37h3.67v-18.37h-3.67zm7.34 0v18.37h3.69v-18.37h-3.69zm38.583 0h-33.068v18.37h36.738v-18.37h-3.67zm7.34 0v18.37h3.67v-18.37h-3.67zm7.34 0v18.37h3.669v-18.37h-3.67zm29.398 0v18.37h3.67v-18.37h-3.67zm7.34 0v18.37h3.67v-18.37h-3.67zm-97.34 36.739v18.369h3.669v-18.37h-3.67zm7.339 0v18.369h3.69v-18.37h-3.69zm38.583 0h-33.068v18.369h36.738v-18.37h-3.67zm7.34 0v18.369h3.67v-18.37h-3.67zm7.34 0v18.369h3.669v-18.37h-3.67zm29.398 0v18.369h3.67v-18.37h-3.67zm7.34 0v18.369h3.67v-18.37h-3.67z" />
</svg>