<?xml version="1.0" encoding="utf-8"?>
<!-- Generator: Adobe Illustrator 23.1.1, SVG Export Plug-In . SVG Version: 6.00 Build 0)  -->
<svg version="1.1" id="Livello_1" shape-rendering="crispEdges"
	 xmlns="http://www.w3.org/2000/svg" xmlns:xlink="http://www.w3.org/1999/xlink" x="0px" y="0px" viewBox="0 0 1133.9 283.5"
	 style="enable-background:new 0 0 1133.9 283.5;" xml:space="preserve">
<g>
	<polygon points="581.1,113.4 575.4,113.4 569.8,113.4 564.1,113.4 558.4,113.4 552.8,113.4 547.1,113.4 541.4,113.4 535.7,113.4 
		530.1,113.4 524.4,113.4 518.7,113.4 513.1,113.4 507.4,113.4 501.7,113.4 496.1,113.4 490.4,113.4 484.7,113.4 479.1,113.4 
		479.1,119.1 479.1,124.7 479.1,130.4 479.1,136.1 479.1,141.7 479.1,147.4 479.1,153.1 479.1,158.7 479.1,164.4 479.1,170.1 
		484.7,170.1 490.4,170.1 496.1,170.1 501.7,170.1 507.4,170.1 513.1,170.1 518.7,170.1 524.4,170.1 530.1,170.1 535.7,170.1 
		541.4,170.1 547.1,170.1 552.8,170.1 558.4,170.1 564.1,170.1 569.8,170.1 575.4,170.1 581.1,170.1 586.8,170.1 592.4,170.1 
		592.4,164.4 592.4,158.7 592.4,153.1 592.4,147.4 592.4,141.7 592.4,136.1 592.4,130.4 592.4,124.7 592.4,119.1 592.4,113.4 
		586.8,113.4 	"/>
	<polygon points="581.1,226.8 575.4,226.8 569.8,226.8 564.1,226.8 558.4,226.8 552.8,226.8 547.1,226.8 541.4,226.8 535.7,226.8 
		530.1,226.8 524.4,226.8 518.7,226.8 513.1,226.8 507.4,226.8 501.7,226.8 496.1,226.8 490.4,226.8 484.7,226.8 479.1,226.8 
		479.1,232.4 479.1,238.1 479.1,243.8 479.1,249.4 479.1,255.1 479.1,260.8 479.1,266.5 479.1,272.1 479.1,277.8 479.1,283.5 
		484.7,283.5 490.4,283.5 496.1,283.5 501.7,283.5 507.4,283.5 513.1,283.5 518.7,283.5 524.4,283.5 530.1,283.5 535.7,283.5 
		541.4,283.5 547.1,283.5 552.8,283.5 558.4,283.5 564.1,283.5 569.8,283.5 575.4,283.5 581.1,283.5 586.8,283.5 592.4,283.5 
		592.4,277.8 592.4,272.1 592.4,266.5 592.4,260.8 592.4,255.1 592.4,249.4 592.4,243.8 592.4,238.1 592.4,232.4 592.4,226.8 
		586.8,226.8 	"/>
	<polygon points="989.3,277.8 989.3,277.8 989.3,277.8 972.3,260.8 972.3,260.8 972.3,260.8 966.6,255.1 966.6,255.1 966.6,255.1 
		955.3,243.8 955.3,243.8 955.3,243.8 949.6,238.1 949.6,238.1 949.6,238.1 938.3,226.8 938.3,226.8 938.3,226.8 932.6,221.1 
		932.6,221.1 932.6,221.1 926.9,215.4 926.9,215.4 926.9,215.4 915.6,204.1 915.6,204.1 915.6,204.1 909.9,198.4 909.9,198.4 
		909.9,198.4 892.9,181.4 892.9,181.4 892.9,181.4 887.2,175.7 887.2,175.7 887.2,175.7 870.2,158.7 870.2,158.7 870.2,158.7 
		830.6,119.1 813.5,102 773.9,62.4 751.2,39.7 734.2,22.7 711.5,0 705.8,0 700.2,0 694.5,0 688.8,0 683.1,0 677.5,0 671.8,0 
		666.1,0 660.5,0 654.8,0 649.1,0 643.5,0 637.8,0 632.1,0 626.5,0 620.8,0 615.1,0 609.4,0 603.8,0 598.1,0 592.4,0 586.8,0 
		581.1,0 575.4,0 569.8,0 564.1,0 558.4,0 552.8,0 547.1,0 541.4,0 535.7,0 530.1,0 524.4,0 518.7,0 513.1,0 507.4,0 501.7,0 
		496.1,0 490.4,0 484.7,0 479.1,0 473.4,0 467.7,0 462,0 456.4,0 450.7,0 445,0 439.4,0 433.7,0 428,0 422.4,0 416.7,0 411,0 
		405.4,0 399.7,0 394,0 388.3,0 382.7,0 377,0 371.3,0 365.7,0 360,0 354.3,0 348.7,0 343,0 337.3,0 331.7,0 326,0 320.3,0 314.6,0 
		309,0 303.3,0 297.6,0 292,0 286.3,0 280.6,0 275,0 269.3,0 263.6,0 258,0 252.3,0 246.6,0 240.9,0 235.3,0 229.6,0 223.9,0 
		218.3,0 212.6,0 206.9,0 201.3,0 195.6,0 189.9,0 184.3,0 178.6,0 172.9,0 167.2,0 161.6,0 155.9,0 150.2,0 144.6,0 138.9,0 
		422.4,283.5 422.4,277.8 422.4,272.1 422.4,266.5 422.4,260.8 422.4,255.1 422.4,249.4 422.4,243.8 422.4,238.1 422.4,232.4 
		422.4,226.8 422.4,221.1 422.4,215.4 422.4,209.8 422.4,204.1 422.4,198.4 280.6,56.7 286.3,56.7 292,56.7 297.6,56.7 303.3,56.7 
		309,56.7 314.6,56.7 320.3,56.7 326,56.7 331.7,56.7 337.3,56.7 343,56.7 348.7,56.7 354.3,56.7 360,56.7 365.7,56.7 371.3,56.7 
		377,56.7 382.7,56.7 388.3,56.7 394,56.7 399.7,56.7 405.4,56.7 411,56.7 416.7,56.7 422.4,56.7 428,56.7 433.7,56.7 439.4,56.7 
		445,56.7 450.7,56.7 456.4,56.7 462,56.7 467.7,56.7 473.4,56.7 479.1,56.7 484.7,56.7 490.4,56.7 496.1,56.7 501.7,56.7 
		507.4,56.7 513.1,56.7 518.7,56.7 524.4,56.7 530.1,56.7 535.7,56.7 541.4,56.7 547.1,56.7 552.8,56.7 558.4,56.7 564.1,56.7 
		569.8,56.7 575.4,56.7 581.1,56.7 586.8,56.7 592.4,56.7 598.1,56.7 603.8,56.7 609.4,56.7 615.1,56.7 620.8,56.7 626.5,56.7 
		632.1,56.7 637.8,56.7 643.5,56.7 649.1,56.7 654.8,56.7 660.5,56.7 666.1,56.7 671.8,56.7 677.5,56.7 688.8,68 688.8,68 688.8,68 
		700.2,79.4 700.2,79.4 700.2,79.4 705.8,85 705.8,85 705.8,85 717.2,96.4 717.2,96.4 717.2,96.4 728.5,107.7 728.5,107.7 
		728.5,107.7 745.5,124.7 745.5,124.7 745.5,124.7 756.9,136.1 756.9,136.1 756.9,136.1 762.5,141.7 768.2,147.4 773.9,153.1 
		785.2,164.4 790.9,170.1 807.9,187.1 819.2,198.4 847.6,226.8 841.9,226.8 836.2,226.8 830.6,226.8 824.9,226.8 819.2,226.8 
		813.5,226.8 807.9,226.8 802.2,226.8 796.5,226.8 790.9,226.8 785.2,226.8 779.5,226.8 773.9,226.8 768.2,226.8 762.5,226.8 
		756.9,226.8 751.2,226.8 745.5,226.8 739.8,226.8 734.2,226.8 728.5,226.8 722.8,226.8 717.2,226.8 711.5,226.8 705.8,226.8 
		705.8,221.1 705.8,215.4 705.8,209.8 705.8,204.1 705.8,198.4 705.8,192.8 705.8,187.1 705.8,181.4 705.8,175.7 705.8,170.1 
		705.8,164.4 705.8,158.7 705.8,153.1 705.8,147.4 705.8,141.7 705.8,136.1 705.8,130.4 705.8,124.7 705.8,119.1 705.8,113.4 
		700.2,113.4 694.5,113.4 688.8,113.4 683.1,113.4 677.5,113.4 671.8,113.4 666.1,113.4 660.5,113.4 654.8,113.4 649.1,113.4 
		649.1,119.1 649.1,124.7 649.1,130.4 649.1,136.1 649.1,141.7 649.1,147.4 649.1,153.1 649.1,158.7 649.1,164.4 649.1,170.1 
		649.1,175.7 649.1,181.4 649.1,187.1 649.1,192.8 649.1,198.4 649.1,204.1 649.1,209.8 649.1,215.4 649.1,221.1 649.1,226.8 
		649.1,232.4 649.1,238.1 649.1,243.8 649.1,249.4 649.1,255.1 649.1,260.8 649.1,266.5 649.1,272.1 649.1,277.8 649.1,283.5 
		654.8,283.5 660.5,283.5 666.1,283.5 671.8,283.5 677.5,283.5 683.1,283.5 688.8,283.5 694.5,283.5 700.2,283.5 705.8,283.5 
		711.5,283.5 717.2,283.5 722.8,283.5 728.5,283.5 734.2,283.5 739.8,283.5 745.5,283.5 751.2,283.5 756.9,283.5 762.5,283.5 
		768.2,283.5 773.9,283.5 779.5,283.5 785.2,283.5 790.9,283.5 796.5,283.5 802.2,283.5 807.9,283.5 813.5,283.5 819.2,283.5 
		824.9,283.5 830.6,283.5 836.2,283.5 841.9,283.5 847.6,283.5 853.2,283.5 858.9,283.5 864.6,283.5 870.2,283.5 875.9,283.5 
		881.6,283.5 887.2,283.5 892.9,283.5 898.6,283.5 904.3,283.5 909.9,283.5 915.6,283.5 921.3,283.5 926.9,283.5 932.6,283.5 
		938.3,283.5 943.9,283.5 949.6,283.5 955.3,283.5 960.9,283.5 966.6,283.5 972.3,283.5 978,283.5 983.6,283.5 989.3,283.5 
		995,283.5 	"/>
</g>
</svg>
