<svg xmlns="http://www.w3.org/2000/svg" fill="currentColor" xml:space="preserve" shape-rendering="crispEdges"
	viewBox="0 0 1133.9 283.5">
	<path d="M581.1 113.4h-102v56.7h113.3v-56.7h-5.6zm0 113.4h-102v56.7h113.3v-56.7h-5.6z" />
	<path
		d="m989.3 277.8-17-17-5.7-5.7-11.3-11.3-5.7-5.7-11.3-11.3-5.7-5.7-5.7-5.7-11.3-11.3-5.7-5.7-17-17-5.7-5.7-17-17-39.6-39.6-17.1-17.1-39.6-39.6-22.7-22.7-17-17L711.5 0H138.9l283.5 283.5v-85.1L280.6 56.7h396.9L688.8 68l11.4 11.4 5.6 5.6 11.4 11.4 11.3 11.3 17 17 11.4 11.4 5.6 5.6 5.7 5.7 5.7 5.7 11.3 11.3 5.7 5.7 17 17 11.3 11.3 28.4 28.4H705.8V113.4h-56.7v170.1H995z" />
</svg>