<?xml version="1.0" encoding="utf-8"?>
<!-- Generator: Adobe Illustrator 23.1.1, SVG Export Plug-In . SVG Version: 6.00 Build 0)  -->
<svg version="1.1" xmlns="http://www.w3.org/2000/svg" xmlns:xlink="http://www.w3.org/1999/xlink" x="0px" y="0px"
	 viewBox="0 0 1133.9 283.5" style="enable-background:new 0 0 1133.9 283.5;" xml:space="preserve">
<g id="Livello_1">
</g>
<g id="Livello_2">
	<g>
		<path d="M501,59.7H376.8c-2.8,0-5.2,2.3-5.2,5.2v53.5c0,2.8,2.3,5.2,5.2,5.2s5.2-2.3,5.2-5.2V70h51.8v143.4h-33.4
			c-2.8,0-5.2,2.3-5.2,5.2s2.3,5.2,5.2,5.2h77.2c2.8,0,5.2-2.3,5.2-5.2s-2.3-5.2-5.2-5.2h-33.4V70h51.8v48.4c0,2.8,2.3,5.2,5.2,5.2
			s5.2-2.3,5.2-5.2V64.9C506.2,62,503.8,59.7,501,59.7z"/>
		<path d="M839.3,70c2.8,0,5.2-2.3,5.2-5.2c0-2.8-2.3-5.2-5.2-5.2h-98.1c-2.8,0-5.2,2.3-5.2,5.2c0,2.8,2.3,5.2,5.2,5.2h43.9v143.4
			h-43.9c-2.8,0-5.2,2.3-5.2,5.2s2.3,5.2,5.2,5.2h98.1c2.8,0,5.2-2.3,5.2-5.2s-2.3-5.2-5.2-5.2h-43.9V70H839.3z"/>
		<path d="M676.5,164.8c-2.8,0-5.2,2.3-5.2,5.2v43.4H578V144h43.9v19.4c0,2.8,2.3,5.2,5.2,5.2c2.8,0,5.2-2.3,5.2-5.2v-24
			c0-0.2,0.1-0.4,0.1-0.6s0-0.4-0.1-0.6v-24c0-2.8-2.3-5.2-5.2-5.2c-2.8,0-5.2,2.3-5.2,5.2v19.5H578V70h85.8v32.5
			c0,2.8,2.3,5.2,5.2,5.2c2.8,0,5.2-2.3,5.2-5.2V64.9c0-2.8-2.3-5.2-5.2-5.2H547c-2.8,0-5.2,2.3-5.2,5.2c0,2.8,2.3,5.2,5.2,5.2h20.7
			v143.4H547c-2.8,0-5.2,2.3-5.2,5.2s2.3,5.2,5.2,5.2h129.5c2.8,0,5.2-2.3,5.2-5.2V170C681.6,167.1,679.3,164.8,676.5,164.8z"/>
		<path d="M1051.7,213.4h-12L978.6,62.9c-0.8-1.9-2.7-3.2-4.8-3.2h-9.3c0,0,0,0,0,0h-49.4c-2.8,0-5.2,2.3-5.2,5.2
			c0,2.8,2.3,5.2,5.2,5.2h41.8l-58.2,143.4h-14.1c-2.8,0-5.2,2.3-5.2,5.2s2.3,5.2,5.2,5.2h17.6c0,0,0,0,0,0c0,0,0,0,0,0h36.4
			c2.8,0,5.2-2.3,5.2-5.2s-2.3-5.2-5.2-5.2h-28.7l18.8-46.3h81.2l18.8,46.3h-30.9c-2.8,0-5.2,2.3-5.2,5.2s2.3,5.2,5.2,5.2h38.5
			c0,0,0,0,0,0c0,0,0,0,0,0h15.4c2.8,0,5.2-2.3,5.2-5.2S1054.6,213.4,1051.7,213.4z M932.8,156.8L968,70h2.3l35.2,86.7H932.8z"/>
		<path d="M316.4,141.7c0-33.1-16.5-62.4-41.8-80l20.8-33.1c0,0,0,0,0,0c0,0,0,0,0,0c0.1-0.2,0.2-0.5,0.3-0.7c0-0.1,0.1-0.2,0.1-0.2
			c0.8-2.3,0-4.9-2.1-6.2C271.3,7.4,245.3,0,218.7,0c-18.7,0-36.5,3.6-52.8,10.2c-0.1,0-0.3,0.1-0.4,0.1c-0.1,0-0.2,0.1-0.2,0.1
			C113.5,31.6,77,82.5,77,141.7c0,51,27.1,95.9,67.7,120.8c0.1,0.1,0.3,0.2,0.4,0.3c0.2,0.1,0.5,0.3,0.7,0.4
			c21.3,12.8,46.2,20.2,72.9,20.2c27,0,53.3-7.6,76-22.1c2.1-1.3,2.9-3.9,2.1-6.1c0,0,0,0,0-0.1c-0.1-0.2-0.2-0.4-0.3-0.6
			c-0.1-0.1-0.1-0.2-0.2-0.3l0,0c0,0,0,0,0,0c0,0,0,0,0,0l-20.9-33.1C300.2,203.5,316.4,174.5,316.4,141.7z M305.9,136.6H269
			c-2.6-25.5-24.2-45.4-50.3-45.4c-4.2,0-8.3,0.5-12.2,1.5l-14.6-34c8.6-2.8,17.6-4.2,26.8-4.2C265.1,54.4,303.2,90.8,305.9,136.6z
			 M168.4,146.9c1.5,14.5,9.2,27.3,20.3,35.5l-19.3,31.3c-21.6-14.8-36.2-39.1-37.9-66.9H168.4z M197.6,187.7
			c6.4,3,13.6,4.6,21.1,4.6c8.2,0,16-2,22.8-5.5l19.7,31.2c-12.6,7-27.1,11.1-42.5,11.1c-14.6,0-28.4-3.6-40.5-10L197.6,187.7z
			 M218.7,182c-22.2,0-40.3-18.1-40.3-40.3s18.1-40.3,40.3-40.3s40.3,18.1,40.3,40.3S240.9,182,218.7,182z M283.8,27.6l-18,28.7
			c-14-7.7-30.1-12.2-47.1-12.2c-10.6,0-21,1.7-30.9,5L174.4,18c13.8-5,28.8-7.7,44.3-7.7C241.6,10.3,264,16.3,283.8,27.6z
			 M87.3,141.7c0-53.3,31.9-99.3,77.5-119.9l31.9,74.3c-15.5,7.5-26.6,22.6-28.4,40.4h-42.2c-2.8,0-5.2,2.3-5.2,5.2
			c0,33.6,17,63.2,42.9,80.8l-17.7,28.7C110.7,227.7,87.3,187.4,87.3,141.7z M284.7,255.4c-20,11.6-42.7,17.8-66,17.8
			c-23.1,0-44.8-6-63.7-16.5l17.7-28.8c13.7,7.3,29.3,11.5,45.9,11.5c17.4,0,33.8-4.6,48-12.6L284.7,255.4z M269.9,212.5l-19.7-31.2
			c10.4-8.3,17.4-20.5,18.8-34.4h36.9C304.3,173.8,290.5,197.5,269.9,212.5z"/>
	</g>
</g>
</svg>
