<?xml version="1.0" encoding="utf-8"?>
<!-- Generator: Adobe Illustrator 23.1.1, SVG Export Plug-In . SVG Version: 6.00 Build 0)  -->
<svg version="1.1" xmlns="http://www.w3.org/2000/svg" xmlns:xlink="http://www.w3.org/1999/xlink" x="0px" y="0px"
	 viewBox="0 0 1133.9 1133.9" style="enable-background:new 0 0 1133.9 1133.9;" xml:space="preserve">
<g id="Livello_1">
</g>
<g id="Livello_2">
	<g>
		<g>
			<polygon points="439.3,532.9 342.8,629.4 342.8,674 342.8,744 342.8,744 489.6,597.1 553.8,532.9 553.8,532.9 362.7,341.7 
				342.8,321.8 342.8,436.3 362.7,456.2 			"/>
			<polygon points="105.5,532.9 105.5,622.8 205,622.8 205,327.9 0,532.9 			"/>
			<polygon points="316.6,532.9 342.8,532.9 362.7,532.9 422.1,532.9 362.7,473.4 342.8,453.5 228.2,339 217.1,327.9 217.1,622.8 
				228.2,622.8 316.6,622.8 			"/>
			<polygon points="330.6,757.2 330.6,756.1 330.6,674 330.6,674 237.9,766.8 336.6,865.6 340.4,869.3 362,847.7 465.7,744 
				532.9,676.8 532.9,571 330.6,773.3 			"/>
			<polygon points="416.2,265.6 360.1,321.8 416.2,378 			"/>
			<polygon points="438.2,861.1 517.6,781.6 438.2,781.6 			"/>
			<polygon points="545,566.3 545,566.4 545.1,566.3 			"/>
			<polygon points="545,674.2 652.8,674.2 545,566.4 			"/>
			<polygon points="681.8,278.7 681.7,278.7 582.4,378 781,378 681.7,278.7 			"/>
			<polygon points="582.4,586.6 689.1,693.2 689.1,693.2 689.1,390.1 582.4,390.1 			"/>
			<polygon points="910,378 802.1,270.2 690.3,270.2 798.2,378 798.2,378 798.2,378 910,378 			"/>
		</g>
		<polygon points="973.7,441.7 917.7,385.7 861.8,441.7 701.6,601.9 813.5,601.9 917.7,497.7 1021.9,601.9 1133.9,601.9 		"/>
		<polygon points="917.7,514.9 866.3,566.3 969.1,566.3 		"/>
	</g>
</g>
</svg>
