<svg xmlns="http://www.w3.org/2000/svg" xml:space="preserve" fill="currentColor" viewBox="0 0 512 128">
    <g stroke="null">
        <path
            d="m231.62 57.401-18.431 18.431V97.72l28.038-28.057L253.488 57.4 216.99 20.883l-3.801-3.8V38.95l3.8 3.801 14.63 14.65zm-63.754 0v17.17h19.004V18.248L147.717 57.4h20.15z" />
        <path
            d="M208.185 57.401h20.15L216.99 46.037l-3.801-3.8-21.888-21.87-2.12-2.12v56.324h19.004v-17.17zm2.674 42.84V84.35l-17.705 17.723 18.85 18.87.727.707 4.125-4.125 19.806-19.806 12.835-12.835V64.678l-38.638 38.638v-3.075zm16.349-93.892-10.715 10.734 10.715 10.733V6.35zm4.202 113.736 15.165-15.184H231.41v15.184zm20.398-56.305v.02l.019-.02h-.02zm0 20.608h20.589L251.807 63.8v20.59zm26.128-75.537h-.02l-18.965 18.965h37.931L277.916 8.851h.02zM258.95 67.658l20.379 20.36v-57.89h-20.38v37.53zm62.57-39.842L300.91 7.227H279.56l20.608 20.59h21.353zm12.165 12.167-10.695-10.696-10.677 10.696-30.597 30.597h21.372l19.902-19.902 19.901 19.902h21.391l-30.597-30.597z" />
        <path d="m322.99 53.963-9.816 9.817h19.634l-9.817-9.817z" />
    </g>
</svg>