<svg xmlns="http://www.w3.org/2000/svg" fill="currentColor" xml:space="preserve" viewBox="0 0 1133.9 1133.9">
	<path
		d="m439.3 532.9-96.5 96.5V744l146.8-146.9 64.2-64.2-191.1-191.2-19.9-19.9v114.5l19.9 19.9zm-333.8 0v89.9H205V327.9L0 532.9z" />
	<path
		d="M316.6 532.9h105.5l-59.4-59.5-19.9-19.9L228.2 339l-11.1-11.1v294.9h99.5zm14 224.3V674l-92.7 92.8 98.7 98.8 3.8 3.7 21.6-21.6L465.7 744l67.2-67.2V571L330.6 773.3zm85.6-491.6-56.1 56.2 56.1 56.2zm22 595.5 79.4-79.5h-79.4zM545 566.3v.1l.1-.1zm0 107.9h107.8L545 566.4zm136.8-395.5h-.1L582.4 378H781l-99.3-99.3zm-99.4 307.9 106.7 106.6V390.1H582.4zM910 378 802.1 270.2H690.3L798.2 378H910zm63.7 63.7-56-56-55.9 56-160.2 160.2h111.9l104.2-104.2 104.2 104.2h112z" />
	<path d="m917.7 514.9-51.4 51.4h102.8z" />
</svg>