<?xml version="1.0" encoding="UTF-8" standalone="no"?>
<!-- Created with Inkscape (http://www.inkscape.org/) -->

<svg
   width="80.434418mm"
   height="33.866714mm"
   viewBox="0 0 80.434418 33.866713"
   version="1.1"
   id="svg5"
   inkscape:version="1.3.2 (091e20ef0f, 2023-11-25)"
   sodipodi:docname="TEIA final.svg"
   xmlns:inkscape="http://www.inkscape.org/namespaces/inkscape"
   xmlns:sodipodi="http://sodipodi.sourceforge.net/DTD/sodipodi-0.dtd"
   xmlns="http://www.w3.org/2000/svg"
   xmlns:svg="http://www.w3.org/2000/svg">
  <sodipodi:namedview
     id="namedview7"
     pagecolor="#ffffff"
     bordercolor="#111111"
     borderopacity="0.06666667"
     inkscape:showpageshadow="true"
     inkscape:pageopacity="0.0"
     inkscape:pagecheckerboard="false"
     inkscape:deskcolor="#797979"
     inkscape:document-units="mm"
     showgrid="false"
     showborder="false"
     borderlayer="true"
     inkscape:zoom="1.2938725"
     inkscape:cx="210.99452"
     inkscape:cy="38.257248"
     inkscape:window-width="2388"
     inkscape:window-height="2091"
     inkscape:window-x="1452"
     inkscape:window-y="32"
     inkscape:window-maximized="0"
     inkscape:current-layer="layer1" />
  <defs
     id="defs2" />
  <g
     inkscape:label="Layer 1"
     inkscape:groupmode="layer"
     id="layer1"
     transform="translate(87.016227,-144.51399)">
    <path
       style="font-size:36.8601px;font-family:'Safir Script PERSONAL USE ONLY';-inkscape-font-specification:'Safir Script PERSONAL USE ONLY';fill:#000000;stroke-width:3.072;fill-opacity:1"
       d="m -87.895719,152.05557 q 0.55291,-0.5529 2.24847,-1.25324 1.695567,-0.73721 4.165187,-1.51127 2.50649,-0.77406 5.565877,-1.54812 3.096245,-0.81093 6.376794,-1.43755 3.280549,-0.66348 6.561098,-1.1058 3.317409,-0.47918 6.229357,-0.62662 2.948808,-0.14744 5.307854,0.0737 2.395907,0.22116 3.833451,0.9215 0.700342,0.33174 0.810922,1.40069 0.11058,1.06894 -0.258021,2.24846 -0.368601,1.14266 -1.179523,2.13789 -0.774062,0.99522 -1.806145,1.17952 -0.737202,0.14744 -1.879865,0 -1.105803,-0.1843 -2.948808,-0.3686 -1.843005,-0.1843 -4.607512,-0.22116 -2.727648,-0.0737 -6.671679,0.29488 1.142664,0.9215 1.548125,1.76928 0.1843,0.44233 0.11058,1.95359 -0.03686,1.4744 -0.294881,3.50171 -0.22116,1.99044 -0.552901,4.20205 -0.331741,2.17475 -0.700342,4.09147 -0.331741,1.87987 -0.663482,3.13311 -0.294881,1.2901 -0.442321,1.40068 -0.221161,0.1843 -0.774062,0.22116 -0.516042,0.0737 -1.179524,-0.0369 -0.626621,-0.11058 -1.253243,-0.44232 -0.589761,-0.33174 -0.921502,-0.9215 -0.184301,-0.29488 -0.331741,-1.40068 -0.147441,-1.06895 -0.258021,-2.61707 -0.11058,-1.58498 -0.1843,-3.46485 -0.07372,-1.87986 -0.07372,-3.79659 0,-1.91673 0.03686,-3.68601 0.03686,-1.80614 0.147441,-3.16997 -2.875089,0.40546 -6.303079,1.1058 -3.391127,0.66349 -7.445734,1.62185 -0.62662,0.14744 -1.21638,-0.22116 -0.58976,-0.3686 -0.99523,-0.95836 -0.3686,-0.62663 -0.44232,-1.29011 -0.0369,-0.70034 0.44232,-1.17952 z m 48.397318,6.96656 q 0.258021,-0.14744 0.700342,-0.11058 0.479181,0.0369 0.921502,0.29488 0.479182,0.22116 0.810923,0.62662 0.331741,0.40546 0.331741,0.95836 0,0.92151 -0.884643,2.28533 -0.847782,1.36382 -2.359046,2.65393 -1.474404,1.25324 -3.53857,2.17474 -2.064165,0.88464 -4.423212,0.88464 -1.548124,0 -3.022528,-0.44232 -1.474404,-0.44232 -2.617067,-1.2901 -1.105803,-0.84778 -1.806145,-2.06417 -0.663482,-1.25324 -0.663482,-2.87508 0,-1.54813 0.552902,-2.72765 0.552901,-1.21638 1.437544,-2.02731 0.921502,-0.84778 2.064165,-1.32696 1.142663,-0.47918 2.359047,-0.58976 1.142663,-0.11058 2.211606,0.11058 1.105803,0.22116 1.990445,0.70034 0.884642,0.44232 1.511264,1.14266 0.626622,0.70035 0.810922,1.58499 0.258021,1.21638 -0.25802,2.24846 -0.479182,1.03209 -1.511265,1.62185 -0.995222,0.58976 -2.395906,0.58976 -1.400684,0 -2.911948,-0.88464 0.479181,0.81092 1.437544,1.25324 0.958363,0.44232 2.101026,0.44232 1.179523,0 2.395906,-0.47918 1.253244,-0.47918 2.322186,-1.51126 0.442322,-0.44232 0.774063,-0.92151 0.33174,-0.47918 0.589761,-0.9215 0.294881,-0.47918 0.552902,-0.84778 0.25802,-0.3686 0.516041,-0.5529 z m -9.178165,0.0369 q -0.331741,-0.3686 -0.774062,-0.33174 -0.405461,0.0369 -0.700342,0.33174 -0.25802,0.25802 -0.294881,0.66348 0,0.40546 0.405462,0.77406 0.405461,0.33174 0.774062,0.29488 0.405461,-0.0369 0.626621,-0.29488 0.258021,-0.25802 0.258021,-0.66348 0.03686,-0.40546 -0.294881,-0.77406 z m 10.247101,-3.42803 q 0.294881,-0.14744 0.810923,-0.14744 0.552901,0 1.105803,0.14744 0.552901,0.11058 0.995222,0.33174 0.479182,0.22116 0.626622,0.51604 0.14744,0.29488 0,0.84778 -0.11058,0.5529 -0.258021,1.25325 -0.14744,0.70034 -0.25802,1.4744 -0.07372,0.7372 0.14744,1.43754 0.14744,0.58977 0.552901,0.95837 0.442322,0.33174 0.958363,0.47918 0.516041,0.11058 1.068943,0 0.589762,-0.11058 1.068943,-0.47918 0.479181,-0.3686 0.774062,-0.88465 0.294881,-0.5529 0.479181,-1.03208 0.184301,-0.51604 0.368601,-0.9215 0.184301,-0.40546 0.442321,-0.58976 0.258021,-0.14744 0.700342,-0.0737 0.442322,0.0369 0.884643,0.29488 0.442321,0.22116 0.774062,0.62662 0.368601,0.40546 0.405461,0.9215 0.07372,0.51604 -0.331741,1.54813 -0.368601,1.03208 -1.142663,2.17474 -0.774062,1.14267 -1.916725,2.21161 -1.142663,1.03208 -2.580207,1.62184 -1.511264,0.58976 -2.875088,0.40546 -1.363824,-0.1843 -2.432767,-0.9215 -1.068942,-0.7372 -1.732424,-1.91672 -0.663482,-1.21639 -0.774062,-2.65393 -0.110581,-1.43754 0.11058,-2.72765 0.221161,-1.32696 0.552901,-2.35904 0.368601,-1.03209 0.774063,-1.69557 0.405461,-0.66348 0.700341,-0.84778 z m 6.303077,-4.64437 q 0,1.4744 -1.032082,2.50648 -1.032083,1.03209 -2.506487,1.03209 -1.474404,0 -2.506487,-1.03209 -1.032083,-1.03208 -1.032083,-2.50648 0,-1.47441 1.032083,-2.50649 1.032083,-1.03208 2.506487,-1.03208 1.474404,0 2.506487,1.03208 1.032082,1.03208 1.032082,2.50649 z m 7.924889,4.46007 q 2.617068,-0.11058 4.054611,1.54812 0.405462,-0.66348 0.810923,-0.9215 0.331741,-0.14744 0.847782,-0.14744 0.552901,0 1.105803,0.14744 0.552901,0.11058 0.995223,0.33174 0.442321,0.22116 0.589761,0.51604 0.147441,0.29488 0,0.77406 -0.11058,0.47919 -0.25802,1.10581 -0.147441,0.58976 -0.258021,1.2901 -0.07372,0.70034 0.14744,1.40068 0.147441,0.58977 0.516042,0.95837 0.405461,0.33174 0.884642,0.47918 0.479181,0.11058 0.995223,0 0.552901,-0.11058 1.032083,-0.47918 0.479181,-0.3686 0.774062,-0.88465 0.29488,-0.5529 0.479181,-1.03208 0.1843,-0.51604 0.368601,-0.9215 0.1843,-0.40546 0.442321,-0.58976 0.258021,-0.14744 0.7003417,-0.0737 0.442321,0.0369 0.884642,0.29488 0.442322,0.22116 0.774062,0.62662 0.331741,0.40546 0.405462,0.9215 0.03686,0.51604 -0.368601,1.54813 -0.405462,1.03208 -1.216384,2.17474 -0.8109217,1.14267 -1.9904447,2.21161 -1.179523,1.03208 -2.617067,1.62184 -2.101026,0.84779 -3.79659,0.22116 -1.695565,-0.66348 -2.617068,-2.17474 -0.847782,1.03208 -1.916725,1.62184 -1.068943,0.58976 -2.174746,0.66348 -1.216383,0.11058 -2.322186,-0.25802 -1.105803,-0.3686 -1.953585,-1.14266 -0.810922,-0.77406 -1.290104,-1.95359 -0.479181,-1.17952 -0.442321,-2.72764 0,-1.54813 0.552902,-2.83823 0.552901,-1.2901 1.437544,-2.21161 0.921502,-0.95836 2.064165,-1.4744 1.142663,-0.5529 2.359046,-0.62662 z m 2.727648,6.04505 q 0.07372,-0.66348 -0.07372,-1.1058 -0.110581,-0.47918 -0.368601,-0.77406 -0.258021,-0.29488 -0.589762,-0.44232 -0.294881,-0.14744 -0.626622,-0.1843 -0.479181,-0.0369 -0.884642,0.14744 -0.368601,0.1843 -0.626622,0.5529 -0.25802,0.33174 -0.405461,0.77406 -0.14744,0.44232 -0.11058,0.88464 0.07372,0.88465 0.552901,1.54813 0.479182,0.66348 1.290104,0.58976 0.810922,-0.0737 1.290103,-0.58976 0.479182,-0.5529 0.552902,-1.40069 z"
       id="text2"
       aria-label="Teia"
       transform="translate(1.3244491)" />
    <path
       style="font-size:54.8299px;font-family:'Safir Script PERSONAL USE ONLY';-inkscape-font-specification:'Safir Script PERSONAL USE ONLY';fill:#000000;stroke-width:4.56964;fill-opacity:1"
       d="m -51.866989,177.02183 q 2.282831,0.0725 5.458268,0.26163 3.173671,0.22592 6.430574,0.41893 3.336605,0.23374 6.430574,0.41894 3.175437,0.18909 5.376801,0.25773 2.203131,0.0318 3.129264,-0.55116 0.926135,-0.58295 0.800262,-1.36393 -0.124109,-0.8178 -1.229348,-1.60883 -1.023772,-0.78712 -2.885151,-1.13466 -1.213178,-0.24266 -3.411013,-0.38491 -2.116369,-0.13832 -4.726831,-0.18968 -2.527232,-0.0843 -5.302395,-0.10655 -2.693694,-0.0184 -5.146518,0.0485 -2.369593,0.034 -4.250386,0.0915 -1.799327,0.0614 -2.621053,0.16958 -1.149356,0.12942 -1.829326,0.68727 -0.598504,0.56175 -0.548803,1.22838 0.132933,0.63371 1.169059,1.1631 1.036124,0.5294 3.156023,0.59411 z"
       id="text5"
       aria-label="_"
       transform="translate(1.3244491)" />
  </g>
</svg>
