<?xml version="1.0" encoding="utf-8"?>
<!-- Generator: Adobe Illustrator 23.1.1, SVG Export Plug-In . SVG Version: 6.00 Build 0)  -->
<svg version="1.1" id="Livello_1" shape-rendering="crispEdges"
	 xmlns="http://www.w3.org/2000/svg" xmlns:xlink="http://www.w3.org/1999/xlink" x="0px" y="0px" viewBox="0 0 1133.9 283.5"
	 style="enable-background:new 0 0 1133.9 283.5;" xml:space="preserve">
<g>
	<polygon points="217,28.8 212.6,28.8 208.2,28.8 203.7,28.8 199.3,28.8 194.9,28.8 190.5,28.8 186,28.8 181.6,28.8 177.2,28.8 
		172.7,28.8 168.3,28.8 163.9,28.8 159.4,28.8 155,28.8 150.6,28.8 146.2,28.8 141.7,28.8 137.3,28.8 132.9,28.8 128.4,28.8 
		124,28.8 119.6,28.8 115.2,28.8 110.7,28.8 106.3,28.8 101.9,28.8 97.4,28.8 93,28.8 88.6,28.8 84.2,28.8 79.7,28.8 75.3,28.8 
		70.9,28.8 66.4,28.8 62,28.8 57.6,28.8 53.1,28.8 48.7,28.8 44.3,28.8 39.9,28.8 35.4,28.8 31,28.8 26.6,28.8 22.1,28.8 17.7,28.8 
		13.3,28.8 8.9,28.8 4.4,28.8 0,28.8 0,33.2 0,37.6 0,42.1 0,46.5 0,50.9 0,55.4 0,59.8 0,64.2 0,68.7 0,73.1 0,77.5 0,81.9 0,86.4 
		0,90.8 0,95.2 0,99.7 0,104.1 0,108.5 0,112.9 0,117.4 0,121.8 0,126.2 0,130.7 0,135.1 0,139.5 0,143.9 4.4,143.9 8.9,143.9 
		13.3,143.9 17.7,143.9 22.1,143.9 26.6,143.9 31,143.9 35.4,143.9 39.9,143.9 44.3,143.9 48.7,143.9 53.1,143.9 57.6,143.9 
		62,143.9 66.4,143.9 70.9,143.9 75.3,143.9 79.7,143.9 84.2,143.9 88.6,143.9 93,143.9 97.4,143.9 101.9,143.9 106.3,143.9 
		110.7,143.9 115.2,143.9 115.2,148.4 115.2,152.8 115.2,157.2 115.2,161.7 115.2,166.1 115.2,170.5 115.2,175 115.2,179.4 
		115.2,183.8 115.2,188.2 115.2,192.7 115.2,197.1 115.2,201.5 115.2,206 115.2,210.4 115.2,214.8 115.2,219.2 115.2,223.7 
		115.2,228.1 115.2,232.5 115.2,237 115.2,241.4 115.2,245.8 115.2,250.2 115.2,254.7 119.6,254.7 124,254.7 128.4,254.7 
		132.9,254.7 137.3,254.7 141.7,254.7 146.2,254.7 150.6,254.7 155,254.7 159.4,254.7 163.9,254.7 168.3,254.7 172.7,254.7 
		177.2,254.7 181.6,254.7 186,254.7 190.5,254.7 194.9,254.7 199.3,254.7 203.7,254.7 208.2,254.7 212.6,254.7 217,254.7 
		221.5,254.7 225.9,254.7 225.9,250.2 225.9,245.8 225.9,241.4 225.9,237 225.9,232.5 225.9,228.1 225.9,223.7 225.9,219.2 
		225.9,214.8 225.9,210.4 225.9,206 225.9,201.5 225.9,197.1 225.9,192.7 225.9,188.2 225.9,183.8 225.9,179.4 225.9,175 
		225.9,170.5 225.9,166.1 225.9,161.7 225.9,157.2 225.9,152.8 225.9,148.4 225.9,143.9 225.9,139.5 225.9,135.1 225.9,130.7 
		225.9,126.2 225.9,121.8 225.9,117.4 225.9,112.9 225.9,108.5 225.9,104.1 225.9,99.7 225.9,95.2 225.9,90.8 225.9,86.4 
		225.9,81.9 225.9,77.5 225.9,73.1 225.9,68.7 225.9,64.2 225.9,59.8 225.9,55.4 225.9,50.9 225.9,46.5 225.9,42.1 225.9,37.6 
		225.9,33.2 225.9,28.8 221.5,28.8 	"/>
	<polygon points="784,28.8 779.5,28.8 775.1,28.8 770.7,28.8 766.2,28.8 761.8,28.8 757.4,28.8 753,28.8 748.5,28.8 744.1,28.8 
		739.7,28.8 735.2,28.8 730.8,28.8 726.4,28.8 721.9,28.8 717.5,28.8 713.1,28.8 708.7,28.8 704.2,28.8 699.8,28.8 695.4,28.8 
		690.9,28.8 686.5,28.8 682.1,28.8 682.1,33.2 682.1,37.6 682.1,42.1 682.1,46.5 682.1,50.9 682.1,55.4 682.1,59.8 682.1,64.2 
		682.1,68.7 682.1,73.1 682.1,77.5 682.1,81.9 682.1,86.4 682.1,90.8 682.1,95.2 682.1,99.7 682.1,104.1 682.1,108.5 682.1,112.9 
		682.1,117.4 682.1,121.8 682.1,126.2 682.1,130.7 682.1,135.1 682.1,139.5 682.1,143.9 682.1,148.4 682.1,152.8 682.1,157.2 
		682.1,161.7 682.1,166.1 682.1,170.5 682.1,175 682.1,179.4 682.1,183.8 682.1,188.2 682.1,192.7 682.1,197.1 682.1,201.5 
		682.1,206 682.1,210.4 682.1,214.8 682.1,219.2 682.1,223.7 682.1,228.1 682.1,232.5 682.1,237 682.1,241.4 682.1,245.8 
		682.1,250.2 682.1,254.7 686.5,254.7 690.9,254.7 695.4,254.7 699.8,254.7 704.2,254.7 708.7,254.7 713.1,254.7 717.5,254.7 
		721.9,254.7 726.4,254.7 730.8,254.7 735.2,254.7 739.7,254.7 744.1,254.7 748.5,254.7 753,254.7 757.4,254.7 761.8,254.7 
		766.2,254.7 770.7,254.7 775.1,254.7 779.5,254.7 784,254.7 788.4,254.7 792.8,254.7 792.8,250.2 792.8,245.8 792.8,241.4 
		792.8,237 792.8,232.5 792.8,228.1 792.8,223.7 792.8,219.2 792.8,214.8 792.8,210.4 792.8,206 792.8,201.5 792.8,197.1 
		792.8,192.7 792.8,188.2 792.8,183.8 792.8,179.4 792.8,175 792.8,170.5 792.8,166.1 792.8,161.7 792.8,157.2 792.8,152.8 
		792.8,148.4 792.8,143.9 792.8,139.5 792.8,135.1 792.8,130.7 792.8,126.2 792.8,121.8 792.8,117.4 792.8,112.9 792.8,108.5 
		792.8,104.1 792.8,99.7 792.8,95.2 792.8,90.8 792.8,86.4 792.8,81.9 792.8,77.5 792.8,73.1 792.8,68.7 792.8,64.2 792.8,59.8 
		792.8,55.4 792.8,50.9 792.8,46.5 792.8,42.1 792.8,37.6 792.8,33.2 792.8,28.8 788.4,28.8 	"/>
	<polygon points="1129.4,28.8 1125,28.8 1120.6,28.8 1116.1,28.8 1111.7,28.8 1107.3,28.8 1102.9,28.8 1098.4,28.8 1094,28.8 
		1089.6,28.8 1085.1,28.8 1080.7,28.8 1076.3,28.8 1071.9,28.8 1067.4,28.8 1063,28.8 1058.6,28.8 1054.1,28.8 1049.7,28.8 
		1045.3,28.8 1040.8,28.8 1036.4,28.8 1032,28.8 1027.6,28.8 1023.1,28.8 1018.7,28.8 1018.7,33.2 1018.7,37.6 1018.7,42.1 
		1018.7,46.5 1018.7,50.9 1018.7,55.4 1018.7,59.8 1018.7,64.2 1018.7,68.7 1018.7,73.1 1018.7,77.5 1018.7,81.9 1018.7,86.4 
		1018.7,90.8 1018.7,95.2 1018.7,99.7 1018.7,104.1 1018.7,108.5 1018.7,112.9 1018.7,117.4 1018.7,121.8 1018.7,126.2 
		1018.7,130.7 1018.7,135.1 1018.7,139.5 1018.7,143.9 1014.3,143.9 1009.8,143.9 1005.4,143.9 1001,143.9 996.6,143.9 992.1,143.9 
		987.7,143.9 983.3,143.9 978.8,143.9 974.4,143.9 970,143.9 965.6,143.9 961.1,143.9 956.7,143.9 952.3,143.9 947.8,143.9 
		943.4,143.9 939,143.9 934.5,143.9 930.1,143.9 925.7,143.9 921.3,143.9 916.8,143.9 912.4,143.9 908,143.9 908,148.4 908,152.8 
		908,157.2 908,161.7 908,166.1 908,170.5 908,175 908,179.4 908,183.8 908,188.2 908,192.7 908,197.1 908,201.5 908,206 908,210.4 
		908,214.8 908,219.2 908,223.7 908,228.1 908,232.5 908,237 908,241.4 908,245.8 908,250.2 908,254.7 912.4,254.7 916.8,254.7 
		921.3,254.7 925.7,254.7 930.1,254.7 934.5,254.7 939,254.7 943.4,254.7 947.8,254.7 952.3,254.7 956.7,254.7 961.1,254.7 
		965.6,254.7 970,254.7 974.4,254.7 978.8,254.7 983.3,254.7 987.7,254.7 992.1,254.7 996.6,254.7 1001,254.7 1005.4,254.7 
		1009.8,254.7 1014.3,254.7 1018.7,254.7 1023.1,254.7 1027.6,254.7 1032,254.7 1036.4,254.7 1040.8,254.7 1045.3,254.7 
		1049.7,254.7 1054.1,254.7 1058.6,254.7 1063,254.7 1067.4,254.7 1071.9,254.7 1076.3,254.7 1080.7,254.7 1085.1,254.7 
		1089.6,254.7 1094,254.7 1098.4,254.7 1102.9,254.7 1107.3,254.7 1111.7,254.7 1116.1,254.7 1120.6,254.7 1125,254.7 1129.4,254.7 
		1133.9,254.7 1133.9,250.2 1133.9,245.8 1133.9,241.4 1133.9,237 1133.9,232.5 1133.9,228.1 1133.9,223.7 1133.9,219.2 
		1133.9,214.8 1133.9,210.4 1133.9,206 1133.9,201.5 1133.9,197.1 1133.9,192.7 1133.9,188.2 1133.9,183.8 1133.9,179.4 1133.9,175 
		1133.9,170.5 1133.9,166.1 1133.9,161.7 1133.9,157.2 1133.9,152.8 1133.9,148.4 1133.9,143.9 1133.9,139.5 1133.9,135.1 
		1133.9,130.7 1133.9,126.2 1133.9,121.8 1133.9,117.4 1133.9,112.9 1133.9,108.5 1133.9,104.1 1133.9,99.7 1133.9,95.2 
		1133.9,90.8 1133.9,86.4 1133.9,81.9 1133.9,77.5 1133.9,73.1 1133.9,68.7 1133.9,64.2 1133.9,59.8 1133.9,55.4 1133.9,50.9 
		1133.9,46.5 1133.9,42.1 1133.9,37.6 1133.9,33.2 1133.9,28.8 	"/>
	<polygon points="558.1,143.9 553.6,143.9 549.2,143.9 544.8,143.9 540.4,143.9 535.9,143.9 531.5,143.9 527.1,143.9 522.6,143.9 
		518.2,143.9 513.8,143.9 509.4,143.9 504.9,143.9 500.5,143.9 496.1,143.9 491.6,143.9 487.2,143.9 482.8,143.9 478.3,143.9 
		473.9,143.9 469.5,143.9 465.1,143.9 460.6,143.9 456.2,143.9 451.8,143.9 451.8,139.5 451.8,135.1 451.8,130.7 451.8,126.2 
		451.8,121.8 451.8,117.4 451.8,112.9 451.8,108.5 451.8,104.1 451.8,99.7 451.8,95.2 451.8,90.8 451.8,86.4 451.8,81.9 451.8,77.5 
		451.8,73.1 451.8,68.7 451.8,64.2 451.8,59.8 451.8,55.4 451.8,50.9 451.8,46.5 451.8,42.1 451.8,37.6 451.8,33.2 451.8,28.8 
		447.3,28.8 442.9,28.8 438.5,28.8 434.1,28.8 429.6,28.8 425.2,28.8 420.8,28.8 416.3,28.8 411.9,28.8 407.5,28.8 403.1,28.8 
		398.6,28.8 394.2,28.8 389.8,28.8 385.3,28.8 380.9,28.8 376.5,28.8 372,28.8 367.6,28.8 363.2,28.8 358.8,28.8 354.3,28.8 
		349.9,28.8 345.5,28.8 341,28.8 341,33.2 341,37.6 341,42.1 341,46.5 341,50.9 341,55.4 341,59.8 341,64.2 341,68.7 341,73.1 
		341,77.5 341,81.9 341,86.4 341,90.8 341,95.2 341,99.7 341,104.1 341,108.5 341,112.9 341,117.4 341,121.8 341,126.2 341,130.7 
		341,135.1 341,139.5 341,143.9 341,148.4 341,152.8 341,157.2 341,161.7 341,166.1 341,170.5 341,175 341,179.4 341,183.8 
		341,188.2 341,192.7 341,197.1 341,201.5 341,206 341,210.4 341,214.8 341,219.2 341,223.7 341,228.1 341,232.5 341,237 341,241.4 
		341,245.8 341,250.2 341,254.7 345.5,254.7 349.9,254.7 354.3,254.7 358.8,254.7 363.2,254.7 367.6,254.7 372,254.7 376.5,254.7 
		380.9,254.7 385.3,254.7 389.8,254.7 394.2,254.7 398.6,254.7 403.1,254.7 407.5,254.7 411.9,254.7 416.3,254.7 420.8,254.7 
		425.2,254.7 429.6,254.7 434.1,254.7 438.5,254.7 442.9,254.7 447.3,254.7 451.8,254.7 456.2,254.7 460.6,254.7 465.1,254.7 
		469.5,254.7 473.9,254.7 478.3,254.7 482.8,254.7 487.2,254.7 491.6,254.7 496.1,254.7 500.5,254.7 504.9,254.7 509.4,254.7 
		513.8,254.7 518.2,254.7 522.6,254.7 527.1,254.7 531.5,254.7 535.9,254.7 540.4,254.7 544.8,254.7 549.2,254.7 553.6,254.7 
		558.1,254.7 562.5,254.7 566.9,254.7 566.9,250.2 566.9,245.8 566.9,241.4 566.9,237 566.9,232.5 566.9,228.1 566.9,223.7 
		566.9,219.2 566.9,214.8 566.9,210.4 566.9,206 566.9,201.5 566.9,197.1 566.9,192.7 566.9,188.2 566.9,183.8 566.9,179.4 
		566.9,175 566.9,170.5 566.9,166.1 566.9,161.7 566.9,157.2 566.9,152.8 566.9,148.4 566.9,143.9 562.5,143.9 	"/>
</g>
</svg>
