<?xml version="1.0" encoding="utf-8"?>
<!-- Generator: Adobe Illustrator 23.1.1, SVG Export Plug-In . SVG Version: 6.00 Build 0)  -->
<svg version="1.1" id="Livello_1" shape-rendering="crispEdges"
	 xmlns="http://www.w3.org/2000/svg" xmlns:xlink="http://www.w3.org/1999/xlink" x="0px" y="0px" viewBox="0 0 1133.9 1133.9"
	 style="enable-background:new 0 0 1133.9 1133.9;" xml:space="preserve">
<path d="M1124.4,302.4h-9.4h-9.4h-9.4h-9.4h-9.4h-9.4h-9.4h-9.4h-9.4h-9.4h-9.4h-9.4h-9.4h-9.4h-9.4h-9.4h-9.4h-9.4h-9.4h-9.4H926
	h-9.4h-9.4h-9.4h-9.4h-9.4h-9.4h-9.4h-9.4h-9.4h-9.4H822h-9.4h-9.4h-9.4h-9.4h-9.4h-9.4h-9.4h-9.4H737h-9.4h-9.4h-9.4h-9.4h-9.4
	h-9.4h-9.4h-9.4H652h-9.4h-9.4h-9.4h-9.4h-9.4v9.4v9.4v9.4v9.4v9.4v9.4v9.4v9.4h-9.4h-9.4h-9.4h-9.4h-9.4H548h-9.4h-9.4v-9.4v-9.4
	v-9.4v-9.4v-9.4v-9.4v-9.4v-9.4h-9.4h-9.4h-9.4h-9.4h-9.4h-9.4H463h-9.4h-9.4h-9.4h-9.4h-9.4h-9.4h-9.4h-9.4H378h-9.4h-9.4h-9.4
	h-9.4h-9.4h-9.4h-9.4h-9.4h-9.4h-9.4H274h-9.4h-9.4h-9.4h-9.4h-9.4h-9.4h-9.4h-9.4H189h-9.4h-9.4h-9.4h-9.4h-9.4h-9.4h-9.4h-9.4
	h-9.4h-9.4H85h-9.4h-9.4h-9.4h-9.4h-9.4h-9.4h-9.4H9.4H0v9.4v9.4v9.4v9.4v9.4v9.4v9.4v9.4v9.4v9.4v9.4v9.4v9.4v9.4v9.4v9.4h9.4h9.4
	h9.4h9.4h9.4h9.4h9.4h9.4v-9.4v-9.4v-9.4v-9.4v-9.4v-9.4v-9.4V378H85h9.4h9.4h9.4h9.4h9.4h9.4h9.4v9.4v9.4v9.4v9.4v9.4v9.4v9.4v9.4
	v9.4v9.4v9.4v9.4v9.4v9.4v9.4v9.4v9.4v9.4v9.4v9.4v9.4v9.4v9.4v9.4h9.4h9.4h9.4h9.4h9.4h9.4h9.4h9.4v-9.4v-9.4v-9.4v-9.4v-9.4V548
	v-9.4v-9.4v-9.4v-9.4v-9.4v-9.4v-9.4v-9.4V463v-9.4v-9.4v-9.4v-9.4v-9.4v-9.4v-9.4v-9.4V378h9.4h9.4h9.4h9.4h9.4h9.4h9.4h9.4h9.4
	h9.4h9.4h9.4h9.4h9.4h9.4h9.4h9.4h9.4h9.4h9.4h9.4h9.4h9.4h9.4v9.4v9.4v9.4v9.4v9.4v9.4v9.4v9.4h-9.4h-9.4h-9.4h-9.4h-9.4h-9.4h-9.4
	H378h-9.4h-9.4h-9.4h-9.4h-9.4h-9.4h-9.4h-9.4v9.4v9.4v9.4v9.4v9.4v9.4v9.4v9.4h9.4h9.4h9.4h9.4h9.4h9.4h9.4h9.4h9.4h9.4h9.4h9.4
	h9.4h9.4h9.4h9.4v9.4v9.4v9.4v9.4v9.4v9.4v9.4v9.4h-9.4h-9.4h-9.4h-9.4h-9.4h-9.4h-9.4H378h-9.4h-9.4h-9.4h-9.4h-9.4h-9.4h-9.4h-9.4
	v9.4v9.4v9.4v9.4v9.4v9.4v9.4v9.4h9.4h9.4h9.4h9.4h9.4h9.4h9.4h9.4h9.4h9.4h9.4h9.4h9.4h9.4h9.4h9.4v9.4v9.4v9.4v9.4v9.4v9.4v9.4
	v9.4h-9.4h-9.4h-9.4h-9.4h-9.4h-9.4h-9.4H378v9.4v9.4v9.4v9.4v9.4v9.4v9.4v9.4h9.4h9.4h9.4h9.4h9.4h9.4h9.4h9.4h9.4h9.4h9.4h9.4h9.4
	h9.4h9.4h9.4V822v-9.4v-9.4v-9.4v-9.4v-9.4v-9.4v-9.4v-9.4V737v-9.4v-9.4v-9.4v-9.4v-9.4v-9.4v-9.4v-9.4V652v-9.4v-9.4v-9.4v-9.4
	v-9.4v-9.4v-9.4v-9.4v-9.4v-9.4V548v-9.4v-9.4v-9.4v-9.4v-9.4v-9.4v-9.4v-9.4V463v-9.4h9.4h9.4h9.4h9.4h9.4h9.4h9.4h9.4v9.4v9.4v9.4
	v9.4v9.4v9.4v9.4v9.4v9.4v9.4v9.4v9.4v9.4v9.4v9.4v9.4v9.4v9.4v9.4v9.4v9.4v9.4v9.4v9.4v9.4v9.4v9.4v9.4v9.4v9.4v9.4v9.4v9.4v9.4
	v9.4v9.4v9.4v9.4v9.4v9.4h9.4h9.4h9.4h9.4h9.4h9.4h9.4h9.4h9.4h9.4h9.4h9.4h9.4h9.4h9.4h9.4V822v-9.4v-9.4v-9.4v-9.4v-9.4v-9.4v-9.4
	h-9.4H737h-9.4h-9.4h-9.4h-9.4h-9.4h-9.4v-9.4V737v-9.4v-9.4v-9.4v-9.4v-9.4v-9.4v-9.4v-9.4V652v-9.4v-9.4v-9.4v-9.4v-9.4v-9.4v-9.4
	v-9.4v-9.4v-9.4V548v-9.4v-9.4h9.4h9.4h9.4h9.4h9.4h9.4h9.4h9.4h9.4h9.4h9.4h9.4h9.4h9.4h9.4h9.4h9.4h9.4h9.4h9.4h9.4h9.4h9.4h9.4
	v9.4v9.4v9.4v9.4v9.4v9.4v9.4v9.4h9.4h9.4h9.4h9.4h9.4h9.4h9.4h9.4v-9.4v-9.4v-9.4v-9.4v-9.4V548v-9.4v-9.4v-9.4v-9.4v-9.4v-9.4
	v-9.4v-9.4V463v-9.4v-9.4v-9.4v-9.4v-9.4v-9.4v-9.4v-9.4V378h9.4h9.4h9.4h9.4h9.4h9.4h9.4h9.4v9.4v9.4v9.4v9.4v9.4v9.4v9.4v9.4h9.4
	h9.4h9.4h9.4h9.4h9.4h9.4h9.4v-9.4v-9.4v-9.4v-9.4v-9.4v-9.4v-9.4V378v-9.4v-9.4v-9.4v-9.4v-9.4v-9.4v-9.4v-9.4H1124.4z
	 M907.1,387.4v9.4v9.4v9.4v9.4v9.4v9.4v9.4h-9.4h-9.4h-9.4h-9.4h-9.4h-9.4h-9.4h-9.4H822h-9.4h-9.4h-9.4h-9.4h-9.4h-9.4h-9.4h-9.4
	H737h-9.4h-9.4h-9.4h-9.4h-9.4h-9.4v-9.4v-9.4v-9.4v-9.4v-9.4v-9.4v-9.4V378h9.4h9.4h9.4h9.4h9.4h9.4h9.4h9.4h9.4h9.4h9.4h9.4h9.4
	h9.4h9.4h9.4h9.4h9.4h9.4h9.4h9.4h9.4h9.4h9.4V387.4z"/>
</svg>
