<?xml version="1.0" encoding="utf-8"?>
<!-- Generator: Adobe Illustrator 23.1.1, SVG Export Plug-In . SVG Version: 6.00 Build 0)  -->
<svg version="1.1" id="Livello_1" shape-rendering="crispEdges"
	 xmlns="http://www.w3.org/2000/svg" xmlns:xlink="http://www.w3.org/1999/xlink" x="0px" y="0px" viewBox="0 0 1133.9 283.5"
	 style="enable-background:new 0 0 1133.9 283.5;" xml:space="preserve">
<g>
	<polygon points="252.5,0 248,0 243.6,0 239.2,0 234.7,0 230.3,0 225.9,0 221.5,0 217,0 212.6,0 208.2,0 203.7,0 199.3,0 194.9,0 
		190.5,0 186,0 181.6,0 177.2,0 172.7,0 168.3,0 163.9,0 159.4,0 155,0 150.6,0 146.2,0 141.7,0 137.3,0 132.9,0 128.4,0 124,0 
		119.6,0 115.2,0 110.7,0 106.3,0 101.9,0 97.4,0 93,0 88.6,0 84.2,0 79.7,0 75.3,0 70.9,0 66.4,0 62,0 57.6,0 53.1,0 48.7,0 
		44.3,0 39.9,0 35.4,0 31,0 26.6,0 22.1,0 17.7,0 13.3,0 8.9,0 4.4,0 0,0 0,4.4 0,8.9 0,13.3 0,17.7 0,22.1 0,26.6 0,31 0,35.4 
		0,39.9 0,44.3 0,48.7 0,53.1 0,57.6 0,62 0,66.4 0,70.9 0,75.3 0,79.7 0,84.2 0,88.6 0,93 0,97.4 0,101.9 0,106.3 0,110.7 0,115.2 
		0,119.6 0,124 0,128.4 0,132.9 0,137.3 0,141.7 0,146.2 0,150.6 0,155 0,159.4 0,163.9 0,168.3 0,172.7 0,177.2 0,181.6 0,186 
		0,190.5 0,194.9 0,199.3 0,203.7 0,208.2 0,212.6 0,217 0,221.5 0,225.9 0,230.3 0,234.7 0,239.2 0,243.6 0,248 0,252.5 0,256.9 
		0,261.3 0,265.7 0,270.2 0,274.6 0,279 0,283.5 4.4,283.5 8.9,283.5 13.3,283.5 17.7,283.5 22.1,283.5 26.6,283.5 31,283.5 
		35.4,283.5 39.9,283.5 44.3,283.5 48.7,283.5 53.1,283.5 57.6,283.5 62,283.5 66.4,283.5 70.9,283.5 75.3,283.5 79.7,283.5 
		84.2,283.5 88.6,283.5 93,283.5 97.4,283.5 101.9,283.5 106.3,283.5 110.7,283.5 115.2,283.5 119.6,283.5 124,283.5 128.4,283.5 
		132.9,283.5 137.3,283.5 141.7,283.5 146.2,283.5 150.6,283.5 155,283.5 159.4,283.5 163.9,283.5 168.3,283.5 172.7,283.5 
		177.2,283.5 181.6,283.5 186,283.5 190.5,283.5 194.9,283.5 199.3,283.5 203.7,283.5 208.2,283.5 212.6,283.5 217,283.5 
		221.5,283.5 225.9,283.5 230.3,283.5 234.7,283.5 239.2,283.5 243.6,283.5 248,283.5 252.5,283.5 256.9,283.5 261.3,283.5 
		261.3,279 261.3,274.6 261.3,270.2 261.3,265.7 261.3,261.3 261.3,256.9 261.3,252.5 261.3,248 261.3,243.6 261.3,239.2 
		261.3,234.7 261.3,230.3 261.3,225.9 261.3,221.5 261.3,217 261.3,212.6 261.3,208.2 261.3,203.7 261.3,199.3 261.3,194.9 
		261.3,190.5 261.3,186 261.3,181.6 261.3,177.2 261.3,172.7 261.3,168.3 261.3,163.9 261.3,159.4 261.3,155 261.3,150.6 
		261.3,146.2 261.3,141.7 261.3,137.3 261.3,132.9 261.3,128.4 261.3,124 261.3,119.6 261.3,115.2 261.3,110.7 261.3,106.3 
		261.3,101.9 261.3,97.4 261.3,93 261.3,88.6 261.3,84.2 261.3,79.7 261.3,75.3 261.3,70.9 261.3,66.4 261.3,62 261.3,57.6 
		261.3,53.1 261.3,48.7 261.3,44.3 261.3,39.9 261.3,35.4 261.3,31 261.3,26.6 261.3,22.1 261.3,17.7 261.3,13.3 261.3,8.9 
		261.3,4.4 261.3,0 256.9,0 	"/>
	<polygon points="597.9,0 593.5,0 589.1,0 584.6,0 580.2,0 575.8,0 571.4,0 566.9,0 562.5,0 558.1,0 553.6,0 549.2,0 544.8,0 
		540.4,0 535.9,0 531.5,0 527.1,0 522.6,0 518.2,0 513.8,0 509.4,0 504.9,0 500.5,0 496.1,0 491.6,0 487.2,0 482.8,0 478.3,0 
		473.9,0 469.5,0 465.1,0 460.6,0 456.2,0 451.8,0 447.3,0 442.9,0 438.5,0 434.1,0 429.6,0 425.2,0 420.8,0 416.3,0 411.9,0 
		407.5,0 403.1,0 398.6,0 394.2,0 389.8,0 385.3,0 380.9,0 376.5,0 372,0 367.6,0 363.2,0 358.8,0 354.3,0 349.9,0 345.5,0 
		345.5,4.4 345.5,8.9 345.5,13.3 345.5,17.7 345.5,22.1 345.5,26.6 345.5,31 345.5,35.4 345.5,39.9 345.5,44.3 345.5,48.7 
		345.5,53.1 345.5,57.6 345.5,62 345.5,66.4 345.5,70.9 345.5,75.3 345.5,79.7 345.5,84.2 345.5,88.6 345.5,93 349.9,93 354.3,93 
		358.8,93 363.2,93 367.6,93 372,93 376.5,93 380.9,93 385.3,93 389.8,93 394.2,93 398.6,93 403.1,93 407.5,93 411.9,93 416.3,93 
		420.8,93 425.2,93 429.6,93 434.1,93 438.5,93 442.9,93 447.3,93 451.8,93 456.2,93 460.6,93 465.1,93 469.5,93 473.9,93 478.3,93 
		482.8,93 487.2,93 491.6,93 496.1,93 500.5,93 504.9,93 509.4,93 513.8,93 518.2,93 522.6,93 527.1,93 531.5,93 535.9,93 540.4,93 
		544.8,93 549.2,93 553.6,93 558.1,93 562.5,93 566.9,93 571.4,93 575.8,93 580.2,93 584.6,93 589.1,93 593.5,93 597.9,93 602.4,93 
		606.8,93 606.8,88.6 606.8,84.2 606.8,79.7 606.8,75.3 606.8,70.9 606.8,66.4 606.8,62 606.8,57.6 606.8,53.1 606.8,48.7 
		606.8,44.3 606.8,39.9 606.8,35.4 606.8,31 606.8,26.6 606.8,22.1 606.8,17.7 606.8,13.3 606.8,8.9 606.8,4.4 606.8,0 602.4,0 	"/>
	<polygon points="1129.4,0 1125,0 1120.6,0 1116.1,0 1111.7,0 1107.3,0 1102.9,0 1098.4,0 1094,0 1089.6,0 1085.1,0 1080.7,0 
		1076.3,0 1071.9,0 1067.4,0 1063,0 1058.6,0 1054.1,0 1049.7,0 1045.3,0 1040.8,0 1036.4,0 1032,0 1027.6,0 1023.1,0 1018.7,0 
		1014.3,0 1009.8,0 1005.4,0 1001,0 996.6,0 992.1,0 987.7,0 983.3,0 978.8,0 974.4,0 970,0 965.6,0 961.1,0 956.7,0 952.3,0 
		947.8,0 943.4,0 939,0 934.5,0 930.1,0 925.7,0 921.3,0 916.8,0 912.4,0 908,0 903.5,0 899.1,0 894.7,0 890.3,0 885.8,0 881.4,0 
		877,0 872.5,0 868.1,0 863.7,0 859.3,0 854.8,0 850.4,0 846,0 841.5,0 837.1,0 832.7,0 828.2,0 823.8,0 819.4,0 815,0 810.5,0 
		806.1,0 801.7,0 797.2,0 792.8,0 788.4,0 784,0 779.5,0 775.1,0 770.7,0 766.2,0 761.8,0 757.4,0 753,0 748.5,0 744.1,0 739.7,0 
		735.2,0 730.8,0 726.4,0 721.9,0 717.5,0 713.1,0 708.7,0 704.2,0 699.8,0 695.4,0 695.4,4.4 695.4,8.9 695.4,13.3 695.4,17.7 
		695.4,22.1 695.4,26.6 695.4,31 695.4,35.4 695.4,39.9 695.4,44.3 695.4,48.7 695.4,53.1 695.4,57.6 695.4,62 695.4,66.4 
		695.4,70.9 695.4,75.3 695.4,79.7 695.4,84.2 695.4,88.6 695.4,93 695.4,97.4 695.4,101.9 695.4,106.3 695.4,110.7 695.4,115.2 
		695.4,119.6 695.4,124 695.4,128.4 695.4,132.9 695.4,137.3 695.4,141.7 695.4,146.2 695.4,150.6 695.4,155 695.4,159.4 
		695.4,163.9 695.4,168.3 695.4,172.7 695.4,177.2 695.4,181.6 695.4,186 695.4,190.5 695.4,194.9 695.4,199.3 695.4,203.7 
		695.4,208.2 695.4,212.6 695.4,217 695.4,221.5 695.4,225.9 695.4,230.3 695.4,234.7 695.4,239.2 695.4,243.6 695.4,248 
		695.4,252.5 695.4,256.9 695.4,261.3 695.4,265.7 695.4,270.2 695.4,274.6 695.4,279 695.4,283.5 699.8,283.5 704.2,283.5 
		708.7,283.5 713.1,283.5 717.5,283.5 721.9,283.5 726.4,283.5 730.8,283.5 735.2,283.5 739.7,283.5 744.1,283.5 748.5,283.5 
		753,283.5 757.4,283.5 761.8,283.5 766.2,283.5 770.7,283.5 775.1,283.5 779.5,283.5 784,283.5 784,279 784,274.6 784,270.2 
		784,265.7 784,261.3 784,256.9 784,252.5 784,248 784,243.6 784,239.2 784,234.7 784,230.3 784,225.9 784,221.5 784,217 784,212.6 
		784,208.2 784,203.7 784,199.3 784,194.9 784,190.5 784,186 784,181.6 784,177.2 784,172.7 784,168.3 784,163.9 784,159.4 784,155 
		784,150.6 784,146.2 784,141.7 784,137.3 784,132.9 784,128.4 784,124 784,119.6 784,115.2 784,110.7 784,106.3 784,101.9 
		784,97.4 784,93 788.4,93 792.8,93 797.2,93 801.7,93 806.1,93 810.5,93 815,93 819.4,93 823.8,93 828.2,93 832.7,93 837.1,93 
		841.5,93 846,93 850.4,93 854.8,93 859.3,93 863.7,93 868.1,93 868.1,97.4 868.1,101.9 868.1,106.3 868.1,110.7 868.1,115.2 
		868.1,119.6 868.1,124 868.1,128.4 868.1,132.9 868.1,137.3 868.1,141.7 868.1,146.2 868.1,150.6 868.1,155 868.1,159.4 
		868.1,163.9 868.1,168.3 868.1,172.7 868.1,177.2 868.1,181.6 868.1,186 868.1,190.5 868.1,194.9 868.1,199.3 868.1,203.7 
		868.1,208.2 868.1,212.6 868.1,217 868.1,221.5 868.1,225.9 868.1,230.3 868.1,234.7 868.1,239.2 868.1,243.6 868.1,248 
		868.1,252.5 868.1,256.9 868.1,261.3 868.1,265.7 868.1,270.2 868.1,274.6 868.1,279 868.1,283.5 872.5,283.5 877,283.5 
		881.4,283.5 885.8,283.5 890.3,283.5 894.7,283.5 899.1,283.5 903.5,283.5 908,283.5 912.4,283.5 916.8,283.5 921.3,283.5 
		925.7,283.5 930.1,283.5 934.5,283.5 939,283.5 943.4,283.5 947.8,283.5 952.3,283.5 956.7,283.5 956.7,279 956.7,274.6 
		956.7,270.2 956.7,265.7 956.7,261.3 956.7,256.9 956.7,252.5 956.7,248 956.7,243.6 956.7,239.2 956.7,234.7 956.7,230.3 
		956.7,225.9 956.7,221.5 956.7,217 956.7,212.6 956.7,208.2 956.7,203.7 956.7,199.3 956.7,194.9 956.7,190.5 956.7,186 
		956.7,181.6 956.7,177.2 956.7,172.7 956.7,168.3 956.7,163.9 956.7,159.4 956.7,155 956.7,150.6 956.7,146.2 956.7,141.7 
		956.7,137.3 956.7,132.9 956.7,128.4 956.7,124 956.7,119.6 956.7,115.2 956.7,110.7 956.7,106.3 956.7,101.9 956.7,97.4 956.7,93 
		961.1,93 965.6,93 970,93 974.4,93 978.8,93 983.3,93 987.7,93 992.1,93 996.6,93 1001,93 1005.4,93 1009.8,93 1014.3,93 
		1018.7,93 1023.1,93 1027.6,93 1032,93 1036.4,93 1040.8,93 1045.3,93 1045.3,97.4 1045.3,101.9 1045.3,106.3 1045.3,110.7 
		1045.3,115.2 1045.3,119.6 1045.3,124 1045.3,128.4 1045.3,132.9 1045.3,137.3 1045.3,141.7 1045.3,146.2 1045.3,150.6 1045.3,155 
		1045.3,159.4 1045.3,163.9 1045.3,168.3 1045.3,172.7 1045.3,177.2 1045.3,181.6 1045.3,186 1045.3,190.5 1045.3,194.9 
		1045.3,199.3 1045.3,203.7 1045.3,208.2 1045.3,212.6 1045.3,217 1045.3,221.5 1045.3,225.9 1045.3,230.3 1045.3,234.7 
		1045.3,239.2 1045.3,243.6 1045.3,248 1045.3,252.5 1045.3,256.9 1045.3,261.3 1045.3,265.7 1045.3,270.2 1045.3,274.6 1045.3,279 
		1045.3,283.5 1049.7,283.5 1054.1,283.5 1058.6,283.5 1063,283.5 1067.4,283.5 1071.9,283.5 1076.3,283.5 1080.7,283.5 
		1085.1,283.5 1089.6,283.5 1094,283.5 1098.4,283.5 1102.9,283.5 1107.3,283.5 1111.7,283.5 1116.1,283.5 1120.6,283.5 1125,283.5 
		1129.4,283.5 1133.9,283.5 1133.9,279 1133.9,274.6 1133.9,270.2 1133.9,265.7 1133.9,261.3 1133.9,256.9 1133.9,252.5 1133.9,248 
		1133.9,243.6 1133.9,239.2 1133.9,234.7 1133.9,230.3 1133.9,225.9 1133.9,221.5 1133.9,217 1133.9,212.6 1133.9,208.2 
		1133.9,203.7 1133.9,199.3 1133.9,194.9 1133.9,190.5 1133.9,186 1133.9,181.6 1133.9,177.2 1133.9,172.7 1133.9,168.3 
		1133.9,163.9 1133.9,159.4 1133.9,155 1133.9,150.6 1133.9,146.2 1133.9,141.7 1133.9,137.3 1133.9,132.9 1133.9,128.4 1133.9,124 
		1133.9,119.6 1133.9,115.2 1133.9,110.7 1133.9,106.3 1133.9,101.9 1133.9,97.4 1133.9,93 1133.9,88.6 1133.9,84.2 1133.9,79.7 
		1133.9,75.3 1133.9,70.9 1133.9,66.4 1133.9,62 1133.9,57.6 1133.9,53.1 1133.9,48.7 1133.9,44.3 1133.9,39.9 1133.9,35.4 
		1133.9,31 1133.9,26.6 1133.9,22.1 1133.9,17.7 1133.9,13.3 1133.9,8.9 1133.9,4.4 1133.9,0 	"/>
	<polygon points="597.9,190.5 593.5,190.5 589.1,190.5 584.6,190.5 580.2,190.5 575.8,190.5 571.4,190.5 566.9,190.5 562.5,190.5 
		558.1,190.5 553.6,190.5 549.2,190.5 544.8,190.5 540.4,190.5 535.9,190.5 531.5,190.5 527.1,190.5 522.6,190.5 518.2,190.5 
		513.8,190.5 509.4,190.5 504.9,190.5 500.5,190.5 496.1,190.5 491.6,190.5 487.2,190.5 482.8,190.5 478.3,190.5 473.9,190.5 
		469.5,190.5 465.1,190.5 460.6,190.5 456.2,190.5 451.8,190.5 447.3,190.5 442.9,190.5 438.5,190.5 434.1,190.5 429.6,190.5 
		425.2,190.5 420.8,190.5 416.3,190.5 411.9,190.5 407.5,190.5 403.1,190.5 398.6,190.5 394.2,190.5 389.8,190.5 385.3,190.5 
		380.9,190.5 376.5,190.5 372,190.5 367.6,190.5 363.2,190.5 358.8,190.5 354.3,190.5 349.9,190.5 345.5,190.5 345.5,194.9 
		345.5,199.3 345.5,203.7 345.5,208.2 345.5,212.6 345.5,217 345.5,221.5 345.5,225.9 345.5,230.3 345.5,234.7 345.5,239.2 
		345.5,243.6 345.5,248 345.5,252.5 345.5,256.9 345.5,261.3 345.5,265.7 345.5,270.2 345.5,274.6 345.5,279 345.5,283.5 
		349.9,283.5 354.3,283.5 358.8,283.5 363.2,283.5 367.6,283.5 372,283.5 376.5,283.5 380.9,283.5 385.3,283.5 389.8,283.5 
		394.2,283.5 398.6,283.5 403.1,283.5 407.5,283.5 411.9,283.5 416.3,283.5 420.8,283.5 425.2,283.5 429.6,283.5 434.1,283.5 
		438.5,283.5 442.9,283.5 447.3,283.5 451.8,283.5 456.2,283.5 460.6,283.5 465.1,283.5 469.5,283.5 473.9,283.5 478.3,283.5 
		482.8,283.5 487.2,283.5 491.6,283.5 496.1,283.5 500.5,283.5 504.9,283.5 509.4,283.5 513.8,283.5 518.2,283.5 522.6,283.5 
		527.1,283.5 531.5,283.5 535.9,283.5 540.4,283.5 544.8,283.5 549.2,283.5 553.6,283.5 558.1,283.5 562.5,283.5 566.9,283.5 
		571.4,283.5 575.8,283.5 580.2,283.5 584.6,283.5 589.1,283.5 593.5,283.5 597.9,283.5 602.4,283.5 606.8,283.5 606.8,279 
		606.8,274.6 606.8,270.2 606.8,265.7 606.8,261.3 606.8,256.9 606.8,252.5 606.8,248 606.8,243.6 606.8,239.2 606.8,234.7 
		606.8,230.3 606.8,225.9 606.8,221.5 606.8,217 606.8,212.6 606.8,208.2 606.8,203.7 606.8,199.3 606.8,194.9 606.8,190.5 
		602.4,190.5 	"/>
</g>
</svg>
