<svg xmlns="http://www.w3.org/2000/svg" xml:space="preserve" stroke-linecap="round" stroke-linejoin="round"
    stroke-miterlimit="10" clip-rule="evenodd" viewBox="0 0 512 128">
    <g fill="currentColor">
        <path
            d="M45.07 121.74c-2.59-3.99-3.19-10.77-3.19-37.88v-32.9H29.92c-10.17 0-12.16-.6-14.15-4.38a84.87 84.87 0 0 0-6.98-10.17c-6.38-7.57-6.98-27.9-1-31.3 2.6-1.2 46.45-2 128.59-2h124.4l2.6 7.39c2.39 7.57 1 38.07-2 41.06-.8.8-39.27 1.2-85.53 1l-84.13-.6-.4 30.9-.6 30.7-6.97 2c-3.79 1-9.77 3.99-13.36 6.58-8.77 6.38-20.93 6.38-25.32-.4Z" />
        <path
            d="M168.48 123.33c-10.17-.6-14.56-1.59-16.35-3.98-3.19-4.19-3.59-40.67-.6-43.66 1.4-1.4 24.13-1.8 66.79-1.2l64.8 1v-34.1c0-30.5.39-34.28 3.58-35.88 1.8-1 11.36-2.4 21.13-3.19 24.92-1.8 25.12-1.6 25.12 29.1 0 12.97.4 23.53.8 23.53 1 0 66.99-34.49 87.12-45.45 11.76-6.58 17.15-8.37 24.52-8.37 5.19 0 10.57 1.2 11.77 2.59 7.97 8.37 13.95 18.74 14.95 25.91 1 7.78 14.55 31.9 30.7 54.03 5.78 7.98 7.18 16.55 3.59 23.33-3.99 7.17-21.93 15.75-32.9 15.75-11.36-.2-9.17 2.19-30.9-31.9-7.97-12.56-14.75-23.33-15.15-23.73-.6-.6-12.96 5.59-69.58 34.7-11.96 6.17-23.32 12.35-24.92 13.95-1.8 1.6-4.38 2.99-5.78 2.99-1.4 0-3.79 1.4-5.38 2.99-2.6 2.6-12.96 2.99-71.18 2.6-37.48-.2-74.36-.6-82.13-1Z" />
    </g>
</svg>