<svg xmlns="http://www.w3.org/2000/svg" xml:space="preserve" viewBox="0 0 512 128"><g stroke="null"><path d="M289.2995 85.096c10.8352-6.7622 19.7724-11.4285 25.8227-22.2638 14.9875-26.8905 40.2567-39.8612 70.5085-43.8552 3.5985-.4746 7.988-1.3841 9.4116 4.2708.7514 2.9263 4.1127 1.7795 6.3668 2.254 20.0096 3.9941 29.7772 16.3716 27.6813 36.5395-.7118 6.7622 3.6777 5.0617 6.6831 5.1013 6.169.079 9.9258 1.74 9.4908 8.779-.2768 4.6662-1.74 7.4343-6.8808 7.4343-4.2709 0-8.5022.1187-12.773.2373-7.3949.1977-13.287 7.7508-12.259 15.6598.7119 5.5758-7.197 12.4566-11.7052 9.372-4.3104-2.9658-6.4458-.8699-9.5303.87-21.8287 12.338-44.053 14.7503-66.7912 2.4123-5.734-3.0845-10.9144-7.0785-13.3266-13.1289-2.1354-5.3385-4.6268-5.4176-8.5417-2.3727-4.943 3.8359-11.468 5.8527-14.2361 12.2194-1.1864 2.689-3.7172 2.689-6.2086 2.8077-31.3195 1.5027-62.5994 3.915-93.9585 3.7567-12.6148-.0395-14.3943-1.5027-13.4848-14.2757.87-12.6543.5932-25.2691 1.0677-37.8839.1978-5.5758-1.6608-7.2367-7.2762-7.0785a863.8271 863.8271 0 0 1-42.9457 0c-5.5758-.1582-7.3553 1.4631-7.3158 7.0785.0791 14.1175-.6722 28.2746-.7909 42.4316-.0395 5.5363-2.0168 8.2253-7.988 8.344-5.9713.1186-8.0276-2.4518-8.265-8.0276-.593-14.157-.3558-28.2746.5537-42.3921.3164-5.1408-.7909-7.553-6.8808-7.3949-7.553.1582-15.1456-1.305-22.7383-1.6609-5.5362-.2372-6.2876-3.4799-6.2876-7.8694s.9095-7.4344 6.248-8.1462c7.9882-1.0282 15.7785 1.1468 23.6874 1.0282 46.8211-.6328 93.7213 1.2654 140.5028-2.4518 6.604-.5141 12.4962-.0791 11.7053 9.0953-.356 4.3104-1.8982 6.3667-6.525 6.8808-13.9197 1.5027-27.8 3.8358-41.7988 3.0845-9.0162-.4745-6.5644 5.299-7.0785 9.9653-.6327 6.0899 2.7681 5.813 7.3158 5.4572 6.6435-.4746 13.4057.0395 20.0888-.2768 5.734-.2768 7.3948 2.7681 7.7507 7.6717.3955 5.0617-1.305 7.7508-6.8017 8.5021-7.3158 1.0282-14.592.9886-21.8683.6327-4.5476-.2372-6.5249 1.1864-6.8412 5.9318-.3955 5.8526 3.5986 4.5476 6.604 4.4685 22.501-.7513 45.002-1.819 67.5425-2.4122 4.7059-.1186 4.3104-2.5309 4.6268-5.6945 1.6213-15.3038.6723-30.6472.5536-45.9906-.0395-5.6945 1.0677-9.8071 7.474-9.8862 6.4853-.1186 9.9257 2.7286 9.649 9.9653-.5537 13.0893-.2373 26.2182-.2373 40.8102zm66.3166 28.2745c11.0726-.435 20.8006-2.8077 29.54-7.988 3.4404-2.0169 10.163-2.5705 7.553-9.0954-2.4517-6.0899-4.0335-13.287-13.6033-13.0893-16.9648.3559-33.9295.6327-50.9338-.87-4.7454-.3955-9.4907 3.4008-11.8634 7.3553-1.819 3.0845 1.6213 6.7622 3.9545 9.3721 9.6093 10.7167 22.5405 13.5244 35.353 14.3153zm25.8624-80.276c6.6435 4.864 1.305 10.3607 1.74 15.3038.5931 6.5645 5.2594 15.0666 11.7447 17.1625 7.6717 2.4518 16.767.7118 25.2296.435.7119-.0396 1.7005-2.3332 1.9773-3.6777 1.1863-6.6435 1.0677-13.0102-3.124-18.942-6.9204-9.807-23.1733-14.592-37.5676-10.2816zm-60.029 32.0708c16.6483-10.677 31.2403-20.0492 45.8324-29.4213-18.863 2.8077-34.9577 9.8467-45.8325 29.4213zm31.2403 1.1073h19.021c-3.7171-10.1235-8.423-10.163-19.021 0z"/><path d="M280.2832 28.3491c-4.6267-2.2145-11.6657-2.4913-10.163-10.163 1.0677-5.4177 2.254-11.7844 10.9144-9.8862 5.5758 1.2259 10.5585 3.2822 9.4907 9.649-.8304 5.0221-2.5308 10.9143-10.242 10.4002z"/></g></svg>