<?xml version="1.0" encoding="utf-8"?>
<!-- Generator: Adobe Illustrator 23.1.1, SVG Export Plug-In . SVG Version: 6.00 Build 0)  -->
<svg version="1.1" id="Livello_1" shape-rendering="crispEdges"
	 xmlns="http://www.w3.org/2000/svg" xmlns:xlink="http://www.w3.org/1999/xlink" x="0px" y="0px" viewBox="0 0 1133.9 1133.9"
	 style="enable-background:new 0 0 1133.9 1133.9;" xml:space="preserve">
<g>
	<path d="M1130.2,114.1h-3.6h-3.6h-3.6h-3.6h-3.6h-3.6h-3.6h-3.6h-3.6h-3.6h-3.6h-3.6h-3.6h-3.6h-3.6h-3.6h-3.6h-3.6h-3.6h-3.6h-3.6
		h-3.6h-3.6h-3.6h-3.6h-3.6h-3.6h-3.6h-3.6h-3.6h-3.6h-3.6h-3.6h-3.6h-3.6h-3.6h-3.6h-3.6H989h-3.6h-3.6h-3.6h-3.6h-3.6h-3.6h-3.6
		H960h-3.6h-3.6h-3.6h-3.6h-3.6h-3.6h-3.6H931h-3.6h-3.6h-3.6h-3.6h-3.6h-3.6h-3.6H902h-3.6h-3.6h-3.6h-3.6h-3.6h-3.6h-3.6H873h-3.6
		h-3.6h-3.6h-3.6h-3.6h-3.6h-3.6h-3.6h-3.6h-3.6h-3.6h-3.6h-3.6h-3.6h-3.6h-3.6h-3.6h-3.6h-3.6h-3.6H797h-3.6h-3.6h-3.6h-3.6h-3.6
		h-3.6h-3.6H768h-3.6h-3.6h-3.6h-3.6h-3.6h-3.6h-3.6H739h-3.6h-3.6h-3.6h-3.6h-3.6h-3.6h-3.6H710h-3.6h-3.6h-3.6h-3.6h-3.6h-3.6
		h-3.6H681h-3.6h-3.6h-3.6h-3.6h-3.6h-3.6h-3.6h-3.6h-3.6h-3.6h-3.6h-3.6h-3.6h-3.6h-3.6h-3.6h-3.6h-3.6h-3.6h-3.6H605h-3.6h-3.6
		h-3.6h-3.6h-3.6h-3.6h-3.6H576h-3.6h-3.6h-3.6h-3.6h-3.6h-3.6h-3.6H547h-3.6h-3.6h-3.6h-3.6h-3.6h-3.6h-3.6H518h-3.6h-3.6h-3.6
		h-3.6h-3.6h-3.6h-3.6H489h-3.6h-3.6h-3.6h-3.6h-3.6h-3.6h-3.6h-3.6h-3.6h-3.6h-3.6h-3.6H442h-3.6h-3.6h-3.6h-3.6h-3.6h-3.6h-3.6
		H413h-3.6h-3.6h-3.6h-3.6h-3.6h-3.6h-3.6H384h-3.6h-3.6h-3.6h-3.6h-3.6h-3.6h-3.6H355h-3.6h-3.6h-3.6h-3.6h-3.6h-3.6h-3.6H326h-3.6
		h-3.6h-3.6h-3.6h-3.6h-3.6h-3.6H297h-3.6h-3.6h-3.6h-3.6h-3.6h-3.6h-3.6h-3.6h-3.6h-3.6h-3.6h-3.6H250h-3.6h-3.6h-3.6h-3.6h-3.6
		h-3.6h-3.6H221h-3.6h-3.6h-3.6h-3.6h-3.6h-3.6h-3.6H192h-3.6h-3.6h-3.6h-3.6h-3.6h-3.6h-3.6H163h-3.6h-3.6h-3.6h-3.6h-3.6h-3.6
		h-3.6H134h-3.6h-3.6h-3.6h-3.6h-3.6h-3.6h-3.6h-3.6h-3.6h-3.6h-3.6h-3.6h-3.6h-3.6h-3.6h-3.6h-3.6h-3.6h-3.6h-3.6H58h-3.6h-3.6
		h-3.6h-3.6h-3.6h-3.6h-3.6H29h-3.6h-3.6h-3.6h-3.6h-3.6H7.2H3.6H0v3.6v3.6v3.6v3.6v3.6v3.6v3.6v3.6v3.6v3.6v3.6v3.6v3.6v3.6v3.6
		v3.6v3.6v3.6v3.6v3.6v3.6v3.6v3.6v3.6v3.6v3.6v3.6v3.6v3.6v3.6v3.6v3.6v3.6v3.6v3.6v3.6v3.6v3.6v3.6v3.6v3.6v3.6v3.6v3.6v3.6v3.6
		v3.6v3.6v3.6v3.6v3.6v3.6v3.6v3.6v3.6v3.6v3.6v3.6v3.6v3.6v3.6v3.6v3.6v3.6v3.6v3.6v3.6v3.6v3.6v3.6v3.6v3.6v3.6v3.6v3.6v3.6v3.6
		v3.6v3.6v3.6v3.6v3.6v3.6v3.6v3.6v3.6v3.6v3.6v3.6v3.6v3.6v3.6v3.6v3.6v3.6v3.6v3.6v3.6v3.6v3.6v3.6v3.6v3.6v3.6v3.6v3.6v3.6v3.6
		v3.6v3.6v3.6v3.6v3.6v3.6v3.6v3.6v3.6v3.6v3.6v3.6v3.6v3.6v3.6v3.6v3.6v3.6v3.6v3.6v3.6v3.6v3.6v3.6v3.6v3.6v3.6v3.6v3.6v3.6v3.6
		v3.6v3.6v3.6v3.6v3.6v3.6v3.6v3.6v3.6v3.6v3.6v3.6v3.6v3.6v3.6v3.6v3.6v3.6v3.6v3.6v3.6v3.6v3.6v3.6v3.6v3.6v3.6v3.6v3.6v3.6v3.6
		v3.6v3.6v3.6v3.6v3.6v3.6v3.6v3.6v3.6v3.6v3.6v3.6v3.6v3.6v3.6v3.6v3.6v3.6v3.6v3.6v3.6v3.6v3.6v3.6v3.6v3.6v3.6v3.6v3.6v3.6v3.6
		v3.6v3.6v3.6v3.6v3.6v3.6v3.6v3.6v3.6v3.6v3.6v3.6v3.6v3.6v3.6v3.6v3.6v3.6v3.6v3.6v3.6v3.6v3.6v3.6v3.6v3.6v3.6v3.6v3.6v3.6v3.6
		v3.6v3.6v3.6v3.6v3.6v3.6v3.6v3.6v3.6v3.6v3.6v3.6v3.6v3.6v3.6v3.6v3.6v3.6h3.6h3.6h3.6h3.6h3.6h3.6h3.6H29h3.6h3.6h3.6h3.6h3.6
		h3.6h3.6H58h3.6h3.6h3.6h3.6h3.6h3.6h3.6h3.6h3.6h3.6h3.6h3.6h3.6h3.6h3.6h3.6h3.6h3.6h3.6h3.6h3.6h3.6h3.6h3.6h3.6h3.6h3.6h3.6
		h3.6h3.6h3.6h3.6h3.6h3.6h3.6h3.6h3.6h3.6h3.6h3.6h3.6h3.6h3.6h3.6h3.6h3.6h3.6h3.6h3.6h3.6h3.6h3.6h3.6h3.6h3.6h3.6h3.6h3.6h3.6
		h3.6h3.6h3.6h3.6h3.6h3.6h3.6h3.6h3.6h3.6h3.6h3.6h3.6h3.6h3.6h3.6h3.6h3.6h3.6h3.6h3.6h3.6h3.6h3.6h3.6h3.6h3.6h3.6h3.6h3.6h3.6
		h3.6h3.6h3.6h3.6h3.6h3.6h3.6h3.6h3.6h3.6h3.6h3.6h3.6h3.6h3.6h3.6h3.6h3.6h3.6h3.6h3.6h3.6h3.6h3.6h3.6h3.6h3.6h3.6h3.6h3.6h3.6
		h3.6h3.6h3.6h3.6h3.6h3.6h3.6h3.6h3.6h3.6h3.6h3.6h3.6h3.6h3.6h3.6h3.6h3.6h3.6h3.6h3.6h3.6h3.6h3.6h3.6h3.6h3.6h3.6h3.6h3.6h3.6
		h3.6h3.6h3.6h3.6h3.6h3.6h3.6h3.6h3.6h3.6h3.6h3.6h3.6h3.6h3.6h3.6h3.6h3.6h3.6h3.6h3.6h3.6h3.6h3.6h3.6h3.6h3.6h3.6h3.6h3.6h3.6
		h3.6h3.6h3.6h3.6h3.6h3.6h3.6h3.6h3.6h3.6h3.6h3.6h3.6h3.6h3.6h3.6h3.6h3.6h3.6h3.6h3.6h3.6h3.6h3.6h3.6h3.6h3.6h3.6h3.6h3.6h3.6
		h3.6h3.6h3.6h3.6h3.6h3.6h3.6h3.6h3.6h3.6h3.6h3.6h3.6h3.6h3.6h3.6h3.6h3.6h3.6h3.6h3.6h3.6h3.6h3.6h3.6h3.6h3.6h3.6h3.6h3.6h3.6
		h3.6h3.6h3.6h3.6h3.6h3.6h3.6h3.6h3.6h3.6h3.6h3.6h3.6h3.6h3.6h3.6h3.6h3.6h3.6h3.6h3.6h3.6h3.6h3.6h3.6h3.6h3.6h3.6h3.6h3.6h3.6
		h3.6h3.6h3.6h3.6h3.6h3.6h3.6h3.6h3.6h3.6h3.6h3.6h3.6h3.6h3.6h3.6h3.6h3.6h3.6h3.6h3.6v-3.6v-3.6v-3.6v-3.6v-3.6V998v-3.6v-3.6
		v-3.6v-3.6v-3.6v-3.6v-3.6V969v-3.6v-3.6v-3.6v-3.6v-3.6v-3.6v-3.6v-3.6v-3.6v-3.6v-3.6v-3.6v-3.6v-3.6v-3.6v-3.6v-3.6v-3.6v-3.6
		v-3.6V893v-3.6v-3.6v-3.6v-3.6v-3.6v-3.6v-3.6V864v-3.6v-3.6v-3.6v-3.6v-3.6v-3.6v-3.6V835v-3.6v-3.6v-3.6v-3.6v-3.6v-3.6v-3.6V806
		v-3.6v-3.6v-3.6v-3.6v-3.6v-3.6v-3.6V777v-3.6v-3.6v-3.6v-3.6v-3.6v-3.6v-3.6v-3.6v-3.6v-3.6v-3.6v-3.6v-3.6v-3.6v-3.6v-3.6v-3.6
		v-3.6v-3.6v-3.6V701v-3.6v-3.6v-3.6v-3.6v-3.6v-3.6v-3.6V672v-3.6v-3.6v-3.6v-3.6v-3.6v-3.6v-3.6V643v-3.6v-3.6v-3.6v-3.6v-3.6
		v-3.6v-3.6V614v-3.6v-3.6v-3.6v-3.6v-3.6v-3.6v-3.6V585v-3.6v-3.6v-3.6v-3.6v-3.6v-3.6v-3.6v-3.6v-3.6v-3.6v-3.6v-3.6v-3.6v-3.6
		v-3.6v-3.6v-3.6v-3.6v-3.6v-3.6V509v-3.6v-3.6v-3.6v-3.6v-3.6v-3.6v-3.6V480v-3.6v-3.6v-3.6v-3.6v-3.6v-3.6v-3.6V451v-3.6v-3.6
		v-3.6v-3.6v-3.6v-3.6v-3.6V422v-3.6v-3.6v-3.6v-3.6v-3.6v-3.6v-3.6V393v-3.6v-3.6v-3.6v-3.6v-3.6v-3.6v-3.6v-3.6v-3.6v-3.6v-3.6
		v-3.6V346v-3.6v-3.6v-3.6v-3.6v-3.6v-3.6v-3.6V317v-3.6v-3.6v-3.6v-3.6v-3.6v-3.6v-3.6V288v-3.6v-3.6v-3.6v-3.6v-3.6v-3.6v-3.6V259
		v-3.6v-3.6v-3.6v-3.6v-3.6v-3.6v-3.6V230v-3.6v-3.6v-3.6v-3.6v-3.6v-3.6v-3.6v-3.6v-3.6v-3.6v-3.6v-3.6v-3.6v-3.6v-3.6v-3.6v-3.6
		v-3.6v-3.6v-3.6V154v-3.6v-3.6v-3.6v-3.6v-3.6v-3.6v-3.6V125v-3.6v-3.6v-3.6H1130.2z M76.1,943.7v-3.6v-3.6v-3.6v-3.6v-3.6v-3.6
		v-3.6v-3.6v-3.6v-3.6v-3.6v-3.6v-3.6V893v-3.6v-3.6v-3.6v-3.6v-3.6v-3.6v-3.6V864v-3.6v-3.6v-3.6v-3.6v-3.6v-3.6v-3.6V835v-3.6
		v-3.6v-3.6v-3.6v-3.6v-3.6v-3.6V806v-3.6v-3.6v-3.6v-3.6v-3.6v-3.6v-3.6V777v-3.6v-3.6v-3.6v-3.6v-3.6v-3.6v-3.6v-3.6v-3.6v-3.6
		v-3.6v-3.6v-3.6v-3.6v-3.6v-3.6v-3.6v-3.6v-3.6v-3.6V701v-3.6v-3.6v-3.6v-3.6v-3.6v-3.6v-3.6V672v-3.6v-3.6v-3.6v-3.6v-3.6v-3.6
		v-3.6V643v-3.6v-3.6v-3.6v-3.6v-3.6v-3.6v-3.6V614v-3.6v-3.6v-3.6v-3.6v-3.6v-3.6v-3.6V585v-3.6v-3.6v-3.6v-3.6v-3.6v-3.6v-3.6
		v-3.6v-3.6v-3.6v-3.6v-3.6v-3.6v-3.6v-3.6v-3.6v-3.6v-3.6v-3.6v-3.6V509v-3.6v-3.6v-3.6v-3.6v-3.6v-3.6v-3.6V480v-3.6v-3.6v-3.6
		v-3.6v-3.6v-3.6v-3.6V451v-3.6v-3.6v-3.6v-3.6v-3.6v-3.6v-3.6V422v-3.6v-3.6v-3.6v-3.6v-3.6v-3.6v-3.6V393v-3.6v-3.6v-3.6v-3.6
		v-3.6v-3.6v-3.6v-3.6v-3.6v-3.6v-3.6v-3.6V346v-3.6v-3.6v-3.6v-3.6v-3.6v-3.6v-3.6V317v-3.6v-3.6v-3.6v-3.6v-3.6v-3.6v-3.6V288
		v-3.6v-3.6v-3.6v-3.6v-3.6v-3.6v-3.6V259v-3.6v-3.6v-3.6v-3.6v-3.6v-3.6v-3.6V230v-3.6v-3.6v-3.6v-3.6v-3.6v-3.6v-3.6v-3.6v-3.6
		v-3.6v-3.6h3.6h3.6h3.6h3.6h3.6h3.6h3.6h3.6h3.6h3.6h3.6h3.6h3.6h3.6h3.6h3.6h3.6h3.6h3.6h3.6h3.6h3.6h3.6h3.6h3.6h3.6h3.6h3.6h3.6
		h3.6h3.6h3.6h3.6h3.6h3.6h3.6h3.6h3.6h3.6h3.6h3.6h3.6h3.6h3.6h3.6h3.6h3.6h3.6h3.6h3.6h3.6h3.6h3.6h3.6h3.6h3.6h3.6h3.6h3.6h3.6
		h3.6h3.6h3.6h3.6h3.6h3.6h3.6h3.6h3.6h3.6h3.6h3.6h3.6h3.6h3.6h3.6h3.6h3.6h3.6h3.6h3.6h3.6h3.6h3.6h3.6h3.6h3.6h3.6h3.6h3.6h3.6
		h3.6h3.6h3.6h3.6h3.6h3.6h3.6h3.6h3.6h3.6h3.6h3.6h3.6h3.6h3.6h3.6h3.6h3.6h3.6h3.6h3.6h3.6h3.6h3.6h3.6h3.6h3.6h3.6h3.6h3.6h3.6
		h3.6h3.6h3.6h3.6h3.6h3.6h3.6h3.6h3.6h3.6h3.6h3.6h3.6h3.6h3.6h3.6h3.6h3.6h3.6h3.6h3.6h3.6h3.6h3.6h3.6h3.6h3.6h3.6h3.6h3.6h3.6
		h3.6h3.6h3.6h3.6h3.6h3.6h3.6h3.6h3.6h3.6h3.6h3.6h3.6h3.6h3.6h3.6h3.6h3.6h3.6h3.6h3.6h3.6h3.6h3.6h3.6h3.6h3.6h3.6h3.6h3.6h3.6
		h3.6h3.6h3.6h3.6h3.6h3.6h3.6h3.6h3.6h3.6h3.6h3.6h3.6h3.6h3.6h3.6h3.6h3.6h3.6h3.6h3.6h3.6h3.6h3.6h3.6h3.6h3.6h3.6h3.6h3.6h3.6
		h3.6h3.6h3.6h3.6h3.6h3.6h3.6h3.6h3.6h3.6h3.6h3.6h3.6h3.6h3.6h3.6h3.6h3.6h3.6h3.6h3.6h3.6h3.6h3.6h3.6h3.6h3.6h3.6h3.6h3.6h3.6
		h3.6h3.6h3.6h3.6h3.6h3.6h3.6h3.6h3.6h3.6h3.6h3.6h3.6h3.6h3.6h3.6h3.6h3.6h3.6h3.6h3.6h3.6h3.6h3.6h3.6v3.6v3.6v3.6v3.6v3.6v3.6
		v3.6v3.6v3.6v3.6v3.6v3.6v3.6v3.6v3.6v3.6v3.6v3.6v3.6v3.6v3.6v3.6v3.6v3.6v3.6v3.6v3.6v3.6v3.6v3.6v3.6v3.6v3.6v3.6v3.6v3.6v3.6
		v3.6v3.6v3.6v3.6v3.6v3.6v3.6v3.6v3.6v3.6v3.6v3.6v3.6v3.6v3.6v3.6v3.6v3.6v3.6v3.6v3.6v3.6v3.6v3.6v3.6v3.6v3.6v3.6v3.6v3.6v3.6
		v3.6v3.6v3.6v3.6v3.6v3.6v3.6v3.6v3.6v3.6v3.6v3.6v3.6v3.6v3.6v3.6v3.6v3.6v3.6v3.6v3.6v3.6v3.6v3.6v3.6v3.6v3.6v3.6v3.6v3.6v3.6
		v3.6v3.6v3.6v3.6v3.6v3.6v3.6v3.6v3.6v3.6v3.6v3.6v3.6v3.6v3.6v3.6v3.6v3.6v3.6v3.6v3.6v3.6v3.6v3.6v3.6v3.6v3.6v3.6v3.6v3.6v3.6
		v3.6v3.6v3.6v3.6v3.6v3.6v3.6v3.6v3.6v3.6v3.6v3.6v3.6v3.6v3.6v3.6v3.6v3.6v3.6v3.6v3.6v3.6v3.6v3.6v3.6v3.6v3.6v3.6v3.6v3.6v3.6
		v3.6v3.6v3.6v3.6v3.6v3.6v3.6v3.6v3.6v3.6v3.6v3.6v3.6v3.6v3.6v3.6v3.6v3.6v3.6v3.6v3.6v3.6v3.6v3.6v3.6v3.6v3.6v3.6v3.6v3.6v3.6
		v3.6v3.6v3.6v3.6v3.6v3.6v3.6v3.6v3.6v3.6v3.6v3.6v3.6v3.6v3.6v3.6v3.6h-3.6h-3.6h-3.6h-3.6h-3.6h-3.6h-3.6h-3.6h-3.6h-3.6h-3.6
		h-3.6h-3.6h-3.6h-3.6h-3.6h-3.6h-3.6H989h-3.6h-3.6h-3.6h-3.6h-3.6h-3.6h-3.6H960h-3.6h-3.6h-3.6h-3.6h-3.6h-3.6h-3.6H931h-3.6
		h-3.6h-3.6h-3.6h-3.6h-3.6h-3.6H902h-3.6h-3.6h-3.6h-3.6h-3.6h-3.6h-3.6H873h-3.6h-3.6h-3.6h-3.6h-3.6h-3.6h-3.6h-3.6h-3.6h-3.6
		h-3.6h-3.6h-3.6h-3.6h-3.6h-3.6h-3.6h-3.6h-3.6h-3.6H797h-3.6h-3.6h-3.6h-3.6h-3.6h-3.6h-3.6H768h-3.6h-3.6h-3.6h-3.6h-3.6h-3.6
		h-3.6H739h-3.6h-3.6h-3.6h-3.6h-3.6h-3.6h-3.6H710h-3.6h-3.6h-3.6h-3.6h-3.6h-3.6h-3.6H681h-3.6h-3.6h-3.6h-3.6h-3.6h-3.6h-3.6
		h-3.6h-3.6h-3.6h-3.6h-3.6h-3.6h-3.6h-3.6h-3.6h-3.6h-3.6h-3.6h-3.6H605h-3.6h-3.6h-3.6h-3.6h-3.6h-3.6h-3.6H576h-3.6h-3.6h-3.6
		h-3.6h-3.6h-3.6h-3.6H547h-3.6h-3.6h-3.6h-3.6h-3.6h-3.6h-3.6H518h-3.6h-3.6h-3.6h-3.6h-3.6h-3.6h-3.6H489h-3.6h-3.6h-3.6h-3.6
		h-3.6h-3.6h-3.6h-3.6h-3.6h-3.6h-3.6h-3.6H442h-3.6h-3.6h-3.6h-3.6h-3.6h-3.6h-3.6H413h-3.6h-3.6h-3.6h-3.6h-3.6h-3.6h-3.6H384
		h-3.6h-3.6h-3.6h-3.6h-3.6h-3.6h-3.6H355h-3.6h-3.6h-3.6h-3.6h-3.6h-3.6h-3.6H326h-3.6h-3.6h-3.6h-3.6h-3.6h-3.6h-3.6H297h-3.6
		h-3.6h-3.6h-3.6h-3.6h-3.6h-3.6h-3.6h-3.6h-3.6h-3.6h-3.6H250h-3.6h-3.6h-3.6h-3.6h-3.6h-3.6h-3.6H221h-3.6h-3.6h-3.6h-3.6h-3.6
		h-3.6h-3.6H192h-3.6h-3.6h-3.6h-3.6h-3.6h-3.6h-3.6H163h-3.6h-3.6h-3.6h-3.6h-3.6h-3.6h-3.6H134h-3.6h-3.6h-3.6h-3.6h-3.6h-3.6
		h-3.6h-3.6h-3.6h-3.6h-3.6h-3.6h-3.6h-3.6h-3.6h-3.6V943.7z"/>
	<polygon points="612.2,418.4 615.8,418.4 619.5,418.4 623.1,418.4 626.7,418.4 630.3,418.4 633.9,418.4 637.6,418.4 641.2,418.4 
		644.8,418.4 648.4,418.4 652.1,418.4 655.7,418.4 659.3,418.4 662.9,418.4 666.5,418.4 670.2,418.4 673.8,418.4 677.4,418.4 
		681,418.4 681,414.8 681,411.2 681,407.5 681,403.9 681,400.3 681,396.7 681,393 681,389.4 681,385.8 681,382.2 681,378.6 
		681,374.9 681,371.3 681,367.7 681,364.1 681,360.4 681,356.8 681,353.2 681,349.6 681,346 681,342.3 677.4,342.3 673.8,342.3 
		670.2,342.3 666.5,342.3 662.9,342.3 659.3,342.3 655.7,342.3 652.1,342.3 648.4,342.3 644.8,342.3 641.2,342.3 637.6,342.3 
		633.9,342.3 630.3,342.3 626.7,342.3 623.1,342.3 619.5,342.3 615.8,342.3 612.2,342.3 608.6,342.3 605,342.3 605,346 605,349.6 
		605,353.2 605,356.8 605,360.4 605,364.1 605,367.7 605,371.3 605,374.9 605,378.6 605,382.2 605,385.8 605,389.4 605,393 
		605,396.7 605,400.3 605,403.9 605,407.5 605,411.2 605,414.8 605,418.4 608.6,418.4 	"/>
	<polygon points="764.4,418.4 768,418.4 771.6,418.4 775.2,418.4 778.8,418.4 782.5,418.4 786.1,418.4 789.7,418.4 793.3,418.4 
		797,418.4 800.6,418.4 804.2,418.4 807.8,418.4 811.5,418.4 815.1,418.4 818.7,418.4 822.3,418.4 825.9,418.4 829.6,418.4 
		833.2,418.4 833.2,414.8 833.2,411.2 833.2,407.5 833.2,403.9 833.2,400.3 833.2,396.7 833.2,393 833.2,389.4 833.2,385.8 
		833.2,382.2 833.2,378.6 833.2,374.9 833.2,371.3 833.2,367.7 833.2,364.1 833.2,360.4 833.2,356.8 833.2,353.2 833.2,349.6 
		833.2,346 833.2,342.3 829.6,342.3 825.9,342.3 822.3,342.3 818.7,342.3 815.1,342.3 811.5,342.3 807.8,342.3 804.2,342.3 
		800.6,342.3 797,342.3 793.3,342.3 789.7,342.3 786.1,342.3 782.5,342.3 778.8,342.3 775.2,342.3 771.6,342.3 768,342.3 
		764.4,342.3 760.7,342.3 757.1,342.3 757.1,346 757.1,349.6 757.1,353.2 757.1,356.8 757.1,360.4 757.1,364.1 757.1,367.7 
		757.1,371.3 757.1,374.9 757.1,378.6 757.1,382.2 757.1,385.8 757.1,389.4 757.1,393 757.1,396.7 757.1,400.3 757.1,403.9 
		757.1,407.5 757.1,411.2 757.1,414.8 757.1,418.4 760.7,418.4 	"/>
	<polygon points="235.5,643 239.1,643 242.7,643 246.3,643 250,643 253.6,643 257.2,643 260.8,643 264.4,643 268.1,643 271.7,643 
		275.3,643 278.9,643 282.6,643 286.2,643 289.8,643 293.4,643 297,643 300.7,643 304.3,643 307.9,643 311.5,643 315.2,643 
		318.8,643 322.4,643 326,643 329.7,643 333.3,643 336.9,643 340.5,643 344.1,643 347.8,643 351.4,643 355,643 358.6,643 362.3,643 
		365.9,643 369.5,643 373.1,643 376.7,643 380.4,643 384,643 387.6,643 391.2,643 394.9,643 398.5,643 402.1,643 405.7,643 
		409.3,643 413,643 416.6,643 420.2,643 423.8,643 427.5,643 431.1,643 434.7,643 438.3,643 442,643 445.6,643 449.2,643 452.8,643 
		456.4,643 460.1,643 463.7,643 467.3,643 470.9,643 474.6,643 478.2,643 481.8,643 485.4,643 489,643 492.7,643 496.3,643 
		499.9,643 503.5,643 507.2,643 510.8,643 514.4,643 518,643 521.6,643 525.3,643 528.9,643 532.5,643 536.1,643 539.8,643 
		543.4,643 547,643 550.6,643 554.3,643 557.9,643 561.5,643 565.1,643 568.7,643 572.4,643 576,643 579.6,643 583.2,643 586.9,643 
		590.5,643 594.1,643 597.7,643 601.3,643 605,643 608.6,643 612.2,643 615.8,643 619.5,643 623.1,643 626.7,643 630.3,643 
		633.9,643 637.6,643 641.2,643 644.8,643 648.4,643 652.1,643 655.7,643 659.3,643 662.9,643 666.5,643 670.2,643 673.8,643 
		677.4,643 681,643 684.7,643 688.3,643 691.9,643 695.5,643 699.2,643 702.8,643 706.4,643 710,643 713.6,643 717.3,643 720.9,643 
		724.5,643 728.1,643 731.8,643 735.4,643 739,643 742.6,643 746.2,643 749.9,643 753.5,643 757.1,643 760.7,643 764.4,643 768,643 
		771.6,643 775.2,643 778.8,643 782.5,643 786.1,643 789.7,643 793.3,643 797,643 800.6,643 804.2,643 807.8,643 811.5,643 
		815.1,643 818.7,643 822.3,643 825.9,643 829.6,643 833.2,643 836.8,643 840.4,643 844.1,643 847.7,643 851.3,643 854.9,643 
		858.5,643 862.2,643 865.8,643 869.4,643 873,643 876.7,643 880.3,643 883.9,643 887.5,643 891.1,643 894.8,643 898.4,643 902,643 
		905.6,643 905.6,639.4 905.6,635.8 905.6,632.1 905.6,628.5 905.6,624.9 905.6,621.3 905.6,617.6 905.6,614 905.6,610.4 
		905.6,606.8 905.6,603.2 905.6,599.5 905.6,595.9 905.6,592.3 905.6,588.7 905.6,585 905.6,581.4 905.6,577.8 905.6,574.2 
		905.6,570.6 905.6,566.9 905.6,563.3 905.6,559.7 905.6,556.1 905.6,552.4 905.6,548.8 905.6,545.2 905.6,541.6 905.6,537.9 
		905.6,534.3 905.6,530.7 905.6,527.1 905.6,523.5 905.6,519.8 905.6,516.2 905.6,512.6 905.6,509 905.6,505.3 905.6,501.7 
		905.6,498.1 905.6,494.5 902,494.5 898.4,494.5 894.8,494.5 891.1,494.5 887.5,494.5 883.9,494.5 880.3,494.5 876.7,494.5 
		873,494.5 869.4,494.5 865.8,494.5 862.2,494.5 858.5,494.5 854.9,494.5 851.3,494.5 847.7,494.5 844.1,494.5 840.4,494.5 
		836.8,494.5 833.2,494.5 833.2,498.1 833.2,501.7 833.2,505.3 833.2,509 833.2,512.6 833.2,516.2 833.2,519.8 833.2,523.5 
		833.2,527.1 833.2,530.7 833.2,534.3 833.2,537.9 833.2,541.6 833.2,545.2 833.2,548.8 833.2,552.4 833.2,556.1 833.2,559.7 
		833.2,563.3 833.2,566.9 829.6,566.9 825.9,566.9 822.3,566.9 818.7,566.9 815.1,566.9 811.5,566.9 807.8,566.9 804.2,566.9 
		800.6,566.9 797,566.9 793.3,566.9 789.7,566.9 786.1,566.9 782.5,566.9 778.8,566.9 775.2,566.9 771.6,566.9 768,566.9 
		764.4,566.9 760.7,566.9 757.1,566.9 753.5,566.9 749.9,566.9 746.2,566.9 742.6,566.9 739,566.9 735.4,566.9 731.8,566.9 
		728.1,566.9 724.5,566.9 720.9,566.9 717.3,566.9 713.6,566.9 710,566.9 706.4,566.9 702.8,566.9 699.2,566.9 695.5,566.9 
		691.9,566.9 688.3,566.9 684.7,566.9 681,566.9 677.4,566.9 673.8,566.9 670.2,566.9 666.5,566.9 662.9,566.9 659.3,566.9 
		655.7,566.9 652.1,566.9 648.4,566.9 644.8,566.9 641.2,566.9 637.6,566.9 633.9,566.9 630.3,566.9 626.7,566.9 623.1,566.9 
		619.5,566.9 615.8,566.9 612.2,566.9 608.6,566.9 605,566.9 605,563.3 605,559.7 605,556.1 605,552.4 605,548.8 605,545.2 
		605,541.6 605,537.9 605,534.3 605,530.7 605,527.1 605,523.5 605,519.8 605,516.2 605,512.6 605,509 605,505.3 605,501.7 
		605,498.1 605,494.5 601.3,494.5 597.7,494.5 594.1,494.5 590.5,494.5 586.9,494.5 583.2,494.5 579.6,494.5 576,494.5 572.4,494.5 
		568.7,494.5 565.1,494.5 561.5,494.5 557.9,494.5 554.3,494.5 550.6,494.5 547,494.5 543.4,494.5 539.8,494.5 536.1,494.5 
		532.5,494.5 528.9,494.5 528.9,498.1 528.9,501.7 528.9,505.3 528.9,509 528.9,512.6 528.9,516.2 528.9,519.8 528.9,523.5 
		528.9,527.1 528.9,530.7 528.9,534.3 528.9,537.9 528.9,541.6 528.9,545.2 528.9,548.8 528.9,552.4 528.9,556.1 528.9,559.7 
		528.9,563.3 528.9,566.9 525.3,566.9 521.6,566.9 518,566.9 514.4,566.9 510.8,566.9 507.2,566.9 503.5,566.9 499.9,566.9 
		496.3,566.9 492.7,566.9 489,566.9 485.4,566.9 481.8,566.9 478.2,566.9 474.6,566.9 470.9,566.9 467.3,566.9 463.7,566.9 
		460.1,566.9 456.4,566.9 452.8,566.9 449.2,566.9 445.6,566.9 442,566.9 438.3,566.9 434.7,566.9 431.1,566.9 427.5,566.9 
		423.8,566.9 420.2,566.9 416.6,566.9 413,566.9 409.3,566.9 405.7,566.9 402.1,566.9 398.5,566.9 394.9,566.9 391.2,566.9 
		387.6,566.9 384,566.9 380.4,566.9 376.7,566.9 373.1,566.9 369.5,566.9 365.9,566.9 362.3,566.9 358.6,566.9 355,566.9 
		351.4,566.9 347.8,566.9 344.1,566.9 340.5,566.9 336.9,566.9 333.3,566.9 329.7,566.9 326,566.9 322.4,566.9 318.8,566.9 
		315.2,566.9 311.5,566.9 307.9,566.9 304.3,566.9 304.3,563.3 304.3,559.7 304.3,556.1 304.3,552.4 304.3,548.8 304.3,545.2 
		304.3,541.6 304.3,537.9 304.3,534.3 304.3,530.7 304.3,527.1 304.3,523.5 304.3,519.8 304.3,516.2 304.3,512.6 304.3,509 
		304.3,505.3 304.3,501.7 304.3,498.1 304.3,494.5 304.3,490.9 304.3,487.2 304.3,483.6 304.3,480 304.3,476.4 304.3,472.7 
		304.3,469.1 304.3,465.5 304.3,461.9 304.3,458.3 304.3,454.6 304.3,451 304.3,447.4 304.3,443.8 304.3,440.1 304.3,436.5 
		304.3,432.9 304.3,429.3 304.3,425.6 304.3,422 304.3,418.4 304.3,414.8 304.3,411.2 304.3,407.5 304.3,403.9 304.3,400.3 
		304.3,396.7 304.3,393 304.3,389.4 304.3,385.8 304.3,382.2 304.3,378.6 304.3,374.9 304.3,371.3 304.3,367.7 304.3,364.1 
		304.3,360.4 304.3,356.8 304.3,353.2 304.3,349.6 304.3,346 304.3,342.3 300.7,342.3 297,342.3 293.4,342.3 289.8,342.3 
		286.2,342.3 282.6,342.3 278.9,342.3 275.3,342.3 271.7,342.3 268.1,342.3 264.4,342.3 260.8,342.3 257.2,342.3 253.6,342.3 
		250,342.3 246.3,342.3 242.7,342.3 239.1,342.3 235.5,342.3 231.8,342.3 228.2,342.3 228.2,346 228.2,349.6 228.2,353.2 
		228.2,356.8 228.2,360.4 228.2,364.1 228.2,367.7 228.2,371.3 228.2,374.9 228.2,378.6 228.2,382.2 228.2,385.8 228.2,389.4 
		228.2,393 228.2,396.7 228.2,400.3 228.2,403.9 228.2,407.5 228.2,411.2 228.2,414.8 228.2,418.4 228.2,422 228.2,425.6 
		228.2,429.3 228.2,432.9 228.2,436.5 228.2,440.1 228.2,443.8 228.2,447.4 228.2,451 228.2,454.6 228.2,458.3 228.2,461.9 
		228.2,465.5 228.2,469.1 228.2,472.7 228.2,476.4 228.2,480 228.2,483.6 228.2,487.2 228.2,490.9 228.2,494.5 228.2,498.1 
		228.2,501.7 228.2,505.3 228.2,509 228.2,512.6 228.2,516.2 228.2,519.8 228.2,523.5 228.2,527.1 228.2,530.7 228.2,534.3 
		228.2,537.9 228.2,541.6 228.2,545.2 228.2,548.8 228.2,552.4 228.2,556.1 228.2,559.7 228.2,563.3 228.2,566.9 228.2,570.6 
		228.2,574.2 228.2,577.8 228.2,581.4 228.2,585 228.2,588.7 228.2,592.3 228.2,595.9 228.2,599.5 228.2,603.2 228.2,606.8 
		228.2,610.4 228.2,614 228.2,617.6 228.2,621.3 228.2,624.9 228.2,628.5 228.2,632.1 228.2,635.8 228.2,639.4 228.2,643 231.8,643 
			"/>
	<polygon points="373.1,719.1 369.5,719.1 365.9,719.1 362.3,719.1 358.6,719.1 355,719.1 351.4,719.1 347.8,719.1 344.1,719.1 
		340.5,719.1 336.9,719.1 333.3,719.1 329.7,719.1 326,719.1 322.4,719.1 318.8,719.1 315.2,719.1 311.5,719.1 307.9,719.1 
		304.3,719.1 304.3,722.7 304.3,726.3 304.3,729.9 304.3,733.6 304.3,737.2 304.3,740.8 304.3,744.4 304.3,748.1 304.3,751.7 
		304.3,755.3 304.3,758.9 304.3,762.5 304.3,766.2 304.3,769.8 304.3,773.4 304.3,777 304.3,780.7 304.3,784.3 304.3,787.9 
		304.3,791.5 304.3,795.1 307.9,795.1 311.5,795.1 315.2,795.1 318.8,795.1 322.4,795.1 326,795.1 329.7,795.1 333.3,795.1 
		336.9,795.1 340.5,795.1 344.1,795.1 347.8,795.1 351.4,795.1 355,795.1 358.6,795.1 362.3,795.1 365.9,795.1 369.5,795.1 
		373.1,795.1 376.7,795.1 380.4,795.1 380.4,791.5 380.4,787.9 380.4,784.3 380.4,780.7 380.4,777 380.4,773.4 380.4,769.8 
		380.4,766.2 380.4,762.5 380.4,758.9 380.4,755.3 380.4,751.7 380.4,748.1 380.4,744.4 380.4,740.8 380.4,737.2 380.4,733.6 
		380.4,729.9 380.4,726.3 380.4,722.7 380.4,719.1 376.7,719.1 	"/>
	<polygon points="521.6,719.1 518,719.1 514.4,719.1 510.8,719.1 507.2,719.1 503.5,719.1 499.9,719.1 496.3,719.1 492.7,719.1 
		489,719.1 485.4,719.1 481.8,719.1 478.2,719.1 474.6,719.1 470.9,719.1 467.3,719.1 463.7,719.1 460.1,719.1 456.4,719.1 
		452.8,719.1 452.8,722.7 452.8,726.3 452.8,729.9 452.8,733.6 452.8,737.2 452.8,740.8 452.8,744.4 452.8,748.1 452.8,751.7 
		452.8,755.3 452.8,758.9 452.8,762.5 452.8,766.2 452.8,769.8 452.8,773.4 452.8,777 452.8,780.7 452.8,784.3 452.8,787.9 
		452.8,791.5 452.8,795.1 456.4,795.1 460.1,795.1 463.7,795.1 467.3,795.1 470.9,795.1 474.6,795.1 478.2,795.1 481.8,795.1 
		485.4,795.1 489,795.1 492.7,795.1 496.3,795.1 499.9,795.1 503.5,795.1 507.2,795.1 510.8,795.1 514.4,795.1 518,795.1 
		521.6,795.1 525.3,795.1 528.9,795.1 528.9,791.5 528.9,787.9 528.9,784.3 528.9,780.7 528.9,777 528.9,773.4 528.9,769.8 
		528.9,766.2 528.9,762.5 528.9,758.9 528.9,755.3 528.9,751.7 528.9,748.1 528.9,744.4 528.9,740.8 528.9,737.2 528.9,733.6 
		528.9,729.9 528.9,726.3 528.9,722.7 528.9,719.1 525.3,719.1 	"/>
</g>
</svg>
