<svg xmlns="http://www.w3.org/2000/svg" xml:space="preserve" stroke-linecap="round" stroke-linejoin="round"
    stroke-miterlimit="10" clip-rule="evenodd" viewBox="0 0 512 128">
    <g>
        <path fill="currentColor"
            d="M34.86 64.27V2.05h66.83v9.22h9.99v9.99h9.2v9.2h10v10h9.21v86.01H34.86V64.26Zm96.01 19.2v-33.8h-9.99v57.6H54.07V21.26h38.4v-9.98H44.08v106h86.8v-33.8Zm-19.2 9.6v-5h-9.98v-9.21h9.99V49.67H92.46v-19.2H63.28v19.2h9.99v9.99h-9.99v19.2h9.99v9.22h-9.99v9.99h48.4v-5Zm9.22-57.6v-5h-9.21v-9.21h-10v19.2h19.2v-5Z" />
        <path fill="currentColor"
            d="M73.27 73.87v-5h28.42v9.99H73.27v-5Zm9.21-19.21v-4.99h-9.21v-9.22h9.21v9.22h9.99v9.99h-9.99v-5Zm134.42 67.21v-4.6h-9.22v-19.2h9.21V59.65h-19.2v-9.99h29.2v-19.2h9.21v-19.2h9.99v19.2h-9.99v19.2h19.2v9.99h-28.42v38.4h-9.99v19.2h29.2v9.22h-29.2v-4.6Zm67.6 0v-4.6h-10v-10h-9.21v-19.2h9.21v-19.2h9.99v-9.21h9.2v-9.99h29.2v9.99h9.21v19.2h-9.21v9.22h-48.4v19.2h10v9.98h28.41v-9.99h9.99v10h-9.99v9.21h-28.4v-4.6Zm38.4-52.61v-9.6h-29.2v9.21h-9.2v9.99h38.4v-9.6Zm19.2 52.61v-4.6h19.2v-19.2h9.22v-29.2h9.99v-9.21h-29.2v-9.99h38.4v19.2h-9.2v29.2h-10v19.2h19.2v9.21H342.1v-4.6Zm76.8 0v-4.6h-9.98v-29.2h9.99v-9.21h38.4v-9.99h9.21v-9.21h-38.4v9.21h-9.21v-9.21h9.21v-9.99h38.4v9.99h10v9.21h-10v29.2h-9.2v19.2h19.2v9.21h-19.2v-9.22h-10v9.22h-28.41v-4.6Zm28.43-14.2v-9.6h9.99v-10H418.9v29.2h28.42v-9.6ZM380.5 25.86v-4.6h19.2v9.2h-19.2v-4.6Z" />
    </g>
</svg>