<svg xmlns="http://www.w3.org/2000/svg" xml:space="preserve" fill="currentColor" shape-rendering="crispEdges"
	viewBox="0 0 1133.9 1133.9">
	<g>
		<path d="M1130.2 114.1H0v900h1127.2v-18 1.9-883.8h3zM76.1 943.7V190.4h975.6v752.4h-64.8 2.1H76.4v.9z" />
		<path
			d="M612.2 418.4H681v-76.1h-76v76.1h3.6zm152.2 0h68.8v-76.1h-76.1v76.1h3.6zM235.5 643h670.1V494.5h-72.4v72.4H605v-72.4h-76.1v72.4H304.3V342.3h-76.1V643h3.6zm137.6 76.1h-68.8v76h76.1v-76h-3.7zm148.5 0h-68.8v76h76.1v-76h-3.6z" />
	</g>
</svg>