<?xml version="1.0" encoding="utf-8"?>
<!-- Generator: Adobe Illustrator 23.1.1, SVG Export Plug-In . SVG Version: 6.00 Build 0)  -->
<svg version="1.1" id="Livello_1" shape-rendering="crispEdges"
	 xmlns="http://www.w3.org/2000/svg" xmlns:xlink="http://www.w3.org/1999/xlink" x="0px" y="0px" viewBox="0 0 1133.9 283.5"
	 style="enable-background:new 0 0 1133.9 283.5;" xml:space="preserve">
<style type="text/css">
	.st0{fill:#7B8178;}
	.st1{fill:#FFFFFF;}
	.st2{fill:#212121;}
</style>
<g>
	<g>
		<path class="st0" d="M235.6,35h-7.4h-7.4h-7.4h-7.4h-7.4h-7.4h-7.4h-7.4h-7.4H162h-7.4h-7.4h-7.4h-7.4h-7.4h-7.4h-7.4h-7.4h-7.4
			h-7.4H81h-7.4h-7.4h-7.4h-7.4h-7.4h-7.4h-7.4h-7.4v7.4v7.4v7.4v7.4v7.4v7.4v7.4v7.4v7.4v7.4v7.4v7.4v7.4v7.4v7.4v7.4v7.4v7.4v7.4
			v7.4v7.4v7.4v7.4v7.4v7.4v7.4v7.4v7.4v7.4h7.4h7.4h7.4h7.4h7.4h7.4h7.4H81h7.4h7.4h7.4h7.4h7.4h7.4h7.4h7.4h7.4h7.4h7.4h7.4h7.4
			h7.4h7.4h7.4h7.4h7.4h7.4h7.4h7.4h7.4h7.4v-7.4v-7.4v-7.4V219v-7.4v-7.4V197v-7.4v-7.4v-7.4v-7.4v-7.4v-7.4v-7.4v-7.4v-7.4v-7.4
			V116v-7.4v-7.4v-7.4v-7.4v-7.4v-7.4v-7.4v-7.4v-7.4v-7.4V35H243H235.6z M243,57.1v7.4v7.4v7.4v7.4v7.4v7.4v7.4v7.4v7.4v7.4v7.4
			v7.4v7.4v7.4v7.4v7.4v7.4v7.4v7.4v7.4v7.4v7.4v7.4v7.4h-7.4v7.4h-7.4h-7.4h-7.4h-7.4h-7.4h-7.4h-7.4h-7.4h-7.4H162h-7.4h-7.4h-7.4
			h-7.4h-7.4h-7.4h-7.4h-7.4h-7.4h-7.4H81h-7.4h-7.4h-7.4h-7.4h-7.4h-7.4v-7.4h-7.4v-7.4V219v-7.4v-7.4V197v-7.4v-7.4v-7.4v-7.4
			v-7.4v-7.4v-7.4v-7.4v-7.4v-7.4V116v-7.4v-7.4v-7.4v-7.4v-7.4v-7.4v-7.4v-7.4v-7.4h7.4v-7.4h7.4h7.4h7.4h7.4h7.4H81h7.4h7.4h7.4
			h7.4h7.4h7.4h7.4h7.4h7.4h7.4h7.4h7.4h7.4h7.4h7.4h7.4h7.4h7.4h7.4h7.4h7.4v7.4h7.4V57.1z"/>
		<path class="st0" d="M522.8,35h-7.4H508h-7.4h-7.4h-7.4h-7.4h-7.4h-7.4h-7.4h-7.4h-7.4h-7.4H427h-7.4h-7.4h-7.4h-7.4h-7.4h-7.4
			h-7.4h-7.4h-7.4h-7.4H346h-7.4h-7.4H324h-7.4h-7.4v7.4v7.4v7.4v7.4v7.4v7.4v7.4v7.4v7.4v7.4v7.4v7.4v7.4v7.4v7.4v7.4v7.4v7.4v7.4
			v7.4v7.4v7.4v7.4v7.4v7.4v7.4v7.4v7.4v7.4h7.4h7.4h7.4h7.4h7.4h7.4h7.4h7.4h7.4h7.4h7.4h7.4h7.4h7.4h7.4h7.4h7.4h7.4h7.4h7.4h7.4
			h7.4h7.4h7.4h7.4h7.4h7.4h7.4h7.4h7.4h7.4v-7.4v-7.4v-7.4V219v-7.4v-7.4V197v-7.4v-7.4v-7.4v-7.4v-7.4v-7.4v-7.4v-7.4v-7.4v-7.4
			V116v-7.4v-7.4v-7.4v-7.4v-7.4v-7.4v-7.4v-7.4v-7.4v-7.4V35h-7.4H522.8z M530.1,57.1v7.4v7.4v7.4v7.4v7.4v7.4v7.4v7.4v7.4v7.4v7.4
			v7.4v7.4v7.4v7.4v7.4v7.4v7.4v7.4v7.4v7.4v7.4v7.4v7.4h-7.4v7.4h-7.4H508h-7.4h-7.4h-7.4h-7.4h-7.4h-7.4h-7.4h-7.4h-7.4h-7.4H427
			h-7.4h-7.4h-7.4h-7.4h-7.4h-7.4h-7.4h-7.4h-7.4h-7.4H346h-7.4h-7.4H324v-7.4h-7.4v-7.4V219v-7.4v-7.4V197v-7.4v-7.4v-7.4v-7.4
			v-7.4v-7.4v-7.4v-7.4v-7.4v-7.4V116v-7.4v-7.4v-7.4v-7.4v-7.4v-7.4v-7.4v-7.4v-7.4h7.4v-7.4h7.4h7.4h7.4h7.4h7.4h7.4h7.4h7.4h7.4
			h7.4h7.4h7.4h7.4h7.4h7.4h7.4h7.4h7.4h7.4h7.4h7.4h7.4h7.4h7.4h7.4h7.4h7.4v7.4h7.4V57.1z"/>
		<path class="st0" d="M809.9,35h-7.4h-7.4h-7.4h-7.4h-7.4h-7.4h-7.4H751h-7.4h-7.4h-7.4h-7.4h-7.4h-7.4h-7.4h-7.4h-7.4h-7.4H670
			h-7.4h-7.4h-7.4h-7.4h-7.4h-7.4h-7.4h-7.4h-7.4h-7.4v7.4v7.4v7.4v7.4v7.4v7.4v7.4v7.4v7.4v7.4v7.4v7.4v7.4v7.4v7.4v7.4v7.4v7.4
			v7.4v7.4v7.4v7.4v7.4v7.4v7.4v7.4v7.4v7.4v7.4h7.4h7.4h7.4h7.4h7.4h7.4h7.4h7.4h7.4h7.4h7.4h7.4h7.4h7.4h7.4h7.4h7.4h7.4h7.4h7.4
			h7.4h7.4h7.4h7.4h7.4h7.4h7.4h7.4h7.4h7.4h7.4v-7.4v-7.4v-7.4V219v-7.4v-7.4V197v-7.4v-7.4v-7.4v-7.4v-7.4v-7.4v-7.4v-7.4v-7.4
			v-7.4V116v-7.4v-7.4v-7.4v-7.4v-7.4v-7.4v-7.4v-7.4v-7.4v-7.4V35h-7.4H809.9z M817.3,57.1v7.4v7.4v7.4v7.4v7.4v7.4v7.4v7.4v7.4
			v7.4v7.4v7.4v7.4v7.4v7.4v7.4v7.4v7.4v7.4v7.4v7.4v7.4v7.4v7.4h-7.4v7.4h-7.4h-7.4h-7.4h-7.4h-7.4h-7.4h-7.4H751h-7.4h-7.4h-7.4
			h-7.4h-7.4h-7.4h-7.4h-7.4h-7.4h-7.4H670h-7.4h-7.4h-7.4h-7.4h-7.4h-7.4h-7.4h-7.4v-7.4h-7.4v-7.4V219v-7.4v-7.4V197v-7.4v-7.4
			v-7.4v-7.4v-7.4v-7.4v-7.4v-7.4v-7.4v-7.4V116v-7.4v-7.4v-7.4v-7.4v-7.4v-7.4v-7.4v-7.4v-7.4h7.4v-7.4h7.4h7.4h7.4h7.4h7.4h7.4
			h7.4h7.4h7.4h7.4h7.4h7.4h7.4h7.4h7.4h7.4h7.4h7.4h7.4h7.4h7.4h7.4h7.4h7.4h7.4h7.4h7.4v7.4h7.4V57.1z"/>
		<path class="st0" d="M1104.4,35h-7.4h-7.4h-7.4h-7.4h-7.4h-7.4h-7.4h-7.4h-7.4h-7.4h-7.4h-7.4h-7.4h-7.4H994h-7.4h-7.4h-7.4h-7.4
			h-7.4h-7.4h-7.4h-7.4h-7.4h-7.4H913h-7.4h-7.4h-7.4h-7.4v7.4v7.4v7.4v7.4v7.4v7.4v7.4v7.4v7.4v7.4v7.4v7.4v7.4v7.4v7.4v7.4v7.4
			v7.4v7.4v7.4v7.4v7.4v7.4v7.4v7.4v7.4v7.4v7.4v7.4h7.4h7.4h7.4h7.4h7.4h7.4h7.4h7.4h7.4h7.4h7.4h7.4h7.4h7.4h7.4h7.4h7.4h7.4h7.4
			h7.4h7.4h7.4h7.4h7.4h7.4h7.4h7.4h7.4h7.4h7.4h7.4v-7.4v-7.4v-7.4V219v-7.4v-7.4V197v-7.4v-7.4v-7.4v-7.4v-7.4v-7.4v-7.4v-7.4
			v-7.4v-7.4V116v-7.4v-7.4v-7.4v-7.4v-7.4v-7.4v-7.4v-7.4v-7.4v-7.4V35H1104.4z M1104.4,57.1v7.4v7.4v7.4v7.4v7.4v7.4v7.4v7.4v7.4
			v7.4v7.4v7.4v7.4v7.4v7.4v7.4v7.4v7.4v7.4v7.4v7.4v7.4v7.4v7.4h-7.4v7.4h-7.4h-7.4h-7.4h-7.4h-7.4h-7.4h-7.4h-7.4h-7.4h-7.4h-7.4
			h-7.4h-7.4H994h-7.4h-7.4h-7.4h-7.4h-7.4h-7.4h-7.4h-7.4h-7.4h-7.4H913h-7.4h-7.4v-7.4h-7.4v-7.4V219v-7.4v-7.4V197v-7.4v-7.4
			v-7.4v-7.4v-7.4v-7.4v-7.4v-7.4v-7.4v-7.4V116v-7.4v-7.4v-7.4v-7.4v-7.4v-7.4v-7.4v-7.4v-7.4h7.4v-7.4h7.4h7.4h7.4h7.4h7.4h7.4
			h7.4h7.4h7.4h7.4h7.4h7.4h7.4h7.4h7.4h7.4h7.4h7.4h7.4h7.4h7.4h7.4h7.4h7.4h7.4h7.4h7.4v7.4h7.4V57.1z"/>
		<polygon class="st0" points="508,57.1 500.7,57.1 500.7,64.4 500.7,71.8 500.7,79.1 500.7,86.5 500.7,93.9 500.7,101.2 
			500.7,108.6 500.7,116 500.7,123.3 500.7,130.7 500.7,138.1 500.7,145.4 500.7,152.8 500.7,160.1 500.7,167.5 500.7,174.9 
			500.7,182.2 500.7,189.6 500.7,197 500.7,204.3 500.7,211.7 500.7,219 500.7,226.4 508,226.4 508,219 515.4,219 515.4,211.7 
			508,211.7 508,204.3 508,197 508,189.6 508,182.2 508,174.9 508,167.5 508,160.1 508,152.8 508,145.4 508,138.1 508,130.7 
			508,123.3 508,116 508,108.6 508,101.2 508,93.9 508,86.5 508,79.1 508,71.8 515.4,71.8 515.4,64.4 508,64.4 		"/>
		<polygon class="st0" points="625.8,86.5 625.8,93.9 625.8,101.2 625.8,108.6 625.8,116 625.8,123.3 625.8,130.7 625.8,138.1 
			625.8,145.4 625.8,152.8 625.8,160.1 625.8,167.5 625.8,174.9 625.8,182.2 625.8,189.6 625.8,197 625.8,204.3 633.2,204.3 
			633.2,197 633.2,189.6 633.2,182.2 633.2,174.9 633.2,167.5 633.2,160.1 633.2,152.8 633.2,145.4 633.2,138.1 633.2,130.7 
			633.2,123.3 633.2,116 633.2,108.6 633.2,101.2 633.2,93.9 633.2,86.5 633.2,79.1 625.8,79.1 		"/>
		<polygon class="st0" points="787.8,86.5 787.8,93.9 787.8,101.2 787.8,108.6 787.8,116 787.8,123.3 787.8,130.7 787.8,138.1 
			787.8,145.4 787.8,152.8 787.8,160.1 787.8,167.5 787.8,174.9 787.8,182.2 787.8,189.6 787.8,197 787.8,204.3 795.2,204.3 
			795.2,197 795.2,189.6 795.2,182.2 795.2,174.9 795.2,167.5 795.2,160.1 795.2,152.8 795.2,145.4 795.2,138.1 795.2,130.7 
			795.2,123.3 795.2,116 795.2,108.6 795.2,101.2 795.2,93.9 795.2,86.5 795.2,79.1 787.8,79.1 		"/>
		<polygon class="st0" points="220.9,204.3 220.9,197 220.9,189.6 220.9,182.2 220.9,174.9 220.9,167.5 220.9,160.1 220.9,152.8 
			220.9,145.4 220.9,138.1 220.9,130.7 220.9,123.3 220.9,116 220.9,108.6 220.9,101.2 220.9,93.9 220.9,86.5 220.9,79.1 
			213.5,79.1 213.5,86.5 213.5,93.9 213.5,101.2 213.5,108.6 213.5,116 213.5,123.3 213.5,130.7 213.5,138.1 213.5,145.4 
			213.5,152.8 213.5,160.1 213.5,167.5 213.5,174.9 213.5,182.2 213.5,189.6 213.5,197 213.5,204.3 213.5,211.7 206.2,211.7 
			198.8,211.7 191.4,211.7 184.1,211.7 176.7,211.7 169.3,211.7 162,211.7 154.6,211.7 147.3,211.7 139.9,211.7 132.5,211.7 
			125.2,211.7 117.8,211.7 110.4,211.7 103.1,211.7 95.7,211.7 88.4,211.7 81,211.7 73.6,211.7 66.3,211.7 58.9,211.7 58.9,204.3 
			58.9,197 58.9,189.6 58.9,182.2 58.9,174.9 58.9,167.5 58.9,160.1 58.9,152.8 58.9,145.4 58.9,138.1 58.9,130.7 58.9,123.3 
			58.9,116 58.9,108.6 58.9,101.2 58.9,93.9 58.9,86.5 58.9,79.1 51.5,79.1 51.5,86.5 51.5,93.9 51.5,101.2 51.5,108.6 51.5,116 
			51.5,123.3 51.5,130.7 51.5,138.1 51.5,145.4 51.5,152.8 51.5,160.1 51.5,167.5 51.5,174.9 51.5,182.2 51.5,189.6 51.5,197 
			51.5,204.3 51.5,211.7 44.2,211.7 44.2,219 51.5,219 51.5,226.4 58.9,226.4 58.9,219 66.3,219 73.6,219 81,219 88.4,219 95.7,219 
			103.1,219 110.4,219 117.8,219 125.2,219 132.5,219 139.9,219 147.3,219 154.6,219 162,219 169.3,219 176.7,219 184.1,219 
			191.4,219 198.8,219 206.2,219 213.5,219 213.5,226.4 220.9,226.4 220.9,219 228.2,219 228.2,211.7 220.9,211.7 		"/>
		<rect x="905.6" y="211.7" class="st0" width="7.4" height="7.4"/>
		<polygon class="st0" points="1067.6,211.7 1060.2,211.7 1052.9,211.7 1045.5,211.7 1038.1,211.7 1030.8,211.7 1023.4,211.7 
			1016.1,211.7 1008.7,211.7 1001.3,211.7 994,211.7 986.6,211.7 979.2,211.7 971.9,211.7 964.5,211.7 957.2,211.7 949.8,211.7 
			942.4,211.7 935.1,211.7 927.7,211.7 920.3,211.7 920.3,219 927.7,219 935.1,219 942.4,219 949.8,219 957.2,219 964.5,219 
			971.9,219 979.2,219 986.6,219 994,219 1001.3,219 1008.7,219 1016.1,219 1023.4,219 1030.8,219 1038.1,219 1045.5,219 
			1052.9,219 1060.2,219 1067.6,219 1075,219 1075,211.7 		"/>
		<rect x="1082.3" y="211.7" class="st0" width="7.4" height="7.4"/>
		<rect x="913" y="219" class="st0" width="7.4" height="7.4"/>
		<rect x="1075" y="219" class="st0" width="7.4" height="7.4"/>
	</g>
	<g>
		<path class="st1" d="M257.7,20.2h-7.4H243h-7.4h-7.4h-7.4h-7.4h-7.4h-7.4h-7.4h-7.4h-7.4h-7.4H162h-7.4h-7.4h-7.4h-7.4h-7.4h-7.4
			h-7.4h-7.4h-7.4h-7.4H81h-7.4h-7.4h-7.4h-7.4h-7.4h-7.4h-7.4h-7.4h-7.4v7.4H7.4V35v7.4v7.4v7.4v7.4v7.4v7.4v7.4v7.4v7.4v7.4v7.4
			v7.4v7.4v7.4v7.4v7.4v7.4v7.4v7.4v7.4v7.4v7.4v7.4v7.4v7.4v7.4v7.4v7.4v7.4v7.4h7.4v7.4h7.4h7.4h7.4h7.4h7.4h7.4h7.4h7.4H81h7.4
			h7.4h7.4h7.4h7.4h7.4h7.4h7.4h7.4h7.4h7.4h7.4h7.4h7.4h7.4h7.4h7.4h7.4h7.4h7.4h7.4h7.4h7.4h7.4v-7.4h7.4v-7.4v-7.4v-7.4v-7.4V219
			v-7.4v-7.4V197v-7.4v-7.4v-7.4v-7.4v-7.4v-7.4v-7.4v-7.4v-7.4v-7.4V116v-7.4v-7.4v-7.4v-7.4v-7.4v-7.4v-7.4v-7.4v-7.4v-7.4V35
			v-7.4h-7.4V20.2z M250.3,42.3v7.4v7.4v7.4v7.4v7.4v7.4v7.4v7.4v7.4v7.4v7.4v7.4v7.4v7.4v7.4v7.4v7.4v7.4v7.4v7.4v7.4v7.4v7.4v7.4
			v7.4v7.4v7.4v7.4H243h-7.4h-7.4h-7.4h-7.4h-7.4h-7.4h-7.4h-7.4h-7.4h-7.4H162h-7.4h-7.4h-7.4h-7.4h-7.4h-7.4h-7.4h-7.4h-7.4h-7.4
			H81h-7.4h-7.4h-7.4h-7.4h-7.4h-7.4h-7.4h-7.4v-7.4v-7.4v-7.4V219v-7.4v-7.4V197v-7.4v-7.4v-7.4v-7.4v-7.4v-7.4v-7.4v-7.4v-7.4
			v-7.4V116v-7.4v-7.4v-7.4v-7.4v-7.4v-7.4v-7.4v-7.4v-7.4v-7.4V35h7.4h7.4h7.4h7.4h7.4h7.4h7.4H81h7.4h7.4h7.4h7.4h7.4h7.4h7.4h7.4
			h7.4h7.4h7.4h7.4h7.4h7.4h7.4h7.4h7.4h7.4h7.4h7.4h7.4h7.4h7.4V42.3z"/>
		<path class="st1" d="M544.8,20.2h-7.4h-7.4h-7.4h-7.4H508h-7.4h-7.4h-7.4h-7.4h-7.4h-7.4h-7.4h-7.4h-7.4h-7.4H427h-7.4h-7.4h-7.4
			h-7.4h-7.4h-7.4h-7.4h-7.4h-7.4h-7.4H346h-7.4h-7.4H324h-7.4h-7.4h-7.4v7.4h-7.4V35v7.4v7.4v7.4v7.4v7.4v7.4v7.4v7.4v7.4v7.4v7.4
			v7.4v7.4v7.4v7.4v7.4v7.4v7.4v7.4v7.4v7.4v7.4v7.4v7.4v7.4v7.4v7.4v7.4v7.4v7.4h7.4v7.4h7.4h7.4h7.4h7.4h7.4h7.4h7.4h7.4h7.4h7.4
			h7.4h7.4h7.4h7.4h7.4h7.4h7.4h7.4h7.4h7.4h7.4h7.4h7.4h7.4h7.4h7.4h7.4h7.4h7.4h7.4h7.4h7.4h7.4v-7.4h7.4v-7.4v-7.4v-7.4v-7.4V219
			v-7.4v-7.4V197v-7.4v-7.4v-7.4v-7.4v-7.4v-7.4v-7.4v-7.4v-7.4v-7.4V116v-7.4v-7.4v-7.4v-7.4v-7.4v-7.4v-7.4v-7.4v-7.4v-7.4V35
			v-7.4h-7.4V20.2z M537.5,42.3v7.4v7.4v7.4v7.4v7.4v7.4v7.4v7.4v7.4v7.4v7.4v7.4v7.4v7.4v7.4v7.4v7.4v7.4v7.4v7.4v7.4v7.4v7.4v7.4
			v7.4v7.4v7.4v7.4h-7.4h-7.4h-7.4H508h-7.4h-7.4h-7.4h-7.4h-7.4h-7.4h-7.4h-7.4h-7.4h-7.4H427h-7.4h-7.4h-7.4h-7.4h-7.4h-7.4h-7.4
			h-7.4h-7.4h-7.4H346h-7.4h-7.4H324h-7.4h-7.4v-7.4v-7.4v-7.4V219v-7.4v-7.4V197v-7.4v-7.4v-7.4v-7.4v-7.4v-7.4v-7.4v-7.4v-7.4
			v-7.4V116v-7.4v-7.4v-7.4v-7.4v-7.4v-7.4v-7.4v-7.4v-7.4v-7.4V35h7.4h7.4h7.4h7.4h7.4h7.4h7.4h7.4h7.4h7.4h7.4h7.4h7.4h7.4h7.4
			h7.4h7.4h7.4h7.4h7.4h7.4h7.4h7.4h7.4h7.4h7.4h7.4h7.4h7.4h7.4h7.4V42.3z"/>
		<path class="st1" d="M832,20.2h-7.4h-7.4h-7.4h-7.4h-7.4h-7.4h-7.4h-7.4h-7.4h-7.4H751h-7.4h-7.4h-7.4h-7.4h-7.4h-7.4h-7.4h-7.4
			h-7.4h-7.4H670h-7.4h-7.4h-7.4h-7.4h-7.4h-7.4h-7.4h-7.4h-7.4h-7.4H589v7.4h-7.4V35v7.4v7.4v7.4v7.4v7.4v7.4v7.4v7.4v7.4v7.4v7.4
			v7.4v7.4v7.4v7.4v7.4v7.4v7.4v7.4v7.4v7.4v7.4v7.4v7.4v7.4v7.4v7.4v7.4v7.4v7.4h7.4v7.4h7.4h7.4h7.4h7.4h7.4h7.4h7.4h7.4h7.4h7.4
			h7.4h7.4h7.4h7.4h7.4h7.4h7.4h7.4h7.4h7.4h7.4h7.4h7.4h7.4h7.4h7.4h7.4h7.4h7.4h7.4h7.4h7.4h7.4v-7.4h7.4v-7.4v-7.4v-7.4v-7.4V219
			v-7.4v-7.4V197v-7.4v-7.4v-7.4v-7.4v-7.4v-7.4v-7.4v-7.4v-7.4v-7.4V116v-7.4v-7.4v-7.4v-7.4v-7.4v-7.4v-7.4v-7.4v-7.4v-7.4V35
			v-7.4H832V20.2z M824.6,42.3v7.4v7.4v7.4v7.4v7.4v7.4v7.4v7.4v7.4v7.4v7.4v7.4v7.4v7.4v7.4v7.4v7.4v7.4v7.4v7.4v7.4v7.4v7.4v7.4
			v7.4v7.4v7.4v7.4h-7.4h-7.4h-7.4h-7.4h-7.4h-7.4h-7.4h-7.4h-7.4H751h-7.4h-7.4h-7.4h-7.4h-7.4h-7.4h-7.4h-7.4h-7.4h-7.4H670h-7.4
			h-7.4h-7.4h-7.4h-7.4h-7.4h-7.4h-7.4h-7.4h-7.4v-7.4v-7.4v-7.4V219v-7.4v-7.4V197v-7.4v-7.4v-7.4v-7.4v-7.4v-7.4v-7.4v-7.4v-7.4
			v-7.4V116v-7.4v-7.4v-7.4v-7.4v-7.4v-7.4v-7.4v-7.4v-7.4v-7.4V35h7.4h7.4h7.4h7.4h7.4h7.4h7.4h7.4h7.4h7.4h7.4h7.4h7.4h7.4h7.4
			h7.4h7.4h7.4h7.4h7.4h7.4h7.4h7.4h7.4h7.4h7.4h7.4h7.4h7.4h7.4h7.4V42.3z"/>
		<path class="st1" d="M1119.1,27.6v-7.4h-7.4h-7.4h-7.4h-7.4h-7.4h-7.4h-7.4h-7.4h-7.4h-7.4h-7.4h-7.4h-7.4h-7.4h-7.4h-7.4H994
			h-7.4h-7.4h-7.4h-7.4h-7.4h-7.4h-7.4h-7.4h-7.4h-7.4H913h-7.4h-7.4h-7.4h-7.4h-7.4v7.4h-7.4V35v7.4v7.4v7.4v7.4v7.4v7.4v7.4v7.4
			v7.4v7.4v7.4v7.4v7.4v7.4v7.4v7.4v7.4v7.4v7.4v7.4v7.4v7.4v7.4v7.4v7.4v7.4v7.4v7.4v7.4v7.4h7.4v7.4h7.4h7.4h7.4h7.4h7.4h7.4h7.4
			h7.4h7.4h7.4h7.4h7.4h7.4h7.4h7.4h7.4h7.4h7.4h7.4h7.4h7.4h7.4h7.4h7.4h7.4h7.4h7.4h7.4h7.4h7.4h7.4h7.4h7.4v-7.4h7.4v-7.4v-7.4
			v-7.4v-7.4V219v-7.4v-7.4V197v-7.4v-7.4v-7.4v-7.4v-7.4v-7.4v-7.4v-7.4v-7.4v-7.4V116v-7.4v-7.4v-7.4v-7.4v-7.4v-7.4v-7.4v-7.4
			v-7.4v-7.4V35v-7.4H1119.1z M1111.8,42.3v7.4v7.4v7.4v7.4v7.4v7.4v7.4v7.4v7.4v7.4v7.4v7.4v7.4v7.4v7.4v7.4v7.4v7.4v7.4v7.4v7.4
			v7.4v7.4v7.4v7.4v7.4v7.4v7.4h-7.4h-7.4h-7.4h-7.4h-7.4h-7.4h-7.4h-7.4h-7.4h-7.4h-7.4h-7.4h-7.4h-7.4h-7.4H994h-7.4h-7.4h-7.4
			h-7.4h-7.4h-7.4h-7.4h-7.4h-7.4h-7.4H913h-7.4h-7.4h-7.4h-7.4v-7.4v-7.4v-7.4V219v-7.4v-7.4V197v-7.4v-7.4v-7.4v-7.4v-7.4v-7.4
			v-7.4v-7.4v-7.4v-7.4V116v-7.4v-7.4v-7.4v-7.4v-7.4v-7.4v-7.4v-7.4v-7.4v-7.4V35h7.4h7.4h7.4h7.4h7.4h7.4h7.4h7.4h7.4h7.4h7.4h7.4
			h7.4h7.4h7.4h7.4h7.4h7.4h7.4h7.4h7.4h7.4h7.4h7.4h7.4h7.4h7.4h7.4h7.4h7.4h7.4V42.3z"/>
		<path class="st1" d="M235.6,42.3h-7.4h-7.4h-7.4h-7.4h-7.4h-7.4h-7.4h-7.4h-7.4H162h-7.4h-7.4h-7.4h-7.4h-7.4h-7.4h-7.4h-7.4h-7.4
			h-7.4H81h-7.4h-7.4h-7.4h-7.4h-7.4h-7.4v7.4h-7.4v7.4v7.4v7.4v7.4v7.4v7.4v7.4v7.4v7.4v7.4v7.4v7.4v7.4v7.4v7.4v7.4v7.4v7.4v7.4
			v7.4v7.4v7.4v7.4v7.4v7.4h7.4v7.4h7.4h7.4h7.4h7.4h7.4H81h7.4h7.4h7.4h7.4h7.4h7.4h7.4h7.4h7.4h7.4h7.4h7.4h7.4h7.4h7.4h7.4h7.4
			h7.4h7.4h7.4h7.4v-7.4h7.4v-7.4V219v-7.4v-7.4V197v-7.4v-7.4v-7.4v-7.4v-7.4v-7.4v-7.4v-7.4v-7.4v-7.4V116v-7.4v-7.4v-7.4v-7.4
			v-7.4v-7.4v-7.4v-7.4v-7.4h-7.4V42.3z M228.2,71.8h-7.4v7.4v7.4v7.4v7.4v7.4v7.4v7.4v7.4v7.4v7.4v7.4v7.4v7.4v7.4v7.4v7.4v7.4v7.4
			v7.4h7.4v7.4h-7.4v7.4h-7.4V219h-7.4h-7.4h-7.4h-7.4h-7.4h-7.4H162h-7.4h-7.4h-7.4h-7.4h-7.4h-7.4h-7.4h-7.4h-7.4h-7.4H81h-7.4
			h-7.4h-7.4v7.4h-7.4V219h-7.4v-7.4h7.4v-7.4V197v-7.4v-7.4v-7.4v-7.4v-7.4v-7.4v-7.4v-7.4v-7.4v-7.4V116v-7.4v-7.4v-7.4v-7.4v-7.4
			v-7.4h-7.4v-7.4h7.4v-7.4h7.4v7.4h7.4h7.4H81h7.4h7.4h7.4h7.4h7.4h7.4h7.4h7.4h7.4h7.4h7.4h7.4h7.4h7.4h7.4h7.4h7.4h7.4v-7.4h7.4
			v7.4h7.4V71.8z"/>
		<path class="st1" d="M522.8,42.3h-7.4H508h-7.4h-7.4h-7.4h-7.4h-7.4h-7.4h-7.4h-7.4h-7.4h-7.4H427h-7.4h-7.4h-7.4h-7.4h-7.4h-7.4
			h-7.4h-7.4h-7.4h-7.4H346h-7.4h-7.4H324v7.4h-7.4v7.4v7.4v7.4v7.4v7.4v7.4v7.4v7.4v7.4v7.4v7.4v7.4v7.4v7.4v7.4v7.4v7.4v7.4v7.4
			v7.4v7.4v7.4v7.4v7.4v7.4h7.4v7.4h7.4h7.4h7.4h7.4h7.4h7.4h7.4h7.4h7.4h7.4h7.4h7.4h7.4h7.4h7.4h7.4h7.4h7.4h7.4h7.4h7.4h7.4h7.4
			h7.4h7.4h7.4h7.4v-7.4h7.4v-7.4V219v-7.4v-7.4V197v-7.4v-7.4v-7.4v-7.4v-7.4v-7.4v-7.4v-7.4v-7.4v-7.4V116v-7.4v-7.4v-7.4v-7.4
			v-7.4v-7.4v-7.4v-7.4v-7.4h-7.4V42.3z M515.4,71.8H508v7.4v7.4v7.4v7.4v7.4v7.4v7.4v7.4v7.4v7.4v7.4v7.4v7.4v7.4v7.4v7.4v7.4v7.4
			v7.4h7.4v7.4H508v7.4h-7.4V219h-7.4h-7.4h-7.4h-7.4h-7.4h-7.4h-7.4h-7.4h-7.4H427h-7.4h-7.4h-7.4h-7.4h-7.4h-7.4h-7.4h-7.4h-7.4
			h-7.4H346v7.4h-7.4V219h-7.4v-7.4h7.4v-7.4V197v-7.4h-7.4v-7.4h7.4v-7.4v-7.4v-7.4h-7.4v-7.4h7.4v-7.4v-7.4v-7.4h-7.4v-7.4h7.4
			V116v-7.4h-7.4v-7.4h7.4v-7.4v-7.4v-7.4v-7.4h-7.4v-7.4h7.4v-7.4h7.4v7.4h7.4h7.4h7.4h7.4h7.4h7.4h7.4h7.4h7.4h7.4h7.4h7.4h7.4
			h7.4h7.4h7.4h7.4h7.4h7.4h7.4h7.4v-7.4h7.4v7.4h7.4V71.8z"/>
		<path class="st1" d="M809.9,42.3h-7.4h-7.4h-7.4h-7.4h-7.4h-7.4h-7.4H751h-7.4h-7.4h-7.4h-7.4h-7.4h-7.4h-7.4h-7.4h-7.4h-7.4H670
			h-7.4h-7.4h-7.4h-7.4h-7.4h-7.4h-7.4h-7.4v7.4h-7.4v7.4v7.4v7.4v7.4v7.4v7.4v7.4v7.4v7.4v7.4v7.4v7.4v7.4v7.4v7.4v7.4v7.4v7.4v7.4
			v7.4v7.4v7.4v7.4v7.4v7.4h7.4v7.4h7.4h7.4h7.4h7.4h7.4h7.4h7.4h7.4h7.4h7.4h7.4h7.4h7.4h7.4h7.4h7.4h7.4h7.4h7.4h7.4h7.4h7.4h7.4
			h7.4h7.4h7.4h7.4v-7.4h7.4v-7.4V219v-7.4v-7.4V197v-7.4v-7.4v-7.4v-7.4v-7.4v-7.4v-7.4v-7.4v-7.4v-7.4V116v-7.4v-7.4v-7.4v-7.4
			v-7.4v-7.4v-7.4v-7.4v-7.4h-7.4V42.3z M802.5,71.8h-7.4v7.4v7.4v7.4v7.4v7.4v7.4v7.4v7.4v7.4v7.4v7.4v7.4v7.4v7.4v7.4v7.4v7.4v7.4
			v7.4h7.4v7.4h-7.4v7.4h-7.4V219h-7.4h-7.4h-7.4h-7.4H751h-7.4h-7.4h-7.4h-7.4h-7.4h-7.4h-7.4h-7.4h-7.4h-7.4H670h-7.4h-7.4h-7.4
			h-7.4h-7.4v7.4h-7.4V219h-7.4v-7.4h7.4v-7.4V197v-7.4v-7.4v-7.4v-7.4v-7.4v-7.4v-7.4v-7.4v-7.4v-7.4V116v-7.4v-7.4v-7.4v-7.4v-7.4
			v-7.4h-7.4v-7.4h7.4v-7.4h7.4v7.4h7.4h7.4h7.4h7.4h7.4h7.4h7.4h7.4h7.4h7.4h7.4h7.4h7.4h7.4h7.4h7.4h7.4h7.4h7.4h7.4h7.4v-7.4h7.4
			v7.4h7.4V71.8z"/>
		<path class="st1" d="M1097,42.3h-7.4h-7.4h-7.4h-7.4h-7.4h-7.4h-7.4h-7.4h-7.4h-7.4h-7.4h-7.4h-7.4H994h-7.4h-7.4h-7.4h-7.4h-7.4
			h-7.4h-7.4h-7.4h-7.4h-7.4H913h-7.4h-7.4v7.4h-7.4v7.4v7.4v7.4v7.4v7.4v7.4v7.4v7.4v7.4v7.4v7.4v7.4v7.4v7.4v7.4v7.4v7.4v7.4v7.4
			v7.4v7.4v7.4v7.4v7.4v7.4h7.4v7.4h7.4h7.4h7.4h7.4h7.4h7.4h7.4h7.4h7.4h7.4h7.4h7.4h7.4h7.4h7.4h7.4h7.4h7.4h7.4h7.4h7.4h7.4h7.4
			h7.4h7.4h7.4h7.4v-7.4h7.4v-7.4V219v-7.4v-7.4V197v-7.4v-7.4v-7.4v-7.4v-7.4v-7.4v-7.4v-7.4v-7.4v-7.4V116v-7.4v-7.4v-7.4v-7.4
			v-7.4v-7.4v-7.4v-7.4v-7.4h-7.4V42.3z M1089.7,71.8h-7.4v7.4v7.4v7.4h7.4v7.4h-7.4v7.4v7.4v7.4v7.4h7.4v7.4h-7.4v7.4v7.4h7.4v7.4
			h-7.4v7.4v7.4h7.4v7.4h-7.4v7.4v7.4v7.4v7.4h7.4v7.4h-7.4v7.4h-7.4V219h-7.4h-7.4h-7.4h-7.4h-7.4h-7.4h-7.4h-7.4h-7.4h-7.4H994
			h-7.4h-7.4h-7.4h-7.4h-7.4h-7.4h-7.4h-7.4h-7.4h-7.4v7.4H913V219h-7.4v-7.4h7.4v-7.4V197v-7.4h-7.4v-7.4h7.4v-7.4v-7.4v-7.4h-7.4
			v-7.4h7.4v-7.4v-7.4v-7.4h-7.4v-7.4h7.4V116v-7.4h-7.4v-7.4h7.4v-7.4v-7.4v-7.4v-7.4h-7.4v-7.4h7.4v-7.4h7.4v7.4h7.4h7.4h7.4h7.4
			h7.4v-7.4h7.4v7.4h7.4h7.4h7.4h7.4v-7.4h7.4v7.4h7.4h7.4h7.4h7.4v-7.4h7.4v7.4h7.4h7.4h7.4h7.4h7.4v-7.4h7.4v7.4h7.4V71.8z"/>
		<polygon class="st1" points="117.8,71.8 110.4,71.8 103.1,71.8 95.7,71.8 88.4,71.8 81,71.8 73.6,71.8 66.3,71.8 58.9,71.8 
			58.9,79.1 58.9,86.5 58.9,93.9 58.9,101.2 58.9,108.6 58.9,116 58.9,123.3 58.9,130.7 58.9,138.1 58.9,145.4 58.9,152.8 
			58.9,160.1 58.9,167.5 58.9,174.9 58.9,182.2 58.9,189.6 58.9,197 58.9,204.3 58.9,211.7 66.3,211.7 73.6,211.7 81,211.7 
			88.4,211.7 95.7,211.7 103.1,211.7 110.4,211.7 117.8,211.7 125.2,211.7 132.5,211.7 132.5,204.3 132.5,197 132.5,189.6 
			125.2,189.6 125.2,182.2 132.5,182.2 132.5,174.9 132.5,167.5 132.5,160.1 125.2,160.1 125.2,152.8 132.5,152.8 132.5,145.4 
			132.5,138.1 132.5,130.7 125.2,130.7 125.2,123.3 132.5,123.3 132.5,116 132.5,108.6 125.2,108.6 125.2,101.2 132.5,101.2 
			132.5,93.9 132.5,86.5 132.5,79.1 132.5,71.8 125.2,71.8 		"/>
		<polygon class="st1" points="198.8,71.8 191.4,71.8 184.1,71.8 176.7,71.8 169.3,71.8 162,71.8 154.6,71.8 147.3,71.8 139.9,71.8 
			139.9,79.1 139.9,86.5 139.9,93.9 147.3,93.9 147.3,101.2 139.9,101.2 139.9,108.6 139.9,116 139.9,123.3 139.9,130.7 
			147.3,130.7 147.3,138.1 139.9,138.1 139.9,145.4 139.9,152.8 147.3,152.8 147.3,160.1 139.9,160.1 139.9,167.5 139.9,174.9 
			147.3,174.9 147.3,182.2 139.9,182.2 139.9,189.6 139.9,197 139.9,204.3 139.9,211.7 147.3,211.7 154.6,211.7 162,211.7 
			169.3,211.7 176.7,211.7 184.1,211.7 191.4,211.7 198.8,211.7 206.2,211.7 213.5,211.7 213.5,204.3 213.5,197 213.5,189.6 
			213.5,182.2 213.5,174.9 213.5,167.5 213.5,160.1 213.5,152.8 213.5,145.4 213.5,138.1 213.5,130.7 213.5,123.3 213.5,116 
			213.5,108.6 213.5,101.2 213.5,93.9 213.5,86.5 213.5,79.1 213.5,71.8 206.2,71.8 		"/>
		<polygon class="st1" points="485.9,71.8 478.6,71.8 471.2,71.8 463.9,71.8 456.5,71.8 449.1,71.8 441.8,71.8 434.4,71.8 427,71.8 
			419.7,71.8 412.3,71.8 404.9,71.8 397.6,71.8 390.2,71.8 382.9,71.8 375.5,71.8 368.1,71.8 360.8,71.8 353.4,71.8 346,71.8 
			346,79.1 346,86.5 346,93.9 353.4,93.9 353.4,101.2 346,101.2 346,108.6 346,116 346,123.3 346,130.7 353.4,130.7 360.8,130.7 
			368.1,130.7 375.5,130.7 375.5,123.3 382.9,123.3 382.9,130.7 390.2,130.7 397.6,130.7 404.9,130.7 412.3,130.7 412.3,123.3 
			419.7,123.3 419.7,130.7 427,130.7 434.4,130.7 441.8,130.7 441.8,123.3 449.1,123.3 449.1,130.7 456.5,130.7 463.9,130.7 
			471.2,130.7 478.6,130.7 485.9,130.7 493.3,130.7 500.7,130.7 500.7,123.3 500.7,116 500.7,108.6 500.7,101.2 500.7,93.9 
			500.7,86.5 500.7,79.1 500.7,71.8 493.3,71.8 		"/>
		<polygon class="st1" points="692.1,71.8 684.7,71.8 677.4,71.8 670,71.8 662.6,71.8 655.3,71.8 647.9,71.8 640.6,71.8 633.2,71.8 
			633.2,79.1 633.2,86.5 633.2,93.9 633.2,101.2 633.2,108.6 633.2,116 633.2,123.3 633.2,130.7 633.2,138.1 633.2,145.4 
			633.2,152.8 633.2,160.1 633.2,167.5 633.2,174.9 633.2,182.2 633.2,189.6 633.2,197 633.2,204.3 633.2,211.7 640.6,211.7 
			647.9,211.7 655.3,211.7 662.6,211.7 670,211.7 677.4,211.7 684.7,211.7 692.1,211.7 699.5,211.7 706.8,211.7 706.8,204.3 
			706.8,197 706.8,189.6 699.5,189.6 699.5,182.2 706.8,182.2 706.8,174.9 706.8,167.5 706.8,160.1 699.5,160.1 699.5,152.8 
			706.8,152.8 706.8,145.4 706.8,138.1 706.8,130.7 699.5,130.7 699.5,123.3 706.8,123.3 706.8,116 706.8,108.6 699.5,108.6 
			699.5,101.2 706.8,101.2 706.8,93.9 706.8,86.5 706.8,79.1 706.8,71.8 699.5,71.8 		"/>
		<polygon class="st1" points="773.1,71.8 765.7,71.8 758.4,71.8 751,71.8 743.6,71.8 736.3,71.8 728.9,71.8 721.5,71.8 714.2,71.8 
			714.2,79.1 714.2,86.5 714.2,93.9 721.5,93.9 721.5,101.2 714.2,101.2 714.2,108.6 714.2,116 714.2,123.3 714.2,130.7 
			721.5,130.7 721.5,138.1 714.2,138.1 714.2,145.4 714.2,152.8 721.5,152.8 721.5,160.1 714.2,160.1 714.2,167.5 714.2,174.9 
			721.5,174.9 721.5,182.2 714.2,182.2 714.2,189.6 714.2,197 714.2,204.3 714.2,211.7 721.5,211.7 728.9,211.7 736.3,211.7 
			743.6,211.7 751,211.7 758.4,211.7 765.7,211.7 773.1,211.7 780.4,211.7 787.8,211.7 787.8,204.3 787.8,197 787.8,189.6 
			787.8,182.2 787.8,174.9 787.8,167.5 787.8,160.1 787.8,152.8 787.8,145.4 787.8,138.1 787.8,130.7 787.8,123.3 787.8,116 
			787.8,108.6 787.8,101.2 787.8,93.9 787.8,86.5 787.8,79.1 787.8,71.8 780.4,71.8 		"/>
		<polygon class="st1" points="1060.2,71.8 1052.9,71.8 1045.5,71.8 1038.1,71.8 1030.8,71.8 1030.8,79.1 1023.4,79.1 1023.4,71.8 
			1016.1,71.8 1008.7,71.8 1008.7,79.1 1001.3,79.1 1001.3,71.8 994,71.8 994,79.1 986.6,79.1 986.6,71.8 979.2,71.8 971.9,71.8 
			971.9,79.1 964.5,79.1 964.5,71.8 957.2,71.8 949.8,71.8 942.4,71.8 935.1,71.8 927.7,71.8 920.3,71.8 920.3,79.1 920.3,86.5 
			920.3,93.9 927.7,93.9 927.7,101.2 920.3,101.2 920.3,108.6 920.3,116 920.3,123.3 920.3,130.7 927.7,130.7 935.1,130.7 
			942.4,130.7 949.8,130.7 957.2,130.7 964.5,130.7 971.9,130.7 979.2,130.7 986.6,130.7 994,130.7 1001.3,130.7 1008.7,130.7 
			1016.1,130.7 1023.4,130.7 1030.8,130.7 1038.1,130.7 1045.5,130.7 1052.9,130.7 1060.2,130.7 1067.6,130.7 1075,130.7 
			1075,123.3 1075,116 1075,108.6 1067.6,108.6 1067.6,101.2 1075,101.2 1075,93.9 1075,86.5 1075,79.1 1075,71.8 1067.6,71.8 		"/>
		<polygon class="st1" points="485.9,138.1 478.6,138.1 471.2,138.1 463.9,138.1 456.5,138.1 456.5,145.4 449.1,145.4 449.1,138.1 
			441.8,138.1 434.4,138.1 427,138.1 419.7,138.1 412.3,138.1 412.3,145.4 404.9,145.4 404.9,138.1 397.6,138.1 390.2,138.1 
			382.9,138.1 375.5,138.1 375.5,145.4 368.1,145.4 368.1,138.1 360.8,138.1 353.4,138.1 346,138.1 346,145.4 346,152.8 
			353.4,152.8 353.4,160.1 346,160.1 346,167.5 346,174.9 353.4,174.9 353.4,182.2 346,182.2 346,189.6 346,197 346,204.3 
			346,211.7 353.4,211.7 360.8,211.7 368.1,211.7 375.5,211.7 382.9,211.7 390.2,211.7 397.6,211.7 404.9,211.7 412.3,211.7 
			419.7,211.7 427,211.7 434.4,211.7 441.8,211.7 449.1,211.7 456.5,211.7 463.9,211.7 471.2,211.7 478.6,211.7 485.9,211.7 
			493.3,211.7 500.7,211.7 500.7,204.3 500.7,197 500.7,189.6 500.7,182.2 500.7,174.9 500.7,167.5 500.7,160.1 500.7,152.8 
			500.7,145.4 500.7,138.1 493.3,138.1 		"/>
		<polygon class="st1" points="1060.2,138.1 1052.9,138.1 1045.5,138.1 1038.1,138.1 1030.8,138.1 1023.4,138.1 1016.1,138.1 
			1008.7,138.1 1001.3,138.1 994,138.1 986.6,138.1 979.2,138.1 971.9,138.1 964.5,138.1 957.2,138.1 949.8,138.1 942.4,138.1 
			935.1,138.1 927.7,138.1 920.3,138.1 920.3,145.4 920.3,152.8 927.7,152.8 927.7,160.1 920.3,160.1 920.3,167.5 920.3,174.9 
			927.7,174.9 927.7,182.2 920.3,182.2 920.3,189.6 920.3,197 920.3,204.3 920.3,211.7 927.7,211.7 935.1,211.7 942.4,211.7 
			949.8,211.7 957.2,211.7 964.5,211.7 971.9,211.7 979.2,211.7 986.6,211.7 994,211.7 1001.3,211.7 1008.7,211.7 1016.1,211.7 
			1023.4,211.7 1030.8,211.7 1038.1,211.7 1045.5,211.7 1052.9,211.7 1060.2,211.7 1067.6,211.7 1075,211.7 1075,204.3 1075,197 
			1075,189.6 1067.6,189.6 1067.6,182.2 1075,182.2 1075,174.9 1075,167.5 1075,160.1 1067.6,160.1 1067.6,152.8 1075,152.8 
			1075,145.4 1075,138.1 1067.6,138.1 		"/>
	</g>
	<g>
		<path class="st2" d="M257.7,12.9h-7.4H243h-7.4h-7.4h-7.4h-7.4h-7.4h-7.4h-7.4h-7.4h-7.4h-7.4H162h-7.4h-7.4h-7.4h-7.4h-7.4h-7.4
			h-7.4h-7.4h-7.4h-7.4H81h-7.4h-7.4h-7.4h-7.4h-7.4h-7.4h-7.4h-7.4h-7.4H7.4H0v7.4v7.4V35v7.4v7.4v7.4v7.4v7.4v7.4v7.4v7.4v7.4v7.4
			v7.4v7.4v7.4v7.4v7.4v7.4v7.4v7.4v7.4v7.4v7.4v7.4v7.4v7.4v7.4v7.4v7.4v7.4v7.4v7.4v7.4v7.4h7.4h7.4h7.4h7.4h7.4h7.4h7.4h7.4h7.4
			h7.4H81h7.4h7.4h7.4h7.4h7.4h7.4h7.4h7.4h7.4h7.4h7.4h7.4h7.4h7.4h7.4h7.4h7.4h7.4h7.4h7.4h7.4h7.4h7.4h7.4h7.4h7.4v-7.4v-7.4
			v-7.4v-7.4v-7.4v-7.4V219v-7.4v-7.4V197v-7.4v-7.4v-7.4v-7.4v-7.4v-7.4v-7.4v-7.4v-7.4v-7.4V116v-7.4v-7.4v-7.4v-7.4v-7.4v-7.4
			v-7.4v-7.4v-7.4v-7.4V35v-7.4v-7.4v-7.4h-7.4H257.7z M265.1,35v7.4v7.4v7.4v7.4v7.4v7.4v7.4v7.4v7.4v7.4v7.4v7.4v7.4v7.4v7.4v7.4
			v7.4v7.4v7.4v7.4v7.4v7.4v7.4v7.4v7.4v7.4v7.4v7.4v7.4v7.4h-7.4v7.4h-7.4H243h-7.4h-7.4h-7.4h-7.4h-7.4h-7.4h-7.4h-7.4h-7.4h-7.4
			H162h-7.4h-7.4h-7.4h-7.4h-7.4h-7.4h-7.4h-7.4h-7.4h-7.4H81h-7.4h-7.4h-7.4h-7.4h-7.4h-7.4h-7.4h-7.4h-7.4v-7.4H7.4v-7.4v-7.4
			v-7.4v-7.4V219v-7.4v-7.4V197v-7.4v-7.4v-7.4v-7.4v-7.4v-7.4v-7.4v-7.4v-7.4v-7.4V116v-7.4v-7.4v-7.4v-7.4v-7.4v-7.4v-7.4v-7.4
			v-7.4v-7.4V35v-7.4h7.4v-7.4h7.4h7.4h7.4h7.4h7.4h7.4h7.4h7.4H81h7.4h7.4h7.4h7.4h7.4h7.4h7.4h7.4h7.4h7.4h7.4h7.4h7.4h7.4h7.4
			h7.4h7.4h7.4h7.4h7.4h7.4h7.4h7.4h7.4v7.4h7.4V35z"/>
		<path class="st2" d="M544.8,12.9h-7.4h-7.4h-7.4h-7.4H508h-7.4h-7.4h-7.4h-7.4h-7.4h-7.4h-7.4h-7.4h-7.4h-7.4H427h-7.4h-7.4h-7.4
			h-7.4h-7.4h-7.4h-7.4h-7.4h-7.4h-7.4H346h-7.4h-7.4H324h-7.4h-7.4h-7.4h-7.4h-7.4v7.4v7.4V35v7.4v7.4v7.4v7.4v7.4v7.4v7.4v7.4v7.4
			v7.4v7.4v7.4v7.4v7.4v7.4v7.4v7.4v7.4v7.4v7.4v7.4v7.4v7.4v7.4v7.4v7.4v7.4v7.4v7.4v7.4v7.4v7.4h7.4h7.4h7.4h7.4h7.4h7.4h7.4h7.4
			h7.4h7.4h7.4h7.4h7.4h7.4h7.4h7.4h7.4h7.4h7.4h7.4h7.4h7.4h7.4h7.4h7.4h7.4h7.4h7.4h7.4h7.4h7.4h7.4h7.4h7.4h7.4h7.4h7.4v-7.4
			v-7.4v-7.4v-7.4v-7.4v-7.4V219v-7.4v-7.4V197v-7.4v-7.4v-7.4v-7.4v-7.4v-7.4v-7.4v-7.4v-7.4v-7.4V116v-7.4v-7.4v-7.4v-7.4v-7.4
			v-7.4v-7.4v-7.4v-7.4v-7.4V35v-7.4v-7.4v-7.4h-7.4H544.8z M552.2,35v7.4v7.4v7.4v7.4v7.4v7.4v7.4v7.4v7.4v7.4v7.4v7.4v7.4v7.4v7.4
			v7.4v7.4v7.4v7.4v7.4v7.4v7.4v7.4v7.4v7.4v7.4v7.4v7.4v7.4v7.4h-7.4v7.4h-7.4h-7.4h-7.4h-7.4H508h-7.4h-7.4h-7.4h-7.4h-7.4h-7.4
			h-7.4h-7.4h-7.4h-7.4H427h-7.4h-7.4h-7.4h-7.4h-7.4h-7.4h-7.4h-7.4h-7.4h-7.4H346h-7.4h-7.4H324h-7.4h-7.4h-7.4v-7.4h-7.4v-7.4
			v-7.4v-7.4v-7.4V219v-7.4v-7.4V197v-7.4v-7.4v-7.4v-7.4v-7.4v-7.4v-7.4v-7.4v-7.4v-7.4V116v-7.4v-7.4v-7.4v-7.4v-7.4v-7.4v-7.4
			v-7.4v-7.4v-7.4V35v-7.4h7.4v-7.4h7.4h7.4h7.4h7.4h7.4h7.4h7.4h7.4h7.4h7.4h7.4h7.4h7.4h7.4h7.4h7.4h7.4h7.4h7.4h7.4h7.4h7.4h7.4
			h7.4h7.4h7.4h7.4h7.4h7.4h7.4h7.4h7.4h7.4v7.4h7.4V35z"/>
		<path class="st2" d="M832,12.9h-7.4h-7.4h-7.4h-7.4h-7.4h-7.4h-7.4h-7.4h-7.4h-7.4H751h-7.4h-7.4h-7.4h-7.4h-7.4h-7.4h-7.4h-7.4
			h-7.4h-7.4H670h-7.4h-7.4h-7.4h-7.4h-7.4h-7.4h-7.4h-7.4h-7.4h-7.4H589h-7.4h-7.4v7.4v7.4V35v7.4v7.4v7.4v7.4v7.4v7.4v7.4v7.4v7.4
			v7.4v7.4v7.4v7.4v7.4v7.4v7.4v7.4v7.4v7.4v7.4v7.4v7.4v7.4v7.4v7.4v7.4v7.4v7.4v7.4v7.4v7.4v7.4h7.4h7.4h7.4h7.4h7.4h7.4h7.4h7.4
			h7.4h7.4h7.4h7.4h7.4h7.4h7.4h7.4h7.4h7.4h7.4h7.4h7.4h7.4h7.4h7.4h7.4h7.4h7.4h7.4h7.4h7.4h7.4h7.4h7.4h7.4h7.4h7.4h7.4v-7.4
			v-7.4v-7.4v-7.4v-7.4v-7.4V219v-7.4v-7.4V197v-7.4v-7.4v-7.4v-7.4v-7.4v-7.4v-7.4v-7.4v-7.4v-7.4V116v-7.4v-7.4v-7.4v-7.4v-7.4
			v-7.4v-7.4v-7.4v-7.4v-7.4V35v-7.4v-7.4v-7.4h-7.4H832z M839.3,35v7.4v7.4v7.4v7.4v7.4v7.4v7.4v7.4v7.4v7.4v7.4v7.4v7.4v7.4v7.4
			v7.4v7.4v7.4v7.4v7.4v7.4v7.4v7.4v7.4v7.4v7.4v7.4v7.4v7.4v7.4H832v7.4h-7.4h-7.4h-7.4h-7.4h-7.4h-7.4h-7.4h-7.4h-7.4h-7.4H751
			h-7.4h-7.4h-7.4h-7.4h-7.4h-7.4h-7.4h-7.4h-7.4h-7.4H670h-7.4h-7.4h-7.4h-7.4h-7.4h-7.4h-7.4h-7.4h-7.4h-7.4H589v-7.4h-7.4v-7.4
			v-7.4v-7.4v-7.4V219v-7.4v-7.4V197v-7.4v-7.4v-7.4v-7.4v-7.4v-7.4v-7.4v-7.4v-7.4v-7.4V116v-7.4v-7.4v-7.4v-7.4v-7.4v-7.4v-7.4
			v-7.4v-7.4v-7.4V35v-7.4h7.4v-7.4h7.4h7.4h7.4h7.4h7.4h7.4h7.4h7.4h7.4h7.4h7.4h7.4h7.4h7.4h7.4h7.4h7.4h7.4h7.4h7.4h7.4h7.4h7.4
			h7.4h7.4h7.4h7.4h7.4h7.4h7.4h7.4h7.4h7.4v7.4h7.4V35z"/>
		<path class="st2" d="M1126.5,12.9h-7.4h-7.4h-7.4h-7.4h-7.4h-7.4h-7.4h-7.4h-7.4h-7.4h-7.4h-7.4h-7.4h-7.4h-7.4h-7.4h-7.4H994
			h-7.4h-7.4h-7.4h-7.4h-7.4h-7.4h-7.4h-7.4h-7.4h-7.4H913h-7.4h-7.4h-7.4h-7.4h-7.4h-7.4h-7.4v7.4v7.4V35v7.4v7.4v7.4v7.4v7.4v7.4
			v7.4v7.4v7.4v7.4v7.4v7.4v7.4v7.4v7.4v7.4v7.4v7.4v7.4v7.4v7.4v7.4v7.4v7.4v7.4v7.4v7.4v7.4v7.4v7.4v7.4v7.4h7.4h7.4h7.4h7.4h7.4
			h7.4h7.4h7.4h7.4h7.4h7.4h7.4h7.4h7.4h7.4h7.4h7.4h7.4h7.4h7.4h7.4h7.4h7.4h7.4h7.4h7.4h7.4h7.4h7.4h7.4h7.4h7.4h7.4h7.4h7.4h7.4
			h7.4v-7.4v-7.4v-7.4v-7.4v-7.4v-7.4V219v-7.4v-7.4V197v-7.4v-7.4v-7.4v-7.4v-7.4v-7.4v-7.4v-7.4v-7.4v-7.4V116v-7.4v-7.4v-7.4
			v-7.4v-7.4v-7.4v-7.4v-7.4v-7.4v-7.4V35v-7.4v-7.4v-7.4H1126.5z M1126.5,35v7.4v7.4v7.4v7.4v7.4v7.4v7.4v7.4v7.4v7.4v7.4v7.4v7.4
			v7.4v7.4v7.4v7.4v7.4v7.4v7.4v7.4v7.4v7.4v7.4v7.4v7.4v7.4v7.4v7.4v7.4h-7.4v7.4h-7.4h-7.4h-7.4h-7.4h-7.4h-7.4h-7.4h-7.4h-7.4
			h-7.4h-7.4h-7.4h-7.4h-7.4h-7.4h-7.4H994h-7.4h-7.4h-7.4h-7.4h-7.4h-7.4h-7.4h-7.4h-7.4h-7.4H913h-7.4h-7.4h-7.4h-7.4h-7.4v-7.4
			h-7.4v-7.4v-7.4v-7.4v-7.4V219v-7.4v-7.4V197v-7.4v-7.4v-7.4v-7.4v-7.4v-7.4v-7.4v-7.4v-7.4v-7.4V116v-7.4v-7.4v-7.4v-7.4v-7.4
			v-7.4v-7.4v-7.4v-7.4v-7.4V35v-7.4h7.4v-7.4h7.4h7.4h7.4h7.4h7.4h7.4h7.4h7.4h7.4h7.4h7.4h7.4h7.4h7.4h7.4h7.4h7.4h7.4h7.4h7.4
			h7.4h7.4h7.4h7.4h7.4h7.4h7.4h7.4h7.4h7.4h7.4h7.4h7.4v7.4h7.4V35z"/>
		<polygon class="st2" points="220.9,57.1 213.5,57.1 213.5,64.4 206.2,64.4 198.8,64.4 191.4,64.4 184.1,64.4 176.7,64.4 
			169.3,64.4 162,64.4 154.6,64.4 147.3,64.4 139.9,64.4 132.5,64.4 125.2,64.4 117.8,64.4 110.4,64.4 103.1,64.4 95.7,64.4 
			88.4,64.4 81,64.4 73.6,64.4 66.3,64.4 58.9,64.4 58.9,57.1 51.5,57.1 51.5,64.4 44.2,64.4 44.2,71.8 51.5,71.8 51.5,79.1 
			58.9,79.1 58.9,71.8 66.3,71.8 73.6,71.8 81,71.8 88.4,71.8 95.7,71.8 103.1,71.8 110.4,71.8 117.8,71.8 125.2,71.8 132.5,71.8 
			132.5,79.1 132.5,86.5 132.5,93.9 132.5,101.2 125.2,101.2 125.2,108.6 132.5,108.6 132.5,116 132.5,123.3 125.2,123.3 
			125.2,130.7 132.5,130.7 132.5,138.1 132.5,145.4 132.5,152.8 125.2,152.8 125.2,160.1 132.5,160.1 132.5,167.5 132.5,174.9 
			132.5,182.2 125.2,182.2 125.2,189.6 132.5,189.6 132.5,197 132.5,204.3 132.5,211.7 139.9,211.7 139.9,204.3 139.9,197 
			139.9,189.6 139.9,182.2 147.3,182.2 147.3,174.9 139.9,174.9 139.9,167.5 139.9,160.1 147.3,160.1 147.3,152.8 139.9,152.8 
			139.9,145.4 139.9,138.1 147.3,138.1 147.3,130.7 139.9,130.7 139.9,123.3 139.9,116 139.9,108.6 139.9,101.2 147.3,101.2 
			147.3,93.9 139.9,93.9 139.9,86.5 139.9,79.1 139.9,71.8 147.3,71.8 154.6,71.8 162,71.8 169.3,71.8 176.7,71.8 184.1,71.8 
			191.4,71.8 198.8,71.8 206.2,71.8 213.5,71.8 213.5,79.1 220.9,79.1 220.9,71.8 228.2,71.8 228.2,64.4 220.9,64.4 		"/>
		<polygon class="st2" points="795.2,57.1 787.8,57.1 787.8,64.4 780.4,64.4 773.1,64.4 765.7,64.4 758.4,64.4 751,64.4 743.6,64.4 
			736.3,64.4 728.9,64.4 721.5,64.4 714.2,64.4 706.8,64.4 699.5,64.4 692.1,64.4 684.7,64.4 677.4,64.4 670,64.4 662.6,64.4 
			655.3,64.4 647.9,64.4 640.6,64.4 633.2,64.4 633.2,57.1 625.8,57.1 625.8,64.4 618.5,64.4 618.5,71.8 625.8,71.8 625.8,79.1 
			633.2,79.1 633.2,71.8 640.6,71.8 647.9,71.8 655.3,71.8 662.6,71.8 670,71.8 677.4,71.8 684.7,71.8 692.1,71.8 699.5,71.8 
			706.8,71.8 706.8,79.1 706.8,86.5 706.8,93.9 706.8,101.2 699.5,101.2 699.5,108.6 706.8,108.6 706.8,116 706.8,123.3 
			699.5,123.3 699.5,130.7 706.8,130.7 706.8,138.1 706.8,145.4 706.8,152.8 699.5,152.8 699.5,160.1 706.8,160.1 706.8,167.5 
			706.8,174.9 706.8,182.2 699.5,182.2 699.5,189.6 706.8,189.6 706.8,197 706.8,204.3 706.8,211.7 699.5,211.7 692.1,211.7 
			684.7,211.7 677.4,211.7 670,211.7 662.6,211.7 655.3,211.7 647.9,211.7 640.6,211.7 633.2,211.7 633.2,204.3 625.8,204.3 
			625.8,211.7 618.5,211.7 618.5,219 625.8,219 625.8,226.4 633.2,226.4 633.2,219 640.6,219 647.9,219 655.3,219 662.6,219 
			670,219 677.4,219 684.7,219 692.1,219 699.5,219 706.8,219 714.2,219 721.5,219 728.9,219 736.3,219 743.6,219 751,219 
			758.4,219 765.7,219 773.1,219 780.4,219 787.8,219 787.8,226.4 795.2,226.4 795.2,219 802.5,219 802.5,211.7 795.2,211.7 
			795.2,204.3 787.8,204.3 787.8,211.7 780.4,211.7 773.1,211.7 765.7,211.7 758.4,211.7 751,211.7 743.6,211.7 736.3,211.7 
			728.9,211.7 721.5,211.7 714.2,211.7 714.2,204.3 714.2,197 714.2,189.6 714.2,182.2 721.5,182.2 721.5,174.9 714.2,174.9 
			714.2,167.5 714.2,160.1 721.5,160.1 721.5,152.8 714.2,152.8 714.2,145.4 714.2,138.1 721.5,138.1 721.5,130.7 714.2,130.7 
			714.2,123.3 714.2,116 714.2,108.6 714.2,101.2 721.5,101.2 721.5,93.9 714.2,93.9 714.2,86.5 714.2,79.1 714.2,71.8 721.5,71.8 
			728.9,71.8 736.3,71.8 743.6,71.8 751,71.8 758.4,71.8 765.7,71.8 773.1,71.8 780.4,71.8 787.8,71.8 787.8,79.1 795.2,79.1 
			795.2,71.8 802.5,71.8 802.5,64.4 795.2,64.4 		"/>
		<path class="st2" d="M1082.3,57.1h-7.4v7.4h-7.4h-7.4h-7.4h-7.4h-7.4v-7.4h-7.4v7.4h-7.4h-7.4h-7.4h-7.4v-7.4H994v7.4h-7.4h-7.4
			h-7.4h-7.4v-7.4h-7.4v7.4h-7.4h-7.4h-7.4h-7.4h-7.4v-7.4H913v7.4h-7.4v7.4h7.4v7.4v7.4v7.4v7.4h-7.4v7.4h7.4v7.4v7.4h-7.4v7.4h7.4
			v7.4v7.4v7.4h-7.4v7.4h7.4v7.4v7.4v7.4h-7.4v7.4h7.4v7.4v7.4v7.4v7.4h7.4v-7.4v-7.4V197v-7.4v-7.4h7.4v-7.4h-7.4v-7.4v-7.4h7.4
			v-7.4h-7.4v-7.4v-7.4h7.4h7.4h7.4h7.4h7.4h7.4h7.4h7.4h7.4h7.4h7.4h7.4h7.4h7.4h7.4h7.4h7.4h7.4h7.4h7.4h7.4v7.4v7.4h-7.4v7.4h7.4
			v7.4v7.4v7.4h-7.4v7.4h7.4v7.4v7.4v7.4v7.4h7.4v-7.4v-7.4V197v-7.4v-7.4h7.4v-7.4h-7.4v-7.4v-7.4h7.4v-7.4h-7.4v-7.4v-7.4h7.4
			v-7.4h-7.4v-7.4V116v-7.4v-7.4h7.4v-7.4h-7.4v-7.4v-7.4v-7.4h7.4v-7.4h-7.4V57.1z M1075,79.1v7.4v7.4v7.4h-7.4v7.4h7.4v7.4v7.4
			v7.4h-7.4h-7.4h-7.4h-7.4h-7.4h-7.4h-7.4h-7.4h-7.4h-7.4H994h-7.4h-7.4h-7.4h-7.4h-7.4h-7.4h-7.4h-7.4h-7.4h-7.4v-7.4V116v-7.4
			v-7.4h7.4v-7.4h-7.4v-7.4v-7.4v-7.4h7.4h7.4h7.4h7.4h7.4h7.4v7.4h7.4v-7.4h7.4h7.4v7.4h7.4v-7.4h7.4v7.4h7.4v-7.4h7.4h7.4v7.4h7.4
			v-7.4h7.4h7.4h7.4h7.4h7.4h7.4V79.1z"/>
		<polygon class="st2" points="485.9,64.4 478.6,64.4 471.2,64.4 463.9,64.4 456.5,64.4 449.1,64.4 441.8,64.4 434.4,64.4 427,64.4 
			419.7,64.4 412.3,64.4 404.9,64.4 397.6,64.4 390.2,64.4 382.9,64.4 375.5,64.4 368.1,64.4 360.8,64.4 353.4,64.4 346,64.4 
			346,57.1 338.7,57.1 338.7,64.4 331.3,64.4 331.3,71.8 338.7,71.8 338.7,79.1 338.7,86.5 338.7,93.9 338.7,101.2 331.3,101.2 
			331.3,108.6 338.7,108.6 338.7,116 338.7,123.3 331.3,123.3 331.3,130.7 338.7,130.7 338.7,138.1 338.7,145.4 338.7,152.8 
			331.3,152.8 331.3,160.1 338.7,160.1 338.7,167.5 338.7,174.9 338.7,182.2 331.3,182.2 331.3,189.6 338.7,189.6 338.7,197 
			338.7,204.3 338.7,211.7 331.3,211.7 331.3,219 338.7,219 338.7,226.4 346,226.4 346,219 353.4,219 360.8,219 368.1,219 
			375.5,219 382.9,219 390.2,219 397.6,219 404.9,219 412.3,219 419.7,219 427,219 434.4,219 441.8,219 449.1,219 456.5,219 
			463.9,219 471.2,219 478.6,219 485.9,219 493.3,219 500.7,219 500.7,211.7 493.3,211.7 485.9,211.7 478.6,211.7 471.2,211.7 
			463.9,211.7 456.5,211.7 449.1,211.7 441.8,211.7 434.4,211.7 427,211.7 419.7,211.7 412.3,211.7 404.9,211.7 397.6,211.7 
			390.2,211.7 382.9,211.7 375.5,211.7 368.1,211.7 360.8,211.7 353.4,211.7 346,211.7 346,204.3 346,197 346,189.6 346,182.2 
			353.4,182.2 353.4,174.9 346,174.9 346,167.5 346,160.1 353.4,160.1 353.4,152.8 346,152.8 346,145.4 346,138.1 353.4,138.1 
			360.8,138.1 368.1,138.1 368.1,145.4 375.5,145.4 375.5,138.1 382.9,138.1 390.2,138.1 397.6,138.1 404.9,138.1 404.9,145.4 
			412.3,145.4 412.3,138.1 419.7,138.1 427,138.1 434.4,138.1 441.8,138.1 449.1,138.1 449.1,145.4 456.5,145.4 456.5,138.1 
			463.9,138.1 471.2,138.1 478.6,138.1 485.9,138.1 493.3,138.1 500.7,138.1 500.7,130.7 493.3,130.7 485.9,130.7 478.6,130.7 
			471.2,130.7 463.9,130.7 456.5,130.7 449.1,130.7 449.1,123.3 441.8,123.3 441.8,130.7 434.4,130.7 427,130.7 419.7,130.7 
			419.7,123.3 412.3,123.3 412.3,130.7 404.9,130.7 397.6,130.7 390.2,130.7 382.9,130.7 382.9,123.3 375.5,123.3 375.5,130.7 
			368.1,130.7 360.8,130.7 353.4,130.7 346,130.7 346,123.3 346,116 346,108.6 346,101.2 353.4,101.2 353.4,93.9 346,93.9 346,86.5 
			346,79.1 346,71.8 353.4,71.8 360.8,71.8 368.1,71.8 375.5,71.8 382.9,71.8 390.2,71.8 397.6,71.8 404.9,71.8 412.3,71.8 
			419.7,71.8 427,71.8 434.4,71.8 441.8,71.8 449.1,71.8 456.5,71.8 463.9,71.8 471.2,71.8 478.6,71.8 485.9,71.8 493.3,71.8 
			500.7,71.8 500.7,64.4 493.3,64.4 		"/>
	</g>
</g>
</svg>
