<svg xmlns="http://www.w3.org/2000/svg" xml:space="preserve" shape-rendering="crispEdges" viewBox="0 0 1133.9 283.5">
	<style type="text/css">
		.st0 {
			fill: var(--gray-50);
		}

		.st2 {
			fill: "currentColor"
		}
	</style>

	<path
		d="M235.6 35H21.8v214.6h229.4V35h-15.6zm7.4 22.1v177.6h-7.4v7.4h-199v-7.4h-7.4V49.4h7.4V42h199.8v7.4h7.4v7.7zM522.8 35H309.2v214.6h229.4V35h-15.8zm7.3 22.1v177.6h-7.4v7.4H324v-7.4h-7.4V49.4h7.4V42h199.8v7.4h7.4v7.7zM809.9 35H596v214.6h229.4V35h-15.5zm7.4 22.1v177.6h-7.4v7.4H610.8v-7.4h-7.4V49.4h7.4V42h199.8v7.4h7.4v7.7zM1104.4 35h-221v214.6h229.4V35h-8.4zm0 22.1v177.6h-7.4v7.4H898.2v-7.4h-7.4V49.4h7.4V42H1098v7.4h7.4v7.7z"
		class="st0" />
	<path
		d="M508 57.1h-7.3v169.3h7.3V219h7.4v-7.3H508V71.8h7.4v-7.4H508zm117.8 29.4v117.8h7.4V79.1h-7.4zm162 0v117.8h7.4V79.1h-7.4zM220.9 204.3V79.1h-7.4v132.6H58.9V79.1h-7.4v132.6h-7.3v7.3h7.3v7.4h7.4V219h154.6v7.4h7.4V219h7.3v-7.3h-7.3zm684.7 7.4h7.4v7.4h-7.4zm162 0H920.3v7.3H1075v-7.3zm14.7 0h7.4v7.4h-7.4zM913 219h7.4v7.4H913z"
		class="st0" />
	<path d="M1075 219h7.4v7.4h-7.4z" class="st0" />

	<path
		d="M257.7 12.9H0v258.9h273.4v-259h-15.7zm7.4 22.1v222h-7.4v7.4H14.4V257h-7V27.6h7.4v-7.4h243.8v7.4h7.4V35zm279.7-22.1H287v258.9h273.8v-259h-16zm7.4 22.1v222h-7.4v7.4h-243V257h-7.4V27.6h7.4v-7.4H546v7.4h7.4V35zM832 12.9H574.2v258.9H848v-259h-16zm7.3 22.1v222H832v7.4H589V257h-7.4V27.6h7.4v-7.4h244.2v7.4h7.4V35zm287.2-22.1H861.2v258.9H1135v-259h-8.5zm0 22.1v222h-7.4v7.4H876V257h-7.4V27.6h7.4v-7.4h244.2v7.4h7.4V35z"
		class="st2" />
	<path
		d="M220.9 57.1h-7.4v7.3H58.9v-7.3h-7.4v7.3h-7.3v7.4h7.3v7.3h7.4v-7.3h73.6v29.4h-7.3v7.4h7.3v14.7h-7.3v7.4h7.3v22.1h-7.3v7.3h7.3v22.1h-7.3v7.4h7.3v22.1h7.4v-29.5h7.4v-7.3h-7.4v-14.8h7.4v-7.3h-7.4v-14.7h7.4v-7.4h-7.4v-29.5h7.4v-7.3h-7.4V71.8h73.6v7.3h7.4v-7.3h7.3v-7.4h-7.3zm574.3 0h-7.4v7.3H633.2v-7.3h-7.4v7.3h-7.3v7.4h7.3v7.3h7.4v-7.3h73.6v29.4h-7.3v7.4h7.3v14.7h-7.3v7.4h7.3v22.1h-7.3v7.3h7.3v22.1h-7.3v7.4h7.3v22.1h-73.6v-7.4h-7.4v7.4h-7.3v7.3h7.3v7.4h7.4V219h154.6v7.4h7.4V219h7.3v-7.3h-7.3v-7.4h-7.4v7.4h-73.6v-29.5h7.3v-7.3h-7.3v-14.8h7.3v-7.3h-7.3v-14.7h7.3v-7.4h-7.3v-29.5h7.3v-7.3h-7.3V71.8h73.6v7.3h7.4v-7.3h7.3v-7.4h-7.3zm287.1 0h-7.4v7.4h-37v-7.4h-7.4v7.4h-29.6v-7.4H994v7.4h-29.6v-7.4H957v7.4h-37v-7.4h-7v7.4h-7.4v7.4h7.4v29.6h-7.4v7.4h7.4v14.8h-7.4v7.4h7.4v22.2h-7.4v7.4h7.4v22.2h-7.4v7.4h7.4v29.6h7.4v-37.7h7.4v-7.4h-7.4V160h7.4v-7.4h-7.4v-14.8h155.4v14.8h-7.4v7.4h7.4v22.2h-7.4v7.4h7.4v29.6h7.4v-37h7.4v-7.4h-7.4V160h7.4v-7.4h-7.4v-14.8h7.4v-7.4h-7.4v-29.2h7.4v-7.4h-7.4V71.6h7.4v-7.4h-7.4v-7.1zm-7.3 22v22.2h-7.4v7.4h7.4v22.2H920v-29.7h7.4v-7.4H920V71.6h44.4V79h7.4v-7.4h14.8V79h7.4v-7.4h7.4V79h7.4v-7.4h14.8V79h7.4v-7.4h44.4v7.5zM485.9 64.4H346v-7.3h-7.3v7.3h-7.4v7.4h7.4v29.4h-7.4v7.4h7.4v14.7h-7.4v7.4h7.4v22.1h-7.4v7.3h7.4v22.1h-7.4v7.4h7.4v22.1h-7.4v7.3h7.4v7.4h7.3V219h154.7v-7.3H346v-29.5h7.4v-7.3H346v-14.8h7.4v-7.3H346v-14.7h22.1v7.3h7.4v-7.3h29.4v7.3h7.4v-7.3h36.8v7.3h7.4v-7.3h44.2v-7.4h-51.6v-7.4h-7.3v7.4h-22.1v-7.4h-7.4v7.4h-29.4v-7.4h-7.4v7.4H346v-29.5h7.4v-7.3H346V71.8h154.7v-7.4h-7.4z"
		class="st2" />
</svg>