<?xml version="1.0" encoding="utf-8"?>
<!-- Generator: Adobe Illustrator 23.1.1, SVG Export Plug-In . SVG Version: 6.00 Build 0)  -->
<svg version="1.1" id="Livello_1" shape-rendering="crispEdges"
	 xmlns="http://www.w3.org/2000/svg" xmlns:xlink="http://www.w3.org/1999/xlink" x="0px" y="0px" viewBox="0 0 1133.9 283.5"
	 style="enable-background:new 0 0 1133.9 283.5;" xml:space="preserve">
<g>
	<polygon points="363.2,0 358.8,0 354.3,0 349.9,0 345.5,0 341,0 336.6,0 332.2,0 327.8,0 323.3,0 318.9,0 314.5,0 310,0 305.6,0 
		301.2,0 296.8,0 292.3,0 287.9,0 283.5,0 279,0 274.6,0 270.2,0 265.7,0 261.3,0 256.9,0 252.5,0 248,0 243.6,0 239.2,0 234.7,0 
		230.3,0 225.9,0 221.5,0 217,0 212.6,0 208.2,0 203.7,0 199.3,0 199.3,4.4 199.3,8.9 199.3,13.3 199.3,17.7 199.3,22.1 199.3,26.6 
		199.3,31 199.3,35.4 199.3,39.9 199.3,44.3 199.3,48.7 199.3,53.1 199.3,57.6 199.3,62 199.3,66.4 203.7,66.4 208.2,66.4 
		212.6,66.4 217,66.4 221.5,66.4 225.9,66.4 230.3,66.4 234.7,66.4 239.2,66.4 243.6,66.4 248,66.4 248,70.9 248,75.3 248,79.7 
		248,84.2 248,88.6 248,93 248,97.4 248,101.9 248,106.3 248,110.7 248,115.2 248,119.6 248,124 248,128.4 248,132.9 248,137.3 
		248,141.7 248,146.2 248,150.6 248,155 248,159.4 248,163.9 248,168.3 248,172.7 248,177.2 248,181.6 248,186 248,190.5 248,194.9 
		248,199.3 248,203.7 248,208.2 248,212.6 248,217 248,221.5 248,225.9 248,230.3 248,234.7 248,239.2 248,243.6 248,248 248,252.5 
		248,256.9 248,261.3 248,265.7 248,270.2 248,274.6 248,279 248,283.5 252.5,283.5 256.9,283.5 261.3,283.5 265.7,283.5 
		270.2,283.5 274.6,283.5 279,283.5 283.5,283.5 287.9,283.5 292.3,283.5 296.8,283.5 301.2,283.5 305.6,283.5 310,283.5 
		314.5,283.5 318.9,283.5 318.9,279 318.9,274.6 318.9,270.2 318.9,265.7 318.9,261.3 318.9,256.9 318.9,252.5 318.9,248 
		318.9,243.6 318.9,239.2 318.9,234.7 318.9,230.3 318.9,225.9 318.9,221.5 318.9,217 318.9,212.6 318.9,208.2 318.9,203.7 
		318.9,199.3 318.9,194.9 318.9,190.5 318.9,186 318.9,181.6 318.9,177.2 318.9,172.7 318.9,168.3 318.9,163.9 318.9,159.4 
		318.9,155 318.9,150.6 318.9,146.2 318.9,141.7 318.9,137.3 318.9,132.9 318.9,128.4 318.9,124 318.9,119.6 318.9,115.2 
		318.9,110.7 318.9,106.3 318.9,101.9 318.9,97.4 318.9,93 318.9,88.6 318.9,84.2 318.9,79.7 318.9,75.3 318.9,70.9 318.9,66.4 
		323.3,66.4 327.8,66.4 332.2,66.4 336.6,66.4 341,66.4 345.5,66.4 349.9,66.4 354.3,66.4 358.8,66.4 363.2,66.4 367.6,66.4 
		372,66.4 372,62 372,57.6 372,53.1 372,48.7 372,44.3 372,39.9 372,35.4 372,31 372,26.6 372,22.1 372,17.7 372,13.3 372,8.9 
		372,4.4 372,0 367.6,0 	"/>
	<path d="M589.1,0h-4.4h-4.4h-4.4h-4.4h-4.4h-4.4h-4.4h-4.4h-4.4h-4.4h-4.4h-4.4h-4.4h-4.4h-4.4h-4.4h-4.4h-4.4h-4.4h-4.4h-4.4h-4.4
		h-4.4h-4.4h-4.4h-4.4h-4.4h-4.4h-4.4h-4.4h-4.4h-4.4h-4.4h-4.4h-4.4h-4.4h-4.4h-4.4h-4.4h-4.4v4.4v4.4v4.4v4.4v4.4v4.4V31v4.4v4.4
		v4.4v4.4v4.4v4.4V62v4.4v4.4v4.4v4.4v4.4v4.4V93v4.4v4.4v4.4v4.4v4.4v4.4v4.4v4.4v4.4v4.4v4.4v4.4v4.4v4.4v4.4v4.4v4.4v4.4v4.4v4.4
		v4.4v4.4v4.4v4.4v4.4v4.4v4.4v4.4v4.4v4.4v4.4v4.4v4.4v4.4v4.4v4.4v4.4v4.4v4.4v4.4v4.4v4.4v4.4h4.4h4.4h4.4h4.4h4.4h4.4h4.4h4.4
		h4.4h4.4h4.4h4.4h4.4h4.4h4.4h4.4h4.4h4.4h4.4h4.4h4.4h4.4h4.4h4.4h4.4h4.4h4.4h4.4h4.4h4.4h4.4h4.4h4.4h4.4h4.4h4.4h4.4h4.4h4.4
		h4.4h4.4h4.4V279v-4.4v-4.4v-4.4v-4.4v-4.4v-4.4V248v-4.4v-4.4v-4.4v-4.4v-4.4v-4.4V217h-4.4h-4.4h-4.4h-4.4h-4.4h-4.4h-4.4h-4.4
		h-4.4h-4.4h-4.4h-4.4h-4.4h-4.4h-4.4h-4.4h-4.4h-4.4h-4.4h-4.4h-4.4h-4.4h-4.4h-4.4h-4.4h-4.4h-4.4v-4.4v-4.4v-4.4v-4.4v-4.4v-4.4
		V186h4.4h4.4h4.4h4.4h4.4h4.4h4.4h4.4h4.4h4.4h4.4h4.4h4.4h4.4h4.4h4.4h4.4h4.4h4.4h4.4h4.4h4.4h4.4h4.4h4.4h4.4h4.4v-4.4v-4.4
		v-4.4v-4.4v-4.4v-4.4V155v-4.4v-4.4v-4.4v-4.4v-4.4v-4.4V124v-4.4v-4.4v-4.4v-4.4v-4.4v-4.4V93v-4.4v-4.4v-4.4v-4.4v-4.4v-4.4V62
		v-4.4v-4.4v-4.4v-4.4v-4.4v-4.4V31v-4.4v-4.4v-4.4v-4.4V8.9V4.4V0h-4.4H589.1z M531.5,70.9v4.4v4.4v4.4v4.4V93v4.4v4.4v4.4v4.4v4.4
		h-4.4h-4.4h-4.4h-4.4h-4.4h-4.4h-4.4h-4.4h-4.4h-4.4h-4.4h-4.4v-4.4v-4.4v-4.4v-4.4V93v-4.4v-4.4v-4.4v-4.4v-4.4v-4.4h4.4h4.4h4.4
		h4.4h4.4h4.4h4.4h4.4h4.4h4.4h4.4h4.4V70.9z"/>
	<polygon points="699.8,0 695.4,0 690.9,0 686.5,0 682.1,0 677.7,0 673.2,0 668.8,0 664.4,0 659.9,0 655.5,0 651.1,0 646.7,0 
		642.2,0 637.8,0 637.8,4.4 637.8,8.9 637.8,13.3 637.8,17.7 637.8,22.1 637.8,26.6 637.8,31 637.8,35.4 637.8,39.9 637.8,44.3 
		637.8,48.7 637.8,53.1 637.8,57.6 637.8,62 637.8,66.4 642.2,66.4 646.7,66.4 651.1,66.4 655.5,66.4 659.9,66.4 664.4,66.4 
		668.8,66.4 673.2,66.4 677.7,66.4 682.1,66.4 686.5,66.4 690.9,66.4 695.4,66.4 699.8,66.4 704.2,66.4 708.7,66.4 708.7,62 
		708.7,57.6 708.7,53.1 708.7,48.7 708.7,44.3 708.7,39.9 708.7,35.4 708.7,31 708.7,26.6 708.7,22.1 708.7,17.7 708.7,13.3 
		708.7,8.9 708.7,4.4 708.7,0 704.2,0 	"/>
	<path d="M930.1,0h-4.4h-4.4h-4.4h-4.4H908h-4.4h-4.4h-4.4h-4.4h-4.4h-4.4H877h-4.4h-4.4h-4.4h-4.4h-4.4h-4.4H846h-4.4h-4.4h-4.4
		h-4.4h-4.4h-4.4H815h-4.4h-4.4h-4.4h-4.4h-4.4h-4.4H784h-4.4h-4.4h-4.4h-4.4h-4.4h-4.4H753h-4.4v4.4v4.4v4.4v4.4v4.4v4.4V31v4.4
		v4.4v4.4v4.4v4.4v4.4V62v4.4h4.4h4.4h4.4h4.4h4.4h4.4h4.4h4.4h4.4h4.4h4.4h4.4h4.4h4.4h4.4h4.4h4.4h4.4h4.4h4.4h4.4h4.4h4.4h4.4
		h4.4h4.4h4.4v4.4v4.4v4.4v4.4v4.4V93v4.4h-4.4h-4.4h-4.4h-4.4H846h-4.4h-4.4h-4.4h-4.4h-4.4h-4.4H815h-4.4h-4.4h-4.4h-4.4h-4.4
		h-4.4H784h-4.4h-4.4h-4.4h-4.4h-4.4h-4.4H753h-4.4v4.4v4.4v4.4v4.4v4.4v4.4v4.4v4.4v4.4v4.4v4.4v4.4v4.4v4.4v4.4v4.4v4.4v4.4v4.4
		v4.4v4.4v4.4v4.4v4.4v4.4v4.4v4.4v4.4v4.4v4.4v4.4v4.4v4.4v4.4v4.4v4.4v4.4v4.4v4.4v4.4v4.4v4.4h4.4h4.4h4.4h4.4h4.4h4.4h4.4h4.4
		h4.4h4.4h4.4h4.4h4.4h4.4h4.4h4.4h4.4h4.4h4.4h4.4h4.4h4.4h4.4h4.4h4.4h4.4h4.4h4.4h4.4h4.4h4.4h4.4h4.4h4.4h4.4h4.4h4.4h4.4h4.4
		h4.4h4.4h4.4V279v-4.4v-4.4v-4.4v-4.4v-4.4v-4.4V248v-4.4v-4.4v-4.4v-4.4v-4.4v-4.4V217v-4.4v-4.4v-4.4v-4.4v-4.4v-4.4V186v-4.4
		v-4.4v-4.4v-4.4v-4.4v-4.4V155v-4.4v-4.4v-4.4v-4.4v-4.4v-4.4V124v-4.4v-4.4v-4.4v-4.4v-4.4v-4.4V93v-4.4v-4.4v-4.4v-4.4v-4.4v-4.4
		V62v-4.4v-4.4v-4.4v-4.4v-4.4v-4.4V31v-4.4v-4.4v-4.4v-4.4V8.9V4.4V0H930.1z M868.1,172.7v4.4v4.4v4.4v4.4v4.4v4.4v4.4v4.4v4.4v4.4
		h-4.4h-4.4h-4.4h-4.4H846h-4.4h-4.4h-4.4h-4.4h-4.4h-4.4H815v-4.4v-4.4v-4.4v-4.4v-4.4v-4.4V186v-4.4v-4.4v-4.4v-4.4h4.4h4.4h4.4
		h4.4h4.4h4.4h4.4h4.4h4.4h4.4h4.4h4.4V172.7z"/>
	<polygon points="699.8,97.4 695.4,97.4 690.9,97.4 686.5,97.4 682.1,97.4 677.7,97.4 673.2,97.4 668.8,97.4 664.4,97.4 659.9,97.4 
		655.5,97.4 651.1,97.4 646.7,97.4 642.2,97.4 637.8,97.4 637.8,101.9 637.8,106.3 637.8,110.7 637.8,115.2 637.8,119.6 637.8,124 
		637.8,128.4 637.8,132.9 637.8,137.3 637.8,141.7 637.8,146.2 637.8,150.6 637.8,155 637.8,159.4 637.8,163.9 637.8,168.3 
		637.8,172.7 637.8,177.2 637.8,181.6 637.8,186 637.8,190.5 637.8,194.9 637.8,199.3 637.8,203.7 637.8,208.2 637.8,212.6 
		637.8,217 637.8,221.5 637.8,225.9 637.8,230.3 637.8,234.7 637.8,239.2 637.8,243.6 637.8,248 637.8,252.5 637.8,256.9 
		637.8,261.3 637.8,265.7 637.8,270.2 637.8,274.6 637.8,279 637.8,283.5 642.2,283.5 646.7,283.5 651.1,283.5 655.5,283.5 
		659.9,283.5 664.4,283.5 668.8,283.5 673.2,283.5 677.7,283.5 682.1,283.5 686.5,283.5 690.9,283.5 695.4,283.5 699.8,283.5 
		704.2,283.5 708.7,283.5 708.7,279 708.7,274.6 708.7,270.2 708.7,265.7 708.7,261.3 708.7,256.9 708.7,252.5 708.7,248 
		708.7,243.6 708.7,239.2 708.7,234.7 708.7,230.3 708.7,225.9 708.7,221.5 708.7,217 708.7,212.6 708.7,208.2 708.7,203.7 
		708.7,199.3 708.7,194.9 708.7,190.5 708.7,186 708.7,181.6 708.7,177.2 708.7,172.7 708.7,168.3 708.7,163.9 708.7,159.4 
		708.7,155 708.7,150.6 708.7,146.2 708.7,141.7 708.7,137.3 708.7,132.9 708.7,128.4 708.7,124 708.7,119.6 708.7,115.2 
		708.7,110.7 708.7,106.3 708.7,101.9 708.7,97.4 704.2,97.4 	"/>
</g>
</svg>
