<?xml version="1.0" encoding="utf-8"?>
<!-- Generator: Adobe Illustrator 23.1.1, SVG Export Plug-In . SVG Version: 6.00 Build 0)  -->
<svg version="1.1" id="Livello_1" shape-rendering="crispEdges"
	 xmlns="http://www.w3.org/2000/svg" xmlns:xlink="http://www.w3.org/1999/xlink" x="0px" y="0px" viewBox="0 0 1133.9 283.5"
	 style="enable-background:new 0 0 1133.9 283.5;" xml:space="preserve">
<g>
	<polygon points="857,0 852.6,0 848.2,0 843.8,0 839.3,0 834.9,0 830.5,0 826,0 821.6,0 817.2,0 812.7,0 808.3,0 803.9,0 799.5,0 
		795,0 790.6,0 786.2,0 781.7,0 777.3,0 772.9,0 768.5,0 764,0 759.6,0 755.2,0 750.7,0 746.3,0 741.9,0 737.5,0 733,0 728.6,0 
		724.2,0 719.7,0 715.3,0 710.9,0 706.4,0 702,0 697.6,0 693.2,0 688.7,0 684.3,0 679.9,0 675.4,0 671,0 666.6,0 662.2,0 657.7,0 
		653.3,0 648.9,0 644.4,0 640,0 635.6,0 631.2,0 626.7,0 622.3,0 617.9,0 613.4,0 609,0 604.6,0 600.1,0 595.7,0 591.3,0 586.9,0 
		582.4,0 578,0 573.6,0 569.1,0 564.7,0 560.3,0 555.9,0 551.4,0 547,0 542.6,0 538.1,0 533.7,0 529.3,0 524.9,0 520.4,0 516,0 
		511.6,0 507.1,0 502.7,0 498.3,0 493.8,0 489.4,0 485,0 480.6,0 476.1,0 471.7,0 467.3,0 462.8,0 458.4,0 454,0 449.6,0 445.1,0 
		440.7,0 436.3,0 431.8,0 427.4,0 423,0 418.6,0 414.1,0 409.7,0 405.3,0 400.8,0 396.4,0 392,0 387.5,0 383.1,0 378.7,0 374.3,0 
		369.8,0 365.4,0 361,0 356.5,0 352.1,0 347.7,0 343.3,0 338.8,0 334.4,0 330,0 325.5,0 321.1,0 316.7,0 312.3,0 307.8,0 303.4,0 
		299,0 294.5,0 290.1,0 285.7,0 281.2,0 276.8,0 272.4,0 272.4,4.4 272.4,8.9 272.4,13.3 272.4,17.7 272.4,22.1 272.4,26.6 
		272.4,31 272.4,35.4 272.4,39.9 272.4,44.3 272.4,48.7 272.4,53.1 272.4,57.6 272.4,62 272.4,66.4 272.4,70.9 272.4,75.3 
		272.4,79.7 272.4,84.2 272.4,88.6 272.4,93 272.4,97.4 272.4,101.9 272.4,106.3 272.4,110.7 272.4,115.2 272.4,119.6 272.4,124 
		272.4,128.4 272.4,132.9 272.4,137.3 272.4,141.7 272.4,146.2 272.4,150.6 272.4,155 272.4,159.4 272.4,163.9 272.4,168.3 
		272.4,172.7 272.4,177.2 272.4,181.6 272.4,186 272.4,190.5 272.4,194.9 272.4,199.3 272.4,203.7 272.4,208.2 272.4,212.6 
		272.4,217 272.4,221.5 272.4,225.9 272.4,230.3 272.4,234.7 272.4,239.2 272.4,243.6 272.4,248 272.4,252.5 272.4,256.9 
		272.4,261.3 272.4,265.7 272.4,270.2 272.4,274.6 272.4,279 272.4,283.5 276.8,283.5 281.2,283.5 285.7,283.5 290.1,283.5 
		294.5,283.5 299,283.5 303.4,283.5 307.8,283.5 312.3,283.5 316.7,283.5 321.1,283.5 325.5,283.5 330,283.5 334.4,283.5 
		338.8,283.5 343.3,283.5 347.7,283.5 352.1,283.5 356.5,283.5 361,283.5 365.4,283.5 369.8,283.5 374.3,283.5 378.7,283.5 
		383.1,283.5 387.5,283.5 392,283.5 396.4,283.5 400.8,283.5 405.3,283.5 409.7,283.5 414.1,283.5 418.6,283.5 423,283.5 
		427.4,283.5 431.8,283.5 436.3,283.5 440.7,283.5 445.1,283.5 449.6,283.5 454,283.5 458.4,283.5 462.8,283.5 467.3,283.5 
		471.7,283.5 476.1,283.5 480.6,283.5 485,283.5 489.4,283.5 493.8,283.5 493.8,279 493.8,274.6 493.8,270.2 493.8,265.7 
		493.8,261.3 493.8,256.9 493.8,252.5 493.8,248 493.8,243.6 493.8,239.2 493.8,234.7 493.8,230.3 493.8,225.9 493.8,221.5 
		493.8,217 489.4,217 485,217 480.6,217 476.1,217 471.7,217 467.3,217 462.8,217 458.4,217 454,217 449.6,217 445.1,217 440.7,217 
		436.3,217 431.8,217 427.4,217 423,217 418.6,217 414.1,217 409.7,217 405.3,217 400.8,217 396.4,217 392,217 387.5,217 383.1,217 
		378.7,217 374.3,217 369.8,217 365.4,217 361,217 356.5,217 352.1,217 347.7,217 343.3,217 338.8,217 338.8,212.6 338.8,208.2 
		338.8,203.7 338.8,199.3 338.8,194.9 338.8,190.5 338.8,186 338.8,181.6 338.8,177.2 343.3,177.2 347.7,177.2 352.1,177.2 
		356.5,177.2 361,177.2 365.4,177.2 369.8,177.2 374.3,177.2 378.7,177.2 383.1,177.2 387.5,177.2 392,177.2 396.4,177.2 
		400.8,177.2 405.3,177.2 409.7,177.2 414.1,177.2 418.6,177.2 423,177.2 427.4,177.2 431.8,177.2 436.3,177.2 440.7,177.2 
		445.1,177.2 449.6,177.2 454,177.2 458.4,177.2 462.8,177.2 467.3,177.2 471.7,177.2 476.1,177.2 480.6,177.2 485,177.2 
		489.4,177.2 493.8,177.2 493.8,172.7 493.8,168.3 493.8,163.9 493.8,159.4 493.8,155 493.8,150.6 493.8,146.2 493.8,141.7 
		493.8,137.3 493.8,132.9 493.8,128.4 493.8,124 493.8,119.6 493.8,115.2 493.8,110.7 493.8,106.3 489.4,106.3 485,106.3 
		480.6,106.3 476.1,106.3 471.7,106.3 467.3,106.3 462.8,106.3 458.4,106.3 454,106.3 449.6,106.3 445.1,106.3 440.7,106.3 
		436.3,106.3 431.8,106.3 427.4,106.3 423,106.3 418.6,106.3 414.1,106.3 409.7,106.3 405.3,106.3 400.8,106.3 396.4,106.3 
		392,106.3 387.5,106.3 383.1,106.3 378.7,106.3 374.3,106.3 369.8,106.3 365.4,106.3 361,106.3 356.5,106.3 352.1,106.3 
		347.7,106.3 343.3,106.3 338.8,106.3 338.8,101.9 338.8,97.4 338.8,93 338.8,88.6 338.8,84.2 338.8,79.7 338.8,75.3 338.8,70.9 
		338.8,66.4 343.3,66.4 347.7,66.4 352.1,66.4 356.5,66.4 361,66.4 365.4,66.4 369.8,66.4 374.3,66.4 378.7,66.4 383.1,66.4 
		387.5,66.4 392,66.4 396.4,66.4 400.8,66.4 405.3,66.4 409.7,66.4 414.1,66.4 418.6,66.4 423,66.4 427.4,66.4 431.8,66.4 
		436.3,66.4 440.7,66.4 445.1,66.4 449.6,66.4 454,66.4 458.4,66.4 462.8,66.4 467.3,66.4 471.7,66.4 476.1,66.4 480.6,66.4 
		485,66.4 489.4,66.4 493.8,66.4 498.3,66.4 502.7,66.4 507.1,66.4 511.6,66.4 516,66.4 520.4,66.4 524.9,66.4 529.3,66.4 
		533.7,66.4 538.1,66.4 542.6,66.4 547,66.4 551.4,66.4 555.9,66.4 560.3,66.4 564.7,66.4 569.1,66.4 573.6,66.4 578,66.4 
		582.4,66.4 586.9,66.4 591.3,66.4 595.7,66.4 600.1,66.4 604.6,66.4 609,66.4 613.4,66.4 617.9,66.4 622.3,66.4 626.7,66.4 
		631.2,66.4 635.6,66.4 640,66.4 644.4,66.4 648.9,66.4 653.3,66.4 657.7,66.4 662.2,66.4 666.6,66.4 671,66.4 675.4,66.4 
		679.9,66.4 684.3,66.4 688.7,66.4 693.2,66.4 697.6,66.4 702,66.4 706.4,66.4 710.9,66.4 715.3,66.4 719.7,66.4 724.2,66.4 
		728.6,66.4 733,66.4 737.5,66.4 741.9,66.4 746.3,66.4 750.7,66.4 755.2,66.4 759.6,66.4 764,66.4 768.5,66.4 772.9,66.4 
		777.3,66.4 781.7,66.4 786.2,66.4 790.6,66.4 795,66.4 795,70.9 795,75.3 795,79.7 795,84.2 795,88.6 795,93 795,97.4 795,101.9 
		795,106.3 790.6,106.3 786.2,106.3 781.7,106.3 777.3,106.3 772.9,106.3 768.5,106.3 764,106.3 759.6,106.3 755.2,106.3 
		750.7,106.3 746.3,106.3 741.9,106.3 737.5,106.3 733,106.3 728.6,106.3 724.2,106.3 719.7,106.3 715.3,106.3 710.9,106.3 
		706.4,106.3 702,106.3 697.6,106.3 693.2,106.3 688.7,106.3 684.3,106.3 679.9,106.3 675.4,106.3 671,106.3 666.6,106.3 
		662.2,106.3 657.7,106.3 653.3,106.3 648.9,106.3 644.4,106.3 640,106.3 640,110.7 640,115.2 640,119.6 640,124 640,128.4 
		640,132.9 640,137.3 640,141.7 640,146.2 640,150.6 640,155 640,159.4 640,163.9 640,168.3 640,172.7 640,177.2 640,181.6 640,186 
		640,190.5 640,194.9 640,199.3 640,203.7 640,208.2 640,212.6 640,217 640,221.5 640,225.9 640,230.3 640,234.7 640,239.2 
		640,243.6 640,248 640,252.5 640,256.9 640,261.3 640,265.7 640,270.2 640,274.6 640,279 640,283.5 644.4,283.5 648.9,283.5 
		653.3,283.5 657.7,283.5 662.2,283.5 666.6,283.5 671,283.5 675.4,283.5 679.9,283.5 684.3,283.5 688.7,283.5 693.2,283.5 
		697.6,283.5 702,283.5 706.4,283.5 710.9,283.5 710.9,279 710.9,274.6 710.9,270.2 710.9,265.7 710.9,261.3 710.9,256.9 
		710.9,252.5 710.9,248 710.9,243.6 710.9,239.2 710.9,234.7 710.9,230.3 710.9,225.9 710.9,221.5 710.9,217 710.9,212.6 
		710.9,208.2 710.9,203.7 710.9,199.3 710.9,194.9 710.9,190.5 710.9,186 710.9,181.6 710.9,177.2 715.3,177.2 719.7,177.2 
		724.2,177.2 728.6,177.2 733,177.2 737.5,177.2 741.9,177.2 746.3,177.2 750.7,177.2 755.2,177.2 759.6,177.2 764,177.2 
		768.5,177.2 772.9,177.2 777.3,177.2 781.7,177.2 786.2,177.2 790.6,177.2 795,177.2 795,181.6 795,186 795,190.5 795,194.9 
		795,199.3 795,203.7 795,208.2 795,212.6 795,217 795,221.5 795,225.9 795,230.3 795,234.7 795,239.2 795,243.6 795,248 795,252.5 
		795,256.9 795,261.3 795,265.7 795,270.2 795,274.6 795,279 795,283.5 799.5,283.5 803.9,283.5 808.3,283.5 812.7,283.5 
		817.2,283.5 821.6,283.5 826,283.5 830.5,283.5 834.9,283.5 839.3,283.5 843.8,283.5 848.2,283.5 852.6,283.5 857,283.5 
		861.5,283.5 861.5,279 861.5,274.6 861.5,270.2 861.5,265.7 861.5,261.3 861.5,256.9 861.5,252.5 861.5,248 861.5,243.6 
		861.5,239.2 861.5,234.7 861.5,230.3 861.5,225.9 861.5,221.5 861.5,217 861.5,212.6 861.5,208.2 861.5,203.7 861.5,199.3 
		861.5,194.9 861.5,190.5 861.5,186 861.5,181.6 861.5,177.2 861.5,172.7 861.5,168.3 861.5,163.9 861.5,159.4 861.5,155 
		861.5,150.6 861.5,146.2 861.5,141.7 861.5,137.3 861.5,132.9 861.5,128.4 861.5,124 861.5,119.6 861.5,115.2 861.5,110.7 
		861.5,106.3 861.5,101.9 861.5,97.4 861.5,93 861.5,88.6 861.5,84.2 861.5,79.7 861.5,75.3 861.5,70.9 861.5,66.4 861.5,62 
		861.5,57.6 861.5,53.1 861.5,48.7 861.5,44.3 861.5,39.9 861.5,35.4 861.5,31 861.5,26.6 861.5,22.1 861.5,17.7 861.5,13.3 
		861.5,8.9 861.5,4.4 861.5,0 	"/>
	<polygon points="591.3,106.3 586.9,106.3 582.4,106.3 578,106.3 573.6,106.3 569.1,106.3 564.7,106.3 560.3,106.3 555.9,106.3 
		551.4,106.3 547,106.3 542.6,106.3 538.1,106.3 533.7,106.3 533.7,110.7 533.7,115.2 533.7,119.6 533.7,124 533.7,128.4 
		533.7,132.9 533.7,137.3 533.7,141.7 533.7,146.2 533.7,150.6 533.7,155 533.7,159.4 533.7,163.9 533.7,168.3 533.7,172.7 
		533.7,177.2 533.7,181.6 533.7,186 533.7,190.5 533.7,194.9 533.7,199.3 533.7,203.7 533.7,208.2 533.7,212.6 533.7,217 
		533.7,221.5 533.7,225.9 533.7,230.3 533.7,234.7 533.7,239.2 533.7,243.6 533.7,248 533.7,252.5 533.7,256.9 533.7,261.3 
		533.7,265.7 533.7,270.2 533.7,274.6 533.7,279 533.7,283.5 538.1,283.5 542.6,283.5 547,283.5 551.4,283.5 555.9,283.5 
		560.3,283.5 564.7,283.5 569.1,283.5 573.6,283.5 578,283.5 582.4,283.5 586.9,283.5 591.3,283.5 595.7,283.5 600.1,283.5 
		600.1,279 600.1,274.6 600.1,270.2 600.1,265.7 600.1,261.3 600.1,256.9 600.1,252.5 600.1,248 600.1,243.6 600.1,239.2 
		600.1,234.7 600.1,230.3 600.1,225.9 600.1,221.5 600.1,217 600.1,212.6 600.1,208.2 600.1,203.7 600.1,199.3 600.1,194.9 
		600.1,190.5 600.1,186 600.1,181.6 600.1,177.2 600.1,172.7 600.1,168.3 600.1,163.9 600.1,159.4 600.1,155 600.1,150.6 
		600.1,146.2 600.1,141.7 600.1,137.3 600.1,132.9 600.1,128.4 600.1,124 600.1,119.6 600.1,115.2 600.1,110.7 600.1,106.3 
		595.7,106.3 	"/>
</g>
</svg>
