<svg xmlns="http://www.w3.org/2000/svg" xml:space="preserve" stroke-linecap="round" stroke-linejoin="round"
    stroke-miterlimit="10" clip-rule="evenodd" viewBox="0 0 512 128">
    <path fill="currentColor"
        d="M129.24 121.84c-4.26-4.26-4.42-7.7-.5-17.02.99-2.3 2.46-5.9 3.44-8.19a62.6 62.6 0 0 1 3.28-7.36c13.42-25.37 22.42-44.03 22.42-46.65 0-1.8.66-3.28 1.48-3.28 2.13 0 6.7-9.49 6.7-13.58 0-2.3-.65-2.78-2.78-1.97-1.63.82-7.69 1.8-13.58 2.46-5.9.65-13.26 1.8-16.53 2.3-5.24 1.14-6.55.65-10.97-3.94-6.55-6.38-7.37-14.56-1.47-14.9 1.96-.16 6.87-.48 10.96-.65 4.1-.16 18.5-1.3 31.92-2.62 13.59-1.14 30.77-2.29 38.47-2.29 12.93 0 13.91.17 13.42 3.28-1.3 9.33-4.91 11.95-16.7 12.76-8.34.66-12.6 3.6-13.9 9.66-.66 2.95-2.96 8.19-5.08 11.46-2.13 3.44-3.93 6.87-3.93 7.7 0 .97-1.8 4.9-4.1 9-2.28 4.09-4.08 8.5-4.08 9.82 0 1.47-.66 2.61-1.48 2.61-1.63 0-16.37 29.8-24.88 50.42-2.78 6.38-6.38 6.71-12.11.98ZM261 118.57c0-1.48 2.62-8.19 5.9-14.73 3.27-6.72 6.05-13.75 6.22-16.05.32-2.12 2.13-6.05 3.93-8.83 1.96-2.62 3.6-5.4 3.6-5.9 0-1.47 10.3-24.39 22.42-49.27 6.88-14.24 9.5-16.04 18.5-11.94 6.22 2.61 6.22 6.22 0 15.55-2.62 3.92-4.91 8.34-4.91 9.65 0 1.15-.5 2.3-1.31 2.3-.66 0-2.13 2.45-3.28 5.4-4.9 11.78-20.62 43.2-24.06 47.8-1.96 2.77-4.09 7.03-4.75 9.48-.65 2.79-3.27 5.9-6.54 7.86-3.11 1.8-6.06 4.26-6.55 5.57a3.94 3.94 0 0 1-3.44 2.45c-1.3 0-2.45.82-2.45 1.64 0 .98-.66 1.64-1.64 1.64-.82 0-1.64-1.15-1.64-2.62Zm120.15-.33c-.98-.66-2.62-4.58-3.6-8.84-3.44-14.08-5.08-21.77-5.57-25.86-.33-2.46-1.63-4.26-3.6-4.58-3.27-.66-13.1 1.8-21.6 5.4a64.48 64.48 0 0 1-11.3 3.43c-6.22 1.15-17.68 11.3-23.4 20.63-3.12 5.4-6.06 6.71-9.83 4.75a41.2 41.2 0 0 0-5.56-2.46c-1.64-.49-2.95-1.8-2.95-2.95 0-1.14 8.51-13.42 18.82-27.33 10.32-13.75 20.14-27.83 21.61-31.1 1.47-3.27 5.57-10.15 9-15.22 3.44-5.08 6.22-10.32 6.22-11.62 0-1.31 1.15-3.28 2.46-4.42 1.3-1.15 2.45-3.44 2.45-5.08 0-2.45 1.15-3.1 5.4-3.1 2.79 0 6.55.97 8.03 2.28 2.94 2.13 7.85 22.26 7.85 32.25 0 3.27 1.15 8.67 2.46 11.95l2.45 5.89h10.48c7.2 0 10.97.82 12.44 2.46 3.6 4.25.65 7.36-6.88 7.36-12.1 0-12.93 2.46-8.02 22.92.99 4.09 2.3 10.14 2.95 13.58.82 5.4.5 6.06-2.62 6.06-1.96 0-3.44.98-3.44 2.45 0 2.62-1.47 3.11-4.25 1.15Zm-24.4-49.1 8.2-2.95.48-8.84c.33-5.9-.32-10.15-1.8-12.11-2.29-3.11-2.45-3.11-7.36.49-5.73 3.93-14.24 20.13-12.77 23.9 1.15 3.1 3.27 3.1 13.26-.5Zm-171.69 44.84c-.5-2.29-.5-5.4 0-7.03 1.3-3.93 3.92-10.48 5.89-14.08.82-1.64.98-3.77.33-4.75-.66-.82-.33-2.13.49-2.78 2.12-1.31 10.3-16.04 10.3-18.5 0-1.14 6.06-14.24 13.6-29.46l13.42-27.33 22.58-.17c19.48 0 22.6.33 23.58 2.62 1.3 3.6-3.6 7.2-10.15 7.2-2.79 0-5.73.66-6.55 1.31-.98.66-4.58 2.3-8.19 3.44-9 3.1-15.55 10.64-15.55 18.17 0 1.64-1.14 3.76-2.45 4.9-4.91 4.1-2.62 5.25 7.86 4.26 11.45-1.14 14.73.17 13.91 5.73-.5 3.44-1.8 4.1-12.77 6.06-18.99 3.27-21.77 5.07-27.33 17.02-2.79 5.57-5.57 12.12-6.22 14.24-1.15 3.77-.99 3.93 5.73 2.95 3.92-.5 7.53-1.47 8.02-2.3.49-.65 4.74-1.47 9.16-1.47 4.59-.16 12.44-.81 17.68-1.47 8.51-1.14 9.33-.98 9.33 1.8-.16 5.73-3.93 8.35-13.1 9.5-21.44 2.78-41.73 7.69-46.8 11.62-5.08 3.93-11.63 3.1-12.78-1.48Z" />
</svg>