<?xml version="1.0" encoding="utf-8"?>
<!-- Generator: Adobe Illustrator 23.1.1, SVG Export Plug-In . SVG Version: 6.00 Build 0)  -->
<svg version="1.1" id="Livello_1" shape-rendering="crispEdges"
	 xmlns="http://www.w3.org/2000/svg" xmlns:xlink="http://www.w3.org/1999/xlink" x="0px" y="0px" viewBox="0 0 1133.9 283.5"
	 style="enable-background:new 0 0 1133.9 283.5;" xml:space="preserve">
<g>
	<path d="M562.8,0h-4.4h-4.4h-4.4h-4.4h-4.4h-4.4h-4.4h-4.4h-4.4h-4.4h-4.4h-4.4h-4.4h-4.4h-4.4h-4.4h-4.4h-4.4h-4.4h-4.4h-4.4h-4.4
		h-4.4h-4.4h-4.4h-4.4h-4.4h-4.4h-4.4h-4.4h-4.4h-4.4h-4.4h-4.4v4.4v4.4v4.4v4.4v4.4v4.4V31v4.4v4.4v4.4v4.4v4.4v4.4V62h-4.4h-4.4
		h-4.4h-4.4h-4.4h-4.4h-4.4v4.4v4.4v4.4v4.4v4.4v4.4V93v4.4v4.4v4.4v4.4v4.4v4.4v4.4v4.4v4.4v4.4v4.4v4.4v4.4v4.4v4.4v4.4v4.4v4.4
		v4.4v4.4v4.4v4.4v4.4v4.4v4.4v4.4v4.4v4.4v4.4h4.4h4.4h4.4h4.4h4.4h4.4h4.4v4.4v4.4v4.4v4.4v4.4v4.4v4.4v4.4v4.4v4.4v4.4v4.4v4.4
		v4.4h4.4h4.4h4.4h4.4h4.4h4.4h4.4h4.4h4.4h4.4h4.4h4.4h4.4h4.4h4.4h4.4h4.4h4.4h4.4h4.4h4.4h4.4h4.4h4.4h4.4h4.4h4.4h4.4h4.4h4.4
		h4.4h4.4h4.4h4.4h4.4h4.4V279v-4.4v-4.4v-4.4v-4.4v-4.4v-4.4h-4.4h-4.4h-4.4h-4.4h-4.4h-4.4h-4.4h-4.4h-4.4h-4.4h-4.4h-4.4h-4.4
		h-4.4h-4.4h-4.4h-4.4h-4.4h-4.4h-4.4h-4.4h-4.4h-4.4h-4.4h-4.4h-4.4h-4.4h-4.4h-4.4V248v-4.4v-4.4v-4.4v-4.4v-4.4v-4.4h4.4h4.4h4.4
		h4.4h4.4h4.4h4.4V217v-4.4v-4.4v-4.4v-4.4v-4.4v-4.4V186v-4.4v-4.4v-4.4v-4.4v-4.4v-4.4h4.4h4.4h4.4h4.4h4.4h4.4h4.4h4.4h4.4h4.4
		h4.4h4.4h4.4h4.4V155v-4.4v-4.4v-4.4v-4.4v-4.4v-4.4V124h-4.4h-4.4h-4.4h-4.4h-4.4h-4.4h-4.4h-4.4h-4.4h-4.4h-4.4h-4.4h-4.4h-4.4
		v-4.4v-4.4v-4.4v-4.4v-4.4v-4.4V93v-4.4v-4.4v-4.4v-4.4v-4.4v-4.4V62h-4.4h-4.4h-4.4h-4.4h-4.4h-4.4h-4.4v-4.4v-4.4v-4.4v-4.4v-4.4
		v-4.4V31h4.4h4.4h4.4h4.4h4.4h4.4h4.4h4.4h4.4h4.4h4.4h4.4h4.4h4.4h4.4h4.4h4.4h4.4h4.4h4.4h4.4h4.4h4.4h4.4h4.4h4.4h4.4h4.4h4.4
		v-4.4v-4.4v-4.4v-4.4V8.9V4.4V0h-4.4H562.8z M443.2,97.4v4.4v4.4v4.4v4.4v4.4v4.4h-4.4h-4.4h-4.4h-4.4h-4.4h-4.4h-4.4v-4.4v-4.4
		v-4.4v-4.4v-4.4v-4.4V93h4.4h4.4h4.4h4.4h4.4h4.4h4.4V97.4z M443.2,163.9v4.4v4.4v4.4v4.4v4.4v4.4h-4.4h-4.4h-4.4h-4.4h-4.4h-4.4
		h-4.4V186v-4.4v-4.4v-4.4v-4.4v-4.4v-4.4h4.4h4.4h4.4h4.4h4.4h4.4h4.4V163.9z"/>
	<path d="M381.2,26.6v-4.4v-4.4v-4.4V8.9V4.4V0h-4.4h-4.4h-4.4h-4.4H359h-4.4h-4.4h-4.4h-4.4h-4.4h-4.4H328h-4.4h-4.4h-4.4h-4.4
		h-4.4h-4.4H297h-4.4h-4.4h-4.4h-4.4h-4.4h-4.4H266h-4.4h-4.4h-4.4h-4.4h-4.4h-4.4H235h-4.4h-4.4h-4.4h-4.4h-4.4h-4.4H204h-4.4h-4.4
		h-4.4h-4.4h-4.4h-4.4H173h-4.4h-4.4h-4.4h-4.4h-4.4h-4.4H142h-4.4h-4.4h-4.4h-4.4h-4.4h-4.4H111h-4.4h-4.4h-4.4v4.4v4.4v4.4v4.4
		v4.4v4.4V31h4.4h4.4h4.4h4.4h4.4h4.4h4.4h4.4h4.4h4.4h4.4h4.4h4.4h4.4v4.4v4.4v4.4v4.4v4.4v4.4V62v4.4v4.4v4.4v4.4v4.4v4.4V93h4.4
		h4.4h4.4h4.4h4.4h4.4h4.4h4.4h4.4h4.4h4.4h4.4h4.4h4.4v4.4v4.4v4.4v4.4v4.4v4.4v4.4v4.4v4.4v4.4v4.4v4.4v4.4v4.4v4.4v4.4v4.4v4.4
		v4.4v4.4v4.4v4.4v4.4v4.4v4.4v4.4v4.4v4.4v4.4h-4.4h-4.4h-4.4H204h-4.4h-4.4h-4.4v4.4v4.4v4.4v4.4v4.4v4.4v4.4v4.4v4.4v4.4v4.4v4.4
		v4.4v4.4h4.4h4.4h4.4h4.4h4.4h4.4h4.4V279v-4.4v-4.4v-4.4v-4.4v-4.4v-4.4h4.4h4.4h4.4h4.4h4.4h4.4h4.4h4.4v4.4v4.4v4.4v4.4v4.4v4.4
		v4.4h4.4h4.4h4.4h4.4h4.4h4.4h4.4V279v-4.4v-4.4v-4.4v-4.4v-4.4v-4.4V248v-4.4v-4.4v-4.4v-4.4v-4.4v-4.4h-4.4h-4.4h-4.4h-4.4H266
		h-4.4h-4.4V217v-4.4v-4.4v-4.4v-4.4v-4.4v-4.4V186v-4.4v-4.4v-4.4v-4.4v-4.4v-4.4V155v-4.4v-4.4v-4.4v-4.4v-4.4v-4.4V124v-4.4v-4.4
		v-4.4v-4.4v-4.4v-4.4V93h4.4h4.4h4.4h4.4h4.4h4.4h4.4h4.4h4.4h4.4h4.4h4.4h4.4h4.4v-4.4v-4.4v-4.4v-4.4v-4.4v-4.4V62v-4.4v-4.4
		v-4.4v-4.4v-4.4v-4.4V31h4.4h4.4h4.4h4.4h4.4h4.4h4.4h4.4h4.4h4.4h4.4h4.4h4.4h4.4V26.6z M288.2,35.4v4.4v4.4v4.4v4.4v4.4V62h-4.4
		h-4.4h-4.4h-4.4H266h-4.4h-4.4v-4.4v-4.4v-4.4v-4.4v-4.4v-4.4V31h4.4h4.4h4.4h4.4h4.4h4.4h4.4V35.4z M190.7,57.6v-4.4v-4.4v-4.4
		v-4.4v-4.4V31h4.4h4.4h4.4h4.4h4.4h4.4h4.4v4.4v4.4v4.4v4.4v4.4v4.4V62h-4.4h-4.4h-4.4H204h-4.4h-4.4h-4.4V57.6z"/>
	<path d="M757.7,88.6v-4.4v-4.4v-4.4v-4.4v-4.4V62v-4.4v-4.4v-4.4v-4.4v-4.4v-4.4V31v-4.4v-4.4v-4.4v-4.4V8.9V4.4V0h-4.4h-4.4h-4.4
		H740h-4.4h-4.4h-4.4h-4.4h-4.4h-4.4H709h-4.4h-4.4h-4.4h-4.4h-4.4h-4.4h-4.4h-4.4h-4.4h-4.4h-4.4h-4.4h-4.4h-4.4h-4.4h-4.4h-4.4
		h-4.4h-4.4h-4.4h-4.4h-4.4h-4.4h-4.4v4.4v4.4v4.4v4.4v4.4v4.4V31v4.4v4.4v4.4v4.4v4.4v4.4V62v4.4v4.4v4.4v4.4v4.4v4.4V93h4.4h4.4
		h4.4h4.4h4.4h4.4h4.4h4.4h4.4h4.4h4.4h4.4h4.4h4.4v4.4v4.4v4.4v4.4v4.4v4.4v4.4v4.4v4.4v4.4v4.4v4.4v4.4v4.4v4.4v4.4v4.4v4.4v4.4
		v4.4v4.4v4.4v4.4v4.4v4.4v4.4v4.4v4.4v4.4h-4.4h-4.4h-4.4h-4.4h-4.4h-4.4h-4.4v4.4v4.4v4.4v4.4v4.4v4.4v4.4v4.4v4.4v4.4v4.4v4.4
		v4.4v4.4h4.4h4.4h4.4h4.4h4.4h4.4h4.4V279v-4.4v-4.4v-4.4v-4.4v-4.4v-4.4h4.4h4.4h4.4h4.4h4.4h4.4h4.4v4.4v4.4v4.4v4.4v4.4v4.4v4.4
		h4.4h4.4h4.4h4.4h4.4h4.4h4.4V279v-4.4v-4.4v-4.4v-4.4v-4.4v-4.4V248v-4.4v-4.4v-4.4v-4.4v-4.4v-4.4h-4.4h-4.4h-4.4H709h-4.4h-4.4
		h-4.4V217v-4.4v-4.4v-4.4v-4.4v-4.4v-4.4V186v-4.4v-4.4v-4.4v-4.4v-4.4v-4.4V155v-4.4v-4.4v-4.4v-4.4v-4.4v-4.4V124v-4.4v-4.4v-4.4
		v-4.4v-4.4v-4.4V93h4.4h4.4h4.4h4.4h4.4h4.4h4.4h4.4h4.4h4.4h4.4h4.4h4.4h4.4V88.6z M633.7,57.6v-4.4v-4.4v-4.4v-4.4v-4.4V31h4.4
		h4.4h4.4h4.4h4.4h4.4h4.4v4.4v4.4v4.4v4.4v4.4v4.4V62h-4.4h-4.4h-4.4h-4.4h-4.4h-4.4h-4.4V57.6z M695.7,57.6v-4.4v-4.4v-4.4v-4.4
		v-4.4V31h4.4h4.4h4.4h4.4h4.4h4.4h4.4v4.4v4.4v4.4v4.4v4.4v4.4V62h-4.4h-4.4h-4.4H709h-4.4h-4.4h-4.4V57.6z"/>
	<path d="M974.7,252.5h-4.4h-4.4h-4.4H957h-4.4h-4.4V248v-4.4v-4.4v-4.4v-4.4v-4.4v-4.4V217v-4.4v-4.4v-4.4v-4.4v-4.4v-4.4V186v-4.4
		v-4.4v-4.4v-4.4v-4.4v-4.4V155v-4.4v-4.4v-4.4v-4.4v-4.4v-4.4V124v-4.4v-4.4v-4.4v-4.4v-4.4v-4.4V93v-4.4v-4.4v-4.4v-4.4v-4.4v-4.4
		V62v-4.4v-4.4v-4.4v-4.4v-4.4v-4.4V31v-4.4v-4.4v-4.4v-4.4V8.9V4.4V0h-4.4h-4.4h-4.4h-4.4H926h-4.4h-4.4h-4.4h-4.4h-4.4h-4.4H895
		h-4.4h-4.4v4.4v4.4v4.4v4.4v4.4v4.4V31h4.4h4.4h4.4h4.4h4.4h4.4h4.4v4.4v4.4v4.4v4.4v4.4v4.4V62v4.4v4.4v4.4v4.4v4.4v4.4V93h-4.4
		h-4.4h-4.4h-4.4H895h-4.4h-4.4h-4.4h-4.4h-4.4h-4.4H864h-4.4h-4.4h-4.4h-4.4h-4.4h-4.4H833h-4.4h-4.4h-4.4v-4.4v-4.4v-4.4v-4.4
		v-4.4v-4.4V62v-4.4v-4.4v-4.4v-4.4v-4.4v-4.4V31h4.4h4.4h4.4h4.4h4.4h4.4h4.4h4.4v-4.4v-4.4v-4.4v-4.4V8.9V4.4V0h-4.4h-4.4h-4.4
		h-4.4H833h-4.4h-4.4h-4.4h-4.4h-4.4h-4.4H802h-4.4h-4.4h-4.4v4.4v4.4v4.4v4.4v4.4v4.4V31v4.4v4.4v4.4v4.4v4.4v4.4V62v4.4v4.4v4.4
		v4.4v4.4v4.4V93v4.4v4.4v4.4v4.4v4.4v4.4v4.4v4.4v4.4v4.4v4.4v4.4v4.4v4.4v4.4v4.4v4.4v4.4v4.4v4.4v4.4v4.4v4.4v4.4v4.4v4.4v4.4
		v4.4v4.4v4.4v4.4v4.4v4.4v4.4v4.4v4.4h-4.4h-4.4h-4.4H771h-4.4h-4.4h-4.4v4.4v4.4v4.4v4.4v4.4v4.4v4.4h4.4h4.4h4.4h4.4h4.4h4.4h4.4
		h4.4h4.4h4.4h4.4h4.4h4.4h4.4V279v-4.4v-4.4v-4.4v-4.4v-4.4v-4.4V248v-4.4v-4.4v-4.4v-4.4v-4.4v-4.4V217v-4.4v-4.4v-4.4v-4.4v-4.4
		v-4.4h4.4h4.4h4.4h4.4h4.4h4.4h4.4h4.4h4.4h4.4h4.4h4.4h4.4h4.4h4.4h4.4h4.4h4.4h4.4h4.4h4.4h4.4v4.4v4.4v4.4v4.4v4.4v4.4v4.4v4.4
		v4.4v4.4v4.4v4.4v4.4v4.4v4.4v4.4v4.4v4.4v4.4v4.4v4.4h4.4h4.4h4.4h4.4h4.4h4.4h4.4h4.4h4.4h4.4h4.4h4.4h4.4h4.4V279v-4.4v-4.4
		v-4.4v-4.4v-4.4v-4.4H974.7z M819.7,155v-4.4v-4.4v-4.4v-4.4v-4.4v-4.4V124h4.4h4.4h4.4h4.4h4.4h4.4h4.4h4.4v4.4v4.4v4.4v4.4v4.4
		v4.4v4.4v4.4h-4.4h-4.4h-4.4h-4.4H833h-4.4h-4.4h-4.4V155z M886.1,155v-4.4v-4.4v-4.4v-4.4v-4.4v-4.4V124h4.4h4.4h4.4h4.4h4.4h4.4
		h4.4v4.4v4.4v4.4v4.4v4.4v4.4v4.4v4.4h-4.4h-4.4h-4.4h-4.4H895h-4.4h-4.4V155z"/>
</g>
</svg>
