<?xml version="1.0" encoding="utf-8"?>
<!-- Generator: Adobe Illustrator 23.1.1, SVG Export Plug-In . SVG Version: 6.00 Build 0)  -->
<svg version="1.1" id="Livello_1" shape-rendering="crispEdges"
	 xmlns="http://www.w3.org/2000/svg" xmlns:xlink="http://www.w3.org/1999/xlink" x="0px" y="0px" viewBox="0 0 1133.9 283.5"
	 style="enable-background:new 0 0 1133.9 283.5;" xml:space="preserve">
<g>
	<polygon points="255.1,9.4 250.4,9.4 245.7,9.4 240.9,9.4 236.2,9.4 231.5,9.4 226.8,9.4 222,9.4 217.3,9.4 212.6,9.4 207.9,9.4 
		203.1,9.4 198.4,9.4 193.7,9.4 189,9.4 184.3,9.4 179.5,9.4 174.8,9.4 170.1,9.4 165.4,9.4 160.6,9.4 155.9,9.4 151.2,9.4 
		146.5,9.4 141.7,9.4 137,9.4 132.3,9.4 127.6,9.4 122.8,9.4 118.1,9.4 113.4,9.4 108.7,9.4 103.9,9.4 99.2,9.4 94.5,9.4 89.8,9.4 
		85,9.4 80.3,9.4 75.6,9.4 70.9,9.4 66.1,9.4 61.4,9.4 56.7,9.4 52,9.4 47.2,9.4 42.5,9.4 37.8,9.4 33.1,9.4 28.3,9.4 23.6,9.4 
		18.9,9.4 14.2,9.4 9.4,9.4 4.7,9.4 0,9.4 0,14.2 0,18.9 0,23.6 0,28.3 0,33.1 0,37.8 0,42.5 0,47.2 0,52 0,56.7 0,61.4 0,66.1 
		4.7,66.1 9.4,66.1 14.2,66.1 18.9,66.1 23.6,66.1 28.3,66.1 33.1,66.1 37.8,66.1 42.5,66.1 47.2,66.1 52,66.1 56.7,66.1 61.4,66.1 
		66.1,66.1 70.9,66.1 75.6,66.1 80.3,66.1 85,66.1 89.8,66.1 94.5,66.1 99.2,66.1 103.9,66.1 108.7,66.1 113.4,66.1 118.1,66.1 
		122.8,66.1 127.6,66.1 132.3,66.1 137,66.1 141.7,66.1 146.5,66.1 151.2,66.1 155.9,66.1 160.6,66.1 165.4,66.1 170.1,66.1 
		174.8,66.1 179.5,66.1 184.3,66.1 189,66.1 193.7,66.1 198.4,66.1 203.1,66.1 207.9,66.1 212.6,66.1 217.3,66.1 222,66.1 
		226.8,66.1 231.5,66.1 236.2,66.1 240.9,66.1 245.7,66.1 250.4,66.1 255.1,66.1 259.8,66.1 264.6,66.1 264.6,61.4 264.6,56.7 
		264.6,52 264.6,47.2 264.6,42.5 264.6,37.8 264.6,33.1 264.6,28.3 264.6,23.6 264.6,18.9 264.6,14.2 264.6,9.4 259.8,9.4 	"/>
	<polygon points="557.5,9.4 552.8,9.4 548,9.4 543.3,9.4 538.6,9.4 533.9,9.4 529.1,9.4 524.4,9.4 519.7,9.4 515,9.4 510.2,9.4 
		505.5,9.4 500.8,9.4 496.1,9.4 491.3,9.4 486.6,9.4 481.9,9.4 477.2,9.4 472.4,9.4 467.7,9.4 463,9.4 458.3,9.4 453.5,9.4 
		448.8,9.4 444.1,9.4 439.4,9.4 434.6,9.4 429.9,9.4 425.2,9.4 420.5,9.4 415.7,9.4 411,9.4 406.3,9.4 401.6,9.4 396.9,9.4 
		392.1,9.4 387.4,9.4 382.7,9.4 378,9.4 378,14.2 378,18.9 378,23.6 378,28.3 373.2,28.3 368.5,28.3 363.8,28.3 359.1,28.3 
		359.1,33.1 359.1,37.8 359.1,42.5 359.1,47.2 354.3,47.2 349.6,47.2 344.9,47.2 340.2,47.2 340.2,52 340.2,56.7 340.2,61.4 
		340.2,66.1 344.9,66.1 349.6,66.1 354.3,66.1 359.1,66.1 363.8,66.1 368.5,66.1 373.2,66.1 378,66.1 382.7,66.1 387.4,66.1 
		392.1,66.1 396.9,66.1 401.6,66.1 406.3,66.1 411,66.1 415.7,66.1 420.5,66.1 425.2,66.1 429.9,66.1 434.6,66.1 439.4,66.1 
		444.1,66.1 448.8,66.1 453.5,66.1 458.3,66.1 463,66.1 467.7,66.1 472.4,66.1 477.2,66.1 481.9,66.1 486.6,66.1 491.3,66.1 
		496.1,66.1 500.8,66.1 505.5,66.1 510.2,66.1 515,66.1 519.7,66.1 524.4,66.1 529.1,66.1 533.9,66.1 538.6,66.1 543.3,66.1 
		548,66.1 552.8,66.1 557.5,66.1 562.2,66.1 566.9,66.1 566.9,61.4 566.9,56.7 566.9,52 566.9,47.2 566.9,42.5 566.9,37.8 
		566.9,33.1 566.9,28.3 566.9,23.6 566.9,18.9 566.9,14.2 566.9,9.4 562.2,9.4 	"/>
	<polygon points="765.4,9.4 760.6,9.4 755.9,9.4 751.2,9.4 746.5,9.4 741.7,9.4 737,9.4 732.3,9.4 727.6,9.4 722.8,9.4 718.1,9.4 
		713.4,9.4 708.7,9.4 703.9,9.4 699.2,9.4 699.2,14.2 699.2,18.9 699.2,23.6 699.2,28.3 699.2,33.1 699.2,37.8 699.2,42.5 
		699.2,47.2 699.2,52 699.2,56.7 699.2,61.4 699.2,66.1 703.9,66.1 708.7,66.1 713.4,66.1 718.1,66.1 722.8,66.1 727.6,66.1 
		732.3,66.1 737,66.1 741.7,66.1 746.5,66.1 751.2,66.1 755.9,66.1 760.6,66.1 765.4,66.1 770.1,66.1 774.8,66.1 774.8,61.4 
		774.8,56.7 774.8,52 774.8,47.2 774.8,42.5 774.8,37.8 774.8,33.1 774.8,28.3 774.8,23.6 774.8,18.9 774.8,14.2 774.8,9.4 
		770.1,9.4 	"/>
	<polygon points="1129.1,66.1 1124.4,66.1 1119.7,66.1 1115,66.1 1115,61.4 1115,56.7 1115,52 1115,47.2 1110.2,47.2 1105.5,47.2 
		1100.8,47.2 1096.1,47.2 1096.1,42.5 1096.1,37.8 1096.1,33.1 1096.1,28.3 1091.3,28.3 1086.6,28.3 1081.9,28.3 1077.2,28.3 
		1077.2,23.6 1077.2,18.9 1077.2,14.2 1077.2,9.4 1072.4,9.4 1067.7,9.4 1063,9.4 1058.3,9.4 1053.5,9.4 1048.8,9.4 1044.1,9.4 
		1039.4,9.4 1034.6,9.4 1029.9,9.4 1025.2,9.4 1020.5,9.4 1015.7,9.4 1011,9.4 1006.3,9.4 1001.6,9.4 996.9,9.4 992.1,9.4 
		987.4,9.4 982.7,9.4 978,9.4 973.2,9.4 968.5,9.4 963.8,9.4 959.1,9.4 954.3,9.4 949.6,9.4 944.9,9.4 940.2,9.4 935.4,9.4 
		930.7,9.4 926,9.4 926,14.2 926,18.9 926,23.6 926,28.3 921.3,28.3 916.5,28.3 911.8,28.3 907.1,28.3 907.1,33.1 907.1,37.8 
		907.1,42.5 907.1,47.2 902.4,47.2 897.6,47.2 892.9,47.2 888.2,47.2 888.2,52 888.2,56.7 888.2,61.4 888.2,66.1 883.5,66.1 
		878.7,66.1 874,66.1 869.3,66.1 869.3,70.9 869.3,75.6 869.3,80.3 869.3,85 869.3,89.8 869.3,94.5 869.3,99.2 869.3,103.9 
		869.3,108.7 869.3,113.4 869.3,118.1 869.3,122.8 869.3,127.6 869.3,132.3 869.3,137 869.3,141.7 869.3,146.5 869.3,151.2 
		869.3,155.9 869.3,160.6 869.3,165.4 869.3,170.1 869.3,174.8 869.3,179.5 869.3,184.3 869.3,189 869.3,193.7 869.3,198.4 
		869.3,203.1 869.3,207.9 869.3,212.6 869.3,217.3 869.3,222 869.3,226.8 869.3,231.5 869.3,236.2 869.3,240.9 869.3,245.7 
		869.3,250.4 869.3,255.1 869.3,259.8 869.3,264.6 869.3,269.3 869.3,274 874,274 878.7,274 883.5,274 888.2,274 892.9,274 
		897.6,274 902.4,274 907.1,274 911.8,274 916.5,274 921.3,274 926,274 930.7,274 935.4,274 940.2,274 944.9,274 944.9,269.3 
		944.9,264.6 944.9,259.8 944.9,255.1 944.9,250.4 944.9,245.7 944.9,240.9 944.9,236.2 944.9,231.5 944.9,226.8 944.9,222 
		944.9,217.3 944.9,212.6 944.9,207.9 944.9,203.1 944.9,198.4 944.9,193.7 944.9,189 944.9,184.3 944.9,179.5 944.9,174.8 
		944.9,170.1 944.9,165.4 944.9,160.6 944.9,155.9 944.9,151.2 944.9,146.5 944.9,141.7 944.9,137 944.9,132.3 944.9,127.6 
		944.9,122.8 944.9,118.1 944.9,113.4 944.9,108.7 944.9,103.9 944.9,99.2 944.9,94.5 944.9,89.8 944.9,85 949.6,85 954.3,85 
		959.1,85 963.8,85 963.8,80.3 963.8,75.6 963.8,70.9 963.8,66.1 968.5,66.1 973.2,66.1 978,66.1 982.7,66.1 987.4,66.1 992.1,66.1 
		996.9,66.1 1001.6,66.1 1006.3,66.1 1011,66.1 1015.7,66.1 1020.5,66.1 1025.2,66.1 1029.9,66.1 1034.6,66.1 1039.4,66.1 
		1039.4,70.9 1039.4,75.6 1039.4,80.3 1039.4,85 1044.1,85 1048.8,85 1053.5,85 1058.3,85 1058.3,89.8 1058.3,94.5 1058.3,99.2 
		1058.3,103.9 1058.3,108.7 1058.3,113.4 1058.3,118.1 1058.3,122.8 1058.3,127.6 1058.3,132.3 1058.3,137 1058.3,141.7 
		1058.3,146.5 1058.3,151.2 1058.3,155.9 1058.3,160.6 1058.3,165.4 1058.3,170.1 1058.3,174.8 1058.3,179.5 1058.3,184.3 
		1058.3,189 1058.3,193.7 1058.3,198.4 1058.3,203.1 1058.3,207.9 1058.3,212.6 1058.3,217.3 1058.3,222 1058.3,226.8 1058.3,231.5 
		1058.3,236.2 1058.3,240.9 1058.3,245.7 1058.3,250.4 1058.3,255.1 1058.3,259.8 1058.3,264.6 1058.3,269.3 1058.3,274 1063,274 
		1067.7,274 1072.4,274 1077.2,274 1081.9,274 1086.6,274 1091.3,274 1096.1,274 1100.8,274 1105.5,274 1110.2,274 1115,274 
		1119.7,274 1124.4,274 1129.1,274 1133.9,274 1133.9,269.3 1133.9,264.6 1133.9,259.8 1133.9,255.1 1133.9,250.4 1133.9,245.7 
		1133.9,240.9 1133.9,236.2 1133.9,231.5 1133.9,226.8 1133.9,222 1133.9,217.3 1133.9,212.6 1133.9,207.9 1133.9,203.1 
		1133.9,198.4 1133.9,193.7 1133.9,189 1133.9,184.3 1133.9,179.5 1133.9,174.8 1133.9,170.1 1133.9,165.4 1133.9,160.6 
		1133.9,155.9 1133.9,151.2 1133.9,146.5 1133.9,141.7 1133.9,137 1133.9,132.3 1133.9,127.6 1133.9,122.8 1133.9,118.1 
		1133.9,113.4 1133.9,108.7 1133.9,103.9 1133.9,99.2 1133.9,94.5 1133.9,89.8 1133.9,85 1133.9,80.3 1133.9,75.6 1133.9,70.9 
		1133.9,66.1 	"/>
	<polygon points="160.6,122.8 155.9,122.8 151.2,122.8 146.5,122.8 141.7,122.8 137,122.8 132.3,122.8 127.6,122.8 122.8,122.8 
		118.1,122.8 113.4,122.8 108.7,122.8 103.9,122.8 99.2,122.8 94.5,122.8 94.5,127.6 94.5,132.3 94.5,137 94.5,141.7 94.5,146.5 
		94.5,151.2 94.5,155.9 94.5,160.6 94.5,165.4 94.5,170.1 94.5,174.8 94.5,179.5 94.5,184.3 94.5,189 94.5,193.7 94.5,198.4 
		94.5,203.1 94.5,207.9 94.5,212.6 94.5,217.3 94.5,222 94.5,226.8 94.5,231.5 94.5,236.2 94.5,240.9 94.5,245.7 94.5,250.4 
		94.5,255.1 94.5,259.8 94.5,264.6 94.5,269.3 94.5,274 99.2,274 103.9,274 108.7,274 113.4,274 118.1,274 122.8,274 127.6,274 
		132.3,274 137,274 141.7,274 146.5,274 151.2,274 155.9,274 160.6,274 165.4,274 170.1,274 170.1,269.3 170.1,264.6 170.1,259.8 
		170.1,255.1 170.1,250.4 170.1,245.7 170.1,240.9 170.1,236.2 170.1,231.5 170.1,226.8 170.1,222 170.1,217.3 170.1,212.6 
		170.1,207.9 170.1,203.1 170.1,198.4 170.1,193.7 170.1,189 170.1,184.3 170.1,179.5 170.1,174.8 170.1,170.1 170.1,165.4 
		170.1,160.6 170.1,155.9 170.1,151.2 170.1,146.5 170.1,141.7 170.1,137 170.1,132.3 170.1,127.6 170.1,122.8 165.4,122.8 	"/>
	<polygon points="765.4,122.8 760.6,122.8 755.9,122.8 751.2,122.8 746.5,122.8 741.7,122.8 737,122.8 732.3,122.8 727.6,122.8 
		722.8,122.8 718.1,122.8 713.4,122.8 708.7,122.8 703.9,122.8 699.2,122.8 699.2,127.6 699.2,132.3 699.2,137 699.2,141.7 
		699.2,146.5 699.2,151.2 699.2,155.9 699.2,160.6 699.2,165.4 699.2,170.1 699.2,174.8 699.2,179.5 699.2,184.3 699.2,189 
		699.2,193.7 699.2,198.4 699.2,203.1 699.2,207.9 699.2,212.6 699.2,217.3 699.2,222 699.2,226.8 699.2,231.5 699.2,236.2 
		699.2,240.9 699.2,245.7 699.2,250.4 699.2,255.1 699.2,259.8 699.2,264.6 699.2,269.3 699.2,274 703.9,274 708.7,274 713.4,274 
		718.1,274 722.8,274 727.6,274 732.3,274 737,274 741.7,274 746.5,274 751.2,274 755.9,274 760.6,274 765.4,274 770.1,274 
		774.8,274 774.8,269.3 774.8,264.6 774.8,259.8 774.8,255.1 774.8,250.4 774.8,245.7 774.8,240.9 774.8,236.2 774.8,231.5 
		774.8,226.8 774.8,222 774.8,217.3 774.8,212.6 774.8,207.9 774.8,203.1 774.8,198.4 774.8,193.7 774.8,189 774.8,184.3 
		774.8,179.5 774.8,174.8 774.8,170.1 774.8,165.4 774.8,160.6 774.8,155.9 774.8,151.2 774.8,146.5 774.8,141.7 774.8,137 
		774.8,132.3 774.8,127.6 774.8,122.8 770.1,122.8 	"/>
	<polygon points="1029.9,122.8 1025.2,122.8 1020.5,122.8 1015.7,122.8 1011,122.8 1006.3,122.8 1001.6,122.8 996.9,122.8 
		992.1,122.8 987.4,122.8 982.7,122.8 978,122.8 973.2,122.8 968.5,122.8 963.8,122.8 963.8,127.6 963.8,132.3 963.8,137 
		963.8,141.7 963.8,146.5 963.8,151.2 963.8,155.9 963.8,160.6 968.5,160.6 973.2,160.6 978,160.6 982.7,160.6 987.4,160.6 
		992.1,160.6 996.9,160.6 1001.6,160.6 1006.3,160.6 1011,160.6 1015.7,160.6 1020.5,160.6 1025.2,160.6 1029.9,160.6 1034.6,160.6 
		1039.4,160.6 1039.4,155.9 1039.4,151.2 1039.4,146.5 1039.4,141.7 1039.4,137 1039.4,132.3 1039.4,127.6 1039.4,122.8 
		1034.6,122.8 	"/>
	<polygon points="557.5,217.3 552.8,217.3 548,217.3 543.3,217.3 538.6,217.3 533.9,217.3 529.1,217.3 524.4,217.3 519.7,217.3 
		515,217.3 510.2,217.3 505.5,217.3 500.8,217.3 496.1,217.3 491.3,217.3 486.6,217.3 481.9,217.3 477.2,217.3 472.4,217.3 
		467.7,217.3 463,217.3 458.3,217.3 453.5,217.3 448.8,217.3 444.1,217.3 439.4,217.3 434.6,217.3 429.9,217.3 425.2,217.3 
		420.5,217.3 415.7,217.3 415.7,212.6 415.7,207.9 415.7,203.1 415.7,198.4 411,198.4 406.3,198.4 401.6,198.4 396.9,198.4 
		396.9,193.7 396.9,189 396.9,184.3 396.9,179.5 392.1,179.5 387.4,179.5 382.7,179.5 378,179.5 378,174.8 378,170.1 378,165.4 
		378,160.6 382.7,160.6 387.4,160.6 392.1,160.6 396.9,160.6 401.6,160.6 406.3,160.6 411,160.6 415.7,160.6 420.5,160.6 
		425.2,160.6 429.9,160.6 434.6,160.6 439.4,160.6 444.1,160.6 448.8,160.6 453.5,160.6 458.3,160.6 463,160.6 467.7,160.6 
		472.4,160.6 477.2,160.6 481.9,160.6 486.6,160.6 491.3,160.6 496.1,160.6 500.8,160.6 505.5,160.6 510.2,160.6 510.2,155.9 
		510.2,151.2 510.2,146.5 510.2,141.7 510.2,137 510.2,132.3 510.2,127.6 510.2,122.8 505.5,122.8 500.8,122.8 496.1,122.8 
		491.3,122.8 486.6,122.8 481.9,122.8 477.2,122.8 472.4,122.8 467.7,122.8 463,122.8 458.3,122.8 453.5,122.8 448.8,122.8 
		444.1,122.8 439.4,122.8 434.6,122.8 429.9,122.8 425.2,122.8 420.5,122.8 415.7,122.8 411,122.8 406.3,122.8 401.6,122.8 
		396.9,122.8 392.1,122.8 387.4,122.8 382.7,122.8 378,122.8 373.2,122.8 368.5,122.8 363.8,122.8 359.1,122.8 354.3,122.8 
		349.6,122.8 344.9,122.8 340.2,122.8 335.4,122.8 330.7,122.8 326,122.8 321.3,122.8 316.5,122.8 311.8,122.8 307.1,122.8 
		302.4,122.8 302.4,127.6 302.4,132.3 302.4,137 302.4,141.7 302.4,146.5 302.4,151.2 302.4,155.9 302.4,160.6 302.4,165.4 
		302.4,170.1 302.4,174.8 302.4,179.5 302.4,184.3 302.4,189 302.4,193.7 302.4,198.4 307.1,198.4 311.8,198.4 316.5,198.4 
		321.3,198.4 321.3,203.1 321.3,207.9 321.3,212.6 321.3,217.3 326,217.3 330.7,217.3 335.4,217.3 340.2,217.3 340.2,222 
		340.2,226.8 340.2,231.5 340.2,236.2 344.9,236.2 349.6,236.2 354.3,236.2 359.1,236.2 359.1,240.9 359.1,245.7 359.1,250.4 
		359.1,255.1 363.8,255.1 368.5,255.1 373.2,255.1 378,255.1 378,259.8 378,264.6 378,269.3 378,274 382.7,274 387.4,274 392.1,274 
		396.9,274 401.6,274 406.3,274 411,274 415.7,274 420.5,274 425.2,274 429.9,274 434.6,274 439.4,274 444.1,274 448.8,274 
		453.5,274 458.3,274 463,274 467.7,274 472.4,274 477.2,274 481.9,274 486.6,274 491.3,274 496.1,274 500.8,274 505.5,274 
		510.2,274 515,274 519.7,274 524.4,274 529.1,274 533.9,274 538.6,274 543.3,274 548,274 552.8,274 557.5,274 562.2,274 566.9,274 
		566.9,269.3 566.9,264.6 566.9,259.8 566.9,255.1 566.9,250.4 566.9,245.7 566.9,240.9 566.9,236.2 566.9,231.5 566.9,226.8 
		566.9,222 566.9,217.3 562.2,217.3 	"/>
</g>
</svg>
