<?xml version="1.0" encoding="utf-8"?>
<!-- Generator: Adobe Illustrator 23.1.1, SVG Export Plug-In . SVG Version: 6.00 Build 0)  -->
<svg version="1.1" id="Livello_1" shape-rendering="crispEdges"
	 xmlns="http://www.w3.org/2000/svg" xmlns:xlink="http://www.w3.org/1999/xlink" x="0px" y="0px" viewBox="0 0 1133.9 283.5"
	 style="enable-background:new 0 0 1133.9 283.5;" xml:space="preserve">
<g>
	<path d="M1129.4,0h-4.4h-4.4h-4.4h-4.4h-4.4h-4.4h-4.4h-4.4h-4.4h-4.4h-4.4h-4.4h-4.4h-4.4h-4.4h-4.4h-4.4h-4.4h-4.4h-4.4h-4.4
		h-4.4h-4.4h-4.4h-4.4h-4.4h-4.4h-4.4h-4.4h-4.4h-4.4h-4.4h-4.4h-4.4h-4.4H970h-4.4h-4.4h-4.4h-4.4h-4.4h-4.4H939h-4.4h-4.4h-4.4
		h-4.4h-4.4h-4.4H908h-4.4h-4.4h-4.4h-4.4h-4.4h-4.4H877h-4.4h-4.4h-4.4h-4.4h-4.4h-4.4H846h-4.4h-4.4h-4.4h-4.4h-4.4h-4.4H815h-4.4
		h-4.4h-4.4h-4.4h-4.4h-4.4H784h-4.4h-4.4h-4.4h-4.4h-4.4h-4.4H753h-4.4h-4.4h-4.4h-4.4h-4.4h-4.4h-4.4h-4.4h-4.4h-4.4h-4.4h-4.4
		h-4.4h-4.4h-4.4h-4.4h-4.4h-4.4h-4.4h-4.4h-4.4h-4.4h-4.4h-4.4h-4.4h-4.4h-4.4h-4.4h-4.4h-4.4h-4.4h-4.4h-4.4h-4.4h-4.4h-4.4h-4.4
		h-4.4h-4.4h-4.4h-4.4h-4.4h-4.4h-4.4h-4.4h-4.4h-4.4h-4.4h-4.4h-4.4h-4.4h-4.4h-4.4h-4.4h-4.4h-4.4h-4.4h-4.4h-4.4h-4.4h-4.4h-4.4
		h-4.4h-4.4h-4.4h-4.4h-4.4h-4.4h-4.4h-4.4h-4.4h-4.4h-4.4h-4.4h-4.4h-4.4h-4.4h-4.4h-4.4h-4.4h-4.4h-4.4h-4.4h-4.4h-4.4H372h-4.4
		h-4.4h-4.4h-4.4h-4.4h-4.4H341h-4.4h-4.4h-4.4h-4.4h-4.4h-4.4H310h-4.4h-4.4h-4.4h-4.4h-4.4h-4.4H279h-4.4h-4.4h-4.4h-4.4h-4.4
		h-4.4H248h-4.4h-4.4h-4.4h-4.4h-4.4h-4.4H217h-4.4h-4.4h-4.4h-4.4h-4.4h-4.4H186h-4.4h-4.4h-4.4h-4.4h-4.4h-4.4H155h-4.4h-4.4h-4.4
		h-4.4h-4.4h-4.4H124h-4.4h-4.4h-4.4h-4.4h-4.4h-4.4H93h-4.4h-4.4h-4.4h-4.4h-4.4h-4.4H62h-4.4h-4.4h-4.4h-4.4h-4.4h-4.4H31h-4.4
		h-4.4h-4.4h-4.4H8.9H4.4H0v4.4v4.4v4.4v4.4v4.4v4.4V31v4.4v4.4v4.4v4.4v4.4v4.4V62v4.4v4.4v4.4v4.4v4.4v4.4V93v4.4v4.4v4.4v4.4v4.4
		v4.4v4.4v4.4v4.4v4.4v4.4v4.4v4.4v4.4v4.4v4.4v4.4v4.4v4.4v4.4v4.4v4.4v4.4v4.4v4.4v4.4v4.4v4.4v4.4v4.4v4.4v4.4v4.4v4.4v4.4v4.4
		v4.4v4.4v4.4v4.4v4.4v4.4v4.4h4.4h4.4h4.4h4.4h4.4h4.4H31h4.4h4.4h4.4h4.4h4.4h4.4H62h4.4h4.4h4.4h4.4h4.4h4.4H93h4.4h4.4h4.4h4.4
		h4.4h4.4h4.4h4.4h4.4h4.4h4.4h4.4h4.4h4.4h4.4h4.4h4.4h4.4h4.4h4.4h4.4h4.4h4.4h4.4h4.4h4.4h4.4h4.4h4.4h4.4h4.4h4.4h4.4h4.4h4.4
		h4.4h4.4h4.4h4.4h4.4h4.4h4.4h4.4h4.4h4.4h4.4h4.4h4.4h4.4h4.4h4.4h4.4h4.4h4.4h4.4h4.4h4.4h4.4h4.4h4.4h4.4h4.4h4.4h4.4h4.4h4.4
		h4.4h4.4h4.4h4.4h4.4h4.4h4.4h4.4h4.4h4.4h4.4h4.4h4.4h4.4h4.4h4.4h4.4h4.4h4.4h4.4h4.4h4.4h4.4h4.4h4.4h4.4h4.4h4.4h4.4h4.4h4.4
		h4.4h4.4h4.4h4.4h4.4h4.4h4.4h4.4h4.4h4.4h4.4h4.4h4.4h4.4h4.4h4.4h4.4h4.4h4.4h4.4h4.4h4.4h4.4h4.4h4.4h4.4h4.4h4.4h4.4h4.4h4.4
		h4.4h4.4h4.4h4.4h4.4h4.4h4.4h4.4h4.4h4.4h4.4h4.4h4.4h4.4h4.4h4.4h4.4h4.4h4.4h4.4h4.4h4.4h4.4h4.4h4.4h4.4h4.4h4.4h4.4h4.4h4.4
		h4.4h4.4h4.4h4.4h4.4h4.4h4.4h4.4h4.4h4.4h4.4h4.4h4.4h4.4h4.4h4.4h4.4h4.4h4.4h4.4h4.4h4.4h4.4h4.4h4.4h4.4h4.4h4.4h4.4h4.4h4.4
		h4.4h4.4h4.4h4.4h4.4h4.4h4.4h4.4h4.4h4.4h4.4h4.4h4.4h4.4h4.4h4.4h4.4h4.4h4.4h4.4h4.4h4.4h4.4h4.4h4.4h4.4h4.4h4.4h4.4h4.4h4.4
		h4.4h4.4h4.4h4.4h4.4h4.4h4.4h4.4h4.4h4.4h4.4h4.4h4.4h4.4V279v-4.4v-4.4v-4.4v-4.4v-4.4v-4.4V248v-4.4v-4.4v-4.4v-4.4v-4.4v-4.4
		V217v-4.4v-4.4v-4.4v-4.4v-4.4v-4.4V186v-4.4v-4.4v-4.4v-4.4v-4.4v-4.4V155v-4.4v-4.4v-4.4v-4.4v-4.4v-4.4V124v-4.4v-4.4v-4.4v-4.4
		v-4.4v-4.4V93v-4.4v-4.4v-4.4v-4.4v-4.4v-4.4V62v-4.4v-4.4v-4.4v-4.4v-4.4v-4.4V31v-4.4v-4.4v-4.4v-4.4V8.9V4.4V0H1129.4z
		 M1129.4,8.9v4.4v4.4v4.4v4.4V31v4.4v4.4v4.4v4.4v4.4v4.4V62v4.4v4.4v4.4v4.4v4.4v4.4V93v4.4v4.4v4.4v4.4v4.4v4.4v4.4v4.4v4.4v4.4
		v4.4v4.4v4.4v4.4v4.4v4.4v4.4v4.4v4.4v4.4v4.4v4.4v4.4v4.4v4.4v4.4v4.4v4.4v4.4v4.4v4.4v4.4v4.4v4.4v4.4v4.4v4.4v4.4v4.4v4.4v4.4
		v4.4h-4.4h-4.4h-4.4h-4.4h-4.4h-4.4h-4.4h-4.4h-4.4h-4.4h-4.4h-4.4h-4.4h-4.4h-4.4h-4.4h-4.4h-4.4h-4.4h-4.4h-4.4h-4.4h-4.4h-4.4
		h-4.4h-4.4h-4.4h-4.4h-4.4h-4.4h-4.4h-4.4h-4.4h-4.4h-4.4H970h-4.4h-4.4h-4.4h-4.4h-4.4h-4.4H939h-4.4h-4.4h-4.4h-4.4h-4.4h-4.4
		H908h-4.4h-4.4h-4.4h-4.4h-4.4h-4.4H877h-4.4h-4.4h-4.4h-4.4h-4.4h-4.4H846h-4.4h-4.4h-4.4h-4.4h-4.4h-4.4H815h-4.4h-4.4h-4.4h-4.4
		h-4.4h-4.4H784h-4.4h-4.4h-4.4h-4.4h-4.4h-4.4H753h-4.4h-4.4h-4.4h-4.4h-4.4h-4.4h-4.4h-4.4h-4.4h-4.4h-4.4h-4.4h-4.4h-4.4h-4.4
		h-4.4h-4.4h-4.4h-4.4h-4.4h-4.4h-4.4h-4.4h-4.4h-4.4h-4.4h-4.4h-4.4h-4.4h-4.4h-4.4h-4.4h-4.4h-4.4h-4.4h-4.4h-4.4h-4.4h-4.4h-4.4
		h-4.4h-4.4h-4.4h-4.4h-4.4h-4.4h-4.4h-4.4h-4.4h-4.4h-4.4h-4.4h-4.4h-4.4h-4.4h-4.4h-4.4h-4.4h-4.4h-4.4h-4.4h-4.4h-4.4h-4.4h-4.4
		h-4.4h-4.4h-4.4h-4.4h-4.4h-4.4h-4.4h-4.4h-4.4h-4.4h-4.4h-4.4h-4.4h-4.4h-4.4h-4.4h-4.4h-4.4h-4.4h-4.4H372h-4.4h-4.4h-4.4h-4.4
		h-4.4h-4.4H341h-4.4h-4.4h-4.4h-4.4h-4.4h-4.4H310h-4.4h-4.4h-4.4h-4.4h-4.4h-4.4H279h-4.4h-4.4h-4.4h-4.4h-4.4h-4.4H248h-4.4h-4.4
		h-4.4h-4.4h-4.4h-4.4H217h-4.4h-4.4h-4.4h-4.4h-4.4h-4.4H186h-4.4h-4.4h-4.4h-4.4h-4.4h-4.4H155h-4.4h-4.4h-4.4h-4.4h-4.4h-4.4H124
		h-4.4h-4.4h-4.4h-4.4h-4.4h-4.4H93h-4.4h-4.4h-4.4h-4.4h-4.4h-4.4H62h-4.4h-4.4h-4.4h-4.4h-4.4h-4.4H31h-4.4h-4.4h-4.4h-4.4H8.9
		H4.4v-4.4v-4.4v-4.4v-4.4v-4.4v-4.4V248v-4.4v-4.4v-4.4v-4.4v-4.4v-4.4V217v-4.4v-4.4v-4.4v-4.4v-4.4v-4.4V186v-4.4v-4.4v-4.4v-4.4
		v-4.4v-4.4V155v-4.4v-4.4v-4.4v-4.4v-4.4v-4.4V124v-4.4v-4.4v-4.4v-4.4v-4.4v-4.4V93v-4.4v-4.4v-4.4v-4.4v-4.4v-4.4V62v-4.4v-4.4
		v-4.4v-4.4v-4.4v-4.4V31v-4.4v-4.4v-4.4v-4.4V8.9V4.4h4.4h4.4h4.4h4.4h4.4H31h4.4h4.4h4.4h4.4h4.4h4.4H62h4.4h4.4h4.4h4.4h4.4h4.4
		H93h4.4h4.4h4.4h4.4h4.4h4.4h4.4h4.4h4.4h4.4h4.4h4.4h4.4h4.4h4.4h4.4h4.4h4.4h4.4h4.4h4.4h4.4h4.4h4.4h4.4h4.4h4.4h4.4h4.4h4.4
		h4.4h4.4h4.4h4.4h4.4h4.4h4.4h4.4h4.4h4.4h4.4h4.4h4.4h4.4h4.4h4.4h4.4h4.4h4.4h4.4h4.4h4.4h4.4h4.4h4.4h4.4h4.4h4.4h4.4h4.4h4.4
		h4.4h4.4h4.4h4.4h4.4h4.4h4.4h4.4h4.4h4.4h4.4h4.4h4.4h4.4h4.4h4.4h4.4h4.4h4.4h4.4h4.4h4.4h4.4h4.4h4.4h4.4h4.4h4.4h4.4h4.4h4.4
		h4.4h4.4h4.4h4.4h4.4h4.4h4.4h4.4h4.4h4.4h4.4h4.4h4.4h4.4h4.4h4.4h4.4h4.4h4.4h4.4h4.4h4.4h4.4h4.4h4.4h4.4h4.4h4.4h4.4h4.4h4.4
		h4.4h4.4h4.4h4.4h4.4h4.4h4.4h4.4h4.4h4.4h4.4h4.4h4.4h4.4h4.4h4.4h4.4h4.4h4.4h4.4h4.4h4.4h4.4h4.4h4.4h4.4h4.4h4.4h4.4h4.4h4.4
		h4.4h4.4h4.4h4.4h4.4h4.4h4.4h4.4h4.4h4.4h4.4h4.4h4.4h4.4h4.4h4.4h4.4h4.4h4.4h4.4h4.4h4.4h4.4h4.4h4.4h4.4h4.4h4.4h4.4h4.4h4.4
		h4.4h4.4h4.4h4.4h4.4h4.4h4.4h4.4h4.4h4.4h4.4h4.4h4.4h4.4h4.4h4.4h4.4h4.4h4.4h4.4h4.4h4.4h4.4h4.4h4.4h4.4h4.4h4.4h4.4h4.4h4.4
		h4.4h4.4h4.4h4.4h4.4h4.4h4.4h4.4h4.4h4.4h4.4h4.4h4.4h4.4h4.4h4.4h4.4h4.4V8.9z"/>
	<path d="M1009.8,13.3h-4.4h-4.4h-4.4h-4.4h-4.4h-4.4h-4.4h-4.4H970h-4.4h-4.4h-4.4h-4.4h-4.4h-4.4H939h-4.4h-4.4h-4.4h-4.4h-4.4
		h-4.4H908h-4.4h-4.4h-4.4h-4.4h-4.4h-4.4H877h-4.4h-4.4h-4.4h-4.4h-4.4h-4.4H846h-4.4h-4.4h-4.4h-4.4h-4.4h-4.4H815h-4.4h-4.4h-4.4
		h-4.4h-4.4h-4.4H784h-4.4h-4.4h-4.4h-4.4h-4.4h-4.4H753h-4.4h-4.4h-4.4h-4.4h-4.4h-4.4h-4.4h-4.4h-4.4h-4.4h-4.4h-4.4h-4.4h-4.4
		h-4.4h-4.4h-4.4h-4.4h-4.4h-4.4h-4.4h-4.4h-4.4h-4.4h-4.4h-4.4h-4.4h-4.4h-4.4h-4.4h-4.4h-4.4h-4.4h-4.4h-4.4h-4.4h-4.4h-4.4h-4.4
		h-4.4h-4.4h-4.4h-4.4h-4.4h-4.4h-4.4h-4.4h-4.4h-4.4h-4.4h-4.4h-4.4h-4.4h-4.4h-4.4h-4.4h-4.4h-4.4h-4.4h-4.4h-4.4h-4.4h-4.4h-4.4
		h-4.4h-4.4h-4.4h-4.4h-4.4h-4.4h-4.4h-4.4h-4.4h-4.4h-4.4h-4.4h-4.4h-4.4h-4.4h-4.4h-4.4h-4.4h-4.4h-4.4h-4.4H372h-4.4h-4.4h-4.4
		h-4.4h-4.4h-4.4H341h-4.4h-4.4h-4.4h-4.4h-4.4h-4.4H310h-4.4h-4.4h-4.4h-4.4h-4.4h-4.4H279h-4.4h-4.4h-4.4h-4.4h-4.4h-4.4H248h-4.4
		h-4.4h-4.4h-4.4h-4.4h-4.4H217h-4.4h-4.4h-4.4h-4.4h-4.4h-4.4H186h-4.4h-4.4h-4.4h-4.4h-4.4h-4.4H155h-4.4h-4.4h-4.4h-4.4h-4.4
		h-4.4H124h-4.4h-4.4h-4.4v4.4v4.4v4.4V31v4.4v4.4v4.4v4.4v4.4v4.4V62v4.4v4.4v4.4v4.4v4.4v4.4V93v4.4v4.4v4.4v4.4v4.4v4.4v4.4v4.4
		v4.4v4.4v4.4v4.4v4.4v4.4v4.4v4.4v4.4v4.4v4.4v4.4v4.4v4.4v4.4v4.4v4.4v4.4v4.4v4.4v4.4v4.4v4.4v4.4v4.4v4.4v4.4v4.4v4.4v4.4v4.4
		v4.4v4.4h4.4h4.4h4.4h4.4h4.4h4.4h4.4h4.4h4.4h4.4h4.4h4.4h4.4h4.4h4.4h4.4h4.4h4.4h4.4h4.4h4.4h4.4h4.4h4.4h4.4h4.4h4.4h4.4h4.4
		h4.4h4.4h4.4h4.4h4.4h4.4h4.4h4.4h4.4h4.4h4.4h4.4h4.4h4.4h4.4h4.4h4.4h4.4h4.4h4.4h4.4h4.4h4.4h4.4h4.4h4.4h4.4h4.4h4.4h4.4h4.4
		h4.4h4.4h4.4h4.4h4.4h4.4h4.4h4.4h4.4h4.4h4.4h4.4h4.4h4.4h4.4h4.4h4.4h4.4h4.4h4.4h4.4h4.4h4.4h4.4h4.4h4.4h4.4h4.4h4.4h4.4h4.4
		h4.4h4.4h4.4h4.4h4.4h4.4h4.4h4.4h4.4h4.4h4.4h4.4h4.4h4.4h4.4h4.4h4.4h4.4h4.4h4.4h4.4h4.4h4.4h4.4h4.4h4.4h4.4h4.4h4.4h4.4h4.4
		h4.4h4.4h4.4h4.4h4.4h4.4h4.4h4.4h4.4h4.4h4.4h4.4h4.4h4.4h4.4h4.4h4.4h4.4h4.4h4.4h4.4h4.4h4.4h4.4h4.4h4.4h4.4h4.4h4.4h4.4h4.4
		h4.4h4.4h4.4h4.4h4.4h4.4h4.4h4.4h4.4h4.4h4.4h4.4h4.4h4.4h4.4h4.4h4.4h4.4h4.4h4.4h4.4h4.4h4.4h4.4h4.4h4.4h4.4h4.4h4.4h4.4h4.4
		h4.4h4.4h4.4h4.4h4.4h4.4h4.4h4.4h4.4h4.4h4.4h4.4h4.4h4.4h4.4h4.4h4.4h4.4h4.4h4.4h4.4v-4.4v-4.4v-4.4v-4.4v-4.4V248v-4.4v-4.4
		v-4.4v-4.4v-4.4v-4.4V217v-4.4v-4.4v-4.4v-4.4v-4.4v-4.4V186v-4.4v-4.4v-4.4v-4.4v-4.4v-4.4V155v-4.4v-4.4v-4.4v-4.4v-4.4v-4.4V124
		v-4.4v-4.4v-4.4v-4.4v-4.4v-4.4V93v-4.4v-4.4v-4.4v-4.4v-4.4v-4.4V62v-4.4v-4.4v-4.4v-4.4v-4.4v-4.4V31v-4.4v-4.4v-4.4v-4.4h-4.4
		H1009.8z M1009.8,35.4v4.4v4.4v4.4v4.4v4.4V62v4.4v4.4v4.4v4.4v4.4v4.4V93v4.4v4.4v4.4v4.4v4.4v4.4v4.4v4.4v4.4v4.4v4.4v4.4v4.4
		v4.4v4.4v4.4v4.4v4.4v4.4v4.4v4.4v4.4v4.4h-4.4v4.4h-4.4v4.4h-4.4v4.4h-4.4v4.4h-4.4v4.4h-4.4v-4.4v-4.4v-4.4v-4.4v-4.4v-4.4V186
		v-4.4v-4.4v-4.4v-4.4v-4.4v-4.4V155v-4.4v-4.4v-4.4v-4.4v-4.4v-4.4V124v-4.4v-4.4v-4.4v-4.4v-4.4v-4.4V93v-4.4v-4.4v-4.4v-4.4v-4.4
		v-4.4V62v-4.4v-4.4h4.4v-4.4h4.4v-4.4h4.4v-4.4h4.4v-4.4h4.4V31h4.4V35.4z M1009.8,217v4.4v4.4v4.4v4.4v4.4v4.4v4.4v4.4v4.4v4.4
		v4.4h-4.4h-4.4h-4.4h-4.4h-4.4h-4.4h-4.4h-4.4H970h-4.4h-4.4h-4.4h-4.4h-4.4h-4.4H939h-4.4h-4.4h-4.4h-4.4h-4.4h-4.4H908h-4.4h-4.4
		h-4.4h-4.4h-4.4h-4.4H877h-4.4h-4.4h-4.4h-4.4h-4.4h-4.4H846h-4.4h-4.4h-4.4h-4.4h-4.4h-4.4H815h-4.4h-4.4h-4.4h-4.4h-4.4h-4.4H784
		h-4.4h-4.4h-4.4h-4.4h-4.4h-4.4H753h-4.4h-4.4h-4.4h-4.4h-4.4h-4.4h-4.4h-4.4h-4.4h-4.4h-4.4h-4.4h-4.4h-4.4h-4.4h-4.4h-4.4h-4.4
		h-4.4h-4.4h-4.4h-4.4h-4.4h-4.4h-4.4h-4.4h-4.4h-4.4h-4.4h-4.4h-4.4h-4.4h-4.4h-4.4h-4.4h-4.4h-4.4h-4.4h-4.4h-4.4h-4.4h-4.4h-4.4
		h-4.4h-4.4h-4.4h-4.4h-4.4h-4.4h-4.4h-4.4h-4.4h-4.4h-4.4h-4.4h-4.4h-4.4h-4.4h-4.4h-4.4h-4.4h-4.4h-4.4h-4.4h-4.4h-4.4h-4.4h-4.4
		h-4.4h-4.4h-4.4h-4.4h-4.4h-4.4h-4.4h-4.4h-4.4h-4.4h-4.4h-4.4h-4.4h-4.4h-4.4h-4.4h-4.4H372h-4.4h-4.4h-4.4h-4.4h-4.4h-4.4H341
		h-4.4h-4.4h-4.4h-4.4h-4.4h-4.4H310h-4.4h-4.4h-4.4h-4.4h-4.4h-4.4H279h-4.4h-4.4h-4.4h-4.4h-4.4h-4.4H248h-4.4h-4.4h-4.4h-4.4
		h-4.4h-4.4H217h-4.4h-4.4h-4.4h-4.4h-4.4h-4.4H186h-4.4h-4.4h-4.4h-4.4h-4.4h-4.4H155h-4.4h-4.4h-4.4h-4.4h-4.4h-4.4H124h-4.4v-4.4
		v-4.4v-4.4V248v-4.4v-4.4v-4.4v-4.4v-4.4v-4.4V217v-4.4v-4.4v-4.4v-4.4v-4.4v-4.4V186v-4.4v-4.4v-4.4v-4.4v-4.4v-4.4V155v-4.4v-4.4
		v-4.4v-4.4v-4.4v-4.4V124v-4.4v-4.4v-4.4v-4.4v-4.4v-4.4V93v-4.4v-4.4v-4.4v-4.4v-4.4v-4.4V62v-4.4v-4.4v-4.4v-4.4v-4.4v-4.4V31
		v-4.4v-4.4h4.4h4.4h4.4h4.4h4.4h4.4h4.4h4.4h4.4h4.4h4.4h4.4v4.4h-4.4V31h-4.4v4.4h-4.4v4.4H155v4.4h-4.4v4.4h-4.4v4.4v4.4V62v4.4
		v4.4v4.4v4.4v4.4v4.4V93h4.4h4.4h4.4h4.4h4.4h4.4h4.4h4.4h4.4h4.4h4.4h4.4h4.4h4.4h4.4h4.4v4.4v4.4v4.4v4.4v4.4v4.4v4.4v4.4v4.4
		v4.4v4.4v4.4v4.4v4.4v4.4v4.4v4.4v4.4v4.4v4.4v4.4v4.4v4.4v4.4v4.4v4.4v4.4v4.4v4.4v4.4v4.4v4.4v4.4h4.4h4.4h4.4h4.4h4.4h4.4h4.4
		h4.4h4.4h4.4v-4.4h4.4v-4.4h4.4v-4.4h4.4v-4.4h4.4V217h4.4v-4.4h4.4v-4.4h4.4v-4.4h4.4v-4.4h4.4v-4.4h4.4v-4.4h4.4V186h4.4v-4.4
		h4.4v-4.4h4.4v-4.4h4.4v-4.4h4.4v-4.4h4.4v-4.4h4.4V155h4.4v-4.4h4.4v-4.4h4.4v-4.4h4.4v-4.4h4.4v4.4v4.4v4.4v4.4v4.4v4.4v4.4v4.4
		v4.4v4.4v4.4v4.4v4.4v4.4v4.4v4.4v4.4v4.4v4.4v4.4v4.4v4.4v4.4h4.4h4.4h4.4h4.4h4.4h4.4h4.4h4.4h4.4h4.4h4.4h4.4h4.4h4.4h4.4h4.4
		h4.4h4.4h4.4h4.4h4.4h4.4h4.4h4.4h4.4h4.4h4.4h4.4h4.4h4.4h4.4h4.4h4.4h4.4h4.4h4.4h4.4h4.4h4.4h4.4h4.4h4.4v-4.4h4.4v-4.4h4.4
		v-4.4h4.4v-4.4h4.4V217h4.4v-4.4h4.4v-4.4h4.4v-4.4h4.4v-4.4h4.4v-4.4h4.4v-4.4h4.4V186h4.4v-4.4h4.4v-4.4h4.4v-4.4h4.4v-4.4h4.4
		v-4.4h4.4v-4.4h4.4V155h4.4v-4.4h4.4v-4.4h4.4v-4.4h4.4v-4.4h4.4v4.4v4.4v4.4v4.4v4.4v4.4v4.4v4.4v4.4v4.4v4.4v4.4v4.4h-4.4h-4.4
		h-4.4h-4.4h-4.4h-4.4h-4.4h-4.4v4.4v4.4v4.4v4.4v4.4v4.4v4.4v4.4v4.4v4.4h4.4h4.4h4.4h4.4h4.4h4.4h4.4h4.4h4.4h4.4h4.4h4.4h4.4h4.4
		h4.4h4.4h4.4h4.4h4.4h4.4h4.4h4.4h4.4h4.4h4.4h4.4v-4.4h4.4v-4.4h4.4v-4.4h4.4v-4.4h4.4V217h4.4v-4.4h4.4v-4.4h4.4v-4.4h4.4v-4.4
		h4.4v-4.4h4.4v-4.4h4.4V186h4.4v-4.4h4.4v-4.4h4.4v4.4v4.4v4.4v4.4v4.4v4.4v4.4v4.4v4.4v4.4v4.4v4.4v4.4v4.4h4.4h4.4h4.4h4.4h4.4
		h4.4h4.4h4.4h4.4h4.4v-4.4h4.4v-4.4h4.4v-4.4h4.4v-4.4h4.4V217h4.4v-4.4h4.4v-4.4h4.4v-4.4h4.4v-4.4h4.4v-4.4h4.4v-4.4h4.4V186h4.4
		v-4.4h4.4v-4.4h4.4v-4.4h4.4v-4.4h4.4v-4.4h4.4h4.4h4.4h4.4h4.4h4.4h4.4v4.4v4.4v4.4v4.4v4.4v4.4v4.4v4.4v4.4v4.4v4.4v4.4v4.4v4.4
		v4.4v4.4v4.4h4.4h4.4h4.4h4.4h4.4h4.4h4.4h4.4h4.4h4.4v-4.4h4.4v-4.4h4.4v-4.4h4.4v-4.4h4.4V217h4.4v-4.4h4.4V217z M1001,26.6h-4.4
		V31h-4.4v4.4h-4.4v4.4h-4.4v4.4h-4.4v4.4h-4.4H970h-4.4h-4.4h-4.4h-4.4h-4.4h-4.4H939h-4.4h-4.4h-4.4h-4.4h-4.4h-4.4H908h-4.4h-4.4
		h-4.4h-4.4h-4.4h-4.4H877h-4.4h-4.4h-4.4h-4.4h-4.4h-4.4H846h-4.4h-4.4h-4.4h-4.4h-4.4h-4.4H815h-4.4v-4.4h4.4v-4.4h4.4v-4.4h4.4
		V31h4.4v-4.4h4.4v-4.4h4.4h4.4h4.4h4.4h4.4h4.4h4.4h4.4h4.4h4.4h4.4h4.4h4.4h4.4h4.4h4.4h4.4h4.4h4.4h4.4h4.4h4.4h4.4h4.4h4.4h4.4
		h4.4h4.4h4.4h4.4h4.4h4.4h4.4h4.4h4.4h4.4h4.4h4.4V26.6z M890.3,168.3v4.4h-4.4v4.4h-4.4v4.4H877v4.4h-4.4v4.4h-4.4v4.4h-4.4v4.4
		h-4.4v4.4h-4.4v4.4h-4.4v4.4H846v4.4h-4.4v4.4h-4.4V217v-4.4v-4.4v-4.4v-4.4v-4.4v-4.4V186v-4.4v-4.4v-4.4v-4.4v-4.4h4.4h4.4h4.4
		h4.4h4.4h4.4h4.4h4.4h4.4h4.4h4.4h4.4h4.4v4.4H890.3z M637.8,132.9v4.4h-4.4v4.4h-4.4v4.4h-4.4v4.4h-4.4v4.4h-4.4v4.4h-4.4v4.4
		h-4.4v4.4h-4.4v4.4h-4.4v4.4h-4.4v4.4h-4.4v4.4h-4.4v4.4h-4.4v4.4h-4.4v4.4h-4.4v4.4h-4.4v4.4h-4.4v4.4h-4.4v4.4h-4.4v4.4h-4.4V217
		v-4.4v-4.4v-4.4v-4.4h4.4v-4.4h4.4v-4.4h4.4V186h4.4v-4.4h4.4v-4.4h4.4v-4.4h4.4v-4.4h4.4v-4.4h4.4v-4.4h4.4V155h4.4v-4.4h4.4v-4.4
		h4.4v-4.4h4.4v-4.4h4.4v-4.4h4.4v-4.4h4.4V124h4.4v-4.4h4.4v-4.4h4.4v-4.4h4.4v-4.4h4.4v-4.4h4.4v4.4v4.4v4.4v4.4v4.4h-4.4v4.4
		h-4.4v4.4H637.8z M349.9,132.9v4.4h-4.4v4.4H341v4.4h-4.4v4.4h-4.4v4.4h-4.4v4.4h-4.4v4.4h-4.4v4.4h-4.4v4.4H310v4.4h-4.4v4.4h-4.4
		v4.4h-4.4v4.4h-4.4v4.4h-4.4v4.4h-4.4v4.4H279v4.4h-4.4v4.4h-4.4v4.4h-4.4v4.4h-4.4V217v-4.4v-4.4v-4.4v-4.4v-4.4v-4.4V186v-4.4
		v-4.4v-4.4v-4.4v-4.4v-4.4V155v-4.4v-4.4v-4.4v-4.4v-4.4v-4.4V124v-4.4v-4.4v-4.4v-4.4v-4.4v-4.4V93h4.4h4.4h4.4h4.4h4.4h4.4h4.4
		h4.4h4.4h4.4h4.4h4.4h4.4h4.4h4.4h4.4h4.4v-4.4h4.4v-4.4h4.4v-4.4h4.4v-4.4h4.4v-4.4h4.4v-4.4h4.4v4.4v4.4v4.4v4.4v4.4V93v4.4v4.4
		v4.4v4.4v4.4v4.4v4.4h-4.4v4.4h-4.4v4.4H349.9z M779.5,172.7h-4.4v4.4h-4.4v4.4h-4.4v4.4h-4.4v4.4h-4.4v4.4H753v4.4h-4.4v4.4h-4.4
		v4.4h-4.4v4.4h-4.4v4.4h-4.4v-4.4v-4.4v-4.4v-4.4h4.4v-4.4h4.4v-4.4h4.4V186h4.4v-4.4h4.4v-4.4h4.4v-4.4h4.4v-4.4h4.4v-4.4h4.4
		v-4.4h4.4V155h4.4v-4.4h4.4v-4.4h4.4v-4.4h4.4v4.4v4.4v4.4v4.4h-4.4v4.4H784v4.4h-4.4V172.7z M637.8,97.4v4.4h-4.4v4.4h-4.4v4.4
		h-4.4v4.4h-4.4v4.4h-4.4v4.4h-4.4v4.4h-4.4v4.4h-4.4v4.4h-4.4v4.4h-4.4v4.4h-4.4v4.4h-4.4v4.4h-4.4v4.4h-4.4v4.4h-4.4v4.4h-4.4v4.4
		h-4.4v4.4h-4.4v4.4h-4.4v4.4h-4.4v4.4h-4.4v4.4h-4.4h-4.4h-4.4h-4.4h-4.4h-4.4h-4.4h-4.4h-4.4h-4.4h-4.4h-4.4h-4.4h-4.4h-4.4h-4.4
		h-4.4h-4.4h-4.4h-4.4h-4.4h-4.4h-4.4h-4.4h-4.4h-4.4h-4.4h-4.4h-4.4v-4.4h4.4V186h4.4v-4.4h4.4v-4.4h4.4v-4.4h4.4v-4.4h4.4v-4.4
		h4.4h4.4h4.4h4.4h4.4h4.4h4.4h4.4h4.4h4.4h4.4h4.4h4.4h4.4h4.4h4.4h4.4v-4.4h4.4V155h4.4v-4.4h4.4v-4.4h4.4v-4.4h4.4v-4.4h4.4v-4.4
		h4.4v-4.4h4.4V124h4.4v-4.4h4.4v-4.4h4.4v-4.4h4.4v-4.4h4.4v-4.4h4.4v-4.4h4.4V93h4.4v-4.4h4.4v-4.4h4.4v-4.4h4.4v-4.4h4.4v-4.4
		h4.4v-4.4h4.4v4.4v4.4v4.4v4.4v4.4V93h4.4h4.4h4.4h4.4h4.4h4.4v4.4H637.8z M531.5,97.4h-4.4v4.4h-4.4v4.4h-4.4v4.4h-4.4v4.4h-4.4
		v4.4h-4.4h-4.4h-4.4h-4.4h-4.4h-4.4h-4.4h-4.4h-4.4h-4.4h-4.4h-4.4h-4.4h-4.4h-4.4h-4.4h-4.4h-4.4h-4.4h-4.4h-4.4v-4.4h4.4v-4.4
		h4.4v-4.4h4.4v-4.4h4.4v-4.4h4.4V93h4.4h4.4h4.4h4.4h4.4h4.4h4.4h4.4h4.4h4.4h4.4h4.4h4.4h4.4h4.4h4.4h4.4h4.4h4.4h4.4h4.4V97.4z
		 M420.8,97.4v4.4h-4.4v4.4h-4.4v4.4h-4.4v-4.4v-4.4v-4.4V93h4.4h4.4h4.4h4.4v4.4H420.8z M425.2,168.3h-4.4v4.4h-4.4v4.4h-4.4v4.4
		h-4.4v-4.4v-4.4v-4.4v-4.4h4.4h4.4h4.4h4.4V168.3z M708.7,186h4.4v-4.4h4.4v-4.4h4.4v-4.4h4.4v-4.4h4.4v-4.4h4.4v-4.4h4.4V155h4.4
		v-4.4h4.4v-4.4h4.4v-4.4h4.4v-4.4h4.4v-4.4h4.4v-4.4h4.4V124h4.4v-4.4h4.4v-4.4h4.4v-4.4h4.4v-4.4h4.4v4.4v4.4v4.4v4.4h-4.4v4.4
		H784v4.4h-4.4v4.4h-4.4v4.4h-4.4v4.4h-4.4v4.4h-4.4v4.4h-4.4v4.4H753v4.4h-4.4v4.4h-4.4v4.4h-4.4v4.4h-4.4v4.4h-4.4v4.4h-4.4v4.4
		h-4.4v4.4h-4.4h-4.4h-4.4h-4.4v-4.4h4.4V186z M939,97.4v4.4v4.4v4.4v4.4v4.4h-4.4h-4.4h-4.4h-4.4h-4.4h-4.4H908h-4.4h-4.4h-4.4
		h-4.4h-4.4h-4.4H877h-4.4h-4.4h-4.4h-4.4h-4.4h-4.4v-4.4h4.4v-4.4h4.4v-4.4h4.4v-4.4h4.4v-4.4h4.4V93h4.4h4.4h4.4h4.4h4.4h4.4h4.4
		h4.4h4.4h4.4h4.4h4.4h4.4h4.4h4.4V97.4z M837.1,106.3v-4.4v-4.4V93h4.4h4.4h4.4h4.4v4.4h-4.4v4.4H846v4.4h-4.4v4.4h-4.4V106.3z
		 M819.4,26.6H815V31h-4.4v4.4h-4.4v4.4h-4.4v4.4h-4.4v4.4h-4.4v4.4v4.4V62v4.4v4.4v4.4v4.4v4.4v4.4h-4.4V93H784v4.4h-4.4v4.4h-4.4
		v4.4h-4.4v4.4h-4.4v4.4h-4.4v4.4h-4.4v4.4H753v4.4h-4.4v4.4h-4.4v4.4h-4.4v4.4h-4.4v4.4h-4.4v4.4h-4.4v4.4h-4.4v4.4h-4.4v4.4h-4.4
		v4.4h-4.4v4.4h-4.4v4.4h-4.4v4.4h-4.4v-4.4v-4.4v-4.4v-4.4v-4.4V155v-4.4v-4.4v-4.4v-4.4v-4.4v-4.4V124v-4.4v-4.4v-4.4v-4.4v-4.4
		v-4.4V93h4.4h4.4h4.4h4.4h4.4h4.4h4.4h4.4v-4.4h4.4v-4.4h4.4v-4.4h4.4v-4.4h4.4v-4.4h4.4v-4.4h4.4V62h4.4v-4.4h4.4v-4.4h4.4v-4.4
		h4.4v-4.4h4.4v-4.4h4.4v-4.4h4.4V31h4.4v-4.4h4.4v-4.4h4.4h4.4h4.4h4.4h4.4V26.6z M784,26.6h-4.4V31h-4.4v4.4h-4.4v4.4h-4.4v4.4
		h-4.4v4.4h-4.4v4.4H753v4.4h-4.4V62h-4.4v4.4h-4.4v4.4h-4.4v4.4h-4.4v-4.4v-4.4V62v-4.4v-4.4h4.4v-4.4h4.4v-4.4h4.4v-4.4h4.4v-4.4
		h4.4V31h4.4v-4.4h4.4v-4.4h4.4h4.4h4.4h4.4h4.4V26.6z M748.5,26.6h-4.4V31h-4.4v4.4h-4.4v4.4h-4.4v4.4h-4.4v4.4h-4.4h-4.4h-4.4
		h-4.4h-4.4h-4.4h-4.4h-4.4h-4.4h-4.4h-4.4h-4.4h-4.4h-4.4h-4.4h-4.4h-4.4h-4.4h-4.4h-4.4h-4.4v-4.4h4.4v-4.4h4.4v-4.4h4.4V31h4.4
		v-4.4h4.4v-4.4h4.4h4.4h4.4h4.4h4.4h4.4h4.4h4.4h4.4h4.4h4.4h4.4h4.4h4.4h4.4h4.4h4.4h4.4h4.4h4.4h4.4V26.6z M637.8,26.6h-4.4V31
		h-4.4v4.4h-4.4v4.4h-4.4v4.4h-4.4v4.4h-4.4v4.4h-4.4v4.4h-4.4V62h-4.4v4.4h-4.4v4.4h-4.4v4.4h-4.4v4.4h-4.4v4.4h-4.4v4.4h-4.4V93
		h-4.4v4.4h-4.4v4.4h-4.4v4.4h-4.4v4.4h-4.4v4.4h-4.4v4.4h-4.4v4.4h-4.4v4.4h-4.4v4.4h-4.4v4.4h-4.4v4.4h-4.4v4.4h-4.4v-4.4v-4.4
		v-4.4v-4.4h4.4V124h4.4v-4.4h4.4v-4.4h4.4v-4.4h4.4v-4.4h4.4v-4.4h4.4v-4.4h4.4V93h4.4v-4.4h4.4v-4.4h4.4v-4.4h4.4v-4.4h4.4v-4.4
		h4.4v-4.4h4.4V62h4.4v-4.4h4.4v-4.4h4.4v-4.4h4.4v-4.4h4.4v-4.4h4.4v-4.4h4.4V31h4.4v-4.4h4.4v-4.4h4.4h4.4h4.4h4.4V26.6z
		 M602.4,26.6h-4.4V31h-4.4v4.4h-4.4v4.4h-4.4v4.4h-4.4v4.4h-4.4v4.4h-4.4v4.4h-4.4V62h-4.4v4.4h-4.4v4.4h-4.4v4.4h-4.4v-4.4v-4.4
		V62v-4.4h4.4v-4.4h4.4v-4.4h4.4v-4.4h4.4v-4.4h4.4v-4.4h4.4V31h4.4v-4.4h4.4v-4.4h4.4h4.4h4.4h4.4V26.6z M566.9,26.6h-4.4V31h-4.4
		v4.4h-4.4v4.4h-4.4v4.4h-4.4v4.4h-4.4h-4.4h-4.4h-4.4h-4.4h-4.4h-4.4h-4.4h-4.4h-4.4h-4.4h-4.4h-4.4h-4.4h-4.4h-4.4h-4.4h-4.4h-4.4
		h-4.4h-4.4h-4.4h-4.4h-4.4h-4.4h-4.4h-4.4h-4.4h-4.4h-4.4h-4.4h-4.4h-4.4h-4.4h-4.4h-4.4h-4.4v-4.4h4.4v-4.4h4.4v-4.4h4.4V31h4.4
		v-4.4h4.4v-4.4h4.4h4.4h4.4h4.4h4.4h4.4h4.4h4.4h4.4h4.4h4.4h4.4h4.4h4.4h4.4h4.4h4.4h4.4h4.4h4.4h4.4h4.4h4.4h4.4h4.4h4.4h4.4h4.4
		h4.4h4.4h4.4h4.4h4.4h4.4h4.4h4.4h4.4V26.6z M385.3,26.6h-4.4V31h-4.4v4.4H372v4.4h-4.4v4.4h-4.4v4.4h-4.4v4.4h-4.4v4.4h-4.4V62
		h-4.4v4.4H341v4.4h-4.4v4.4h-4.4v-4.4v-4.4V62v-4.4h4.4v-4.4h4.4v-4.4h4.4v-4.4h4.4v-4.4h4.4v-4.4h4.4V31h4.4v-4.4h4.4v-4.4h4.4
		h4.4h4.4h4.4V26.6z M349.9,26.6h-4.4V31H341v4.4h-4.4v4.4h-4.4v4.4h-4.4v4.4h-4.4h-4.4h-4.4H310h-4.4h-4.4h-4.4h-4.4h-4.4h-4.4H279
		h-4.4h-4.4h-4.4h-4.4h-4.4h-4.4H248h-4.4h-4.4h-4.4h-4.4h-4.4h-4.4H217h-4.4h-4.4h-4.4h-4.4h-4.4h-4.4H186h-4.4h-4.4h-4.4h-4.4
		h-4.4v-4.4h4.4v-4.4h4.4v-4.4h4.4V31h4.4v-4.4h4.4v-4.4h4.4h4.4h4.4h4.4h4.4h4.4h4.4h4.4h4.4h4.4h4.4h4.4h4.4h4.4h4.4h4.4h4.4h4.4
		h4.4h4.4h4.4h4.4h4.4h4.4h4.4h4.4h4.4h4.4h4.4h4.4h4.4h4.4h4.4h4.4h4.4h4.4h4.4V26.6z"/>
</g>
</svg>
