<?xml version="1.0" encoding="utf-8"?>
<!-- Generator: Adobe Illustrator 23.1.1, SVG Export Plug-In . SVG Version: 6.00 Build 0)  -->
<svg version="1.1" id="Livello_1" shape-rendering="crispEdges"
	 xmlns="http://www.w3.org/2000/svg" xmlns:xlink="http://www.w3.org/1999/xlink" x="0px" y="0px" viewBox="0 0 1133.9 283.5"
	 style="enable-background:new 0 0 1133.9 283.5;" xml:space="preserve">
<g>
	<polygon points="403.1,0 398.6,0 394.2,0 389.8,0 385.3,0 380.9,0 376.5,0 372,0 367.6,0 363.2,0 358.8,0 354.3,0 349.9,0 345.5,0 
		341,0 336.6,0 332.2,0 327.8,0 323.3,0 318.9,0 314.5,0 310,0 305.6,0 301.2,0 296.8,0 292.3,0 287.9,0 283.5,0 279,0 274.6,0 
		270.2,0 270.2,4.4 270.2,8.9 270.2,13.3 270.2,17.7 270.2,22.1 270.2,26.6 270.2,31 270.2,35.4 270.2,39.9 270.2,44.3 270.2,48.7 
		270.2,53.1 270.2,57.6 270.2,62 270.2,66.4 270.2,70.9 270.2,75.3 270.2,79.7 270.2,84.2 270.2,88.6 270.2,93 270.2,97.4 
		270.2,101.9 270.2,106.3 270.2,110.7 270.2,115.2 270.2,119.6 270.2,124 270.2,128.4 270.2,132.9 270.2,137.3 270.2,141.7 
		270.2,146.2 270.2,150.6 270.2,155 270.2,159.4 270.2,163.9 274.6,163.9 279,163.9 283.5,163.9 283.5,159.4 283.5,155 287.9,155 
		292.3,155 292.3,150.6 292.3,146.2 292.3,141.7 296.8,141.7 301.2,141.7 305.6,141.7 305.6,137.3 305.6,132.9 305.6,128.4 
		301.2,128.4 296.8,128.4 292.3,128.4 292.3,124 292.3,119.6 292.3,115.2 292.3,110.7 292.3,106.3 292.3,101.9 292.3,97.4 292.3,93 
		292.3,88.6 292.3,84.2 292.3,79.7 292.3,75.3 292.3,70.9 292.3,66.4 292.3,62 292.3,57.6 292.3,53.1 292.3,48.7 292.3,44.3 
		292.3,39.9 292.3,35.4 296.8,35.4 301.2,35.4 305.6,35.4 305.6,31 305.6,26.6 305.6,22.1 310,22.1 314.5,22.1 318.9,22.1 
		318.9,26.6 318.9,31 318.9,35.4 323.3,35.4 327.8,35.4 327.8,39.9 327.8,44.3 327.8,48.7 327.8,53.1 327.8,57.6 327.8,62 
		327.8,66.4 327.8,70.9 327.8,75.3 327.8,79.7 327.8,84.2 327.8,88.6 327.8,93 327.8,97.4 327.8,101.9 327.8,106.3 327.8,110.7 
		327.8,115.2 327.8,119.6 327.8,124 327.8,128.4 327.8,132.9 327.8,137.3 327.8,141.7 327.8,146.2 327.8,150.6 327.8,155 
		327.8,159.4 327.8,163.9 323.3,163.9 318.9,163.9 318.9,168.3 318.9,172.7 318.9,177.2 314.5,177.2 310,177.2 305.6,177.2 
		305.6,181.6 305.6,186 305.6,190.5 310,190.5 314.5,190.5 318.9,190.5 318.9,194.9 318.9,199.3 323.3,199.3 327.8,199.3 
		327.8,203.7 327.8,208.2 327.8,212.6 327.8,217 327.8,221.5 327.8,225.9 327.8,230.3 327.8,234.7 327.8,239.2 327.8,243.6 
		327.8,248 327.8,252.5 327.8,256.9 327.8,261.3 323.3,261.3 318.9,261.3 318.9,265.7 318.9,270.2 314.5,270.2 310,270.2 
		305.6,270.2 305.6,274.6 305.6,279 305.6,283.5 310,283.5 314.5,283.5 318.9,283.5 323.3,283.5 327.8,283.5 332.2,283.5 
		336.6,283.5 341,283.5 345.5,283.5 349.9,283.5 354.3,283.5 358.8,283.5 363.2,283.5 367.6,283.5 372,283.5 376.5,283.5 376.5,279 
		376.5,274.6 376.5,270.2 372,270.2 367.6,270.2 363.2,270.2 363.2,265.7 363.2,261.3 358.8,261.3 354.3,261.3 354.3,256.9 
		354.3,252.5 354.3,248 354.3,243.6 354.3,239.2 354.3,234.7 354.3,230.3 354.3,225.9 354.3,221.5 354.3,217 354.3,212.6 
		354.3,208.2 354.3,203.7 354.3,199.3 358.8,199.3 363.2,199.3 363.2,194.9 363.2,190.5 367.6,190.5 372,190.5 376.5,190.5 
		376.5,186 376.5,181.6 376.5,177.2 372,177.2 367.6,177.2 363.2,177.2 363.2,172.7 363.2,168.3 363.2,163.9 358.8,163.9 
		354.3,163.9 354.3,159.4 354.3,155 354.3,150.6 354.3,146.2 354.3,141.7 354.3,137.3 354.3,132.9 354.3,128.4 354.3,124 
		354.3,119.6 354.3,115.2 354.3,110.7 354.3,106.3 354.3,101.9 354.3,97.4 354.3,93 354.3,88.6 354.3,84.2 354.3,79.7 354.3,75.3 
		354.3,70.9 354.3,66.4 354.3,62 354.3,57.6 354.3,53.1 354.3,48.7 354.3,44.3 354.3,39.9 354.3,35.4 358.8,35.4 363.2,35.4 
		363.2,31 363.2,26.6 363.2,22.1 367.6,22.1 372,22.1 376.5,22.1 376.5,26.6 376.5,31 376.5,35.4 380.9,35.4 385.3,35.4 389.8,35.4 
		389.8,39.9 389.8,44.3 389.8,48.7 389.8,53.1 389.8,57.6 389.8,62 389.8,66.4 389.8,70.9 389.8,75.3 389.8,79.7 389.8,84.2 
		389.8,88.6 389.8,93 389.8,97.4 389.8,101.9 389.8,106.3 389.8,110.7 389.8,115.2 389.8,119.6 389.8,124 389.8,128.4 385.3,128.4 
		380.9,128.4 376.5,128.4 376.5,132.9 376.5,137.3 376.5,141.7 380.9,141.7 385.3,141.7 389.8,141.7 389.8,146.2 389.8,150.6 
		389.8,155 394.2,155 398.6,155 398.6,159.4 398.6,163.9 403.1,163.9 407.5,163.9 411.9,163.9 411.9,159.4 411.9,155 411.9,150.6 
		411.9,146.2 411.9,141.7 411.9,137.3 411.9,132.9 411.9,128.4 411.9,124 411.9,119.6 411.9,115.2 411.9,110.7 411.9,106.3 
		411.9,101.9 411.9,97.4 411.9,93 411.9,88.6 411.9,84.2 411.9,79.7 411.9,75.3 411.9,70.9 411.9,66.4 411.9,62 411.9,57.6 
		411.9,53.1 411.9,48.7 411.9,44.3 411.9,39.9 411.9,35.4 411.9,31 411.9,26.6 411.9,22.1 411.9,17.7 411.9,13.3 411.9,8.9 
		411.9,4.4 411.9,0 407.5,0 	"/>
	<polygon points="659.9,88.6 659.9,84.2 655.5,84.2 651.1,84.2 646.7,84.2 642.2,84.2 637.8,84.2 633.4,84.2 628.9,84.2 624.5,84.2 
		624.5,79.7 624.5,75.3 624.5,70.9 624.5,66.4 624.5,62 624.5,57.6 624.5,53.1 624.5,48.7 624.5,44.3 624.5,39.9 624.5,35.4 
		624.5,31 624.5,26.6 624.5,22.1 628.9,22.1 633.4,22.1 637.8,22.1 637.8,17.7 637.8,13.3 642.2,13.3 646.7,13.3 651.1,13.3 
		651.1,8.9 651.1,4.4 651.1,0 646.7,0 642.2,0 637.8,0 633.4,0 628.9,0 624.5,0 620.1,0 615.6,0 611.2,0 606.8,0 602.4,0 597.9,0 
		593.5,0 589.1,0 584.6,0 580.2,0 575.8,0 575.8,4.4 575.8,8.9 575.8,13.3 580.2,13.3 584.6,13.3 589.1,13.3 589.1,17.7 589.1,22.1 
		593.5,22.1 597.9,22.1 602.4,22.1 602.4,26.6 602.4,31 602.4,35.4 602.4,39.9 602.4,44.3 602.4,48.7 602.4,53.1 602.4,57.6 
		602.4,62 602.4,66.4 602.4,70.9 602.4,75.3 602.4,79.7 602.4,84.2 597.9,84.2 593.5,84.2 589.1,84.2 584.6,84.2 580.2,84.2 
		575.8,84.2 571.4,84.2 566.9,84.2 566.9,88.6 566.9,93 571.4,93 575.8,93 575.8,97.4 575.8,101.9 575.8,106.3 580.2,106.3 
		584.6,106.3 589.1,106.3 589.1,110.7 589.1,115.2 589.1,119.6 593.5,119.6 597.9,119.6 602.4,119.6 602.4,124 602.4,128.4 
		602.4,132.9 602.4,137.3 602.4,141.7 602.4,146.2 602.4,150.6 602.4,155 602.4,159.4 602.4,163.9 597.9,163.9 593.5,163.9 
		589.1,163.9 589.1,168.3 589.1,172.7 584.6,172.7 580.2,172.7 575.8,172.7 575.8,177.2 575.8,181.6 575.8,186 575.8,190.5 
		580.2,190.5 584.6,190.5 589.1,190.5 589.1,194.9 589.1,199.3 593.5,199.3 597.9,199.3 602.4,199.3 602.4,203.7 602.4,208.2 
		602.4,212.6 602.4,217 602.4,221.5 602.4,225.9 602.4,230.3 602.4,234.7 602.4,239.2 602.4,243.6 602.4,248 602.4,252.5 
		602.4,256.9 602.4,261.3 597.9,261.3 593.5,261.3 589.1,261.3 589.1,265.7 589.1,270.2 584.6,270.2 580.2,270.2 575.8,270.2 
		575.8,274.6 575.8,279 575.8,283.5 580.2,283.5 584.6,283.5 589.1,283.5 593.5,283.5 597.9,283.5 602.4,283.5 606.8,283.5 
		611.2,283.5 615.6,283.5 620.1,283.5 624.5,283.5 628.9,283.5 633.4,283.5 637.8,283.5 642.2,283.5 646.7,283.5 651.1,283.5 
		651.1,279 651.1,274.6 651.1,270.2 646.7,270.2 642.2,270.2 637.8,270.2 637.8,265.7 637.8,261.3 633.4,261.3 628.9,261.3 
		624.5,261.3 624.5,256.9 624.5,252.5 624.5,248 624.5,243.6 624.5,239.2 624.5,234.7 624.5,230.3 624.5,225.9 624.5,221.5 
		624.5,217 624.5,212.6 624.5,208.2 624.5,203.7 624.5,199.3 628.9,199.3 633.4,199.3 637.8,199.3 637.8,194.9 637.8,190.5 
		642.2,190.5 646.7,190.5 651.1,190.5 651.1,186 651.1,181.6 651.1,177.2 651.1,172.7 646.7,172.7 642.2,172.7 637.8,172.7 
		637.8,168.3 637.8,163.9 633.4,163.9 628.9,163.9 624.5,163.9 624.5,159.4 624.5,155 624.5,150.6 624.5,146.2 624.5,141.7 
		624.5,137.3 624.5,132.9 624.5,128.4 624.5,124 624.5,119.6 628.9,119.6 633.4,119.6 637.8,119.6 637.8,115.2 637.8,110.7 
		637.8,106.3 642.2,106.3 646.7,106.3 651.1,106.3 651.1,101.9 651.1,97.4 651.1,93 655.5,93 659.9,93 	"/>
	<path d="M558.1,248h-4.4v4.4v4.4v4.4h-4.4h-4.4h-4.4h-4.4h-4.4h-4.4h-4.4h-4.4h-4.4h-4.4h-4.4h-4.4h-4.4h-4.4h-4.4h-4.4h-4.4h-4.4
		h-4.4v-4.4v-4.4V248h-4.4h-4.4v-4.4v-4.4v-4.4v-4.4v-4.4v-4.4V217v-4.4v-4.4v-4.4v-4.4h4.4h4.4v-4.4v-4.4h4.4h4.4h4.4h4.4h4.4h4.4
		h4.4h4.4h4.4h4.4h4.4h4.4h4.4h4.4V186v-4.4v-4.4h4.4h4.4v-4.4v-4.4v-4.4h4.4h4.4h4.4v-4.4V155v-4.4v-4.4v-4.4v-4.4v-4.4v-4.4V124
		v-4.4h-4.4h-4.4h-4.4v-4.4v-4.4v-4.4h-4.4h-4.4v-4.4v-4.4V93h-4.4h-4.4h-4.4h-4.4h-4.4h-4.4h-4.4h-4.4h-4.4h-4.4h-4.4h-4.4h-4.4
		h-4.4v-4.4v-4.4h-4.4h-4.4v-4.4v-4.4v-4.4v-4.4V62v-4.4v-4.4v-4.4v-4.4v-4.4v-4.4h4.4h4.4V31v-4.4v-4.4h4.4h4.4h4.4h4.4h4.4h4.4
		h4.4h4.4h4.4h4.4h4.4h4.4h4.4h4.4h4.4h4.4v4.4V31v4.4h4.4h4.4h4.4v4.4v4.4v4.4h4.4h4.4h4.4v-4.4v-4.4v-4.4V31v-4.4v-4.4v-4.4v-4.4
		V8.9V4.4V0h-4.4h-4.4h-4.4h-4.4h-4.4h-4.4h-4.4h-4.4h-4.4h-4.4h-4.4h-4.4h-4.4h-4.4h-4.4h-4.4h-4.4h-4.4h-4.4h-4.4h-4.4h-4.4h-4.4
		h-4.4h-4.4h-4.4h-4.4h-4.4h-4.4h-4.4h-4.4h-4.4v4.4v4.4v4.4h4.4h4.4v4.4v4.4v4.4V31v4.4v4.4v4.4v4.4v4.4v4.4V62v4.4v4.4v4.4v4.4
		v4.4v4.4V93v4.4v4.4v4.4v4.4v4.4v4.4v4.4v4.4v4.4v4.4v4.4v4.4v4.4v4.4v4.4v4.4v4.4v4.4v4.4v4.4v4.4v4.4v4.4v4.4v4.4v4.4v4.4v4.4
		v4.4v4.4v4.4v4.4v4.4v4.4v4.4v4.4v4.4v4.4v4.4v4.4h-4.4h-4.4v4.4v4.4v4.4h4.4h4.4h4.4h4.4h4.4h4.4h4.4h4.4h4.4h4.4h4.4h4.4h4.4h4.4
		h4.4h4.4h4.4h4.4h4.4h4.4h4.4h4.4h4.4h4.4h4.4h4.4h4.4h4.4h4.4h4.4h4.4h4.4V279v-4.4v-4.4v-4.4v-4.4v-4.4v-4.4V248h-4.4H558.1z
		 M531.5,155h-4.4h-4.4h-4.4v4.4v4.4h-4.4h-4.4h-4.4h-4.4h-4.4h-4.4h-4.4h-4.4h-4.4h-4.4h-4.4v-4.4V155h-4.4h-4.4v-4.4v-4.4v-4.4
		v-4.4v-4.4v-4.4h4.4h4.4V124v-4.4h4.4h4.4h4.4h4.4h4.4h4.4h4.4h4.4h4.4h4.4h4.4v4.4v4.4h4.4h4.4h4.4v4.4v4.4v4.4v4.4v4.4V155z"/>
	<path d="M859.3,270.2h-4.4h-4.4v-4.4v-4.4H846h-4.4h-4.4v-4.4v-4.4V248v-4.4v-4.4v-4.4h-4.4h-4.4v-4.4v-4.4v-4.4V217v-4.4v-4.4
		v-4.4v-4.4v-4.4v-4.4h-4.4h-4.4H815V186v-4.4v-4.4v-4.4v-4.4v-4.4h4.4h4.4h4.4v-4.4V155h4.4h4.4v-4.4v-4.4v-4.4v-4.4v-4.4v-4.4
		h-4.4h-4.4V124v-4.4h-4.4h-4.4H815v-4.4v-4.4v-4.4v-4.4v-4.4V93v-4.4v-4.4v-4.4v-4.4v-4.4v-4.4V62v-4.4v-4.4v-4.4h4.4h4.4h4.4v-4.4
		v-4.4v-4.4V31v-4.4v-4.4h4.4h4.4v-4.4v-4.4h4.4h4.4h4.4V8.9V4.4V0H846h-4.4h-4.4h-4.4h-4.4h-4.4h-4.4H815h-4.4h-4.4h-4.4h-4.4h-4.4
		h-4.4H784h-4.4h-4.4h-4.4h-4.4h-4.4h-4.4H753h-4.4h-4.4h-4.4h-4.4h-4.4h-4.4h-4.4h-4.4h-4.4h-4.4h-4.4h-4.4h-4.4h-4.4h-4.4h-4.4
		h-4.4h-4.4v4.4v4.4v4.4h4.4h4.4h4.4v4.4v4.4h4.4h4.4v4.4V31v4.4v4.4v4.4v4.4h4.4h4.4h4.4v4.4v4.4V62v4.4v4.4v4.4v4.4v4.4v4.4V93
		v4.4v4.4v4.4v4.4v4.4v4.4h-4.4h-4.4h-4.4v4.4v4.4h-4.4h-4.4v4.4v4.4v4.4v4.4v4.4v4.4h4.4h4.4v4.4v4.4h4.4h4.4h4.4v4.4v4.4v4.4v4.4
		v4.4v4.4h-4.4h-4.4h-4.4v4.4v4.4v4.4v4.4v4.4v4.4v4.4v4.4v4.4v4.4h-4.4h-4.4v4.4v4.4v4.4v4.4v4.4v4.4h-4.4h-4.4h-4.4v4.4v4.4h-4.4
		h-4.4h-4.4v4.4v4.4v4.4h4.4h4.4h4.4h4.4h4.4h4.4h4.4h4.4h4.4h4.4h4.4h4.4h4.4h4.4V279v-4.4v-4.4h-4.4h-4.4h-4.4v-4.4v-4.4v-4.4
		v-4.4V248h4.4h4.4h4.4v-4.4v-4.4v-4.4v-4.4v-4.4v-4.4V217v-4.4h4.4h4.4v-4.4v-4.4v-4.4h4.4h4.4h4.4h4.4h4.4h4.4h4.4h4.4h4.4h4.4
		h4.4h4.4h4.4h4.4v4.4v4.4v4.4h4.4h4.4v4.4v4.4v4.4v4.4v4.4v4.4v4.4v4.4h4.4h4.4h4.4v4.4v4.4v4.4v4.4v4.4h-4.4h-4.4h-4.4v4.4v4.4
		v4.4h4.4h4.4h4.4h4.4h4.4h4.4h4.4h4.4h4.4h4.4h4.4h4.4h4.4h4.4V279v-4.4v-4.4H859.3z M801.7,35.4h-4.4h-4.4v4.4v4.4v4.4v4.4v4.4V62
		v4.4v4.4v4.4v4.4v4.4v4.4V93v4.4v4.4v4.4v4.4v4.4v4.4v4.4v4.4v4.4v4.4v4.4v4.4v4.4v4.4v4.4v4.4h-4.4H784h-4.4v4.4v4.4v4.4h-4.4
		h-4.4h-4.4h-4.4h-4.4H753h-4.4h-4.4v-4.4v-4.4v-4.4h-4.4h-4.4h-4.4v-4.4V155v-4.4v-4.4v-4.4v-4.4v-4.4v-4.4V124v-4.4v-4.4v-4.4
		v-4.4v-4.4v-4.4V93v-4.4v-4.4v-4.4v-4.4v-4.4v-4.4V62v-4.4v-4.4v-4.4v-4.4v-4.4v-4.4h-4.4h-4.4V31v-4.4v-4.4h4.4h4.4h4.4h4.4h4.4
		h4.4h4.4h4.4h4.4h4.4h4.4h4.4h4.4h4.4h4.4h4.4h4.4h4.4v4.4V31V35.4z"/>
</g>
</svg>
