<?xml version="1.0" encoding="utf-8"?>
<!-- Generator: Adobe Illustrator 23.1.1, SVG Export Plug-In . SVG Version: 6.00 Build 0)  -->
<svg version="1.1" id="Livello_1" shape-rendering="crispEdges"
	 xmlns="http://www.w3.org/2000/svg" xmlns:xlink="http://www.w3.org/1999/xlink" x="0px" y="0px" viewBox="0 0 1133.9 283.5"
	 style="enable-background:new 0 0 1133.9 283.5;" xml:space="preserve">
<g>
	<polygon points="274.6,46.5 270.2,46.5 265.7,46.5 261.3,46.5 256.9,46.5 252.5,46.5 248,46.5 243.6,46.5 239.2,46.5 234.7,46.5 
		230.3,46.5 225.9,46.5 221.5,46.5 217,46.5 212.6,46.5 208.2,46.5 203.7,46.5 199.3,46.5 194.9,46.5 190.5,46.5 186,46.5 
		181.6,46.5 177.2,46.5 172.7,46.5 168.3,46.5 163.9,46.5 159.4,46.5 155,46.5 150.6,46.5 146.2,46.5 141.7,46.5 137.3,46.5 
		132.9,46.5 128.4,46.5 124,46.5 119.6,46.5 115.2,46.5 110.7,46.5 106.3,46.5 101.9,46.5 97.4,46.5 93,46.5 88.6,46.5 84.2,46.5 
		79.7,46.5 75.3,46.5 70.9,46.5 66.4,46.5 62,46.5 57.6,46.5 53.1,46.5 48.7,46.5 44.3,46.5 39.9,46.5 35.4,46.5 31,46.5 26.6,46.5 
		22.1,46.5 17.7,46.5 13.3,46.5 8.9,46.5 4.4,46.5 0,46.5 0,50.9 0,55.4 0,59.8 0,64.2 0,68.7 0,73.1 0,77.5 0,81.9 0,86.4 0,90.8 
		0,95.2 0,99.7 0,104.1 0,108.5 0,112.9 0,117.4 0,121.8 0,126.2 0,130.7 0,135.1 0,139.5 4.4,139.5 8.9,139.5 13.3,139.5 
		17.7,139.5 22.1,139.5 26.6,139.5 31,139.5 35.4,139.5 39.9,139.5 44.3,139.5 48.7,139.5 53.1,139.5 57.6,139.5 62,139.5 
		66.4,139.5 70.9,139.5 75.3,139.5 79.7,139.5 84.2,139.5 88.6,139.5 93,139.5 93,143.9 93,148.4 93,152.8 93,157.2 93,161.7 
		93,166.1 93,170.5 93,175 93,179.4 93,183.8 93,188.2 93,192.7 93,197.1 93,201.5 93,206 93,210.4 93,214.8 93,219.2 93,223.7 
		93,228.1 93,232.5 93,237 97.4,237 101.9,237 106.3,237 110.7,237 115.2,237 119.6,237 124,237 128.4,237 132.9,237 137.3,237 
		141.7,237 146.2,237 150.6,237 155,237 159.4,237 163.9,237 168.3,237 172.7,237 177.2,237 181.6,237 186,237 190.5,237 
		190.5,232.5 190.5,228.1 190.5,223.7 190.5,219.2 190.5,214.8 190.5,210.4 190.5,206 190.5,201.5 190.5,197.1 190.5,192.7 
		190.5,188.2 190.5,183.8 190.5,179.4 190.5,175 190.5,170.5 190.5,166.1 190.5,161.7 190.5,157.2 190.5,152.8 190.5,148.4 
		190.5,143.9 190.5,139.5 194.9,139.5 199.3,139.5 203.7,139.5 208.2,139.5 212.6,139.5 217,139.5 221.5,139.5 225.9,139.5 
		230.3,139.5 234.7,139.5 239.2,139.5 243.6,139.5 248,139.5 252.5,139.5 256.9,139.5 261.3,139.5 265.7,139.5 270.2,139.5 
		274.6,139.5 279,139.5 283.5,139.5 283.5,135.1 283.5,130.7 283.5,126.2 283.5,121.8 283.5,117.4 283.5,112.9 283.5,108.5 
		283.5,104.1 283.5,99.7 283.5,95.2 283.5,90.8 283.5,86.4 283.5,81.9 283.5,77.5 283.5,73.1 283.5,68.7 283.5,64.2 283.5,59.8 
		283.5,55.4 283.5,50.9 283.5,46.5 279,46.5 	"/>
	<polygon points="748.5,46.5 744.1,46.5 739.7,46.5 735.2,46.5 730.8,46.5 726.4,46.5 721.9,46.5 717.5,46.5 713.1,46.5 708.7,46.5 
		704.2,46.5 699.8,46.5 695.4,46.5 690.9,46.5 686.5,46.5 682.1,46.5 677.7,46.5 673.2,46.5 668.8,46.5 664.4,46.5 659.9,46.5 
		659.9,50.9 659.9,55.4 659.9,59.8 659.9,64.2 659.9,68.7 659.9,73.1 659.9,77.5 659.9,81.9 659.9,86.4 659.9,90.8 659.9,95.2 
		659.9,99.7 659.9,104.1 659.9,108.5 659.9,112.9 659.9,117.4 659.9,121.8 659.9,126.2 659.9,130.7 659.9,135.1 659.9,139.5 
		659.9,143.9 659.9,148.4 659.9,152.8 659.9,157.2 659.9,161.7 659.9,166.1 659.9,170.5 659.9,175 659.9,179.4 659.9,183.8 
		659.9,188.2 659.9,192.7 659.9,197.1 659.9,201.5 659.9,206 659.9,210.4 659.9,214.8 659.9,219.2 659.9,223.7 659.9,228.1 
		659.9,232.5 659.9,237 664.4,237 668.8,237 673.2,237 677.7,237 682.1,237 686.5,237 690.9,237 695.4,237 699.8,237 704.2,237 
		708.7,237 713.1,237 717.5,237 721.9,237 726.4,237 730.8,237 735.2,237 739.7,237 744.1,237 748.5,237 753,237 757.4,237 
		757.4,232.5 757.4,228.1 757.4,223.7 757.4,219.2 757.4,214.8 757.4,210.4 757.4,206 757.4,201.5 757.4,197.1 757.4,192.7 
		757.4,188.2 757.4,183.8 757.4,179.4 757.4,175 757.4,170.5 757.4,166.1 757.4,161.7 757.4,157.2 757.4,152.8 757.4,148.4 
		757.4,143.9 757.4,139.5 757.4,135.1 757.4,130.7 757.4,126.2 757.4,121.8 757.4,117.4 757.4,112.9 757.4,108.5 757.4,104.1 
		757.4,99.7 757.4,95.2 757.4,90.8 757.4,86.4 757.4,81.9 757.4,77.5 757.4,73.1 757.4,68.7 757.4,64.2 757.4,59.8 757.4,55.4 
		757.4,50.9 757.4,46.5 753,46.5 	"/>
	<polygon points="558.1,139.5 553.6,139.5 549.2,139.5 544.8,139.5 540.4,139.5 535.9,139.5 531.5,139.5 527.1,139.5 522.6,139.5 
		518.2,139.5 513.8,139.5 509.4,139.5 504.9,139.5 500.5,139.5 496.1,139.5 491.6,139.5 487.2,139.5 482.8,139.5 478.3,139.5 
		473.9,139.5 469.5,139.5 465.1,139.5 460.6,139.5 456.2,139.5 451.8,139.5 447.3,139.5 442.9,139.5 438.5,139.5 434.1,139.5 
		429.6,139.5 425.2,139.5 420.8,139.5 416.3,139.5 411.9,139.5 407.5,139.5 403.1,139.5 398.6,139.5 394.2,139.5 389.8,139.5 
		385.3,139.5 380.9,139.5 376.5,139.5 376.5,143.9 376.5,148.4 376.5,152.8 376.5,157.2 376.5,161.7 376.5,166.1 376.5,170.5 
		376.5,175 376.5,179.4 376.5,183.8 376.5,188.2 376.5,192.7 376.5,197.1 376.5,201.5 376.5,206 376.5,210.4 376.5,214.8 
		376.5,219.2 376.5,223.7 376.5,228.1 376.5,232.5 376.5,237 380.9,237 385.3,237 389.8,237 394.2,237 398.6,237 403.1,237 
		407.5,237 411.9,237 416.3,237 420.8,237 425.2,237 429.6,237 434.1,237 438.5,237 442.9,237 447.3,237 451.8,237 456.2,237 
		460.6,237 465.1,237 469.5,237 473.9,237 478.3,237 482.8,237 487.2,237 491.6,237 496.1,237 500.5,237 504.9,237 509.4,237 
		513.8,237 518.2,237 522.6,237 527.1,237 531.5,237 535.9,237 540.4,237 544.8,237 549.2,237 553.6,237 558.1,237 562.5,237 
		566.9,237 566.9,232.5 566.9,228.1 566.9,223.7 566.9,219.2 566.9,214.8 566.9,210.4 566.9,206 566.9,201.5 566.9,197.1 
		566.9,192.7 566.9,188.2 566.9,183.8 566.9,179.4 566.9,175 566.9,170.5 566.9,166.1 566.9,161.7 566.9,157.2 566.9,152.8 
		566.9,148.4 566.9,143.9 566.9,139.5 562.5,139.5 	"/>
	<polygon points="1129.4,139.5 1125,139.5 1120.6,139.5 1116.1,139.5 1111.7,139.5 1107.3,139.5 1102.9,139.5 1098.4,139.5 
		1094,139.5 1089.6,139.5 1085.1,139.5 1080.7,139.5 1076.3,139.5 1071.9,139.5 1067.4,139.5 1063,139.5 1058.6,139.5 1054.1,139.5 
		1049.7,139.5 1045.3,139.5 1040.8,139.5 1040.8,135.1 1040.8,130.7 1040.8,126.2 1040.8,121.8 1040.8,117.4 1040.8,112.9 
		1040.8,108.5 1040.8,104.1 1040.8,99.7 1040.8,95.2 1040.8,90.8 1040.8,86.4 1040.8,81.9 1040.8,77.5 1040.8,73.1 1040.8,68.7 
		1040.8,64.2 1040.8,59.8 1040.8,55.4 1040.8,50.9 1040.8,46.5 1036.4,46.5 1032,46.5 1027.6,46.5 1023.1,46.5 1018.7,46.5 
		1014.3,46.5 1009.8,46.5 1005.4,46.5 1001,46.5 996.6,46.5 992.1,46.5 987.7,46.5 983.3,46.5 978.8,46.5 974.4,46.5 970,46.5 
		965.6,46.5 961.1,46.5 956.7,46.5 952.3,46.5 947.8,46.5 943.4,46.5 943.4,50.9 943.4,55.4 943.4,59.8 943.4,64.2 943.4,68.7 
		943.4,73.1 943.4,77.5 943.4,81.9 943.4,86.4 943.4,90.8 943.4,95.2 943.4,99.7 943.4,104.1 943.4,108.5 943.4,112.9 943.4,117.4 
		943.4,121.8 943.4,126.2 943.4,130.7 943.4,135.1 943.4,139.5 939,139.5 934.5,139.5 930.1,139.5 925.7,139.5 921.3,139.5 
		916.8,139.5 912.4,139.5 908,139.5 903.5,139.5 899.1,139.5 894.7,139.5 890.3,139.5 885.8,139.5 881.4,139.5 877,139.5 
		872.5,139.5 868.1,139.5 863.7,139.5 859.3,139.5 854.8,139.5 850.4,139.5 850.4,143.9 850.4,148.4 850.4,152.8 850.4,157.2 
		850.4,161.7 850.4,166.1 850.4,170.5 850.4,175 850.4,179.4 850.4,183.8 850.4,188.2 850.4,192.7 850.4,197.1 850.4,201.5 
		850.4,206 850.4,210.4 850.4,214.8 850.4,219.2 850.4,223.7 850.4,228.1 850.4,232.5 850.4,237 854.8,237 859.3,237 863.7,237 
		868.1,237 872.5,237 877,237 881.4,237 885.8,237 890.3,237 894.7,237 899.1,237 903.5,237 908,237 912.4,237 916.8,237 921.3,237 
		925.7,237 930.1,237 934.5,237 939,237 943.4,237 947.8,237 952.3,237 956.7,237 961.1,237 965.6,237 970,237 974.4,237 978.8,237 
		983.3,237 987.7,237 992.1,237 996.6,237 1001,237 1005.4,237 1009.8,237 1014.3,237 1018.7,237 1023.1,237 1027.6,237 1032,237 
		1036.4,237 1040.8,237 1045.3,237 1049.7,237 1054.1,237 1058.6,237 1063,237 1067.4,237 1071.9,237 1076.3,237 1080.7,237 
		1085.1,237 1089.6,237 1094,237 1098.4,237 1102.9,237 1107.3,237 1111.7,237 1116.1,237 1120.6,237 1125,237 1129.4,237 
		1133.9,237 1133.9,232.5 1133.9,228.1 1133.9,223.7 1133.9,219.2 1133.9,214.8 1133.9,210.4 1133.9,206 1133.9,201.5 1133.9,197.1 
		1133.9,192.7 1133.9,188.2 1133.9,183.8 1133.9,179.4 1133.9,175 1133.9,170.5 1133.9,166.1 1133.9,161.7 1133.9,157.2 
		1133.9,152.8 1133.9,148.4 1133.9,143.9 1133.9,139.5 	"/>
</g>
</svg>
