<?xml version="1.0" encoding="utf-8"?>
<!-- Generator: Adobe Illustrator 23.1.1, SVG Export Plug-In . SVG Version: 6.00 Build 0)  -->
<svg version="1.1" id="Livello_1" shape-rendering="crispEdges"
	 xmlns="http://www.w3.org/2000/svg" xmlns:xlink="http://www.w3.org/1999/xlink" x="0px" y="0px" viewBox="0 0 1133.9 283.5"
	 style="enable-background:new 0 0 1133.9 283.5;" xml:space="preserve">
<style type="text/css">
	.st0{fill:#282828;}
	.st1{fill:#262725;}
	.st2{fill:#B3B6AF;}
</style>
<g>
	<polygon class="st0" points="234.7,0 230.3,0 225.9,0 221.5,0 217,0 212.6,0 208.2,0 203.7,0 199.3,0 199.3,4.4 199.3,8.9 
		199.3,13.3 199.3,17.7 199.3,22.1 199.3,26.6 199.3,31 199.3,35.4 199.3,39.9 203.7,39.9 208.2,39.9 212.6,39.9 217,39.9 
		221.5,39.9 225.9,39.9 230.3,39.9 234.7,39.9 239.2,39.9 239.2,35.4 239.2,31 239.2,26.6 239.2,22.1 239.2,17.7 239.2,13.3 
		239.2,8.9 239.2,4.4 239.2,0 	"/>
	<g>
		<polygon class="st1" points="270.2,39.9 265.7,39.9 261.3,39.9 256.9,39.9 252.5,39.9 248,39.9 243.6,39.9 239.2,39.9 239.2,44.3 
			239.2,48.7 239.2,53.1 239.2,57.6 239.2,62 239.2,66.4 239.2,70.9 239.2,75.3 239.2,79.7 243.6,79.7 248,79.7 252.5,79.7 
			256.9,79.7 261.3,79.7 265.7,79.7 270.2,79.7 274.6,79.7 279,79.7 279,75.3 279,70.9 279,66.4 279,62 279,57.6 279,53.1 279,48.7 
			279,44.3 279,39.9 274.6,39.9 		"/>
		<polygon class="st1" points="403.1,75.3 403.1,70.9 403.1,66.4 403.1,62 403.1,57.6 403.1,53.1 403.1,48.7 403.1,44.3 403.1,39.9 
			398.6,39.9 394.2,39.9 389.8,39.9 385.3,39.9 380.9,39.9 376.5,39.9 372,39.9 367.6,39.9 363.2,39.9 363.2,44.3 363.2,48.7 
			363.2,53.1 363.2,57.6 363.2,62 363.2,66.4 363.2,70.9 363.2,75.3 363.2,79.7 367.6,79.7 372,79.7 376.5,79.7 380.9,79.7 
			385.3,79.7 389.8,79.7 394.2,79.7 398.6,79.7 403.1,79.7 		"/>
		<polygon class="st1" points="535.9,79.7 540.4,79.7 544.8,79.7 549.2,79.7 553.6,79.7 558.1,79.7 562.5,79.7 566.9,79.7 
			566.9,75.3 566.9,70.9 566.9,66.4 566.9,62 566.9,57.6 566.9,53.1 566.9,48.7 566.9,44.3 566.9,39.9 562.5,39.9 558.1,39.9 
			553.6,39.9 549.2,39.9 544.8,39.9 540.4,39.9 535.9,39.9 531.5,39.9 527.1,39.9 527.1,44.3 527.1,48.7 527.1,53.1 527.1,57.6 
			527.1,62 527.1,66.4 527.1,70.9 527.1,75.3 527.1,79.7 531.5,79.7 		"/>
		<polygon class="st1" points="699.8,79.7 704.2,79.7 708.7,79.7 713.1,79.7 717.5,79.7 721.9,79.7 726.4,79.7 730.8,79.7 
			730.8,75.3 730.8,70.9 730.8,66.4 730.8,62 730.8,57.6 730.8,53.1 730.8,48.7 730.8,44.3 730.8,39.9 726.4,39.9 721.9,39.9 
			717.5,39.9 713.1,39.9 708.7,39.9 704.2,39.9 699.8,39.9 695.4,39.9 690.9,39.9 690.9,44.3 690.9,48.7 690.9,53.1 690.9,57.6 
			690.9,62 690.9,66.4 690.9,70.9 690.9,75.3 690.9,79.7 695.4,79.7 		"/>
		<polygon class="st1" points="970,79.7 965.6,79.7 961.1,79.7 956.7,79.7 952.3,79.7 947.8,79.7 943.4,79.7 939,79.7 934.5,79.7 
			934.5,84.2 934.5,88.6 934.5,93 934.5,97.4 934.5,101.9 934.5,106.3 934.5,110.7 934.5,115.2 934.5,119.6 939,119.6 943.4,119.6 
			947.8,119.6 952.3,119.6 956.7,119.6 961.1,119.6 965.6,119.6 970,119.6 974.4,119.6 974.4,115.2 974.4,110.7 974.4,106.3 
			974.4,101.9 974.4,97.4 974.4,93 974.4,88.6 974.4,84.2 974.4,79.7 		"/>
		<polygon class="st1" points="527.1,115.2 527.1,110.7 527.1,106.3 527.1,101.9 527.1,97.4 527.1,93 527.1,88.6 527.1,84.2 
			527.1,79.7 522.6,79.7 518.2,79.7 513.8,79.7 509.4,79.7 504.9,79.7 500.5,79.7 496.1,79.7 491.6,79.7 487.2,79.7 482.8,79.7 
			482.8,84.2 482.8,88.6 482.8,93 482.8,97.4 482.8,101.9 482.8,106.3 482.8,110.7 482.8,115.2 482.8,119.6 487.2,119.6 
			491.6,119.6 496.1,119.6 500.5,119.6 504.9,119.6 509.4,119.6 513.8,119.6 518.2,119.6 522.6,119.6 527.1,119.6 		"/>
		<polygon class="st1" points="925.7,119.6 921.3,119.6 916.8,119.6 912.4,119.6 908,119.6 903.5,119.6 899.1,119.6 894.7,119.6 
			894.7,124 894.7,128.4 894.7,132.9 894.7,137.3 894.7,141.7 894.7,146.2 894.7,150.6 894.7,155 894.7,159.4 899.1,159.4 
			903.5,159.4 908,159.4 912.4,159.4 916.8,159.4 921.3,159.4 925.7,159.4 930.1,159.4 934.5,159.4 934.5,155 934.5,150.6 
			934.5,146.2 934.5,141.7 934.5,137.3 934.5,132.9 934.5,128.4 934.5,124 934.5,119.6 930.1,119.6 		"/>
		<polygon class="st1" points="159.4,150.6 159.4,146.2 159.4,141.7 159.4,137.3 159.4,132.9 159.4,128.4 159.4,124 159.4,119.6 
			155,119.6 150.6,119.6 146.2,119.6 141.7,119.6 137.3,119.6 132.9,119.6 128.4,119.6 124,119.6 119.6,119.6 115.2,119.6 
			115.2,124 115.2,128.4 115.2,132.9 115.2,137.3 115.2,141.7 115.2,146.2 115.2,150.6 115.2,155 115.2,159.4 119.6,159.4 
			124,159.4 128.4,159.4 132.9,159.4 137.3,159.4 141.7,159.4 146.2,159.4 150.6,159.4 155,159.4 159.4,159.4 159.4,155 		"/>
		<polygon class="st1" points="730.8,150.6 730.8,146.2 730.8,141.7 730.8,137.3 730.8,132.9 730.8,128.4 730.8,124 730.8,119.6 
			726.4,119.6 721.9,119.6 717.5,119.6 713.1,119.6 708.7,119.6 704.2,119.6 699.8,119.6 695.4,119.6 690.9,119.6 690.9,124 
			690.9,128.4 690.9,132.9 690.9,137.3 690.9,141.7 690.9,146.2 690.9,150.6 690.9,155 690.9,159.4 695.4,159.4 699.8,159.4 
			704.2,159.4 708.7,159.4 713.1,159.4 717.5,159.4 721.9,159.4 726.4,159.4 730.8,159.4 730.8,155 		"/>
		<polygon class="st1" points="190.5,159.4 186,159.4 181.6,159.4 177.2,159.4 172.7,159.4 168.3,159.4 163.9,159.4 159.4,159.4 
			159.4,163.9 159.4,168.3 159.4,172.7 159.4,177.2 159.4,181.6 159.4,186 159.4,190.5 159.4,194.9 159.4,199.3 159.4,203.7 
			163.9,203.7 168.3,203.7 172.7,203.7 177.2,203.7 181.6,203.7 186,203.7 190.5,203.7 194.9,203.7 199.3,203.7 199.3,199.3 
			199.3,194.9 199.3,190.5 199.3,186 199.3,181.6 199.3,177.2 199.3,172.7 199.3,168.3 199.3,163.9 199.3,159.4 194.9,159.4 		"/>
		<polygon class="st1" points="761.8,159.4 757.4,159.4 753,159.4 748.5,159.4 744.1,159.4 739.7,159.4 735.2,159.4 730.8,159.4 
			730.8,163.9 730.8,168.3 730.8,172.7 730.8,177.2 730.8,181.6 730.8,186 730.8,190.5 730.8,194.9 730.8,199.3 730.8,203.7 
			735.2,203.7 739.7,203.7 744.1,203.7 748.5,203.7 753,203.7 757.4,203.7 761.8,203.7 766.2,203.7 770.7,203.7 770.7,199.3 
			770.7,194.9 770.7,190.5 770.7,186 770.7,181.6 770.7,177.2 770.7,172.7 770.7,168.3 770.7,163.9 770.7,159.4 766.2,159.4 		"/>
		<polygon class="st1" points="885.8,159.4 881.4,159.4 877,159.4 872.5,159.4 868.1,159.4 863.7,159.4 859.3,159.4 854.8,159.4 
			854.8,163.9 854.8,168.3 854.8,172.7 854.8,177.2 854.8,181.6 854.8,186 854.8,190.5 854.8,194.9 854.8,199.3 854.8,203.7 
			859.3,203.7 863.7,203.7 868.1,203.7 872.5,203.7 877,203.7 881.4,203.7 885.8,203.7 890.3,203.7 894.7,203.7 894.7,199.3 
			894.7,194.9 894.7,190.5 894.7,186 894.7,181.6 894.7,177.2 894.7,172.7 894.7,168.3 894.7,163.9 894.7,159.4 890.3,159.4 		"/>
		<polygon class="st1" points="150.6,203.7 146.2,203.7 141.7,203.7 137.3,203.7 132.9,203.7 128.4,203.7 124,203.7 119.6,203.7 
			115.2,203.7 115.2,208.2 115.2,212.6 115.2,217 115.2,221.5 115.2,225.9 115.2,230.3 115.2,234.7 115.2,239.2 115.2,243.6 
			119.6,243.6 124,243.6 128.4,243.6 132.9,243.6 137.3,243.6 141.7,243.6 146.2,243.6 150.6,243.6 155,243.6 159.4,243.6 
			159.4,239.2 159.4,234.7 159.4,230.3 159.4,225.9 159.4,221.5 159.4,217 159.4,212.6 159.4,208.2 159.4,203.7 155,203.7 		"/>
		<polygon class="st1" points="721.9,203.7 717.5,203.7 713.1,203.7 708.7,203.7 704.2,203.7 699.8,203.7 695.4,203.7 690.9,203.7 
			690.9,208.2 690.9,212.6 690.9,217 690.9,221.5 690.9,225.9 690.9,230.3 690.9,234.7 690.9,239.2 690.9,243.6 695.4,243.6 
			699.8,243.6 704.2,243.6 708.7,243.6 713.1,243.6 717.5,243.6 721.9,243.6 726.4,243.6 730.8,243.6 730.8,239.2 730.8,234.7 
			730.8,230.3 730.8,225.9 730.8,221.5 730.8,217 730.8,212.6 730.8,208.2 730.8,203.7 726.4,203.7 		"/>
		<polygon class="st1" points="442.9,234.7 442.9,230.3 442.9,225.9 442.9,221.5 442.9,217 442.9,212.6 442.9,208.2 442.9,203.7 
			438.5,203.7 434.1,203.7 429.6,203.7 425.2,203.7 420.8,203.7 416.3,203.7 411.9,203.7 407.5,203.7 403.1,203.7 403.1,208.2 
			403.1,212.6 403.1,217 403.1,221.5 403.1,225.9 403.1,230.3 403.1,234.7 403.1,239.2 403.1,243.6 407.5,243.6 411.9,243.6 
			416.3,243.6 420.8,243.6 425.2,243.6 429.6,243.6 434.1,243.6 438.5,243.6 442.9,243.6 442.9,239.2 		"/>
		<polygon class="st1" points="566.9,234.7 566.9,230.3 566.9,225.9 566.9,221.5 566.9,217 566.9,212.6 566.9,208.2 566.9,203.7 
			562.5,203.7 558.1,203.7 553.6,203.7 549.2,203.7 544.8,203.7 540.4,203.7 535.9,203.7 531.5,203.7 527.1,203.7 527.1,208.2 
			527.1,212.6 527.1,217 527.1,221.5 527.1,225.9 527.1,230.3 527.1,234.7 527.1,239.2 527.1,243.6 531.5,243.6 535.9,243.6 
			540.4,243.6 544.8,243.6 549.2,243.6 553.6,243.6 558.1,243.6 562.5,243.6 566.9,243.6 566.9,239.2 		"/>
		<polygon class="st1" points="473.9,243.6 469.5,243.6 465.1,243.6 460.6,243.6 456.2,243.6 451.8,243.6 447.3,243.6 442.9,243.6 
			442.9,248 442.9,252.5 442.9,256.9 442.9,261.3 442.9,265.7 442.9,270.2 442.9,274.6 442.9,279 442.9,283.5 447.3,283.5 
			451.8,283.5 456.2,283.5 460.6,283.5 465.1,283.5 469.5,283.5 473.9,283.5 478.3,283.5 482.8,283.5 482.8,279 482.8,274.6 
			482.8,270.2 482.8,265.7 482.8,261.3 482.8,256.9 482.8,252.5 482.8,248 482.8,243.6 478.3,243.6 		"/>
		<polygon class="st1" points="597.9,243.6 593.5,243.6 589.1,243.6 584.6,243.6 580.2,243.6 575.8,243.6 571.4,243.6 566.9,243.6 
			566.9,248 566.9,252.5 566.9,256.9 566.9,261.3 566.9,265.7 566.9,270.2 566.9,274.6 566.9,279 566.9,283.5 571.4,283.5 
			575.8,283.5 580.2,283.5 584.6,283.5 589.1,283.5 593.5,283.5 597.9,283.5 602.4,283.5 606.8,283.5 606.8,279 606.8,274.6 
			606.8,270.2 606.8,265.7 606.8,261.3 606.8,256.9 606.8,252.5 606.8,248 606.8,243.6 602.4,243.6 		"/>
		<polygon class="st1" points="159.4,252.5 159.4,256.9 159.4,261.3 159.4,265.7 159.4,270.2 159.4,274.6 159.4,279 159.4,283.5 
			163.9,283.5 168.3,283.5 172.7,283.5 177.2,283.5 181.6,283.5 186,283.5 190.5,283.5 194.9,283.5 199.3,283.5 199.3,279 
			199.3,274.6 199.3,270.2 199.3,265.7 199.3,261.3 199.3,256.9 199.3,252.5 199.3,248 199.3,243.6 194.9,243.6 190.5,243.6 
			186,243.6 181.6,243.6 177.2,243.6 172.7,243.6 168.3,243.6 163.9,243.6 159.4,243.6 159.4,248 		"/>
		<polygon class="st1" points="730.8,252.5 730.8,256.9 730.8,261.3 730.8,265.7 730.8,270.2 730.8,274.6 730.8,279 730.8,283.5 
			735.2,283.5 739.7,283.5 744.1,283.5 748.5,283.5 753,283.5 757.4,283.5 761.8,283.5 766.2,283.5 770.7,283.5 770.7,279 
			770.7,274.6 770.7,270.2 770.7,265.7 770.7,261.3 770.7,256.9 770.7,252.5 770.7,248 770.7,243.6 766.2,243.6 761.8,243.6 
			757.4,243.6 753,243.6 748.5,243.6 744.1,243.6 739.7,243.6 735.2,243.6 730.8,243.6 730.8,248 		"/>
	</g>
	<g>
		<polygon class="st2" points="646.7,70.9 646.7,66.4 646.7,62 646.7,57.6 646.7,53.1 646.7,48.7 646.7,44.3 646.7,39.9 642.2,39.9 
			637.8,39.9 633.4,39.9 628.9,39.9 624.5,39.9 620.1,39.9 615.6,39.9 611.2,39.9 606.8,39.9 606.8,44.3 606.8,48.7 606.8,53.1 
			606.8,57.6 606.8,62 606.8,66.4 606.8,70.9 606.8,75.3 606.8,79.7 611.2,79.7 615.6,79.7 620.1,79.7 624.5,79.7 628.9,79.7 
			633.4,79.7 637.8,79.7 642.2,79.7 646.7,79.7 646.7,75.3 		"/>
		<polygon class="st2" points="354.3,79.7 349.9,79.7 345.5,79.7 341,79.7 336.6,79.7 332.2,79.7 327.8,79.7 323.3,79.7 318.9,79.7 
			314.5,79.7 310,79.7 305.6,79.7 301.2,79.7 296.8,79.7 292.3,79.7 287.9,79.7 283.5,79.7 279,79.7 279,84.2 279,88.6 279,93 
			279,97.4 279,101.9 279,106.3 279,110.7 279,115.2 279,119.6 283.5,119.6 287.9,119.6 292.3,119.6 296.8,119.6 301.2,119.6 
			305.6,119.6 310,119.6 314.5,119.6 318.9,119.6 323.3,119.6 327.8,119.6 332.2,119.6 336.6,119.6 341,119.6 345.5,119.6 
			349.9,119.6 354.3,119.6 358.8,119.6 363.2,119.6 363.2,115.2 363.2,110.7 363.2,106.3 363.2,101.9 363.2,97.4 363.2,93 
			363.2,88.6 363.2,84.2 363.2,79.7 358.8,79.7 		"/>
		<polygon class="st2" points="682.1,79.7 677.7,79.7 673.2,79.7 668.8,79.7 664.4,79.7 659.9,79.7 655.5,79.7 651.1,79.7 
			646.7,79.7 646.7,84.2 646.7,88.6 646.7,93 646.7,97.4 646.7,101.9 646.7,106.3 646.7,110.7 646.7,115.2 646.7,119.6 651.1,119.6 
			655.5,119.6 659.9,119.6 664.4,119.6 668.8,119.6 673.2,119.6 677.7,119.6 682.1,119.6 686.5,119.6 690.9,119.6 690.9,115.2 
			690.9,110.7 690.9,106.3 690.9,101.9 690.9,97.4 690.9,93 690.9,88.6 690.9,84.2 690.9,79.7 686.5,79.7 		"/>
		<polygon class="st2" points="354.3,203.7 349.9,203.7 345.5,203.7 341,203.7 336.6,203.7 332.2,203.7 327.8,203.7 323.3,203.7 
			323.3,208.2 323.3,212.6 323.3,217 323.3,221.5 323.3,225.9 323.3,230.3 323.3,234.7 323.3,239.2 323.3,243.6 327.8,243.6 
			332.2,243.6 336.6,243.6 341,243.6 345.5,243.6 349.9,243.6 354.3,243.6 358.8,243.6 363.2,243.6 363.2,239.2 363.2,234.7 
			363.2,230.3 363.2,225.9 363.2,221.5 363.2,217 363.2,212.6 363.2,208.2 363.2,203.7 358.8,203.7 		"/>
		<polygon class="st2" points="850.4,203.7 846,203.7 841.5,203.7 837.1,203.7 832.7,203.7 828.2,203.7 823.8,203.7 819.4,203.7 
			815,203.7 810.5,203.7 810.5,208.2 810.5,212.6 810.5,217 810.5,221.5 810.5,225.9 810.5,230.3 810.5,234.7 810.5,239.2 
			810.5,243.6 815,243.6 819.4,243.6 823.8,243.6 828.2,243.6 832.7,243.6 837.1,243.6 841.5,243.6 846,243.6 850.4,243.6 
			854.8,243.6 854.8,239.2 854.8,234.7 854.8,230.3 854.8,225.9 854.8,221.5 854.8,217 854.8,212.6 854.8,208.2 854.8,203.7 		"/>
		<polygon class="st2" points="314.5,243.6 310,243.6 305.6,243.6 301.2,243.6 296.8,243.6 292.3,243.6 287.9,243.6 283.5,243.6 
			279,243.6 274.6,243.6 270.2,243.6 265.7,243.6 261.3,243.6 256.9,243.6 252.5,243.6 248,243.6 243.6,243.6 239.2,243.6 
			234.7,243.6 230.3,243.6 225.9,243.6 221.5,243.6 217,243.6 212.6,243.6 208.2,243.6 203.7,243.6 199.3,243.6 199.3,248 
			199.3,252.5 199.3,256.9 199.3,261.3 199.3,265.7 199.3,270.2 199.3,274.6 199.3,279 199.3,283.5 203.7,283.5 208.2,283.5 
			212.6,283.5 217,283.5 221.5,283.5 225.9,283.5 230.3,283.5 234.7,283.5 239.2,283.5 243.6,283.5 248,283.5 252.5,283.5 
			256.9,283.5 261.3,283.5 265.7,283.5 270.2,283.5 274.6,283.5 279,283.5 283.5,283.5 287.9,283.5 292.3,283.5 296.8,283.5 
			301.2,283.5 305.6,283.5 310,283.5 314.5,283.5 318.9,283.5 323.3,283.5 323.3,279 323.3,274.6 323.3,270.2 323.3,265.7 
			323.3,261.3 323.3,256.9 323.3,252.5 323.3,248 323.3,243.6 318.9,243.6 		"/>
		<polygon class="st2" points="801.7,243.6 797.2,243.6 792.8,243.6 788.4,243.6 784,243.6 779.5,243.6 775.1,243.6 770.7,243.6 
			770.7,248 770.7,252.5 770.7,256.9 770.7,261.3 770.7,265.7 770.7,270.2 770.7,274.6 770.7,279 770.7,283.5 775.1,283.5 
			779.5,283.5 784,283.5 788.4,283.5 792.8,283.5 797.2,283.5 801.7,283.5 806.1,283.5 810.5,283.5 810.5,279 810.5,274.6 
			810.5,270.2 810.5,265.7 810.5,261.3 810.5,256.9 810.5,252.5 810.5,248 810.5,243.6 806.1,243.6 		"/>
	</g>
	<g>
		<polygon points="270.2,0 265.7,0 261.3,0 256.9,0 252.5,0 248,0 243.6,0 239.2,0 239.2,4.4 239.2,8.9 239.2,13.3 239.2,17.7 
			239.2,22.1 239.2,26.6 239.2,31 239.2,35.4 239.2,39.9 243.6,39.9 248,39.9 252.5,39.9 256.9,39.9 261.3,39.9 265.7,39.9 
			270.2,39.9 274.6,39.9 279,39.9 279,35.4 279,31 279,26.6 279,22.1 279,17.7 279,13.3 279,8.9 279,4.4 279,0 274.6,0 		"/>
		<polygon points="761.8,0 757.4,0 753,0 748.5,0 744.1,0 739.7,0 735.2,0 730.8,0 726.4,0 721.9,0 717.5,0 713.1,0 708.7,0 
			704.2,0 699.8,0 695.4,0 690.9,0 690.9,4.4 690.9,8.9 690.9,13.3 690.9,17.7 690.9,22.1 690.9,26.6 690.9,31 690.9,35.4 
			690.9,39.9 695.4,39.9 699.8,39.9 704.2,39.9 708.7,39.9 713.1,39.9 717.5,39.9 721.9,39.9 726.4,39.9 730.8,39.9 730.8,44.3 
			730.8,48.7 730.8,53.1 730.8,57.6 730.8,62 730.8,66.4 730.8,70.9 730.8,75.3 730.8,79.7 735.2,79.7 739.7,79.7 744.1,79.7 
			748.5,79.7 753,79.7 757.4,79.7 761.8,79.7 766.2,79.7 770.7,79.7 770.7,75.3 770.7,70.9 770.7,66.4 770.7,62 770.7,57.6 
			770.7,53.1 770.7,48.7 770.7,44.3 770.7,39.9 770.7,35.4 770.7,31 770.7,26.6 770.7,22.1 770.7,17.7 770.7,13.3 770.7,8.9 
			770.7,4.4 770.7,0 766.2,0 		"/>
		<polygon points="230.3,39.9 225.9,39.9 221.5,39.9 217,39.9 212.6,39.9 208.2,39.9 203.7,39.9 199.3,39.9 199.3,35.4 199.3,31 
			199.3,26.6 199.3,22.1 199.3,17.7 199.3,13.3 199.3,8.9 199.3,4.4 199.3,0 194.9,0 190.5,0 186,0 181.6,0 177.2,0 172.7,0 
			168.3,0 163.9,0 159.4,0 155,0 150.6,0 146.2,0 141.7,0 137.3,0 132.9,0 128.4,0 124,0 119.6,0 115.2,0 110.7,0 106.3,0 101.9,0 
			97.4,0 93,0 88.6,0 84.2,0 79.7,0 75.3,0 70.9,0 66.4,0 62,0 57.6,0 53.1,0 48.7,0 44.3,0 39.9,0 35.4,0 35.4,4.4 35.4,8.9 
			35.4,13.3 35.4,17.7 35.4,22.1 35.4,26.6 35.4,31 35.4,35.4 35.4,39.9 35.4,44.3 35.4,48.7 35.4,53.1 35.4,57.6 35.4,62 
			35.4,66.4 35.4,70.9 35.4,75.3 35.4,79.7 39.9,79.7 44.3,79.7 48.7,79.7 53.1,79.7 57.6,79.7 62,79.7 66.4,79.7 70.9,79.7 
			75.3,79.7 79.7,79.7 84.2,79.7 88.6,79.7 93,79.7 97.4,79.7 101.9,79.7 106.3,79.7 110.7,79.7 115.2,79.7 115.2,84.2 115.2,88.6 
			115.2,93 115.2,97.4 115.2,101.9 115.2,106.3 115.2,110.7 115.2,115.2 115.2,119.6 119.6,119.6 124,119.6 128.4,119.6 
			132.9,119.6 137.3,119.6 141.7,119.6 146.2,119.6 150.6,119.6 155,119.6 159.4,119.6 159.4,124 159.4,128.4 159.4,132.9 
			159.4,137.3 159.4,141.7 159.4,146.2 159.4,150.6 159.4,155 159.4,159.4 163.9,159.4 168.3,159.4 172.7,159.4 177.2,159.4 
			181.6,159.4 186,159.4 190.5,159.4 194.9,159.4 199.3,159.4 199.3,155 199.3,150.6 199.3,146.2 199.3,141.7 199.3,137.3 
			199.3,132.9 199.3,128.4 199.3,124 199.3,119.6 199.3,115.2 199.3,110.7 199.3,106.3 199.3,101.9 199.3,97.4 199.3,93 199.3,88.6 
			199.3,84.2 199.3,79.7 203.7,79.7 208.2,79.7 212.6,79.7 217,79.7 221.5,79.7 225.9,79.7 230.3,79.7 234.7,79.7 239.2,79.7 
			239.2,75.3 239.2,70.9 239.2,66.4 239.2,62 239.2,57.6 239.2,53.1 239.2,48.7 239.2,44.3 239.2,39.9 234.7,39.9 		"/>
		<polygon points="597.9,39.9 593.5,39.9 589.1,39.9 584.6,39.9 580.2,39.9 575.8,39.9 571.4,39.9 566.9,39.9 566.9,44.3 
			566.9,48.7 566.9,53.1 566.9,57.6 566.9,62 566.9,66.4 566.9,70.9 566.9,75.3 566.9,79.7 562.5,79.7 558.1,79.7 553.6,79.7 
			549.2,79.7 544.8,79.7 540.4,79.7 535.9,79.7 531.5,79.7 527.1,79.7 527.1,84.2 527.1,88.6 527.1,93 527.1,97.4 527.1,101.9 
			527.1,106.3 527.1,110.7 527.1,115.2 527.1,119.6 531.5,119.6 535.9,119.6 540.4,119.6 544.8,119.6 549.2,119.6 553.6,119.6 
			558.1,119.6 562.5,119.6 566.9,119.6 571.4,119.6 575.8,119.6 580.2,119.6 584.6,119.6 589.1,119.6 593.5,119.6 597.9,119.6 
			602.4,119.6 606.8,119.6 606.8,115.2 606.8,110.7 606.8,106.3 606.8,101.9 606.8,97.4 606.8,93 606.8,88.6 606.8,84.2 606.8,79.7 
			606.8,75.3 606.8,70.9 606.8,66.4 606.8,62 606.8,57.6 606.8,53.1 606.8,48.7 606.8,44.3 606.8,39.9 602.4,39.9 		"/>
		<polygon points="1094,39.9 1089.6,39.9 1085.1,39.9 1080.7,39.9 1076.3,39.9 1071.9,39.9 1067.4,39.9 1063,39.9 1058.6,39.9 
			1054.1,39.9 1049.7,39.9 1045.3,39.9 1040.8,39.9 1036.4,39.9 1032,39.9 1027.6,39.9 1023.1,39.9 1018.7,39.9 1014.3,39.9 
			1009.8,39.9 1005.4,39.9 1001,39.9 996.6,39.9 992.1,39.9 987.7,39.9 983.3,39.9 978.8,39.9 974.4,39.9 970,39.9 965.6,39.9 
			961.1,39.9 956.7,39.9 952.3,39.9 947.8,39.9 943.4,39.9 939,39.9 934.5,39.9 934.5,44.3 934.5,48.7 934.5,53.1 934.5,57.6 
			934.5,62 934.5,66.4 934.5,70.9 934.5,75.3 934.5,79.7 939,79.7 943.4,79.7 947.8,79.7 952.3,79.7 956.7,79.7 961.1,79.7 
			965.6,79.7 970,79.7 974.4,79.7 974.4,84.2 974.4,88.6 974.4,93 974.4,97.4 974.4,101.9 974.4,106.3 974.4,110.7 974.4,115.2 
			974.4,119.6 978.8,119.6 983.3,119.6 987.7,119.6 992.1,119.6 996.6,119.6 1001,119.6 1005.4,119.6 1009.8,119.6 1014.3,119.6 
			1014.3,124 1014.3,128.4 1014.3,132.9 1014.3,137.3 1014.3,141.7 1014.3,146.2 1014.3,150.6 1014.3,155 1014.3,159.4 
			1014.3,163.9 1014.3,168.3 1014.3,172.7 1014.3,177.2 1014.3,181.6 1014.3,186 1014.3,190.5 1014.3,194.9 1014.3,199.3 
			1014.3,203.7 1014.3,208.2 1014.3,212.6 1014.3,217 1014.3,221.5 1014.3,225.9 1014.3,230.3 1014.3,234.7 1014.3,239.2 
			1014.3,243.6 1014.3,248 1014.3,252.5 1014.3,256.9 1014.3,261.3 1014.3,265.7 1014.3,270.2 1014.3,274.6 1014.3,279 
			1014.3,283.5 1018.7,283.5 1023.1,283.5 1027.6,283.5 1032,283.5 1036.4,283.5 1040.8,283.5 1045.3,283.5 1049.7,283.5 
			1054.1,283.5 1058.6,283.5 1063,283.5 1067.4,283.5 1071.9,283.5 1076.3,283.5 1080.7,283.5 1085.1,283.5 1089.6,283.5 
			1094,283.5 1098.4,283.5 1098.4,279 1098.4,274.6 1098.4,270.2 1098.4,265.7 1098.4,261.3 1098.4,256.9 1098.4,252.5 1098.4,248 
			1098.4,243.6 1098.4,239.2 1098.4,234.7 1098.4,230.3 1098.4,225.9 1098.4,221.5 1098.4,217 1098.4,212.6 1098.4,208.2 
			1098.4,203.7 1098.4,199.3 1098.4,194.9 1098.4,190.5 1098.4,186 1098.4,181.6 1098.4,177.2 1098.4,172.7 1098.4,168.3 
			1098.4,163.9 1098.4,159.4 1098.4,155 1098.4,150.6 1098.4,146.2 1098.4,141.7 1098.4,137.3 1098.4,132.9 1098.4,128.4 
			1098.4,124 1098.4,119.6 1098.4,115.2 1098.4,110.7 1098.4,106.3 1098.4,101.9 1098.4,97.4 1098.4,93 1098.4,88.6 1098.4,84.2 
			1098.4,79.7 1098.4,75.3 1098.4,70.9 1098.4,66.4 1098.4,62 1098.4,57.6 1098.4,53.1 1098.4,48.7 1098.4,44.3 1098.4,39.9 		"/>
		<polygon points="527.1,70.9 527.1,66.4 527.1,62 527.1,57.6 527.1,53.1 527.1,48.7 527.1,44.3 527.1,39.9 522.6,39.9 518.2,39.9 
			513.8,39.9 509.4,39.9 504.9,39.9 500.5,39.9 496.1,39.9 491.6,39.9 487.2,39.9 482.8,39.9 478.3,39.9 473.9,39.9 469.5,39.9 
			465.1,39.9 460.6,39.9 456.2,39.9 451.8,39.9 447.3,39.9 442.9,39.9 438.5,39.9 434.1,39.9 429.6,39.9 425.2,39.9 420.8,39.9 
			416.3,39.9 411.9,39.9 407.5,39.9 403.1,39.9 403.1,44.3 403.1,48.7 403.1,53.1 403.1,57.6 403.1,62 403.1,66.4 403.1,70.9 
			403.1,75.3 403.1,79.7 398.6,79.7 394.2,79.7 389.8,79.7 385.3,79.7 380.9,79.7 376.5,79.7 372,79.7 367.6,79.7 363.2,79.7 
			363.2,84.2 363.2,88.6 363.2,93 363.2,97.4 363.2,101.9 363.2,106.3 363.2,110.7 363.2,115.2 363.2,119.6 367.6,119.6 372,119.6 
			376.5,119.6 380.9,119.6 385.3,119.6 389.8,119.6 394.2,119.6 398.6,119.6 403.1,119.6 407.5,119.6 411.9,119.6 416.3,119.6 
			420.8,119.6 425.2,119.6 429.6,119.6 434.1,119.6 438.5,119.6 442.9,119.6 447.3,119.6 451.8,119.6 456.2,119.6 460.6,119.6 
			465.1,119.6 469.5,119.6 473.9,119.6 478.3,119.6 482.8,119.6 482.8,115.2 482.8,110.7 482.8,106.3 482.8,101.9 482.8,97.4 
			482.8,93 482.8,88.6 482.8,84.2 482.8,79.7 487.2,79.7 491.6,79.7 496.1,79.7 500.5,79.7 504.9,79.7 509.4,79.7 513.8,79.7 
			518.2,79.7 522.6,79.7 527.1,79.7 527.1,75.3 		"/>
		<polygon points="903.5,119.6 908,119.6 912.4,119.6 916.8,119.6 921.3,119.6 925.7,119.6 930.1,119.6 934.5,119.6 934.5,115.2 
			934.5,110.7 934.5,106.3 934.5,101.9 934.5,97.4 934.5,93 934.5,88.6 934.5,84.2 934.5,79.7 930.1,79.7 925.7,79.7 921.3,79.7 
			916.8,79.7 912.4,79.7 908,79.7 903.5,79.7 899.1,79.7 894.7,79.7 894.7,84.2 894.7,88.6 894.7,93 894.7,97.4 894.7,101.9 
			894.7,106.3 894.7,110.7 894.7,115.2 894.7,119.6 899.1,119.6 		"/>
		<polygon points="761.8,119.6 757.4,119.6 753,119.6 748.5,119.6 744.1,119.6 739.7,119.6 735.2,119.6 730.8,119.6 730.8,124 
			730.8,128.4 730.8,132.9 730.8,137.3 730.8,141.7 730.8,146.2 730.8,150.6 730.8,155 730.8,159.4 735.2,159.4 739.7,159.4 
			744.1,159.4 748.5,159.4 753,159.4 757.4,159.4 761.8,159.4 766.2,159.4 770.7,159.4 770.7,155 770.7,150.6 770.7,146.2 
			770.7,141.7 770.7,137.3 770.7,132.9 770.7,128.4 770.7,124 770.7,119.6 766.2,119.6 		"/>
		<polygon points="965.6,119.6 961.1,119.6 956.7,119.6 952.3,119.6 947.8,119.6 943.4,119.6 939,119.6 934.5,119.6 934.5,124 
			934.5,128.4 934.5,132.9 934.5,137.3 934.5,141.7 934.5,146.2 934.5,150.6 934.5,155 934.5,159.4 939,159.4 943.4,159.4 
			947.8,159.4 952.3,159.4 956.7,159.4 961.1,159.4 965.6,159.4 970,159.4 974.4,159.4 974.4,155 974.4,150.6 974.4,146.2 
			974.4,141.7 974.4,137.3 974.4,132.9 974.4,128.4 974.4,124 974.4,119.6 970,119.6 		"/>
		<polygon points="894.7,150.6 894.7,146.2 894.7,141.7 894.7,137.3 894.7,132.9 894.7,128.4 894.7,124 894.7,119.6 890.3,119.6 
			885.8,119.6 881.4,119.6 877,119.6 872.5,119.6 868.1,119.6 863.7,119.6 859.3,119.6 854.8,119.6 854.8,124 854.8,128.4 
			854.8,132.9 854.8,137.3 854.8,141.7 854.8,146.2 854.8,150.6 854.8,155 854.8,159.4 859.3,159.4 863.7,159.4 868.1,159.4 
			872.5,159.4 877,159.4 881.4,159.4 885.8,159.4 890.3,159.4 894.7,159.4 894.7,155 		"/>
		<polygon points="150.6,159.4 146.2,159.4 141.7,159.4 137.3,159.4 132.9,159.4 128.4,159.4 124,159.4 119.6,159.4 115.2,159.4 
			115.2,163.9 115.2,168.3 115.2,172.7 115.2,177.2 115.2,181.6 115.2,186 115.2,190.5 115.2,194.9 115.2,199.3 115.2,203.7 
			119.6,203.7 124,203.7 128.4,203.7 132.9,203.7 137.3,203.7 141.7,203.7 146.2,203.7 150.6,203.7 155,203.7 159.4,203.7 
			159.4,199.3 159.4,194.9 159.4,190.5 159.4,186 159.4,181.6 159.4,177.2 159.4,172.7 159.4,168.3 159.4,163.9 159.4,159.4 
			155,159.4 		"/>
		<polygon points="721.9,159.4 717.5,159.4 713.1,159.4 708.7,159.4 704.2,159.4 699.8,159.4 695.4,159.4 690.9,159.4 690.9,163.9 
			690.9,168.3 690.9,172.7 690.9,177.2 690.9,181.6 690.9,186 690.9,190.5 690.9,194.9 690.9,199.3 690.9,203.7 695.4,203.7 
			699.8,203.7 704.2,203.7 708.7,203.7 713.1,203.7 717.5,203.7 721.9,203.7 726.4,203.7 730.8,203.7 730.8,199.3 730.8,194.9 
			730.8,190.5 730.8,186 730.8,181.6 730.8,177.2 730.8,172.7 730.8,168.3 730.8,163.9 730.8,159.4 726.4,159.4 		"/>
		<polygon points="925.7,159.4 921.3,159.4 916.8,159.4 912.4,159.4 908,159.4 903.5,159.4 899.1,159.4 894.7,159.4 894.7,163.9 
			894.7,168.3 894.7,172.7 894.7,177.2 894.7,181.6 894.7,186 894.7,190.5 894.7,194.9 894.7,199.3 894.7,203.7 890.3,203.7 
			885.8,203.7 881.4,203.7 877,203.7 872.5,203.7 868.1,203.7 863.7,203.7 859.3,203.7 854.8,203.7 854.8,208.2 854.8,212.6 
			854.8,217 854.8,221.5 854.8,225.9 854.8,230.3 854.8,234.7 854.8,239.2 854.8,243.6 854.8,248 854.8,252.5 854.8,256.9 
			854.8,261.3 854.8,265.7 854.8,270.2 854.8,274.6 854.8,279 854.8,283.5 859.3,283.5 863.7,283.5 868.1,283.5 872.5,283.5 
			877,283.5 881.4,283.5 885.8,283.5 890.3,283.5 894.7,283.5 899.1,283.5 903.5,283.5 908,283.5 912.4,283.5 916.8,283.5 
			921.3,283.5 925.7,283.5 930.1,283.5 934.5,283.5 934.5,279 934.5,274.6 934.5,270.2 934.5,265.7 934.5,261.3 934.5,256.9 
			934.5,252.5 934.5,248 934.5,243.6 934.5,239.2 934.5,234.7 934.5,230.3 934.5,225.9 934.5,221.5 934.5,217 934.5,212.6 
			934.5,208.2 934.5,203.7 934.5,199.3 934.5,194.9 934.5,190.5 934.5,186 934.5,181.6 934.5,177.2 934.5,172.7 934.5,168.3 
			934.5,163.9 934.5,159.4 930.1,159.4 		"/>
		<polygon points="597.9,203.7 593.5,203.7 589.1,203.7 584.6,203.7 580.2,203.7 575.8,203.7 571.4,203.7 566.9,203.7 566.9,208.2 
			566.9,212.6 566.9,217 566.9,221.5 566.9,225.9 566.9,230.3 566.9,234.7 566.9,239.2 566.9,243.6 571.4,243.6 575.8,243.6 
			580.2,243.6 584.6,243.6 589.1,243.6 593.5,243.6 597.9,243.6 602.4,243.6 606.8,243.6 606.8,239.2 606.8,234.7 606.8,230.3 
			606.8,225.9 606.8,221.5 606.8,217 606.8,212.6 606.8,208.2 606.8,203.7 602.4,203.7 		"/>
		<polygon points="159.4,212.6 159.4,217 159.4,221.5 159.4,225.9 159.4,230.3 159.4,234.7 159.4,239.2 159.4,243.6 163.9,243.6 
			168.3,243.6 172.7,243.6 177.2,243.6 181.6,243.6 186,243.6 190.5,243.6 194.9,243.6 199.3,243.6 199.3,239.2 199.3,234.7 
			199.3,230.3 199.3,225.9 199.3,221.5 199.3,217 199.3,212.6 199.3,208.2 199.3,203.7 194.9,203.7 190.5,203.7 186,203.7 
			181.6,203.7 177.2,203.7 172.7,203.7 168.3,203.7 163.9,203.7 159.4,203.7 159.4,208.2 		"/>
		<polygon points="730.8,212.6 730.8,217 730.8,221.5 730.8,225.9 730.8,230.3 730.8,234.7 730.8,239.2 730.8,243.6 735.2,243.6 
			739.7,243.6 744.1,243.6 748.5,243.6 753,243.6 757.4,243.6 761.8,243.6 766.2,243.6 770.7,243.6 770.7,239.2 770.7,234.7 
			770.7,230.3 770.7,225.9 770.7,221.5 770.7,217 770.7,212.6 770.7,208.2 770.7,203.7 766.2,203.7 761.8,203.7 757.4,203.7 
			753,203.7 748.5,203.7 744.1,203.7 739.7,203.7 735.2,203.7 730.8,203.7 730.8,208.2 		"/>
		<polygon points="150.6,243.6 146.2,243.6 141.7,243.6 137.3,243.6 132.9,243.6 128.4,243.6 124,243.6 119.6,243.6 115.2,243.6 
			115.2,248 115.2,252.5 115.2,256.9 115.2,261.3 115.2,265.7 115.2,270.2 115.2,274.6 115.2,279 115.2,283.5 119.6,283.5 
			124,283.5 128.4,283.5 132.9,283.5 137.3,283.5 141.7,283.5 146.2,283.5 150.6,283.5 155,283.5 159.4,283.5 159.4,279 
			159.4,274.6 159.4,270.2 159.4,265.7 159.4,261.3 159.4,256.9 159.4,252.5 159.4,248 159.4,243.6 155,243.6 		"/>
		<polygon points="434.1,243.6 429.6,243.6 425.2,243.6 420.8,243.6 416.3,243.6 411.9,243.6 407.5,243.6 403.1,243.6 403.1,239.2 
			403.1,234.7 403.1,230.3 403.1,225.9 403.1,221.5 403.1,217 403.1,212.6 403.1,208.2 403.1,203.7 398.6,203.7 394.2,203.7 
			389.8,203.7 385.3,203.7 380.9,203.7 376.5,203.7 372,203.7 367.6,203.7 363.2,203.7 363.2,208.2 363.2,212.6 363.2,217 
			363.2,221.5 363.2,225.9 363.2,230.3 363.2,234.7 363.2,239.2 363.2,243.6 363.2,248 363.2,252.5 363.2,256.9 363.2,261.3 
			363.2,265.7 363.2,270.2 363.2,274.6 363.2,279 363.2,283.5 367.6,283.5 372,283.5 376.5,283.5 380.9,283.5 385.3,283.5 
			389.8,283.5 394.2,283.5 398.6,283.5 403.1,283.5 407.5,283.5 411.9,283.5 416.3,283.5 420.8,283.5 425.2,283.5 429.6,283.5 
			434.1,283.5 438.5,283.5 442.9,283.5 442.9,279 442.9,274.6 442.9,270.2 442.9,265.7 442.9,261.3 442.9,256.9 442.9,252.5 
			442.9,248 442.9,243.6 438.5,243.6 		"/>
		<polygon points="558.1,243.6 553.6,243.6 549.2,243.6 544.8,243.6 540.4,243.6 535.9,243.6 531.5,243.6 527.1,243.6 527.1,239.2 
			527.1,234.7 527.1,230.3 527.1,225.9 527.1,221.5 527.1,217 527.1,212.6 527.1,208.2 527.1,203.7 522.6,203.7 518.2,203.7 
			513.8,203.7 509.4,203.7 504.9,203.7 500.5,203.7 496.1,203.7 491.6,203.7 487.2,203.7 482.8,203.7 478.3,203.7 473.9,203.7 
			469.5,203.7 465.1,203.7 460.6,203.7 456.2,203.7 451.8,203.7 447.3,203.7 442.9,203.7 442.9,208.2 442.9,212.6 442.9,217 
			442.9,221.5 442.9,225.9 442.9,230.3 442.9,234.7 442.9,239.2 442.9,243.6 447.3,243.6 451.8,243.6 456.2,243.6 460.6,243.6 
			465.1,243.6 469.5,243.6 473.9,243.6 478.3,243.6 482.8,243.6 482.8,248 482.8,252.5 482.8,256.9 482.8,261.3 482.8,265.7 
			482.8,270.2 482.8,274.6 482.8,279 482.8,283.5 487.2,283.5 491.6,283.5 496.1,283.5 500.5,283.5 504.9,283.5 509.4,283.5 
			513.8,283.5 518.2,283.5 522.6,283.5 527.1,283.5 531.5,283.5 535.9,283.5 540.4,283.5 544.8,283.5 549.2,283.5 553.6,283.5 
			558.1,283.5 562.5,283.5 566.9,283.5 566.9,279 566.9,274.6 566.9,270.2 566.9,265.7 566.9,261.3 566.9,256.9 566.9,252.5 
			566.9,248 566.9,243.6 562.5,243.6 		"/>
		<polygon points="721.9,243.6 717.5,243.6 713.1,243.6 708.7,243.6 704.2,243.6 699.8,243.6 695.4,243.6 690.9,243.6 690.9,248 
			690.9,252.5 690.9,256.9 690.9,261.3 690.9,265.7 690.9,270.2 690.9,274.6 690.9,279 690.9,283.5 695.4,283.5 699.8,283.5 
			704.2,283.5 708.7,283.5 713.1,283.5 717.5,283.5 721.9,283.5 726.4,283.5 730.8,283.5 730.8,279 730.8,274.6 730.8,270.2 
			730.8,265.7 730.8,261.3 730.8,256.9 730.8,252.5 730.8,248 730.8,243.6 726.4,243.6 		"/>
	</g>
</g>
</svg>
