<?xml version="1.0" encoding="utf-8"?>
<!-- Generator: Adobe Illustrator 23.1.1, SVG Export Plug-In . SVG Version: 6.00 Build 0)  -->
<svg version="1.1" id="Livello_1" shape-rendering="crispEdges"
	 xmlns="http://www.w3.org/2000/svg" xmlns:xlink="http://www.w3.org/1999/xlink" x="0px" y="0px" viewBox="0 0 1133.9 1133.9"
	 style="enable-background:new 0 0 1133.9 1133.9;" xml:space="preserve">
<g>
	<polygon points="442.9,0 425.2,0 407.5,0 389.8,0 372,0 354.3,0 336.6,0 318.9,0 301.2,0 283.5,0 265.7,0 248,0 230.3,0 212.6,0 
		194.9,0 177.2,0 159.4,0 141.7,0 124,0 106.3,0 88.6,0 70.9,0 53.1,0 35.4,0 17.7,0 0,0 0,17.7 0,35.4 0,53.1 0,70.9 0,88.6 
		0,106.3 0,124 0,141.7 0,159.4 17.7,159.4 35.4,159.4 53.1,159.4 70.9,159.4 88.6,159.4 106.3,159.4 124,159.4 141.7,159.4 
		159.4,159.4 159.4,177.2 159.4,194.9 159.4,212.6 159.4,230.3 159.4,248 159.4,265.7 159.4,283.5 159.4,301.2 159.4,318.9 
		159.4,336.6 159.4,354.3 159.4,372 159.4,389.8 159.4,407.5 159.4,425.2 159.4,442.9 159.4,460.6 159.4,478.3 177.2,478.3 
		194.9,478.3 212.6,478.3 230.3,478.3 248,478.3 265.7,478.3 283.5,478.3 301.2,478.3 318.9,478.3 318.9,460.6 318.9,442.9 
		318.9,425.2 318.9,407.5 318.9,389.8 318.9,372 318.9,354.3 318.9,336.6 318.9,318.9 318.9,301.2 318.9,283.5 318.9,265.7 
		318.9,248 318.9,230.3 318.9,212.6 318.9,194.9 318.9,177.2 318.9,159.4 336.6,159.4 354.3,159.4 372,159.4 389.8,159.4 
		407.5,159.4 425.2,159.4 442.9,159.4 460.6,159.4 478.3,159.4 478.3,141.7 478.3,124 478.3,106.3 478.3,88.6 478.3,70.9 
		478.3,53.1 478.3,35.4 478.3,17.7 478.3,0 460.6,0 	"/>
	<polygon points="1116.1,0 1098.4,0 1080.7,0 1063,0 1045.3,0 1027.6,0 1009.8,0 992.1,0 974.4,0 956.7,0 939,0 921.3,0 903.5,0 
		885.8,0 868.1,0 850.4,0 832.7,0 815,0 797.2,0 779.5,0 761.8,0 744.1,0 726.4,0 708.7,0 690.9,0 673.2,0 655.5,0 655.5,17.7 
		655.5,35.4 655.5,53.1 655.5,70.9 655.5,88.6 655.5,106.3 655.5,124 655.5,141.7 655.5,159.4 673.2,159.4 690.9,159.4 708.7,159.4 
		726.4,159.4 744.1,159.4 761.8,159.4 779.5,159.4 797.2,159.4 815,159.4 832.7,159.4 850.4,159.4 868.1,159.4 885.8,159.4 
		903.5,159.4 921.3,159.4 939,159.4 956.7,159.4 974.4,159.4 992.1,159.4 1009.8,159.4 1027.6,159.4 1045.3,159.4 1063,159.4 
		1080.7,159.4 1098.4,159.4 1116.1,159.4 1133.9,159.4 1133.9,141.7 1133.9,124 1133.9,106.3 1133.9,88.6 1133.9,70.9 1133.9,53.1 
		1133.9,35.4 1133.9,17.7 1133.9,0 	"/>
	<polygon points="1098.4,318.9 1080.7,318.9 1063,318.9 1045.3,318.9 1027.6,318.9 1009.8,318.9 992.1,318.9 974.4,318.9 
		956.7,318.9 939,318.9 921.3,318.9 903.5,318.9 885.8,318.9 868.1,318.9 850.4,318.9 832.7,318.9 815,318.9 797.2,318.9 
		779.5,318.9 761.8,318.9 744.1,318.9 726.4,318.9 708.7,318.9 690.9,318.9 673.2,318.9 655.5,318.9 655.5,336.6 655.5,354.3 
		655.5,372 655.5,389.8 655.5,407.5 655.5,425.2 655.5,442.9 655.5,460.6 655.5,478.3 673.2,478.3 690.9,478.3 708.7,478.3 
		726.4,478.3 744.1,478.3 761.8,478.3 779.5,478.3 797.2,478.3 815,478.3 832.7,478.3 850.4,478.3 868.1,478.3 885.8,478.3 
		903.5,478.3 921.3,478.3 939,478.3 956.7,478.3 974.4,478.3 992.1,478.3 1009.8,478.3 1027.6,478.3 1045.3,478.3 1063,478.3 
		1080.7,478.3 1098.4,478.3 1116.1,478.3 1133.9,478.3 1133.9,460.6 1133.9,442.9 1133.9,425.2 1133.9,407.5 1133.9,389.8 
		1133.9,372 1133.9,354.3 1133.9,336.6 1133.9,318.9 1116.1,318.9 	"/>
	<polygon points="283.5,566.9 265.7,566.9 248,566.9 230.3,566.9 212.6,566.9 194.9,566.9 177.2,566.9 159.4,566.9 159.4,584.6 
		159.4,602.4 159.4,620.1 159.4,637.8 159.4,655.5 159.4,673.2 159.4,690.9 159.4,708.7 159.4,726.4 177.2,726.4 194.9,726.4 
		212.6,726.4 230.3,726.4 248,726.4 265.7,726.4 283.5,726.4 301.2,726.4 318.9,726.4 318.9,708.7 318.9,690.9 318.9,673.2 
		318.9,655.5 318.9,637.8 318.9,620.1 318.9,602.4 318.9,584.6 318.9,566.9 301.2,566.9 	"/>
	<polygon points="1098.4,655.5 1080.7,655.5 1063,655.5 1045.3,655.5 1027.6,655.5 1009.8,655.5 992.1,655.5 974.4,655.5 
		956.7,655.5 939,655.5 921.3,655.5 903.5,655.5 885.8,655.5 868.1,655.5 850.4,655.5 832.7,655.5 815,655.5 815,673.2 815,690.9 
		815,708.7 815,726.4 815,744.1 815,761.8 815,779.5 815,797.2 815,815 832.7,815 850.4,815 868.1,815 885.8,815 903.5,815 
		921.3,815 939,815 956.7,815 974.4,815 974.4,832.7 974.4,850.4 974.4,868.1 974.4,885.8 974.4,903.5 974.4,921.3 974.4,939 
		974.4,956.7 974.4,974.4 974.4,992.1 974.4,1009.8 974.4,1027.6 974.4,1045.3 974.4,1063 974.4,1080.7 974.4,1098.4 974.4,1116.1 
		974.4,1133.9 992.1,1133.9 1009.8,1133.9 1027.6,1133.9 1045.3,1133.9 1063,1133.9 1080.7,1133.9 1098.4,1133.9 1116.1,1133.9 
		1133.9,1133.9 1133.9,1116.1 1133.9,1098.4 1133.9,1080.7 1133.9,1063 1133.9,1045.3 1133.9,1027.6 1133.9,1009.8 1133.9,992.1 
		1133.9,974.4 1133.9,956.7 1133.9,939 1133.9,921.3 1133.9,903.5 1133.9,885.8 1133.9,868.1 1133.9,850.4 1133.9,832.7 1133.9,815 
		1133.9,797.2 1133.9,779.5 1133.9,761.8 1133.9,744.1 1133.9,726.4 1133.9,708.7 1133.9,690.9 1133.9,673.2 1133.9,655.5 
		1116.1,655.5 	"/>
	<polygon points="283.5,815 265.7,815 248,815 230.3,815 212.6,815 194.9,815 177.2,815 159.4,815 159.4,832.7 159.4,850.4 
		159.4,868.1 159.4,885.8 159.4,903.5 159.4,921.3 159.4,939 159.4,956.7 159.4,974.4 159.4,992.1 159.4,1009.8 159.4,1027.6 
		159.4,1045.3 159.4,1063 159.4,1080.7 159.4,1098.4 159.4,1116.1 159.4,1133.9 177.2,1133.9 194.9,1133.9 212.6,1133.9 
		230.3,1133.9 248,1133.9 265.7,1133.9 283.5,1133.9 301.2,1133.9 318.9,1133.9 318.9,1116.1 318.9,1098.4 318.9,1080.7 318.9,1063 
		318.9,1045.3 318.9,1027.6 318.9,1009.8 318.9,992.1 318.9,974.4 318.9,956.7 318.9,939 318.9,921.3 318.9,903.5 318.9,885.8 
		318.9,868.1 318.9,850.4 318.9,832.7 318.9,815 301.2,815 	"/>
	<polygon points="779.5,815 761.8,815 744.1,815 726.4,815 708.7,815 690.9,815 673.2,815 655.5,815 655.5,832.7 655.5,850.4 
		655.5,868.1 655.5,885.8 655.5,903.5 655.5,921.3 655.5,939 655.5,956.7 655.5,974.4 655.5,992.1 655.5,1009.8 655.5,1027.6 
		655.5,1045.3 655.5,1063 655.5,1080.7 655.5,1098.4 655.5,1116.1 655.5,1133.9 673.2,1133.9 690.9,1133.9 708.7,1133.9 
		726.4,1133.9 744.1,1133.9 761.8,1133.9 779.5,1133.9 797.2,1133.9 815,1133.9 815,1116.1 815,1098.4 815,1080.7 815,1063 
		815,1045.3 815,1027.6 815,1009.8 815,992.1 815,974.4 815,956.7 815,939 815,921.3 815,903.5 815,885.8 815,868.1 815,850.4 
		815,832.7 815,815 797.2,815 	"/>
</g>
</svg>
