<?xml version="1.0" encoding="utf-8"?>
<!-- Generator: Adobe Illustrator 23.1.1, SVG Export Plug-In . SVG Version: 6.00 Build 0)  -->
<svg version="1.1" id="Livello_1" shape-rendering="crispEdges"
	 xmlns="http://www.w3.org/2000/svg" xmlns:xlink="http://www.w3.org/1999/xlink" x="0px" y="0px" viewBox="0 0 1133.9 283.5"
	 style="enable-background:new 0 0 1133.9 283.5;" xml:space="preserve">
<g>
	<polygon points="573.6,0 569.1,0 564.7,0 560.3,0 555.9,0 551.4,0 551.4,4.4 551.4,8.9 551.4,13.3 551.4,17.7 551.4,22.1 
		551.4,26.6 555.9,26.6 560.3,26.6 564.7,26.6 569.1,26.6 573.6,26.6 578,26.6 582.4,26.6 582.4,22.1 582.4,17.7 582.4,13.3 
		582.4,8.9 582.4,4.4 582.4,0 578,0 	"/>
	<polygon points="516,26.6 511.6,26.6 507.1,26.6 502.7,26.6 498.3,26.6 493.8,26.6 489.4,26.6 485,26.6 480.6,26.6 476.1,26.6 
		471.7,26.6 467.3,26.6 462.8,26.6 458.4,26.6 454,26.6 449.6,26.6 445.1,26.6 440.7,26.6 440.7,31 440.7,35.4 440.7,39.9 
		440.7,44.3 440.7,48.7 440.7,53.1 440.7,57.6 440.7,62 440.7,66.4 440.7,70.9 440.7,75.3 440.7,79.7 440.7,84.2 440.7,88.6 
		440.7,93 440.7,97.4 440.7,101.9 440.7,106.3 440.7,110.7 440.7,115.2 440.7,119.6 440.7,124 440.7,128.4 440.7,132.9 440.7,137.3 
		440.7,141.7 436.3,141.7 431.8,141.7 427.4,141.7 423,141.7 418.6,141.7 414.1,141.7 409.7,141.7 405.3,141.7 400.8,141.7 
		396.4,141.7 392,141.7 387.5,141.7 383.1,141.7 383.1,146.2 383.1,150.6 383.1,155 383.1,159.4 383.1,163.9 383.1,168.3 
		387.5,168.3 392,168.3 396.4,168.3 400.8,168.3 405.3,168.3 409.7,168.3 414.1,168.3 418.6,168.3 423,168.3 427.4,168.3 
		431.8,168.3 436.3,168.3 440.7,168.3 440.7,172.7 440.7,177.2 440.7,181.6 440.7,186 440.7,190.5 440.7,194.9 440.7,199.3 
		440.7,203.7 440.7,208.2 440.7,212.6 440.7,217 440.7,221.5 440.7,225.9 440.7,230.3 440.7,234.7 440.7,239.2 440.7,243.6 
		440.7,248 440.7,252.5 440.7,256.9 445.1,256.9 449.6,256.9 454,256.9 458.4,256.9 462.8,256.9 467.3,256.9 471.7,256.9 
		476.1,256.9 480.6,256.9 485,256.9 489.4,256.9 493.8,256.9 498.3,256.9 498.3,252.5 498.3,248 498.3,243.6 498.3,239.2 
		498.3,234.7 498.3,230.3 498.3,225.9 493.8,225.9 489.4,225.9 485,225.9 480.6,225.9 476.1,225.9 471.7,225.9 467.3,225.9 
		467.3,221.5 467.3,217 467.3,212.6 467.3,208.2 467.3,203.7 467.3,199.3 467.3,194.9 467.3,190.5 467.3,186 467.3,181.6 
		467.3,177.2 467.3,172.7 467.3,168.3 471.7,168.3 476.1,168.3 480.6,168.3 485,168.3 489.4,168.3 493.8,168.3 498.3,168.3 
		498.3,163.9 498.3,159.4 498.3,155 498.3,150.6 498.3,146.2 498.3,141.7 493.8,141.7 489.4,141.7 485,141.7 480.6,141.7 
		476.1,141.7 471.7,141.7 467.3,141.7 467.3,137.3 467.3,132.9 467.3,128.4 467.3,124 467.3,119.6 467.3,115.2 467.3,110.7 
		467.3,106.3 467.3,101.9 467.3,97.4 467.3,93 467.3,88.6 467.3,84.2 467.3,79.7 467.3,75.3 467.3,70.9 467.3,66.4 467.3,62 
		467.3,57.6 471.7,57.6 476.1,57.6 480.6,57.6 485,57.6 489.4,57.6 493.8,57.6 498.3,57.6 498.3,62 498.3,66.4 498.3,70.9 
		498.3,75.3 498.3,79.7 498.3,84.2 498.3,88.6 498.3,93 498.3,97.4 498.3,101.9 498.3,106.3 498.3,110.7 498.3,115.2 498.3,119.6 
		498.3,124 498.3,128.4 498.3,132.9 498.3,137.3 498.3,141.7 502.7,141.7 507.1,141.7 511.6,141.7 516,141.7 520.4,141.7 
		524.9,141.7 524.9,137.3 524.9,132.9 524.9,128.4 524.9,124 524.9,119.6 524.9,115.2 524.9,110.7 524.9,106.3 524.9,101.9 
		524.9,97.4 524.9,93 524.9,88.6 524.9,84.2 524.9,79.7 524.9,75.3 524.9,70.9 524.9,66.4 524.9,62 524.9,57.6 524.9,53.1 
		524.9,48.7 524.9,44.3 524.9,39.9 524.9,35.4 524.9,31 524.9,26.6 520.4,26.6 	"/>
	<polygon points="684.3,26.6 679.9,26.6 675.4,26.6 671,26.6 666.6,26.6 662.2,26.6 657.7,26.6 653.3,26.6 648.9,26.6 644.4,26.6 
		640,26.6 640,31 640,35.4 640,39.9 640,44.3 640,48.7 640,53.1 640,57.6 644.4,57.6 648.9,57.6 653.3,57.6 657.7,57.6 662.2,57.6 
		666.6,57.6 666.6,62 666.6,66.4 666.6,70.9 666.6,75.3 666.6,79.7 666.6,84.2 666.6,88.6 666.6,93 666.6,97.4 666.6,101.9 
		666.6,106.3 666.6,110.7 666.6,115.2 662.2,115.2 657.7,115.2 653.3,115.2 648.9,115.2 644.4,115.2 640,115.2 640,119.6 640,124 
		640,128.4 640,132.9 640,137.3 640,141.7 644.4,141.7 648.9,141.7 653.3,141.7 657.7,141.7 662.2,141.7 666.6,141.7 666.6,146.2 
		666.6,150.6 666.6,155 666.6,159.4 666.6,163.9 666.6,168.3 666.6,172.7 666.6,177.2 666.6,181.6 666.6,186 666.6,190.5 
		666.6,194.9 666.6,199.3 666.6,203.7 666.6,208.2 666.6,212.6 666.6,217 666.6,221.5 666.6,225.9 662.2,225.9 657.7,225.9 
		653.3,225.9 648.9,225.9 644.4,225.9 640,225.9 640,221.5 640,217 640,212.6 640,208.2 640,203.7 640,199.3 640,194.9 640,190.5 
		640,186 640,181.6 640,177.2 640,172.7 640,168.3 640,163.9 640,159.4 640,155 640,150.6 640,146.2 640,141.7 635.6,141.7 
		631.2,141.7 626.7,141.7 622.3,141.7 617.9,141.7 613.4,141.7 609,141.7 609,146.2 609,150.6 609,155 609,159.4 609,163.9 
		609,168.3 609,172.7 609,177.2 609,181.6 609,186 609,190.5 609,194.9 609,199.3 609,203.7 609,208.2 609,212.6 609,217 609,221.5 
		609,225.9 609,230.3 609,234.7 609,239.2 609,243.6 609,248 609,252.5 609,256.9 613.4,256.9 617.9,256.9 622.3,256.9 626.7,256.9 
		631.2,256.9 635.6,256.9 640,256.9 644.4,256.9 648.9,256.9 653.3,256.9 657.7,256.9 662.2,256.9 666.6,256.9 671,256.9 
		675.4,256.9 679.9,256.9 684.3,256.9 688.7,256.9 693.2,256.9 693.2,252.5 693.2,248 693.2,243.6 693.2,239.2 693.2,234.7 
		693.2,230.3 693.2,225.9 693.2,221.5 693.2,217 693.2,212.6 693.2,208.2 693.2,203.7 693.2,199.3 693.2,194.9 693.2,190.5 
		693.2,186 693.2,181.6 693.2,177.2 693.2,172.7 693.2,168.3 693.2,163.9 693.2,159.4 693.2,155 693.2,150.6 693.2,146.2 
		693.2,141.7 697.6,141.7 702,141.7 706.4,141.7 710.9,141.7 715.3,141.7 719.7,141.7 724.2,141.7 728.6,141.7 733,141.7 
		737.5,141.7 741.9,141.7 746.3,141.7 750.7,141.7 750.7,137.3 750.7,132.9 750.7,128.4 750.7,124 750.7,119.6 750.7,115.2 
		746.3,115.2 741.9,115.2 737.5,115.2 733,115.2 728.6,115.2 724.2,115.2 719.7,115.2 715.3,115.2 710.9,115.2 706.4,115.2 
		702,115.2 697.6,115.2 693.2,115.2 693.2,110.7 693.2,106.3 693.2,101.9 693.2,97.4 693.2,93 693.2,88.6 693.2,84.2 693.2,79.7 
		693.2,75.3 693.2,70.9 693.2,66.4 693.2,62 693.2,57.6 693.2,53.1 693.2,48.7 693.2,44.3 693.2,39.9 693.2,35.4 693.2,31 
		693.2,26.6 688.7,26.6 	"/>
	<polygon points="259.1,57.6 254.7,57.6 250.2,57.6 245.8,57.6 241.4,57.6 241.4,62 241.4,66.4 241.4,70.9 241.4,75.3 241.4,79.7 
		241.4,84.2 245.8,84.2 250.2,84.2 254.7,84.2 259.1,84.2 263.5,84.2 268,84.2 268,79.7 268,75.3 268,70.9 268,66.4 268,62 
		268,57.6 263.5,57.6 	"/>
	<polygon points="573.6,57.6 569.1,57.6 564.7,57.6 560.3,57.6 555.9,57.6 551.4,57.6 551.4,62 551.4,66.4 551.4,70.9 551.4,75.3 
		551.4,79.7 551.4,84.2 551.4,88.6 551.4,93 551.4,97.4 551.4,101.9 551.4,106.3 551.4,110.7 551.4,115.2 551.4,119.6 551.4,124 
		551.4,128.4 551.4,132.9 551.4,137.3 551.4,141.7 551.4,146.2 551.4,150.6 551.4,155 551.4,159.4 551.4,163.9 551.4,168.3 
		551.4,172.7 551.4,177.2 551.4,181.6 551.4,186 551.4,190.5 551.4,194.9 551.4,199.3 551.4,203.7 551.4,208.2 551.4,212.6 
		551.4,217 551.4,221.5 551.4,225.9 555.9,225.9 560.3,225.9 564.7,225.9 569.1,225.9 573.6,225.9 578,225.9 582.4,225.9 
		582.4,221.5 582.4,217 582.4,212.6 582.4,208.2 582.4,203.7 582.4,199.3 582.4,194.9 582.4,190.5 582.4,186 582.4,181.6 
		582.4,177.2 582.4,172.7 582.4,168.3 582.4,163.9 582.4,159.4 582.4,155 582.4,150.6 582.4,146.2 582.4,141.7 582.4,137.3 
		582.4,132.9 582.4,128.4 582.4,124 582.4,119.6 582.4,115.2 582.4,110.7 582.4,106.3 582.4,101.9 582.4,97.4 582.4,93 582.4,88.6 
		582.4,84.2 582.4,79.7 582.4,75.3 582.4,70.9 582.4,66.4 582.4,62 582.4,57.6 578,57.6 	"/>
	<polygon points="631.2,57.6 626.7,57.6 622.3,57.6 617.9,57.6 613.4,57.6 609,57.6 609,62 609,66.4 609,70.9 609,75.3 609,79.7 
		609,84.2 613.4,84.2 617.9,84.2 622.3,84.2 626.7,84.2 631.2,84.2 635.6,84.2 640,84.2 640,79.7 640,75.3 640,70.9 640,66.4 
		640,62 640,57.6 635.6,57.6 	"/>
	<polygon points="888,199.3 883.6,199.3 879.2,199.3 874.8,199.3 870.3,199.3 865.9,199.3 865.9,203.7 865.9,208.2 865.9,212.6 
		865.9,217 865.9,221.5 865.9,225.9 870.3,225.9 874.8,225.9 879.2,225.9 883.6,225.9 888,225.9 892.5,225.9 892.5,221.5 892.5,217 
		892.5,212.6 892.5,208.2 892.5,203.7 892.5,199.3 	"/>
	<polygon points="507.1,225.9 511.6,225.9 516,225.9 520.4,225.9 524.9,225.9 524.9,221.5 524.9,217 524.9,212.6 524.9,208.2 
		524.9,203.7 524.9,199.3 520.4,199.3 516,199.3 511.6,199.3 507.1,199.3 502.7,199.3 498.3,199.3 498.3,203.7 498.3,208.2 
		498.3,212.6 498.3,217 498.3,221.5 498.3,225.9 502.7,225.9 	"/>
	<polygon points="857,225.9 852.6,225.9 848.2,225.9 843.8,225.9 839.3,225.9 834.9,225.9 830.5,225.9 826,225.9 821.6,225.9 
		817.2,225.9 812.7,225.9 808.3,225.9 808.3,221.5 808.3,217 808.3,212.6 808.3,208.2 808.3,203.7 808.3,199.3 808.3,194.9 
		808.3,190.5 808.3,186 808.3,181.6 808.3,177.2 808.3,172.7 808.3,168.3 808.3,163.9 808.3,159.4 808.3,155 808.3,150.6 
		808.3,146.2 808.3,141.7 808.3,137.3 808.3,132.9 808.3,128.4 808.3,124 808.3,119.6 808.3,115.2 808.3,110.7 808.3,106.3 
		808.3,101.9 808.3,97.4 808.3,93 808.3,88.6 808.3,84.2 808.3,79.7 808.3,75.3 808.3,70.9 808.3,66.4 808.3,62 808.3,57.6 
		808.3,53.1 808.3,48.7 808.3,44.3 808.3,39.9 808.3,35.4 808.3,31 808.3,26.6 808.3,22.1 808.3,17.7 808.3,13.3 808.3,8.9 
		808.3,4.4 808.3,0 803.9,0 799.5,0 795,0 790.6,0 786.2,0 781.7,0 777.3,0 772.9,0 768.5,0 764,0 759.6,0 755.2,0 750.7,0 746.3,0 
		741.9,0 737.5,0 733,0 728.6,0 724.2,0 719.7,0 715.3,0 710.9,0 706.4,0 702,0 697.6,0 693.2,0 693.2,4.4 693.2,8.9 693.2,13.3 
		693.2,17.7 693.2,22.1 693.2,26.6 697.6,26.6 702,26.6 706.4,26.6 710.9,26.6 715.3,26.6 719.7,26.6 724.2,26.6 728.6,26.6 
		733,26.6 737.5,26.6 741.9,26.6 746.3,26.6 750.7,26.6 755.2,26.6 759.6,26.6 764,26.6 768.5,26.6 772.9,26.6 777.3,26.6 
		781.7,26.6 781.7,31 781.7,35.4 781.7,39.9 781.7,44.3 781.7,48.7 781.7,53.1 781.7,57.6 781.7,62 781.7,66.4 781.7,70.9 
		781.7,75.3 781.7,79.7 781.7,84.2 781.7,88.6 781.7,93 781.7,97.4 781.7,101.9 781.7,106.3 781.7,110.7 781.7,115.2 781.7,119.6 
		781.7,124 781.7,128.4 781.7,132.9 781.7,137.3 781.7,141.7 781.7,146.2 781.7,150.6 781.7,155 781.7,159.4 781.7,163.9 
		781.7,168.3 781.7,172.7 781.7,177.2 781.7,181.6 781.7,186 781.7,190.5 781.7,194.9 781.7,199.3 781.7,203.7 781.7,208.2 
		781.7,212.6 781.7,217 781.7,221.5 781.7,225.9 777.3,225.9 772.9,225.9 768.5,225.9 764,225.9 759.6,225.9 755.2,225.9 
		750.7,225.9 746.3,225.9 741.9,225.9 737.5,225.9 733,225.9 728.6,225.9 724.2,225.9 724.2,230.3 724.2,234.7 724.2,239.2 
		724.2,243.6 724.2,248 724.2,252.5 724.2,256.9 724.2,261.3 724.2,265.7 724.2,270.2 724.2,274.6 724.2,279 724.2,283.5 
		728.6,283.5 733,283.5 737.5,283.5 741.9,283.5 746.3,283.5 750.7,283.5 750.7,279 750.7,274.6 750.7,270.2 750.7,265.7 
		750.7,261.3 750.7,256.9 755.2,256.9 759.6,256.9 764,256.9 768.5,256.9 772.9,256.9 777.3,256.9 781.7,256.9 786.2,256.9 
		790.6,256.9 795,256.9 799.5,256.9 803.9,256.9 808.3,256.9 812.7,256.9 817.2,256.9 821.6,256.9 826,256.9 830.5,256.9 
		834.9,256.9 839.3,256.9 843.8,256.9 848.2,256.9 852.6,256.9 857,256.9 861.5,256.9 865.9,256.9 865.9,252.5 865.9,248 
		865.9,243.6 865.9,239.2 865.9,234.7 865.9,230.3 865.9,225.9 861.5,225.9 	"/>
	<polygon points="431.8,256.9 427.4,256.9 423,256.9 418.6,256.9 414.1,256.9 409.7,256.9 405.3,256.9 400.8,256.9 396.4,256.9 
		392,256.9 387.5,256.9 383.1,256.9 378.7,256.9 374.3,256.9 369.8,256.9 365.4,256.9 361,256.9 356.5,256.9 356.5,252.5 356.5,248 
		356.5,243.6 356.5,239.2 356.5,234.7 356.5,230.3 356.5,225.9 356.5,221.5 356.5,217 356.5,212.6 356.5,208.2 356.5,203.7 
		356.5,199.3 356.5,194.9 356.5,190.5 356.5,186 356.5,181.6 356.5,177.2 356.5,172.7 356.5,168.3 356.5,163.9 356.5,159.4 
		356.5,155 356.5,150.6 356.5,146.2 356.5,141.7 356.5,137.3 356.5,132.9 356.5,128.4 356.5,124 356.5,119.6 356.5,115.2 
		356.5,110.7 356.5,106.3 356.5,101.9 356.5,97.4 356.5,93 356.5,88.6 356.5,84.2 356.5,79.7 356.5,75.3 356.5,70.9 356.5,66.4 
		356.5,62 356.5,57.6 361,57.6 365.4,57.6 369.8,57.6 374.3,57.6 378.7,57.6 383.1,57.6 387.5,57.6 392,57.6 396.4,57.6 400.8,57.6 
		405.3,57.6 409.7,57.6 409.7,53.1 409.7,48.7 409.7,44.3 409.7,39.9 409.7,35.4 409.7,31 409.7,26.6 409.7,22.1 409.7,17.7 
		409.7,13.3 409.7,8.9 409.7,4.4 409.7,0 405.3,0 400.8,0 396.4,0 392,0 387.5,0 383.1,0 383.1,4.4 383.1,8.9 383.1,13.3 
		383.1,17.7 383.1,22.1 383.1,26.6 378.7,26.6 374.3,26.6 369.8,26.6 365.4,26.6 361,26.6 356.5,26.6 352.1,26.6 347.7,26.6 
		343.3,26.6 338.8,26.6 334.4,26.6 330,26.6 325.5,26.6 321.1,26.6 316.7,26.6 312.3,26.6 307.8,26.6 303.4,26.6 299,26.6 
		294.5,26.6 290.1,26.6 285.7,26.6 281.2,26.6 276.8,26.6 272.4,26.6 268,26.6 268,31 268,35.4 268,39.9 268,44.3 268,48.7 
		268,53.1 268,57.6 272.4,57.6 276.8,57.6 281.2,57.6 285.7,57.6 290.1,57.6 294.5,57.6 299,57.6 303.4,57.6 307.8,57.6 312.3,57.6 
		316.7,57.6 321.1,57.6 325.5,57.6 325.5,62 325.5,66.4 325.5,70.9 325.5,75.3 325.5,79.7 325.5,84.2 325.5,88.6 325.5,93 
		325.5,97.4 325.5,101.9 325.5,106.3 325.5,110.7 325.5,115.2 325.5,119.6 325.5,124 325.5,128.4 325.5,132.9 325.5,137.3 
		325.5,141.7 325.5,146.2 325.5,150.6 325.5,155 325.5,159.4 325.5,163.9 325.5,168.3 325.5,172.7 325.5,177.2 325.5,181.6 
		325.5,186 325.5,190.5 325.5,194.9 325.5,199.3 325.5,203.7 325.5,208.2 325.5,212.6 325.5,217 325.5,221.5 325.5,225.9 
		325.5,230.3 325.5,234.7 325.5,239.2 325.5,243.6 325.5,248 325.5,252.5 325.5,256.9 325.5,261.3 325.5,265.7 325.5,270.2 
		325.5,274.6 325.5,279 325.5,283.5 330,283.5 334.4,283.5 338.8,283.5 343.3,283.5 347.7,283.5 352.1,283.5 356.5,283.5 361,283.5 
		365.4,283.5 369.8,283.5 374.3,283.5 378.7,283.5 383.1,283.5 387.5,283.5 392,283.5 396.4,283.5 400.8,283.5 405.3,283.5 
		409.7,283.5 414.1,283.5 418.6,283.5 423,283.5 427.4,283.5 431.8,283.5 436.3,283.5 440.7,283.5 440.7,279 440.7,274.6 
		440.7,270.2 440.7,265.7 440.7,261.3 440.7,256.9 436.3,256.9 	"/>
	<polygon points="573.6,256.9 569.1,256.9 564.7,256.9 560.3,256.9 555.9,256.9 551.4,256.9 551.4,261.3 551.4,265.7 551.4,270.2 
		551.4,274.6 551.4,279 551.4,283.5 555.9,283.5 560.3,283.5 564.7,283.5 569.1,283.5 573.6,283.5 578,283.5 582.4,283.5 582.4,279 
		582.4,274.6 582.4,270.2 582.4,265.7 582.4,261.3 582.4,256.9 578,256.9 	"/>
</g>
</svg>
