<svg xmlns="http://www.w3.org/2000/svg" xml:space="preserve" stroke-linecap="round" stroke-linejoin="round"
    stroke-miterlimit="10" clip-rule="evenodd" viewBox="0 0 512 128">
    <g fill="currentColor">
        <path
            d="M138.9 123.67c-4.22-.82-6.47-1.9-8.7-4.17a13.62 13.62 0 0 1-3.49-5.85c-.95-3.05-1.12-4.3-1.09-9.12 0-4.49.11-5.76.93-10.61.62-3.7 1.47-7.4 2.72-12.11.95-3.49.98-3.65 1.39-4.9.24-.68.81-2.5 1.3-4.08a95.3 95.3 0 0 1 2.18-6.67c.14-.3.55-1.47.93-2.59.81-2.5 2.01-5.93 2.34-6.67l.54-1.5c.2-.51.44-1.2.55-1.5l.78-2.09c.33-.87.82-2.28 1.15-3.13l.79-2.12.54-1.5c.2-.51.44-1.2.55-1.5.1-.3.46-1.22.76-2.04l1-2.72c1.97-5.2 3.19-9.88 3.49-13.42.1-1.17.05-1.3-.52-1.44a241 241 0 0 0-11.67 0c-6.08.08-16 .25-22.1.33-13.64.19-14.38.08-17.34-2.61a7.16 7.16 0 0 1-2.45-5.72c-.03-1.74.08-2.23.7-3.27 2.26-3.86 6.4-5.47 14.92-5.85l9.12-.4c28.8-1.34 48.47-1.8 89.27-2.16 30-.24 58.44-.16 142.5.5 55.93.43 56.6.46 60.96 1.82 4.38 1.38 6.59 4.51 5.72 8.13-1.7 7-10.37 9.45-30.22 8.58-10.94-.5-73.54-1.23-123.97-1.47-40.56-.2-93.28.54-94.83 1.28a1.6 1.6 0 0 0-.85 1.14c-.1.46-.35 1.5-.52 2.31-.19.82-.43 1.8-.57 2.18l-.54 1.9c-.65 2.32-.82 2.9-3.13 9.8A251.61 251.61 0 0 1 158.09 52c-.24.6-1.44 3.95-2.07 5.86-.21.68-.51 1.47-.65 1.77-.24.57-1.41 3.83-2.07 5.85-.22.68-.52 1.47-.65 1.77-.3.62-4.82 14.34-5.66 17.14-2.4 7.9-3.57 13.89-3.6 18.32 0 2.02 0 2.02 1.72 1.83a51.7 51.7 0 0 0 5.77-.96l2.59-.57c.81-.16 1.8-.4 2.17-.52l1.9-.54c5.67-1.6 11.47-4.08 14.7-6.26 3.35-2.29 6.81-6.67 6.81-8.68 0-.3.1-1.12.27-1.85.14-.71.38-2.24.55-3.35.54-3.65 1.33-7.95 1.82-9.8.76-2.89.84-3.13 1.03-3.68.85-2.42 3.16-6.88 4.03-7.8.17-.2.76-.9 1.31-1.59a41.41 41.41 0 0 1 10.04-8.65 46.5 46.5 0 0 1 14.97-5.55c2.37-.47 10.56-.44 12.52.02 3.98.96 6.1 1.85 8.3 3.52 6.9 5.2 5.75 14.4-3.2 25.63-2.13 2.67-10.24 10.73-13.53 13.45l-3.27 2.72c-.82.68-5.3 4.06-7.13 5.34-1.85 1.28-1.74 1.68.4 1.5a97.54 97.54 0 0 0 9.72-1.5c.52-.14 1.58-.38 2.32-.57 1.5-.36 5.85-1.75 6.94-2.2a69.64 69.64 0 0 0 9.58-4.6c.38-.3.79-.53.87-.53.25 0 4.06-2.55 5.47-3.64 6.7-5.23 11.81-11.1 15-17.2a109.1 109.1 0 0 1 5.9-10.32c3.43-5.17 6.73-8.41 10.18-9.99a7.77 7.77 0 0 1 4.09-.84 9.3 9.3 0 0 1 2.85.27c.36.16 1.1.52 1.7.76a8.92 8.92 0 0 1 4.78 5.8c.66 2.8-.62 6.83-4.1 12.7-.9 1.56-2.78 4.23-8.14 11.58-6.27 8.57-8.33 12.16-9.42 16.27-.87 3.27-.2 3.54 3.15 1.31l1.64-1.14c.21-.2 1.14-.93 2.04-1.64a174.6 174.6 0 0 0 6.94-5.93l2.72-2.45 5.3-4.9c5.07-4.74 6.43-5.99 8.86-8.06 1.11-.98 2.1-1.82 2.17-1.9.08-.08.93-.82 1.9-1.63a173.66 173.66 0 0 1 9-7.27c9.3-7.05 17.27-11.35 24.65-13.31 1.96-.5 5.9-.76 8.33-.55 1.52.17 2.2.36 2.7.8 1.9 1.68 2.96 4.51 2.96 7.89 0 3.8-.93 5.22-5.44 8.33a43.56 43.56 0 0 1-7.49 4.1l-2.45 1.1c-.6.27-1.58.67-2.18.92a67.32 67.32 0 0 0-12.17 6.34c-5.57 4-11.56 11.16-12.98 15.57-1.28 3.95 1.2 7.35 5.34 7.38 2.78 0 7.6-1.96 10.4-4.22 5.36-4.33 9.77-9.96 14.29-18.21 1.96-3.57 4.24-6.23 6.75-7.9 2.64-1.76 4.9-1.87 6.53-.32 1.88 1.77 3.78 5.66 5.06 10.37.9 3.24 1.52 4.98 2.26 6.01 2.48 3.62 8.25 5.28 22.02 6.37 2.01.17 4.79.41 6.18.55 1.36.16 4.54.27 7.07.27 6.62 0 9.8-.73 12.69-2.86 2.42-1.85 5.42-3.13 7.21-3.13 3.3 0 6.53 3.02 7.81 7.27 1.53 5-1.8 10.34-8.84 14.13a34.1 34.1 0 0 1-7.35 2.8l-2.59.57c-7.6 1.63-12.87 1.77-20.82.52a60.22 60.22 0 0 1-5.36-1.1 107.9 107.9 0 0 1-17.91-6.5c-1.2-.51-2.78-1.25-7.46-3.5-1.58-.74-2.01-.74-3.07.18a143.8 143.8 0 0 1-13.07 9.18c-4.33 2.53-10.97 5.33-14.5 6.1-6.16 1.3-9.62 1.16-15.38-.6-1.88-.6-6.13-2.97-8.3-4.66a53.36 53.36 0 0 1-7.03-7.02c-.33-.44-.7-.77-.9-.77-.16 0-1.22.66-2.34 1.45-8 5.69-15.21 9.44-21.31 11.1-.79.22-2.67.38-4.5.38-2.96-.02-3.23-.05-4.94-.9-2.89-1.38-5.1-4.32-6.18-8.21-.55-1.94-.82-2.45-1.17-2.45a25 25 0 0 0-3.35 1.47 122.4 122.4 0 0 1-4.27 2.04c-.74.32-1.88.84-2.59 1.14l-2.53 1.12-2.67 1.2c-.79.35-1.5.65-1.55.65-.08 0-.74.24-1.44.57a72.35 72.35 0 0 1-11.22 3.86c-.98.25-2.45.58-3.26.8-2.07.48-10.54.46-12.66-.03a41.24 41.24 0 0 1-11.84-4.77c-1.52-.92-1.99-1.09-3.24-1.06-.81.03-1.74.16-2.04.3a58.52 58.52 0 0 0-4.93 2.5 60.82 60.82 0 0 1-5.98 3l-2.73 1.2c-.73.35-2.4 1-3.67 1.5-1.28.48-2.56 1-2.86 1.14-.92.38-6.48 2.2-7.48 2.45-.52.1-1.45.35-2.05.51-4.43 1.2-11.2 1.85-13.88 1.31Zm59.42-45.32c.9-.57 9.94-7.3 10.45-7.76.2-.19.8-.68 1.36-1.08.55-.41 1.15-.9 1.37-1.1.19-.18.78-.7 1.3-1.1 1.72-1.4 4.9-4.64 4.9-5.02 0-.57-1.39-.4-3.3.36-4.95 2.01-6.66 3.07-10.06 6.4-5.64 5.5-9.56 11.53-6.02 9.3Z" />
        <path
            d="M284.66 44.14c-3.24-.76-4.66-1.74-6.5-4.52a16.4 16.4 0 0 1-1.91-3.62c-.41-1-.38-4.16.05-5.36.87-2.48 2.91-4.6 5.72-5.96 2.47-1.17 3.32-1.4 5.69-1.4 2.4 0 3.8.53 5.3 1.91.98.93 2.54 3.08 2.54 3.52 0 .16.1.51.24.78.82 1.47 1.09 5.23.54 7.24-.7 2.59-1.27 3.65-2.83 5.2-2.12 2.13-5.52 2.97-8.84 2.2Z" />
    </g>
</svg>