<svg xmlns="http://www.w3.org/2000/svg" xml:space="preserve" fill="currentColor" shape-rendering="crispEdges"
	viewBox="0 0 512 128">
	<g stroke="null">
		<path
			d="M327.695 6.908h-143.39v114.184h143.01v-2.283.241V6.92h.38v-.012zM193.96 112.162V16.588h123.776v95.46h-8.222.267-115.784v.114h-.037z" />
		<path
			d="M261.975 45.515h8.73V35.86h-9.643v9.655h.914-.001zm19.31 0h8.729V35.86h-9.654v9.655h.926zM214.184 74.01H299.2V55.17h-9.186v9.186h-28.952V55.17h-9.655v9.186h-28.495V35.86h-9.655v38.15h.926v.001zm17.457 9.655h-8.728v9.642h9.655v-9.642h-.927zm18.841 0h-8.729v9.642h9.655v-9.642h-.926z" />
	</g>
</svg>