<svg xmlns="http://www.w3.org/2000/svg" xml:space="preserve" viewBox="0 0 512 128"><g stroke="null"><path d="M63.39 57.1554h82.6357V39.1163H66.3098L159.265 8.7579V25.397h82.4357l21.9989 31.2384c.12.2.36.28.56.28v.24h63.0367v-.24c.16 0 .32-.04.44-.16l38.198-31.3984v.04H448.57V7.358H159.625c-.12-.04-.2-.04-.32 0h-.04L63.83 38.4763c-.28.08-.48.36-.48.64v18.039h.04zM365.9743 8.9179V23.637l-38.638 31.7584V40.6762c.16 0 .32-.04.44-.16l38.198-31.5983zm-1.92-.2-36.718 30.4384v-.04h-62.8367l-21.279-30.3984h120.8338zM263.7397 40.3962c.12.2.36.28.56.28v14.3593l-21.839-30.9585c-.12-.2-.36-.28-.56-.28V9.1979l21.8389 31.1983z"/><path d="M159.265 27.8769h18.0791v8.7596H159.265zm206.7093 0h18.0791v8.7596h-18.0791zm64.5566 0H448.61v8.7596h-18.0791zm-125.6734 72.2762V59.6352h-18.0791v38.638l-21.6389-30.2784c-.16-.2-.4-.32-.64-.28h-17.3589c-.36 0-.68.32-.68.68v1.2399l-21.159-29.9984c-.1199-.2-.3599-.28-.5599-.28v-.24H159.265v18.079h65.4766V41.1962l21.7189 30.7984v.76c0 .3599.32.6799.68.6799h17.279c.36 0 .68-.32.68-.68v-2.4798l21.159 29.5984c.1199.2.3599.28.5599.28h18.039zm-41.118-28.1185h-15.879v-2.9599h15.879v2.9599z"/><path d="M384.0134 87.7138V59.6352h-18.0791c-.12 0-.24.04-.36.12l-39.358 30.0385-.04.04-.04.04-.04.04-.04.04s-.04.04-.04.08c0 0 0 .04-.04.04 0 .04 0 .04-.04.08v12.4793h-61.4368l-21.9988-31.2384c-.12-.2-.36-.28-.56-.28v-.24H159.265v17.8391c-.08.2-.04.48.12.64l25.1587 29.9584h-70.8363v-58.237h45.5576v7.3197h18.079v-8.7596h-18.079v.08h-45.5576v-.08h-18.079v61.0369h249.3469c.16 0 .32-.04.44-.16l38.438-31.5984h.2v-.16c.28-.24.32-.68.08-.96-.04-.04-.08-.08-.12-.08zm-120.2738 16.1991c.12.2.36.28.56.28v14.5993l-22.3989-31.7584V72.9145l21.8389 30.9984zm-77.396 15.3992c0-.04-.04-.04-.04-.08L160.825 88.9137h80.7158l21.439 30.3984h-76.636zm140.9927-16.6791V90.7136l38.638-29.4785v26.3187c-.16 0-.32.04-.44.16l-38.198 31.3983V102.633zm17.3991 16.6791h-15.4792l36.958-30.3984h15.4793l-36.9581 30.3984zM448.61 87.9938V58.9953h-18.079v.6h-.04l-39.038 32.1183c-.16.12-.24.32-.24.52v27.7985c0 .08 0 .12.04.16v.04c0 .04.04.08.04.12v.04l.12.12s.04 0 .04.04c.04.04.08.04.12.08h.04c.04 0 .08.04.12.04h18.279c.16 0 .32-.04.44-.16l37.958-31.8384c.2-.16.24-.44.2-.68zm-55.997 4.5597 37.918-31.1984v25.8787l-37.918 31.3584V92.5535zm17.119 26.7586h-15.9192l37.5981-31.0784h15.3592l-37.038 31.0784z"/><path d="M325.9764 86.4338v.04c0 .04 0 .04.04.08 0 .04 0 .04.04.04l.04.04c0 .04.04.04.04.08l.04.04.08.08.04.04c.04 0 .04.04.08.04 0 0 .04 0 .04.04.04 0 .08.04.12.04h.2c.08 0 .12 0 .2-.04h.04c.08-.04.12-.04.16-.08l38.918-29.7184H448.65v-18.039h-82.5957c-.16 0-.36.04-.52.16l-39.318 33.1982c-.16.12-.24.32-.24.52v13.4393zm39.9979-45.7576v14.7992c-.04.04-.08.04-.12.08l-38.478 29.3985V73.2745l38.598-32.5983z"/></g></svg>