<svg xmlns="http://www.w3.org/2000/svg" data-name="Ebene 2" viewBox="0 0 512 128"><g stroke="null" data-name="Layer 1"><path fill="none" stroke="#000" stroke-miterlimit="10" stroke-width="7" d="m256.24 119.306-40.779-11.562V95.082l-19.791-6.188V23.35l61.606-14.655 59.054 14.671V88.99l-19.791 5.438v13.795l-40.284 11.068-.016.016zm-30.971-18.977 31.018 8.787 30.444-8.373V86.95l19.791-5.438V31.02l-49.294-12.249-51.734 12.312V81.67l19.79 6.188v12.455l-.015.016z" class="cls-1"/><path d="M229.559 68.465V51.003h-4.832v-1.93h11.817v1.93h-4.832v17.462h-2.17.017zm16.952.208c-.51 0-1.02-.048-1.547-.128-.526-.096-1.004-.24-1.483-.478s-.893-.527-1.26-.877c-.383-.367-.686-.782-.925-1.244s-.398-.957-.494-1.468a8.378 8.378 0 0 1-.144-1.562v-2.632c0-.51.048-1.02.128-1.547.08-.526.255-1.004.494-1.467.24-.462.543-.877.925-1.244.383-.367.798-.67 1.26-.893s.941-.383 1.467-.478c.51-.08 1.037-.128 1.547-.128s1.02.048 1.547.128 1.005.239 1.467.478c.463.223.877.526 1.26.893s.686.782.925 1.244c.24.463.399.941.495 1.467s.127 1.037.127 1.547v2.297h-9.409v.335c0 .334.032.67.08 1.004.048.335.143.654.287.957s.335.574.574.83c.24.255.494.462.797.605.287.144.606.256.941.32.335.063.67.095 1.005.095.383 0 .765-.032 1.132-.08a3.76 3.76 0 0 0 1.069-.319c.335-.16.638-.382.877-.685s.383-.638.414-1.021h2.185a4.164 4.164 0 0 1-.303 1.26c-.16.399-.398.765-.67 1.1-.287.32-.606.606-.972.83s-.766.414-1.18.542c-.415.127-.83.223-1.26.27s-.861.065-1.308.065l-.048-.016zm-3.668-8.038h7.224V60.3c0-.335-.031-.67-.08-.989s-.143-.638-.286-.956c-.144-.303-.32-.59-.543-.83s-.478-.446-.781-.606c-.303-.16-.606-.27-.94-.335s-.655-.111-.99-.111-.67.032-.988.111-.638.192-.941.335c-.303.16-.558.367-.782.606-.223.24-.398.527-.542.83-.144.303-.24.621-.287.956s-.08.654-.08.99v.334h.016zm14.146 7.83V66.52h4.433v-9.84h-4.003v-1.93h6.172v11.77h4.003v1.945h-10.605zm5.294-16.027c-.223 0-.446-.032-.653-.096a1.344 1.344 0 0 1-.894-.893c-.063-.207-.095-.43-.095-.654s.032-.446.095-.654c.064-.207.176-.398.335-.558.16-.16.335-.27.559-.335s.43-.111.653-.111.447.032.654.111.399.192.558.335c.16.16.272.335.335.558.064.208.112.431.112.654s-.032.447-.112.654-.191.399-.335.558c-.16.16-.334.271-.558.335-.207.064-.43.096-.654.096zm14.529 16.235a8.74 8.74 0 0 1-1.117-.08 4.302 4.302 0 0 1-1.1-.287 4.005 4.005 0 0 1-.973-.574 3.37 3.37 0 0 1-.75-.83 3.03 3.03 0 0 1-.43-1.02 4.486 4.486 0 0 1-.128-1.132c0-.495.08-.973.24-1.436s.398-.877.733-1.228.718-.638 1.148-.86c.431-.224.878-.4 1.356-.527.478-.128.957-.223 1.435-.271s.957-.064 1.436-.064h2.854V59.31a3.08 3.08 0 0 0-.111-.845 2.377 2.377 0 0 0-.335-.765 2.314 2.314 0 0 0-.59-.59 3.696 3.696 0 0 0-.75-.383c-.271-.096-.542-.144-.813-.192a7.507 7.507 0 0 0-.845-.047c-.383 0-.766.032-1.149.095a3.789 3.789 0 0 0-1.084.367 2.339 2.339 0 0 0-.845.782 1.93 1.93 0 0 0-.335 1.084h-2.185c0-.447.08-.861.223-1.292s.367-.797.638-1.148.59-.638.957-.877.765-.447 1.18-.574c.415-.144.845-.24 1.276-.287.446-.048.877-.08 1.324-.08.478 0 .94.032 1.403.096.462.063.909.175 1.34.35.43.16.829.4 1.212.67.382.287.701.622.956 1.005.272.383.447.813.559 1.26.111.462.16.925.16 1.403v9.154h-2.186V66.12a4.25 4.25 0 0 1-.797 1.148 4.649 4.649 0 0 1-1.148.846 4.76 4.76 0 0 1-1.34.462 8.35 8.35 0 0 1-1.403.128l-.016-.032zm.813-1.93c.319 0 .638-.032.957-.08.319-.048.622-.127.925-.239s.574-.255.845-.446c.271-.192.494-.415.67-.686s.319-.558.383-.877.111-.638.111-.941v-1.18h-2.854c-.287 0-.574 0-.877.031-.303.016-.59.064-.878.112a8.265 8.265 0 0 0-.845.223c-.287.08-.542.208-.797.383-.24.176-.447.383-.574.654s-.208.542-.208.813c0 .367.096.718.287 1.021.192.319.447.574.75.75s.638.303 1.005.366c.366.064.717.096 1.1.096z"/></g></svg>