<svg xmlns="http://www.w3.org/2000/svg" xml:space="preserve"  viewBox="0 0 512 128"><g stroke="null"><path d="M168.9861 5.0551h101.5474v35.6372H168.9861zm0 82.2526h101.5474v35.6372H168.9861zM301.2638 5.0551h35.6372v117.8898h-35.6372zm-162.9664 0H36.75v35.6372h32.9343v82.2526h35.6372V40.6923h32.9759z"/><path fill="none" d="M417.1992 56.6189 402.0627 86.975h30.2729z" class="st0"/><path d="m409.0072 40.235-8.6078 17.2987-32.6432 65.4112h99.385l8.1088-16.9246h-83.001c-.1664 0-.3327-.0831-.4575-.2495-.0831-.1663-.1247-.3326-.0415-.499l8.9404-17.9641 15.885-31.8115-7.5682-15.2612z"/><path d="M393.1222 104.9807H475.25L425.4328 5.0551h-15.9266l40.5441 82.211c0 .0416.0416.0831.0416.1247v.2911c0 .0416 0 .0416-.0416.0832-.0832.1247-.2495.2079-.4158.2495h-48.0708l-8.4415 16.9661zm8.4415-16.9245-8.4415 16.9245 8.4415-16.9245z"/><path d="m448.7196 86.975-22.7463-46.158L408.633 5.7206l-49.734 99.7177 8.0256 16.7998 41.6253-83.417c.0831-.1662.291-.291.4574-.291s.3742.1247.4574.291l23.9106 47.946 15.3444.208zM408.6329 5.7205l17.3404 35.0966z"/></g></svg>