<svg xmlns="http://www.w3.org/2000/svg" data-name="Ebene 1" viewBox="0 0 512 128"><g stroke="null"><path d="M98.428 58.82c-1.528.606-2.935.938-4.092 1.662-4.643 2.906-9.111 6.093-13.826 8.874-5.916 3.489-11.806 7.138-18.082 9.877-6.342 2.767-11.084.445-14.594-5.59-4.022-6.916-3.914-14.238-2.543-21.72 1.19-6.49 2.18-13.106 6.702-18.37 2.094-2.438 4.547-4.574 6.836-6.847l.664.396c.238 1.807.638 3.608.687 5.421.158 5.736-.193 11.313-1.697 17.027-1.304 4.954-.498 10.465-.433 15.727.006.456 1.562 1.388 2.2 1.244 1.653-.371 3.299-1.05 4.765-1.91 6.74-3.952 13.45-7.96 20.11-12.044 4.2-2.576 8.323-5.279 12.397-8.047.507-.345.667-1.425.697-2.176.09-2.214.032-4.435.032-6.652l1.065-.438c1.015 1.034 2.218 1.945 3.006 3.127 1.55 2.322 1.596 2.31 4.176.942 9.818-5.207 19.626-10.433 29.553-15.43 4.332-2.18 7.8-1.612 10.422 1.146 2.06 2.168 2.54 4.918 2.501 7.79-.01.833-.001 1.668-.001 2.791 3.414-1.541 6.548-3.117 9.805-4.387a154.007 154.007 0 0 1 11.983-4.125c1.375-.408 2.98-.064 4.478-.064.114.323.229.646.342.97-1.219.975-2.372 2.048-3.669 2.911-8.21 5.467-16.452 10.887-24.687 16.319-2.302 1.519-4.025 3.329-4.362 6.284-.09.796-1.585 2.184-2.155 2.058-4.272-.942-5.975 2.66-8.81 4.201l.106.82c1.664 0 3.333.092 4.99-.016 6.276-.41 12.55-.85 18.818-1.348 3.706-.295 6.671 1.154 7.766 3.956 1.173 3.002.066 6.098-3.046 8.298-2.427 1.715-4.83 3.484-7.376 5.014-4.618 2.775-7.377 7.133-10.13 11.449-2.898 4.544-2.35 9.416-.324 14.094 1.122 2.59 3.422 3.832 6.376 4.098 6.068.543 11.947-.56 17.707-2.068 9.143-2.394 17.298-6.93 24.15-13.285 3.126-2.9 5.573-6.78 7.49-10.624 2.702-5.425-.555-11.297-6.428-12.859-2.347-.623-4.613-1.553-6.97-2.113-1.788-.424-1.964-1.377-1.696-2.907.973-5.563 6.64-9.355 12.495-8.235 1.452.278 2.867.742 4.481 1.168 0-3.653.26-7.266-.06-10.83-.501-5.594.317-11.013 1.695-16.366.232-.902 1.708-2.17 2.475-2.084.901.1 2.231 1.403 2.38 2.339.888 5.587 1.453 11.222 2.199 16.833.346 2.603.856 5.186 1.293 7.777.49 2.897.93 5.804 1.482 8.69.858 4.491 1.571 9.026 2.748 13.438 1.562 5.85 3.37 11.645 5.34 17.374 1.473 4.284 3.594 8.257 8.123 10.45-.881-6.693-.354-13.221 1.111-19.69.354-1.558-.222-2.532-1.699-3.105-1.68-.652-3.318-1.42-5.012-2.033-1.876-.678-2.239-2.17-1.954-3.767.309-1.732 1.856-1.597 3.2-1.508 1.873.122 3.742.291 5.875.46.49-3.006 1.05-5.879 1.411-8.777 1.12-8.996 2.25-17.994 3.19-27.01.361-3.468.133-6.993.35-10.48.089-1.441.412-2.958 1.019-4.263 1.824-3.92 6.26-4.826 9.238-1.74 1.502 1.559 2.905 3.587 3.424 5.633 3.04 11.978 8.622 22.441 17.936 30.803 4.072 3.657 8.17 7.293 12.398 10.77.884.728 2.477 1.18 3.593.973 9.092-1.691 18.192-3.383 27.2-5.456 5.793-1.332 11.484-3.163 17.135-5.025 11.305-3.73 22.528-7.703 33.828-11.447 10.115-3.35 20.163-7.003 30.47-9.651 10.842-2.787 21.805-5.426 33.123-5.753 9.708-.28 19.23.715 27.857 5.489 10.266 5.68 15.804 14.365 15.885 26.18.015 2.226.002 4.453.002 6.515-3.98-4.475-7.971-8.75-11.723-13.22-6.915-8.238-15.935-11.305-26.48-11.368-13.339-.079-26.234 2.5-39.015 5.839-5.221 1.363-10.36 3.047-15.503 4.687-11.486 3.662-22.953 7.382-34.423 11.093-6.774 2.19-13.503 4.521-20.32 6.573-3.75 1.13-7.63 1.845-11.464 2.689-4.56 1.003-9.132 1.941-13.978 2.967 1.393.922 2.651 1.938 4.062 2.659 8.56 4.377 17.391 7.888 27.116 8.935 2.212.237 4.513 1.404 6.372 2.703 3.495 2.44 3.139 6.483-.468 8.84-2.649 1.73-5.582 1.998-8.608 1.617-8.984-1.13-17.526-3.822-25.407-8.14-6.782-3.718-13.174-8.127-19.848-12.046-1.504-.882-3.49-1.448-5.22-1.378-6.671.269-13.326 1.084-19.998 1.244-4.605.111-9.228-.521-13.844-.82-.925-.06-1.85-.112-2.874-.174-.856 4.867-1.705 9.578-2.507 14.3-.453 2.676-.806 5.37-1.257 8.048-.097.576-.415 1.118-.652 1.667-.323.756-.936 1.497-.954 2.255-.08 3.34-2.954 5.992-6.363 5.736-2.931-.218-5.143-1.696-7.089-3.751-4.199-4.434-7.244-9.551-9.393-15.217-.27-.711-.604-1.398-.912-2.106-3.163 2.805-6.029 5.782-9.329 8.172-4.855 3.516-9.985 6.666-15.066 9.87-2.57 1.621-5.219 2.966-8.46 3.19-1.52.105-2.844 1.937-4.43 2.371-3.164.87-6.44 1.365-9.685 1.925-6.538 1.126-13.082 1.083-19.246-1.489-5.92-2.47-9.657-7.282-11.233-13.295-.841-3.206-.823-6.823-.35-10.136 1.064-7.434 3.104-14.61 9.216-20.788-2.51-.113-4.246-.283-5.977-.253-5.016.09-9.681-.783-13.621-4.17-4.013-3.447-4.276-6.934-.764-10.846 5.528-6.156 11.964-11.219 19.09-15.42 1.928-1.136 2.857-2.448 2.448-4.731-.235-1.317-.043-2.708-.043-4.313-4.469 2.55-8.562 4.78-12.549 7.184-6.373 3.843-12.66 7.827-19.021 11.689-1.49.903-1.78 1.82-1.476 3.613 1.464 8.647 2.609 17.346 3.958 26.014.75 4.825 1.679 9.622 2.529 14.432.013.075.056.145.075.22 1 4.104-.497 7.529-3.606 8.253-2.845.663-6.8-2.309-7.306-5.941-1.133-8.148-2.172-16.316-2.929-24.505-.413-4.475-.159-9.008-.24-13.515-.012-.67-.21-1.34-.374-2.311h.005zm144.933-9.307c-1.559 7.927-3.116 15.854-4.792 24.382 8.263-.267 16.071-.521 24.47-.794-6.674-8.292-14.665-14.5-19.678-23.59v.002z"/><path d="M202.708 8.169c4.256.027 8.365 4.315 8.387 8.747.017 3.638-3.45 7.072-7.064 7-4.224-.085-9.461-4.885-9.435-8.649.026-3.894 3.722-7.127 8.112-7.098z"/></g></svg>