<svg xmlns="http://www.w3.org/2000/svg" xml:space="preserve" viewBox="0 0 512 128"><path stroke="null" d="M44.592 9.85H16.068v19.256c0 4.36 3.554 7.914 7.914 7.914s7.914-3.555 7.914-7.914V25.72h12.696v84.516c0 4.359 3.555 7.914 7.914 7.914s7.914-3.555 7.914-7.914V25.678h12.696v3.386c0 4.359 3.555 7.914 7.915 7.914 4.359 0 7.914-3.555 7.914-7.914V9.85H44.592zm171.697 15.828c4.36 0 7.914-3.555 7.914-7.914s-3.555-7.914-7.914-7.914h-63.482v108.258h63.482c4.36 0 7.914-3.555 7.914-7.914s-3.555-7.914-7.914-7.914h-47.654V71.893h22.811c4.36 0 7.915-3.555 7.915-7.914 0-4.36-3.555-7.914-7.915-7.914h-22.81V25.678h47.653zm136.486 0c4.359 0 7.914-3.555 7.914-7.914s-3.555-7.914-7.914-7.914h-58.192c-4.359 0-7.914 3.555-7.914 7.914s3.555 7.914 7.914 7.914h21.203v76.602h-21.203c-4.359 0-7.914 3.554-7.914 7.914s3.555 7.914 7.914 7.914h58.192c4.359 0 7.914-3.555 7.914-7.914s-3.555-7.914-7.914-7.914h-21.203V25.678h21.203zm142.834 82.272-6.645-22.133v-.043l-21.033-70.253v-.042c-.043-.17-.127-.339-.17-.508-.042-.085-.042-.17-.084-.254-.043-.085-.085-.212-.127-.296a5.757 5.757 0 0 0-1.016-1.608s0-.043-.042-.043c-.127-.127-.212-.254-.339-.38a.743.743 0 0 1-.17-.212c-.084-.085-.168-.127-.253-.212-.127-.085-.212-.211-.339-.296l-.084-.085a6.999 6.999 0 0 0-1.524-.93c-.127-.043-.254-.128-.38-.17-.085-.042-.128-.042-.212-.085-.17-.084-.339-.127-.55-.211h-.043c-.042 0-.127-.043-.169-.043-.17-.042-.38-.084-.55-.127-.085 0-.212-.042-.296-.042-.17-.042-.297-.042-.466-.085-.127 0-.254 0-.38-.042h-1.186c-.17 0-.338.042-.508.085-.084 0-.169.042-.254.042-.211.042-.38.085-.592.127-.042 0-.127.042-.17.042h-.042c-.211.043-.38.127-.592.212-.043.042-.127.042-.17.085a1.976 1.976 0 0 0-.423.211c-.508.254-.973.55-1.439.889-.042.042-.084.042-.127.085-.127.084-.211.211-.338.296-.085.084-.17.17-.254.211-.042.043-.127.127-.17.212a2.738 2.738 0 0 0-.338.38l-.042.043c-.381.508-.72 1.058-1.016 1.65-.042.085-.085.212-.127.297-.042.085-.042.17-.085.254-.084.17-.127.339-.169.508v.042l-21.034 70.253v.085l-6.602 22.092c-1.27 4.19 1.143 8.59 5.333 9.86.762.212 1.523.339 2.285.339 3.428 0 6.56-2.2 7.576-5.629l4.909-16.42h30.387l4.909 16.42c1.016 3.428 4.19 5.629 7.575 5.629.762 0 1.524-.127 2.286-.339 4.147-1.27 6.517-5.67 5.29-9.86zm-35.296-27.72H449.86l10.453-34.83 10.453 34.83h-10.453z"/></svg>