<svg xmlns="http://www.w3.org/2000/svg" xml:space="preserve"  viewBox="0 0 512 128"><path stroke="null" d="M246.2306 24.7784h-97.9813v19.6212h19.5797v78.4016h19.6211V44.3996h19.5797v78.4016h39.2008v-19.6211H226.651V83.6004h19.5796V63.9792H226.651V44.3996h39.2008V24.7784zm19.6212 39.2008v58.822h19.5796V44.3996h-19.5796zm9.7483-39.2008h.083c5.3927 0 9.7483-4.3556 9.7483-9.7483v-.083c0-5.3927-4.3556-9.7483-9.7483-9.7483h-.083c-5.3927 0-9.7483 4.3556-9.7483 9.7483v.083c0 5.3927 4.3556 9.7483 9.7483 9.7483zm68.7363 0h-58.905v19.5797h19.5797v78.4017h19.5797V83.6003h19.5797v39.1594H363.75V44.3166c.083-10.7854-8.6698-19.5382-19.4137-19.5382zm-.1245 39.2009h-19.5796V44.3996h19.5796v19.5797z"/></svg>