<svg xmlns="http://www.w3.org/2000/svg" xml:space="preserve"  viewBox="0 0 512 128"><path stroke="null" d="M164.7912 16.3016c0-2.9157-2.355-5.2707-5.2707-5.2707h-24.4473v-.0748H88.4588v.0748H63.9743c-2.9157 0-5.2708 2.355-5.2708 5.2707v36.1102c0 2.9158 2.355 5.2708 5.2708 5.2708H87.3c.6355 0 1.1215.486 1.1215 1.1214v52.9692c0 2.9157 2.355 5.2707 5.2707 5.2707h36.1103c2.9157 0 5.2707-2.355 5.2707-5.2707V58.804c0-.6355.486-1.1214 1.1214-1.1214h23.3259c2.9157 0 5.2708-2.355 5.2708-5.2708V16.3016zm127.2455 95.4716V16.2268c0-2.9158 2.355-5.2708 5.2708-5.2708h36.1102c2.9158 0 5.2708 2.355 5.2708 5.2708v95.5463c0 2.9157-2.355 5.2707-5.2708 5.2707h-36.1102c-2.9157 0-5.2707-2.355-5.2707-5.2707zm-15.8496-54.0906h-95.5463c-2.9157 0-5.2707-2.355-5.2707-5.2708V16.3016c0-2.9157 2.355-5.2707 5.2707-5.2707h95.5463c2.9158 0 5.2708 2.355 5.2708 5.2707v36.1102c0 2.9158-2.355 5.2708-5.2708 5.2708zm0 59.3239h-95.5463c-2.9157 0-5.2707-2.355-5.2707-5.2707V75.6255c0-2.9157 2.355-5.2707 5.2707-5.2707h95.5463c2.9158 0 5.2708 2.355 5.2708 5.2707v36.1103c0 2.9157-2.355 5.2707-5.2708 5.2707zM399.059 13.8718l-51.1374 100.7797c-.5607 1.084.2243 2.3924 1.4579 2.3924h102.2749c1.2336 0 2.0186-1.3083 1.4578-2.3924L401.9749 13.8718c-.5981-1.1962-2.3176-1.1962-2.9157 0z"/></svg>