<svg xmlns="http://www.w3.org/2000/svg" xml:space="preserve" fill="currentColor"  viewBox="0 0 512 128"><path d="M4 9.215h113.54v48.74H91.66v-23.05H75.04v58.19h42.51v25.69H4v-25.69h42.69v-58.19H29.88v23.05H4V9.215zm168.88 25.69-10.01 10.2v5.29h42.51v27.2h-42.51v15.49h84.82v25.69H134.16v-74.04l35.33-35.52h78.21v25.69h-74.82zm204.97-25.69v25.69h-42.32v58.19h42.32v25.69H264.31v-25.69h42.51v-58.19h-42.51V9.215h113.54zm51.94 0h42.88L508 44.735v74.05h-28.71v-42.32h-39.48v-26.07h39.48v-5.29l-10.2-10.2h-35.7l-10.2 10.2v73.68h-28.72v-74.05l35.32-35.52z"/></svg>