<svg xmlns="http://www.w3.org/2000/svg" xml:space="preserve" viewBox="0 0 512 128"><path stroke="null" d="M131.96 114.562V28.269c0-3.503 1.885-5.396 5.396-5.396h14.83c3.503 0 5.396 1.885 5.396 5.396v2.563h21.442c1.215 0 2.02.813 2.02 2.02v4.047c0 1.215-.814 2.019-2.02 2.019h-21.45v70.248c0 1.751.947 2.698 2.698 2.698h2.698c1.751 0 2.698-.947 2.698-2.698V80.443c0-3.502 1.885-5.396 5.396-5.396h14.83c3.503 0 5.396 1.886 5.396 5.396v34.11c0 3.503-1.885 5.397-5.396 5.397h-48.546c-3.503 0-5.388-1.886-5.388-5.388zm68.757 0V36.354c0-3.502 1.885-5.396 5.396-5.396h53.934c3.502 0 5.396 1.885 5.396 5.396V69.66c0 3.502-1.885 5.396-5.396 5.396h-33.708v39.506c0 3.502-1.885 5.396-5.396 5.396h-14.83c-3.511-.008-5.396-1.894-5.396-5.396zm39.104-47.6V41.75c0-1.751-.947-2.698-2.698-2.698h-8.086c-1.751 0-2.698.947-2.698 2.698v25.212h13.482zm0 47.6v-23.46c0-3.503 1.885-5.397 5.395-5.397h14.831c3.502 0 5.396 1.886 5.396 5.396v23.461c0 3.502-1.885 5.396-5.396 5.396h-14.83c-3.511-.008-5.396-1.894-5.396-5.396zm43.142-106.52h14.83c3.503 0 5.397 1.885 5.397 5.396v4.047c0 3.502-1.886 5.396-5.396 5.396h-14.831c-3.502 0-5.396-1.885-5.396-5.396v-4.047c0-3.51 1.885-5.396 5.396-5.396zm0 22.925h14.83c3.503 0 5.397 1.885 5.397 5.395v78.2c0 3.502-1.886 5.396-5.396 5.396h-14.831c-3.502 0-5.396-1.885-5.396-5.396V36.354c0-3.502 1.885-5.387 5.396-5.387zm32.359 83.595V80.443c0-3.502 1.885-5.396 5.396-5.396h33.708V41.75c0-1.751-.947-2.698-2.698-2.698h-5.396c-1.751 0-2.698.947-2.698 2.698v14.428c0 3.503-1.885 5.396-5.396 5.396h-14.83c-3.503 0-5.396-1.885-5.396-5.396V36.354c0-3.502 1.885-5.396 5.396-5.396h51.236c3.502 0 5.396 1.885 5.396 5.396v78.2c0 3.502-1.885 5.396-5.396 5.396h-14.83c-3.503 0-5.396-1.886-5.396-5.396V83.14h-10.784c-1.751 0-2.698.947-2.698 2.698v28.723c0 3.502-1.885 5.396-5.396 5.396h-14.83c-3.503-.008-5.388-1.894-5.388-5.396z"/></svg>