<svg xmlns="http://www.w3.org/2000/svg" xml:space="preserve"  viewBox="0 0 512 128"><path stroke="null" d="M148.1698 8.5686H59.5433c-6.0676 0-11 4.9324-11 11 0 6.1068 4.9324 11.0392 11.0391 11.0392h88.6265c6.1068 0 11.0392-4.9324 11.0392-11.0392-.0392-6.0676-4.9716-11-11.0783-11zm128.2813 0h-88.6265c-6.1067 0-11.0391 4.9324-11.0391 11.0392 0 6.1067 4.9324 11.0391 11.0391 11.0391h88.6265c6.1068 0 11.0392-4.9324 11.0392-11.0391 0-6.1068-4.9324-11.0392-11.0392-11.0392zm0 44.0784h-88.6265c-6.1067 0-11.0391 4.9324-11.0391 11.0391 0 6.1068 4.9324 11.0392 11.0391 11.0392h88.6265c6.1068 0 11.0392-4.9324 11.0392-11.0392 0-6.1068-4.9324-11.0391-11.0392-11.0391zm77.5874 55.8221v-89.331c0-6.1069-4.9324-10.6478-11.0392-10.6478-6.1068 0-11.0392 4.541-11.0392 10.6477v89.292c0 6.1068 4.9324 11.0391 11.0392 11.0391 6.1068 0 11.0392-4.9323 11.0392-11zm62.9075 4.7367 45.2528-88.3133c2.7793-5.4022.822-12.3702-4.5801-15.1495-5.4021-2.936-12.2527-.3523-15.032 5.089l-45.2528 88.3133c-2.7794 5.4021-.6263 12.4484 4.7758 15.2278 5.4413 2.7793 12.057.2348 14.8363-5.1673z"/></svg>