<svg width="16" height="16" viewBox="0 0 16 16" fill="none" xmlns="http://www.w3.org/2000/svg">
    <path fill-rule="evenodd" clip-rule="evenodd"
        d="M0.398438 1.99844C0.398438 1.11478 1.11478 0.398438 1.99844 0.398438H13.9984C14.8821 0.398438 15.5984 1.11478 15.5984 1.99844V13.9984C15.5984 14.8821 14.8821 15.5984 13.9984 15.5984H1.99844C1.11478 15.5984 0.398438 14.8821 0.398438 13.9984V1.99844ZM1.99844 1.59844C1.77752 1.59844 1.59844 1.77752 1.59844 1.99844V13.9984C1.59844 14.2194 1.77752 14.3984 1.99844 14.3984H13.9984C14.2194 14.3984 14.3984 14.2194 14.3984 13.9984V1.99844C14.3984 1.77752 14.2194 1.59844 13.9984 1.59844H1.99844Z"
        fill="current" />
</svg>