<svg xmlns="http://www.w3.org/2000/svg" xml:space="preserve"  viewBox="0 0 512 128"><path stroke="null" d="M224.8418 33.1511h-13.7144c-19.592 0-35.5063 15.9143-35.5063 35.5063v39.2184c0 2.681 2.1655 4.8465 4.8465 4.8465s4.8464-2.1655 4.8464-4.8465V68.6574c0-14.23 11.5834-25.8477 25.8477-25.8477h13.7145c2.681 0 4.8464-2.1655 4.8464-4.8465s-2.2342-4.812-4.8808-4.812zm0-17.8734h-88.6454c-2.681 0-4.8464 2.1655-4.8464 4.8465s2.1654 4.8464 4.8464 4.8464h88.6454c2.681 0 4.8464-2.1654 4.8464-4.8464s-2.1998-4.8465-4.8464-4.8465zm65.3412 0h-43.3431c-2.681 0-4.8465 2.1655-4.8465 4.8465s2.1655 4.8464 4.8465 4.8464h43.343c2.681 0 4.8465-2.1654 4.8465-4.8464s-2.1998-4.8465-4.8465-4.8465zm-13.8863 27.532h13.8519c2.681 0 4.8464-2.1655 4.8464-4.8465s-2.1654-4.812-4.812-4.812h-13.852c-18.9046 0-34.3032 15.3986-34.3032 34.3032v40.4214c0 2.681 2.1654 4.8465 4.8464 4.8465h43.3431c2.681 0 4.8465-2.1654 4.8465-4.8465s-2.1655-4.8464-4.8465-4.8464h-38.4966v-35.575c-.0344-13.577 10.999-24.6447 24.576-24.6447zm34.8532-27.532c-2.681 0-4.8465 2.1655-4.8465 4.8465v87.7516c0 2.681 2.1654 4.8465 4.8464 4.8465s4.8465-2.1655 4.8465-4.8465V20.1242c0-2.681-2.1654-4.8465-4.8464-4.8465zm66.2004 20.8982c-.0687-.1719-.1375-.3437-.2406-.5156-5.7401-12.0302-18.0453-20.3826-32.2753-20.3826H331.12c-2.681 0-4.8465 2.1654-4.8465 4.8465v87.7516c0 2.681 2.1655 4.8465 4.8465 4.8465s4.8464-2.1655 4.8464-4.8465V24.9362h8.9024c7.4587 0 14.1956 3.1623 18.9733 8.1806h-14.9174c-2.681 0-4.8465 2.1654-4.8465 4.8464s2.1655 4.8465 4.8465 4.8465h20.692a26.0956 26.0956 0 0 1 1.3404 8.2492v56.817c0 2.681 2.1655 4.8464 4.8465 4.8464s4.8464-2.1655 4.8464-4.8465V51.059c-.0343-5.3276-1.203-10.346-3.2997-14.883z"/></svg>