<svg xmlns="http://www.w3.org/2000/svg" xml:space="preserve" viewBox="0 0 512 128"><path stroke="null" d="M188.2668 10.3093h-81.7132c-1.4168 0-2.5835-1.1667-2.5835-2.5835v-.2083c0-1.4168 1.1667-2.5835 2.5835-2.5835h81.7132c1.4167 0 2.5835 1.1667 2.5835 2.5835v.1666c.0416 1.4585-1.125 2.6252-2.5835 2.6252zm0 8.0421h-81.7132c-1.4168 0-2.5835-1.1667-2.5835-2.5835v-.1666c0-1.4168 1.1667-2.5835 2.5835-2.5835h81.7132c1.4167 0 2.5835 1.1667 2.5835 2.5835v.1666c.0416 1.4168-1.125 2.5835-2.5835 2.5835zm0 8.0422h-81.7132c-1.4168 0-2.5835-1.1668-2.5835-2.5835v-.1667c0-1.4167 1.1667-2.5835 2.5835-2.5835h81.7132c1.4167 0 2.5835 1.1668 2.5835 2.5835v.1667c.0416 1.4167-1.125 2.5835-2.5835 2.5835zm110.6316-16.0843h-23.543c-1.4168 0-2.5836-1.1667-2.5836-2.5835v-.2083c0-1.4168 1.1668-2.5835 2.5835-2.5835h23.5431c1.4167 0 2.5835 1.1667 2.5835 2.5835v.1666c0 1.4585-1.1668 2.6252-2.5835 2.6252zm0 8.0421h-23.543c-1.4168 0-2.5836-1.1667-2.5836-2.5835v-.1666c0-1.4168 1.1668-2.5835 2.5835-2.5835h23.5431c1.4167 0 2.5835 1.1667 2.5835 2.5835v.1666c0 1.4168-1.1668 2.5835-2.5835 2.5835zm0 8.0422h-23.543c-1.4168 0-2.5836-1.1668-2.5836-2.5835v-.1667c0-1.4167 1.1668-2.5835 2.5835-2.5835h23.5431c1.4167 0 2.5835 1.1668 2.5835 2.5835v.1667c0 1.4167-1.1668 2.5835-2.5835 2.5835zm0 16.1259h-30.7102c-1.4167 0-2.5835-1.1667-2.5835-2.5835v-.1666c0-1.4168 1.1668-2.5835 2.5835-2.5835h30.7102c1.4167 0 2.5835 1.1667 2.5835 2.5835v.1667c0 1.4167-1.1668 2.5834-2.5835 2.5834zm97.1308 0h-23.3764c-1.4167 0-2.5835-1.1667-2.5835-2.5835v-.1666c0-1.4168 1.1668-2.5835 2.5835-2.5835h23.3764c1.4168 0 2.5835 1.1667 2.5835 2.5835v.1667c.0417 1.4167-1.125 2.5834-2.5835 2.5834zm0 8.0422h-65.1706c-1.4167 0-2.5834-1.1668-2.5834-2.5835v-.1667c0-1.4167 1.1667-2.5835 2.5835-2.5835h65.1705c1.4168 0 2.5835 1.1668 2.5835 2.5835v.1667c.0417 1.4167-1.125 2.5835-2.5835 2.5835zm0 8.0421h-69.0041c-1.4168 0-2.5835-1.1667-2.5835-2.5835v-.1666c0-1.4168 1.1667-2.5835 2.5835-2.5835h69.0041c1.4168 0 2.5835 1.1667 2.5835 2.5835v.1666c.0417 1.4168-1.125 2.5835-2.5835 2.5835zm0 8.0839h-23.3764c-1.4167 0-2.5835-1.1668-2.5835-2.5835v-.1667c0-1.4168 1.1668-2.5835 2.5835-2.5835h23.3764c1.4168 0 2.5835 1.1667 2.5835 2.5835v.1667c.0417 1.4167-1.125 2.5835-2.5835 2.5835zm0 8.0421h-23.3764c-1.4167 0-2.5835-1.1667-2.5835-2.5835v-.1667c0-1.4167 1.1668-2.5835 2.5835-2.5835h23.3764c1.4168 0 2.5835 1.1668 2.5835 2.5835v.1667c.0417 1.4168-1.125 2.5835-2.5835 2.5835zm0 8.0422h-23.3764c-1.4167 0-2.5835-1.1668-2.5835-2.5835v-.1667c0-1.4168 1.1668-2.5835 2.5835-2.5835h23.3764c1.4168 0 2.5835 1.1667 2.5835 2.5835v.1667c.0417 1.4167-1.125 2.5835-2.5835 2.5835zm0 8.0838h-23.3764c-1.4167 0-2.5835-1.1668-2.5835-2.5835v-.1667c0-1.4167 1.1668-2.5835 2.5835-2.5835h23.3764c1.4168 0 2.5835 1.1668 2.5835 2.5835v.1667c.0417 1.4167-1.125 2.5835-2.5835 2.5835zm0 8.0422h-23.3764c-1.4167 0-2.5835-1.1668-2.5835-2.5836v-.1667c0-1.4167 1.1668-2.5835 2.5835-2.5835h23.3764c1.4168 0 2.5835 1.1668 2.5835 2.5835v.1667c.0417 1.4168-1.125 2.5835-2.5835 2.5835zm9.4172 8.042h-32.7936c-1.4167 0-2.5835-1.1667-2.5835-2.5834v-.1667c0-1.4168 1.1668-2.5835 2.5835-2.5835h32.7936c1.4168 0 2.5835 1.1667 2.5835 2.5835v.1667c0 1.4167-1.1667 2.5835-2.5835 2.5835zm0 8.0422h-32.7936c-1.4167 0-2.5835-1.1667-2.5835-2.5835v-.1667c0-1.4167 1.1668-2.5835 2.5835-2.5835h32.7936c1.4168 0 2.5835 1.1668 2.5835 2.5835v.1667c0 1.4168-1.1667 2.5835-2.5835 2.5835zm0 8.0838h-32.7936c-1.4167 0-2.5835-1.1667-2.5835-2.5835v-.1667c0-1.4167 1.1668-2.5834 2.5835-2.5834h32.7936c1.4168 0 2.5835 1.1667 2.5835 2.5835v.1666c0 1.4168-1.1667 2.5835-2.5835 2.5835zm-57.0867-56.3783h-23.3764c-1.4168 0-2.5835-1.1668-2.5835-2.5835v-.1667c0-1.4168 1.1667-2.5835 2.5835-2.5835h23.3764c1.4167 0 2.5835 1.1667 2.5835 2.5835v.1667c0 1.4167-1.1668 2.5835-2.5835 2.5835zm-1.5001 8.0421h-23.3764c-1.4167 0-2.5835-1.1667-2.5835-2.5835v-.1667c0-1.4167 1.1668-2.5835 2.5835-2.5835h23.3764c1.4167 0 2.5835 1.1668 2.5835 2.5835v.1667c0 1.4168-1.1668 2.5835-2.5835 2.5835zm-.4584 8.0422h-24.0014c-1.4167 0-2.5835-1.1668-2.5835-2.5835v-.1667c0-1.4168 1.1668-2.5835 2.5835-2.5835h24.0014c1.4168 0 2.5835 1.1667 2.5835 2.5835v.1667c.0417 1.4167-1.125 2.5835-2.5835 2.5835zm-1.0834 8.0838h-24.0014c-1.4167 0-2.5835-1.1668-2.5835-2.5835v-.1667c0-1.4167 1.1668-2.5835 2.5835-2.5835h24.0014c1.4168 0 2.5835 1.1668 2.5835 2.5835v.1667c0 1.4167-1.1667 2.5835-2.5835 2.5835zm-.4167 8.0422h-24.0014c-1.4167 0-2.5835-1.1668-2.5835-2.5836v-.1667c0-1.4167 1.1668-2.5835 2.5835-2.5835h24.0015c1.4167 0 2.5834 1.1668 2.5834 2.5835v.1667c0 1.4168-1.1667 2.5835-2.5834 2.5835zm15.0843 8.042h-39.0857c-1.4167 0-2.5835-1.1667-2.5835-2.5834v-.1667c0-1.4168 1.1668-2.5835 2.5835-2.5835h39.0857c1.4167 0 2.5835 1.1667 2.5835 2.5835v.1667c0 1.4167-1.1668 2.5835-2.5835 2.5835zm0 8.0422h-36.9606c-1.4167 0-2.5834-1.1667-2.5834-2.5835v-.1667c0-1.4167 1.1667-2.5835 2.5835-2.5835h36.9605c1.4167 0 2.5835 1.1668 2.5835 2.5835v.1667c0 1.4168-1.1668 2.5835-2.5835 2.5835zm0 8.0838h-31.1269c-1.4167 0-2.5835-1.1667-2.5835-2.5835v-.1667c0-1.4167 1.1668-2.5834 2.5835-2.5834h31.1269c1.4167 0 2.5835 1.1667 2.5835 2.5835v.1666c0 1.4168-1.1668 2.5835-2.5835 2.5835zm1.6251-80.5465h-25.1682c-1.4167 0-2.5835-1.1667-2.5835-2.5835v-.1666c0-1.4168 1.1668-2.5835 2.5835-2.5835h25.1682c1.4167 0 2.5835 1.1667 2.5835 2.5835v.1667c0 1.4167-1.1668 2.5834-2.5835 2.5834zm-62.7121 8.0422h-30.7102c-1.4167 0-2.5835-1.1668-2.5835-2.5835v-.1667c0-1.4167 1.1668-2.5835 2.5835-2.5835h30.7102c1.4167 0 2.5835 1.1668 2.5835 2.5835v.1667c0 1.4167-1.1668 2.5835-2.5835 2.5835zm0 8.0421h-30.7102c-1.4167 0-2.5835-1.1667-2.5835-2.5835v-.1666c0-1.4168 1.1668-2.5835 2.5835-2.5835h30.7102c1.4167 0 2.5835 1.1667 2.5835 2.5835v.1666c0 1.4168-1.1668 2.5835-2.5835 2.5835zm0 8.0839h-23.543c-1.4168 0-2.5836-1.1668-2.5836-2.5835v-.1667c0-1.4168 1.1668-2.5835 2.5835-2.5835h23.5431c1.4167 0 2.5835 1.1667 2.5835 2.5835v.1667c0 1.4167-1.1668 2.5835-2.5835 2.5835zm0 8.0421h-23.543c-1.4168 0-2.5836-1.1667-2.5836-2.5835v-.1667c0-1.4167 1.1668-2.5835 2.5835-2.5835h23.5431c1.4167 0 2.5835 1.1668 2.5835 2.5835v.1667c0 1.4168-1.1668 2.5835-2.5835 2.5835zm0 8.0422h-23.543c-1.4168 0-2.5836-1.1668-2.5836-2.5835v-.1667c0-1.4168 1.1668-2.5835 2.5835-2.5835h23.5431c1.4167 0 2.5835 1.1667 2.5835 2.5835v.1667c0 1.4167-1.1668 2.5835-2.5835 2.5835zm0 8.0838h-23.543c-1.4168 0-2.5836-1.1668-2.5836-2.5835v-.1667c0-1.4167 1.1668-2.5835 2.5835-2.5835h23.5431c1.4167 0 2.5835 1.1668 2.5835 2.5835v.1667c0 1.4167-1.1668 2.5835-2.5835 2.5835zm0 8.0422h-23.543c-1.4168 0-2.5836-1.1668-2.5836-2.5836v-.1667c0-1.4167 1.1668-2.5835 2.5835-2.5835h23.5431c1.4167 0 2.5835 1.1668 2.5835 2.5835v.1667c0 1.4168-1.1668 2.5835-2.5835 2.5835zm7.5838 8.042H275.397c-1.4167 0-2.5835-1.1667-2.5835-2.5834v-.1667c0-1.4168 1.1668-2.5835 2.5835-2.5835h31.0852c1.4167 0 2.5835 1.1667 2.5835 2.5835v.1667c0 1.4167-1.1668 2.5835-2.5835 2.5835zm0 8.0422h-28.6684c-1.4167 0-2.5835-1.1667-2.5835-2.5835v-.1667c0-1.4167 1.1668-2.5835 2.5835-2.5835h28.6684c1.4167 0 2.5835 1.1668 2.5835 2.5835v.1667c0 1.4168-1.1668 2.5835-2.5835 2.5835zm0 8.0838H281.189c-1.4167 0-2.5835-1.1667-2.5835-2.5835v-.1667c0-1.4167 1.1668-2.5834 2.5835-2.5834h25.2932c1.4167 0 2.5835 1.1667 2.5835 2.5835v.1666c0 1.4168-1.1668 2.5835-2.5835 2.5835zm-145.467-88.5886h-27.2517c-1.4167 0-2.5835-1.1667-2.5835-2.5835v-.1667c0-1.4167 1.1668-2.5835 2.5835-2.5835h27.2517c1.4167 0 2.5835 1.1668 2.5835 2.5835v.1667c.0416 1.4168-1.1251 2.5835-2.5835 2.5835zm0 8.0421h-27.2517c-1.4167 0-2.5835-1.1667-2.5835-2.5835v-.1666c0-1.4168 1.1668-2.5835 2.5835-2.5835h27.2517c1.4167 0 2.5835 1.1667 2.5835 2.5835v.1667c.0416 1.4167-1.1251 2.5834-2.5835 2.5834zm0 8.0422h-27.2517c-1.4167 0-2.5835-1.1668-2.5835-2.5835v-.1667c0-1.4167 1.1668-2.5835 2.5835-2.5835h27.2517c1.4167 0 2.5835 1.1668 2.5835 2.5835v.1667c.0416 1.4167-1.1251 2.5835-2.5835 2.5835zm0 8.0421h-27.2517c-1.4167 0-2.5835-1.1667-2.5835-2.5835v-.1666c0-1.4168 1.1668-2.5835 2.5835-2.5835h27.2517c1.4167 0 2.5835 1.1667 2.5835 2.5835v.1666c.0416 1.4168-1.1251 2.5835-2.5835 2.5835zm0 8.0839h-27.2517c-1.4167 0-2.5835-1.1668-2.5835-2.5835v-.1667c0-1.4168 1.1668-2.5835 2.5835-2.5835h27.2517c1.4167 0 2.5835 1.1667 2.5835 2.5835v.1667c.0416 1.4167-1.1251 2.5835-2.5835 2.5835zm0 8.0421h-27.2517c-1.4167 0-2.5835-1.1667-2.5835-2.5835v-.1667c0-1.4167 1.1668-2.5835 2.5835-2.5835h27.2517c1.4167 0 2.5835 1.1668 2.5835 2.5835v.1667c.0416 1.4168-1.1251 2.5835-2.5835 2.5835zm0 8.0422h-27.2517c-1.4167 0-2.5835-1.1668-2.5835-2.5835v-.1667c0-1.4168 1.1668-2.5835 2.5835-2.5835h27.2517c1.4167 0 2.5835 1.1667 2.5835 2.5835v.1667c.0416 1.4167-1.1251 2.5835-2.5835 2.5835zm0 8.0838h-27.2517c-1.4167 0-2.5835-1.1668-2.5835-2.5835v-.1667c0-1.4167 1.1668-2.5835 2.5835-2.5835h27.2517c1.4167 0 2.5835 1.1668 2.5835 2.5835v.1667c.0416 1.4167-1.1251 2.5835-2.5835 2.5835zm0 8.0422h-27.2517c-1.4167 0-2.5835-1.1668-2.5835-2.5836v-.1667c0-1.4167 1.1668-2.5835 2.5835-2.5835h27.2517c1.4167 0 2.5835 1.1668 2.5835 2.5835v.1667c.0416 1.4168-1.1251 2.5835-2.5835 2.5835zm10.5423 8.042h-37.0023c-1.4167 0-2.5834-1.1667-2.5834-2.5834v-.1667c0-1.4168 1.1667-2.5835 2.5834-2.5835h37.0023c1.4167 0 2.5834 1.1667 2.5834 2.5835v.1667c.0417 1.4167-1.125 2.5835-2.5834 2.5835zm0 8.0422h-35.5438c-1.4168 0-2.5835-1.1667-2.5835-2.5835v-.1667c0-1.4167 1.1667-2.5835 2.5835-2.5835h35.5438c1.4167 0 2.5834 1.1668 2.5834 2.5835v.1667c.0417 1.4168-1.125 2.5835-2.5834 2.5835zm0 8.0838h-31.2936c-1.4167 0-2.5835-1.1667-2.5835-2.5835v-.1667c0-1.4167 1.1668-2.5834 2.5835-2.5834h31.2936c1.4167 0 2.5834 1.1667 2.5834 2.5835v.1666c.0417 1.4168-1.125 2.5835-2.5834 2.5835zm76.3379-80.5465h-49.0446c-1.1251 0-2.0418-.9167-2.0418-2.0418v-1.3334c0-1.125.9167-2.0418 2.0418-2.0418h49.0446c1.125 0 2.0417.9168 2.0417 2.0418v1.3334c0 1.1251-.9167 2.0418-2.0417 2.0418zm5.8753 8.0422h-62.587c-1.1251 0-2.0418-.9167-2.0418-2.0418v-1.3334c0-1.125.9167-2.0418 2.0417-2.0418h62.5871c1.125 0 2.0418.9167 2.0418 2.0418v1.3334c-.0417 1.125-.9167 2.0418-2.0418 2.0418zm0 8.0421h-66.2123c-1.125 0-2.0418-.9167-2.0418-2.0418v-1.3334c0-1.125.9168-2.0418 2.0418-2.0418h66.2123c1.125 0 2.0418.9168 2.0418 2.0418v1.3334c-.0417 1.1668-.9167 2.0418-2.0418 2.0418zm-41.8775 8.0839h-26.335c-1.125 0-2.0417-.9168-2.0417-2.0418v-1.3334c0-1.1251.9167-2.0418 2.0418-2.0418h26.3349c1.125 0 2.0418.9167 2.0418 2.0418v1.3334c0 1.125-.9167 2.0418-2.0418 2.0418zm40.5024-.6251h-19.6261c-1.1251 0-2.0418-.9167-2.0418-2.0418v-.125c0-1.125.9167-2.0418 2.0418-2.0418h19.6261c1.125 0 2.0418.9167 2.0418 2.0418v.125c0 1.1668-.9167 2.0418-2.0418 2.0418zm-42.3776 8.6672h-24.4597c-1.125 0-2.0418-.9167-2.0418-2.0418v-1.3334c0-1.125.9167-2.0418 2.0418-2.0418h24.4598c1.125 0 2.0418.9167 2.0418 2.0418v1.3334c0 1.125-.9167 2.0418-2.0418 2.0418zm40.0442 0h-18.7928c-1.1251 0-2.0418-.9167-2.0418-2.0418v-1.3334c0-1.125.9167-2.0418 2.0418-2.0418h18.7928c1.125 0 2.0417.9167 2.0417 2.0418v1.3334c0 1.125-.9167 2.0418-2.0418 2.0418zM210.018 82.772h-24.4597c-1.125 0-2.0418-.9168-2.0418-2.0418v-1.3334c0-1.1251.9167-2.0418 2.0418-2.0418h24.4598c1.125 0 2.0418.9167 2.0418 2.0417v1.3335c0 1.1667-.9167 2.0418-2.0418 2.0418zm36.1273 0h-26.2516c-1.125 0-2.0418-.9168-2.0418-2.0418v-1.3334c0-1.1251.9167-2.0418 2.0418-2.0418h26.2516c1.125 0 2.0417.9167 2.0417 2.0417v1.3335c0 1.1667-.9167 2.0418-2.0417 2.0418zm-5.5837 8.0838h-55.0033c-1.125 0-2.0418-.9167-2.0418-2.0418v-1.3334c0-1.1251.9167-2.0418 2.0418-2.0418h55.0033c1.125 0 2.0418.9167 2.0418 2.0418v1.3334c0 1.125-.9168 2.0418-2.0418 2.0418zm-29.5435 8.0422h-25.4598c-1.125 0-2.0418-.9168-2.0418-2.0419v-1.3334c0-1.125.9167-2.0418 2.0418-2.0418h25.4598c1.1251 0 2.0418.9167 2.0418 2.0418v1.3334c0 1.125-.9167 2.0418-2.0418 2.0418zm37.0023 8.042h-60.087c-1.125 0-2.0417-.9167-2.0417-2.0417v-1.3334c0-1.1251.9167-2.0418 2.0417-2.0418h60.087c1.125 0 2.0418.9167 2.0418 2.0418v1.3334c-.0417 1.125-.9168 2.0418-2.0418 2.0418zm0 8.0422h-56.8368c-1.125 0-2.0418-.9167-2.0418-2.0418v-1.3334c0-1.125.9168-2.0418 2.0418-2.0418h56.8368c1.125 0 2.0417.9167 2.0417 2.0418v1.3334c-.0416 1.1668-.9167 2.0418-2.0417 2.0418zm0 8.0838h-49.128c-1.125 0-2.0418-.9167-2.0418-2.0418v-1.3334c0-1.125.9168-2.0418 2.0418-2.0418h49.128c1.125 0 2.0418.9167 2.0418 2.0418v1.3334c-.0417 1.1251-.9168 2.0418-2.0418 2.0418z"/></svg>