<svg xmlns="http://www.w3.org/2000/svg" xml:space="preserve"  viewBox="0 0 512 128"><g stroke="null"><path d="M301.113 11.5507h-90.2643c-.5378 0-.9987-.461-.9987-.9987s.461-.9986 1.037-.9986h90.2643c.5378 0 .9987.4609.9987.9986s-.461.9987-1.037.9987zm-25.274 16.9006h-39.5627c-.5377 0-.9987-.461-.9987-.9987 0-.5378.461-.9987.9987-.9987h39.601c.5378 0 .9987.461.9987.9987 0 .5377-.461.9987-1.037.9987zm0 16.8237h-39.5627c-.5377 0-.9987-.461-.9987-.9987 0-.5377.461-.9987.9987-.9987h39.601c.5378 0 .9987.461.9987.9987 0 .5377-.461.9987-1.037.9987zm0 16.8237h-39.5627c-.5377 0-.9987-.461-.9987-.9987 0-.5377.461-.9987.9987-.9987h39.601c.5378 0 .9987.461.9987.9987 0 .5378-.461.9987-1.037.9987zm-1.4212 37.9878h-36.7203c-.5378 0-.9987-.461-.9987-.9987s.461-.9987.9987-.9987h36.7203c.5377 0 .9986.461.9986.9987s-.4225.9987-.9986.9987z"/><path d="M256.0576 100.0865c-.5377 0-.9986-.461-.9986-.9987v-88.459c0-.5377.4609-.9986.9986-.9986s.9987.4609.9987.9986v88.459c0 .5762-.4225.9987-.9987.9987z"/><path d="M290.0123 118.4466c-.2688 0-.5761-.1152-.7682-.3457l-33.9547-39.9467c-.3457-.4225-.3073-1.037.1152-1.4212.4225-.3457 1.0371-.3073 1.4212.1153l33.9547 39.9467c.3457.4225.3073 1.037-.1152 1.4212a1.043 1.043 0 0 1-.653.2304z"/><path d="M222.1413 118.4466a1.043 1.043 0 0 1-.653-.2304c-.4225-.3457-.4609-.9987-.1152-1.4212l33.9547-39.9467c.3457-.4225.9987-.461 1.4212-.1153s.461.9987.1152 1.4212l-33.9547 39.9467c-.2304.2305-.4993.3457-.7682.3457z"/></g></svg>