<svg width="13" height="10" viewBox="0 0 13 10" fill="none" xmlns="http://www.w3.org/2000/svg">
    <path d="M0 7.04688H3.86398V8.63793H0V7.04688Z" fill="current" />
    <path d="M6.36719 7.04688H12.9587V8.63793H6.36719V7.04688Z" fill="current" />
    <path d="M0 1.58984H7.72797V3.1809H0V1.58984Z" fill="current" />
    <path d="M10.2266 1.58984H12.9541V3.1809H10.2266V1.58984Z" fill="current" />
    <path fill-rule="evenodd" clip-rule="evenodd"
        d="M8.89391 3.32348C9.45476 3.32348 9.90941 2.86882 9.90941 2.30797C9.90941 1.74712 9.45476 1.29246 8.89391 1.29246C8.33306 1.29246 7.8784 1.74712 7.8784 2.30797C7.8784 2.86882 8.33306 3.32348 8.89391 3.32348ZM8.89391 4.61594C10.1686 4.61594 11.2019 3.58263 11.2019 2.30797C11.2019 1.03331 10.1686 0 8.89391 0C7.61925 0 6.58594 1.03331 6.58594 2.30797C6.58594 3.58263 7.61925 4.61594 8.89391 4.61594Z"
        fill="current" />
    <path fill-rule="evenodd" clip-rule="evenodd"
        d="M4.93297 8.70629C5.49382 8.70629 5.94848 8.25163 5.94848 7.69078C5.94848 7.12993 5.49382 6.67528 4.93297 6.67528C4.37212 6.67528 3.91746 7.12993 3.91746 7.69078C3.91746 8.25163 4.37212 8.70629 4.93297 8.70629ZM4.93297 9.99875C6.20763 9.99875 7.24094 8.96544 7.24094 7.69078C7.24094 6.41613 6.20763 5.38281 4.93297 5.38281C3.65831 5.38281 2.625 6.41613 2.625 7.69078C2.625 8.96544 3.65831 9.99875 4.93297 9.99875Z"
        fill="current" />
</svg>