<svg width="16" height="16" viewBox="0 0 16 16" fill="none" xmlns="http://www.w3.org/2000/svg">
    <path fill-rule="evenodd" clip-rule="evenodd"
        d="M1.99844 0.398438C1.11478 0.398438 0.398438 1.11478 0.398438 1.99844V6.99844C0.398438 7.88209 1.11478 8.59844 1.99844 8.59844H7.99844C8.88209 8.59844 9.59844 7.88209 9.59844 6.99844V1.99844C9.59844 1.11478 8.88209 0.398438 7.99844 0.398438H1.99844ZM1.59844 1.99844C1.59844 1.77752 1.77752 1.59844 1.99844 1.59844H7.99844C8.21935 1.59844 8.39844 1.77752 8.39844 1.99844V6.99844C8.39844 7.21935 8.21935 7.39844 7.99844 7.39844H1.99844C1.77752 7.39844 1.59844 7.21935 1.59844 6.99844V1.99844ZM12.9984 0.398438C12.1148 0.398438 11.3984 1.11478 11.3984 1.99844V6.99844C11.3984 7.88209 12.1148 8.59844 12.9984 8.59844H13.9984C14.8821 8.59844 15.5984 7.88209 15.5984 6.99844V1.99844C15.5984 1.11478 14.8821 0.398438 13.9984 0.398438H12.9984ZM12.5984 1.99844C12.5984 1.77752 12.7775 1.59844 12.9984 1.59844H13.9984C14.2194 1.59844 14.3984 1.77752 14.3984 1.99844V6.99844C14.3984 7.21935 14.2194 7.39844 13.9984 7.39844H12.9984C12.7775 7.39844 12.5984 7.21935 12.5984 6.99844V1.99844ZM0.398438 11.9984C0.398438 11.1148 1.11478 10.3984 1.99844 10.3984H3.99844C4.88209 10.3984 5.59844 11.1148 5.59844 11.9984V13.9984C5.59844 14.8821 4.88209 15.5984 3.99844 15.5984H1.99844C1.11478 15.5984 0.398438 14.8821 0.398438 13.9984V11.9984ZM1.99844 11.5984C1.77752 11.5984 1.59844 11.7775 1.59844 11.9984V13.9984C1.59844 14.2194 1.77752 14.3984 1.99844 14.3984H3.99844C4.21935 14.3984 4.39844 14.2194 4.39844 13.9984V11.9984C4.39844 11.7775 4.21935 11.5984 3.99844 11.5984H1.99844ZM8.99844 10.3984C8.11478 10.3984 7.39844 11.1148 7.39844 11.9984V13.9984C7.39844 14.8821 8.11478 15.5984 8.99844 15.5984H13.9984C14.8821 15.5984 15.5984 14.8821 15.5984 13.9984V11.9984C15.5984 11.1148 14.8821 10.3984 13.9984 10.3984H8.99844ZM8.59844 11.9984C8.59844 11.7775 8.77752 11.5984 8.99844 11.5984H13.9984C14.2194 11.5984 14.3984 11.7775 14.3984 11.9984V13.9984C14.3984 14.2194 14.2194 14.3984 13.9984 14.3984H8.99844C8.77752 14.3984 8.59844 14.2194 8.59844 13.9984V11.9984Z"
        fill="current" />
</svg>