<svg xmlns="http://www.w3.org/2000/svg" fill="none" viewBox="0 0 16 16">
    <path fill="current"
        d="M9.23 11.96a4.18 4.18 0 0 0 1.12-.16v.9a3.75 3.75 0 0 1-1.36.23c-.63 0-1.12-.16-1.47-.49-.34-.34-.51-.91-.51-1.72V6.57H6v-.56l1.06-.44L7.48 4h.69v1.64h7.57v.8l-3.15 3.35c1.21.06 2.09.36 2.62.89.53.52.79 1.23.79 2.12a3.3 3.3 0 0 1-.41 1.67c-.27.49-.67.86-1.2 1.13-.51.28-1.14.4-1.87.4-.95 0-1.78-.16-2.5-.47v-1.08a5.53 5.53 0 0 0 2.43.56c.8 0 1.39-.21 1.78-.64.39-.42.58-.96.58-1.61 0-.65-.22-1.15-.65-1.5-.43-.37-1.15-.55-2.14-.55h-.8v-.88l3.05-3.26h-6.1v4.1c0 .86.35 1.29 1.06 1.29Z" />
</svg>