<svg width="16" height="16" viewBox="0 0 16 16" fill="none" xmlns="http://www.w3.org/2000/svg">
    <path fill-rule="evenodd" clip-rule="evenodd"
        d="M7.99862 0.402344C8.32999 0.402344 8.59862 0.670973 8.59862 1.00234V6.794L13.6899 3.85452C13.9769 3.68883 14.3439 3.78716 14.5096 4.07413C14.6752 4.36111 14.5769 4.72806 14.2899 4.89375L9.11566 7.88112L14.2971 10.8726C14.5841 11.0383 14.6824 11.4053 14.5167 11.6923C14.3511 11.9792 13.9841 12.0776 13.6971 11.9119L8.59861 8.96825V15.0023C8.59861 15.3337 8.32999 15.6023 7.99861 15.6023C7.66724 15.6023 7.39861 15.3337 7.39861 15.0023V8.87246L2.13448 11.9117C1.8475 12.0774 1.48055 11.9791 1.31486 11.6921C1.14917 11.4051 1.2475 11.0382 1.53448 10.8725L6.71566 7.88112L1.54167 4.89392C1.25469 4.72823 1.15637 4.36128 1.32205 4.0743C1.48774 3.78733 1.85469 3.689 2.14167 3.85469L7.39861 6.88979V1.00234C7.39861 0.670973 7.66724 0.402344 7.99862 0.402344Z"
        fill="current" />
</svg>