<svg xmlns="http://www.w3.org/2000/svg" xml:space="preserve" viewBox="0 0 512 128"><path stroke="null" d="M141.1043 5.4565H24.1v58.5848h58.5021v58.5022h58.5849V5.5392h-.0827v-.0827zm16.9925.0827v117.0043h117.1696v-20.6308c-2.77 5.3334-8.3515 8.9717-14.7599 8.9717-9.1784 0-16.6204-7.442-16.6204-16.6204s7.442-16.6204 16.6204-16.6204c6.4084 0 11.9899 3.6383 14.76 8.9717V55.4831c-4.1345 10.9149-14.6773 18.6462-27.0392 18.6462-15.959 0-28.8997-12.9407-28.8997-28.8996s12.9408-28.8996 28.8997-28.8996c12.362 0 22.9047 7.7313 27.0391 18.6462V5.5393H158.0967l.0001-.0001zm134.7823 0h58.5848v117.0043h-58.5848V5.5392zm129.6556 0-65.3653 117.0043H487.9L422.5347 5.5392zm0 109.893c-16.7858 0-30.388-13.6022-30.388-30.388s13.6022-30.388 30.388-30.388 30.388 13.6022 30.388 30.388-13.5609 30.388-30.388 30.388z"/></svg>