<svg xmlns="http://www.w3.org/2000/svg" xml:space="preserve"  viewBox="0 0 512 128"><g stroke="null"><path d="M201.35 20.5131v7.2376h3.8028V13.2755H201.35zm23.6346 14.5161h-3.7619v7.2376h3.7619v7.2376h-3.7619v7.2376h3.7619v7.2375h-3.7619v7.2377h3.7619v7.2785h-3.7619v7.2375h3.7619v7.2377h-3.7619v7.2376h3.7619v7.2375h-3.7619v7.2377h3.7619v7.2784h3.8029v-7.2784h3.8028v-7.2377h-3.8028v-7.2375h3.8028v-7.2376h-3.8028v-7.2377h3.8028v-7.2375h-3.8028v-7.2785h3.8028v-7.2377h-3.8028V56.742h3.8028v-7.2376h-3.8028v-7.2376h3.8028v-7.2376h-3.8028v-7.2785h-3.8029zm21.3039 36.188v-7.2377h-3.8028V49.5044h-3.7619v14.4751h-3.8028v7.2377h3.8028v7.2785h3.7619v-7.2785zm-3.8028 7.2785v7.2375h7.6056v-7.2375h-3.8028zm17.0104-7.2785h-3.7619v7.2785h7.5648v-7.2785zm11.4084 7.2785h3.762v-7.2785h-7.5648v7.2785zm-3.8028-21.3039v6.7877h-3.8027v-6.7877h-7.5648v7.2375h7.5648v6.7879h3.8027v-6.7879h7.5648v-7.2375h-3.762zm-7.6056-29.4411h-3.7619v7.2785h7.5648v-7.2785zm11.4084 7.2785h3.762v-7.2785h-7.5648v7.2785zm-11.4084-21.7537h-3.7619v7.2376h7.5648v-7.2376zm7.6056 0v7.2376h7.5648v-7.2376h-3.762zm43.4257 14.4752V20.513h-3.8029v-7.2376h-3.8028V6.0379h-3.8028v7.2376h-3.8028V6.0379h-3.8028v7.2376h-3.8028V6.0379h-3.8028v7.2376h-3.8028v7.2376h-3.6802v7.2376h3.8028v7.2376h-3.8028v7.2376h3.8028v7.2376h-3.8028v7.2785h3.8028v7.2376h-3.8028v7.2376h3.8028v7.2376h-3.8028v7.2376h3.8028V92.93h-3.8028v7.2376h3.8028v7.9327h-3.8028v7.2376h3.8028v6.5834h7.6057v-7.2377h-3.8029v-6.5833h3.8029v-7.2376h-3.8029V78.4956h3.8029v7.2377h3.8028v-7.2377h3.8028v7.2377h3.8028v-7.2377h3.8028v21.7129h-3.8028v7.2375h3.8028v7.2377h-3.8028v7.2375h7.6056v-7.2375h3.8028v-7.2377h-3.8028v-7.2375h3.8028v-7.2377h-3.8028v-7.2375h3.8028v-7.2377h-3.8028v-7.2375h3.8028v-7.2377h-3.8028V56.742h3.8028v-7.2376h-3.8028v-7.2376h3.8028v-7.2376h-3.8028v-7.2785h3.6802zm-7.5648 7.2785h-3.8028v7.2376h3.8028v7.2376h-3.8028v7.2376h3.8028v14.4752h-3.8028v-7.2376h-3.8028v7.2376h-3.8028v-7.2376h-3.8028v7.2376h-3.8028V56.742h3.8028v-7.2376h-3.8028v-7.2376h3.8028v-7.2376h-3.8028V20.513h3.8028v7.2376h3.8028V20.513h3.8028v7.2376h3.8028V20.513h3.8028v14.5161zm-43.4665 50.704h-3.7619v7.2377h7.5648v-7.2377zm11.4084 7.2377h3.762v-7.2377h-7.5648v7.2377zm-11.4084 7.2376h-3.7619v7.2375h7.5648v-7.2375zm11.4084 7.2375h3.762v-7.2375h-7.5648v7.2375zm-24.616 14.5161h3.8028v-7.2784h-7.6056v7.2784zm6.1336-101.449v-7.2376h-3.8028v14.4752h3.8028zm-3.8028 14.5161h3.8028v7.2376h-3.8028z"/><path d="M242.4857 42.2668h6.1336v7.2376h-6.1336zm6.1336 7.2376h3.8028v7.2376h-3.8028zm1.4721 21.7128h3.8028v7.2376h-3.8028zm0 14.516h3.8028v7.2376h-3.8028zm-11.3676 7.2377v7.2376h-3.8028v7.2375h3.8028v7.2377h3.7619v-7.2377h3.8028v-7.2375h-3.8028V85.7332h-3.7619zm11.3676 14.4751h3.8028v7.2376h-3.8028zm-14.6797-86.9329v7.2376h3.8028V13.2755h2.8215v14.4752h3.7619V13.2755h2.6987V6.0379h-19.7091v7.2376h-3.8029V6.0379h-19.7091v7.2376h2.6988v14.4752h3.8027V13.2755h2.8215v14.4752h3.7619V13.2755h2.8623v14.4752h3.7619v-7.2376h3.8029v7.2376h3.8028V13.2755h2.8214zm27.8872-14.4752h3.8028v7.2376h-3.8028zm0 14.4752h3.8028v7.2376h-3.8028zm0 14.5161h3.8028v7.2376h-3.8028zm0 14.4752h3.8028v7.2376h-3.8028zm0 28.9912h3.8028v7.2376h-3.8028zm0 14.4752h3.8028v7.2376h-3.8028zm.0001 21.3039h-7.5648v7.2376h7.5648v-6.8286h3.8027v6.8286h7.5648v-7.2376h-7.5648v-6.8287h-3.8027z"/></g></svg>