<svg xmlns="http://www.w3.org/2000/svg" data-name="Ebene 2" viewBox="0 0 512 128"><g stroke="null" data-name="Layer 1"><path d="M321.526 13.743v65.611h-50.341l-1.758 1.44-28.676 23.52L244.331 87l1.577-7.635h-55.434V13.743h131.052m6.354-6.353H184.12v78.318h53.995l-7.212 34.902 42.559-34.902h54.418V7.39z"/><path d="M226.583 58.197V38.512h-5.443V36.34h13.321v2.17h-5.442v19.686h-2.436zm19.124.233c-.572 0-1.154-.053-1.736-.148-.583-.096-1.144-.276-1.663-.54s-.995-.593-1.43-.996c-.423-.402-.773-.868-1.037-1.397s-.456-1.08-.561-1.652-.16-1.165-.16-1.758v-2.976c0-.572.054-1.154.149-1.736a5.623 5.623 0 0 1 .55-1.652 5.334 5.334 0 0 1 1.038-1.398c.424-.413.9-.752 1.409-1.006s1.07-.434 1.652-.54 1.164-.148 1.736-.148 1.154.053 1.737.148 1.133.275 1.652.54c.519.254.985.593 1.408 1.006.424.413.773.879 1.038 1.398.265.519.455 1.07.55 1.652.096.582.149 1.164.149 1.736v2.584h-10.621v.381c0 .381.032.752.085 1.133.063.381.169.73.328 1.07.159.339.37.646.635.932s.561.519.89.688c.328.17.677.286 1.059.36.37.074.751.106 1.133.106.434 0 .857-.032 1.28-.085.414-.063.816-.18 1.208-.36s.72-.434.995-.773c.276-.339.435-.72.477-1.154h2.467a5.033 5.033 0 0 1-.339 1.43 4.65 4.65 0 0 1-.762 1.238 4.631 4.631 0 0 1-1.101.932 6.02 6.02 0 0 1-1.324.614 7.297 7.297 0 0 1-1.43.297c-.487.053-.974.074-1.471.074h.01zm-4.13-9.075h8.154v-.392c0-.37-.032-.752-.085-1.112a4.294 4.294 0 0 0-.328-1.07 3.472 3.472 0 0 0-.614-.931 3.13 3.13 0 0 0-.879-.688 4.25 4.25 0 0 0-1.059-.392c-.37-.074-.741-.117-1.112-.117s-.752.043-1.112.117c-.37.085-.72.212-1.059.392a2.95 2.95 0 0 0-.878.688 3.948 3.948 0 0 0-.615.932c-.158.35-.264.71-.328 1.07s-.085.74-.085 1.111v.392zm15.937 8.842v-2.202h4.998V44.897h-4.521v-2.17h6.957v13.268h4.522v2.202h-11.956zm5.983-18.086c-.254 0-.508-.032-.741-.106-.233-.074-.445-.19-.625-.37s-.307-.393-.37-.626-.106-.487-.106-.74.031-.51.106-.742.19-.445.37-.625.381-.307.625-.381c.244-.085.487-.117.741-.117s.508.043.741.117.445.212.625.381c.18.18.307.392.381.625.085.233.117.487.117.741s-.042.508-.117.741a1.66 1.66 0 0 1-.38.625c-.18.18-.393.297-.626.37s-.487.107-.74.107zm16.382 18.319c-.413 0-.837-.032-1.26-.085a5.632 5.632 0 0 1-1.24-.328c-.391-.159-.762-.37-1.1-.635s-.615-.583-.848-.932a3.536 3.536 0 0 1-.487-1.165 5.658 5.658 0 0 1-.148-1.281c0-.55.085-1.091.265-1.62.18-.53.455-.985.836-1.388.37-.402.805-.72 1.292-.963a8.384 8.384 0 0 1 1.536-.593c.54-.149 1.07-.244 1.62-.297s1.09-.074 1.62-.074h3.208v-1.186a4.19 4.19 0 0 0-.116-.953 2.642 2.642 0 0 0-1.059-1.525 3.377 3.377 0 0 0-.847-.434 5.297 5.297 0 0 0-.921-.212 7.508 7.508 0 0 0-2.245.042c-.424.075-.837.212-1.218.414s-.71.497-.953.879a2.22 2.22 0 0 0-.37 1.217h-2.468c0-.497.085-.984.254-1.461a4.4 4.4 0 0 1 .71-1.292c.307-.381.667-.72 1.09-.995a5.715 5.715 0 0 1 1.324-.657 7.293 7.293 0 0 1 1.44-.328c.498-.064.996-.085 1.483-.085.54 0 1.07.032 1.588.106.53.064 1.027.201 1.514.381.487.19.943.445 1.366.763.424.317.784.699 1.08 1.133.297.434.509.91.625 1.43.117.518.18 1.037.18 1.577v10.325h-2.467v-2.68a4.34 4.34 0 0 1-.91 1.292 4.91 4.91 0 0 1-1.293.953 5.388 5.388 0 0 1-1.503.52 8.958 8.958 0 0 1-1.589.148l.01-.011zm.921-2.17c.36 0 .71-.033 1.07-.085.36-.064.71-.149 1.037-.265.34-.117.657-.286.953-.508s.551-.477.763-.774.35-.624.434-.984c.074-.36.116-.71.116-1.07V51.24h-3.208c-.318 0-.646 0-.985.032s-.667.063-.985.137-.635.16-.953.254a3.153 3.153 0 0 0-.89.435c-.275.19-.497.434-.656.73a1.92 1.92 0 0 0-.233.922c0 .413.106.804.329 1.164.222.36.497.636.847.848.35.211.72.349 1.133.413.402.074.815.105 1.239.105l-.01-.02z"/></g></svg>