<svg xmlns="http://www.w3.org/2000/svg" data-name="Ebene 2" viewBox="0 0 512 128"><path stroke="null" d="m313.102 30.014.223 27.651L340.82 30.17l-27.718-.156zM238.996 64.4a2.813 2.813 0 0 0-.467-.711 2.356 2.356 0 0 0-.667-.523 3.48 3.48 0 0 0-.8-.3c-.278-.055-.567-.089-.856-.089s-.566.034-.855.09a2.69 2.69 0 0 0-.8.3 2.355 2.355 0 0 0-.667.522 3.026 3.026 0 0 0-.467.711c-.122.267-.2.534-.245.823a5.408 5.408 0 0 0-.066.844v.3h6.212v-.3a5.34 5.34 0 0 0-.066-.844 3.67 3.67 0 0 0-.245-.823h-.011zm24.15 3.412a4.01 4.01 0 0 0-.745.1 13.83 13.83 0 0 0-.722.189 2.566 2.566 0 0 0-.678.333c-.211.145-.378.334-.5.556s-.178.467-.178.7c0 .323.078.611.245.89.166.277.378.488.644.644.267.156.556.267.867.322a5.33 5.33 0 0 0 1.756.011c.278-.044.534-.11.79-.2.255-.089.5-.222.722-.389s.422-.366.578-.589c.155-.222.266-.478.333-.744a4.03 4.03 0 0 0 .089-.812v-1.022h-2.445c-.245 0-.49 0-.745.022l-.01-.011zm28.351 18.627V30.014H262.89V8.398l-57.602-.445-34.108 34.064v21.616h28.607v56.414h78.963l34.352-33.62h-21.616l.011.012zm-43.01-29.096c.056-.178.145-.345.29-.478.132-.133.3-.233.477-.289.178-.056.367-.089.567-.089s.389.033.567.089c.177.056.344.156.477.289.134.133.234.3.3.478s.09.367.09.567-.034.389-.09.566-.155.345-.3.478c-.133.134-.3.234-.477.278-.178.056-.367.078-.567.078s-.39-.022-.567-.078a1.154 1.154 0 0 1-.478-.278c-.133-.133-.233-.3-.289-.478s-.078-.366-.078-.566.023-.39.078-.567zm-20.805.744h-4.145v15.015h-1.856V58.087h-4.146v-1.655h10.158v1.655h-.01zm13.515 9.958h-8.091v.29c0 .288.022.577.066.866.045.29.134.556.245.823s.289.5.489.71.433.39.678.523c.244.134.522.223.8.278.289.056.578.078.867.078.333 0 .656-.022.978-.067.322-.044.622-.133.922-.267.3-.133.545-.333.756-.589.211-.255.333-.555.367-.878h1.878a3.993 3.993 0 0 1-.256 1.09 3.426 3.426 0 0 1-.578.944c-.244.278-.522.523-.833.712s-.656.355-1.011.466a5.265 5.265 0 0 1-1.09.223c-.366.033-.744.055-1.122.055a7.67 7.67 0 0 1-1.323-.11 4.574 4.574 0 0 1-2.356-1.168c-.322-.311-.589-.667-.789-1.067s-.344-.822-.433-1.256a6.693 6.693 0 0 1-.122-1.333V66.1c0-.434.033-.878.11-1.323a4.279 4.279 0 0 1 1.213-2.323c.321-.322.688-.578 1.077-.767s.811-.333 1.256-.41.89-.112 1.323-.112.877.033 1.322.111a4.387 4.387 0 0 1 2.334 1.178 4.28 4.28 0 0 1 1.211 2.323c.078.445.111.89.111 1.323v1.978-.034zm13.17 5.057h-9.114v-1.678h3.812v-8.458h-3.445V61.31h5.301v10.114h3.445v1.678zm13.858 0h-1.878v-2.045c-.167.367-.4.69-.69.99-.3.3-.622.533-.988.722a4.25 4.25 0 0 1-1.145.4 6.3 6.3 0 0 1-1.211.111c-.323 0-.634-.022-.967-.067a4.725 4.725 0 0 1-.945-.244c-.3-.122-.578-.29-.834-.49s-.477-.444-.644-.71a2.755 2.755 0 0 1-.378-.89 4.126 4.126 0 0 1-.111-.978c0-.422.067-.833.2-1.233.133-.4.344-.756.633-1.056s.612-.545.99-.734a5.918 5.918 0 0 1 1.166-.455c.412-.111.823-.19 1.234-.222s.823-.056 1.234-.056h2.445v-.911c0-.245-.034-.49-.09-.723a1.746 1.746 0 0 0-.3-.655 2.243 2.243 0 0 0-1.155-.834 3.037 3.037 0 0 0-.7-.156 5.362 5.362 0 0 0-.723-.044c-.333 0-.666.022-.989.078a2.916 2.916 0 0 0-.933.322 1.89 1.89 0 0 0-.723.667c-.189.289-.278.6-.278.933h-1.878c0-.377.067-.744.19-1.11a3.57 3.57 0 0 1 .544-.99c.233-.289.511-.545.822-.756s.656-.378 1.012-.5c.355-.122.722-.2 1.1-.244a9.695 9.695 0 0 1 2.345.01c.4.056.789.156 1.156.29.366.144.722.333 1.044.578s.6.533.823.866c.222.334.389.7.478 1.09s.133.789.133 1.2v7.868l.011-.022z" data-name="Layer 1"/></svg>