<svg xmlns="http://www.w3.org/2000/svg" xml:space="preserve" viewBox="0 0 512 128"><g stroke="null"><path d="M145.8704 8.9204h-83.892C47.4848 8.9204 35.75 20.655 35.75 35.1488V46.767h83.892c14.4936 0 26.2284-11.7348 26.2284-26.2284V8.9204z"/><path d="M109.6947 92.8512v-46.123H98.0765c-14.4937 0-26.2285 11.7347-26.2285 26.2283v46.1231h11.6183c14.4936 0 26.2284-11.7347 26.2284-26.2284zM247.1703 8.9204h-83.9308v11.6182c0 14.4936 11.7347 26.2284 26.2284 26.2284h83.892V35.1488c0-14.4937-11.7348-26.2284-26.1895-26.2284zm100.0565 83.892V8.9204h-11.6182c-14.4547 0-26.1895 11.7347-26.1895 26.2284v83.892h11.6182c14.4547 0 26.1895-11.7348 26.1895-26.2284zm71.9242 0V8.9204h-11.6183c-14.4936 0-26.2284 11.7347-26.2284 26.2284v83.892h11.6571c14.4548 0 26.1895-11.7348 26.1895-26.2284zm55.099 26.2284v-83.892c0-14.4937-11.7348-26.2284-26.2284-26.2284h-11.6182v83.892c0 14.4936 11.7348 26.2284 26.2284 26.2284H474.25zM273.3599 81.233h-83.892c-14.4937 0-26.2285 11.7348-26.2285 26.2284v11.6182h83.892c14.4937 0 26.2285-11.7347 26.2285-26.2284V81.233z"/></g></svg>