<svg fill="currentColor" xmlns="http://www.w3.org/2000/svg" xml:space="preserve" shape-rendering="crispEdges"
	viewBox="0 0 1133.9 283.5">
	<path
		d="M236.8 19.7H1v243.8h244.2V20.2h-8.4zm-18.5 37v174.8H33.4V52.4h184.2v4.3zm314.4-37H297v243.8h243.8V20.2h-8.1zm-18.4 37v174.8H329.4V52.4h184v4.3zm314.4-37H593v243.8h243.8V20.2h-8.1zm-18.5 37v174.8H625.4V52.4h184v4.3zm319-37H888.8v243.8h243.8V20.2h-3.4zm-23.1 37v174.8H921.2V52.4h184v4.3z" />
	<path
		d="M186 70.6H56.5v32.3h50.8V126H84.2v32.4h23.1v50.9h32.4v-50.9h27.8V126h-27.8v-23.1h55.5V70.6h-4.6zm295.9 0H352.4v138h138v-27h-54.6v-23.2h27.6V126h-27.6v-23H491V70.8h-9.1zm-78.6 37V126h-18.5v-23h18.4v4.6zm-18.5 69.3v-18.5h18.4v23h-18.4v-4.5zm393-106.3H648.3v32.3h50.9V126h-23.1v32.4h23.1v23.1h-50.9v27.8h138.8v-27.8h-55.5v-23.1h27.7V126h-27.7v-23.1h55.5V70.6h-4.7zm295.9 0H944.4v138h32.2v-50.2H995V186h32.2v-27.6h23V209h32.2V70.8h-8.7zm-23.1 37V126h-23v-23h23v4.6zm-74 13.8V103H995v23h-18.4v-4.6z" />
</svg>