<svg xmlns="http://www.w3.org/2000/svg" data-name="Ebene 2" viewBox="0 0 512 128"><g data-name="Layer 1"><rect width="61.68" height="47.89" x="90.865" y="61.12" rx="4.01" ry="4.01"/><rect width="43.87" height="41.92" x="46.995" y="18.98" rx="4.01" ry="4.01"/><path d="M429.995 60.75a4.01 4.01 0 0 1-4.01-4.01V46.33h-3.74v-.12h-37.9v.12h-3.74v10.41a4.01 4.01 0 0 1-4.01 4.01h-37.35v.08h-156.91a4.01 4.01 0 0 1-4.01-4.01V22.99a4.01 4.01 0 0 0-4.01-4.01h-17.77a4.01 4.01 0 0 0-4.01 4.01V56.9a4.01 4.01 0 0 0 4.01 4.01h17.41a4.01 4.01 0 0 1 4.01 4.01v40.09a4.01 4.01 0 0 0 4.01 4.01h157.57v-.08h37.62a4.01 4.01 0 0 0 4.01-4.01V92.28a4.01 4.01 0 0 1 4.01-4.01h33.88a4.01 4.01 0 0 1 4.01 4.01v12.65a4.01 4.01 0 0 0 4.01 4.01h33.91a4.01 4.01 0 0 0 4.01-4.01V64.78a4.01 4.01 0 0 0-4.01-4.01h-30.99l-.01-.02z"/></g></svg>