<svg fill="currentColor" xmlns="http://www.w3.org/2000/svg" xml:space="preserve" viewBox="0 0 1133.9 283.5">
	<path
		d="M410 170.1h56.7v56.7H410zM466.7 0v56.7h113.4V0h-56.7zm56.7 170.1h56.7v-56.7H466.7v56.7zm0 113.4h56.7v-56.7H466.7v56.7zM636.7 56.7v226.8h56.7V0h-56.7zm113.4 0h56.7v56.7h-56.7zM806.8 0h56.7v56.7h-56.7zm56.7 56.7h56.7v56.7h-56.7zm-679.9 0h56.7v56.7h-56.7zM240.3 0H297v56.7h-56.7zM297 113.4v170.1h56.7V56.7H297zM410.4 0h-56.7v56.7H410v56.7h56.7V56.7h-56.3zm339.7 170.1v113.4h56.7v-85.1h56.7v85.1h56.7V139.8H750.1z" />
</svg>