<svg xmlns="http://www.w3.org/2000/svg" xml:space="preserve" viewBox="0 0 512 128"><path stroke="null" d="M106.324 104.855c-2.636-2.637-4.018-6.152-4.018-9.789V55.778L89.129 45.735c-3.388-2.637-5.394-6.777-5.394-11.043 0-7.535 6.273-13.68 13.807-13.68h67.4c7.406 0 13.558 6.152 13.558 13.68 0 4.394-2.133 8.533-4.77 10.546l-13.686 10.54v39.288c0 3.643-1.503 7.152-4.14 9.789-2.509 2.509-6.024 4.019-9.667 4.019h-30.252c-3.636-.007-7.151-1.51-9.66-4.02zm39.913.624a9.95 9.95 0 0 0 7.279-3.14 10.356 10.356 0 0 0 3.012-7.28V54.02l15.062-11.546c2.134-1.63 3.516-5.018 3.516-7.91 0-5.018-4.643-10.164-10.165-10.164H97.535c-5.521 0-10.419 4.515-10.419 10.292 0 3.14 1.51 6.272 4.14 8.285l14.438 11.043v41.046c0 2.764 1.127 5.394 3.012 7.28 2.006 2.006 4.643 3.14 7.28 3.14l30.25-.007zm-37.028-10.42V52.384l-15.94-12.17c-1.63-1.255-2.637-3.388-2.637-5.394a6.885 6.885 0 0 1 6.904-6.904h67.278c3.643 0 6.776 2.382 6.776 7.152 0 1.51-.376 3.14-1.382 3.891L153.14 52.39v42.676c0 3.764-3.14 6.904-6.903 6.904h-30.252c-3.763-.007-6.776-3.14-6.776-6.91zm37.028 3.516c1.885 0 3.388-1.63 3.388-3.515V50.632l17.443-13.304c1.007-.751 1.127-1.63 1.127-2.509 0-2.006-1.51-3.516-3.515-3.516H97.536c-2.134 0-3.516 2.134-3.516 3.516 0 1.006.503 2.006 1.382 2.637l17.195 13.176v44.434c0 1.886 1.51 3.516 3.388 3.516h30.252v-.007zm-30.252-49.58-18.45-14.183h67.151l-18.45 14.183V95.06h-30.25V48.995zm26.736 42.676V48.995c0-1.127.503-2.133 1.382-2.764l11.801-8.03h-49.459l11.674 8.03c.879.63 1.382 1.63 1.382 2.764v42.676h23.22zm44.809 13.184c-2.508-2.637-4.018-6.152-4.018-9.789V34.82c0-3.643 1.382-7.28 4.019-9.789 2.636-2.509 6.152-4.018 9.788-4.018h60.503c7.03 0 13.559 6.152 13.559 13.68 0 3.26-1.007 6.655-3.261 9.037l-11.298 11.418c2.637 2.51 4.14 6.025 4.14 9.668s-1.383 7.28-4.14 9.916L267.368 85.4c2.637 2.636 4.02 6.152 4.02 9.788 0 1.758-.377 3.516-1.007 5.146-2.006 5.146-7.152 8.534-12.801 8.534h-60.247c-3.657 0-7.293-1.376-9.802-4.012zm70.037.624c4.139 0 8.03-2.51 9.54-6.4.503-1.255.751-2.637.751-4.02 0-2.636-.879-5.273-2.885-7.279l-13.055-13.056 2.509-2.381c2.006-2.006 3.26-4.77 3.14-7.535-.128-4.018-1.758-5.897-5.65-9.667l13.68-13.808c1.63-1.63 2.382-4.394 2.382-6.527 0-5.395-4.14-10.42-10.164-10.42h-60.502c-2.765 0-5.274 1.255-7.28 3.14s-3.14 4.515-3.14 7.28v60.247c0 2.764 1.255 5.273 3.14 7.28s4.515 3.139 7.28 3.139l60.254.007zm-67.151-10.42V34.813c0-3.891 3.012-6.903 6.903-6.903h60.248c3.763 0 6.903 2.885 6.903 6.903a6.93 6.93 0 0 1-2.006 4.898L246.9 55.275l5.019 4.643c1.382 1.254 2.133 3.012 2.133 4.897 0 1.885-.751 3.764-2.006 5.019l-5.018 4.897 15.437 15.438c1.382 1.382 2.006 3.14 2.006 4.897 0 4.14-3.26 6.904-6.903 6.904H197.32c-3.891-.007-6.903-3.02-6.903-6.91zm67.15 3.516c1.383 0 2.765-.751 3.261-2.133.128-.376.248-.88.248-1.255 0-.879-.375-1.758-1.006-2.51l-17.947-17.946 7.407-7.28c.752-.75 1.127-1.63 1.127-2.508 0-1.007-.503-1.886-1.127-2.51l-7.534-7.03L260.069 37.2c.63-.631 1.006-1.51 1.006-2.382 0-1.885-1.63-3.516-3.515-3.516h-60.247c-1.886 0-3.516 1.63-3.516 3.516v60.247c0 1.885 1.63 3.516 3.516 3.516h60.254v-.007zM197.32 34.812h60.248l-20.584 20.584 10.164 9.54-9.916 9.788 20.336 20.336H197.32V34.812zm53.216 56.86-15.692-14.56c-.63-.623-1.006-1.502-1.006-2.508a3.4 3.4 0 0 1 1.006-2.382l7.28-7.152-7.535-7.031c-.63-.63-1.006-1.63-1.006-2.51s.248-1.884 1.006-2.508l15.94-14.814h-49.827v53.471l49.834-.007zm29.874 13.183c-2.508-2.637-4.018-6.152-4.018-9.789V34.82c0-3.643 1.382-7.28 4.019-9.789s6.152-4.018 9.788-4.018h30.124c3.643 0 7.28 1.382 9.789 4.018s4.018 6.153 4.018 9.789v60.247c0 3.643-1.382 7.28-4.018 9.789-2.637 2.509-6.153 4.019-9.789 4.019h-30.124c-3.643-.007-7.279-1.383-9.788-4.02zm40.04.624c2.765 0 5.274-1.255 7.28-3.14 2.006-1.885 3.012-4.522 3.012-7.28V34.813c0-2.764-1.127-5.273-3.012-7.28s-4.522-3.139-7.28-3.139h-30.123c-2.764 0-5.273 1.255-7.28 3.14a9.976 9.976 0 0 0-3.14 7.28V95.06c0 2.764 1.255 5.273 3.14 7.279s4.522 3.14 7.28 3.14h30.124zm-37.154-10.42V34.813c0-3.891 3.012-6.903 6.903-6.903h30.124a6.885 6.885 0 0 1 6.904 6.903V95.06a6.885 6.885 0 0 1-6.904 6.903h-30.124c-3.89 0-6.903-3.012-6.903-6.903zm37.155 3.516c1.885 0 3.388-1.63 3.388-3.515V34.812c0-1.885-1.51-3.515-3.388-3.515h-30.124c-1.885 0-3.516 1.63-3.516 3.515V95.06c0 1.885 1.63 3.515 3.516 3.515h30.124zm-30.252-63.763h30.124V95.06h-30.124V34.812zm26.736 56.86V38.2h-23.348v53.471h23.348zm25.602 10.674c-1.382-2.261-2.134-4.77-2.134-7.407 0-2.006.503-4.14 1.382-6.025L371.91 26.91c2.382-4.77 7.152-7.783 12.425-7.783s10.044 3.013 12.425 7.783l30.124 62.005c1.006 2.006 1.382 4.019 1.382 6.152 0 2.51-.63 5.019-2.006 7.28-2.51 4.018-7.031 6.527-11.801 6.527H354.21c-4.77-.006-9.164-2.515-11.673-6.527zm71.92 3.012c3.644 0 6.904-1.758 8.79-4.898 1.006-1.63 1.63-3.515 1.63-5.521 0-1.51-.376-3.013-1.127-4.522l-30.124-62.005c-1.758-3.516-5.273-5.777-9.285-5.777-3.891 0-7.534 2.261-9.286 5.777l-30.123 62.005c-.752 1.51-1.127 3.012-1.127 4.522 0 2.006.624 3.891 1.63 5.521 1.885 3.14 5.146 4.898 8.789 4.898h60.234zm-66.144-6.655a6.733 6.733 0 0 1-1.006-3.516c0-1.127.248-2.26.751-3.26l30.124-62.006c1.127-2.381 3.515-3.89 6.152-3.89s5.018 1.509 6.152 3.89l30.251 62.005c.504 1.007.631 2.006.631 3.013 0 1.382-.255 2.636-1.006 3.764a7.01 7.01 0 0 1-5.898 3.26h-60.247a7.013 7.013 0 0 1-5.904-3.26zm66.145-.249c1.254 0 2.381-.63 3.012-1.63.376-.503.503-1.127.503-1.758a3.9 3.9 0 0 0-.375-1.63l-30.124-62.005c-.503-1.127-1.758-1.885-3.14-1.885-1.254 0-2.637.751-3.14 1.885l-30.123 62.005c-.249.503-.249 1.006-.249 1.51 0 .623.128 1.254.504 1.885.63 1.006 1.63 1.63 2.884 1.63l60.248-.007zm-30.124-65.4 30.124 61.878H354.21l30.124-61.878zm24.602 58.497-24.602-50.707-24.602 50.707h49.204z"/></svg>