<svg xmlns="http://www.w3.org/2000/svg" xml:space="preserve" stroke-linecap="round" stroke-linejoin="round"
    stroke-miterlimit="10" clip-rule="evenodd" viewBox="0 0 512 128">
    <g fill="currentColor">
        <path d="M267 121V87c-2-2-7-2-8 0v33c2 3 6 3 8 1Z" />
        <path
            d="M303 107c3-3 2-5-8-15l-9-10 4-8 5-8 11-2c9 0 10-1 12-2 2-2 2-3 1-4 0-2-2-3-3-3l-7-8-11-18-7-11-7-2-10-3-11-4c-8-4-11-4-12 0-1 2-1 3 1 5 2 1 25 10 28 10 2 0 2 3 0 4l-6 8-8 13-4 6-19-19c-15-15-19-18-21-18-3 0-28 37-28 41 1 2 1 3 4 3 2 0 3 0 13-16l12-17 7 7 7 7-3 3c-5 6-11 14-11 16s4 4 6 4l8-9 6-8c1 0 13 12 13 14l-19 24-10 15 2 3c2 1 3 1 5-1l24-28c4-6 6-7 7-5l8 9 16 18c9 10 12 11 14 9Zm-27-36-2-4 4-1 5 1-3 7-4-3Zm-4-15 1-2 8-12 8-11 7 10a466 466 0 0 0 7 14l-11 2c-20 1-20 1-20-1Z" />
    </g>
</svg>