<svg xmlns="http://www.w3.org/2000/svg" xml:space="preserve" width="280" height="128">
    <path fill="currentColor" fill-rule="evenodd" stroke="null"
        d="M72.825 8.864H15.5V61.29h57.325v57.847h53.47l-.001-57.847H264.5V8.864H126.294V61.29H72.825V8.864zm113.268 20.73v13.56h2.862v-13.56h3.62v-2.386h-10.102v2.386h3.62zm13.626-2.386v15.946h9.408v-2.386h-6.547V36.06h5.116v-2.387h-5.116v-4.079h6.547v-2.386h-9.408zm17.073 15.946v-2.386h2.927V29.594h-2.927v-2.386h8.714v2.386h-2.926v11.174h2.926v2.386h-8.714zm16.054-1.518-.369 1.518h2.949l.715-3.254h3.641l.715 3.254h2.95l-3.838-15.946h-3.295l-1.28 5.315-2.188 9.113zm5.354-9.113 1.084 4.99h-2.645l1.084-4.99a7.677 7.677 0 0 0 .108-.564l.13-.564a7.677 7.677 0 0 1 .109.564l.13.564z"
        clip-rule="evenodd" />
</svg>