<svg xmlns="http://www.w3.org/2000/svg" xml:space="preserve" viewBox="0 0 512 128"><path d="M144.624 108.848h-34.23c0-3.36-.17-6.71 0-10.24 0-1.85 1.51-11.07-2.18-11.24-5.7 0-11.58 0-17.11.17-6.54.17-12.92.5-19.3.67-7.89.5-15.94 1.17-23.83 1.17 0-3.02.34-5.87.34-8.72.17-4.7 0-9.06-.34-13.76 0-1.68.17-3.02.17-4.7 0-4.03 0-8.22-.17-12.58 0-2.52-2.01-13.93 2.68-13.09 2.85.67 5.87.34 9.06.34 2.52 0 5.03-.17 7.89 0 1.01 0 2.35.5 3.52.5 2.18 0 4.87-.67 6.88 0 4.36 1.51 9.06-.17 13.09 1.17 4.19 1.34 8.05 0 12.08.84.84.17 1.68-.5 2.68-.84 0-2.52-.34-5.2 0-7.89.5-4.19 1.01-9.56 1.01-13.76 0-2.52 0-5.03.17-7.72 2.18 0 4.36-.17 6.54 0 4.03.17 8.05.67 12.08.84 2.68.17 5.54-.34 8.05.17 4.03.84 7.72.67 11.58.5.5 0 1.34.84 1.51 1.51.17 2.35.17 4.53.17 6.88.17 2.68.34 5.54.17 8.22 0 2.01-1.01 3.86-.67 5.54 1.01 2.85-.34 5.54 0 8.22.17 1.17-.17 2.52-.17 3.69.17 1.85.17 3.86.17 5.7 0 3.86-.5 7.72-.5 11.41 0 1.51.34 3.02.17 4.53 0 1.68-.84 3.19.34 4.7l.17.67c-2.01 1.85-.17 4.19-.5 6.38-.84 3.19-.84 6.38-.5 9.56 0 1.17-.67 2.52.17 4.19.5.84-.34 2.85-.5 4.36-.17 1.34-.34 2.85-.34 4.36v7.38c-.02.36-.19.7-.35.87zm119.96-25.84c-.33 2.01-1.01 4.2-1.34 6.21-.17 1.68 0 3.19 0 4.7-.17 1.85-.5 3.52-.67 5.2 0 .17.17 7.72-.34 11.91-.17 1.85-.17 4.36-.17 6.54-.17 0-.33.17-.33.17-5.54-.5-11.07-.84-16.61-1.17l-11.24-.5c-4.03 0-8.22-.67-12.08-.5-12.25.34-24.5.84-36.91 1.01-5.03 0-10.23.34-15.44.5-6.38 0-2.52-11.41-2.52-15.77 0-4.7-.67-9.4-.67-14.09 0-1.34-.5-2.52-.5-4.03 0-2.18.34-4.03.17-6.04 0-1.34.5-4.7.34-6.04 0 0 .5-6.04.34-6.04 0-4.19 0-8.39.17-12.58.17-4.03.67-8.22 1.01-12.08.5-4.36-1.01-9.4 0-13.76.67-2.68-.34-5.87-.5-8.89 0-2.35.34-4.7.5-7.21h24.5c.84 5.03.5 8.56.5 13.26 0 2.18.5 4.03.67 6.04-.17.5-.67 10.91-.84 14.77 0 1.01-.84 2.01-.84 3.19.17 1.51.34 3.19.84 4.87 0 .34 1.17-.17 1.85-.17 1.85 0 6.71-1.85 8.05-2.01.17-1.51.33-3.19.33-4.87-.33-1.51.67-7.72 1.01-9.56 2.85-1.51 6.88-.5 10.07-1.17 1.68-.34 3.36 0 5.54.17-.34 2.18-.5 4.36-.67 6.38-.17 1.34.33 2.35.17 3.69-.33 4.53-.67 11.24-.84 11.91l.17 3.19c-.17.5 0 1.17.34 1.51.17.17.84.17 1.17 0 5.2-2.35 10.4-5.03 16.95-4.53 0-3.69-.17-7.21 0-10.74.17-1.85 1.01-3.69 1.01-5.54.17-1.68 0-4.03 0-5.37 0-4.03.67-7.05.34-10.91-.34-3.02-.5-6.21-.67-9.23-.17-.84 0-1.68.17-2.68 8.56-.17 17.45-1.01 26.34.17-.34 2.85-.5 5.37-.67 7.89-.67-1.85.84 13.42.84 16.44 0 1.01.5 4.19.17 5.03 0 2.35.17 6.21.17 6.88.5 3.19.5 5.87.5 9.06.17 4.53.17 9.23.34 13.76 0 2.85-.5 5.7-.67 8.39-.21.79.12 1.8-.05 2.64zm-71.14-53.02v-.17.17zm76.01 64.59c2.52-4.19 5.71-8.72 8.05-12.92 2.52-4.03 4.53-8.39 6.88-12.25 4.53-8.05 9.56-16.11 14.09-24.16 2.52-4.19 4.53-8.89 7.05-13.09 1.85-3.36 4.53-6.54 6.54-9.9 1.85-3.02 3.52-6.21 5.2-9.4.5-.84.67-1.51 2.35-.5 3.86 2.35 8.05 4.03 11.91 6.21 6.21 3.19 12.08 6.71 18.12 10.07 2.01 1.34 4.19 2.52 6.21 3.86 1.01.67 1.68 1.68.84 3.19-4.36 7.05-8.22 14.26-12.42 21.81-2.68 4.36-5.37 8.56-8.05 13.09-3.19 6.21-6.71 12.75-10.24 18.96-2.18 4.03-4.7 8.05-6.88 12.08l-9.06 15.77c-13.57-7.55-27-15.1-40.59-22.82zm85.91 24.33c.17-3.69.5-7.05.84-10.57-.17.17-.33.17-.5.17 2.68-7.38 2.18-16.11 3.52-23.99.67-4.03 1.01-8.05 1.51-12.08.34-1.85-.17-6.21.84-7.72 1.34-8.39 1.68-16.78 3.19-25 1.51-7.89 3.02-15.44 3.86-23.49 25-2.85 50-5.54 75-5.54 1.85 8.39 3.86 16.61 5.7 25 1.68 7.72 3.19 15.6 4.87 23.49.17 1.01.17 2.18.33 3.19 0 .67.34 1.17.5 1.68 1.34 2.85 1.01 7.21 1.85 10.4.84 3.52.67 7.89 2.35 11.24.34 1.68.5 3.52.84 5.37 1.01 4.03 2.52 7.55 2.01 11.75 1.51 1.68 4.03 8.73.84 10.07-3.19 1.34-6.88 1.01-10.4 1.34-7.72.67-17.11 3.36-24.83 2.68-5.2-.5-5.87-7.21-8.05-11.75-.84-1.51-10.4-1.01-12.25-1.17-4.87-.67-14.43-3.86-18.96-.84-3.52 2.52-5.7 11.75-6.54 15.77h-26.52z"/></svg>