<svg xmlns="http://www.w3.org/2000/svg" xml:space="preserve" viewBox="0 0 512 128"><path stroke="null" d="M400.4148 42.4695c1.947-3.3212 1.947-7.444 0-10.7653-1.9469-3.3212-5.4971-5.3826-9.2764-5.3826-3.8938 0-7.444-2.0614-9.2765-5.3826-1.9469-3.3212-5.4971-5.3827-9.2764-5.3827-3.8939 0-7.444 2.0615-9.2765 5.3827-1.9469 3.3212-5.4971 5.3826-9.2764 5.3826-3.8939 0-7.444 2.0614-9.2765 5.3826-1.9469 3.3212-1.9469 7.444 0 10.7653 1.947 3.3212 1.947 7.444 0 10.7652-1.9469 3.3212-1.9469 7.4441 0 10.7653 1.947 3.3212 1.947 7.444 0 10.7653-1.9469 3.3212-1.9469 7.444 0 10.7652 1.947 3.3212 1.947 7.444 0 10.7653-1.9469 3.3212-1.9469 7.444 0 10.7652 1.947 3.3212 5.4972 5.3827 9.2765 5.3827 3.8938 0 7.444-2.0615 9.2764-5.3827 1.947-3.3212 1.947-7.444 0-10.7652-1.9469-3.3212-1.9469-7.444 0-10.7653 1.947-3.3212 5.4972-5.3826 9.2765-5.3826 3.8938 0 7.444 2.0614 9.2764 5.3826 1.947 3.3212 1.947 7.444 0 10.7653-1.9469 3.3212-1.9469 7.444 0 10.7652 1.947 3.3212 5.4972 5.3827 9.2765 5.3827 3.8938 0 7.444-2.0615 9.2764-5.3827 1.947-3.3212 1.947-7.444 0-10.7652-1.9469-3.3212-1.9469-7.444 0-10.7653 1.947-3.3212 1.947-7.444 0-10.7652-1.9469-3.3212-1.9469-7.4441 0-10.7653 1.947-3.3212 1.947-7.444 0-10.7653-1.9469-3.3212-1.9469-7.444 0-10.7652zM363.08 53.2347c-1.947-3.3212-1.947-7.444 0-10.7652 1.9469-3.3212 5.4971-5.3826 9.2764-5.3826 3.8939 0 7.444 2.0614 9.2765 5.3826 1.9469 3.3212 1.9469 7.444 0 10.7652-1.947 3.3212-5.4972 5.3827-9.2765 5.3827s-7.3295-2.0615-9.2764-5.3827zm-47.642-23.1338a9.6229 9.6229 0 0 0 0-9.62c-1.7179-3.0922-4.9246-4.9246-8.3603-4.9246-3.4357 0-6.6424 1.8324-8.3602 4.81a9.6229 9.6229 0 0 0 0 9.62 9.6229 9.6229 0 0 1 0 9.62 9.6229 9.6229 0 0 0 0 9.6201 9.6229 9.6229 0 0 1 0 9.62 9.6229 9.6229 0 0 0 0 9.62 9.6229 9.6229 0 0 1 0 9.62 9.6229 9.6229 0 0 0 0 9.62 9.6229 9.6229 0 0 1 0 9.6201 9.6229 9.6229 0 0 0 0 9.62c1.7178 2.9776 4.9245 4.81 8.3602 4.81 3.4357 0 6.6424-1.8324 8.3603-4.81a9.6229 9.6229 0 0 0 0-9.62 9.6229 9.6229 0 0 1 0-9.62 9.6229 9.6229 0 0 0 0-9.62 9.6229 9.6229 0 0 1 0-9.62 9.6229 9.6229 0 0 0 0-9.62 9.6229 9.6229 0 0 1 0-9.6201 9.6229 9.6229 0 0 0 0-9.62c-1.7179-2.8631-1.7179-6.5279 0-9.5055zm-62.5302 58.0637c-1.7178 2.9776-4.9245 4.81-8.3602 4.81-3.4357 0-6.6424-1.8324-8.3603-4.81a9.6229 9.6229 0 0 1 0-9.62c1.7179-2.9777 4.9246-4.81 8.3603-4.81 3.4357 0 6.6424-1.8324 8.3602-4.81a9.6229 9.6229 0 0 0 0-9.62c-1.7178-2.9777-4.9245-4.8101-8.3602-4.8101-3.4357 0-6.6424-1.8324-8.3603-4.81a9.6229 9.6229 0 0 1 0-9.62c1.7179-2.9777 4.9246-4.81 8.3603-4.81 3.4357 0 6.6424 1.8323 8.3602 4.81 1.718 2.9776 4.9246 4.81 8.3603 4.81 3.4357 0 6.6424-1.8324 8.3603-4.81a9.6229 9.6229 0 0 0 0-9.62c-1.7179-2.9777-4.9246-4.81-8.3603-4.81-3.4357 0-6.6424-1.8324-8.3603-4.81-1.7178-2.9777-4.9245-4.81-8.3602-4.81-3.4357 0-6.6424 1.8323-8.3603 4.81-1.7178 2.9776-4.9245 4.81-8.3602 4.81-3.4358 0-6.6424 1.8323-8.3603 4.81a9.6229 9.6229 0 0 0 0 9.62 9.6229 9.6229 0 0 1 0 9.62 9.6229 9.6229 0 0 0 0 9.62 9.6229 9.6229 0 0 1 0 9.62 9.6229 9.6229 0 0 0 0 9.62 9.6229 9.6229 0 0 1 0 9.62 9.6229 9.6229 0 0 0 0 9.62c1.7179 2.9777 4.9245 4.8101 8.3603 4.8101 3.4357 0 6.6424 1.8324 8.3602 4.81 1.7179 2.9776 4.9246 4.81 8.3603 4.81 3.4357 0 6.6424-1.8324 8.3602-4.81 1.718-2.9776 4.9246-4.81 8.3603-4.81 3.4357 0 6.6424-1.8324 8.3603-4.81a9.6229 9.6229 0 0 0 0-9.62c-1.7179-2.9777-4.9246-4.81-8.3603-4.81-3.4357-.1146-6.6424 1.8323-8.3603 4.81zm-57.6056-61.843c-3.8938 0-7.444-2.0614-9.2764-5.3826-1.947-3.3212-5.4972-5.3827-9.2765-5.3827-3.8938 0-7.444 2.0615-9.2764 5.3827-1.947 3.3212-5.4972 5.3826-9.2765 5.3826-3.8938 0-7.444-2.0614-9.2764-5.3826-2.0614-3.3212-5.6117-5.3827-9.5055-5.3827-3.8938 0-7.444 2.0615-9.2765 5.3827-1.9469 3.3212-5.4971 5.3826-9.2764 5.3826-3.8938 0-7.444 2.0614-9.2765 5.3826-1.9469 3.3212-1.9469 7.444 0 10.7653 1.947 3.3212 5.4972 5.3826 9.2765 5.3826 3.8938 0 7.444-2.0614 9.2764-5.3826 1.947-3.3212 5.4972-5.3826 9.2765-5.3826 3.8938 0 7.444 2.0614 9.2764 5.3826 1.947 3.3212 1.947 7.444 0 10.7652-1.9469 3.3212-1.9469 7.4441 0 10.7653 1.947 3.3212 1.947 7.444 0 10.7653-1.9469 3.3212-1.9469 7.444 0 10.7652 1.947 3.3212 1.947 7.444 0 10.7653-1.9469 3.3212-1.9469 7.444 0 10.7652 1.947 3.3212 5.4972 5.3827 9.2765 5.3827 3.8938 0 7.444-2.0615 9.2764-5.3827 1.947-3.3212 1.947-7.444 0-10.7652-1.9469-3.3212-1.9469-7.444 0-10.7653 1.947-3.3212 1.947-7.444 0-10.7652-1.9469-3.3212-1.9469-7.4441 0-10.7653 1.947-3.3212 1.947-7.444 0-10.7653-1.9469-3.3212-1.9469-7.444 0-10.7652 1.947-3.3212 5.4972-5.3826 9.2765-5.3826 3.8938 0 7.444 2.0614 9.2764 5.3826 1.947 3.3212 5.4972 5.3826 9.2765 5.3826 3.8938 0 7.444-2.0614 9.2764-5.3826 1.947-3.3212 1.947-7.444 0-10.7653-1.6033-3.3212-5.1535-5.3826-9.0474-5.3826z"/></svg>