<?xml version="1.0" standalone="no"?>
<!DOCTYPE svg PUBLIC "-//W3C//DTD SVG 20010904//EN"
 "http://www.w3.org/TR/2001/REC-SVG-20010904/DTD/svg10.dtd">
<svg version="1.0" xmlns="http://www.w3.org/2000/svg"
 width="1028.000000pt" height="1028.000000pt" viewBox="0 0 1028.000000 1028.000000"
 preserveAspectRatio="xMidYMid meet">
<metadata>
Created by potrace 1.14, written by Peter Selinger 2001-2017
</metadata>
<g transform="translate(0.000000,1028.000000) scale(0.100000,-0.100000)"
fill="#000000" stroke="none">
<path d="M6127 6346 c-104 -29 -147 -93 -147 -216 1 -145 54 -203 206 -224 50
-7 142 7 190 30 71 34 105 127 90 248 -14 108 -82 162 -216 171 -48 3 -93 0
-123 -9z"/>
<path d="M2320 5945 c0 -272 -3 -289 -63 -325 -29 -18 -51 -20 -254 -20 l-223
0 0 -145 0 -145 260 0 260 0 0 -508 c0 -534 3 -584 45 -678 26 -59 98 -135
156 -165 86 -43 144 -49 522 -49 l358 0 -3 143 -3 142 -357 3 -358 2 0 555 0
555 360 0 361 0 -3 143 -3 142 -357 3 -358 2 0 295 0 295 -170 0 -170 0 0
-245z"/>
<path d="M4300 5629 c-189 -17 -346 -91 -470 -219 -154 -160 -230 -377 -230
-660 0 -70 7 -166 15 -213 58 -331 260 -559 565 -639 107 -28 333 -30 446 -5
137 30 259 89 354 170 42 37 132 146 128 157 -5 12 -210 190 -219 190 -5 0 -9
-4 -9 -10 0 -5 -27 -38 -60 -73 -110 -118 -255 -173 -430 -164 -254 13 -414
166 -428 410 l-4 87 601 0 601 0 0 128 c0 202 -25 313 -103 467 -59 116 -181
237 -297 294 -141 69 -295 96 -460 80z m272 -306 c140 -66 228 -210 228 -375
l0 -58 -420 0 -420 0 0 58 c0 135 78 275 195 350 78 50 131 63 245 59 94 -2
112 -6 172 -34z"/>
<path d="M7715 5629 c-201 -15 -373 -86 -489 -203 -57 -56 -103 -125 -90 -134
6 -4 54 -43 108 -86 l97 -79 17 24 c109 156 294 230 498 199 91 -14 144 -38
197 -88 55 -54 78 -124 84 -264 l6 -116 -284 -4 c-266 -4 -290 -6 -380 -30
-274 -74 -399 -220 -399 -468 0 -300 192 -487 519 -507 109 -6 230 15 317 56
84 40 171 126 204 203 25 57 50 76 50 38 0 -45 44 -135 87 -177 67 -64 138
-83 314 -83 l139 0 0 140 0 139 -107 3 -108 3 -5 500 c-5 486 -6 502 -28 559
-12 33 -33 78 -46 100 -120 202 -368 300 -701 275z m423 -1121 c-3 -110 -9
-163 -20 -189 -58 -132 -280 -215 -473 -176 -152 31 -205 96 -205 250 0 103
14 143 68 187 75 61 161 77 436 79 l198 1 -4 -152z"/>
<path d="M5470 5455 l0 -145 288 -2 287 -3 3 -552 2 -553 -290 0 -290 0 0
-145 0 -145 735 0 735 0 0 145 0 145 -270 0 -270 0 0 700 0 700 -465 0 -465 0
0 -145z"/>
</g>
</svg>
