<svg xmlns="http://www.w3.org/2000/svg" xml:space="preserve"  viewBox="0 0 512 128"><g stroke="null"><path d="M114.55 56.1406h15.7188v15.7188H114.55zm15.7188 47.1564h15.7188v15.7188h-15.7188zm0-62.8752h15.7188v15.7188h-15.7188zm15.7189 62.8752h15.7188v15.7188h-15.7188zm0-15.7188h15.7188v15.7188h-15.7188zm0-15.7188h15.7188v15.7188h-15.7188zm0-15.7188h15.7188v15.7188h-15.7188zm0-15.7188h15.7188v15.7188h-15.7188zm0-15.7189h15.7188v15.7188h-15.7188zm15.7188 78.5941h15.7188v15.7188h-15.7188zm0-62.8752h15.7188v15.7188h-15.7188zm15.7188 15.7188h15.7188v15.7188h-15.7188zm15.68 47.1564h15.7188v15.7188h-15.7188zm0-15.7188h15.7188v15.7188h-15.7188zm0-15.7188h15.7188v15.7188h-15.7188z"/><path d="M193.1053 56.1406h15.7188v15.7188h-15.7188zm0-15.7188h15.7188v15.7188h-15.7188zm15.7188 62.8752h15.7188v15.7188h-15.7188zm0-31.4376h15.7188v15.7188h-15.7188zm0-31.4376h15.7188v15.7188h-15.7188zm0-15.7189h15.7188v15.7188h-15.7188zm15.7188 78.5941h15.7188v15.7188h-15.7188zm0-31.4376h15.7188v15.7188h-15.7188zm0-31.4376h15.7188v15.7188h-15.7188zm15.7189 15.7188h15.7188v15.7188h-15.7188zm15.7188 47.1564h15.7188v15.7188h-15.7188zm0-62.8752h15.7188v15.7188h-15.7188zm15.7188 62.8752h15.7188v15.7188h-15.7188zm0-15.7188h15.7188v15.7188h-15.7188zm0-15.7188h15.7188v15.7188h-15.7188zm0-15.7188h15.7188v15.7188h-15.7188zm0-15.7188h15.7188v15.7188h-15.7188zm0-31.4377h15.7188v15.7188h-15.7188zm15.7189 94.3129h15.7188v15.7188h-15.7188zm0-62.8752h15.7188v15.7188h-15.7188zm15.7188 15.7188h15.7188v15.7188h-15.7188zm15.7188 47.1564h15.7188v15.7188h-15.7188zm0-15.7188h15.7188v15.7188h-15.7188zm0-15.7188h15.7188v15.7188h-15.7188zm0-31.4376h15.7188v15.7188h-15.7188zm15.7188 31.4376h15.7188v15.7188h-15.7188zm0-31.4376h15.7188v15.7188h-15.7188zm0-15.7189h15.7188v15.7188h-15.7188zm15.7188 78.5941h15.7188v15.7188h-15.7188zm0-15.7188h15.7188v15.7188h-15.7188zm0-15.7188h15.7188v15.7188h-15.7188zm0-15.7188h15.7188v15.7188h-15.7188zm0-15.7188h15.7188v15.7188h-15.7188zm15.7189 62.8752h15.7188v15.7188h-15.7188zm0-47.1564h15.7188v15.7188h-15.7188zm15.7188-15.7188H397.45v15.7188h-15.7188z"/></g></svg>