<svg xmlns="http://www.w3.org/2000/svg" xml:space="preserve" viewBox="0 0 512 128"><path stroke="null" d="M193.066 29.207h-14.002c-2.596 0-3.614 2.743-3.614 5.199v6.496c0 2.743-1.732 3.178-3.9 2.02l-11.408-6.496c-1.157-.723-2.307-.862-2.307-3.178v-1.733c0-1.733-1.01-2.308-2.456-2.308h-15.44c-2.743 0-4.189-1.445-4.189-4.188v-7.367c0-2.595 1.298-4.188 4.041-4.188h53.563c2.89 0 4.188 1.445 4.188 4.188v7.367c0 2.883-1.872 4.188-4.476 4.188zm-35.371 48.94V51.29c0-3.9 2.168-5.486 5.773-3.465l7.942 4.475c1.733 1.01 4.04 2.743 4.04 5.051v13.28c0 2.89-1.157 4.189-3.613 5.634l-8.377 5.05c-3.597 2.169-5.765.436-5.765-3.17zm13.862 36.381c2.456 0 4.041-1.445 4.041-4.04l-.148-18.914c0-4.04-2.168-5.338-5.633-3.178l-8.804 5.346c-2.308 1.445-3.318 2.595-3.318 5.338l.147 11.547c0 2.743 1.733 3.901 4.328 3.901h9.387zm40.711-84.311c-2.596-1.585-3.901-3.03-3.901-5.486v-7.366c0-2.596 1.733-3.901 4.04-3.901h43.454c2.168 0 3.9 1.733 3.9 3.9v7.795c0 2.308-1.732 4.04-3.9 4.04h-21.797c-4.911 0-6.784 1.446-8.081 5.051-.863 2.308-2.456 2.89-5.199 1.158l-8.517-5.19zm-3.894 54.573V43.932c0-1.88.863-3.03 2.456-3.03 1.158 0 2.02.575 3.318 1.298l7.942 4.91c2.595 1.586 4.04 2.456 4.04 4.912 0 2.308 1.01 2.89 4.328 2.89h14.586c2.743 0 4.04 1.298 4.04 4.041l.148 6.931c0 2.891-1.445 4.041-4.188 4.041h-14.725c-3.466 0-4.189 1.585-4.189 5.346 0 3.753-1.297 4.764-3.613 6.209l-8.369 5.183c-1.298.723-2.456 1.298-3.318 1.298-1.593 0-2.456-1.01-2.456-3.17zm25.698 14.003h21.796a3.884 3.884 0 0 1 3.901 3.9v7.795c0 2.307-1.733 4.04-3.9 4.04h-43.454c-2.308 0-4.04-1.733-4.04-4.04v-6.349c0-2.456 1.297-3.9 3.9-5.486l8.517-5.199c2.455-1.445 4.328-1.157 5.198 1.158 1.298 3.598 3.17 4.18 8.082 4.18zm60.222-81.428v6.496c0 3.318-1.01 4.476-3.318 5.921l-8.804 5.486c-3.466 2.168-5.634 1.01-5.634-3.178V17.365a3.884 3.884 0 0 1 3.9-3.901h9.815c2.308 0 4.04 1.733 4.04 3.9zm-5.774 63.96c3.606 2.168 5.774.435 5.774-3.179v-32.48c0-3.902-2.168-5.634-5.774-3.466l-8.951 5.486c-2.168 1.297-3.031 2.595-3.031 4.91V70.5c0 2.89 1.158 4.188 3.606 5.634l8.376 5.19zm5.774 29.302c0 2.168-1.733 3.901-4.04 3.901h-9.823a3.884 3.884 0 0 1-3.9-3.9V91.425c0-4.188 2.167-5.346 5.633-3.178l8.804 5.486c2.308 1.446 3.318 2.596 3.318 5.921l.008 10.972zm14.313-2.02 4.328-20.359c.87-4.328 1.881-6.06 5.199-8.081l10.972-6.497c3.9-2.307 5.634-2.89 9.1-2.89h6.348c3.03 0 4.763-1.88 4.328-5.051l-3.318-22.667c-.435-2.595 0-3.753 2.596-5.198l6.783-3.754c3.03-1.732 5.051-1.297 5.774 2.168l9.962 48.365c.722 3.465-1.585 4.475-3.03 4.475-2.456 0-13.864-4.328-22.38-4.328h-7.359c-5.05 0-7.071 1.446-7.941 5.774l-3.606 19.776c-.575 2.89-2.168 4.188-5.486 4.188H312.5c-3.753 0-4.763-2.02-3.893-5.92zm8.804-45.046 10.972-46.484c.288-1.297 2.168-3.613 4.911-3.613h18.191c2.891 0 4.189 1.298 4.189 3.9v2.169c0 2.89-1.158 4.188-3.606 5.486l-8.229 4.328c-2.743 1.445-3.466 3.466-4.04 6.209L335.897 52.3c-1.586 6.644-1.298 6.784-5.774 9.527l-8.081 5.051c-3.474 2.168-5.502.435-4.632-3.318zm39.848 46.779-1.733-9.814c-.435-2.743 1.01-4.189 4.188-3.466l10.11 2.455c3.178.723 4.763 1.733 5.338 4.911l1.01 6.21c.436 2.89-1.01 3.9-3.465 3.9h-9.814c-3.179-.008-5.059-.73-5.634-4.196z"/></svg>