<svg xmlns="http://www.w3.org/2000/svg" xml:space="preserve" stroke-linecap="round" stroke-linejoin="round"
    stroke-miterlimit="10" clip-rule="evenodd" viewBox="0 0 512 128">
    <path fill="currentColor"
        d="m155.28 1-27.94.62-27.04.6V127.8l26.85-.62 27.1-.6.62-62.8.4-62.8Zm136.58.21-61.56.4-61.77.63-.62 28.12-.6 27.94h124.55V1.2Zm12.23 2.03V64.4c0 33.64.41 61.16 1.03 61.16.6 0 28.74-13.87 62.58-30.8L429.47 64l-60.13-30.37C336.3 17.11 307.98 3.45 306.76 3.45l-2.67-.21ZM167.51 70.53v55.04h124.35V70.53H167.51Z" />
</svg>