<svg xmlns="http://www.w3.org/2000/svg" fill="currentColor" xml:space="preserve" viewBox="0 0 1133.9 283.5">
	<path
		d="M501 59.7H376.8c-2.8 0-5.2 2.3-5.2 5.2v53.5c0 2.8 2.3 5.2 5.2 5.2s5.2-2.3 5.2-5.2V70h51.8v143.4h-33.4c-2.8 0-5.2 2.3-5.2 5.2s2.3 5.2 5.2 5.2h77.2c2.8 0 5.2-2.3 5.2-5.2s-2.3-5.2-5.2-5.2h-33.4V70H496v48.4c0 2.8 2.3 5.2 5.2 5.2s5.2-2.3 5.2-5.2V64.9c-.2-2.9-2.6-5.2-5.4-5.2zM839.3 70c2.8 0 5.2-2.3 5.2-5.2 0-2.8-2.3-5.2-5.2-5.2h-98.1c-2.8 0-5.2 2.3-5.2 5.2 0 2.8 2.3 5.2 5.2 5.2h43.9v143.4h-43.9c-2.8 0-5.2 2.3-5.2 5.2s2.3 5.2 5.2 5.2h98.1c2.8 0 5.2-2.3 5.2-5.2s-2.3-5.2-5.2-5.2h-43.9V70h43.9zm-162.8 94.8c-2.8 0-5.2 2.3-5.2 5.2v43.4H578V144h43.9v19.4c0 2.8 2.3 5.2 5.2 5.2 2.8 0 5.2-2.3 5.2-5.2v-24c0-.2.1-.4.1-.6s0-.4-.1-.6v-24c0-2.8-2.3-5.2-5.2-5.2-2.8 0-5.2 2.3-5.2 5.2v19.5H578V70h85.8v32.5c0 2.8 2.3 5.2 5.2 5.2 2.8 0 5.2-2.3 5.2-5.2V64.9c0-2.8-2.3-5.2-5.2-5.2H547c-2.8 0-5.2 2.3-5.2 5.2 0 2.8 2.3 5.2 5.2 5.2h20.7v143.4H547c-2.8 0-5.2 2.3-5.2 5.2s2.3 5.2 5.2 5.2h129.5c2.8 0 5.2-2.3 5.2-5.2V170c-.1-2.9-2.4-5.2-5.2-5.2zm375.2 48.6h-12L978.6 62.9c-.8-1.9-2.7-3.2-4.8-3.2h-58.7c-2.8 0-5.2 2.3-5.2 5.2 0 2.8 2.3 5.2 5.2 5.2h41.8l-58.2 143.4h-14.1c-2.8 0-5.2 2.3-5.2 5.2s2.3 5.2 5.2 5.2h54c2.8 0 5.2-2.3 5.2-5.2s-2.3-5.2-5.2-5.2h-28.7l18.8-46.3h81.2l18.8 46.3h-30.9c-2.8 0-5.2 2.3-5.2 5.2s2.3 5.2 5.2 5.2h53.9c2.8 0 5.2-2.3 5.2-5.2s-2.3-5.3-5.2-5.3zm-118.9-56.6L968 70h2.3l35.2 86.7h-72.7zm-616.4-15.1c0-33.1-16.5-62.4-41.8-80l20.8-33.1c.1-.2.2-.5.3-.7 0-.1.1-.2.1-.2.8-2.3 0-4.9-2.1-6.2C271.3 7.4 245.3 0 218.7 0c-18.7 0-36.5 3.6-52.8 10.2-.1 0-.3.1-.4.1-.1 0-.2.1-.2.1C113.5 31.6 77 82.5 77 141.7c0 51 27.1 95.9 67.7 120.8.1.1.3.2.4.3.2.1.5.3.7.4 21.3 12.8 46.2 20.2 72.9 20.2 27 0 53.3-7.6 76-22.1 2.1-1.3 2.9-3.9 2.1-6.1v-.1l-.3-.6c-.1-.1-.1-.2-.2-.3l-20.9-33.1c24.8-17.6 41-46.6 41-79.4zm-10.5-5.1H269c-2.6-25.5-24.2-45.4-50.3-45.4-4.2 0-8.3.5-12.2 1.5l-14.6-34c8.6-2.8 17.6-4.2 26.8-4.2 46.4-.1 84.5 36.3 87.2 82.1zm-137.5 10.3c1.5 14.5 9.2 27.3 20.3 35.5l-19.3 31.3c-21.6-14.8-36.2-39.1-37.9-66.9h36.9zm29.2 40.8c6.4 3 13.6 4.6 21.1 4.6 8.2 0 16-2 22.8-5.5l19.7 31.2c-12.6 7-27.1 11.1-42.5 11.1-14.6 0-28.4-3.6-40.5-10l19.4-31.4zm21.1-5.7c-22.2 0-40.3-18.1-40.3-40.3s18.1-40.3 40.3-40.3 40.3 18.1 40.3 40.3-18.1 40.3-40.3 40.3zm65.1-154.4-18 28.7c-14-7.7-30.1-12.2-47.1-12.2-10.6 0-21 1.7-30.9 5L174.4 18c13.8-5 28.8-7.7 44.3-7.7 22.9 0 45.3 6 65.1 17.3zM87.3 141.7c0-53.3 31.9-99.3 77.5-119.9l31.9 74.3c-15.5 7.5-26.6 22.6-28.4 40.4h-42.2c-2.8 0-5.2 2.3-5.2 5.2 0 33.6 17 63.2 42.9 80.8l-17.7 28.7c-35.4-23.5-58.8-63.8-58.8-109.5zm197.4 113.7c-20 11.6-42.7 17.8-66 17.8-23.1 0-44.8-6-63.7-16.5l17.7-28.8c13.7 7.3 29.3 11.5 45.9 11.5 17.4 0 33.8-4.6 48-12.6l18.1 28.6zm-14.8-42.9-19.7-31.2c10.4-8.3 17.4-20.5 18.8-34.4h36.9c-1.6 26.9-15.4 50.6-36 65.6z" />
</svg>