<svg xmlns="http://www.w3.org/2000/svg" data-name="Ebene 2" viewBox="0 0 512 128"><path stroke="null" d="M179.572 61.676h60.179v65.132h-60.179zM114.135 1.192h65.132v60.179h-65.132zM305.984 29.06a3.818 3.818 0 0 0-.648-1.002 3.37 3.37 0 0 0-.934-.727 4.73 4.73 0 0 0-1.13-.413c-.393-.088-.786-.127-1.19-.127s-.795.039-1.188.127-.767.226-1.13.413-.668.433-.934.727a3.818 3.818 0 0 0-.648 1.003 4.782 4.782 0 0 0-.354 1.14 7.977 7.977 0 0 0-.098 1.189v.412h8.706v-.412c0-.403-.03-.796-.098-1.19a3.935 3.935 0 0 0-.354-1.14zM240.056 1.193v60.18h157.809V1.191H240.056zm79.214 17.973c.079-.255.206-.481.393-.668a1.74 1.74 0 0 1 .668-.413c.256-.088.521-.128.796-.128s.54.04.796.128c.256.089.472.226.668.413.187.187.325.413.413.668.089.256.128.52.128.796s-.04.54-.128.796a1.816 1.816 0 0 1-.413.668 1.493 1.493 0 0 1-.668.393c-.255.079-.52.108-.796.108s-.54-.039-.796-.108a1.65 1.65 0 0 1-.668-.393 1.493 1.493 0 0 1-.393-.668c-.079-.255-.108-.52-.108-.796s.04-.54.108-.796zm-29.136 1.052h-5.818v21.029h-2.604v-21.03h-5.818v-2.319h14.23v2.32h.01zM309.06 34.16h-11.34v.413c0 .402.03.805.098 1.208.059.403.177.786.354 1.14.167.364.393.698.678 1.003.285.304.6.55.953.727.354.177.727.304 1.13.383.403.079.806.108 1.209.108.462 0 .924-.03 1.366-.098a4.313 4.313 0 0 0 1.287-.383c.413-.187.767-.462 1.061-.826s.462-.776.511-1.238h2.634a5.005 5.005 0 0 1-.364 1.523 4.987 4.987 0 0 1-.805 1.317c-.334.393-.728.727-1.18 1.002s-.913.492-1.415.649a7.362 7.362 0 0 1-1.523.314c-.52.05-1.041.079-1.572.079-.61 0-1.238-.05-1.857-.157a6.49 6.49 0 0 1-1.779-.57c-.56-.276-1.071-.63-1.523-1.062s-.826-.933-1.11-1.493a6.315 6.315 0 0 1-.6-1.76 9.88 9.88 0 0 1-.177-1.876V31.39c0-.61.05-1.239.157-1.858a6.092 6.092 0 0 1 .59-1.759 5.853 5.853 0 0 1 1.11-1.493c.452-.442.954-.806 1.514-1.081s1.14-.462 1.759-.57c.629-.108 1.248-.157 1.857-.157s1.228.049 1.857.157a6.256 6.256 0 0 1 1.76.57c.55.275 1.05.639 1.513 1.08.452.443.825.944 1.11 1.494.285.55.481 1.14.59 1.76.108.628.157 1.247.157 1.857v2.761l-.01.01zm18.455 7.085H314.75v-2.349h5.336v-11.85h-4.825v-2.32h7.429v14.17h4.825v2.349zm19.408 0h-2.634v-2.86c-.236.511-.56.973-.973 1.386a5.578 5.578 0 0 1-1.385 1.012 5.861 5.861 0 0 1-1.602.56c-.56.108-1.13.157-1.7.157-.442 0-.894-.029-1.346-.098a5.121 5.121 0 0 1-1.317-.354c-.423-.167-.816-.393-1.18-.678s-.658-.619-.903-1.002a3.819 3.819 0 0 1-.521-1.238 5.768 5.768 0 0 1-.158-1.366c0-.59.099-1.17.285-1.73.187-.56.492-1.051.895-1.474.403-.422.864-.766 1.385-1.031s1.062-.482 1.641-.64a9.548 9.548 0 0 1 1.73-.314 20.62 20.62 0 0 1 1.73-.078h3.429V30.23c0-.334-.04-.678-.128-1.012a3.02 3.02 0 0 0-.413-.924 2.926 2.926 0 0 0-.717-.717 3.744 3.744 0 0 0-.904-.462 5.49 5.49 0 0 0-.983-.226 8.867 8.867 0 0 0-2.397.05 4.467 4.467 0 0 0-1.307.441 2.72 2.72 0 0 0-1.013.934 2.318 2.318 0 0 0-.393 1.307h-2.633c0-.53.088-1.052.265-1.553.177-.51.433-.973.767-1.385a4.975 4.975 0 0 1 1.16-1.062c.441-.294.913-.53 1.414-.697a8.177 8.177 0 0 1 1.543-.354c.53-.069 1.061-.098 1.592-.098.57 0 1.14.039 1.7.108.56.078 1.1.216 1.622.412a6.66 6.66 0 0 1 1.464.806c.452.344.845.737 1.16 1.209.314.462.54.973.667 1.523s.187 1.11.187 1.68v11.026l-.03.01zm-7.115-7.4a6.16 6.16 0 0 0-1.051.148c-.334.078-.678.167-1.013.265a3.425 3.425 0 0 0-.953.462c-.295.206-.53.462-.697.776a2.093 2.093 0 0 0-.256.983c0 .442.118.855.354 1.238s.53.688.904.904a3.32 3.32 0 0 0 1.209.442c.432.079.874.109 1.316.109.384 0 .767-.03 1.14-.099a6.139 6.139 0 0 0 1.11-.285c.364-.127.698-.304 1.013-.54s.59-.511.806-.826a2.89 2.89 0 0 0 .462-1.051c.088-.383.127-.767.127-1.14v-1.425h-3.43c-.343 0-.687.01-1.05.03l.01.01z" data-name="Layer 1"/></svg>