<svg width="16" height="16" viewBox="0 0 16 16" fill="none" xmlns="http://www.w3.org/2000/svg">
    <path fill-rule="evenodd" clip-rule="evenodd"
        d="M1.39844 2.99844C1.39844 2.11478 2.11478 1.39844 2.99844 1.39844H12.9984C13.8821 1.39844 14.5984 2.11478 14.5984 2.99844V5.99844C14.5984 6.88209 13.8821 7.59844 12.9984 7.59844H2.99844C2.11478 7.59844 1.39844 6.88209 1.39844 5.99844V2.99844ZM2.99844 2.59844C2.77752 2.59844 2.59844 2.77752 2.59844 2.99844V5.99844C2.59844 6.21935 2.77752 6.39844 2.99844 6.39844H12.9984C13.2194 6.39844 13.3984 6.21935 13.3984 5.99844V2.99844C13.3984 2.77752 13.2194 2.59844 12.9984 2.59844H2.99844ZM1.39844 9.99844C1.39844 9.66707 1.66707 9.39844 1.99844 9.39844L13.9984 9.39844C14.3298 9.39844 14.5984 9.66707 14.5984 9.99844C14.5984 10.3298 14.3298 10.5984 13.9984 10.5984L1.99844 10.5984C1.66707 10.5984 1.39844 10.3298 1.39844 9.99844ZM1.99844 12.3984C1.66707 12.3984 1.39844 12.6671 1.39844 12.9984C1.39844 13.3298 1.66707 13.5984 1.99844 13.5984L13.9984 13.5984C14.3298 13.5984 14.5984 13.3298 14.5984 12.9984C14.5984 12.6671 14.3298 12.3984 13.9984 12.3984L1.99844 12.3984Z"
        fill="current" />
</svg>