<svg xmlns="http://www.w3.org/2000/svg" xml:space="preserve" viewBox="0 0 512 128"><path stroke="null" d="M185.987 23.31c0 .25-.25.881-.63 1.382-.5 1.26-.75 2.89-1.13 4.28-1.01 4.532-5.541 3.651-7.173 5.792v2.01c.38.501 1.26.752 1.89 1.26-.5.502-1.38 1.382-2.14 1.64-1.89.501-5.791 1.382-6.542 1.382-4.03 0-4.152-3.021-4.911-3.021-.38 0-2.52-.25-4.03-.25-.63 0-1.382.13-1.511.25 0 3.02-.38 5.282-1.64 8.812-.63 1.76-.88 3.271-.88 4.782 0 2.64 1.01 4.03.88 7.042-.25.76-.751 10.064-.751 13.715 0 1.13.13 2.261.25 3.65.13 5.913-1.64 9.063-1.26 15.105.13.5.88 1.01 1.01 1.51.13.25.13.38.13 1.13 0 1.762-.63 3.401-.63 5.162-.13 1.13-.13 2.261-1.01 3.271-.501 0-1.26.25-1.89.76-.25-.25-.63-.25-.88-.5v.129c0 .63 1.89 2.52 1.51 2.891-1.26 3.521-2.771 2.77-4.031 6.292-1.64 1.64-2.14 2.14-2.52 2.77-.76.63-5.032 1.51-7.173 1.51-1.01 0-1.89.13-2.77.13-1.89 0-3.021-.76-3.772-2.64-.25-.752-.13-2.771-.5-4.282-.13-1.38-.63-3.02-1.131-3.771-.63-1.381-1.01-2.77-1.01-4.402 0-2.641.76-5.161.88-7.423 0-.5-.63-1.26-.63-1.76.25-3.15.38-5.283.38-6.793 0-1.01 0-1.26-.13-1.76-.5-2.892-1.26-8.562-2.52-11.454-.25-.5-.129-1.01.501-1.26v-.13c0-1.51 1.51-2.39 1.01-3.65-.25.25-2.641 1.51-2.641 2.01 0-.88 2.64-3.02 2.52-4.03 0-.13-.13-.25-.25-.13 0-.5-.25-1.38-.751-2.52.25-2.77 2.77-8.812 2.64-11.574-.25-.25-.5-.25-1.26 0-.25-3.4-.379-5.912-.5-6.421l.13-1.51c-.38-.25-.63-.38-.88-.63 0 .129-.13.129-.13.129-.38 0-.38-4.402-.76-3.02 0-.501-.25-.881-.5-.881-.76 0-2.14 1.89-2.892 1.89-.25 0-.38-.25-.38-1.01l-.63.25c-.38.25-.75.38-1.26.38-1.64 0-3.9-1.01-5.282-1.01-1.26 0-2.77-.25-3.521-.63.13 0 1.89.25 2.14 0-.5-.38-1.38-.5-2.39-.5-3.772-.38-7.173-4.402-7.803-9.183-.25-.25-.25-.25-.88-.25-.5 0-.5.5-1.13.63-1.382.38-2.012 2.89-2.642 3.771-.25-1.26-.63-3.521-.63-4.531.13-2.14.5-3.021 1.64-3.901 0 .13.25.25.38.25.5-.38.88-1.13 1.26-1.64l-.75-1.38c-.502.379-.881 1.009-.881 1.51v-.13c0-.5.38-1.26.88-1.76-.25-.25-.25-.38-.25-1.01.13-3.401 2.52-1.89 6.162-4.402.63-.5 3.522-1.381 4.531-1.381.501 0 6.543 1.26 7.173 1.51 2.64-1.38 6.292-2.01 11.453-2.01 4.151 0 8.553.379 12.333.379 7.173 0 14.846-3.142 23.407-3.142 1.26 0 2.262 0 3.651.25.13-.25.5-.5.751-.38 2.14.631 3.271 2.521 4.911 3.902 2.39 1.89 4.402 5.032 6.922 8.053l-.25.25c.112.12.613.242 1.113.242zm-80.785 3.272c-1.38.25-2.261 2.77-2.64 3.4.759-1.26 2.01-2.64 2.64-3.4zm-2.261 1.39c.25-.501.25-1.131.38-1.64-.63 2.52-.38 1.38-.38 1.64zm1.001-2.65c.25.25.5.63.88.63l.13-.38c-.25 0-.751-.12-1.01-.25zm.63 4.28c.13-.129.5-.25.63-.25 0 .25-.63.5-.63.25zM127.1 68.235c0 .25.25.76.13.88h-.63c.25 0 .5-.5.5-.88zm2.52 10.444c0 .13.25.88.25 1.38-.25 0-.63-.5-1.38-1.51-.251.5-.251 1.01-.76 1.51v-1.13c0 .13.13.25.25.63v-.25c0-1.01-1.01-2.261-.13-3.142h.13c.63 0 1.13 1.26.75 2.011.26.25.64.5.89.5zm-1.14-18.876h.501l-.13 1.51c-.5.501-.88.63-1.01.13 0-.13-.129-.25-.129-.38.018-.38.268-.76.769-1.26zm.89 2.641v.25c0 .501-.25 1.131-.501 1.381 0 .38-.25.63-.63.38a.97.97 0 0 1 .13-1.26c.742-.872.871-1.001 1-.75zm-1.01 10.953h.5l.13 1.13h-.751c-.259-.25-.259-1.01.12-1.13zm.88-12.204.38-.751h.38l-.38.88-.38-.13zm0 3.012h1.26c0 .25-.38.76-.38 1.01 0-.25-.129-.63-.38-.88-.37 0-.5 0-.5-.13zm.25 10.573c.751.88.88 2.77 1.26 4.401-.25-1.13-1.01-2.01-1.13-3.4-.13.13-.25.5-.25.88 0-.241-.13-1.881.12-1.881zm0-15.855c.13-.13.25-.38.25-.5 0 .5-.63.75-.25.5zm0-.88c0-.13 0 0 .38-.881 0 .13 0 .25.13.25-.13.13-.26.38-.51.63zm.38-.881c.25-.88 1.64-3.65 1.64-3.901.12.38-.51 1.89-1.64 3.901zm.121-13.214c.38-.25.5-.25.63-.13.13.38-.371.38-.63.13zm.38 49.585.38.129-.38.63-.38-.13.38-.63zm1.76-49.706h-.5l-.13 2.52h.501l.13-2.52zm42.913-31.339-1.01-.25v.38l.88.25.13-.38zm88.759 85.195c-.13 3.4.25 4.652-1.01 5.161-1.51.63-3.4.25-5.282.25-3.9 0-3.27.76-6.162 1.01-1.76.25-4.781.88-6.792 1.26l-8.813 1.51c-.25.13-.25-.379-.75-.379.38.13-.38-.13-.76-.13-.88.38-1.64.13-2.39.13l-.63.5c.379.13.88.251 1.63.251-.13.13-.88.5-1.26.63.5.25 1.13.5 1.761.5.25 0 1.38.13 2.39.13.76.13 1.26 0 1.89 0 .501 0 9.184-.88 9.693-.88.501 0 .63.63 1.26.63h.13c.25-.38 1.26 0 .88-.63.13 0 .38.25 2.262.25v-.5l4.91-.38c-.88.13-1.76.38-2.26 1.01h-1.382l.13.25c1.26 0 2.52.25 3.521.38-1.38 0-2.39.13-3.4.25 0-.13 0-.13.13-.13-1.64-.25-3.902.13-7.044 1.01.88.13 1.632.25 2.262.25 2.14 0 4.781-.38 8.182-.759-3.522.63-9.063 1.51-9.693 1.51-.5 0-.88-.5-1.26-.5-.5 0-3.142.88-4.652 1.13-1.38.13-3.271.13-4.652.38-1.51.13-3.02.38-4.402.751-7.932 2.011-16.735 2.77-24.287 4.782-.88.13-2.891.38-3.651.38-2.52 0-2.14.38-6.542-1.26-.63-.13-1.89-1.131-3.4-2.642-3.022-2.52-5.162-6.542-5.162-10.193 0-2.261.63-5.411 1.26-6.421.38-7.172 3.271-17.366 3.901-24.037 0-.76 1.01-5.792 1.01-6.292 0-1.26-2.011-3.271-2.52-4.281-.63-1.01-1.13-3.02-1.13-4.782 0-4.652 3.65-7.301 3.65-8.933l-.25-4.401c-.13-.88-.5-2.011-1.13-2.892-.251 0-.752.25-1.01.501.25-.38.25-.88 0-1.51-.38-.13-.63-.63-.76-.88-.63-.881-.751-2.012-1.26-2.642-2.641-4.151-2.391-3.65-2.391-5.282 0-2.01.75-3.521 3.772-7.552.63-.76 2.14-1.51 2.89-2.261.881-.88-.129-2.641 2.262-3.522 3.651-2.01 7.673-3.521 11.704-4.652.25 0 .5-1.51 2.52-.75 3.15.38 4.03.5 6.042.5 7.422 0 13.964-1.26 29.949-1.26 7.422 0 12.454 1.51 13.844 4.151.5 1.26 1.13 3.772 1.13 4.911 0 6.163-8.933 4.03-9.942 6.922 0 .25.5.5.88 1.01V31c-1.26.38-2.77 1.01-4.152 1.762-.129 0-.5-.25-.63-.13-.63.38-1.38.38-1.76 0-1.51.38-3.021 1.13-4.532.88-.38 0-12.583 2.011-12.963 2.011-.63 0-1.76.13-2.641.13.38 0 .76-.13 1.13-.5h-.129c-.5.129-.63-.13-.88-.38-.88.25-2.011.759-2.641.759-.13 0-.501-.63-1.381-.38.76.5 1.13.5.63 1.64-.13.13-.25.25-.13.38 1.51-.38 3.651-.38 6.042-.76.13-.13-.25-.38-.76-.38.13 0 8.554-1.38 11.833-1.38.63 0 1.131.13 1.26.25.88 0 2.641-.5 3.272-.5.5 0 1.01.63 1.38.759-1.51.88-15.224 2.77-16.735 3.02v.501c-1.38.63-2.64 1.131-3.772 1.761h-1.63c-.501 0-.881.13-1.64.38.63.13 1.26.13 1.89.13-.501 0-1.01.379-3.272.379l.25.63c.13 0 .63-.25 1.131-.25-.88.63-1.89 1.01-1.76 2.14-.76.13-2.641.25-3.15 1.381-.13 0-.13.13 0 .25.759-.129 2.39-.25 3.771-.25.5 0 1.26-.5 1.89-.63 1.26-.38 4.911-.76 9.693-1.01-1.76.5-4.402 1.13-5.282 1.26-.5 0-1.381.38-2.011.63v.13c.13 0 .25.13.25.13.38 0 .75-.25 1.13-.25l.38.129c-.76.129-1.38 0-2.01 1.01.25.25.5.38 1.26.63 1.64.25 7.672-.25 11.323-.25 1.76 0 2.011 0 2.391.129.63.76 2.011 1.64 2.891 2.26.38.251 1.89 4.031 1.89 4.653 0 3.271-2.52 6.162-5.79 6.672-.251 0-.63.25-1.131.25-.63.25-1.381 1.13-1.64 1.76.25.13.25.25.38.25.88 0 2.01-2.01 3.141-2.01.5 0 1.26.38 1.89.63.25.13.38.76.13 1.13.63.501-5.541 2.262-5.032 2.771-.38.38-.25 1.26-.76 1.76-.38.38-1.26.501-1.51 1.26l-1.381-.25c0 .13-.13-.25.75 1.382-.63.38-1.639 1.64-2.77 1.76-1.26.13-2.52.13-3.65.13-4.402 0-4.782-1.01-8.183.88-2.14.76-4.53 1.51-4.151 3.142.25.76 0 3.15 1.76 3.15.63 0 8.053-.13 12.714-.38 1.76-.13 3.4-.38 5.032-.38 3.4 0 4.91-.5 6.041 0 .63.25.25 1.51-1.26 1.761-4.28.76-9.062 1.89-11.453 2.011-1.38 0-2.891.38-4.652.63-.25.25-.63.38-1.01.38-.63 0-1.38-.25-2.14-.13h-.13c-.5 0-.76-1.38-1.01-.759-2.26.88-2.52.25-3.52 1.26.25.5.129.63.379.76 1.26-.38 2.52-.63 3.27-.63 0 .129.13.25.13.5l.501 1.13c-.13-.129-.25-.25-.38-.25l-.13-.38v.251l-.129.13c-.38-.38-.76-.501-1.38-.501-.63 0-1.64.76-1.64 1.38-.501 0-.76 0-1.01.13.38.25.38.38.63.5 1.38.13 2.64.251 3.27.13l.251-.25c.38 0 .5 2.39 1.13 2.261l.251.25c3.901-.63 7.423-1.38 10.694-2.26-.38.129-1.01.63-1.51.759-1.01.25-2.642.38-3.651 1.26h-.13l.5.13c.501 0 1.26-.25 1.64-.63l22.398-.76c.5 0 2.39.5 2.891.5.63 0 .63-1.26 1.89-.5 1.26.13 1.76 1.01 3.021 1.51.5.5 1.13 1.381 2.011 1.89.76 1.26 3.142.501 3.142 3.021.38.88.76 2.14 1.01 2.641.785 1.468-1.226 1.347-1.356 1.597zM220.02 84.59l.25.38-.13.13c-.129.129-.129-.13-.25-.63.13 0 .13 0 .13.12zm.25.38.13.25c-.13 0-.13-.12-.13-.25zm.121-.121c.13.13.25.25.25.38l-.25-.38zm.25.371.13.38v.38l-.38-.76h.25zm0 0c.25 0 .5-.13.63 0v.38l-.13.38c.01.12-.24-.25-.5-.76zm1.64-.5c.25 0 .751-.13 1.13 0l-.5.25c-.25-.121-.38-.25-.63-.25zm2.011-1.26h-1.38v-.38h1.38v.38zm0 1.13-.63-.25.13-.38.63.25-.13.38zm2.02 3.65-2.52.38v.25l2.52-.379v-.25zm-1.51-5.03v-.38l1.01.25v.38l-1.01-.25zm7.293 3.02h-.13.13zm1.01-20.766 3.4.76c-.13-.76-.13-.13.38-1.26-1.64.25-2.78.25-3.78.5zm3.141 1.51h-.88c-.63 0-1.01 0-1.26.13.25.13.38.13 1.01.13.38-.01.759-.13 1.13-.26zm-1.252 19.006v-.38l1.89-.25v.38l-1.89.25zm2.391-.88c1.13 0 2.641-.251 3.772-.251-.76.13-1.76.38-2.641.38-.38-.009-.76-.009-1.13-.13zm3.142-4.411c.38 0 .76.13.88.25-.5.009-1.13-.25-.88-.25zm.38 28.818.76.25.129-.38-.88-.25-.01.38zm.5-29.19 2.391.251v.25l-2.39-.13v-.37zm2.77.372.251-.5.38.129-.38.38h-.25v-.01zm.752-.622h1.64v.38h-1.64v-.38zm.509 29.06h1.13v-.38h-1.13v.38zm2.132-77.004.38.25.5-.75-.38-.251-.5.75zm5.29 76.754h.501-.5zm6.413-2.01c-.88 0-1.76 0-2.52.129 1.13-.25 2.39-.13 3.142-.13h-.622zm1.14-80.536c.88.501 1.51 1.131 2.14 1.761-.38.38-.88.63-1.26.63-1.381 0-3.15-1.38-2.641-2.01l1.76-.38zm19.427 73.234c-.38-1.26.38 4.53-.501 4.03-2.14-1.01-2.641-1.89-2.641-3.9 0-.38.38-2.141.88-2.892.63.38 1.131.76 1.26.5-1.13-1.38-3.02-2.14-3.02-4.151 0-.76 1.13-1.381 1.13-2.011 0-1.01-1.13-3.4-1.76-3.901-1.01-1.01-1.01 2.14-1.01 2.77 0 1.26 2.261 5.912 2.14 8.683-.38 1.13-3.771-4.782-3.771-9.693 0-4.652 1.38-3.771 1.38-6.292l.501-27.938c.13-6.041-5.412-38.131 10.573-42.282 2.891-.38 3.02.5 3.65.63 3.401 1.01 5.412 0 8.053 0 6.793 0 7.173 11.453 7.173 15.855 0 2.14.76 6.162-.63 7.802-2.14 2.261-3.021 5.411-3.021 11.453l-.38 9.693c0 8.682 1.64 15.354 1.64 17.115v8.682c0 1.89 1.89 4.281 1.89 8.812 0 .76-.25 2.641-.25 11.574 0 7.423-4.03 12.205-9.693 12.205-6.671-.01-12.083-7.682-13.593-16.744zm21.637-53.978c0-1.51 1.01-3.4 2.011-2.52.25.63.38 1.01.38 1.76s-.88 4.031-1.51 3.522c-.501-.25-.88-2.132-.88-2.762zm1.89 10.564.25-.75c.501-1.01 1.131 1.51.76 2.14-.25 0-.38 1.51-1.01.38-.12-.51 0-1.26 0-1.77zm.501 5.662c-.38-1.38.38-1.01.76-.13.5.88 1.63 1.01 1.63 2.012 0 1.89-1.38 1.89-1.76 1.38-.371-.742-.25-2.502-.63-3.262zm93.965 54.997c.25-1.382 1.26-.881 2.14-2.262.13-.13.13-.25.13-.38 0-1.01-2.391-1.26-2.892-1.76-.5-.38-.76-1.761-1.26-2.52-.63-1.01-2.52-2.521-3.02-2.521-.501-.13 0 .13-.501.13-.63-.13-1.89-1.64-2.14-2.391-2.892-4.532-7.933-13.344-8.433-13.465-.5 0 0 .25-.63.13-.38 0-5.162-2.011-7.932-3.02-1.01-.38-1.89-.13-2.891-.251-.13.13 4.151 1.01 3.27 1.76-.129.13-.38.25-.63.13-1.01-.5-3.02-1.26-3.52-1.26a29.203 29.203 0 0 0-4.653-.38c-3.141 0-5.411.5-7.552 1.76-1.01.63 1.01 1.64 3.651 1.761.25.25-.38.751-.76.88-.759-.129-1.64.13-2.14 0-.25-.129.38-.379.25-.63-.13-.129-.25-.129-.38 0-.38.251-.25.881-.63 1.131s-.88.38-1.38.38c-.63-.13.5-.38-.13-.5h-.38c-.5 0-1.13-3.401-1.64-3.021-.25.13-.25 1.01-1.13 1.51-.25.25.25 0 .63 0 .25.13-.13.5-.63.76-1.631.38-1.13 0-2.261.38-.38 0 .25-.38.129-.63l-.88-.13c-.25.13.25.63 0 .76-1.01.759-2.77 1.01-4.152 1.51v.13c2.011-.251 4.152-.76 6.422-1.26-2.262.5-6.793 2.14-7.302 2.14-.5-.13.13-.5-.38-.5-.5-.13-3.65 1.13-5.541 1.51-1.51.5-4.911.25-5.412 1.89-1.76 7.051-4.151 11.574-6.792 12.713-.38.25-1.26 1.89-2.011 2.77-.63.76-2.261 2.011-3.4 2.642-1.382.759-4.782 1.26-6.793 1.13-4.402-.63-6.672-3.4-6.672-7.802 0-3.15-3.65 4.781 4.402-9.442.38-.76.63-1.51.63-2.391s-.25-1.76-.13-2.261c.501-2.641 1.64-5.412 2.642-8.053 4.401-11.954 6.421-15.605 9.813-23.528 1.01-2.261 2.52-5.411 3.271-7.802.13-.38 1.01-1.01 1.13-1.381 1.511-3.271 3.142-6.542 4.402-9.563.38-.88 1.51-2.641 2.14-3.901 3.902-7.803 7.052-14.845 12.585-20.887.63-.76 2.261-1.51 3.27-1.51 0 .129.13.25.251.129.63-.76 1.01-2.011 1.64-2.77.63-.76 1.51-1.64 2.261-2.642.25-.38.25-1.01 0-1.01-.38.881-1.01 1.511-1.76 1.761-.38.13.5-.63.5-1.13 0-.13-.13-.25-.25-.25-.38 0-.88.25-1.01-.13s1.381-1.51 2.77-2.011c.38-.13.881-.5 1.382-1.01.129-.13 0-.5.129-.63 3.15-1.13 4.531-1.76 6.292-1.76.76 0 1.51.129 2.39.25.501.13 3.272 2.64 3.902 2.77.5.13.13-.25.63-.13.25 0 1.64 2.262 1.64 2.771.63 2.52-.63 4.911-1.01 7.302-.13.63-1.64 2.011-1.76 2.52 0 .5.63 1.26.63 1.76-.251 1.762.25 3.652 1.51 5.412 1.38 2.011 3.65 4.402 5.411 6.543 3.4 4.28 6.422 8.812 9.313 13.084 2.891 4.531 4.782 9.434 6.672 13.085.13.25.5.129.76.25.25.13-.38.25-.251.5 0 1.26.75 2.262 1.51 2.14.13 0-.63-.759-.38-1.38.13-.25.88-.25.88-.13.13.25.13.501.13 1.51v1.762c0 1.01 0 1.26.13 1.64s1.01 4.652 1.51 5.16c.38.251.76 1.131 1.13 1.89.13.251.13.752.38.631.501-.13.13-1.01.63-1.01.63.38.13 5.032 1.511 5.282 1.64.76 3.901 8.182 5.912 12.204v-.13c0-.25-.13-.63-.13-1.009 0-.5.251-.88.63-1.01 1.261-.25 1.64 3.271 1.132 3.772-.25.25-.63-1.01-1.26-.5-.25.25-.38.75-.38 1.26 0 .63.25 1.76 1.13 4.15.13.38.13 0 .38-.129.5-.129-.13-1.13.13-1.26.25-.13.5-.25.76.13.25.38.5 1.38.5 1.89-.13 1.13-.5.25-1.761 1.51-.38.501-.63 1.131-.76 1.89-.129 1.131-.5 2.262-.88 3.772v.25c0 .76 1.89.88 2.52 1.64 1.381 1.64 1.26 2.262 1.131 3.401-.13.5-.5 3.02-1.13 4.151-1.01 1.51-3.522 2.892-4.653 2.52-.38-.25.13-1.26-.25-1.38-.13 0-.25-.13-.38 0-.5.5-.38 1.76-1.01 1.51-2.26-.656-5.411-.405-5.031-3.297zm-48.195-46.936c.88 0 2.77-.38 3.27-.76 3.522-.88 9.434-2.14 14.095-3.02.13 0 .38-.13.38-.25 0-.25-1.01-1.131-.76-1.131h.38c1.51 0 1.01.75 1.64.63.13 0 .25-.38.25-.5 0-.501-.5-1.26-.38-1.64.13-.88.25-1.381.13-1.89 0-.38-.25-.76-.13-.88.38-.38 1.761-.251 1.51-.76-.75-1.51-2.14-2.391-3.02-3.272-.25-.25-.25-.5-.13-.63l.25-.25c.38-.25.63.25 1.01.38.501 0 2.012 5.282 3.272 4.03 1.26-1.13-1.26-3.52-2.14-4.53-.251-.38-.76-.38-.881-.501-1.01-1.51-1.76-3.4-2.891-4.402-1.51-1.89-5.032-4.782-6.042-4.911-.63 0-1.76.25-2.14.75 0 .13 0 .63-.13.76-.25.25-.76.13-1.01.38-1.01 1.89-2.891 4.03-3.27 5.161-1.261 3.651-3.773 10.064-3.773 10.323-.88 1.89-.5 3.901-.76 5.912.13.63.76 1.01 1.01 1.01h.26v-.009zm-1.01-50.594.13-1.01c.129-.88 1.38-2.52 2.52-3.141.5-.13 1.38-.76 1.51-.501l-.5.88c-.251.25-.63.63-.76 1.01-.25.38-.13 1.13-.38 1.64-.38.5-.76 1.381-1.64 1.64-.25.112-.621-.518-.88-.518zm4.781-3.392.38-.75.25.129-.38.76-.25-.139zm4.41-4.151c-.25.13-.129.5.13.63.242.12.5-.88-.13-.63zm1.511-.13v-.38l-.5.13-.13.38.63-.13zm3.901 83.936c2.14 0-.5.76-3.141.88-1.27.25 1.501-.88 3.141-.88zm.88-35.361c-.25-.13-.38-1.13-.129-1.13.38-.13 1.26-.251 1.64-.251.5.13 1.381 1.13 1.64 2.01a1 1 0 0 1-.25.63c-.64-.129-1.77-.759-2.9-1.26zm1.252 34.98v-.379l.76.13v.38l-.76-.13zm1.14-.12v-.25h.63l-.13.38-.5-.13zm.75-37.63h.13c.5 0 1.01.759.76 1.26-.13.38-1.14-1.26-.89-1.26zm2.77 5.54c-.129-.13-.25 0-.379 0 0 .38-.25 1.01 0 1.26l.38.13c0-.51.25-1.269 0-1.39zm1.01 31.46h-.129c0-.13 2.77 0 2.892-.5.129-.251.25-.251.5-.251.5 0 1.76.38 2.52.88.13.13-.5.38-.5.63-.13.25.88.38.63.38-1.89-.388-3.78-.638-5.912-1.14zm39.004.88c.13-.13.25-.13.38 0 0 .25.129.5-.13.76-.13.13-.25 0-.38 0-.12-.26-.12-.51.13-.76z"/></svg>