<svg xmlns="http://www.w3.org/2000/svg" xml:space="preserve"  viewBox="0 0 512 128"><g stroke="null"><path d="M308.0824 36.8185c-.7879-1.5343-2.4051-2.3222-4.0223-2.1978h-.0415c-.1244 0-.2488.0415-.3732.0415-.0414 0-.083 0-.083.0415-.0828.0414-.2072.0414-.2902.083-.0414 0-.083.0414-.1244.0414-.083.0414-.1658.0414-.2488.083-.0414.0414-.1244.0414-.1658.0828-.083.0415-.1244.0415-.2074.083l-15.011 7.9616-14.472 7.6714c-.0414.0414-.1243.083-.1658.083-.0414.0414-.1244.0828-.1658.0828-.083.0415-.1244.083-.2074.166-.0414.0414-.083.0414-.1244.0828-.083.083-.1658.1244-.2073.2074l-.083.0829-.2487.2488-.0415.0415c-.083.0829-.1659.2073-.2073.2902-.8294 1.244-.9952 2.8612-.2488 4.2711v.0415c1.2025 2.3636 1.783 4.9346 1.783 7.6299 0 4.271-1.5757 8.3763-4.437 11.5278-1.5342 1.7001-1.4098 4.3125.2903 5.8468.788.705 1.7831 1.0781 2.7783 1.0781 1.1196 0 2.2392-.456 3.0686-1.3684 4.271-4.6857 6.5932-10.7399 6.5932-17.0843 0-2.6539-.4147-5.2248-1.2025-7.7128l7.2567-3.8565c1.3684 3.6906 2.0319 7.547 2.0319 11.5693 0 4.0637-.705 8.0031-2.1149 11.7766-.7878 2.1148.2903 4.5199 2.4051 5.3077.4976.166.9538.2488 1.4514.2488 1.6586 0 3.2344-1.0366 3.8564-2.6953 1.7416-4.6858 2.6539-9.6203 2.6539-14.6793 0-5.3077-1.0367-10.574-2.9442-15.4256l7.7958-4.1467c2.6124 6.1785 3.9393 12.7303 3.9393 19.5723 0 16.421-8.003 31.8466-21.4383 41.3425-1.866 1.327-2.3222 3.8979-.9952 5.7639.7878 1.1196 2.0733 1.7416 3.3588 1.7416.8293 0 1.6587-.2488 2.3636-.7464 15.633-11.0302 24.963-28.9853 24.963-48.06-.0829-9.3716-2.405-18.7846-6.7176-27.1194zm-37.4031 75.5111c-3.4418 1.0367-7.008 1.7002-10.6155 2.0319V89.0667c.9952-.1659 1.9904-.3732 2.9856-.6635 2.1977-.622 3.4417-2.9441 2.8197-5.1004-.622-2.1977-2.9441-3.4417-5.1004-2.8197-3.11.9122-6.5103.9122-9.5788 0-2.1978-.622-4.4785.622-5.1005 2.8197-.622 2.1978.622 4.4784 2.8198 5.1004.9952.2903 1.949.4976 2.9856.6635v25.2948c-3.6905-.2903-7.3396-.9952-10.9058-2.1148-2.1563-.6635-4.4784.539-5.1833 2.6953-.6635 2.1563.539 4.4785 2.6953 5.1834 5.6395 1.7416 11.5278 2.6539 17.4576 2.6539 5.8468 0 11.6107-.8708 17.1672-2.5295 2.1978-.6635 3.4003-2.9856 2.7368-5.1419-.7049-2.1977-3.027-3.4417-5.1833-2.7783zM222.163 26.4103c8.252-7.4226 18.6601-11.8595 29.6074-12.7718v25.2948c-.9952.1659-1.9904.3732-2.9856.6635-2.1978.622-3.4418 2.9441-2.8198 5.1004.539 1.8245 2.1563 2.9856 3.9394 2.9856.3732 0 .7878-.0415 1.161-.1659 3.11-.9123 6.5103-.9123 9.5789 0 2.1977.622 4.4784-.622 5.1004-2.8197.622-2.1978-.622-4.4785-2.8198-5.1005-.9537-.2902-1.9489-.4975-2.9856-.6634V13.6385c10.9888.9123 21.3555 5.3492 29.6074 12.7718.7878.705 1.783 1.0367 2.7368 1.0367 1.1196 0 2.2392-.4562 3.0685-1.3684 1.5343-1.7002 1.3684-4.3126-.3317-5.8469-10.6155-9.6618-24.5484-15.011-39.1032-15.011-14.5134 0-28.4463 5.3492-39.2692 15.0525-1.7 1.5343-1.8245 4.1467-.3317 5.8468 1.5758 1.6587 4.1882 1.783 5.8468.2903z"/><circle cx="486.4639" cy="-139.1956" r="26.3" transform="matrix(.40932 -.06643 .06643 .40932 66.0468 153.269)"/><path d="M243.6843 81.8515c1.6173-1.6172 1.6173-4.2296 0-5.8469-1.6172-1.6172-4.2296-1.6172-5.8468 0l-8.4178 8.4593c-4.5198-5.8468-6.9664-12.9791-6.9664-20.4846 0-3.9394.705-7.8787 2.0319-11.5278l10.5326 5.598c.622.3317 1.2854.4976 1.949.4976 1.4927 0 2.9026-.7879 3.649-2.1977 1.0781-2.032.2903-4.52-1.7001-5.598l-29.1098-15.4257-.3732-.2074c-1.949-1.0366-4.354-.3317-5.4736 1.4929l-.0415.0414C199.5221 45.029 197.2 54.442 197.2 63.9793c0 15.633 6.0542 30.3537 17.0843 41.4253.788.8294 1.866 1.2026 2.9442 1.2026.9123 0 1.866-.3317 2.6124-.9123.083-.083.2073-.1659.2903-.2488l12.0254-12.0254 11.5277-11.5692zm-34.3345-37.4446 7.7958 4.1467c-1.949 4.893-2.9442 10.1594-2.9442 15.4257 0 9.7032 3.2759 18.9088 9.3715 26.3314l-6.22 6.22c-7.7128-9.0812-11.901-20.526-11.901-32.5514-.0415-6.7177 1.327-13.3938 3.8979-19.5724z"/></g></svg>