<svg xmlns="http://www.w3.org/2000/svg" xml:space="preserve" viewBox="0 0 512 128"><g stroke="null"><path d="M325.757 62.199c3.089-5.395 8.111-13.246 11.088-18.418 2.307-4.093 6.028-6.064 10.046-3.572 4.874 3.051.93 6.437-1.042 9.265-4.8 6.772-18.194 24.333-18.194 24.333s.26 7.367 3.832 11.311c4.54 4.986 9.376 0 13.47-2.977 1.04-.78 1.785-1.6 2.715-2.567a39.6 39.6 0 0 0 2.344-2.641c1.303-1.638 2.568-2.903 4.502-1.414 2.344 1.748.075 4.316-.893 6.139-2.902 5.618-6.548 10.753-11.422 14.92-7.888 6.66-13.171 5.32-17.078-4.242-.93-2.344-2.381-7.255-3.423-10.157-4.39 6.51-5.916 9.487-9.45 12.576-5.693 5.06-11.944 9.487-19.534 6.436-7.367-2.976-7.479-10.901-7.479-17.598 0-12.986 4.205-24.631 12.092-34.938 4.316-5.618 9.6-10.38 17.488-8.743 7.59 1.6 8.408 8.52 10.008 14.548.335 1.525.335 2.38.93 7.739zm-5.432 5.32c-.93-5.804-1.153-7.33-2.418-10.567-3.386-8.446-8.297-9.19-15.292-3.423-7.218 5.954-11.609 21.73-8.67 30.473 2.233 6.623 6.065 7.516 12.093 5.172 6.623-2.568 14.399-14.623 14.287-21.655z"/><path stroke="#000" stroke-miterlimit="10" stroke-width=".75" d="M225.522 116.67c-10.232-.484-18.008-5.88-20.278-13.693-2.344-8.148.484-15.106 7.665-19.384.967-.596 2.158-1.042 2.828-1.526.297-.223.446-.67.26-1.005-.335-.855-1.042-2.492-1.6-3.757-4.278-10.046-.446-18.083 9.823-21.543 10.641-3.572 21.059.781 24.11 10.195.707 2.12 1.674 4.8-.67 6.25-2.381 1.489-4.353-.558-5.841-2.27-4.279-4.873-9.6-5.952-15.664-4.353-3.87 1.005-5.619 3.833-5.246 7.74.297 3.832 2.306 6.362 6.51 6.51.596.038 1.154 0 1.712.038 4.279.298 8.781.26 11.05 4.948.67 1.34.522 3.014-.706 3.907-3.907 3.014-8.26 1.972-12.316.484-4.762-1.749-9.376-3.61-13.32 1.116-2.232 2.679-2.046 5.879-.41 8.818 2.94 5.209 7.666 7.702 13.581 7.18 2.79-.222 5.507-1.599 8.26-2.231 2.01-.447 4.093-.447 5.247 1.748s0 3.907-1.452 5.284c-3.98 4.018-9.264 5.171-13.543 5.543z" class="st0"/><path d="M233.708 45.381c-3.647-.037-4.019-2.344-2.902-4.614 4.241-8.966 8.632-17.933 13.245-26.751 1.228-2.27 3.832-3.647 6.66-2.195s3.237 4.427 1.935 6.622c-5.358 8.707-11.162 17.19-16.855 25.636-.483.744-1.45.967-2.083 1.302zm-18.715-7.069c-5.619.186-14.92-.335-33.859 1.228-22.026 1.86-25.3 15.7-24.593 28.016.148 2.493 3.72 2.903 4.39.484 2.865-10.604 8.893-16.594 25.375-17.078.67-.037 1.154.707.819 1.302-7.516 14.548-15.516 40.556-15.516 40.556-2.492 6.139 3.163 7.888 11.162 4.986 6.214-2.233 10.94-6.437 14.586-11.535 2.232-3.125-.745-6.808-4.242-5.246-2.084.93-4.093 1.749-5.655 2.27-.782.26-1.563-.484-1.34-1.302l8.632-28.426c.447-1.489 1.786-2.456 3.386-2.419l17.078.521c3.46 0 6.288-2.456 6.288-7.07 0-3.571-2.977-6.436-6.511-6.287z"/><circle cx="258.971" cy="39.093" r="8.632"/><circle cx="282.374" cy="39.093" r="8.632"/><path stroke="#000" stroke-miterlimit="10" d="M269.315 56.246c-2.79-.856-5.767.706-6.623 3.497l-2.01 6.511-1.971 6.437-1.898 6.437c-.595 2.158-1.228 4.316-1.786 6.474-1.19 4.316-2.27 8.669-3.311 13.022-.26 1.116-.521 2.195-.744 3.312-.26 1.116-.484 2.195-.707 3.31-.484 2.196-.893 4.429-1.34 6.698-.26 1.414.186 2.94 1.414 3.907 1.712 1.414 4.279 1.19 5.693-.558l.335-.41c.744-.632 1.413-1.339 2.083-2.046.67-.707 1.302-1.451 1.972-2.195 1.265-1.488 2.419-3.014 3.61-4.54l3.422-4.539c1.154-1.488 2.233-2.976 3.237-4.316l.15-.223c.78-1.004.966-2.418.334-3.683-.856-1.712-2.94-2.382-4.65-1.526-1.117.558-2.01 1.563-2.903 2.195-.781.596-2.79 2.419-3.758 3.312.819-3.163 1.712-6.325 2.753-9.45 1.34-4.13 2.828-8.186 4.465-12.242a170.49 170.49 0 0 1 2.567-5.99c.447-.967.893-1.972 1.377-2.94l.707-1.45c.223-.484.52-.968.707-1.414v-.038c.149-.26.26-.595.335-.892a5.279 5.279 0 0 0-3.46-6.66z" class="st1"/></g></svg>