<svg xmlns="http://www.w3.org/2000/svg" xml:space="preserve" viewBox="0 0 512 128"><g stroke="null"><path d="M105.027 33.423H36.524c-3.834 0-6.99-3.115-6.99-6.99s3.156-6.99 6.99-6.99h68.503c3.875 0 6.99 3.156 6.99 6.99s-3.115 6.99-6.99 6.99zm120.829 0h-63.75c-3.874 0-6.99-3.155-6.99-6.99s3.156-6.99 6.99-6.99h63.75c3.875 0 6.99 3.156 6.99 6.99s-3.115 6.99-6.99 6.99zm0 75.134h-63.75c-3.874 0-6.99-3.156-6.99-6.99s3.156-6.99 6.99-6.99h63.75c3.875 0 6.99 3.155 6.99 6.99s-3.115 6.99-6.99 6.99zm0-37.547h-63.75c-3.874 0-6.99-3.155-6.99-6.99s3.156-6.99 6.99-6.99h63.75c3.875 0 6.99 3.155 6.99 6.99s-3.115 6.99-6.99 6.99z"/><path d="M70.796 108.557c-3.875 0-6.99-3.156-6.99-6.99V26.433c0-3.874 3.155-6.99 6.99-6.99s6.99 3.156 6.99 6.99v75.134a6.972 6.972 0 0 1-6.99 6.99zm247.09-3.315c-3.874 0-6.99-3.156-6.99-6.99V29.788c0-3.874 3.155-6.99 6.99-6.99 3.875 0 6.99 3.156 6.99 6.99v68.464c.04 3.834-3.115 6.99-6.99 6.99zm157.577 3.315h-68.862a6.951 6.951 0 0 1-5.952-3.315 6.975 6.975 0 0 1-.32-6.79l34.432-69.462a6.96 6.96 0 0 1 6.27-3.875c2.677 0 5.114 1.518 6.272 3.875l34.431 69.461a6.97 6.97 0 0 1-.32 6.79 7.001 7.001 0 0 1-5.95 3.316zm-57.598-13.98h46.254l-23.127-46.654-23.127 46.654z"/><path d="M338.377 108.557h-40.942c-3.874 0-6.99-3.156-6.99-6.99 0-3.875 3.155-6.99 6.99-6.99h40.982c3.875 0 6.99 3.155 6.99 6.99 0 3.874-3.155 6.99-7.03 6.99zm0-71.778h-40.942c-3.874 0-6.99-3.156-6.99-6.99 0-3.875 3.155-6.99 6.99-6.99h40.982c3.875 0 6.99 3.155 6.99 6.99 0 3.834-3.155 6.99-7.03 6.99z"/></g></svg>