<svg fill="currentColor" xmlns="http://www.w3.org/2000/svg" xml:space="preserve" stroke-linecap="round"
    stroke-linejoin="round" stroke-miterlimit="10" clip-rule="evenodd" viewBox="0 0 512 128">
    <path
        d="M313.58 102.25V83.47h39.38v37.55h-39.38v-18.77Zm-265.31-.61V82.86H10.72V43.5h37.55V7.75h38.77V43.5h36.35v39.36H87.03v37.56H48.27v-18.78Zm114.49-.91V81.05h112.06v39.37H162.76v-19.69Zm227.33 18.97c.12-.43 8.84-25.33 19.38-55.31 10.48-29.99 19.26-55 19.5-55.55.43-1.03 1.76-1.09 16.6-1.09h16.12l19.99 55.55a7897.4 7897.4 0 0 1 20.17 56.27c.18.73-3.21.85-20.78.73l-21.02-.18-6.48-18.78c-7.7-22.3-7.27-21.14-7.7-20.72-.18.18-3.38 9.15-7.08 19.93L432 120.12l-21.13.18c-16.78.12-21.02 0-20.78-.6ZM162.76 27.14V7.75h112.06v38.77H162.76V27.14Zm150.82-.91V8.36h39.38V44.1h-39.38V26.23Z" />
</svg>