<svg xmlns="http://www.w3.org/2000/svg" xml:space="preserve"  viewBox="0 0 512 128"><path stroke="null" d="M82.8133 119.9192h23.1495v5.6462H82.8133zm0-11.6833h23.1495v5.6462H82.8133zm0-41.2608h23.1495v5.6462H82.8133zm0-11.6399h23.1495v5.6462H82.8133zm0-41.2607h23.1495v5.6462H82.8133zm0-11.6399h23.1495v5.6462H82.8133zM52.15 14.0745h23.1495v5.6462H52.15zm0-11.6399h23.1495v5.6462H52.15zm61.3266 11.6399h23.1495v5.6462h-23.1495zm0-11.6399h23.1495v5.6462h-23.1495zm98.3309 11.6399h23.1495v5.6462h-23.1495zm0-11.6399h23.1495v5.6462h-23.1495zm30.6633 11.6399h23.1495v5.6462h-23.1495zm0-11.6399h23.1495v5.6462h-23.1495zm0 117.4846h23.1495v5.6462h-23.1495zm0-11.6833h23.1495v5.6462h-23.1495zm-61.3266 11.6833h23.1495v5.6462h-23.1495zm0-11.6833h23.1495v5.6462h-23.1495zm0-41.2608h23.1495v5.6462h-23.1495zm0-11.6399h23.1495v5.6462h-23.1495zm0-41.2607h23.1495v5.6462h-23.1495zm0-11.6399h23.1495v5.6462h-23.1495zm128.4297 117.4846h23.1495v5.6462h-23.1495zm0-11.6833h23.1495v5.6462h-23.1495zm0-41.2608h23.1495v5.6462h-23.1495zm0-11.6399h23.1495v5.6462h-23.1495zm0-41.2607h23.1495v5.6462h-23.1495zm0-11.6399h23.1495v5.6462h-23.1495zm96.4633 64.5405h23.1495v5.6462h-23.1495zm0-11.6399h23.1495v5.6462h-23.1495zm0-41.2607h23.1495v5.6462h-23.1495zm0-11.6399h23.1495v5.6462h-23.1495zM211.8075 66.9751h23.1495v5.6462h-23.1495zm0-11.6399h23.1495v5.6462h-23.1495zm0 64.584h23.1495v5.6462h-23.1495zm0-11.6833h23.1495v5.6462h-23.1495zm224.893 11.6833H459.85v5.6462h-23.1495zm0-11.6833H459.85v5.6462h-23.1495zm-61.3265 11.6833h23.1495v5.6462H375.374zm0-11.6833h23.1495v5.6462H375.374zm61.3265-41.2608H459.85v5.6462h-23.1495zm0-11.6399H459.85v5.6462h-23.1495zM375.374 66.9751h23.1495v5.6462H375.374zm0-11.6399h23.1495v5.6462H375.374z"/></svg>