<svg xmlns="http://www.w3.org/2000/svg" xml:space="preserve"  viewBox="0 0 512 128"><g stroke="null"><path d="M267.8165 10.5529v29.5973h-91.6069V10.5529h91.6069m1.955-1.955h-95.5168v33.5072h95.4776V8.598h.0391zm-1.955 79.2911v29.5972h-91.6069V87.889h91.6069m1.955-1.9549h-95.5168v33.5071h95.4776v-33.507h.0391zm60.4065-75.3812v106.9333h-29.5973V10.553h29.5973m1.955-1.955h-33.5072v110.8432h33.5071V8.598zm-188.6876 1.9549v29.5973h-31.0048v77.336H82.8433V40.1501H51.8776V10.553h91.5678m1.9549-1.955H49.9227v33.5072h31.0048v77.336h33.507v-77.336h31.0049V8.598h-.0391zm307.8195 110.8431h-92.1152c-.3519 0-.6256-.1564-.821-.4692-.1564-.2736-.1955-.6255-.0391-.9383l38.5507-77.297c.1564-.3128.5083-.5474.8602-.5474s.7037.1955.8601.5474l7.5069 15.0528a1.0953 1.0953 0 0 1 0 .8602l-22.1687 44.4154h75.2248c.3128 0 .6256.1564.821.4301.1956.2737.1956.6256.0392.9384l-7.8587 16.4603c-.1564.3127-.5083.5473-.8602.5473zm-90.5513-1.9158h89.9257l6.9595-14.5445h-75.2248c-.3519 0-.6256-.1564-.821-.4692-.1564-.2736-.1955-.6255-.0392-.9383l22.6379-45.393-6.4121-12.9023-37.026 74.2473z"/><path d="M461.0785 102.9808H384.329c-.3519 0-.6256-.1564-.821-.4692-.1565-.2737-.1956-.6255-.0392-.9383l8.2106-16.4603c.1564-.3128.5083-.5474.8602-.5474h42.7343L398.4824 9.9664c-.1564-.3128-.1173-.6647.0391-.9384.1564-.2737.4692-.4691.821-.4691h15.6784c.352 0 .7038.1954.8602.5473l46.0967 92.467c.1564.3129.1173.6648-.0391.9384-.1955.2737-.5083.4692-.8602.4692zm-75.1857-1.9158h73.6609l-45.1583-90.5512h-13.528l36.7913 74.5992c.1564.3128.1173.6647-.039.9383-.1565.2737-.4692.4692-.8211.4692H393.126l-7.2332 14.5445z"/><path d="M361.1046 119.4411c-.391 0-.7037-.2346-.8601-.5473l-7.8588-16.4994a1.0953 1.0953 0 0 1 0-.8602l46.0967-92.3889c.1564-.3127.5083-.5473.8602-.5473s.7038.1955.8602.5473l37.456 76.0068c.1563.3128.1172.6647-.0391.9383-.1955.2737-.5083.4692-.8211.4301l-15.0919-.1955c-.3519 0-.7037-.1955-.8601-.5473L399.6554 43.317l-37.6906 75.5767c-.1564.3127-.4692.5473-.8602.5473zm-6.803-17.4377 6.8421 14.2708 37.6906-75.5376c.1564-.3128.5083-.5474.8602-.5474s.7037.1955.8601.5474l21.7777 43.6726 12.9415.1955-35.9312-72.8789-45.041 90.2776z"/></g></svg>