<svg xmlns="http://www.w3.org/2000/svg" xml:space="preserve" viewBox="0 0 512 128"><g stroke="null"><path d="M257.748 21.861h-7.846v91.433h-6.749V37.107h-7.846v84.074h7.846v-.04h6.749v.04h7.846V60.158h24.027l16.669 61.226 8.05-.284-27.036-99.239h-21.71zm0 30.45V29.709h15.734l6.138 22.604h-21.872z"/><path fill="#FFF" d="m298.281 121.628-.04-.162-16.628-61.105H257.95v60.983h-8.25v-.041h-6.302v.04h-8.253v-84.44h8.253v76.147h6.302V21.658h29.921l.041.163 27.117 99.523-8.497.284zm-40.777-61.673h24.393l16.669 61.226 7.643-.285-26.914-98.831h-29.19v91.432h-7.155V37.31h-7.44v83.668h7.44v-.04h7.155v.04h7.44V59.955h-.04zm22.36-7.44h-22.36v-23.01h16.059l6.301 23.01zm-21.913-.407h21.426l-6.058-22.197h-15.368v22.197z" class="st0"/><path d="M317.633 105.488 290.679 6.575h-63.137l11.708 22.726 7.684-14.88h37.768l26.914 98.873 2.155 7.846h7.561l.163.041v-.04l.203-.732 1.952-7.156 13.538-49.64-7.562-2.073-11.993 43.948zM239.21 21.251l-5.651-10.976h11.302L239.21 21.25z"/><path fill="#FFF" d="m321.617 121.425-.366-.081h-7.684l-2.195-8.01-26.873-98.71h-37.484l-7.805 15.124-12.034-23.376H290.8l.04.162 26.751 98.182 11.83-43.379 7.969 2.155-.04.203-15.734 57.73zm-7.725-.488h7.44l15.571-57.16-7.196-1.952-12.115 44.436-27.076-99.483h-62.65l11.384 22.076 7.562-14.636h38.053l.04.163 28.988 106.556zM239.21 21.7l-5.977-11.628h11.993L239.21 21.7zm-5.326-11.221 5.326 10.367 5.325-10.367h-10.651z" class="st0"/><path d="M197.294 21.861v30.451h-15.001V14.096h-7.847v38.216h-7.602v7.846h7.602v61.023h7.847v-.041h46.062v-7.846h-46.062V60.158h15.001v30.491h31.061v-7.846h-23.214V60.158h23.214v-7.846h-23.214V29.708h23.214v-7.847h-23.214z"/><path fill="#FFF" d="M182.496 121.384h-8.253V60.402H166.6v-8.253h7.643V13.893h8.253v38.256h14.595V21.658h31.467v8.253h-23.214v22.197h23.214v8.253h-23.214V82.56h23.214v8.253h-31.467V60.32h-14.554v52.688h46.062v8.253h-46.103v.122zm-7.846-.406h7.44v-.04h46.061v-7.44H182.09V59.954h15.408v30.491h30.653v-7.44h-23.213v-23.05h23.213v-7.44h-23.213v-23.01h23.213v-7.44h-30.653v30.49H182.13V14.3h-7.44v38.257h-7.643v7.44h7.643v60.982h-.04z" class="st0"/><path d="m345.115 65.647-3.008-11.465-3.049-11.465-8.416 8.375-8.375 8.334 11.424 3.09z"/><path fill="#FFF" d="m345.4 65.931-23.54-6.383 17.32-17.197 6.22 23.58zm-22.726-6.586 22.197 6.017-5.894-22.238-16.303 16.221z" class="st0"/></g></svg>