<svg xmlns="http://www.w3.org/2000/svg" data-name="Ebene 2" viewBox="0 0 512 128"><g stroke="null" data-name="Layer 1"><path d="M337.094 11.522v16.56a2.943 2.943 0 0 0-.177.188c-.122.1-.233.211-.333.333-.123.1-.223.211-.334.334-.122.1-.233.21-.333.333-.122.1-.222.21-.333.333-.122.1-.233.211-.333.333-.122.1-.222.211-.333.333-.123.1-.234.211-.334.334-.122.1-.222.21-.333.333-.122.1-.233.21-.333.333-.122.1-.222.211-.333.333-.122.1-.233.211-.333.333-.123.1-.234.211-.334.334-.122.1-.233.21-.333.333-.122.1-.233.21-.333.333-.122.1-.222.211-.333.333-.122.1-.233.211-.333.333-.123.1-.223.211-.334.334-.122.1-.233.21-.333.333-.122.1-.222.21-.333.333-.122.1-.233.211-.333.333-.111.1-.222.211-.322.322-.122.1-.234.211-.333.334-.112.1-.223.21-.323.322-.122.1-.233.21-.333.333-.122.1-.222.21-.333.333-.122.1-.233.211-.333.333-.122.1-.222.211-.333.333-.123.1-.234.211-.334.334-.122.1-.222.21-.333.333-.122.1-.233.21-.333.333-.122.1-.222.211-.333.333-.122.1-.233.211-.333.333-.123.1-.223.211-.334.334-.122.1-.233.21-.333.333-.122.1-.222.21-.333.333-.122.1-.233.211-.333.333-.122.1-.222.211-.333.333-.123.1-.234.211-.334.334-.122.1-.222.21-.333.333-.122.1-.233.21-.333.333-.122.1-.222.211-.333.333-.122.1-.233.211-.333.333-.123.1-.223.211-.334.334-.122.1-.233.21-.333.333-.122.1-.222.21-.333.333-.122.1-.233.211-.333.333-.122.1-.222.211-.333.333-.123.1-.234.211-.334.334-.122.1-.222.21-.333.333-.122.1-.233.21-.333.333-.122.1-.233.211-.333.333-.122.1-.233.211-.333.333-.123.1-.223.211-.334.334-.122.1-.233.21-.333.333-.122.1-.233.21-.333.333-.122.1-.222.211-.333.333-.122.1-.233.211-.333.333-.123.1-.223.211-.334.334-.122.1-.233.21-.333.333-.11.1-.222.21-.322.322-.122.1-.233.21-.333.333-.111.1-.222.211-.322.322-.122.1-.233.211-.333.333-.123.1-.222.211-.334.334-.122.1-.233.21-.333.333-.122.1-.222.21-.333.333-.122.1-.233.211-.333.333-.122.1-.222.211-.333.333-.123.1-.234.211-.334.334-.122.1-.222.21-.333.333-.122.1-.233.21-.333.333-.122.1-.222.211-.333.333-.122.1-.233.211-.333.333-.123.1-.222.211-.334.334-.122.1-.233.21-.333.333-.122.1-.222.21-.333.333-.122.1-.233.211-.333.333-.122.1-.222.211-.333.333-.123.1-.234.211-.334.334-.122.1-.222.21-.333.333-.122.1-.233.21-.333.333-.122.1-.222.211-.333.333a3.346 3.346 0 0 0-1.022 1.6c-.155.388-.244.81-.244 1.243v26.2a1.43 1.43 0 0 0-.178.19c-.122.1-.233.21-.333.333-.122.1-.222.21-.333.333-.123.1-.234.211-.334.333-.122.1-.233.211-.333.333-.122.1-.222.211-.333.334-.122.1-.233.21-.333.333-.122.1-.233.21-.333.333-.123.1-.223.211-.334.333-.122.1-.233.211-.333.333-.122.1-.222.211-.333.334-.122.1-.233.21-.333.333-.122.1-.222.21-.333.333-.123.1-.234.211-.334.333-.122.1-.222.211-.333.333-.122.1-.233.211-.333.334-.122.1-.222.21-.333.333-.122.1-.233.21-.333.333-.123.1-.223.211-.334.333-.122.1-.233.211-.333.333-.122.1-.222.211-.333.334-.122.1-.233.21-.333.333-.122.1-.222.21-.333.333-.123.1-.234.211-.334.333-.122.1-.222.211-.333.333-.122.1-.233.211-.333.334-.122.1-.222.21-.333.333-.122.1-.233.21-.333.333-.123.1-.223.211-.334.333-.122.1-.233.211-.333.333-.122.1-.222.211-.333.334-.122.1-.233.21-.333.333-.122.1-.222.21-.333.333-.123.1-.234.211-.334.333-.122.1-.233.211-.333.333-.122.1-.233.211-.333.334-.122.1-.233.21-.333.333-.122.1-.233.21-.333.333-.123.1-.234.211-.334.333-.122.1-.233.211-.333.333-.122.1-.233.211-.333.334-.122.1-.222.21-.333.333-.122.1-.233.21-.333.333-.123.1-.223.211-.334.333-.122.1-.233.211-.333.333-.122.1-.233.211-.333.334-.122.1-.233.21-.333.333-.122.1-.233.21-.333.333-.123.1-.223.211-.334.333-.122.1-.233.211-.333.333-.122.1-.233.211-.333.334-.122.1-.222.21-.333.333-.122.1-.233.21-.333.333-.123.1-.223.211-.334.333-.122.1-.233.211-.333.333-.122.1-.222.211-.333.334-.122.1-.233.21-.333.333-.122.1-.222.21-.333.333-.123.1-.234.211-.334.333-.122.1-.222.211-.333.333-.122.1-.233.211-.333.334-.122.1-.222.21-.333.333-.122.1-.233.21-.333.333-.123.1-.223.211-.334.333-.122.1-.233.211-.333.333-.122.1-.222.211-.333.334-.122.1-.233.21-.333.333-.122.1-.222.21-.333.333-.123.1-.234.211-.334.333-.122.1-.222.211-.333.333-.122.1-.233.211-.333.334-.122.1-.222.21-.333.333-.122.1-.233.21-.333.333-.123.1-.223.211-.334.333-.122.1-.233.211-.333.333-.122.1-.233.211-.333.334-.122.1-.233.21-.333.333-.122.1-.233.21-.333.333-.123.1-.234.211-.334.333-.122.1-.233.211-.333.333-.122.1-.222.211-.333.334-.122.1-.233.21-.333.333-.122.1-.222.21-.333.333-.123.1-.234.211-.334.333-.122.1-.233.211-.333.333-.122.1-.233.211-.333.334-.122.1-.233.21-.333.333-.122.1-.222.21-.333.333-.123.1-.234.211-.334.333-.122.1-.233.211-.333.333-.122.1-.222.211-.333.334-.122.1-.233.21-.333.333-.122.1-.222.21-.333.333-.123.1-.234.211-.334.333-.122.1-.222.211-.333.333-.122.1-.233.211-.333.334-.067.055-.122.11-.189.177h-73.536V63.567a3.328 3.328 0 0 0-3.332-3.332h-25.257V43.687a1.43 1.43 0 0 0 .178-.19c.122-.1.233-.21.333-.332.122-.1.222-.211.334-.334.122-.1.233-.21.333-.333.122-.1.233-.21.333-.333.122-.1.222-.211.333-.333.122-.1.233-.211.333-.333.122-.1.222-.211.334-.334.122-.1.233-.21.333-.333.122-.1.222-.21.333-.333.122-.1.233-.211.333-.333.122-.1.222-.211.333-.333.122-.1.234-.211.334-.334.122-.1.222-.21.333-.333.122-.1.233-.21.333-.333.122-.1.222-.211.333-.333.122-.1.233-.211.333-.333.122-.1.222-.211.334-.334.122-.1.233-.21.333-.333.122-.1.222-.21.333-.333.122-.1.233-.211.333-.333.122-.1.222-.211.333-.333.122-.1.234-.211.334-.334.122-.1.233-.21.333-.333.122-.1.233-.21.333-.333.122-.1.233-.211.333-.333.122-.1.233-.211.333-.333.122-.1.234-.211.334-.334.122-.1.233-.21.333-.333.122-.1.233-.21.333-.333.122-.1.233-.211.333-.333.122-.1.233-.211.333-.333.122-.1.234-.211.334-.334.122-.1.222-.21.333-.333.122-.1.233-.21.333-.333.122-.1.233-.211.333-.333.122-.1.233-.211.333-.333.122-.1.222-.211.334-.334.122-.1.233-.21.333-.333.122-.1.233-.21.333-.333.122-.1.233-.211.333-.333.122-.1.222-.211.333-.333.122-.1.234-.211.334-.334.122-.1.233-.21.333-.333.122-.1.222-.21.333-.333.122-.1.233-.211.333-.333.122-.1.222-.211.333-.333.122-.1.234-.211.334-.334.122-.1.222-.21.333-.333.122-.1.233-.21.333-.333.122-.1.222-.211.333-.333.122-.1.233-.211.333-.333.122-.1.222-.211.334-.334.122-.1.233-.21.333-.333.122-.1.222-.21.333-.333.122-.1.233-.211.333-.333.122-.1.222-.211.333-.333.122-.1.234-.211.334-.334.122-.1.222-.21.333-.333.122-.1.233-.21.333-.333.122-.1.222-.211.333-.333.122-.1.233-.211.333-.333.122-.1.234-.211.334-.334.122-.1.233-.21.333-.333.122-.1.233-.21.333-.333.122-.1.233-.211.333-.333.122-.1.233-.211.333-.333.122-.1.234-.211.334-.334.122-.1.233-.21.333-.333.122-.1.233-.21.333-.333.122-.1.233-.211.333-.333.122-.1.233-.211.333-.333.122-.1.234-.211.334-.334.122-.1.233-.21.333-.333.122-.1.222-.21.333-.333.122-.1.233-.211.333-.333.122-.1.222-.211.333-.333.122-.1.234-.211.334-.334.122-.1.233-.21.333-.333.122-.1.233-.21.333-.333.122-.1.222-.211.333-.333.122-.1.233-.211.333-.333.122-.1.234-.211.334-.334.122-.1.233-.21.333-.333.122-.1.222-.21.333-.333.122-.1.233-.211.333-.333.122-.1.233-.211.333-.333.122-.1.222-.211.334-.334.122-.1.233-.21.333-.333.122-.1.222-.21.333-.333.122-.1.233-.211.333-.333.122-.1.222-.211.333-.333.122-.1.234-.211.334-.334.122-.1.222-.21.333-.333.122-.1.233-.21.333-.333.122-.1.222-.211.333-.333a1.43 1.43 0 0 0 .189-.178h131.046m3.332-3.332H204.338v.333h-.334v.334h-.333v.333h-.333v.333h-.333V10h-.333v.333h-.334v.334h-.333V11h-.333v.333h-.333v.333h-.333V12h-.334v.334h-.333v.333h-.333V13h-.333v.333h-.333v.333h-.334V14h-.333v.333h-.333v.333h-.333v.333h-.333v.333h-.334v.334h-.333v.333h-.333v.333h-.333v.333h-.333v.333h-.334v.334h-.333v.333h-.333v.333h-.333v.333h-.333v.333h-.334v.334h-.333v.333h-.333v.333h-.333v.333h-.333v.333h-.334v.334h-.333v.333h-.333v.333h-.333v.333h-.333v.333h-.334v.334h-.333v.333h-.333v.333h-.333v.333h-.333v.333h-.334v.334h-.333v.333h-.333v.333h-.333v.333h-.333v.333h-.334v.334h-.333v.333h-.333v.333h-.333v.333h-.333v.333h-.334v.334h-.333v.333h-.333v.333h-.333v.333h-.333v.333h-.334v.334h-.333v.333h-.333v.333h-.333v.333h-.333v.333h-.334v.334h-.333v.333h-.333v.333h-.333v.333h-.333v.333h-.334v.334h-.333v.333h-.333v.333h-.333v.333h-.333v.333h-.334v.334h-.333v.333h-.333v.333h-.333v.333h-.333v.333h-.334v.334h-.333v.333h-.333v.333h-.333v.333h-.333v.333h-.334v.334h-.333v.333h-.333v.333h-.333v.333h-.333v.333h-.334v.334h-.333v.333h-.333v.333h-.333v.333h-.333v.333h-.334v.334h-.333v.333h-.333v.333h-.333v.333h-.333v.333h-.334V63.59h28.589v56.377h78.912v-.334h.333v-.333h.333v-.333h.333v-.333h.334v-.333h.333v-.334h.333v-.333h.333v-.333h.333v-.333h.334v-.333h.333v-.334h.333v-.333h.333v-.333h.333v-.333h.334v-.333h.333v-.334h.333v-.333h.333v-.333h.333v-.333h.334v-.333h.333v-.334h.333v-.333h.333v-.333h.333v-.333h.334v-.333h.333v-.334h.333v-.333h.333v-.333h.333v-.333h.334v-.333h.333v-.334h.333v-.333h.333v-.333h.333v-.333h.334v-.333h.333v-.334h.333v-.333h.333v-.333h.333v-.333h.334v-.333h.333v-.334h.333v-.333h.333v-.333h.333v-.333h.334v-.333h.333v-.334h.333v-.333h.333v-.333h.333v-.333h.334v-.333h.333v-.334h.333v-.333h.333v-.333h.333v-.333h.334v-.333h.333v-.334h.333v-.333h.333v-.333h.333v-.333h.334v-.333h.333v-.334h.333v-.333h.333v-.333h.333v-.333h.334v-.333h.333v-.334h.333v-.333h.333v-.333h.333v-.333h.334v-.333h.333v-.334h.333v-.333h.333v-.333h.333v-.333h.334v-.333h.333v-.334h.333v-.333h.333v-.333h.333v-.333h.334v-.333h.333v-.334h.333v-.333h.333v-.333h.333v-.333h.334v-.333h.333v-.334h.333v-.333h.333v-.333h.333v-.333h.334v-.333h.333v-.334h.333v-.333h.333v-.333h.333v-.333h.334v-.333h.333v-.334h.333v-.333h.333v-.333h.333v-.333h.334v-.333h.333v-.334h.333v-27.91h.111v-.334h.333v-.333h.333v-.333h.334v-.333h.333v-.333h.333v-.334h.333v-.333h.333v-.333h.334v-.333h.333v-.333h.333v-.334h.333v-.333h.333v-.333h.334v-.333h.333v-.333h.333v-.334h.333v-.333h.333v-.333h.334v-.333h.333v-.333h.333v-.334h.333v-.333h.333v-.333h.334v-.333h.333v-.333h.333v-.334h.333v-.333h.333v-.333h.334v-.333h.333v-.333h.333v-.334h.333v-.333h.333v-.333h.334v-.333h.333v-.333h.333v-.334h.333v-.333h.333v-.333h.334v-.333h.333v-.333h.333v-.334h.333v-.333h.333v-.333h.334v-.333h.333v-.333h.333v-.334h.333v-.333h.333v-.333h.334v-.333h.333v-.333h.333v-.334h.333v-.333h.333v-.333h.334v-.333h.333v-.333h.333v-.334h.333v-.333h.333v-.333h.334v-.333h.333v-.333h.333v-.334h.333v-.333h.333v-.333h.334v-.333h.333v-.333h.333v-.334h.333v-.333h.333v-.333h.334v-.333h.333v-.333h.333v-.334h.333v-.333h.333v-.333h.334v-.333h.333v-.333h.333v-.334h.333v-.333h.333v-.333h.334v-.333h.333v-.333h.333v-.334h.333v-.333h.333v-.333h.334v-.333h.333v-.333h.333v-.334h.333V8.19l.022.144z"/><path d="M341.315 8.034h-78.768v21.602h28.589v56.377h21.591V29.636h28.588V8.034zm-118.163 62.63V55.659h-4.142v-1.655h10.151v1.655h-4.143v15.005h-1.865zm14.572.178c-.444 0-.877-.034-1.322-.111a4.57 4.57 0 0 1-2.354-1.167c-.322-.31-.589-.666-.789-1.066s-.344-.822-.433-1.255a6.689 6.689 0 0 1-.122-1.333v-2.265c0-.434.033-.878.111-1.322.078-.444.211-.866.422-1.255.2-.389.467-.744.789-1.066.322-.322.688-.578 1.077-.767s.81-.333 1.255-.41.889-.112 1.322-.112.877.034 1.321.111.867.211 1.255.411c.39.2.756.456 1.078.767a4.278 4.278 0 0 1 1.21 2.32c.078.445.111.89.111 1.323v1.977h-8.085v.288c0 .29.022.578.067.867.044.288.133.555.244.822s.289.5.489.71.433.39.677.522c.244.134.522.222.8.278.289.056.577.078.866.078.333 0 .655-.022.977-.067a3.37 3.37 0 0 0 .922-.266c.3-.134.545-.334.756-.59.21-.255.333-.554.366-.877h1.877a3.99 3.99 0 0 1-.255 1.089 3.424 3.424 0 0 1-.578.944c-.244.278-.522.522-.833.71s-.655.356-1.01.467a5.261 5.261 0 0 1-1.089.222c-.367.034-.744.056-1.122.056v-.033zm-3.154-6.909h6.208v-.3a5.3 5.3 0 0 0-.066-.844 3.668 3.668 0 0 0-.245-.822 2.812 2.812 0 0 0-.466-.71 2.354 2.354 0 0 0-.666-.522 3.477 3.477 0 0 0-.8-.3c-.278-.056-.566-.09-.855-.09s-.567.034-.855.09a2.689 2.689 0 0 0-.8.3 2.354 2.354 0 0 0-.667.522 3.024 3.024 0 0 0-.466.71 3.05 3.05 0 0 0-.244.822 5.404 5.404 0 0 0-.067.844v.3h-.011zm12.15 6.731v-1.677h3.81v-8.452h-3.443V58.88h5.298v10.107h3.443v1.677h-9.108zm4.554-13.783c-.2 0-.389-.023-.566-.078a1.153 1.153 0 0 1-.478-.278c-.133-.133-.233-.3-.289-.477s-.077-.367-.077-.567.022-.388.077-.566.145-.344.29-.478c.132-.133.299-.233.477-.289.177-.055.366-.088.566-.088s.389.033.567.088c.177.056.344.156.477.29.133.133.233.3.3.477s.089.366.089.566-.033.389-.089.567-.155.344-.3.477c-.133.134-.3.234-.477.278a1.888 1.888 0 0 1-.567.078zm12.484 13.961c-.322 0-.633-.023-.966-.067a4.724 4.724 0 0 1-.944-.244c-.3-.123-.578-.29-.833-.489s-.478-.444-.645-.71a2.753 2.753 0 0 1-.377-.89 4.123 4.123 0 0 1-.111-.977c0-.422.066-.833.2-1.233.133-.4.344-.755.633-1.055s.61-.544.988-.733a5.915 5.915 0 0 1 1.166-.455c.411-.111.822-.189 1.233-.222s.822-.056 1.233-.056h2.443v-.91c0-.245-.033-.49-.088-.722-.056-.245-.156-.456-.3-.656s-.311-.366-.511-.51a2.19 2.19 0 0 0-.644-.323 3.035 3.035 0 0 0-.7-.155 5.358 5.358 0 0 0-.722-.045c-.333 0-.666.023-.988.078a2.914 2.914 0 0 0-.933.322 1.89 1.89 0 0 0-.722.667c-.19.288-.278.6-.278.933h-1.877c0-.378.067-.745.189-1.111.133-.367.31-.689.544-.989.233-.288.511-.544.822-.755s.655-.377 1.01-.5a5.26 5.26 0 0 1 1.1-.244 9.687 9.687 0 0 1 2.344.011c.4.056.788.156 1.155.289.366.144.722.333 1.044.577s.6.534.822.867c.222.333.388.7.477 1.088s.134.789.134 1.2v7.863h-1.877v-2.043c-.167.366-.4.688-.69.988-.299.3-.621.533-.988.722a4.248 4.248 0 0 1-1.144.4c-.4.078-.8.11-1.21.11l.01-.021zm.7-1.655a4.99 4.99 0 0 0 1.599-.267c.255-.089.5-.222.722-.389s.422-.366.577-.588c.156-.222.267-.478.334-.744.055-.267.089-.545.089-.811v-1.022h-2.444c-.244 0-.489 0-.744.022s-.511.045-.744.1c-.245.056-.489.122-.722.19a2.564 2.564 0 0 0-.678.332c-.21.145-.377.333-.5.556s-.177.466-.177.7c0 .321.078.61.244.888.167.277.378.489.644.644.267.156.556.267.867.322.31.056.622.078.944.078l-.011-.011z"/></g></svg>