<svg xmlns="http://www.w3.org/2000/svg" xml:space="preserve" viewBox="0 0 512 128"><g stroke="null" stroke-width=".3507"><path d="M129.0495 24.2257c0-5.5066 4.4544-9.9259 9.926-9.9259s9.9258 4.4544 9.9258 9.926c0 5.5065-4.4544 9.9258-9.9259 9.9258s-9.9259-4.4193-9.9259-9.9259zm19.8872.0007c0-5.5066 4.4544-9.926 9.926-9.926s9.9259 4.4545 9.9259 9.926c0 5.5066-4.4544 9.926-9.926 9.926s-9.9259-4.4194-9.9259-9.926zm19.8867.0002c0-5.5066 4.4544-9.9259 9.926-9.9259s9.961 4.4544 9.961 9.926c0 5.5065-4.4545 9.9258-9.926 9.9258s-9.961-4.4193-9.961-9.9259zm35.214-.0008c0-5.5066 4.4544-9.9259 9.9259-9.9259s9.926 4.4544 9.926 9.926c0 5.5066-4.4545 9.9259-9.926 9.9259s-9.926-4.4193-9.926-9.926zm19.8871.0006c0-5.5066 4.4544-9.9259 9.9259-9.9259 5.5066 0 9.926 4.4544 9.926 9.926 0 5.5065-4.4545 9.9258-9.926 9.9258-5.4715.0351-9.926-4.4193-9.926-9.9259zm19.8873-.0002c0-5.5066 4.4544-9.9259 9.926-9.9259s9.9258 4.4544 9.9258 9.926c0 5.5065-4.4543 9.9258-9.9259 9.9258s-9.9259-4.4193-9.9259-9.9259zm39.7734.0003c0-5.5066 4.4543-9.926 9.9259-9.926 5.5066 0 9.9259 4.4544 9.9259 9.926 0 5.5066-4.4544 9.9259-9.926 9.9259-5.4715.035-9.9258-4.4193-9.9258-9.926zm39.7744-.0007c0-5.5066 4.4544-9.9259 9.9259-9.9259 5.5066 0 9.926 4.4544 9.926 9.926 0 5.5065-4.4545 9.9258-9.926 9.9258-5.5066.0351-9.926-4.4193-9.926-9.9259z"/><path d="M343.2111 24.2264c0-5.5066 4.4544-9.9259 9.926-9.9259 5.5065 0 9.9258 4.4544 9.9258 9.926 0 5.5065-4.4543 9.9258-9.9259 9.9258-5.4715.0351-9.9259-4.4193-9.9259-9.9259zm19.8869-.0004c0-5.5066 4.4544-9.9259 9.926-9.9259s9.9259 4.4544 9.9259 9.926c0 5.5065-4.4544 9.9258-9.926 9.9258s-9.9259-4.4193-9.9259-9.9259zM148.9368 44.1134c0-5.5066 4.4544-9.926 9.926-9.926s9.9258 4.4545 9.9258 9.926-4.4543 9.926-9.9259 9.926-9.9259-4.4194-9.9259-9.926zm55.1007-.0006c0-5.5066 4.4544-9.9259 9.9259-9.9259s9.9259 4.4544 9.9259 9.926-4.4544 9.9259-9.926 9.9259-9.9258-4.4194-9.9258-9.926zm79.5478.0007c0-5.5066 4.4543-9.926 9.9259-9.926 5.5066 0 9.9259 4.4544 9.9259 9.926s-4.4544 9.9259-9.926 9.9259c-5.4715.035-9.9258-4.4193-9.9258-9.926zm39.774-.0007c0-5.5066 4.4544-9.9259 9.9259-9.9259 5.5066 0 9.926 4.4544 9.926 9.926s-4.4545 9.9258-9.926 9.9258c-5.5066.0351-9.926-4.4193-9.926-9.9259zm39.7387.0004c0-5.5066 4.4544-9.9259 9.926-9.9259s9.9259 4.4544 9.9259 9.926-4.4544 9.9258-9.926 9.9258-9.9259-4.4193-9.9259-9.9259zM148.937 64.0004c0-5.5066 4.4543-9.926 9.9258-9.926s9.926 4.4545 9.926 9.926c0 5.5066-4.4544 9.926-9.926 9.926s-9.9259-4.4194-9.9259-9.926zm55.1006-.0006c0-5.5066 4.4544-9.9259 9.9259-9.9259s9.9259 4.4544 9.9259 9.926c0 5.5065-4.4544 9.9259-9.926 9.9259s-9.9258-4.4194-9.9258-9.926zm19.8871.0006c0-5.5066 4.4544-9.9259 9.9259-9.9259 5.5066 0 9.926 4.4544 9.926 9.926 0 5.5065-4.4545 9.9258-9.926 9.9258-5.4715.0351-9.926-4.4193-9.926-9.9259zm19.8873-.0002c0-5.5066 4.4544-9.9259 9.926-9.9259s9.9258 4.4544 9.9258 9.926c0 5.5065-4.4544 9.9258-9.9259 9.9258s-9.9259-4.4193-9.9259-9.9259zm39.7733-.0007c0-5.5067 4.4544-9.926 9.926-9.926 5.5066 0 9.9259 4.4544 9.9259 9.926 0 5.5066-4.4544 9.9259-9.926 9.9259-5.4715.035-9.9259-4.4193-9.9259-9.926zm39.774.0003c0-5.5066 4.4544-9.9259 9.9259-9.9259 5.5066 0 9.926 4.4544 9.926 9.926 0 5.5065-4.4545 9.9258-9.926 9.9258-5.5066.0351-9.926-4.4193-9.926-9.9259z"/><path d="M343.2111 63.9994c0-5.5066 4.4544-9.9259 9.926-9.9259 5.5065 0 9.9258 4.4544 9.9258 9.926 0 5.5065-4.4544 9.9258-9.9259 9.9258-5.4715.0351-9.9259-4.4193-9.9259-9.9259zm19.8869.0008c0-5.5066 4.4544-9.9259 9.926-9.9259s9.9259 4.4544 9.9259 9.926c0 5.5065-4.4544 9.9258-9.926 9.9258s-9.9259-4.4193-9.9259-9.9259zM148.937 83.8874c0-5.5066 4.4544-9.926 9.926-9.926s9.9258 4.4545 9.9258 9.926c0 5.5066-4.4543 9.926-9.9259 9.926s-9.9259-4.4194-9.9259-9.926zm55.1007-.0006c0-5.5066 4.4544-9.9259 9.9259-9.9259s9.9259 4.4544 9.9259 9.926c0 5.5065-4.4544 9.9259-9.926 9.9259s-9.9258-4.4194-9.9258-9.926zm79.5478-.0003c0-5.5066 4.4543-9.926 9.9259-9.926 5.5066 0 9.9259 4.4544 9.9259 9.926 0 5.5066-4.4544 9.9259-9.926 9.9259-5.4715.035-9.9258-4.4193-9.9258-9.926zm39.7738.0003c0-5.5066 4.4544-9.9259 9.9259-9.9259 5.5066 0 9.926 4.4544 9.926 9.926 0 5.5065-4.4545 9.9258-9.926 9.9258-5.5066.0351-9.926-4.4193-9.926-9.9259zm39.7387.0004c0-5.5066 4.4545-9.9259 9.926-9.9259s9.9259 4.4544 9.9259 9.926c0 5.5065-4.4544 9.9258-9.926 9.9258s-9.9258-4.4193-9.9258-9.9259zm-214.1609 19.8862c0-5.5066 4.4544-9.926 9.926-9.926s9.9258 4.4545 9.9258 9.926-4.4543 9.926-9.9259 9.926-9.9259-4.4194-9.9259-9.926zm55.1007.0004c0-5.5066 4.4544-9.9259 9.9259-9.9259s9.9259 4.4544 9.9259 9.926-4.4544 9.9259-9.926 9.9259-9.9258-4.4194-9.9258-9.926zm19.8871-.0004c0-5.5066 4.4544-9.9259 9.9259-9.9259 5.5066 0 9.926 4.4544 9.926 9.926s-4.4545 9.9258-9.926 9.9258c-5.4715.0351-9.926-4.4193-9.926-9.9259zm19.8863.0008c0-5.5066 4.4544-9.9259 9.926-9.9259s9.9258 4.4544 9.9258 9.926-4.4544 9.9258-9.9259 9.9258-9.9259-4.4193-9.9259-9.9259zm39.7742-.0007c0-5.5066 4.4544-9.926 9.926-9.926 5.5066 0 9.9259 4.4544 9.9259 9.926s-4.4544 9.9259-9.926 9.9259c-5.4715.035-9.9259-4.4193-9.9259-9.926zm39.7739.0003c0-5.5066 4.4544-9.9259 9.9259-9.9259 5.5066 0 9.926 4.4544 9.926 9.926s-4.4545 9.9258-9.926 9.9258c-5.5066.0351-9.926-4.4193-9.926-9.9259zm39.7387-.0006c0-5.5066 4.4544-9.9259 9.926-9.9259s9.9259 4.4544 9.9259 9.926-4.4544 9.9258-9.926 9.9258-9.9259-4.4193-9.9259-9.9259z"/></g></svg>