<svg fill="currentColor" xmlns="http://www.w3.org/2000/svg" xml:space="preserve" shape-rendering="crispEdges"
	viewBox="0 0 1133.9 283.5">
	<path
		d="M403.1 0H270.2v163.9h13.3V155h8.8v-13.3h13.3v-13.3h-13.3v-93h13.3V22.1h13.3v13.3h8.9v128.5h-8.9v13.3h-13.3v13.3h13.3v8.8h8.9v62h-8.9v8.9h-13.3v13.3h70.9v-13.3h-13.3v-8.9h-8.9v-62h8.9v-8.8h13.3v-13.3h-13.3v-13.3h-8.9V35.4h8.9V22.1h13.3v13.3h13.3v93h-13.3v13.3h13.3V155h8.8v8.9h13.3V0h-4.4zm256.8 88.6v-4.4h-35.4V22.1h13.3v-8.8h13.3V0h-75.3v13.3h13.3v8.8h13.3v62.1h-35.5V93h8.9v13.3h13.3v13.3h13.3v44.3h-13.3v8.8h-13.3v17.8h13.3v8.8h13.3v62h-13.3v8.9h-13.3v13.3h75.3v-13.3h-13.3v-8.9h-13.3v-62h13.3v-8.8h13.3v-17.8h-13.3v-8.8h-13.3v-44.3h13.3v-13.3h13.3V93h8.8z" />
	<path
		d="M558.1 248h-4.4v13.2h-83.6V248h-8.8v-48.6h8.8v-8.8h61.6v-13.4h8.8V164h13.2v-44.4h-13.2v-13.2h-8.8V93h-61.6v-8.8h-8.8V35.6h8.8V22.2h70.4v13.2h13.2v13.2h13.2V0H426.1v13.2h8.8V269h-8.8v13.2h140.8V248h-8.8zm-26.6-93h-13.2v8.8h-48.4V155h-8.8v-26.4h8.8v-9h48.4v8.8h13.2V155zm327.8 115.2h-8.8v-8.8h-13.3v-26.6h-8.8v-44.2H815V164h13.2v-9h8.8v-26.4h-8.8v-9H815V48.8h13.2V22.2h8.8v-8.8h13.2V0H673.8v13.2H687V22h8.8v26.6H709v70.8h-13.2v8.8H687v26.4h8.8v8.8H709v26.4h-13.2v44H687v26.4h-13.2v8.8h-13.2v13.2h61.6v-12H709V248h13.2v-35.4h8.8v-13.2h61.6v13.2h8.8v35.2h13.2v22h-13.2V283H863v-12.8h-3.7zM801.7 35.4h-8.8v128h-13.3v13.2h-35.4v-13.2H731V35.6h-8.8V22.2h79.2v13.2z" />
</svg>