<svg xmlns="http://www.w3.org/2000/svg" xml:space="preserve"  viewBox="0 0 512 128"><g stroke="null"><path d="M441.6742 117.9702H490.9l-57.886-84.4048h-50.6346l-46.491 70.8139V33.5654H289.19v65.2615h-79.5154V82.7497h72.347v-18.066h-72.347V51.59h57.803V33.5654H21.1v21.008h47.4855v63.3968h46.6982V54.5733h47.6927v63.397h210.9501l7.3756-13.591h52.9965l7.3756 13.591zM391.6196 85.526l16.2843-29.9581 16.2015 29.9581h-32.4858z"/><ellipse cx="68.2955" cy="33.5653" fill="#FFF" class="st0" rx="21.1323" ry="22.7483"/><path d="M68.2955 11.6872c11.229 0 20.3035 9.8203 20.3035 21.9196s-9.0744 21.9196-20.3036 21.9196c-11.229 0-20.3035-9.8203-20.3035-21.9196s9.0744-21.9196 20.3036-21.9196m0-1.6574c-12.0993 0-21.961 10.5661-21.961 23.577s9.8617 23.577 21.961 23.577 21.961-10.5661 21.961-23.577-9.8618-23.577-21.961-23.577z"/><ellipse cx="74.6766" cy="33.5653" rx="10.1932" ry="10.6905"/><ellipse cx="115.4909" cy="33.5653" fill="#FFF" class="st0" rx="21.1323" ry="22.7483"/><path d="M115.491 11.6872c11.229 0 20.3035 9.8203 20.3035 21.9196s-9.0745 21.9196-20.3036 21.9196-20.3036-9.8203-20.3036-21.9196 9.0745-21.9196 20.3036-21.9196m0-1.6574c-12.0993 0-21.961 10.5661-21.961 23.577s9.8617 23.577 21.961 23.577 21.961-10.5661 21.961-23.577-9.8617-23.577-21.961-23.577z"/><ellipse cx="109.1098" cy="33.5653" rx="10.1932" ry="10.6905"/><ellipse cx="384.2441" cy="33.5653" fill="#FFF" class="st0" rx="21.1323" ry="22.7483"/><path d="M384.244 11.6872c11.2292 0 20.3036 9.8203 20.3036 21.9196s-9.0744 21.9196-20.3035 21.9196c-11.2292 0-20.3036-9.8203-20.3036-21.9196s9.1159-21.9196 20.3036-21.9196m0-1.6574c-12.0993 0-21.961 10.5661-21.961 23.577s9.8617 23.577 21.961 23.577c12.0992 0 21.961-10.5661 21.961-23.577s-9.8203-23.577-21.961-23.577z"/><ellipse cx="390.6252" cy="33.5653" rx="10.1932" ry="10.6905"/><ellipse cx="431.481" cy="33.5653" fill="#FFF" class="st0" rx="21.1323" ry="22.7483"/><path d="M431.481 11.6872c11.229 0 20.3035 9.8203 20.3035 21.9196s-9.0744 21.9196-20.3035 21.9196c-11.2292 0-20.3036-9.8203-20.3036-21.9196s9.0744-21.9196 20.3036-21.9196m0-1.6574c-12.0993 0-21.961 10.5661-21.961 23.577s9.8617 23.577 21.961 23.577c12.0992 0 21.961-10.5661 21.961-23.577s-9.8618-23.577-21.961-23.577z"/><ellipse cx="425.0584" cy="33.5653" rx="10.1932" ry="10.6905"/><path fill="#FFF" d="M232.2987 85.8574c-6.0911 0-11.0634-5.428-11.0634-12.0993s4.9723-12.0992 11.0634-12.0992c6.091 0 11.0633 5.428 11.0633 12.0992s-4.9308 12.0993-11.0633 12.0993z" class="st0"/><path d="M232.2987 62.529c5.6352 0 10.2346 5.0552 10.2346 11.2706S237.934 85.07 232.2987 85.07s-10.2347-5.0551-10.2347-11.2705 4.5994-11.2706 10.2347-11.2706m0-1.6574c-6.5469 0-11.8921 5.801-11.8921 12.928s5.3452 12.928 11.892 12.928c6.547 0 11.8922-5.801 11.8922-12.928s-5.3038-12.928-11.8921-12.928z"/><ellipse cx="232.2987" cy="73.7582" rx="5.3452" ry="5.8839"/><path fill="#FFF" d="M256.2486 85.8574c-6.091 0-11.0634-5.428-11.0634-12.0993s4.9723-12.0992 11.0634-12.0992c6.091 0 11.0634 5.428 11.0634 12.0992s-4.9723 12.0993-11.0634 12.0993z" class="st0"/><path d="M256.2486 62.529c5.6353 0 10.2347 5.0552 10.2347 11.2706S261.8839 85.07 256.2486 85.07s-10.2346-5.055-10.2346-11.2704 4.558-11.2706 10.2347-11.2706m0-1.6574c-6.5469 0-11.892 5.801-11.892 12.928s5.3451 12.928 11.892 12.928 11.8921-5.801 11.8921-12.928-5.3452-12.928-11.892-12.928z"/><ellipse cx="256.2486" cy="73.7582" rx="5.3452" ry="5.8839"/><ellipse cx="302.7397" cy="32.6538" fill="#FFF" class="st0" rx="9.406" ry="8.9087"/><path d="M302.7397 24.5738c4.7237 0 8.5772 3.6049 8.5772 8.08s-3.8121 8.08-8.5772 8.08-8.5773-3.605-8.5773-8.08 3.8536-8.08 8.5773-8.08m0-1.6575c-5.6353 0-10.2347 4.3508-10.2347 9.7374s4.5994 9.7375 10.2347 9.7375 10.2346-4.3508 10.2346-9.7374-4.5994-9.7375-10.2346-9.7375z"/><ellipse cx="302.7397" cy="32.6538" rx="4.4751" ry="4.2265"/><ellipse cx="322.7532" cy="32.6538" fill="#FFF" class="st0" rx="9.406" ry="8.9087"/><path d="M322.7532 24.5738c4.7237 0 8.5772 3.6049 8.5772 8.08s-3.812 8.08-8.5772 8.08-8.5772-3.605-8.5772-8.08 3.8535-8.08 8.5772-8.08m0-1.6575c-5.6353 0-10.2347 4.3508-10.2347 9.7374s4.5994 9.7375 10.2347 9.7375 10.2347-4.3508 10.2347-9.7374-4.5994-9.7375-10.2347-9.7375z"/><ellipse cx="322.7532" cy="32.6538" rx="4.4751" ry="4.2265"/></g></svg>