<svg xmlns="http://www.w3.org/2000/svg" xml:space="preserve"  viewBox="0 0 512 128"><g stroke="#FFF" stroke-miterlimit="10"><path d="m312.0294 39.7987-31.828-31.8681c-.4405-.4404-1.041-.6806-1.6815-.6806h-45.0397c-.6406 0-1.2411.2402-1.6815.6806l-31.868 31.868c-.4405.4405-.6807 1.041-.6807 1.6816v45.0396c0 .6406.2402 1.2411.6806 1.6815l31.868 31.8681c.4405.4404 1.041.6806 1.6816.6806h45.0396c.6406 0 1.2411-.2402 1.6815-.6806l31.8681-31.868c.4404-.4405.6806-1.041.6806-1.6816V41.4802c0-.6406-.2802-1.2411-.7206-1.6815zm-4.0036 45.7603-30.4668 30.4668h-43.118L203.9742 85.559V42.441l30.4668-30.4668h43.118l30.4668 30.4668v43.118z" class="st0"/><path d="M295.775 46.5246 273.4755 24.225c-.04-.04-.08-.04-.08-.0801-.0801-.08-.1602-.1602-.2803-.2002-.08-.08-.2002-.1201-.3203-.1601-.04 0-.08-.04-.08-.04-.1602-.0401-.2803-.1202-.4405-.1202h-.1601c-.08 0-.2002-.04-.2802-.04-.0801 0-.1602 0-.2403.04-.08 0-.1601 0-.2402.04-.08 0-.12.04-.2001.04-.0801.0401-.1602.0401-.2403.0802-.08.04-.12.08-.2001.12-.0801.0401-.1602.0801-.2002.1202-.1201.08-.2402.2002-.3603.2802-.04.04-.04.0801-.0801.1201-.08.0801-.1601.1602-.2002.2403-.08.12-.1201.2001-.1601.3202 0 .04-.04.04-.04.0801l-11.0898 26.7436h-5.0445l-9.7285-23.5008h19.417c1.3212 0 2.3621-1.0409 2.3621-2.362s-1.0409-2.3621-2.362-2.3621H240.166c-.08 0-.2001 0-.2802.04-.1601.04-.2803.0801-.4004.1201h-.04s-.04 0-.04.04c-.1201.0401-.2402.1202-.3604.2003-.08.04-.1601.12-.2402.2001-.04.04-.08.04-.12.0801l-16.2144 16.2143a2.3439 2.3439 0 0 0 0 3.323c.4805.4403 1.081.6805 1.6815.6805s1.201-.2402 1.6815-.6806l13.732-13.732 9.7287 23.5006-3.5632 3.5632-12.1307-4.9644c-.04 0-.08-.04-.12-.04-.1202-.04-.2003-.0801-.3204-.0801-.12-.04-.2001-.04-.3202-.04h-.1602c-.12 0-.2802 0-.4003.04-.1602.04-.2803.08-.4004.1201-.04 0-.04 0-.08.04-.0801.04-.2002.0801-.2803.1602-.04.04-.08.04-.1201.08-.08.0401-.1201.1202-.2002.1602-.04.04-.1201.08-.1601.1201-.0801.08-.1201.1601-.2002.2402-.04.04-.08.08-.08.1201-.0801.1201-.1602.2803-.2403.4004 0 .04 0 .08-.04.08l-.1201.3604c-.04.12-.04.2402-.04.3603v19.4171c0 .6406.2401 1.241.6805 1.6815l12.531 12.531-4.2036 10.089-19.1369-19.137v-30.627c0-1.3211-1.041-2.362-2.362-2.362s-2.3622 1.0409-2.3622 2.362V79.834c0 .6405.2403 1.241.6806 1.6815l22.3397 22.3396.08.0801c.0802.08.1602.1602.2803.2402.0801.0801.2002.1201.3203.1602.04 0 .08.04.08.04l.3604.1201c.04 0 .04 0 .08.04h.0802c.12 0 .2402.0401.3603.0401.12 0 .2802 0 .4003-.04.04 0 .08 0 .1201-.04.0801-.0401.2002-.0401.2803-.0801.04 0 .08-.04.12-.04.1202-.0401.2403-.1202.3604-.2003.1201-.08.2402-.1601.3203-.2802 0 0 .04 0 .04-.04l.04-.0401c.0801-.08.1602-.1601.2003-.2803l.08-.08c.08-.1201.1201-.2402.2002-.3603l6.1254-14.813 4.9243-11.9306h5.0445l9.7286 23.5007h-3.243c-1.321 0-2.362 1.041-2.362 2.362s1.041 2.3622 2.362 2.3622h6.766c.1602 0 .3203 0 .4404-.04.3203-.0801.6006-.2003.8408-.3604.08-.08.1601-.1201.2402-.2002.04-.04.08-.04.1201-.08l4.7642-4.7642a2.3439 2.3439 0 0 0 0-3.323 2.3439 2.3439 0 0 0-3.323 0l-2.282 2.282-9.7285-23.5007 3.5631-3.5631 26.7836 11.0898c.2803.12.6006.1601.9208.1601.9209 0 1.8016-.5605 2.162-1.4413.4804-1.201-.0801-2.6023-1.2812-3.0827l-26.7836-11.0898V61.618l26.7436-11.0898c.04 0 .08-.04.12-.04.1202-.04.2003-.08.2803-.1602.0801-.08.2002-.16.2803-.2402l.08-.08c.1202-.1201.2002-.2402.2803-.3604.04-.04.08-.12.08-.16l.1202-.2403c.04-.08.04-.1601.08-.2402 0-.08.04-.1201.04-.2002 0-.08 0-.1201.0401-.2002 0-.08.04-.1601.04-.2402 0-.08 0-.1601-.04-.2402 0-.08 0-.1601-.04-.2002-.04-.1601-.08-.3203-.1201-.4404 0-.04-.04-.08-.04-.08-.0401-.1201-.0801-.2002-.1602-.3203-.08-.08-.1201-.1602-.2002-.2402.2002-.2402.1602-.2803.1201-.3203zm-29.3058 10.5693-3.5631-3.5631 9.7286-23.5007 17.3352 17.3352-23.5007 9.7286zm-7.3665 14.4527h-6.2455l-4.4439-4.4439v-6.2455l4.444-4.4439h6.2454l4.444 4.444v6.2454l-4.444 4.444zm-24.0612 1.121v-14.813l8.6877 3.6032v6.6458c0 .6406.2402 1.2411.6806 1.6815l4.6841 4.6841-3.6031 8.6877-10.4493-10.4893z" class="st0"/><circle cx="797.1289" cy="-60.4278" r="9" class="st0" transform="matrix(.15321 -.36989 .36989 .15321 156.199 368.1)"/></g></svg>