<svg xmlns="http://www.w3.org/2000/svg" viewBox="0 0 80.43442 33.86671"><g fill="currentColor"><path d="M-87.89572 152.05557q.55291-.5529 2.24847-1.25324 1.69557-.73721 4.16519-1.51127 2.50649-.77406 5.56588-1.54812 3.09624-.81093 6.37679-1.43755 3.28055-.66348 6.5611-1.1058 3.3174-.47918 6.22935-.62662 2.94881-.14744 5.30786.0737 2.3959.22116 3.83345.9215.70034.33174.81092 1.40069.11058 1.06894-.25802 2.24846-.3686 1.14266-1.17952 2.13789-.77406.99522-1.80615 1.17952-.7372.14744-1.87986 0-1.1058-.1843-2.94881-.3686-1.843-.1843-4.60751-.22116-2.72765-.0737-6.67168.29488 1.14266.9215 1.54812 1.76928.1843.44233.11058 1.95359-.03686 1.4744-.29488 3.50171-.22116 1.99044-.5529 4.20205-.33174 2.17475-.70034 4.09147-.33174 1.87987-.66348 3.13311-.29488 1.2901-.44232 1.40068-.22117.1843-.77407.22116-.51604.0737-1.17952-.0369-.62662-.11058-1.25324-.44232-.58976-.33174-.9215-.9215-.1843-.29488-.33175-1.40068-.14744-1.06895-.25802-2.61707-.11058-1.58498-.1843-3.46485-.07372-1.87986-.07372-3.79659t.03686-3.68601q.03686-1.80614.14744-3.16997-2.87509.40546-6.30308 1.1058-3.39112.66349-7.44573 1.62185-.62662.14744-1.21638-.22116-.58976-.3686-.99523-.95836-.3686-.62663-.44232-1.29011-.0369-.70034.44232-1.17952zm48.39732 6.96656q.25802-.14744.70034-.11058.47918.0369.9215.29488.47918.22116.81093.62662.33174.40546.33174.95836 0 .92151-.88465 2.28533-.84778 1.36382-2.35904 2.65393-1.4744 1.25324-3.53857 2.17474-2.06417.88464-4.42321.88464-1.54813 0-3.02253-.44232-1.4744-.44232-2.61707-1.2901-1.1058-.84778-1.80614-2.06417-.66349-1.25324-.66349-2.87508 0-1.54813.5529-2.72765.5529-1.21638 1.43755-2.02731.9215-.84778 2.06417-1.32696 1.14266-.47918 2.35904-.58976 1.14267-.11058 2.2116.11058 1.10581.22116 1.99045.70034.88465.44232 1.51127 1.14266.62662.70035.81092 1.58499.25802 1.21638-.25802 2.24846-.47918 1.03209-1.51127 1.62185-.99522.58976-2.3959.58976-1.40069 0-2.91195-.88464.47918.81092 1.43754 1.25324.95837.44232 2.10103.44232 1.17952 0 2.3959-.47918 1.25325-.47918 2.3222-1.51126.44231-.44232.77405-.92151.33175-.47918.58977-.9215.29488-.47918.5529-.84778.25802-.3686.51604-.5529zm-9.17817.0369q-.33174-.3686-.77406-.33174-.40546.0369-.70034.33174-.25802.25802-.29488.66348 0 .40546.40546.77406.40546.33174.77406.29488.40546-.0369.62662-.29488.25803-.25802.25803-.66348.03686-.40546-.29489-.77406zm10.2471-3.42803q.29489-.14744.81093-.14744.5529 0 1.1058.14744.5529.11058.99522.33174.47918.22116.62662.51604.14745.29488 0 .84778-.11057.5529-.25802 1.25325-.14744.70034-.25802 1.4744-.07372.7372.14744 1.43754.14744.58977.5529.95837.44233.33174.95837.47918.51604.11058 1.06894 0 .58976-.11058 1.06894-.47918.47918-.3686.77407-.88465.29488-.5529.47918-1.03208.1843-.51604.3686-.9215.1843-.40546.44232-.58976.25802-.14744.70034-.0737.44232.0369.88464.29488.44233.22116.77407.62662.3686.40546.40546.9215.07372.51604-.33174 1.54813-.3686 1.03208-1.14267 2.17474-.77406 1.14267-1.91672 2.21161-1.14267 1.03208-2.5802 1.62184-1.51127.58976-2.8751.40546-1.36382-.1843-2.43276-.9215-1.06895-.7372-1.73243-1.91672-.66348-1.21639-.77406-2.65393-.11058-1.43754.11058-2.72765.22116-1.32696.5529-2.35904.3686-1.03209.77406-1.69557.40546-.66348.70034-.84778zm6.30308-4.64437q0 1.4744-1.03208 2.50648-1.03208 1.03209-2.50649 1.03209-1.4744 0-2.50648-1.03209-1.03209-1.03208-1.03209-2.50648 0-1.47441 1.03209-2.50649 1.03208-1.03208 2.50648-1.03208 1.4744 0 2.50649 1.03208 1.03208 1.03208 1.03208 2.50649zm7.9249 4.46007q2.61706-.11058 4.0546 1.54812.40546-.66348.81093-.9215.33174-.14744.84778-.14744.5529 0 1.1058.14744.5529.11058.99522.33174.44232.22116.58976.51604.14745.29488 0 .77406-.11058.47919-.25802 1.10581-.14744.58976-.25802 1.2901-.07372.70034.14744 1.40068.14744.58977.51605.95837.40546.33174.88464.47918.47918.11058.99522 0 .5529-.11058 1.03208-.47918.47918-.3686.77407-.88465.29488-.5529.47918-1.03208.1843-.51604.3686-.9215.1843-.40546.44232-.58976.25802-.14744.70034-.0737.44232.0369.88464.29488.44232.22116.77406.62662.33174.40546.40547.9215.03686.51604-.3686 1.54813-.40547 1.03208-1.21639 2.17474-.81092 1.14267-1.99044 2.21161-1.17953 1.03208-2.61707 1.62184-2.10103.84779-3.7966.22116-1.69556-.66348-2.61706-2.17474-.84778 1.03208-1.91672 1.62184-1.06895.58976-2.17475.66348-1.21638.11058-2.32219-.25802-1.1058-.3686-1.95358-1.14266-.81092-.77406-1.2901-1.95359-.47919-1.17952-.44233-2.72764 0-1.54813.5529-2.83823.5529-1.2901 1.43755-2.21161.9215-.95836 2.06417-1.4744 1.14266-.5529 2.35904-.62662zm2.72764 6.04505q.07372-.66348-.07372-1.1058-.11058-.47918-.3686-.77406-.25802-.29488-.58976-.44232-.29489-.14744-.62663-.1843-.47918-.0369-.88464.14744-.3686.1843-.62662.5529-.25802.33174-.40546.77406-.14744.44232-.11058.88464.07372.88465.5529 1.54813.47918.66348 1.2901.58976.81093-.0737 1.2901-.58976.47919-.5529.5529-1.40069z" transform="translate(88.34068 -144.51399)"/><path d="M-51.86699 177.02183q2.28283.0725 5.45827.26163 3.17367.22592 6.43057.41893 3.3366.23374 6.43058.41894 3.17543.18909 5.3768.25773 2.20313.0318 3.12926-.55116.92614-.58295.80026-1.36393-.1241-.8178-1.22934-1.60883-1.02378-.78712-2.88516-1.13466-1.21317-.24266-3.411-.38491-2.11638-.13832-4.72684-.18968-2.52723-.0843-5.3024-.10655-2.69369-.0184-5.14651.0485-2.3696.034-4.25039.0915-1.79932.0614-2.62105.16958-1.14936.12942-1.82933.68727-.5985.56175-.5488 1.22838.13293.63371 1.16906 1.1631 1.03612.5294 3.15602.59411z" transform="translate(88.34068 -144.51399)"/></g></svg>