<svg xmlns="http://www.w3.org/2000/svg" xml:space="preserve"  viewBox="0 0 512 128"><path stroke="null" d="M137.75 8.4509h29.6654v6.9363H137.75zm121.2871 0h26.9222v6.9363h-26.9222zm30.214 0h29.6262v6.9363h-29.6262zm35.7395 0h46.0068v6.9363h-46.0068zm0 52.0418h46.0068v6.9363h-46.0068zm-65.9535 52.0417h26.9222v6.9363h-26.9222zm30.214 0h29.6262v6.9363h-29.6262zM170.7072 8.4509h33.4274v6.9363h-33.4274zm39.2664 0h43.1853v6.9363h-43.1853zm0 52.0418h43.1853v6.9363h-43.1853zm0 52.0417h43.1853v6.9363h-43.1853zm-42.5583-97.1472h3.2526v104.1619h-3.2526zm118.5831 0h3.2526v97.1472h-3.2526zm35.7004.0392h3.2526v104.0835h-3.2526zm49.2986 0h3.2526v104.0835h-3.2526zm-164.2764-.0392h3.2526v97.1472h-3.2526z"/></svg>