<svg xmlns="http://www.w3.org/2000/svg" xml:space="preserve" viewBox="0 0 512 128"><path stroke="null" d="m409.65 121.291-.325-113.038c0-1.422-.488-1.87-1.057-1.87h-61.882c-.569 0-1.057.488-1.057 1.87l-1.95 113.038c0-.203.488.285 1.057.285h14.586a1.05 1.05 0 0 0 1.057-1.057V91.102c0-.61.487-1.057 1.056-1.057h30.8a1.05 1.05 0 0 1 1.056 1.057v29.417c0 .61.487 1.057 1.097 1.057h14.465c.61 0 1.097-.488 1.097-.285zm-49.53-52.375V43.643c0-.61.487-1.056 1.056-1.056h30.799c.61 0 1.056.488 1.056 1.056v25.273a1.05 1.05 0 0 1-1.056 1.057h-30.799c-.569.04-1.056-.447-1.056-1.057zm-94.957-26.004h12.636c.61 0 1.056.488 1.056 1.056v42.014a1.05 1.05 0 0 1-1.056 1.056h-15.074a1.05 1.05 0 0 0-1.057 1.057v32.384a1.05 1.05 0 0 0 1.057 1.056h64.93a1.05 1.05 0 0 0 1.056-1.056V88.095a1.05 1.05 0 0 0-1.056-1.057h-14.75a1.05 1.05 0 0 1-1.056-1.056V43.968c0-.61.487-1.056 1.056-1.056h14.709a1.05 1.05 0 0 0 1.056-1.056V7.44a1.05 1.05 0 0 0-1.056-1.056h-62.451a1.05 1.05 0 0 0-1.057 1.056v34.375c0 .61.447 1.097 1.057 1.097zM183.37 7.4l-4.51 113.038a1.07 1.07 0 0 0 1.057 1.138h64.767a1.05 1.05 0 0 0 1.056-1.057v-18.325a1.05 1.05 0 0 0-1.056-1.056h-29.336c-.61 0-1.097-.488-1.057-1.097l.57-25.233c0-.569.487-1.056 1.056-1.056h30.392a1.05 1.05 0 0 0 1.057-1.057V54.33a1.05 1.05 0 0 0-1.057-1.057h-29.905c-.61 0-1.097-.487-1.056-1.097l.528-23.85c0-.57.487-1.057 1.056-1.057h31.206a1.05 1.05 0 0 0 1.056-1.057V7.44a1.05 1.05 0 0 0-1.056-1.056h-63.671c-.569 0-1.056.447-1.097 1.016zm-79.964 33.684 12.556.243c.61 0 1.097.529 1.056 1.138l-4.429 78.014a1.069 1.069 0 0 0 1.057 1.137h35.268a1.05 1.05 0 0 0 1.057-1.056l1.91-78.136c0-.568.487-1.056 1.056-1.056h16.537a1.05 1.05 0 0 0 1.057-1.056V7.44a1.05 1.05 0 0 0-1.057-1.056h-65.296a1.05 1.05 0 0 0-1.056 1.056l-.772 32.546a1.11 1.11 0 0 0 1.056 1.098z"/></svg>