<svg xmlns="http://www.w3.org/2000/svg" xml:space="preserve" viewBox="0 0 512 128"><g stroke="null"><path d="M55.075 55.2705h94.0255V66.399H55.075z"/><path stroke-width=".3544" d="M107.65 55.2698v52.5947H96.5215V55.2698zm124.3123-31.9277v89.2055h-7.3009V23.3421z"/><path d="M149.1005 55.4832h7.9742c0 3.0125 3.296 7.3009 6.8756 7.3009 3.5796 0 6.8756-2.41 6.8756-5.4226 0-2.658-2.3745-4.9263-5.5997-5.3161l-3.7922-.071v-7.159l3.7922-.071c3.1897-.3543 5.5997-2.658 5.5997-5.387 0-2.977-3.296-5.387-6.8756-5.387-3.5795 0-6.8756 4.6428-6.8756 7.6198h-7.9742c0-6.911 6.4148-14.8498 14.8498-14.8498 8.3642 0 15.5942 5.6706 15.5942 12.5816 0 3.5087-1.7012 6.7338-4.5365 9.002 2.8353 2.2683 4.5365 5.4935 4.5365 8.9667 0 6.982-7.23 12.5816-15.5942 12.5816-8.435.0709-14.8498-7.4072-14.8498-14.3891zm124.3277 53.6225c-.319 0-.638-.1063-.886-.3544-.4962-.4962-.4962-1.2759 0-1.772l91.1193-91.1548c.4962-.4962 1.2759-.4962 1.772 0 .4963.4961.4963 1.2758 0 1.772l-91.1192 91.1548c-.2481.248-.5671.3544-.886.3544z"/><path d="M455.6669 109.1057c-.319 0-.638-.1063-.886-.3544L363.6615 17.632c-.4962-.4962-.4962-1.276 0-1.7721.4962-.4962 1.2759-.4962 1.772 0l91.1194 91.1193c.4962.4962.4962 1.276 0 1.772-.248.2482-.567.3545-.886.3545z"/></g></svg>