<svg fill="currentColor" xmlns="http://www.w3.org/2000/svg" xml:space="preserve" shape-rendering="crispEdges"
	viewBox="0 0 1133.9 283.5">
	<path d="M1129.4 0H0v282.2h1127V0h2.4zm0 8.9v268.9H4.4V4.4h1118.2v4.5z" />
	<path
		d="M1009.8 13.3h-899v260.1h902v-260h-4.4 1.4zm0 22.1v158.8h-4.4v4.4h-4.4v4.4h-4.4v4.4h-4.4v4.4h-4.4v4.4h-4.4v-163h4.4v-4.4h4.4v-4.4h4.4V40h4.4v-4.4h4.4V31h4.4v4.4zm0 181.6v48.4H119.6V22.2h52.8v4.4H168V31h-4.4v4.4h-4.4v4.4H155v4.4h-4.4v4.4h-4.4V93h70.4v145.2h44v-4.4h4.4v-4.4h4.4V225h4.4v-4.4h4.4V217h4.4v-4.4h4.4v-4.4h4.4v-4.4h4.4v-4.4h4.4V195h4.4v-4.4h4.4V186h4.4v-4.4h4.4v-4.4h4.4v-4.4h4.4v-4.4h4.4V164h4.4v-4.4h4.4V155h4.4v-4.4h4.4v-4.4h4.4v-4.4h4.4v-4.4h4.4v101.2h184.8v-4.4h4.4v-4.4h4.4v-4.4h4.4V221h4.4v-4h4.4v-4.4h4.4v-4.4h4.4v-4.4h4.4v-4.4h4.4V195h4.4v-4.4h4.4V186h4.4v-4.4h4.4v-4.4h4.4v-4.4h4.4v-4.4h4.4V164h4.4v-4.4h4.4V155h4.4v-4.4h4.4v-4.4h4.4v-4.4h4.4v-4.4h4.4v57.2h-35.2v44H727v-4.4h4.4v-4.4h4.4v-4.4h4.4V221h4.4v-4h4.4v-4.4h4.4v-4.4h4.4v-4.4h4.4v-4.4h4.4V195h4.4v-4.4h4.4V186h4.4v-4.4h4.4v-4.4h4.4v61.6h44v-4.4h4.4V230h4.4v-4.4h4.4v-4.4h4.4V217h4.4v-4.4h4.4v-4.4h4.4v-4.4h4.4v-4.4h4.4V195h4.4v-4.4h4.4V186h4.4v-4.4h4.4v-4.4h4.4v-4.4h4.4v-4.4h4.4V164h30.8v74.8h44v-4.4h4.4V230h4.4v-4.4h4.4v-4.4h4.4V217h4.4v-4.4h4.4v4.4zM1001 26.6h-4.4V31h-4.4v4.4h-4.4v4.4h-4.4v4.4H979v4.4H810.6v-4.4h4.4v-4.4h4.4v-4.4h4.4V31h4.4v-4.4h4.4v-4.4h167.2v4.4zM890.3 168.3v4.4h-4.4v4.4h-4.4v4.4H877v4.4h-4.4v4.4h-4.4v4.4h-4.4v4.4h-4.4v4.4H855v4.4h-4.4v4.4H846v4.4h-4.4v4.4h-4.4V164h57.2v4.4h-4.1zm-252.5-35.4v4.4h-4.4v4.4H629v4.4h-4.4v4.4h-4.4v4.4h-4.4v4.4h-4.4v4.4H607v4.4h-4.4v4.4h-4.4v4.4h-4.4v4.4h-4.4v4.4H585v4.4h-4.4v4.4h-4.4v4.4h-4.4v4.4h-4.4v4.4H563v4.4h-4.4v4.4h-4.4v4.4h-4.4v-21.5h4.4V195h4.4v-4.4h4.4V186h4.4v-4.4h4.4v-4.4h4.4v-4.4h4.4v-4.4h4.4V164h4.4v-4.4h4.4V155h4.4v-4.4h4.4v-4.4h4.4v-4.4h4.4v-4.4h4.4V133h4.4v-4.4h4.4V124h4.4v-4.4h4.4v-4.4h4.4v-4.4h4.4v-4.4h4.4V102h4.4v22h-4.4v4.4h-4.4v4.4h-4.4zm-287.9 0v4.4h-4.4v4.4H341v4.4h-4.4v4.4h-4.4v4.4h-4.4v4.4h-4.4v4.4H319v4.4h-4.4v4.4H310v4.4h-4.4v4.4h-4.4v4.4h-4.4v4.4h-4.4v4.4H288v4.4h-4.4v4.4H279v4.4h-4.4v4.4h-4.4v4.4h-4.4v4.4h-4.4V93h74.8v-4.4h4.4v-4.4h4.4v-4.4h4.4v-4.4h4.4V71h4.4v-4.4h4.4v57.2h-4.4v4.4h-4.4v4.4h-3.9zm429.6 39.8h-4.4v4.4h-4.4v4.4h-4.4v4.4h-4.4v4.4h-4.4v4.4H753v4.4h-4.4v4.4h-4.4v4.4h-4.4v4.4h-4.4v4.4H731v-17.6h4.4v-4.4h4.4v-4.4h4.4V186h4.4v-4.4h4.4v-4.4h4.4v-4.4h4.4v-4.4h4.4V164h4.4v-4.4h4.4V155h4.4v-4.4h4.4v-4.4h4.4v-4.4h4.4v17.6h-4.4v4.4H784v4.4h-4.4v4.5zM637.8 97.4v4.4h-4.4v4.4H629v4.4h-4.4v4.4h-4.4v4.4h-4.4v4.4h-4.4v4.4H607v4.4h-4.4v4.4h-4.4v4.4h-4.4v4.4h-4.4v4.4H585v4.4h-4.4v4.4h-4.4v4.4h-4.4v4.4h-4.4v4.4H563v4.4h-4.4v4.4h-4.4v4.4h-4.4v4.4h-4.4v4.4H417.8v-4.4h4.4V186h4.4v-4.4h4.4v-4.4h4.4v-4.4h4.4v-4.4h4.4V164H519v-4.4h4.4V155h4.4v-4.4h4.4v-4.4h4.4v-4.4h4.4v-4.4h4.4V133h4.4v-4.4h4.4V124h4.4v-4.4h4.4v-4.4h4.4v-4.4h4.4v-4.4h4.4V102h4.4v-4.4h4.4V93h4.4v-4.4h4.4v-4.4h4.4v-4.4h4.4v-4.4h4.4V71h4.4v-4.4h4.4V93h26.4v4.4h-4.4zm-106.3 0h-4.4v4.4h-4.4v4.4h-4.4v4.4h-4.4v4.4h-4.4v4.4h-92.4V115h4.4v-4.4h4.4v-4.4h4.4v-4.4h4.4v-4.4h4.4V93h92.4v4.4zm-110.7 0v4.4h-4.4v4.4H412v4.4h-4.4V93h17.6v4.4h-4.4zm4.4 70.9h-4.4v4.4h-4.4v4.4H412v4.4h-4.4v-17.6h17.6v4.4zM708.7 186h4.4v-4.4h4.4v-4.4h4.4v-4.4h4.4v-4.4h4.4V164h4.4v-4.4h4.4V155h4.4v-4.4h4.4v-4.4h4.4v-4.4h4.4v-4.4h4.4V133h4.4v-4.4h4.4V124h4.4v-4.4h4.4v-4.4h4.4v-4.4h4.4v-4.4h4.4V124h-4.4v4.4H784v4.4h-4.4v4.4h-4.4v4.4h-4.4v4.4h-4.4v4.4H762v4.4h-4.4v4.4H753v4.4h-4.4v4.4h-4.4v4.4h-4.4v4.4h-4.4v4.4H731v4.4h-4.4v4.4h-4.4v4.4h-17.6V190h4.4v-4zM939 97.4v22h-88.4V115h4.4v-4.4h4.4v-4.4h4.4v-4.4h4.4v-4.4h4.4V93h66v4.4zm-101.9 8.9V93h17.6v4.4h-4.4v4.4H846v4.4h-4.4v4.4h-4.4v-4.3zm-17.7-79.7H815V31h-4.4v4.4h-4.4v4.4h-4.4v4.4h-4.4v4.4H793v39.8h-4.4V93H784v4.4h-4.4v4.4h-4.4v4.4h-4.4v4.4h-4.4v4.4H762v4.4h-4.4v4.4H753v4.4h-4.4v4.4h-4.4v4.4h-4.4v4.4h-4.4v4.4H731v4.4h-4.4v4.4h-4.4v4.4h-4.4v4.4h-4.4v4.4H709v4.4h-4.4v4.4h-4.4v4.4h-4.4V93H731v-4.4h4.4v-4.4h4.4v-4.4h4.4v-4.4h4.4V71h4.4v-4.4h4.4V62h4.4v-4.4h4.4v-4.4h4.4v-4.4h4.4v-4.4h4.4V40h4.4v-4.4h4.4V31h4.4v-4.4h4.4v-4.4h22v4.4zm-35.4 0h-4.4V31h-4.4v4.4h-4.4v4.4h-4.4v4.4H762v4.4h-4.4V53H753v4.4h-4.4V62h-4.4v4.4h-4.4v4.4h-4.4v4.4H731v-22h4.4v-4.4h4.4v-4.4h4.4V40h4.4v-4.4h4.4V31h4.4v-4.4h4.4v-4.4h22v4.4zm-35.5 0h-4.4V31h-4.4v4.4h-4.4v4.4h-4.4v4.4h-4.4v4.4h-92.4v-4.4h4.4v-4.4h4.4v-4.4h4.4V31h4.4v-4.4h4.4v-4.4h92.4v4.4zm-110.7 0h-4.4V31H629v4.4h-4.4v4.4h-4.4v4.4h-4.4v4.4h-4.4V53H607v4.4h-4.4V62h-4.4v4.4h-4.4v4.4h-4.4v4.4H585v4.4h-4.4V84h-4.4v4.4h-4.4V93h-4.4v4.4H563v4.4h-4.4v4.4h-4.4v4.4h-4.4v4.4h-4.4v4.4H541v4.4h-4.4v4.4h-4.4v4.4h-4.4v4.4h-4.4v4.4H519v4.4h-4.4v-17.6h4.4V124h4.4v-4.4h4.4v-4.4h4.4v-4.4h4.4v-4.4h4.4V102h4.4v-4.4h4.4V93h4.4v-4.4h4.4v-4.4h4.4v-4.4h4.4v-4.4h4.4V71h4.4v-4.4h4.4V62h4.4v-4.4h4.4v-4.4h4.4v-4.4h4.4v-4.4h4.4V40h4.4v-4.4h4.4V31h4.4v-4.4h4.4v-4.4h17.6v4.4zm-35.4 0H598V31h-4.4v4.4h-4.4v4.4h-4.4v4.4h-4.4v4.4H576V53h-4.4v4.4h-4.4V62h-4.4v4.4h-4.4v4.4H554v4.4h-4.4V57.6h4.4v-4.4h4.4v-4.4h4.4v-4.4h4.4V40h4.4v-4.4h4.4V31h4.4v-4.4h4.4v-4.4h17.6v4.4zm-35.5 0h-4.4V31h-4.4v4.4h-4.4v4.4h-4.4v4.4h-4.4v4.4H382.1v-4.4h4.4v-4.4h4.4v-4.4h4.4V31h4.4v-4.4h4.4v-4.4h162.8v4.4zm-181.6 0h-4.4V31h-4.4v4.4H372v4.4h-4.4v4.4h-4.4v4.4h-4.4V53h-4.4v4.4H350V62h-4.4v4.4H341v4.4h-4.4v4.4h-4.4V57.6h4.4v-4.4h4.4v-4.4h4.4v-4.4h4.4V40h4.4v-4.4h4.4V31h4.4v-4.4h4.4v-4.4H385v4.4zm-35.4 0h-4.4V31H341v4.4h-4.4v4.4h-4.4v4.4h-4.4v4.4H164v-4.4h4.4v-4.4h4.4v-4.4h4.4V31h4.4v-4.4h4.4v-4.4h162.8v4.4z" />
</svg>