<svg xmlns="http://www.w3.org/2000/svg" xml:space="preserve"  viewBox="0 0 512 128"><g stroke="null"><path d="M223.2474 42.9233h31.025v10.8752h-31.025zm0 30.0811h31.025v10.8752h-31.025zm-27.742-30.0811h-12.9271v10.8341h12.9271v30.1222h10.8342V53.7574h12.9271V42.9233h-12.9271zm65.9077 0h10.8752v40.9563h-10.8752zm46.0861 0h-27.9471v40.9563h10.8752V73.0044h17.113v10.8752h10.8751V42.9233h-10.9162zm-17.113 19.206v-8.3719h17.113v8.3718h-17.113z"/><path stroke-width=".4104" d="m151.2491 65.0586 7.2836-7.2836 7.2836 7.2836-7.2836 7.2836zm14.5705.0035 7.2836-7.2836 7.2836 7.2836-7.2836 7.2836zm165.7939.0021 7.2836-7.2836 7.2836 7.2836-7.2836 7.2836zm14.5705.0035 7.2836-7.2836 7.2836 7.2836-7.2836 7.2836zM243.2284 27.686l7.2836-7.2837 7.2836 7.2836-7.2836 7.2836zm.0036-14.5706 7.2835-7.2836 7.2836 7.2836-7.2836 7.2836zm.0143 101.7684 7.2836-7.2836 7.2836 7.2836-7.2836 7.2836zm-.0255-14.5995 7.2836-7.2836 7.2836 7.2836-7.2836 7.2836z"/><path d="M292.6433 104.0294h10.3006V114.33h-10.3006zm-10.3006-10.3006h10.3006v10.3006h-10.3006zm-89.3816 10.3006h10.3006V114.33h-10.3006zm10.3006-10.3006h10.3006v10.3006h-10.3006zm79.081-70.2988h10.3006v10.3006h-10.3006zm10.3006-10.3006h10.3006V23.43h-10.3006zm-99.6822 0h10.3006V23.43h-10.3006zM203.2617 23.43h10.3006v10.3006h-10.3006z"/></g></svg>